<?xml version="1.0" standalone="no"?>
<!DOCTYPE svg PUBLIC "-//W3C//DTD SVG 1.1//EN" "http://www.w3.org/Graphics/SVG/1.1/DTD/svg11.dtd" >
<svg xmlns="http://www.w3.org/2000/svg" xmlns:xlink="http://www.w3.org/1999/xlink" version="1.1">
<metadata>
Created by FontForge 20201107 at Fri Dec 12 14:10:25 2025
 By 
copyright missing
</metadata>
<defs>
<font id="Polin-Extrabold" horiz-adv-x="1347" >
  <font-face 
    font-family="Polin Extrabold"
    font-weight="800"
    font-stretch="normal"
    units-per-em="2048"
    panose-1="0 0 0 0 0 0 0 0 0 0"
    ascent="1638"
    descent="-410"
    x-height="1137"
    cap-height="1434"
    bbox="-174 -580 2744 2304"
    underline-thickness="102"
    underline-position="-255"
    unicode-range="U+0020-FB4B"
  />
<missing-glyph horiz-adv-x="1024" 
d="M840 1638v-2048h-650v2048h650zM342 -268h340v67h-209l143 97h66v67h-340v-67h143l-143 -97v-67zM342 10h340v232h-340v-232zM342 365h340v231h-205v-115h70v47h67v-96h-204v164h-68v-231zM342 641h340v205h-68v-135h-272v-70zM342 758h205v143h135v68h-340v-68h135v-76
h-135v-67zM342 1024h340v70h-135v143h-205v-213zM342 1290h340v68h-135v76h135v67h-338v-67h133v-76h-135v-68zM410 78v96h204v-96h-204zM410 1094v73h67v-73h-67z" />
    <glyph glyph-name="fi" unicode="fi" horiz-adv-x="1308" 
d="M150 0v801h-119v336h119v24q0 209 106.5 302t325.5 93h145v-288h-104q-32 0 -53 -22.5t-21 -59.5v-49h178v-336h-178v-801h-399zM817 1440q0 88 63.5 151.5t151.5 63.5q89 0 152 -63.5t63 -151.5q0 -89 -63 -152t-152 -63q-88 0 -151.5 63t-63.5 152zM834 0v1137h399
v-1137h-399z" />
    <glyph glyph-name="fl" unicode="fl" horiz-adv-x="1308" 
d="M150 0v801h-119v336h119v24q0 209 106.5 302t325.5 93h145v-288h-104q-32 0 -53 -22.5t-21 -59.5v-49h178v-336h-178v-801h-399zM834 0v1556h399v-1556h-399z" />
    <glyph glyph-name=".notdef" horiz-adv-x="1024" 
d="M840 1638v-2048h-650v2048h650zM342 -268h340v67h-209l143 97h66v67h-340v-67h143l-143 -97v-67zM342 10h340v232h-340v-232zM342 365h340v231h-205v-115h70v47h67v-96h-204v164h-68v-231zM342 641h340v205h-68v-135h-272v-70zM342 758h205v143h135v68h-340v-68h135v-76
h-135v-67zM342 1024h340v70h-135v143h-205v-213zM342 1290h340v68h-135v76h135v67h-338v-67h133v-76h-135v-68zM410 78v96h204v-96h-204zM410 1094v73h67v-73h-67z" />
    <glyph glyph-name=".null" horiz-adv-x="0" 
 />
    <glyph glyph-name="nonmarkingreturn" horiz-adv-x="682" 
 />
    <glyph glyph-name="space" unicode=" " horiz-adv-x="419" 
 />
    <glyph glyph-name="exclam" unicode="!" horiz-adv-x="583" 
d="M102 539l-10 895h400l-11 -895h-379zM61 203q0 94 68.5 161.5t163.5 67.5q94 0 161.5 -67.5t67.5 -161.5t-68 -163t-161 -69q-95 0 -163.5 69t-68.5 163z" />
    <glyph glyph-name="quotedbl" unicode="&#x22;" horiz-adv-x="890" 
d="M59 768l-20 666h369l-21 -666h-328zM483 1434h369l-21 -666h-327z" />
    <glyph glyph-name="numbersign" unicode="#" horiz-adv-x="1607" 
d="M842 0l45 326h-283l-47 -326h-348l47 326h-215l43 262h211l37 260h-217l43 260h213l47 326h348l-47 -326h285l47 326h348l-47 -326h215l-43 -260h-211l-39 -260h219l-43 -262h-215l-45 -326h-348zM643 588h283l39 260h-285z" />
    <glyph glyph-name="dollar" unicode="$" horiz-adv-x="1402" 
d="M453 -205l16 203q-199 48 -306 170.5t-116 290.5h397q11 -79 83.5 -126.5t189.5 -47.5q227 0 227 114q0 38 -20.5 62.5t-82.5 45.5t-173 34q-303 33 -445.5 147.5t-142.5 317.5q0 88 32.5 165.5t95 138.5t162 100.5t226.5 49.5l16 178h318l-19 -200q190 -44 293 -161.5
t119 -285.5h-397q-12 73 -77 115.5t-165 42.5q-95 0 -149 -28.5t-54 -82.5q0 -36 26 -61t102 -47.5t212 -40.5q275 -35 404 -147.5t129 -311.5q0 -200 -148 -322t-422 -135l-14 -178h-317z" />
    <glyph glyph-name="percent" unicode="%" horiz-adv-x="1923" 
d="M285 0l1036 1434h317l-1036 -1434h-317zM49 1067q0 164 115 279.5t278 115.5q164 0 280 -115.5t116 -279.5q0 -163 -116 -278t-280 -115q-163 0 -278 115t-115 278zM317 1067q0 -51 37 -88t88 -37q52 0 89.5 37t37.5 88q0 53 -37.5 90t-89.5 37q-51 0 -88 -37.5
t-37 -89.5zM1085 367q0 164 115.5 278.5t280.5 114.5q164 0 278.5 -114.5t114.5 -278.5q0 -165 -114.5 -280.5t-278.5 -115.5t-280 116t-116 280zM1356 367q0 -53 35.5 -89t89.5 -36q53 0 89 36t36 89t-36 89t-89 36q-54 0 -89.5 -36t-35.5 -89z" />
    <glyph glyph-name="ampersand" unicode="&#x26;" horiz-adv-x="1542" 
d="M590 -29q-140 0 -251 35.5t-180 96.5t-105 138.5t-36 164.5q0 272 285 405q-88 128 -88 266q0 167 125 276t336 109q114 0 203.5 -31t145 -84.5t84 -121.5t28.5 -146q0 -248 -283 -377l193 -192q85 115 102 268h358q-35 -303 -217 -510l269 -268h-467l-68 68
q-202 -97 -434 -97zM393 440q0 -65 59.5 -108t168.5 -43q82 0 159 26l-270 273q-117 -58 -117 -148zM567 1063q0 -61 76 -148q152 57 152 150q0 42 -31 73t-84 31q-51 0 -82 -32t-31 -74z" />
    <glyph glyph-name="quotesingle" unicode="'" horiz-adv-x="446" 
d="M59 768l-20 666h369l-21 -666h-328z" />
    <glyph glyph-name="parenleft" unicode="(" horiz-adv-x="786" 
d="M391 -287q-278 397 -278 953q0 559 278 952h400q-128 -202 -203.5 -449.5t-75.5 -502.5q0 -254 75.5 -503t203.5 -450h-400z" />
    <glyph glyph-name="parenright" unicode=")" horiz-adv-x="786" 
d="M-4 -287q128 201 203 450t75 503q0 255 -75 503t-203 449h399q279 -395 279 -952q0 -555 -279 -953h-399z" />
    <glyph glyph-name="asterisk" unicode="*" horiz-adv-x="886" 
d="M465 684l-62 250l-178 -184l-151 186l219 135l-232 113l132 200l196 -163l35 254l231 -64l-96 -237l252 45l14 -240l-256 18l119 -225z" />
    <glyph glyph-name="plus" unicode="+" horiz-adv-x="1351" 
d="M543 96v504h-502v266h502v500h266v-500h502v-266h-502v-504h-266z" />
    <glyph glyph-name="comma" unicode="," horiz-adv-x="583" 
d="M8 -199l96 605h420l-155 -605h-361z" />
    <glyph glyph-name="hyphen" unicode="-" horiz-adv-x="876" 
d="M61 492v358h754v-358h-754z" />
    <glyph glyph-name="period" unicode="." horiz-adv-x="583" 
d="M293 -29q-95 0 -163.5 69t-68.5 163t68.5 161.5t163.5 67.5q94 0 161.5 -67.5t67.5 -161.5t-68 -163t-161 -69z" />
    <glyph glyph-name="slash" unicode="/" horiz-adv-x="1077" 
d="M0 -287l655 1905h422l-655 -1905h-422z" />
    <glyph glyph-name="zero" unicode="0" horiz-adv-x="1402" 
d="M702 -29q-283 0 -444.5 161.5t-161.5 432.5v287q0 283 161 446.5t445 163.5q283 0 445 -164t162 -446v-287q0 -271 -162.5 -432.5t-444.5 -161.5zM502 582q0 -107 55.5 -167.5t144.5 -60.5q88 0 144.5 60.5t56.5 167.5v272q0 107 -56.5 166t-144.5 59q-89 0 -144.5 -59
t-55.5 -166v-272z" />
    <glyph glyph-name="one" unicode="1" horiz-adv-x="927" 
d="M324 0v961l-232 -82v376l631 199v-1454h-399z" />
    <glyph glyph-name="two" unicode="2" horiz-adv-x="1220" 
d="M641 780q48 55 72 99t24 98q0 57 -39 95t-108 38q-72 0 -112 -49t-40 -141h-405q0 111 38 208.5t109.5 172t183.5 118t250 43.5q253 0 391 -123t138 -331q0 -127 -47.5 -227.5t-159.5 -235.5l-158 -187h398v-358h-1196z" />
    <glyph glyph-name="three" unicode="3" horiz-adv-x="1245" 
d="M637 -29q-143 0 -256 42.5t-185 117t-111.5 170t-45.5 207.5h397q6 -79 57.5 -131.5t127.5 -52.5t123 36.5t47 100.5q0 68 -52 104.5t-149 36.5h-70v279h70q160 0 160 116q0 49 -39 82t-107 33q-71 0 -113.5 -35.5t-48.5 -101.5h-397q5 97 45.5 184t111 155.5t178.5 109
t238 40.5q133 0 238 -33.5t169 -91.5t97 -131.5t33 -158.5q0 -200 -162 -304q203 -121 203 -354q0 -186 -152 -303t-407 -117z" />
    <glyph glyph-name="four" unicode="4" horiz-adv-x="1318" 
d="M16 242l539 1192h389l-356 -834h215v264h362v-264h148v-358h-148v-242h-362v242h-787z" />
    <glyph glyph-name="five" unicode="5" horiz-adv-x="1286" 
d="M664 -29q-247 0 -400.5 131.5t-165.5 335.5h406q11 -49 53.5 -81.5t106.5 -32.5q73 0 120 47.5t47 113.5q0 67 -48.5 114.5t-123.5 47.5q-127 0 -196 -94h-350l88 881h964v-359h-643l-18 -172q98 45 221 45t221.5 -37t161 -101.5t96 -149t33.5 -181.5q0 -106 -37 -197.5
t-107.5 -161t-180.5 -109.5t-248 -40z" />
    <glyph glyph-name="six" unicode="6" horiz-adv-x="1255" 
d="M627 -29q-134 0 -244 37.5t-182.5 104t-112 157.5t-39.5 197q0 105 31 190.5t106 198.5l389 578h441l-301 -457q100 -6 188 -40.5t156 -93.5t107.5 -148.5t39.5 -196.5q0 -106 -40 -201t-112 -167.5t-183 -115.5t-244 -43zM455 498q0 -72 50.5 -123t121.5 -51
q72 0 123 51t51 123t-51 122t-123 50q-71 0 -121.5 -50t-50.5 -122z" />
    <glyph glyph-name="seven" unicode="7" horiz-adv-x="1110" 
d="M188 0l404 1075h-586v359h1135l-533 -1434h-420z" />
    <glyph glyph-name="eight" unicode="8" horiz-adv-x="1280" 
d="M641 -29q-280 0 -436 120.5t-156 316.5q0 239 230 350q-189 114 -189 307q0 82 34 153t99.5 126.5t173 87.5t244.5 32q136 0 243 -32t173 -87.5t99.5 -126.5t33.5 -153q0 -193 -189 -307q230 -111 230 -350q0 -196 -155.5 -316.5t-434.5 -120.5zM455 436q0 -65 51.5 -105
t134.5 -40q82 0 133 40.5t51 104.5q0 68 -49 107t-135 39q-87 0 -136.5 -39t-49.5 -107zM479 1042q0 -56 42 -93t120 -38q77 1 119.5 38.5t42.5 92.5q0 53 -43.5 90t-118.5 37t-118.5 -37t-43.5 -90z" />
    <glyph glyph-name="nine" unicode="9" horiz-adv-x="1255" 
d="M629 1462q134 0 243.5 -37.5t182 -104t112 -157t39.5 -196.5q0 -105 -31 -190.5t-106 -198.5l-389 -578h-440l301 457q-100 6 -188.5 40.5t-156.5 93.5t-107.5 148.5t-39.5 196.5q0 106 40 201t112.5 167.5t183.5 115t244 42.5zM455 936q0 -72 51 -122t123 -50
q71 0 121.5 50t50.5 122t-50.5 123t-121.5 51q-72 0 -123 -51t-51 -123z" />
    <glyph glyph-name="colon" unicode=":" horiz-adv-x="583" 
d="M293 705q-95 0 -163.5 67.5t-68.5 161.5q0 95 68.5 163t163.5 68q94 0 161.5 -68t67.5 -163q0 -94 -67.5 -161.5t-161.5 -67.5zM61 203q0 94 68.5 161.5t163.5 67.5q94 0 161.5 -67.5t67.5 -161.5t-68 -163t-161 -69q-95 0 -163.5 69t-68.5 163z" />
    <glyph glyph-name="semicolon" unicode=";" horiz-adv-x="583" 
d="M8 -199l96 605h420l-155 -605h-361zM61 934q0 95 68.5 163t163.5 68q94 0 161.5 -68t67.5 -163q0 -94 -67.5 -161.5t-161.5 -67.5q-95 0 -163.5 67.5t-68.5 161.5z" />
    <glyph glyph-name="less" unicode="&#x3c;" horiz-adv-x="1351" 
d="M1311 205l-1270 407v240l1270 448v-278l-854 -285l854 -254v-278z" />
    <glyph glyph-name="equal" unicode="=" horiz-adv-x="1351" 
d="M41 395v267h1270v-267h-1270zM41 805v266h1270v-266h-1270z" />
    <glyph glyph-name="greater" unicode="&#x3e;" horiz-adv-x="1351" 
d="M41 205v278l854 254l-854 285v278l1270 -448v-240z" />
    <glyph glyph-name="question" unicode="?" horiz-adv-x="1146" 
d="M373 539q0 68 19 123.5t49.5 92t67 66t73 51.5t67 42t49.5 43t19 49q0 46 -35.5 76t-97.5 30q-69 0 -110.5 -36t-41.5 -91h-405q0 151 74 260t200.5 163t290.5 54q248 0 389 -113t141 -305q0 -66 -20.5 -120.5t-53 -90.5t-72 -66t-79 -55t-72 -49t-53 -55.5t-20.5 -68.5
h-379zM334 203q0 94 68 161.5t163 67.5q94 0 162 -67.5t68 -161.5t-68 -163t-162 -69q-95 0 -163 69t-68 163z" />
    <glyph glyph-name="at" unicode="@" horiz-adv-x="1923" 
d="M885 -279q-250 0 -441.5 108t-293 293.5t-101.5 416.5q0 165 51.5 311.5t144 257t217 191t274 122t311.5 41.5q181 0 334 -52.5t262.5 -148.5t171 -237t61.5 -311q0 -258 -132 -414t-343 -156q-201 0 -260 146q-104 -146 -287 -146q-176 0 -271.5 117t-95.5 299
q0 123 53 229t157 173t237 67q154 0 233 -92l7 72h262l-54 -494q-12 -121 72 -121q63 0 99 76.5t36 206.5q0 116 -31.5 207.5t-83.5 150.5t-124.5 97.5t-150 54.5t-165.5 16q-114 0 -219 -28t-192.5 -83t-152 -132t-100.5 -181.5t-36 -224.5q0 -267 154 -419t432 -152
q171 0 335 57v-256q-189 -62 -370 -62zM764 569q0 -76 47 -125t123 -49q85 0 142 61t57 150q0 74 -48.5 122t-121.5 48q-81 0 -140 -59t-59 -148z" />
    <glyph glyph-name="A" unicode="A" horiz-adv-x="1648" 
d="M-12 0l684 1434h307l674 -1434h-445l-84 193h-614l-86 -193h-436zM641 483h356l-176 404z" />
    <glyph glyph-name="B" unicode="B" horiz-adv-x="1544" 
d="M113 0v1434h848q228 0 350.5 -109.5t122.5 -284.5q0 -180 -148 -274q102 -54 155.5 -142.5t53.5 -203.5q0 -87 -32.5 -162.5t-94 -133t-158.5 -91t-217 -33.5h-880zM512 358h453q49 0 85.5 31.5t36.5 79.5t-36.5 79.5t-85.5 31.5h-453v-222zM512 874h412q52 0 81 29.5
t29 73.5q0 42 -29 70t-81 28h-412v-201z" />
    <glyph glyph-name="C" unicode="C" horiz-adv-x="1603" 
d="M807 -29q-158 0 -298.5 58.5t-241.5 158.5t-159.5 238t-58.5 291q0 204 99.5 375t274 270.5t384.5 99.5q142 0 271 -48t226.5 -131.5t163.5 -199t86 -247.5h-426q-35 103 -122 165t-199 62q-143 0 -242.5 -98t-99.5 -248t99.5 -248t242.5 -98q112 0 199 62t122 167h426
q-20 -133 -86 -249t-163.5 -200t-226.5 -132t-271 -48z" />
    <glyph glyph-name="D" unicode="D" horiz-adv-x="1558" 
d="M758 0h-645v1434h645q210 0 381.5 -92.5t270.5 -257t99 -367.5t-99 -367.5t-270.5 -257t-381.5 -92.5zM512 375h246q142 0 240 96.5t98 245.5t-98 246.5t-240 97.5h-246v-686z" />
    <glyph glyph-name="E" unicode="E" horiz-adv-x="1382" 
d="M113 0v1434h1183v-359h-784v-186h723v-328h-723v-203h805v-358h-1204z" />
    <glyph glyph-name="F" unicode="F" horiz-adv-x="1310" 
d="M113 0v1434h1167v-359h-768v-256h727v-342h-727v-477h-399z" />
    <glyph glyph-name="G" unicode="G" horiz-adv-x="1613" 
d="M807 -29q-158 0 -298.5 58.5t-241.5 158.5t-159.5 238t-58.5 291q0 204 99.5 375t274 270.5t384.5 99.5q268 0 469.5 -148t261.5 -390h-434q-86 155 -291 155q-149 0 -248.5 -101t-99.5 -261q0 -165 100.5 -267t245.5 -102q102 0 181 46t124 130h-344v291h793v-88
q0 -207 -100 -380.5t-274.5 -274.5t-383.5 -101z" />
    <glyph glyph-name="H" unicode="H" horiz-adv-x="1607" 
d="M113 0v1434h399v-500h584v500h399v-1434h-399v561h-584v-561h-399z" />
    <glyph glyph-name="I" unicode="I" horiz-adv-x="624" 
d="M113 0v1434h399v-1434h-399z" />
    <glyph glyph-name="J" unicode="J" horiz-adv-x="1208" 
d="M580 -29q-149 0 -268.5 65t-190 189.5t-70.5 286.5h400q0 -74 35.5 -116t93.5 -42q57 0 92 42t35 116v922h399v-922q0 -162 -70 -286.5t-189 -189.5t-267 -65z" />
    <glyph glyph-name="K" unicode="K" horiz-adv-x="1466" 
d="M1047 0l-535 723v-723h-399v1434h399v-699l537 699h444l-539 -689l564 -745h-471z" />
    <glyph glyph-name="L" unicode="L" horiz-adv-x="1177" 
d="M113 0v1434h399v-1059h645v-375h-1044z" />
    <glyph glyph-name="M" unicode="M" horiz-adv-x="1812" 
d="M113 1434h252l553 -648l532 648h250v-1434h-400v696l-382 -444l-406 444v-696h-399v1434z" />
    <glyph glyph-name="N" unicode="N" horiz-adv-x="1597" 
d="M1485 0h-256l-717 745v-745h-399v1434h252l720 -746v746h400v-1434z" />
    <glyph glyph-name="O" unicode="O" horiz-adv-x="1611" 
d="M807 -29q-158 0 -298.5 58.5t-241.5 158.5t-159.5 238t-58.5 291q0 204 99.5 375t274 270.5t384.5 99.5q209 0 383 -99.5t273.5 -270.5t99.5 -375t-99.5 -375.5t-273.5 -271t-383 -99.5zM465 717q0 -150 99.5 -248t242.5 -98t241.5 98t98.5 248t-98.5 248t-241.5 98
t-242.5 -98t-99.5 -248z" />
    <glyph glyph-name="P" unicode="P" horiz-adv-x="1439" 
d="M113 0v1434h753q129 0 233 -42.5t168.5 -113.5t99 -160t34.5 -186q0 -96 -34.5 -185t-99 -160.5t-168.5 -114t-233 -42.5h-354v-430h-399zM512 774h328q58 0 99.5 44t41.5 106q0 63 -41 107t-100 44h-328v-301z" />
    <glyph glyph-name="Q" unicode="Q" horiz-adv-x="1611" 
d="M807 -29q-158 0 -298.5 58.5t-241.5 158.5t-159.5 238t-58.5 291q0 204 99.5 375t274 270.5t384.5 99.5q209 0 383 -99.5t273.5 -270.5t99.5 -375q0 -162 -64 -305.5t-180 -247.5l233 -303h-440l-104 137q-94 -27 -201 -27zM465 717q0 -150 99.5 -248t242.5 -98t241.5 98
t98.5 248t-98.5 248t-241.5 98t-242.5 -98t-99.5 -248z" />
    <glyph glyph-name="R" unicode="R" horiz-adv-x="1472" 
d="M1008 0l-236 430h-260v-430h-399v1434h753q129 0 233 -42.5t168.5 -113.5t99 -160t34.5 -186q0 -134 -64.5 -251.5t-185.5 -182.5l279 -498h-422zM512 774h328q58 0 99.5 44t41.5 106q0 63 -41 107t-100 44h-328v-301z" />
    <glyph glyph-name="S" unicode="S" horiz-adv-x="1402" 
d="M717 -29q-162 0 -289 38t-207.5 105t-124 154.5t-49.5 190.5h397q11 -79 83.5 -126.5t189.5 -47.5q227 0 227 114q0 38 -20.5 62.5t-82.5 45.5t-173 34q-303 33 -445.5 147.5t-142.5 317.5q0 95 37.5 177t109.5 144.5t187.5 98.5t261.5 36q302 0 464 -127t183 -344h-397
q-12 73 -77 115.5t-165 42.5q-95 0 -149 -28.5t-54 -82.5q0 -36 26 -61t102 -47.5t212 -40.5q275 -35 404 -147.5t129 -311.5q0 -213 -165.5 -336t-471.5 -123z" />
    <glyph glyph-name="T" unicode="T" horiz-adv-x="1329" 
d="M469 0v1075h-457v359h1311v-359h-455v-1075h-399z" />
    <glyph glyph-name="U" unicode="U" horiz-adv-x="1554" 
d="M778 -29q-137 0 -257 43t-214.5 125.5t-149.5 216t-55 301.5v777h400v-777q0 -124 76 -205t200 -81q123 0 200 81.5t77 204.5v777h399v-777q0 -168 -55 -301.5t-149.5 -216t-214.5 -125.5t-257 -43z" />
    <glyph glyph-name="V" unicode="V" horiz-adv-x="1566" 
d="M629 -18l-635 1452h461l336 -838l331 838h443l-629 -1452h-307z" />
    <glyph glyph-name="W" unicode="W" horiz-adv-x="2115" 
d="M1636 0h-282l-299 829l-301 -829h-283l-483 1434h434l223 -738l264 738h287l268 -738l228 738h426z" />
    <glyph glyph-name="X" unicode="X" horiz-adv-x="1472" 
d="M-10 0l502 731l-496 703h473l276 -392l259 392h462l-491 -715l508 -719h-475l-289 408l-266 -408h-463z" />
    <glyph glyph-name="Y" unicode="Y" horiz-adv-x="1439" 
d="M530 0v469l-553 965h463l295 -562l283 562h444l-532 -961v-473h-400z" />
    <glyph glyph-name="Z" unicode="Z" horiz-adv-x="1341" 
d="M12 0l654 1075h-592v359h1263l-653 -1076h625v-358h-1297z" />
    <glyph glyph-name="bracketleft" unicode="[" horiz-adv-x="780" 
d="M113 -283v1901h626v-358h-227v-1184h227v-359h-626z" />
    <glyph glyph-name="backslash" unicode="\" horiz-adv-x="1077" 
d="M1077 -287h-422l-655 1905h422z" />
    <glyph glyph-name="bracketright" unicode="]" horiz-adv-x="780" 
d="M41 -283v359h227v1184h-227v358h627v-1901h-627z" />
    <glyph glyph-name="asciicircum" unicode="^" horiz-adv-x="1163" 
d="M20 717l422 717h281l420 -717h-336l-225 424l-224 -424h-338z" />
    <glyph glyph-name="underscore" unicode="_" horiz-adv-x="753" 
d="M0 -358v358h754v-358h-754z" />
    <glyph glyph-name="grave" unicode="`" horiz-adv-x="546" 
d="M547 1249h-223l-293 379h405z" />
    <glyph glyph-name="a" unicode="a" 
d="M553 -29q-149 0 -267 79t-182.5 215t-64.5 304q0 125 38 235t105 189.5t163 125.5t208 46q216 0 336 -166v138h383v-1137h-383v137q-120 -166 -336 -166zM455 569q0 -92 61 -153.5t152 -61.5q92 0 153.5 61.5t61.5 153.5q0 91 -61.5 152t-153.5 61q-91 0 -152 -61
t-61 -152z" />
    <glyph glyph-name="b" unicode="b" 
d="M475 1022q123 143 320 143q112 0 208 -46t163 -125.5t105 -189.5t38 -235q0 -168 -64.5 -304t-182.5 -215t-267 -79q-216 0 -336 166v-137h-383v1556h399v-534zM465 569q0 -92 61.5 -153.5t153.5 -61.5q91 0 152 61.5t61 153.5q0 91 -61 152t-152 61q-92 0 -153.5 -61
t-61.5 -152z" />
    <glyph glyph-name="c" unicode="c" horiz-adv-x="1290" 
d="M653 -29q-168 0 -309 78.5t-223 216t-82 303.5q0 165 82 302t223 215.5t309 78.5q233 0 406 -145t201 -367h-412q-24 58 -76.5 93.5t-118.5 35.5q-91 0 -152 -61t-61 -152t61 -153t152 -62q66 0 118.5 35.5t76.5 93.5h412q-28 -221 -201.5 -366.5t-405.5 -145.5z" />
    <glyph glyph-name="d" unicode="d" 
d="M872 1556h400v-1556h-383v137q-120 -166 -336 -166q-149 0 -267 79t-182.5 215t-64.5 304q0 125 38 235t105 189.5t163 125.5t208 46q195 0 319 -143v534zM455 569q0 -92 61 -153.5t152 -61.5q92 0 153.5 61.5t61.5 153.5q0 91 -61.5 152t-153.5 61q-91 0 -152 -61
t-61 -152z" />
    <glyph glyph-name="e" unicode="e" horiz-adv-x="1298" 
d="M651 -29q-131 0 -245.5 46t-194.5 126t-126 190.5t-46 235.5q0 124 46 234.5t126 190t194.5 125.5t245.5 46q174 0 314 -77.5t218.5 -212.5t78.5 -300q0 -46 -13 -106h-807q20 -77 71 -123.5t134 -46.5q106 0 168 78h418q-67 -185 -218.5 -295.5t-363.5 -110.5zM449 698
l405 -2q-22 74 -74.5 117t-128.5 43q-74 0 -126 -42.5t-76 -115.5z" />
    <glyph glyph-name="f" unicode="f" horiz-adv-x="755" 
d="M150 0v801h-119v336h119v24q0 209 106.5 302t325.5 93h145v-288h-104q-32 0 -53 -22.5t-21 -59.5v-49h178v-336h-178v-801h-399z" />
    <glyph glyph-name="g" unicode="g" 
d="M682 -430q-259 0 -419 111.5t-193 300.5h391q20 -43 69 -73t129 -30q108 0 169 67t61 173v102q-127 -162 -344 -162q-102 0 -194.5 40t-161.5 111.5t-109.5 175.5t-40.5 226q0 121 41.5 226t112 176t164 111t196.5 40q213 0 336 -161v133h383v-994q0 -118 -43.5 -223
t-120 -182.5t-187.5 -122.5t-239 -45zM455 612q0 -90 61 -149.5t152 -59.5q93 0 154 59.5t61 149.5t-61 149.5t-154 59.5q-91 0 -152 -59.5t-61 -149.5z" />
    <glyph glyph-name="h" unicode="h" horiz-adv-x="1286" 
d="M78 0v1556h399v-516q112 125 297 125q211 0 322.5 -130.5t111.5 -368.5v-666h-399v614q0 74 -46 125.5t-118 51.5q-73 0 -120.5 -51.5t-47.5 -125.5v-614h-399z" />
    <glyph glyph-name="i" unicode="i" horiz-adv-x="552" 
d="M78 0v1137h399v-1137h-399zM61 1440q0 88 63.5 151.5t151.5 63.5q89 0 152.5 -63.5t63.5 -151.5q0 -89 -63.5 -152t-152.5 -63q-88 0 -151.5 63t-63.5 152z" />
    <glyph glyph-name="j" unicode="j" horiz-adv-x="552" 
d="M-23 -410v336h25q32 0 54 22t22 58v1131h399v-1151q0 -396 -434 -396h-66zM61 1440q0 88 63.5 151.5t151.5 63.5q89 0 152.5 -63.5t63.5 -151.5q0 -89 -63.5 -152t-152.5 -63q-88 0 -151.5 63t-63.5 152z" />
    <glyph glyph-name="k" unicode="k" horiz-adv-x="1230" 
d="M797 0l-320 561v-561h-399v1556h399v-940l332 521h418l-350 -529l370 -608h-450z" />
    <glyph glyph-name="l" unicode="l" horiz-adv-x="552" 
d="M78 0v1556h399v-1556h-399z" />
    <glyph glyph-name="m" unicode="m" horiz-adv-x="1863" 
d="M78 0v1137h373v-101q111 129 303 129q102 0 183.5 -46t129.5 -138q55 90 143 137t199 47q171 0 275 -113.5t104 -336.5v-715h-399v643q0 66 -35 105.5t-92 39.5q-59 0 -94 -39.5t-35 -105.5v-643h-400v643q0 66 -35 105.5t-92 39.5q-59 0 -94 -39.5t-35 -105.5v-643h-399
z" />
    <glyph glyph-name="n" unicode="n" horiz-adv-x="1286" 
d="M78 0v1137h373v-129q115 157 323 157q211 0 322.5 -130.5t111.5 -368.5v-666h-399v614q0 74 -46 125.5t-118 51.5q-73 0 -120.5 -51.5t-47.5 -125.5v-614h-399z" />
    <glyph glyph-name="o" unicode="o" horiz-adv-x="1306" 
d="M653 -29q-168 0 -309 78.5t-223 216t-82 303.5q0 165 82 302t223 215.5t309 78.5t309 -78t223.5 -215.5t82.5 -302.5q0 -166 -82.5 -303.5t-223.5 -216t-309 -78.5zM440 569q0 -91 61 -153t152 -62t152 62t61 153t-61 152t-152 61t-152 -61t-61 -152z" />
    <glyph glyph-name="p" unicode="p" 
d="M78 -410v1547h381v-138q120 166 336 166q150 0 268 -79t182 -214.5t64 -302.5q0 -168 -64 -304t-182 -215t-268 -79q-197 0 -318 144v-525h-399zM467 569q0 -92 61 -153.5t152 -61.5t152 61.5t61 153.5q0 91 -61 152t-152 61t-152 -61t-61 -152z" />
    <glyph glyph-name="q" unicode="q" 
d="M1270 -410h-400v525q-121 -144 -317 -144q-150 0 -268 79t-182 215t-64 304q0 167 64 302.5t182 214.5t268 79q216 0 336 -166v138h381v-1547zM455 569q0 -92 61 -153.5t152 -61.5t152 61.5t61 153.5q0 91 -61 152t-152 61t-152 -61t-61 -152z" />
    <glyph glyph-name="r" unicode="r" horiz-adv-x="839" 
d="M78 0v1137h373v-258q42 164 129.5 230.5t214.5 55.5v-444q-44 15 -89.5 16.5t-86 -14t-72.5 -44t-51 -77t-19 -110.5v-492h-399z" />
    <glyph glyph-name="s" unicode="s" horiz-adv-x="1101" 
d="M561 -29q-250 0 -387.5 114t-153.5 290h386q9 -57 47.5 -88t103.5 -31q125 0 125 72q0 37 -46 55.5t-166 42.5q-32 6 -50 10q-61 12 -111 28.5t-101.5 45.5t-86.5 67t-57.5 95t-22.5 127q0 166 133 266t361 100q240 0 372 -103.5t144 -277.5h-385q-3 51 -33 82t-90 31
q-111 0 -111 -66q0 -36 42.5 -61.5t148.5 -46.5q242 -48 350 -132.5t108 -250.5q0 -165 -138.5 -267t-381.5 -102z" />
    <glyph glyph-name="t" unicode="t" horiz-adv-x="765" 
d="M563 0q-434 0 -434 385v416h-119v336h119v182l399 74v-256h191v-336h-191v-383q0 -35 22 -58.5t54 -23.5h115v-336h-156z" />
    <glyph glyph-name="u" unicode="u" horiz-adv-x="1249" 
d="M625 -29q-106 0 -203.5 34.5t-177 98.5t-127 168t-47.5 232v633h399v-637q0 -67 43 -113.5t113 -46.5t112.5 46.5t42.5 113.5v637h400v-633q0 -128 -47.5 -232t-127 -168t-177 -98.5t-203.5 -34.5z" />
    <glyph glyph-name="v" unicode="v" horiz-adv-x="1267" 
d="M422 0l-426 1137h436l207 -695l199 695h428l-412 -1137h-432z" />
    <glyph glyph-name="w" unicode="w" horiz-adv-x="1835" 
d="M285 0l-289 1137h420l143 -740l154 740h403l152 -740l145 740h420l-289 -1137h-481l-150 713l-149 -713h-479z" />
    <glyph glyph-name="x" unicode="x" horiz-adv-x="1292" 
d="M10 0l404 571l-412 566h457l200 -277l195 277h432l-418 -568l414 -569h-457l-200 274l-183 -274h-432z" />
    <glyph glyph-name="y" unicode="y" horiz-adv-x="1243" 
d="M193 -410l215 523l-422 1024h430l205 -559l200 559h420l-643 -1547h-405z" />
    <glyph glyph-name="z" unicode="z" horiz-adv-x="1101" 
d="M-14 0l473 801h-426v336h1065l-473 -801h452v-336h-1091z" />
    <glyph glyph-name="braceleft" unicode="{" horiz-adv-x="786" 
d="M621 -287q-206 0 -342 123t-136 338v195q0 54 -32 88.5t-95 34.5v360q63 0 95 34.5t32 88.5v182q0 213 136.5 337t341.5 124h116v-358h-55q-54 0 -96.5 -42.5t-42.5 -111.5v-188q0 -165 -137 -246q137 -81 137 -246v-201q0 -71 42 -112t97 -41h63v-359h-124z" />
    <glyph glyph-name="bar" unicode="|" horiz-adv-x="737" 
d="M170 -287v1905h399v-1905h-399z" />
    <glyph glyph-name="braceright" unicode="}" horiz-adv-x="786" 
d="M41 -287v359h63q55 0 97.5 41t42.5 112v201q0 165 137 246q-137 81 -137 246v188q0 68 -43 111t-97 43h-55v358h117q205 0 341 -124t136 -337v-182q0 -54 32 -88.5t95 -34.5v-360q-63 0 -95 -34.5t-32 -88.5v-195q0 -144 -64.5 -250t-171.5 -158.5t-241 -52.5h-125z" />
    <glyph glyph-name="asciitilde" unicode="~" horiz-adv-x="1351" 
d="M924 547q-58 0 -128.5 19t-124 42.5t-112 42.5t-96.5 19q-74 0 -112.5 -32.5t-41.5 -80.5h-268q5 103 55 191t140 142t200 54q72 0 161.5 -31t168.5 -61.5t125 -30.5q76 0 113 32.5t40 80.5h267q-8 -160 -115 -273.5t-272 -113.5z" />
    <glyph glyph-name="uni00A0" unicode="&#xa0;" horiz-adv-x="419" 
 />
    <glyph glyph-name="exclamdown" unicode="&#xa1;" horiz-adv-x="583" 
d="M92 -297l10 897h379l11 -897h-400zM61 934q0 95 68.5 163t163.5 68q94 0 161.5 -68t67.5 -163q0 -94 -67.5 -161.5t-161.5 -67.5q-95 0 -163.5 67.5t-68.5 161.5z" />
    <glyph glyph-name="cent" unicode="&#xa2;" horiz-adv-x="1290" 
d="M428 -205l18 209q-182 63 -294.5 216t-112.5 349q0 222 144 386.5t362 201.5l14 154h318l-17 -181q162 -53 270 -181t130 -296h-412q-24 58 -76.5 93.5t-118.5 35.5q-91 0 -152 -61t-61 -152t61 -153t152 -62q66 0 118.5 35.5t76.5 93.5h412q-25 -193 -163 -331
t-335 -172l-17 -185h-317z" />
    <glyph glyph-name="sterling" unicode="&#xa3;" horiz-adv-x="1382" 
d="M82 279q129 108 160 262h-185v288h138q-39 99 -39 177q0 97 29.5 174t81 129t124.5 87t156.5 50.5t179.5 15.5q139 0 246 -41t171.5 -113.5t97 -164.5t32.5 -199h-389q0 78 -44.5 126t-119.5 48q-76 0 -119 -37.5t-43 -115.5q0 -52 35 -136h493v-288h-438
q-11 -56 -37 -100t-77 -91h759v-350h-1212v279z" />
    <glyph glyph-name="currency" unicode="&#xa4;" horiz-adv-x="1361" 
d="M684 178q-157 0 -293 84l-174 -174l-176 176l176 176q-84 128 -84 289q0 156 84 289l-170 170l174 176l170 -170q136 86 293 86q156 0 289 -84l172 172l176 -176l-172 -172q82 -138 82 -291q0 -157 -84 -293l170 -170l-174 -174l-170 170q-130 -84 -289 -84zM383 729
q0 -128 87 -215.5t214 -87.5t212 87.5t85 215.5q2 128 -84 215.5t-213 87.5t-214 -87.5t-87 -215.5z" />
    <glyph glyph-name="yen" unicode="&#xa5;" horiz-adv-x="1439" 
d="M197 502v215h192l-412 717h463l295 -562l283 562h444l-397 -717h176v-215h-295l-16 -29v-49h311v-215h-311v-209h-400v209h-333v215h333v45l-18 33h-315z" />
    <glyph glyph-name="brokenbar" unicode="&#xa6;" horiz-adv-x="737" 
d="M170 739v879h399v-879h-399zM170 -287v879h399v-879h-399z" />
    <glyph glyph-name="section" unicode="&#xa7;" horiz-adv-x="1091" 
d="M557 -217q-252 0 -387.5 106t-149.5 289h394q25 -104 141 -104q59 0 91 20t32 49q0 38 -38.5 61.5t-135.5 43.5q-57 12 -98.5 22t-93 27t-87.5 35.5t-73 46t-60 60t-37 77t-14 96.5q0 151 123 256q-107 86 -107 238q0 160 127.5 258t358.5 98q232 0 357.5 -93t152.5 -265
h-394q0 40 -29 68t-87 28q-56 0 -83.5 -18t-27.5 -47q0 -33 38 -54.5t144 -42.5q171 -36 252 -74q205 -97 205 -305q0 -142 -106 -245q106 -89 106 -240q0 -73 -32 -141.5t-93.5 -125t-162.5 -90.5t-226 -34zM418 668q0 -44 38.5 -68.5t137.5 -46.5q41 7 62.5 28.5
t21.5 47.5q0 39 -39 63t-135 43q-2 0 -5 1t-5 1q-37 -6 -56.5 -24.5t-19.5 -44.5z" />
    <glyph glyph-name="dieresis" unicode="&#xa8;" horiz-adv-x="911" 
d="M209 1235q-84 0 -144.5 60.5t-60.5 144.5q0 83 61 144t144 61q84 0 144.5 -60.5t60.5 -144.5q0 -85 -60 -145t-145 -60zM500 1440q0 83 61 144t144 61q84 0 144 -60.5t60 -144.5q0 -85 -59.5 -145t-144.5 -60q-84 0 -144.5 60.5t-60.5 144.5z" />
    <glyph glyph-name="copyright" unicode="&#xa9;" horiz-adv-x="1581" 
d="M791 -20q-155 0 -293.5 58t-236.5 156.5t-155 234.5t-57 288t57 288t155 234.5t236.5 156.5t293.5 58t293 -58t236 -156.5t155 -234.5t57 -288t-57 -288t-155 -234.5t-236 -156.5t-293 -58zM190 717q0 -172 78.5 -309t216 -213t306.5 -76t305.5 76t214.5 213t78 309
q0 165 -77.5 302.5t-215 217.5t-305.5 80t-306.5 -80t-216.5 -217.5t-78 -302.5zM365 717q0 177 123.5 299.5t304.5 122.5q164 0 283.5 -101t142.5 -256h-242q-20 60 -70 95.5t-114 35.5q-81 0 -137 -55.5t-56 -140.5t56.5 -142t136.5 -57q64 0 114 36t70 95h242
q-23 -154 -142.5 -255t-283.5 -101q-181 0 -304.5 123t-123.5 301z" />
    <glyph glyph-name="guillemotleft" unicode="&#xab;" horiz-adv-x="1570" 
d="M1077 0l-434 569l434 568h463l-434 -568l434 -569h-463zM31 569l434 568h463l-434 -568l434 -569h-463z" />
    <glyph glyph-name="logicalnot" unicode="&#xac;" horiz-adv-x="1351" 
d="M1034 358v242h-993v266h1270v-508h-277z" />
    <glyph glyph-name="registered" unicode="&#xae;" horiz-adv-x="1581" 
d="M791 -20q-155 0 -293.5 58t-236.5 156.5t-155 234.5t-57 288t57 288t155 234.5t236.5 156.5t293.5 58t293 -58t236 -156.5t155 -234.5t57 -288t-57 -288t-155 -234.5t-236 -156.5t-293 -58zM190 717q0 -172 78.5 -309t216 -213t306.5 -76t305.5 76t214.5 213t78 309
q0 165 -77.5 302.5t-215 217.5t-305.5 80t-306.5 -80t-216.5 -217.5t-78 -302.5zM453 309v815h407q77 0 137.5 -25.5t95.5 -67.5t52.5 -88.5t17.5 -94.5q0 -67 -33 -131t-96 -103l156 -305h-244l-131 258h-135v-258h-227zM680 764h170q34 0 59 23.5t25 54.5q0 32 -25 55
t-59 23h-170v-156z" />
    <glyph glyph-name="macron" unicode="&#xaf;" horiz-adv-x="784" 
d="M0 1305v256h784v-256h-784z" />
    <glyph glyph-name="degree" unicode="&#xb0;" horiz-adv-x="776" 
d="M389 756q-152 0 -255 101.5t-103 248.5q0 150 103 253t255 103q150 0 253 -103t103 -253q0 -147 -103 -248.5t-253 -101.5zM283 1106q0 -42 31 -72t75 -30q43 0 74 30.5t31 71.5q0 44 -31 76t-74 32q-44 0 -75 -32t-31 -76z" />
    <glyph glyph-name="plusminus" unicode="&#xb1;" horiz-adv-x="1351" 
d="M543 297v502h-502v266h502v502h266v-502h502v-266h-502v-502h-266zM41 -14v266h1270v-266h-1270z" />
    <glyph glyph-name="acute" unicode="&#xb4;" horiz-adv-x="546" 
d="M0 1249l111 379h405l-293 -379h-223z" />
    <glyph glyph-name="uni00B5" unicode="&#xb5;" horiz-adv-x="1265" 
d="M514 -29q-25 0 -37 2v-383h-399v1547h399v-629q0 -72 43.5 -116t110.5 -44q68 0 112.5 45t44.5 115v629h400v-1137h-373v117q-110 -146 -301 -146z" />
    <glyph glyph-name="paragraph" unicode="&#xb6;" horiz-adv-x="1566" 
d="M614 -205v662h-71q-145 0 -262 70t-179.5 180.5t-62.5 236.5q0 93 37.5 182t102 157t160 109.5t204.5 41.5h911v-1639h-369v1403h-102v-1403h-369z" />
    <glyph glyph-name="periodcentered" unicode="&#xb7;" horiz-adv-x="583" 
d="M293 352q-95 0 -163.5 69t-68.5 163t68.5 161.5t163.5 67.5q94 0 161.5 -67.5t67.5 -161.5t-68 -163t-161 -69z" />
    <glyph glyph-name="cedilla" unicode="&#xb8;" horiz-adv-x="772" 
d="M340 -430q-72 0 -137 5t-94 10l-29 5v150q227 -39 227 14q0 16 -13.5 26.5t-55 17t-111.5 5.5l20 314h234l-10 -158q146 -15 214 -63t68 -134q0 -94 -83 -143t-230 -49z" />
    <glyph glyph-name="guillemotright" unicode="&#xbb;" horiz-adv-x="1570" 
d="M643 0l434 569l-434 568h463l434 -568l-434 -569h-463zM31 0l434 569l-434 568h463l434 -568l-434 -569h-463z" />
    <glyph glyph-name="onequarter" unicode="&#xbc;" horiz-adv-x="2301" 
d="M262 430v651l-160 -55v279l457 143v-1018h-297zM561 0l656 1434h335l-655 -1434h-336zM1378 164l371 840h289l-240 -576h137v176h267v-176h96v-264h-96v-164h-267v164h-557z" />
    <glyph glyph-name="onehalf" unicode="&#xbd;" horiz-adv-x="2238" 
d="M262 430v651l-160 -55v279l457 143v-1018h-297zM561 0l656 1434h335l-655 -1434h-336zM1360 0l469 559q29 32 43 59t14 62q0 36 -24 60t-68 24q-46 0 -71 -32.5t-25 -94.5h-301q0 79 27 148.5t78 123t131 84.5t179 31q182 0 278.5 -86.5t96.5 -232.5q0 -89 -32 -159.5
t-107 -160.5l-98 -119h262v-266h-852z" />
    <glyph glyph-name="threequarters" unicode="&#xbe;" horiz-adv-x="2457" 
d="M457 410q-103 0 -184 30.5t-131.5 84t-79 121t-33.5 147.5h297q5 -55 37 -89t81 -34q48 0 77.5 22.5t29.5 63.5q0 44 -33 68t-96 24h-43v201h43q100 0 100 73q0 32 -24.5 53t-67.5 21t-70.5 -22.5t-31.5 -63.5h-295q10 144 119 245t292 101q186 0 282.5 -84t96.5 -209
q0 -136 -108 -213q137 -82 137 -245q0 -130 -107 -212.5t-288 -82.5zM717 0l655 1434h336l-655 -1434h-336zM1534 164l371 840h288l-239 -576h137v176h266v-176h97v-264h-97v-164h-266v164h-557z" />
    <glyph glyph-name="questiondown" unicode="&#xbf;" horiz-adv-x="1146" 
d="M555 -326q-248 0 -388 113t-140 305q0 66 20.5 120.5t53 90.5t72 66.5t79 55.5t72 49.5t53 56.5t20.5 69h379q0 -68 -19 -124t-49.5 -92.5t-67 -66t-73 -51t-67 -41.5t-49.5 -43t-19 -49q0 -47 35 -76.5t96 -29.5q70 0 112 35.5t42 91.5h405q0 -114 -43 -205.5
t-119 -151.5t-179.5 -91.5t-225.5 -31.5zM352 934q0 95 68.5 163t163.5 68q94 0 161.5 -68t67.5 -163q0 -94 -67.5 -161.5t-161.5 -67.5q-95 0 -163.5 67.5t-68.5 161.5z" />
    <glyph glyph-name="Agrave" unicode="&#xc0;" horiz-adv-x="1648" 
d="M-12 0l684 1434h307l674 -1434h-445l-84 193h-614l-86 -193h-436zM459 1925h405l111 -379h-223zM641 483h356l-176 404z" />
    <glyph glyph-name="Aacute" unicode="&#xc1;" horiz-adv-x="1648" 
d="M-12 0l684 1434h307l674 -1434h-445l-84 193h-614l-86 -193h-436zM641 483h356l-176 404zM682 1546l111 379h405l-293 -379h-223z" />
    <glyph glyph-name="Acircumflex" unicode="&#xc2;" horiz-adv-x="1648" 
d="M-12 0l684 1434h307l674 -1434h-445l-84 193h-614l-86 -193h-436zM471 1516v270l352 158l355 -158v-270l-355 159zM641 483h356l-176 404z" />
    <glyph glyph-name="Atilde" unicode="&#xc3;" horiz-adv-x="1648" 
d="M-12 0l684 1434h307l674 -1434h-445l-84 193h-614l-86 -193h-436zM401 1583q7 153 83.5 237.5t205.5 84.5q56 0 101 -21t76.5 -42t54.5 -21q68 0 75 73h250q-8 -147 -82 -234t-200 -87q-56 0 -101.5 21t-78 42t-56.5 21q-35 0 -54 -20.5t-22 -53.5h-252zM641 483h356
l-176 404z" />
    <glyph glyph-name="Adieresis" unicode="&#xc4;" horiz-adv-x="1648" 
d="M-12 0l684 1434h307l674 -1434h-445l-84 193h-614l-86 -193h-436zM373 1737q0 83 61 144t144 61q84 0 144 -60.5t60 -144.5q0 -85 -59.5 -145t-144.5 -60q-84 0 -144.5 60.5t-60.5 144.5zM641 483h356l-176 404zM868 1737q0 83 61 144t144 61q84 0 144.5 -60.5
t60.5 -144.5q0 -85 -60 -145t-145 -60q-84 0 -144.5 60.5t-60.5 144.5z" />
    <glyph glyph-name="Aring" unicode="&#xc5;" horiz-adv-x="1644" 
d="M-12 0l674 1413q-47 36 -74 89.5t-27 115.5q0 108 77 185t185 77q107 0 183.5 -77.5t76.5 -184.5q0 -123 -96 -203l666 -1415h-445l-84 193h-614l-86 -193h-436zM641 483h356l-176 404zM756 1620q0 -29 19.5 -49.5t47.5 -20.5t48 20.5t20 49.5q0 26 -20 46t-48 20
q-27 0 -47 -20t-20 -46z" />
    <glyph glyph-name="AE" unicode="&#xc6;" horiz-adv-x="2293" 
d="M-14 0l1095 1434h1127v-359h-727v-186h665v-328h-665v-203h747v-358h-1147v172h-479l-125 -172h-491zM799 442h282v392z" />
    <glyph glyph-name="Ccedilla" unicode="&#xc7;" horiz-adv-x="1603" 
d="M891 -430q-72 0 -137 5t-94 10l-29 5v150q227 -39 227 14q0 16 -13.5 26.5t-55 17t-111.5 5.5l12 177q-183 27 -329.5 130.5t-229 262.5t-82.5 344q0 204 99.5 375t274 270.5t384.5 99.5q142 0 271 -48t226.5 -131.5t163.5 -199t86 -247.5h-426q-35 103 -122 165t-199 62
q-143 0 -242.5 -98t-99.5 -248t99.5 -248t242.5 -98q112 0 199 62t122 167h426q-37 -242 -210 -412.5t-420 -207.5l-2 -21q146 -15 214 -63t68 -134q0 -94 -83 -143t-230 -49z" />
    <glyph glyph-name="Egrave" unicode="&#xc8;" horiz-adv-x="1382" 
d="M113 0v1434h1183v-359h-784v-186h723v-328h-723v-203h805v-358h-1204zM371 1925h405l111 -379h-223z" />
    <glyph glyph-name="Eacute" unicode="&#xc9;" horiz-adv-x="1382" 
d="M113 0v1434h1183v-359h-784v-186h723v-328h-723v-203h805v-358h-1204zM594 1546l111 379h405l-293 -379h-223z" />
    <glyph glyph-name="Ecircumflex" unicode="&#xca;" horiz-adv-x="1382" 
d="M113 0v1434h1183v-359h-784v-186h723v-328h-723v-203h805v-358h-1204zM383 1516v270l352 158l355 -158v-270l-355 159z" />
    <glyph glyph-name="Edieresis" unicode="&#xcb;" horiz-adv-x="1382" 
d="M113 0v1434h1183v-359h-784v-186h723v-328h-723v-203h805v-358h-1204zM285 1737q0 84 59.5 144.5t142.5 60.5q84 0 144.5 -60.5t60.5 -144.5q0 -85 -60 -145t-145 -60q-83 0 -142.5 60t-59.5 145zM780 1737q0 84 60.5 144.5t144.5 60.5t143.5 -60.5t59.5 -144.5
q0 -85 -59 -145t-144 -60t-145 60t-60 145z" />
    <glyph glyph-name="Igrave" unicode="&#xcc;" horiz-adv-x="624" 
d="M113 0v1434h399v-1434h-399zM-53 1925h405l111 -379h-223z" />
    <glyph glyph-name="Iacute" unicode="&#xcd;" horiz-adv-x="624" 
d="M113 0v1434h399v-1434h-399zM172 1546l111 379h405l-293 -379h-223z" />
    <glyph glyph-name="Icircumflex" unicode="&#xce;" horiz-adv-x="624" 
d="M113 0v1434h399v-1434h-399zM-39 1516v270l352 158l355 -158v-270l-355 159z" />
    <glyph glyph-name="Idieresis" unicode="&#xcf;" horiz-adv-x="624" 
d="M113 0v1434h399v-1434h-399zM-139 1737q0 83 61 144t144 61q84 0 144 -60.5t60 -144.5q0 -85 -59.5 -145t-144.5 -60q-84 0 -144.5 60.5t-60.5 144.5zM356 1737q0 83 61 144t144 61q84 0 144.5 -60.5t60.5 -144.5q0 -85 -60 -145t-145 -60q-84 0 -144.5 60.5t-60.5 144.5
z" />
    <glyph glyph-name="Eth" unicode="&#xd0;" horiz-adv-x="1544" 
d="M12 598v256h101v580h645q210 0 381.5 -92.5t270.5 -257t99 -367.5t-99 -367.5t-270.5 -257t-381.5 -92.5h-645v598h-101zM512 375h246q142 0 240 96.5t98 245.5t-98 246.5t-240 97.5h-246v-207h295v-256h-295v-223z" />
    <glyph glyph-name="Ntilde" unicode="&#xd1;" horiz-adv-x="1597" 
d="M1485 0h-256l-717 745v-745h-399v1434h252l720 -746v746h400v-1434zM379 1583q7 153 83.5 237.5t205.5 84.5q44 0 82 -13t60 -29t46 -29t43 -13q35 0 54 20t22 53h250q-8 -147 -82.5 -234t-200.5 -87q-44 0 -82.5 13t-61 29t-47 29t-44.5 13q-35 0 -54 -20.5t-22 -53.5
h-252z" />
    <glyph glyph-name="Ograve" unicode="&#xd2;" horiz-adv-x="1611" 
d="M807 -29q-158 0 -298.5 58.5t-241.5 158.5t-159.5 238t-58.5 291q0 204 99.5 375t274 270.5t384.5 99.5q209 0 383 -99.5t273.5 -270.5t99.5 -375t-99.5 -375.5t-273.5 -271t-383 -99.5zM440 1925h406l110 -379h-223zM465 717q0 -150 99.5 -248t242.5 -98t241.5 98
t98.5 248t-98.5 248t-241.5 98t-242.5 -98t-99.5 -248z" />
    <glyph glyph-name="Oacute" unicode="&#xd3;" horiz-adv-x="1611" 
d="M807 -29q-158 0 -298.5 58.5t-241.5 158.5t-159.5 238t-58.5 291q0 204 99.5 375t274 270.5t384.5 99.5q209 0 383 -99.5t273.5 -270.5t99.5 -375t-99.5 -375.5t-273.5 -271t-383 -99.5zM465 717q0 -150 99.5 -248t242.5 -98t241.5 98t98.5 248t-98.5 248t-241.5 98
t-242.5 -98t-99.5 -248zM666 1546l110 379h406l-293 -379h-223z" />
    <glyph glyph-name="Ocircumflex" unicode="&#xd4;" horiz-adv-x="1611" 
d="M807 -29q-158 0 -298.5 58.5t-241.5 158.5t-159.5 238t-58.5 291q0 204 99.5 375t274 270.5t384.5 99.5q209 0 383 -99.5t273.5 -270.5t99.5 -375t-99.5 -375.5t-273.5 -271t-383 -99.5zM455 1516v270l352 158l354 -158v-270l-354 159zM465 717q0 -150 99.5 -248
t242.5 -98t241.5 98t98.5 248t-98.5 248t-241.5 98t-242.5 -98t-99.5 -248z" />
    <glyph glyph-name="Otilde" unicode="&#xd5;" horiz-adv-x="1611" 
d="M807 -29q-158 0 -298.5 58.5t-241.5 158.5t-159.5 238t-58.5 291q0 204 99.5 375t274 270.5t384.5 99.5q209 0 383 -99.5t273.5 -270.5t99.5 -375t-99.5 -375.5t-273.5 -271t-383 -99.5zM383 1583q7 153 83.5 237.5t205.5 84.5q44 0 82 -13t60 -29t46 -29t43 -13
q35 0 54 20t22 53h250q-8 -147 -82.5 -234t-200.5 -87q-44 0 -82.5 13t-61 29t-47 29t-44.5 13q-35 0 -54 -20.5t-22 -53.5h-252zM465 717q0 -150 99.5 -248t242.5 -98t241.5 98t98.5 248t-98.5 248t-241.5 98t-242.5 -98t-99.5 -248z" />
    <glyph glyph-name="Odieresis" unicode="&#xd6;" horiz-adv-x="1611" 
d="M807 -29q-158 0 -298.5 58.5t-241.5 158.5t-159.5 238t-58.5 291q0 204 99.5 375t274 270.5t384.5 99.5q209 0 383 -99.5t273.5 -270.5t99.5 -375t-99.5 -375.5t-273.5 -271t-383 -99.5zM354 1737q0 83 61 144t144 61q84 0 144.5 -60.5t60.5 -144.5q0 -85 -60 -145
t-145 -60q-84 0 -144.5 60.5t-60.5 144.5zM465 717q0 -150 99.5 -248t242.5 -98t241.5 98t98.5 248t-98.5 248t-241.5 98t-242.5 -98t-99.5 -248zM850 1737q0 83 61 144t144 61q84 0 144.5 -60.5t60.5 -144.5q0 -85 -60 -145t-145 -60q-84 0 -144.5 60.5t-60.5 144.5z" />
    <glyph glyph-name="multiply" unicode="&#xd7;" horiz-adv-x="1351" 
d="M225 90l-188 189l450 454l-450 453l188 190l451 -454l450 454l191 -190l-453 -453l453 -454l-191 -189l-450 455z" />
    <glyph glyph-name="Oslash" unicode="&#xd8;" horiz-adv-x="1619" 
d="M285 -27l-203 203l106 107q-139 191 -139 434q0 204 99.5 375t274 270.5t384.5 99.5q239 0 432 -129l127 127l201 -200l-129 -130q125 -186 125 -413q0 -204 -99.5 -375.5t-273.5 -271t-383 -99.5q-223 0 -410 115zM465 717q0 -71 24 -133l453 452q-69 27 -135 27
q-143 0 -242.5 -98t-99.5 -248zM698 387q53 -16 109 -16q143 0 241.5 98t98.5 248q0 48 -14 106z" />
    <glyph glyph-name="Ugrave" unicode="&#xd9;" horiz-adv-x="1554" 
d="M778 -29q-137 0 -257 43t-214.5 125.5t-149.5 216t-55 301.5v777h400v-777q0 -124 76 -205t200 -81q123 0 200 81.5t77 204.5v777h399v-777q0 -168 -55 -301.5t-149.5 -216t-214.5 -125.5t-257 -43zM412 1925h405l111 -379h-223z" />
    <glyph glyph-name="Uacute" unicode="&#xda;" horiz-adv-x="1554" 
d="M778 -29q-137 0 -257 43t-214.5 125.5t-149.5 216t-55 301.5v777h400v-777q0 -124 76 -205t200 -81q123 0 200 81.5t77 204.5v777h399v-777q0 -168 -55 -301.5t-149.5 -216t-214.5 -125.5t-257 -43zM637 1546l111 379h405l-293 -379h-223z" />
    <glyph glyph-name="Ucircumflex" unicode="&#xdb;" horiz-adv-x="1554" 
d="M778 -29q-137 0 -257 43t-214.5 125.5t-149.5 216t-55 301.5v777h400v-777q0 -124 76 -205t200 -81q123 0 200 81.5t77 204.5v777h399v-777q0 -168 -55 -301.5t-149.5 -216t-214.5 -125.5t-257 -43zM426 1516v270l352 158l355 -158v-270l-355 159z" />
    <glyph glyph-name="Udieresis" unicode="&#xdc;" horiz-adv-x="1554" 
d="M778 -29q-137 0 -257 43t-214.5 125.5t-149.5 216t-55 301.5v777h400v-777q0 -124 76 -205t200 -81q123 0 200 81.5t77 204.5v777h399v-777q0 -168 -55 -301.5t-149.5 -216t-214.5 -125.5t-257 -43zM326 1737q0 83 60.5 144t143.5 61q84 0 144.5 -60.5t60.5 -144.5
q0 -85 -60 -145t-145 -60q-84 0 -144 60t-60 145zM821 1737q0 83 61 144t144 61q84 0 144.5 -60.5t60.5 -144.5q0 -85 -60 -145t-145 -60q-84 0 -144.5 60.5t-60.5 144.5z" />
    <glyph glyph-name="Yacute" unicode="&#xdd;" horiz-adv-x="1439" 
d="M530 0v469l-553 965h463l295 -562l283 562h444l-532 -961v-473h-400zM578 1546l110 379h406l-293 -379h-223z" />
    <glyph glyph-name="Thorn" unicode="&#xde;" horiz-adv-x="1456" 
d="M113 0v1434h399v-228h375q109 0 199.5 -30t151 -79.5t102.5 -114t60.5 -131.5t18.5 -134t-18.5 -133.5t-60.5 -131.5t-102.5 -114.5t-151 -80t-199.5 -30.5h-375v-227h-399zM512 571h356q59 0 102.5 41.5t43.5 98.5q0 55 -43.5 96t-102.5 41h-356v-277z" />
    <glyph glyph-name="germandbls" unicode="&#xdf;" horiz-adv-x="1378" 
d="M31 801v336h114q6 89 38.5 160.5t84 119t121 79.5t145 46t160.5 14q230 0 370 -96t140 -276q0 -48 -10.5 -88.5t-26 -68t-31 -53.5t-26 -58t-10.5 -68q0 -35 25 -68.5t60 -66.5t70.5 -72.5t60.5 -105t25 -146.5q0 -91 -33 -161.5t-83.5 -112.5t-120.5 -69t-135 -36.5
t-135 -9.5h-170v332h153q52 0 83.5 23.5t31.5 66.5q0 34 -25 65t-60.5 58.5t-71 60t-60.5 83t-25 112.5q0 54 18.5 100t41 73.5t41 65.5t18.5 78q0 57 -35 93t-92 36q-59 0 -99 -38.5t-40 -102.5v-1106h-400v801h-112z" />
    <glyph glyph-name="agrave" unicode="&#xe0;" 
d="M553 -29q-149 0 -267 79t-182.5 215t-64.5 304q0 125 38 235t105 189.5t163 125.5t208 46q216 0 336 -166v138h383v-1137h-383v137q-120 -166 -336 -166zM311 1628h406l110 -379h-223zM455 569q0 -92 61 -153.5t152 -61.5q92 0 153.5 61.5t61.5 153.5q0 91 -61.5 152
t-153.5 61q-91 0 -152 -61t-61 -152z" />
    <glyph glyph-name="aacute" unicode="&#xe1;" 
d="M553 -29q-149 0 -267 79t-182.5 215t-64.5 304q0 125 38 235t105 189.5t163 125.5t208 46q216 0 336 -166v138h383v-1137h-383v137q-120 -166 -336 -166zM455 569q0 -92 61 -153.5t152 -61.5q92 0 153.5 61.5t61.5 153.5q0 91 -61.5 152t-153.5 61q-91 0 -152 -61
t-61 -152zM535 1249l110 379h406l-293 -379h-223z" />
    <glyph glyph-name="acircumflex" unicode="&#xe2;" 
d="M553 -29q-149 0 -267 79t-182.5 215t-64.5 304q0 125 38 235t105 189.5t163 125.5t208 46q216 0 336 -166v138h383v-1137h-383v137q-120 -166 -336 -166zM324 1219v270l352 158l354 -158v-270l-354 159zM455 569q0 -92 61 -153.5t152 -61.5q92 0 153.5 61.5t61.5 153.5
q0 91 -61.5 152t-153.5 61q-91 0 -152 -61t-61 -152z" />
    <glyph glyph-name="atilde" unicode="&#xe3;" 
d="M553 -29q-149 0 -267 79t-182.5 215t-64.5 304q0 125 38 235t105 189.5t163 125.5t208 46q216 0 336 -166v138h383v-1137h-383v137q-120 -166 -336 -166zM254 1286q7 153 83.5 237.5t205.5 84.5q44 0 82 -13t60 -29t46 -29t43 -13q35 0 54 20t22 53h250
q-8 -147 -82.5 -234t-200.5 -87q-44 0 -82.5 13t-61 29t-47 29t-44.5 13q-35 0 -54 -20.5t-22 -53.5h-252zM455 569q0 -92 61 -153.5t152 -61.5q92 0 153.5 61.5t61.5 153.5q0 91 -61.5 152t-153.5 61q-91 0 -152 -61t-61 -152z" />
    <glyph glyph-name="adieresis" unicode="&#xe4;" 
d="M553 -29q-149 0 -267 79t-182.5 215t-64.5 304q0 125 38 235t105 189.5t163 125.5t208 46q216 0 336 -166v138h383v-1137h-383v137q-120 -166 -336 -166zM225 1440q0 84 60.5 144.5t144.5 60.5t143.5 -60.5t59.5 -144.5q0 -85 -59 -145t-144 -60t-145 60t-60 145z
M455 569q0 -92 61 -153.5t152 -61.5q92 0 153.5 61.5t61.5 153.5q0 91 -61.5 152t-153.5 61q-91 0 -152 -61t-61 -152zM721 1440q0 83 61 144t144 61q84 0 144 -60.5t60 -144.5q0 -85 -59.5 -145t-144.5 -60q-84 0 -144.5 60.5t-60.5 144.5z" />
    <glyph glyph-name="aring" unicode="&#xe5;" 
d="M553 -29q-149 0 -267 79t-182.5 215t-64.5 304q0 125 38 235t105 189.5t163 125.5t208 46q216 0 336 -166v138h383v-1137h-383v137q-120 -166 -336 -166zM416 1464q0 108 77 185t185 77q107 0 183.5 -77.5t76.5 -184.5t-76.5 -183.5t-183.5 -76.5q-109 0 -185.5 76.5
t-76.5 183.5zM455 569q0 -92 61 -153.5t152 -61.5q92 0 153.5 61.5t61.5 153.5q0 91 -61.5 152t-153.5 61q-91 0 -152 -61t-61 -152zM610 1466q0 -29 20 -49t48 -20t47.5 20t19.5 49q0 26 -19.5 46t-47.5 20t-48 -20t-20 -46z" />
    <glyph glyph-name="ae" unicode="&#xe6;" horiz-adv-x="2316" 
d="M553 -29q-149 0 -267 79t-182.5 215t-64.5 304q0 125 38 235t105 189.5t163 125.5t208 46q216 0 336 -166v138h383v-105q165 133 397 133q174 0 314 -77.5t218 -212.5t78 -300q0 -51 -12 -106h-807q20 -77 71 -123.5t134 -46.5q106 0 168 78h418q-67 -185 -218.5 -295.5
t-363.5 -110.5q-234 0 -397 135v-106h-383v137q-120 -166 -336 -166zM455 569q0 -92 61 -153.5t152 -61.5q92 0 153.5 61.5t61.5 153.5q0 91 -61.5 152t-153.5 61q-91 0 -152 -61t-61 -152zM1466 698l406 -2q-22 74 -74.5 117t-128.5 43q-74 0 -126.5 -42.5t-76.5 -115.5z
" />
    <glyph glyph-name="ccedilla" unicode="&#xe7;" horiz-adv-x="1290" 
d="M725 -430q-72 0 -137 5t-94 10l-29 5v150q227 -39 227 14q0 16 -13.5 26.5t-55 17t-111.5 5.5l12 181q-212 43 -348.5 205.5t-136.5 379.5q0 165 82 302t223 215.5t309 78.5q233 0 406 -145t201 -367h-412q-24 58 -76.5 93.5t-118.5 35.5q-91 0 -152 -61t-61 -152
t61 -153t152 -62q66 0 118.5 35.5t76.5 93.5h412q-25 -195 -164 -332.5t-338 -170.5l-2 -21q146 -15 214 -63t68 -134q0 -94 -83 -143t-230 -49z" />
    <glyph glyph-name="egrave" unicode="&#xe8;" horiz-adv-x="1298" 
d="M651 -29q-131 0 -245.5 46t-194.5 126t-126 190.5t-46 235.5q0 124 46 234.5t126 190t194.5 125.5t245.5 46q174 0 314 -77.5t218.5 -212.5t78.5 -300q0 -46 -13 -106h-807q20 -77 71 -123.5t134 -46.5q106 0 168 78h418q-67 -185 -218.5 -295.5t-363.5 -110.5zM285 1628
h405l111 -379h-223zM449 698l405 -2q-22 74 -74.5 117t-128.5 43q-74 0 -126 -42.5t-76 -115.5z" />
    <glyph glyph-name="eacute" unicode="&#xe9;" horiz-adv-x="1298" 
d="M651 -29q-131 0 -245.5 46t-194.5 126t-126 190.5t-46 235.5q0 124 46 234.5t126 190t194.5 125.5t245.5 46q174 0 314 -77.5t218.5 -212.5t78.5 -300q0 -46 -13 -106h-807q20 -77 71 -123.5t134 -46.5q106 0 168 78h418q-67 -185 -218.5 -295.5t-363.5 -110.5zM449 698
l405 -2q-22 74 -74.5 117t-128.5 43q-74 0 -126 -42.5t-76 -115.5zM508 1249l110 379h406l-293 -379h-223z" />
    <glyph glyph-name="ecircumflex" unicode="&#xea;" horiz-adv-x="1298" 
d="M651 -29q-131 0 -245.5 46t-194.5 126t-126 190.5t-46 235.5q0 124 46 234.5t126 190t194.5 125.5t245.5 46q174 0 314 -77.5t218.5 -212.5t78.5 -300q0 -46 -13 -106h-807q20 -77 71 -123.5t134 -46.5q106 0 168 78h418q-67 -185 -218.5 -295.5t-363.5 -110.5zM297 1219
v270l352 158l355 -158v-270l-355 159zM449 698l405 -2q-22 74 -74.5 117t-128.5 43q-74 0 -126 -42.5t-76 -115.5z" />
    <glyph glyph-name="edieresis" unicode="&#xeb;" horiz-adv-x="1298" 
d="M651 -29q-131 0 -245.5 46t-194.5 126t-126 190.5t-46 235.5q0 124 46 234.5t126 190t194.5 125.5t245.5 46q174 0 314 -77.5t218.5 -212.5t78.5 -300q0 -46 -13 -106h-807q20 -77 71 -123.5t134 -46.5q106 0 168 78h418q-67 -185 -218.5 -295.5t-363.5 -110.5zM199 1440
q0 84 60 144.5t144 60.5t143.5 -60.5t59.5 -144.5q0 -85 -59 -145t-144 -60t-144.5 60t-59.5 145zM449 698l405 -2q-22 74 -74.5 117t-128.5 43q-74 0 -126 -42.5t-76 -115.5zM694 1440q0 83 61 144t144 61q84 0 144.5 -60.5t60.5 -144.5q0 -85 -60 -145t-145 -60
q-84 0 -144.5 60.5t-60.5 144.5z" />
    <glyph glyph-name="igrave" unicode="&#xec;" horiz-adv-x="552" 
d="M78 0v1137h399v-1137h-399zM-88 1628h405l111 -379h-223z" />
    <glyph glyph-name="iacute" unicode="&#xed;" horiz-adv-x="552" 
d="M78 0v1137h399v-1137h-399zM135 1249l111 379h405l-293 -379h-223z" />
    <glyph glyph-name="icircumflex" unicode="&#xee;" horiz-adv-x="552" 
d="M78 0v1137h399v-1137h-399zM-76 1219v270l352 158l355 -158v-270l-355 159z" />
    <glyph glyph-name="idieresis" unicode="&#xef;" horiz-adv-x="552" 
d="M78 0v1137h399v-1137h-399zM-174 1440q0 83 60 144t143 61q84 0 144 -60.5t60 -144.5q0 -85 -59.5 -145t-144.5 -60q-83 0 -143 60t-60 145zM322 1440q0 84 60 144.5t144 60.5t143.5 -60.5t59.5 -144.5q0 -85 -59 -145t-144 -60t-144.5 60t-59.5 145z" />
    <glyph glyph-name="eth" unicode="&#xf0;" horiz-adv-x="1228" 
d="M512 1083l-176 179l84 84q-95 49 -230 81l222 185q100 -25 202 -72l160 160l174 -178l-108 -109q201 -148 311.5 -360t110.5 -459q0 -142 -46.5 -258.5t-128.5 -194t-194 -119.5t-242 -42q-177 0 -316.5 68t-217.5 191.5t-78 280.5q0 235 166.5 379.5t419.5 144.5
q88 0 170 -36q-59 104 -162 196zM455 526q0 -84 58.5 -137t137.5 -53t137 53t58 137q0 86 -58 139.5t-137 53.5t-137.5 -53.5t-58.5 -139.5z" />
    <glyph glyph-name="ntilde" unicode="&#xf1;" horiz-adv-x="1286" 
d="M78 0v1137h373v-129q115 157 323 157q211 0 322.5 -130.5t111.5 -368.5v-666h-399v614q0 74 -46 125.5t-118 51.5q-73 0 -120.5 -51.5t-47.5 -125.5v-614h-399zM219 1286q7 153 83.5 237.5t205.5 84.5q44 0 82 -13t60 -29t46 -29t43 -13q35 0 54 20t22 53h250
q-8 -147 -82.5 -234t-200.5 -87q-44 0 -82.5 13t-61 29t-47 29t-44.5 13q-35 0 -54 -20.5t-22 -53.5h-252z" />
    <glyph glyph-name="ograve" unicode="&#xf2;" horiz-adv-x="1306" 
d="M653 -29q-168 0 -309 78.5t-223 216t-82 303.5q0 165 82 302t223 215.5t309 78.5t309 -78t223.5 -215.5t82.5 -302.5q0 -166 -82.5 -303.5t-223.5 -216t-309 -78.5zM289 1628h405l111 -379h-223zM440 569q0 -91 61 -153t152 -62t152 62t61 153t-61 152t-152 61t-152 -61
t-61 -152z" />
    <glyph glyph-name="oacute" unicode="&#xf3;" horiz-adv-x="1306" 
d="M653 -29q-168 0 -309 78.5t-223 216t-82 303.5q0 165 82 302t223 215.5t309 78.5t309 -78t223.5 -215.5t82.5 -302.5q0 -166 -82.5 -303.5t-223.5 -216t-309 -78.5zM440 569q0 -91 61 -153t152 -62t152 62t61 153t-61 152t-152 61t-152 -61t-61 -152zM512 1249l111 379
h405l-293 -379h-223z" />
    <glyph glyph-name="ocircumflex" unicode="&#xf4;" horiz-adv-x="1306" 
d="M653 -29q-168 0 -309 78.5t-223 216t-82 303.5q0 165 82 302t223 215.5t309 78.5t309 -78t223.5 -215.5t82.5 -302.5q0 -166 -82.5 -303.5t-223.5 -216t-309 -78.5zM301 1219v270l352 158l355 -158v-270l-355 159zM440 569q0 -91 61 -153t152 -62t152 62t61 153t-61 152
t-152 61t-152 -61t-61 -152z" />
    <glyph glyph-name="otilde" unicode="&#xf5;" horiz-adv-x="1306" 
d="M653 -29q-168 0 -309 78.5t-223 216t-82 303.5q0 165 82 302t223 215.5t309 78.5t309 -78t223.5 -215.5t82.5 -302.5q0 -166 -82.5 -303.5t-223.5 -216t-309 -78.5zM229 1286q7 153 83.5 237.5t205.5 84.5q56 0 101 -21t76.5 -42t54.5 -21q68 0 75 73h250
q-8 -147 -82 -234t-200 -87q-56 0 -101.5 21t-78 42t-56.5 21q-35 0 -54 -20.5t-22 -53.5h-252zM440 569q0 -91 61 -153t152 -62t152 62t61 153t-61 152t-152 61t-152 -61t-61 -152z" />
    <glyph glyph-name="odieresis" unicode="&#xf6;" horiz-adv-x="1306" 
d="M653 -29q-168 0 -309 78.5t-223 216t-82 303.5q0 165 82 302t223 215.5t309 78.5t309 -78t223.5 -215.5t82.5 -302.5q0 -166 -82.5 -303.5t-223.5 -216t-309 -78.5zM201 1440q0 83 61 144t144 61q84 0 144 -60.5t60 -144.5q0 -85 -59.5 -145t-144.5 -60
q-84 0 -144.5 60.5t-60.5 144.5zM440 569q0 -91 61 -153t152 -62t152 62t61 153t-61 152t-152 61t-152 -61t-61 -152zM698 1440q0 83 60 144t143 61q84 0 144.5 -60.5t60.5 -144.5q0 -85 -60 -145t-145 -60q-83 0 -143 60t-60 145z" />
    <glyph glyph-name="divide" unicode="&#xf7;" horiz-adv-x="1351" 
d="M41 600v266h1270v-266h-1270zM451 287q0 94 68 162.5t163 68.5q94 0 161.5 -68.5t67.5 -162.5t-67.5 -162t-161.5 -68q-95 0 -163 68t-68 162zM451 1178q0 94 68 162.5t163 68.5q94 0 161.5 -68.5t67.5 -162.5t-67.5 -162t-161.5 -68q-95 0 -163 68t-68 162z" />
    <glyph glyph-name="oslash" unicode="&#xf8;" horiz-adv-x="1333" 
d="M225 -61l-180 182l107 110q-105 150 -105 338q0 165 82.5 302.5t223.5 215.5t309 78q171 0 317 -84l135 140l180 -181l-127 -131q109 -146 109 -340q0 -166 -82 -303.5t-223 -216t-309 -78.5q-175 0 -322 86zM403 569q0 -24 9 -69l313 319q-27 8 -63 8
q-110 0 -184.5 -74.5t-74.5 -183.5zM594 319q31 -8 68 -8q109 0 183.5 74t74.5 184q0 32 -11 74z" />
    <glyph glyph-name="ugrave" unicode="&#xf9;" horiz-adv-x="1249" 
d="M625 -29q-106 0 -203.5 34.5t-177 98.5t-127 168t-47.5 232v633h399v-637q0 -67 43 -113.5t113 -46.5t112.5 46.5t42.5 113.5v637h400v-633q0 -128 -47.5 -232t-127 -168t-177 -98.5t-203.5 -34.5zM260 1628h406l110 -379h-223z" />
    <glyph glyph-name="uacute" unicode="&#xfa;" horiz-adv-x="1249" 
d="M625 -29q-106 0 -203.5 34.5t-177 98.5t-127 168t-47.5 232v633h399v-637q0 -67 43 -113.5t113 -46.5t112.5 46.5t42.5 113.5v637h400v-633q0 -128 -47.5 -232t-127 -168t-177 -98.5t-203.5 -34.5zM483 1249l111 379h405l-292 -379h-224z" />
    <glyph glyph-name="ucircumflex" unicode="&#xfb;" horiz-adv-x="1249" 
d="M625 -29q-106 0 -203.5 34.5t-177 98.5t-127 168t-47.5 232v633h399v-637q0 -67 43 -113.5t113 -46.5t112.5 46.5t42.5 113.5v637h400v-633q0 -128 -47.5 -232t-127 -168t-177 -98.5t-203.5 -34.5zM272 1219v270l353 158l354 -158v-270l-354 159z" />
    <glyph glyph-name="udieresis" unicode="&#xfc;" horiz-adv-x="1249" 
d="M625 -29q-106 0 -203.5 34.5t-177 98.5t-127 168t-47.5 232v633h399v-637q0 -67 43 -113.5t113 -46.5t112.5 46.5t42.5 113.5v637h400v-633q0 -128 -47.5 -232t-127 -168t-177 -98.5t-203.5 -34.5zM174 1440q0 83 60 144t143 61q84 0 144.5 -60.5t60.5 -144.5
q0 -85 -60 -145t-145 -60q-83 0 -143 60t-60 145zM670 1440q0 84 60 144.5t144 60.5t143.5 -60.5t59.5 -144.5q0 -85 -59 -145t-144 -60t-144.5 60t-59.5 145z" />
    <glyph glyph-name="yacute" unicode="&#xfd;" horiz-adv-x="1243" 
d="M193 -410l215 523l-422 1024h430l205 -559l200 559h420l-643 -1547h-405zM485 1249l111 379h405l-292 -379h-224z" />
    <glyph glyph-name="thorn" unicode="&#xfe;" 
d="M795 -29q-199 0 -318 142v-523h-399v1966h383v-555q119 164 334 164q150 0 268 -79t182 -214.5t64 -302.5q0 -168 -64 -304t-182 -215t-268 -79zM467 569q0 -92 61 -153.5t152 -61.5t152 61.5t61 153.5q0 91 -61 152t-152 61t-152 -61t-61 -152z" />
    <glyph glyph-name="ydieresis" unicode="&#xff;" horiz-adv-x="1243" 
d="M193 -410l215 523l-422 1024h430l205 -559l200 559h420l-643 -1547h-405zM176 1440q0 83 60 144t143 61q84 0 144.5 -60.5t60.5 -144.5q0 -85 -60 -145t-145 -60q-83 0 -143 60t-60 145zM672 1440q0 84 60.5 144.5t144.5 60.5t143 -60.5t59 -144.5q0 -85 -59 -145
t-143 -60q-85 0 -145 60t-60 145z" />
    <glyph glyph-name="Amacron" unicode="&#x100;" horiz-adv-x="1648" 
d="M-12 0l684 1434h307l674 -1434h-445l-84 193h-614l-86 -193h-436zM432 1602v256h785v-256h-785zM641 483h356l-176 404z" />
    <glyph glyph-name="amacron" unicode="&#x101;" 
d="M553 -29q-149 0 -267 79t-182.5 215t-64.5 304q0 125 38 235t105 189.5t163 125.5t208 46q216 0 336 -166v138h383v-1137h-383v137q-120 -166 -336 -166zM287 1305v256h784v-256h-784zM455 569q0 -92 61 -153.5t152 -61.5q92 0 153.5 61.5t61.5 153.5q0 91 -61.5 152
t-153.5 61q-91 0 -152 -61t-61 -152z" />
    <glyph glyph-name="Abreve" unicode="&#x102;" horiz-adv-x="1648" 
d="M-12 0l684 1434h307l674 -1434h-445l-84 193h-614l-86 -193h-436zM422 1882h266q2 -53 38 -90t97 -37t97 37t38 90h267q-6 -97 -42.5 -170.5t-94.5 -116t-124.5 -63.5t-140.5 -21q-73 0 -139.5 21t-124 64t-94.5 116.5t-43 169.5zM641 483h356l-176 404z" />
    <glyph glyph-name="abreve" unicode="&#x103;" 
d="M553 -29q-149 0 -267 79t-182.5 215t-64.5 304q0 125 38 235t105 189.5t163 125.5t208 46q216 0 336 -166v138h383v-1137h-383v137q-120 -166 -336 -166zM274 1585h267q2 -53 38 -90t97 -37t97 37t38 90h266q-6 -97 -42.5 -170.5t-94 -116t-124 -63.5t-140.5 -21
q-73 0 -139.5 21t-124.5 64t-95 116.5t-43 169.5zM455 569q0 -92 61 -153.5t152 -61.5q92 0 153.5 61.5t61.5 153.5q0 91 -61.5 152t-153.5 61q-91 0 -152 -61t-61 -152z" />
    <glyph glyph-name="Aogonek" unicode="&#x104;" horiz-adv-x="1652" 
d="M1423 -430q-62 0 -115.5 9.5t-104 32t-80 67t-29.5 106.5q0 117 133 182l-101 226h-618l-86 -193h-436l682 1434h307l676 -1434q-172 -56 -172 -141q0 -62 92 -62q19 0 41.5 3.5t35.5 7.5l13 4l-33 -218q-98 -24 -205 -24zM639 483h358l-178 404z" />
    <glyph glyph-name="aogonek" unicode="&#x105;" horiz-adv-x="1355" 
d="M561 -29q-150 0 -268 79t-182 215t-64 304q0 167 64 302.5t182 214.5t268 79q212 0 336 -166v138h381v-1137h2q-172 -55 -172 -141q0 -62 90 -62q19 0 42 3.5t36 7.5l14 4l-33 -218q-98 -24 -204 -24q-49 0 -92.5 5.5t-88 20.5t-76.5 38t-52.5 62t-20.5 89q0 63 43 114.5
t131 82.5v155q-124 -166 -336 -166zM463 569q0 -92 61 -153.5t152 -61.5t152 61.5t61 153.5q0 91 -61 152t-152 61t-152 -61t-61 -152z" />
    <glyph glyph-name="Cacute" unicode="&#x106;" horiz-adv-x="1603" 
d="M807 -29q-158 0 -298.5 58.5t-241.5 158.5t-159.5 238t-58.5 291q0 204 99.5 375t274 270.5t384.5 99.5q142 0 271 -48t226.5 -131.5t163.5 -199t86 -247.5h-426q-35 103 -122 165t-199 62q-143 0 -242.5 -98t-99.5 -248t99.5 -248t242.5 -98q112 0 199 62t122 167h426
q-20 -133 -86 -249t-163.5 -200t-226.5 -132t-271 -48zM664 1546l110 379h406l-293 -379h-223z" />
    <glyph glyph-name="cacute" unicode="&#x107;" horiz-adv-x="1290" 
d="M653 -29q-168 0 -309 78.5t-223 216t-82 303.5q0 165 82 302t223 215.5t309 78.5q233 0 406 -145t201 -367h-412q-24 58 -76.5 93.5t-118.5 35.5q-91 0 -152 -61t-61 -152t61 -153t152 -62q66 0 118.5 35.5t76.5 93.5h412q-28 -221 -201.5 -366.5t-405.5 -145.5z
M498 1249l110 379h406l-293 -379h-223z" />
    <glyph glyph-name="Ccircumflex" unicode="&#x108;" horiz-adv-x="1603" 
d="M807 -29q-158 0 -298.5 58.5t-241.5 158.5t-159.5 238t-58.5 291q0 204 99.5 375t274 270.5t384.5 99.5q142 0 271 -48t226.5 -131.5t163.5 -199t86 -247.5h-426q-35 103 -122 165t-199 62q-143 0 -242.5 -98t-99.5 -248t99.5 -248t242.5 -98q112 0 199 62t122 167h426
q-20 -133 -86 -249t-163.5 -200t-226.5 -132t-271 -48zM453 1516v270l352 158l354 -158v-270l-354 159z" />
    <glyph glyph-name="ccircumflex" unicode="&#x109;" horiz-adv-x="1290" 
d="M653 -29q-168 0 -309 78.5t-223 216t-82 303.5q0 165 82 302t223 215.5t309 78.5q233 0 406 -145t201 -367h-412q-24 58 -76.5 93.5t-118.5 35.5q-91 0 -152 -61t-61 -152t61 -153t152 -62q66 0 118.5 35.5t76.5 93.5h412q-28 -221 -201.5 -366.5t-405.5 -145.5z
M287 1219v270l352 158l354 -158v-270l-354 159z" />
    <glyph glyph-name="Cdotaccent" unicode="&#x10a;" horiz-adv-x="1603" 
d="M807 -29q-158 0 -298.5 58.5t-241.5 158.5t-159.5 238t-58.5 291q0 204 99.5 375t274 270.5t384.5 99.5q142 0 271 -48t226.5 -131.5t163.5 -199t86 -247.5h-426q-35 103 -122 165t-199 62q-143 0 -242.5 -98t-99.5 -248t99.5 -248t242.5 -98q112 0 199 62t122 167h426
q-20 -133 -86 -249t-163.5 -200t-226.5 -132t-271 -48zM590 1737q0 88 63.5 151.5t151.5 63.5q89 0 152 -63.5t63 -151.5q0 -89 -63 -152t-152 -63q-88 0 -151.5 63t-63.5 152z" />
    <glyph glyph-name="cdotaccent" unicode="&#x10b;" horiz-adv-x="1290" 
d="M653 -29q-168 0 -309 78.5t-223 216t-82 303.5q0 165 82 302t223 215.5t309 78.5q233 0 406 -145t201 -367h-412q-24 58 -76.5 93.5t-118.5 35.5q-91 0 -152 -61t-61 -152t61 -153t152 -62q66 0 118.5 35.5t76.5 93.5h412q-28 -221 -201.5 -366.5t-405.5 -145.5z
M424 1440q0 88 63.5 151.5t151.5 63.5q89 0 152 -63.5t63 -151.5q0 -89 -63 -152t-152 -63q-88 0 -151.5 63t-63.5 152z" />
    <glyph glyph-name="Ccaron" unicode="&#x10c;" horiz-adv-x="1603" 
d="M807 -29q-158 0 -298.5 58.5t-241.5 158.5t-159.5 238t-58.5 291q0 204 99.5 375t274 270.5t384.5 99.5q142 0 271 -48t226.5 -131.5t163.5 -199t86 -247.5h-426q-35 103 -122 165t-199 62q-143 0 -242.5 -98t-99.5 -248t99.5 -248t242.5 -98q112 0 199 62t122 167h426
q-20 -133 -86 -249t-163.5 -200t-226.5 -132t-271 -48zM451 1655v270l352 -160l354 160v-270l-354 -158z" />
    <glyph glyph-name="ccaron" unicode="&#x10d;" horiz-adv-x="1290" 
d="M653 -29q-168 0 -309 78.5t-223 216t-82 303.5q0 165 82 302t223 215.5t309 78.5q233 0 406 -145t201 -367h-412q-24 58 -76.5 93.5t-118.5 35.5q-91 0 -152 -61t-61 -152t61 -153t152 -62q66 0 118.5 35.5t76.5 93.5h412q-28 -221 -201.5 -366.5t-405.5 -145.5z
M285 1358v270l352 -160l354 160v-270l-354 -158z" />
    <glyph glyph-name="Dcaron" unicode="&#x10e;" horiz-adv-x="1558" 
d="M758 0h-645v1434h645q210 0 381.5 -92.5t270.5 -257t99 -367.5t-99 -367.5t-270.5 -257t-381.5 -92.5zM377 1655v270l352 -160l354 160v-270l-354 -158zM512 375h246q142 0 240 96.5t98 245.5t-98 246.5t-240 97.5h-246v-686z" />
    <glyph glyph-name="dcaron" unicode="&#x10f;" horiz-adv-x="1701" 
d="M872 1556h400v-1556h-383v137q-120 -166 -336 -166q-149 0 -267 79t-182.5 215t-64.5 304q0 125 38 235t105 189.5t163 125.5t208 46q195 0 319 -143v534zM455 569q0 -92 61 -153.5t152 -61.5q92 0 153.5 61.5t61.5 153.5q0 91 -61.5 152t-153.5 61q-91 0 -152 -61
t-61 -152zM1341 1075l17 481h354l-88 -481h-283z" />
    <glyph glyph-name="Dcroat" unicode="&#x110;" horiz-adv-x="1544" 
d="M12 598v256h101v580h645q210 0 381.5 -92.5t270.5 -257t99 -367.5t-99 -367.5t-270.5 -257t-381.5 -92.5h-645v598h-101zM512 375h246q142 0 240 96.5t98 245.5t-98 246.5t-240 97.5h-246v-207h295v-256h-295v-223z" />
    <glyph glyph-name="dcroat" unicode="&#x111;" horiz-adv-x="1355" 
d="M608 1212v211h264v133h400v-133h84v-211h-84v-1212h-383v137q-120 -166 -336 -166q-149 0 -267 79t-182.5 215t-64.5 304q0 125 38 235t105 189.5t163 125.5t208 46q195 0 319 -143v190h-264zM455 569q0 -92 61 -153.5t152 -61.5q92 0 153.5 61.5t61.5 153.5
q0 91 -61.5 152t-153.5 61q-91 0 -152 -61t-61 -152z" />
    <glyph glyph-name="Emacron" unicode="&#x112;" horiz-adv-x="1382" 
d="M113 0v1434h1183v-359h-784v-186h723v-328h-723v-203h805v-358h-1204zM344 1602v256h784v-256h-784z" />
    <glyph glyph-name="emacron" unicode="&#x113;" horiz-adv-x="1298" 
d="M651 -29q-131 0 -245.5 46t-194.5 126t-126 190.5t-46 235.5q0 124 46 234.5t126 190t194.5 125.5t245.5 46q174 0 314 -77.5t218.5 -212.5t78.5 -300q0 -46 -13 -106h-807q20 -77 71 -123.5t134 -46.5q106 0 168 78h418q-67 -185 -218.5 -295.5t-363.5 -110.5zM260 1305
v256h784v-256h-784zM449 698l405 -2q-22 74 -74.5 117t-128.5 43q-74 0 -126 -42.5t-76 -115.5z" />
    <glyph glyph-name="Ebreve" unicode="&#x114;" horiz-adv-x="1382" 
d="M113 0v1434h1183v-359h-784v-186h723v-328h-723v-203h805v-358h-1204zM334 1882h266q2 -53 38 -90t97 -37t97 37t38 90h267q-6 -97 -42.5 -170.5t-94.5 -116t-124.5 -63.5t-140.5 -21q-73 0 -139.5 21t-124 64t-94.5 116.5t-43 169.5z" />
    <glyph glyph-name="ebreve" unicode="&#x115;" horiz-adv-x="1298" 
d="M651 -29q-131 0 -245.5 46t-194.5 126t-126 190.5t-46 235.5q0 124 46 234.5t126 190t194.5 125.5t245.5 46q174 0 314 -77.5t218.5 -212.5t78.5 -300q0 -46 -13 -106h-807q20 -77 71 -123.5t134 -46.5q106 0 168 78h418q-67 -185 -218.5 -295.5t-363.5 -110.5zM248 1585
h266q2 -53 38 -90t97 -37t97 37t38 90h267q-6 -97 -42.5 -170.5t-94.5 -116t-124.5 -63.5t-140.5 -21q-73 0 -139.5 21t-124 64t-94.5 116.5t-43 169.5zM449 698l405 -2q-22 74 -74.5 117t-128.5 43q-74 0 -126 -42.5t-76 -115.5z" />
    <glyph glyph-name="Edotaccent" unicode="&#x116;" horiz-adv-x="1382" 
d="M113 0v1434h1183v-359h-784v-186h723v-328h-723v-203h805v-358h-1204zM520 1737q0 88 63.5 151.5t151.5 63.5q89 0 152 -63.5t63 -151.5q0 -89 -63 -152t-152 -63q-88 0 -151.5 63t-63.5 152z" />
    <glyph glyph-name="edotaccent" unicode="&#x117;" horiz-adv-x="1298" 
d="M651 -29q-131 0 -245.5 46t-194.5 126t-126 190.5t-46 235.5q0 124 46 234.5t126 190t194.5 125.5t245.5 46q174 0 314 -77.5t218.5 -212.5t78.5 -300q0 -46 -13 -106h-807q20 -77 71 -123.5t134 -46.5q106 0 168 78h418q-67 -185 -218.5 -295.5t-363.5 -110.5zM434 1440
q0 88 63.5 151.5t151.5 63.5q89 0 152 -63.5t63 -151.5q0 -89 -63 -152t-152 -63q-88 0 -151.5 63t-63.5 152zM449 698l405 -2q-22 74 -74.5 117t-128.5 43q-74 0 -126 -42.5t-76 -115.5z" />
    <glyph glyph-name="Eogonek" unicode="&#x118;" horiz-adv-x="1382" 
d="M113 0v1434h1183v-359h-784v-186h723v-328h-723v-203h805v-358q-172 -55 -172 -141q0 -62 90 -62q19 0 42 3.5t37 7.5l13 4l-33 -218q-98 -24 -204 -24q-49 0 -92.5 5.5t-88 20.5t-76.5 38t-52.5 62t-20.5 89q0 73 60 130.5t179 84.5h-886z" />
    <glyph glyph-name="eogonek" unicode="&#x119;" horiz-adv-x="1314" 
d="M702 -430q-62 0 -115.5 9.5t-104 32t-80 67t-29.5 106.5q0 134 147 199q-215 41 -348 202.5t-133 382.5q0 124 46 234.5t126 190t194.5 125.5t245.5 46q174 0 314 -77.5t218.5 -212.5t78.5 -300q0 -46 -13 -106h-807q20 -77 71 -123.5t134 -46.5q106 0 168 78h418
q-51 -137 -148.5 -235t-232.5 -140q-94 -50 -94 -125q0 -38 25 -59t65 -21q19 0 42 3.5t36 7.5l14 4l-33 -218q-98 -24 -205 -24zM449 698l405 -2q-22 74 -74.5 117t-128.5 43q-74 0 -126 -42.5t-76 -115.5z" />
    <glyph glyph-name="Ecaron" unicode="&#x11a;" horiz-adv-x="1382" 
d="M113 0v1434h1183v-359h-784v-186h723v-328h-723v-203h805v-358h-1204zM383 1655v270l352 -160l355 160v-270l-355 -158z" />
    <glyph glyph-name="ecaron" unicode="&#x11b;" horiz-adv-x="1298" 
d="M651 -29q-131 0 -245.5 46t-194.5 126t-126 190.5t-46 235.5q0 124 46 234.5t126 190t194.5 125.5t245.5 46q174 0 314 -77.5t218.5 -212.5t78.5 -300q0 -46 -13 -106h-807q20 -77 71 -123.5t134 -46.5q106 0 168 78h418q-67 -185 -218.5 -295.5t-363.5 -110.5zM297 1358
v270l352 -160l355 160v-270l-355 -158zM449 698l405 -2q-22 74 -74.5 117t-128.5 43q-74 0 -126 -42.5t-76 -115.5z" />
    <glyph glyph-name="Gcircumflex" unicode="&#x11c;" horiz-adv-x="1613" 
d="M807 -29q-158 0 -298.5 58.5t-241.5 158.5t-159.5 238t-58.5 291q0 204 99.5 375t274 270.5t384.5 99.5q268 0 469.5 -148t261.5 -390h-434q-86 155 -291 155q-149 0 -248.5 -101t-99.5 -261q0 -165 100.5 -267t245.5 -102q102 0 181 46t124 130h-344v291h793v-88
q0 -207 -100 -380.5t-274.5 -274.5t-383.5 -101zM446 1516v270l353 158l354 -158v-270l-354 159z" />
    <glyph glyph-name="gcircumflex" unicode="&#x11d;" 
d="M682 -430q-259 0 -419 111.5t-193 300.5h391q20 -43 69 -73t129 -30q108 0 169 67t61 173v102q-127 -162 -344 -162q-102 0 -194.5 40t-161.5 111.5t-109.5 175.5t-40.5 226q0 121 41.5 226t112 176t164 111t196.5 40q213 0 336 -161v133h383v-994q0 -118 -43.5 -223
t-120 -182.5t-187.5 -122.5t-239 -45zM344 1219v270l352 158l355 -158v-270l-355 159zM455 612q0 -90 61 -149.5t152 -59.5q93 0 154 59.5t61 149.5t-61 149.5t-154 59.5q-91 0 -152 -59.5t-61 -149.5z" />
    <glyph glyph-name="Gbreve" unicode="&#x11e;" horiz-adv-x="1613" 
d="M807 -29q-158 0 -298.5 58.5t-241.5 158.5t-159.5 238t-58.5 291q0 204 99.5 375t274 270.5t384.5 99.5q268 0 469.5 -148t261.5 -390h-434q-86 155 -291 155q-149 0 -248.5 -101t-99.5 -261q0 -165 100.5 -267t245.5 -102q102 0 181 46t124 130h-344v291h793v-88
q0 -207 -100 -380.5t-274.5 -274.5t-383.5 -101zM397 1882h267q2 -53 38 -90t97 -37t97 37t38 90h266q-6 -97 -42.5 -170.5t-94 -116t-124 -63.5t-140.5 -21q-73 0 -139.5 21t-124.5 64t-95 116.5t-43 169.5z" />
    <glyph glyph-name="gbreve" unicode="&#x11f;" 
d="M682 -430q-259 0 -419 111.5t-193 300.5h391q20 -43 69 -73t129 -30q108 0 169 67t61 173v102q-127 -162 -344 -162q-102 0 -194.5 40t-161.5 111.5t-109.5 175.5t-40.5 226q0 121 41.5 226t112 176t164 111t196.5 40q213 0 336 -161v133h383v-994q0 -118 -43.5 -223
t-120 -182.5t-187.5 -122.5t-239 -45zM295 1585h266q2 -53 38 -90t97 -37t97 37t38 90h267q-6 -97 -42.5 -170.5t-94.5 -116t-124.5 -63.5t-140.5 -21q-73 0 -139.5 21t-124 64t-94.5 116.5t-43 169.5zM455 612q0 -90 61 -149.5t152 -59.5q93 0 154 59.5t61 149.5t-61 149.5
t-154 59.5q-91 0 -152 -59.5t-61 -149.5z" />
    <glyph glyph-name="Gdotaccent" unicode="&#x120;" horiz-adv-x="1613" 
d="M807 -29q-158 0 -298.5 58.5t-241.5 158.5t-159.5 238t-58.5 291q0 204 99.5 375t274 270.5t384.5 99.5q268 0 469.5 -148t261.5 -390h-434q-86 155 -291 155q-149 0 -248.5 -101t-99.5 -261q0 -165 100.5 -267t245.5 -102q102 0 181 46t124 130h-344v291h793v-88
q0 -207 -100 -380.5t-274.5 -274.5t-383.5 -101zM584 1737q0 88 63.5 151.5t151.5 63.5q89 0 152 -63.5t63 -151.5q0 -89 -63 -152t-152 -63q-88 0 -151.5 63t-63.5 152z" />
    <glyph glyph-name="gdotaccent" unicode="&#x121;" 
d="M682 -430q-259 0 -419 111.5t-193 300.5h391q20 -43 69 -73t129 -30q108 0 169 67t61 173v102q-127 -162 -344 -162q-102 0 -194.5 40t-161.5 111.5t-109.5 175.5t-40.5 226q0 121 41.5 226t112 176t164 111t196.5 40q213 0 336 -161v133h383v-994q0 -118 -43.5 -223
t-120 -182.5t-187.5 -122.5t-239 -45zM455 612q0 -90 61 -149.5t152 -59.5q93 0 154 59.5t61 149.5t-61 149.5t-154 59.5q-91 0 -152 -59.5t-61 -149.5zM481 1440q0 88 63.5 151.5t151.5 63.5q89 0 152 -63.5t63 -151.5q0 -89 -63 -152t-152 -63q-88 0 -151.5 63t-63.5 152z
" />
    <glyph glyph-name="uni0122" unicode="&#x122;" horiz-adv-x="1613" 
d="M807 -29q-158 0 -298.5 58.5t-241.5 158.5t-159.5 238t-58.5 291q0 204 99.5 375t274 270.5t384.5 99.5q268 0 469.5 -148t261.5 -390h-434q-86 155 -291 155q-149 0 -248.5 -101t-99.5 -261q0 -165 100.5 -267t245.5 -102q102 0 181 46t124 130h-344v291h793v-88
q0 -207 -100 -380.5t-274.5 -274.5t-383.5 -101zM588 -410l51 326h358l-127 -326h-282z" />
    <glyph glyph-name="uni0123" unicode="&#x123;" 
d="M473 1270l270 325h211l-71 -325h-410zM39 612q0 121 41.5 226t112 176t164 111t196.5 40q213 0 336 -161v133h383v-994q0 -118 -43.5 -223t-120 -182.5t-187.5 -122.5t-239 -45q-259 0 -419 111.5t-193 300.5h391q20 -43 69 -73t129 -30q108 0 169 67t61 173v102
q-127 -162 -344 -162q-102 0 -194.5 40t-161.5 111.5t-109.5 175.5t-40.5 226zM455 612q0 -90 61 -149.5t152 -59.5q93 0 154 59.5t61 149.5t-61 149.5t-154 59.5q-91 0 -152 -59.5t-61 -149.5z" />
    <glyph glyph-name="Hcircumflex" unicode="&#x124;" horiz-adv-x="1607" 
d="M113 0v1434h399v-500h584v500h399v-1434h-399v561h-584v-561h-399zM453 1516v270l352 158l354 -158v-270l-354 159z" />
    <glyph glyph-name="hcircumflex" unicode="&#x125;" horiz-adv-x="1286" 
d="M78 0v1556h399v-516q112 125 297 125q211 0 322.5 -130.5t111.5 -368.5v-666h-399v614q0 74 -46 125.5t-118 51.5q-73 0 -120.5 -51.5t-47.5 -125.5v-614h-399zM-76 1638v271l352 157l355 -157v-271l-355 160z" />
    <glyph glyph-name="Hbar" unicode="&#x126;" horiz-adv-x="1607" 
d="M0 1057v256h113v121h399v-121h584v121h399v-121h113v-256h-113v-1057h-399v561h-584v-561h-399v1057h-113zM512 934h584v123h-584v-123z" />
    <glyph glyph-name="hbar" unicode="&#x127;" horiz-adv-x="1286" 
d="M0 1212v211h78v133h399v-133h271v-211h-271v-172q112 125 297 125q211 0 322.5 -130.5t111.5 -368.5v-666h-399v614q0 74 -46 125.5t-118 51.5q-73 0 -120.5 -51.5t-47.5 -125.5v-614h-399v1212h-78z" />
    <glyph glyph-name="Itilde" unicode="&#x128;" horiz-adv-x="624" 
d="M113 0v1434h399v-1434h-399zM-111 1583q7 153 83.5 237.5t205.5 84.5q56 0 101 -21t76.5 -42t54.5 -21q68 0 75 73h250q-8 -147 -82 -234t-200 -87q-56 0 -101.5 21t-78 42t-56.5 21q-35 0 -54 -20.5t-22 -53.5h-252z" />
    <glyph glyph-name="itilde" unicode="&#x129;" horiz-adv-x="552" 
d="M78 0v1137h399v-1137h-399zM-145 1286q7 153 83 237.5t205 84.5q56 0 101 -21t76.5 -42t54.5 -21q35 0 54 20t22 53h249q-8 -147 -82 -234t-200 -87q-56 0 -101.5 21t-78 42t-56.5 21q-35 0 -54 -20.5t-22 -53.5h-251z" />
    <glyph glyph-name="Imacron" unicode="&#x12a;" horiz-adv-x="624" 
d="M113 0v1434h399v-1434h-399zM-78 1602v256h785v-256h-785z" />
    <glyph glyph-name="imacron" unicode="&#x12b;" horiz-adv-x="552" 
d="M78 0v1137h399v-1137h-399zM-115 1305v256h785v-256h-785z" />
    <glyph glyph-name="Ibreve" unicode="&#x12c;" horiz-adv-x="624" 
d="M113 0v1434h399v-1434h-399zM-88 1882h266q2 -53 38 -90t97 -37t97.5 37t38.5 90h266q-6 -97 -42.5 -170.5t-94.5 -116t-124.5 -63.5t-140.5 -21q-73 0 -139.5 21t-124 64t-94.5 116.5t-43 169.5z" />
    <glyph glyph-name="ibreve" unicode="&#x12d;" horiz-adv-x="552" 
d="M78 0v1137h399v-1137h-399zM-125 1585h266q2 -53 38 -90t97 -37t97.5 37t38.5 90h266q-6 -97 -42.5 -170.5t-94.5 -116t-124.5 -63.5t-140.5 -21q-73 0 -139.5 21t-124 64t-94.5 116.5t-43 169.5z" />
    <glyph glyph-name="Iogonek" unicode="&#x12e;" horiz-adv-x="624" 
d="M287 -430q-49 0 -92.5 5.5t-88 20.5t-76.5 38t-52.5 62t-20.5 89q0 59 39 108t117 80v1461h399v-1434h2q-172 -55 -172 -141q0 -62 90 -62q19 0 42 3.5t36 7.5l14 4l-32 -218q-98 -24 -205 -24z" />
    <glyph glyph-name="iogonek" unicode="&#x12f;" horiz-adv-x="552" 
d="M250 -430q-49 0 -92.5 5.5t-88 20.5t-76.5 38t-52.5 62t-20.5 89q0 125 158 190v1162h399v-1137q-172 -55 -172 -141q0 -62 90 -62q19 0 42 3.5t37 7.5l13 4l-32 -218q-98 -24 -205 -24zM61 1440q0 88 63.5 151.5t151.5 63.5q89 0 152.5 -63.5t63.5 -151.5
q0 -89 -63.5 -152t-152.5 -63q-88 0 -151.5 63t-63.5 152z" />
    <glyph glyph-name="Idotaccent" unicode="&#x130;" horiz-adv-x="624" 
d="M113 0v1434h399v-1434h-399zM98 1737q0 88 63.5 151.5t151.5 63.5q89 0 152 -63.5t63 -151.5q0 -89 -63 -152t-152 -63q-88 0 -151.5 63t-63.5 152z" />
    <glyph glyph-name="dotlessi" unicode="&#x131;" horiz-adv-x="552" 
d="M78 0v1137h399v-1137h-399z" />
    <glyph glyph-name="IJ" unicode="&#x132;" horiz-adv-x="1832" 
d="M113 0v1434h399v-1434h-399zM676 512h399q0 -74 35.5 -116t93.5 -42q57 0 92 42t35 116v922h400v-922q0 -162 -70.5 -286.5t-189.5 -189.5t-267 -65q-111 0 -208 38.5t-167.5 107.5t-111.5 171t-41 224z" />
    <glyph glyph-name="ij" unicode="&#x133;" horiz-adv-x="1105" 
d="M78 0v1137h399v-1137h-399zM61 1440q0 88 63.5 151.5t151.5 63.5q89 0 152.5 -63.5t63.5 -151.5q0 -89 -63.5 -152t-152.5 -63q-88 0 -151.5 63t-63.5 152zM530 -410v336h25q32 0 54 22t22 58v1131h399v-1151q0 -396 -434 -396h-66zM614 1440q0 88 63.5 151.5t151.5 63.5
q89 0 152 -63.5t63 -151.5q0 -89 -63 -152t-152 -63q-88 0 -151.5 63t-63.5 152z" />
    <glyph glyph-name="Jcircumflex" unicode="&#x134;" horiz-adv-x="1208" 
d="M580 -29q-149 0 -268.5 65t-190 189.5t-70.5 286.5h400q0 -74 35.5 -116t93.5 -42q57 0 92 42t35 116v922h399v-922q0 -162 -70 -286.5t-189 -189.5t-267 -65zM555 1516v270l352 158l355 -158v-270l-355 159z" />
    <glyph glyph-name="jcircumflex" unicode="&#x135;" horiz-adv-x="552" 
d="M-23 -410v336h25q32 0 54 22t22 58v1131h399v-1151q0 -396 -434 -396h-66zM-76 1219v270l352 158l355 -158v-270l-355 159z" />
    <glyph glyph-name="uni0136" unicode="&#x136;" horiz-adv-x="1466" 
d="M1047 0l-535 723v-723h-399v1434h399v-699l537 699h444l-539 -689l564 -745h-471zM545 -410l51 326h358l-127 -326h-282z" />
    <glyph glyph-name="uni0137" unicode="&#x137;" horiz-adv-x="1230" 
d="M797 0l-320 561v-561h-399v1556h399v-940l332 521h418l-350 -529l370 -608h-450zM403 -410l52 326h358l-127 -326h-283z" />
    <glyph glyph-name="Lacute" unicode="&#x139;" horiz-adv-x="1177" 
d="M113 0v1434h399v-1059h645v-375h-1044zM209 1546l110 379h406l-293 -379h-223z" />
    <glyph glyph-name="lacute" unicode="&#x13a;" horiz-adv-x="552" 
d="M78 0v1556h399v-1556h-399zM135 1669l111 379h405l-293 -379h-223z" />
    <glyph glyph-name="uni013B" unicode="&#x13b;" horiz-adv-x="1177" 
d="M113 0v1434h399v-1059h645v-375h-1044zM426 -410l51 326h359l-127 -326h-283z" />
    <glyph glyph-name="uni013C" unicode="&#x13c;" horiz-adv-x="552" 
d="M78 0v1556h399v-1556h-399zM66 -410l51 326h358l-127 -326h-282z" />
    <glyph glyph-name="Lcaron" unicode="&#x13d;" horiz-adv-x="1177" 
d="M113 0v1434h399v-1059h645v-375h-1044zM770 952l16 482h355l-88 -482h-283z" />
    <glyph glyph-name="lcaron" unicode="&#x13e;" horiz-adv-x="919" 
d="M78 0v1556h399v-1556h-399zM547 1075l16 481h355l-89 -481h-282z" />
    <glyph glyph-name="Lslash" unicode="&#x141;" horiz-adv-x="1175" 
d="M0 442v375l113 37v580h399v-465l395 135v-373l-395 -137v-219h645v-375h-1044v479z" />
    <glyph glyph-name="lslash" unicode="&#x142;" horiz-adv-x="630" 
d="M135 0v563l-115 -59v379l115 59v614h400v-423l116 63v-379l-116 -63v-754h-400z" />
    <glyph glyph-name="Nacute" unicode="&#x143;" horiz-adv-x="1597" 
d="M1485 0h-256l-717 745v-745h-399v1434h252l720 -746v746h400v-1434zM659 1546l111 379h406l-293 -379h-224z" />
    <glyph glyph-name="nacute" unicode="&#x144;" horiz-adv-x="1286" 
d="M78 0v1137h373v-129q115 157 323 157q211 0 322.5 -130.5t111.5 -368.5v-666h-399v614q0 74 -46 125.5t-118 51.5q-73 0 -120.5 -51.5t-47.5 -125.5v-614h-399zM502 1249l110 379h406l-293 -379h-223z" />
    <glyph glyph-name="uni0145" unicode="&#x145;" horiz-adv-x="1597" 
d="M1485 0h-256l-717 745v-745h-399v1434h252l720 -746v746h400v-1434zM602 -410l51 326h359l-127 -326h-283z" />
    <glyph glyph-name="uni0146" unicode="&#x146;" horiz-adv-x="1286" 
d="M78 0v1137h373v-129q115 157 323 157q211 0 322.5 -130.5t111.5 -368.5v-666h-399v614q0 74 -46 125.5t-118 51.5q-73 0 -120.5 -51.5t-47.5 -125.5v-614h-399zM432 -410l51 326h359l-127 -326h-283z" />
    <glyph glyph-name="Ncaron" unicode="&#x147;" horiz-adv-x="1597" 
d="M1485 0h-256l-717 745v-745h-399v1434h252l720 -746v746h400v-1434zM449 1655v270l352 -160l354 160v-270l-354 -158z" />
    <glyph glyph-name="ncaron" unicode="&#x148;" horiz-adv-x="1286" 
d="M78 0v1137h373v-129q115 157 323 157q211 0 322.5 -130.5t111.5 -368.5v-666h-399v614q0 74 -46 125.5t-118 51.5q-73 0 -120.5 -51.5t-47.5 -125.5v-614h-399zM289 1358v270l352 -160l354 160v-270l-354 -158z" />
    <glyph glyph-name="Omacron" unicode="&#x14c;" horiz-adv-x="1611" 
d="M807 -29q-158 0 -298.5 58.5t-241.5 158.5t-159.5 238t-58.5 291q0 204 99.5 375t274 270.5t384.5 99.5q209 0 383 -99.5t273.5 -270.5t99.5 -375t-99.5 -375.5t-273.5 -271t-383 -99.5zM416 1602v256h784v-256h-784zM465 717q0 -150 99.5 -248t242.5 -98t241.5 98
t98.5 248t-98.5 248t-241.5 98t-242.5 -98t-99.5 -248z" />
    <glyph glyph-name="omacron" unicode="&#x14d;" horiz-adv-x="1306" 
d="M653 -29q-168 0 -309 78.5t-223 216t-82 303.5q0 165 82 302t223 215.5t309 78.5t309 -78t223.5 -215.5t82.5 -302.5q0 -166 -82.5 -303.5t-223.5 -216t-309 -78.5zM262 1305v256h785v-256h-785zM440 569q0 -91 61 -153t152 -62t152 62t61 153t-61 152t-152 61t-152 -61
t-61 -152z" />
    <glyph glyph-name="Obreve" unicode="&#x14e;" horiz-adv-x="1611" 
d="M807 -29q-158 0 -298.5 58.5t-241.5 158.5t-159.5 238t-58.5 291q0 204 99.5 375t274 270.5t384.5 99.5q209 0 383 -99.5t273.5 -270.5t99.5 -375t-99.5 -375.5t-273.5 -271t-383 -99.5zM406 1882h266q2 -53 38 -90t97 -37t97 37t38 90h266q-6 -97 -42.5 -170.5t-94 -116
t-124 -63.5t-140.5 -21q-73 0 -139.5 21t-124 64t-94.5 116.5t-43 169.5zM465 717q0 -150 99.5 -248t242.5 -98t241.5 98t98.5 248t-98.5 248t-241.5 98t-242.5 -98t-99.5 -248z" />
    <glyph glyph-name="obreve" unicode="&#x14f;" horiz-adv-x="1306" 
d="M653 -29q-168 0 -309 78.5t-223 216t-82 303.5q0 165 82 302t223 215.5t309 78.5t309 -78t223.5 -215.5t82.5 -302.5q0 -166 -82.5 -303.5t-223.5 -216t-309 -78.5zM252 1585h266q2 -53 38 -90t97 -37t97 37t38 90h267q-6 -97 -42.5 -170.5t-94.5 -116t-124.5 -63.5
t-140.5 -21q-73 0 -139.5 21t-124 64t-94.5 116.5t-43 169.5zM440 569q0 -91 61 -153t152 -62t152 62t61 153t-61 152t-152 61t-152 -61t-61 -152z" />
    <glyph glyph-name="Ohungarumlaut" unicode="&#x150;" horiz-adv-x="1611" 
d="M807 -29q-158 0 -298.5 58.5t-241.5 158.5t-159.5 238t-58.5 291q0 204 99.5 375t274 270.5t384.5 99.5q209 0 383 -99.5t273.5 -270.5t99.5 -375t-99.5 -375.5t-273.5 -271t-383 -99.5zM457 1577l90 379h377l-260 -379h-207zM465 717q0 -150 99.5 -248t242.5 -98
t241.5 98t98.5 248t-98.5 248t-241.5 98t-242.5 -98t-99.5 -248zM883 1577l92 379h375l-260 -379h-207z" />
    <glyph glyph-name="ohungarumlaut" unicode="&#x151;" horiz-adv-x="1306" 
d="M653 -29q-168 0 -309 78.5t-223 216t-82 303.5q0 165 82 302t223 215.5t309 78.5t309 -78t223.5 -215.5t82.5 -302.5q0 -166 -82.5 -303.5t-223.5 -216t-309 -78.5zM303 1280l90 379h377l-260 -379h-207zM440 569q0 -91 61 -153t152 -62t152 62t61 153t-61 152t-152 61
t-152 -61t-61 -152zM729 1280l92 379h375l-260 -379h-207z" />
    <glyph glyph-name="OE" unicode="&#x152;" horiz-adv-x="2224" 
d="M807 0q-158 0 -298.5 54.5t-241.5 148.5t-159.5 227.5t-58.5 286.5t58.5 286.5t159.5 227.5t241.5 148.5t298.5 54.5h1331v-359h-727v-186h666v-328h-666v-203h748v-358h-1352zM465 717q0 -147 97.5 -232.5t244.5 -85.5h205v637h-205q-146 0 -244 -86t-98 -233z" />
    <glyph glyph-name="oe" unicode="&#x153;" horiz-adv-x="2127" 
d="M653 -29q-168 0 -309 78.5t-223 216t-82 303.5q0 165 82 302t223 215.5t309 78.5q237 0 410 -149q168 149 416 149q174 0 314 -77.5t218 -212.5t78 -300q0 -51 -12 -106h-807q20 -77 71 -123.5t134 -46.5q105 0 167 78h418q-67 -185 -218 -295.5t-363 -110.5
q-247 0 -416 150q-174 -150 -410 -150zM440 569q0 -91 61 -153t152 -62t152 62t61 153t-61 152t-152 61t-152 -61t-61 -152zM1276 698l405 -2q-22 74 -74 117t-128 43q-74 0 -126.5 -42.5t-76.5 -115.5z" />
    <glyph glyph-name="Racute" unicode="&#x154;" horiz-adv-x="1472" 
d="M1008 0l-236 430h-260v-430h-399v1434h753q129 0 233 -42.5t168.5 -113.5t99 -160t34.5 -186q0 -134 -64.5 -251.5t-185.5 -182.5l279 -498h-422zM512 774h328q58 0 99.5 44t41.5 106q0 63 -41 107t-100 44h-328v-301zM586 1546l110 379h406l-293 -379h-223z" />
    <glyph glyph-name="racute" unicode="&#x155;" horiz-adv-x="839" 
d="M78 0v1137h373v-258q42 164 129.5 230.5t214.5 55.5v-444q-44 15 -89.5 16.5t-86 -14t-72.5 -44t-51 -77t-19 -110.5v-492h-399zM268 1249l111 379h405l-292 -379h-224z" />
    <glyph glyph-name="uni0156" unicode="&#x156;" horiz-adv-x="1472" 
d="M1008 0l-236 430h-260v-430h-399v1434h753q129 0 233 -42.5t168.5 -113.5t99 -160t34.5 -186q0 -134 -64.5 -251.5t-185.5 -182.5l279 -498h-422zM512 774h328q58 0 99.5 44t41.5 106q0 63 -41 107t-100 44h-328v-301zM557 -410l51 326h359l-127 -326h-283z" />
    <glyph glyph-name="uni0157" unicode="&#x157;" horiz-adv-x="839" 
d="M78 0v1137h373v-258q42 164 129.5 230.5t214.5 55.5v-444q-44 15 -89.5 16.5t-86 -14t-72.5 -44t-51 -77t-19 -110.5v-492h-399zM66 -410l51 326h358l-127 -326h-282z" />
    <glyph glyph-name="Rcaron" unicode="&#x158;" horiz-adv-x="1472" 
d="M1008 0l-236 430h-260v-430h-399v1434h753q129 0 233 -42.5t168.5 -113.5t99 -160t34.5 -186q0 -134 -64.5 -251.5t-185.5 -182.5l279 -498h-422zM375 1655v270l352 -160l354 160v-270l-354 -158zM512 774h328q58 0 99.5 44t41.5 106q0 63 -41 107t-100 44h-328v-301z
" />
    <glyph glyph-name="rcaron" unicode="&#x159;" horiz-adv-x="839" 
d="M78 0v1137h373v-258q42 164 129.5 230.5t214.5 55.5v-444q-44 15 -89.5 16.5t-86 -14t-72.5 -44t-51 -77t-19 -110.5v-492h-399zM55 1358v270l353 -160l354 160v-270l-354 -158z" />
    <glyph glyph-name="Sacute" unicode="&#x15a;" horiz-adv-x="1402" 
d="M717 -29q-162 0 -289 38t-207.5 105t-124 154.5t-49.5 190.5h397q11 -79 83.5 -126.5t189.5 -47.5q227 0 227 114q0 38 -20.5 62.5t-82.5 45.5t-173 34q-303 33 -445.5 147.5t-142.5 317.5q0 95 37.5 177t109.5 144.5t187.5 98.5t261.5 36q302 0 464 -127t183 -344h-397
q-12 73 -77 115.5t-165 42.5q-95 0 -149 -28.5t-54 -82.5q0 -36 26 -61t102 -47.5t212 -40.5q275 -35 404 -147.5t129 -311.5q0 -213 -165.5 -336t-471.5 -123zM557 1546l111 379h405l-293 -379h-223z" />
    <glyph glyph-name="sacute" unicode="&#x15b;" horiz-adv-x="1101" 
d="M561 -29q-250 0 -387.5 114t-153.5 290h386q9 -57 47.5 -88t103.5 -31q125 0 125 72q0 37 -46 55.5t-166 42.5q-32 6 -50 10q-61 12 -111 28.5t-101.5 45.5t-86.5 67t-57.5 95t-22.5 127q0 166 133 266t361 100q240 0 372 -103.5t144 -277.5h-385q-3 51 -33 82t-90 31
q-111 0 -111 -66q0 -36 42.5 -61.5t148.5 -46.5q242 -48 350 -132.5t108 -250.5q0 -165 -138.5 -267t-381.5 -102zM403 1249l111 379h406l-293 -379h-224z" />
    <glyph glyph-name="Scircumflex" unicode="&#x15c;" horiz-adv-x="1402" 
d="M717 -29q-162 0 -289 38t-207.5 105t-124 154.5t-49.5 190.5h397q11 -79 83.5 -126.5t189.5 -47.5q227 0 227 114q0 38 -20.5 62.5t-82.5 45.5t-173 34q-303 33 -445.5 147.5t-142.5 317.5q0 95 37.5 177t109.5 144.5t187.5 98.5t261.5 36q302 0 464 -127t183 -344h-397
q-12 73 -77 115.5t-165 42.5q-95 0 -149 -28.5t-54 -82.5q0 -36 26 -61t102 -47.5t212 -40.5q275 -35 404 -147.5t129 -311.5q0 -213 -165.5 -336t-471.5 -123zM346 1516v270l352 158l355 -158v-270l-355 159z" />
    <glyph glyph-name="scircumflex" unicode="&#x15d;" horiz-adv-x="1101" 
d="M561 -29q-250 0 -387.5 114t-153.5 290h386q9 -57 47.5 -88t103.5 -31q125 0 125 72q0 37 -46 55.5t-166 42.5q-32 6 -50 10q-61 12 -111 28.5t-101.5 45.5t-86.5 67t-57.5 95t-22.5 127q0 166 133 266t361 100q240 0 372 -103.5t144 -277.5h-385q-3 51 -33 82t-90 31
q-111 0 -111 -66q0 -36 42.5 -61.5t148.5 -46.5q242 -48 350 -132.5t108 -250.5q0 -165 -138.5 -267t-381.5 -102zM193 1219v270l352 158l354 -158v-270l-354 159z" />
    <glyph glyph-name="Scedilla" unicode="&#x15e;" horiz-adv-x="1402" 
d="M791 -430q-72 0 -137 5t-94 10l-30 5v150q228 -39 228 14q0 16 -13.5 26.5t-55 17t-111.5 5.5l12 174q-258 28 -395 159t-148 323h397q11 -79 83.5 -126.5t189.5 -47.5q227 0 227 114q0 38 -20.5 62.5t-82.5 45.5t-173 34q-303 33 -445.5 147.5t-142.5 317.5
q0 95 37.5 177t109.5 144.5t187.5 98.5t261.5 36q302 0 464 -127t183 -344h-397q-12 73 -77 115.5t-165 42.5q-95 0 -149 -28.5t-54 -82.5q0 -36 26 -61t102 -47.5t212 -40.5q275 -35 404 -147.5t129 -311.5q0 -193 -137.5 -313.5t-393.5 -141.5l-2 -16q146 -15 214.5 -63
t68.5 -134q0 -94 -83 -143t-230 -49z" />
    <glyph glyph-name="scedilla" unicode="&#x15f;" horiz-adv-x="1101" 
d="M633 -430q-72 0 -137 5t-94 10l-29 5v150q227 -39 227 14q0 16 -13.5 26.5t-55 17t-111.5 5.5l12 179q-189 28 -293.5 135t-118.5 258h386q9 -57 47.5 -88t103.5 -31q125 0 125 72q0 37 -46 55.5t-166 42.5q-32 6 -50 10q-61 12 -111 28.5t-101.5 45.5t-86.5 67t-57.5 95
t-22.5 127q0 166 133 266t361 100q240 0 372 -103.5t144 -277.5h-385q-3 51 -33 82t-90 31q-111 0 -111 -66q0 -36 42.5 -61.5t148.5 -46.5q242 -48 350 -132.5t108 -250.5q0 -145 -110 -243.5t-305 -119.5l-2 -18q146 -15 214 -63t68 -134q0 -94 -83 -143t-230 -49z" />
    <glyph glyph-name="Scaron" unicode="&#x160;" horiz-adv-x="1402" 
d="M717 -29q-162 0 -289 38t-207.5 105t-124 154.5t-49.5 190.5h397q11 -79 83.5 -126.5t189.5 -47.5q227 0 227 114q0 38 -20.5 62.5t-82.5 45.5t-173 34q-303 33 -445.5 147.5t-142.5 317.5q0 95 37.5 177t109.5 144.5t187.5 98.5t261.5 36q302 0 464 -127t183 -344h-397
q-12 73 -77 115.5t-165 42.5q-95 0 -149 -28.5t-54 -82.5q0 -36 26 -61t102 -47.5t212 -40.5q275 -35 404 -147.5t129 -311.5q0 -213 -165.5 -336t-471.5 -123zM346 1655v270l352 -160l355 160v-270l-355 -158z" />
    <glyph glyph-name="scaron" unicode="&#x161;" horiz-adv-x="1101" 
d="M561 -29q-250 0 -387.5 114t-153.5 290h386q9 -57 47.5 -88t103.5 -31q125 0 125 72q0 37 -46 55.5t-166 42.5q-32 6 -50 10q-61 12 -111 28.5t-101.5 45.5t-86.5 67t-57.5 95t-22.5 127q0 166 133 266t361 100q240 0 372 -103.5t144 -277.5h-385q-3 51 -33 82t-90 31
q-111 0 -111 -66q0 -36 42.5 -61.5t148.5 -46.5q242 -48 350 -132.5t108 -250.5q0 -165 -138.5 -267t-381.5 -102zM193 1358v270l352 -160l354 160v-270l-354 -158z" />
    <glyph glyph-name="uni0162" unicode="&#x162;" horiz-adv-x="1329" 
d="M469 0v1075h-457v359h1311v-359h-455v-1075h-96l-2 -41q146 -15 214.5 -63t68.5 -134q0 -94 -83.5 -143t-230.5 -49q-72 0 -137 5t-94 10l-29 5v150q228 -39 228 14q0 16 -14 26.5t-55.5 17t-111.5 5.5l13 197h-70z" />
    <glyph glyph-name="uni0163" unicode="&#x163;" horiz-adv-x="765" 
d="M545 -430q-72 0 -137 5t-94 10l-29 5v150q227 -39 227 14q0 16 -13.5 26.5t-55 17t-111.5 5.5l14 230q-217 82 -217 352v416h-119v336h119v182l399 74v-256h191v-336h-191v-383q0 -35 22 -58.5t54 -23.5h115v-336h-141l-3 -41q146 -15 214.5 -63t68.5 -134
q0 -94 -83 -143t-230 -49z" />
    <glyph glyph-name="Tcaron" unicode="&#x164;" horiz-adv-x="1329" 
d="M469 0v1075h-457v359h1311v-359h-455v-1075h-399zM315 1655v270l353 -160l354 160v-270l-354 -158z" />
    <glyph glyph-name="tcaron" unicode="&#x165;" horiz-adv-x="765" 
d="M563 0q-434 0 -434 385v416h-119v336h119v182l399 74v-256h191v-336h-191v-383q0 -35 22 -58.5t54 -23.5h115v-336h-156zM606 1214l17 424h354l-88 -424h-283z" />
    <glyph glyph-name="Tbar" unicode="&#x166;" horiz-adv-x="1329" 
d="M233 561v256h236v258h-457v359h1311v-359h-455v-258h236v-256h-236v-561h-399v561h-236z" />
    <glyph glyph-name="tbar" unicode="&#x167;" horiz-adv-x="784" 
d="M29 463v256h100v82h-119v336h119v182l399 74v-256h191v-336h-191v-82h209v-256h-209v-45q0 -35 22 -58.5t54 -23.5h115v-336h-156q-434 0 -434 385v78h-100z" />
    <glyph glyph-name="Utilde" unicode="&#x168;" horiz-adv-x="1554" 
d="M778 -29q-137 0 -257 43t-214.5 125.5t-149.5 216t-55 301.5v777h400v-777q0 -124 76 -205t200 -81q123 0 200 81.5t77 204.5v777h399v-777q0 -168 -55 -301.5t-149.5 -216t-214.5 -125.5t-257 -43zM354 1583q7 153 83.5 237.5t205.5 84.5q44 0 82 -13t60 -29t46 -29
t43 -13q35 0 54 20t22 53h250q-8 -147 -82 -234t-200 -87q-56 0 -101.5 21t-78 42t-56.5 21q-35 0 -54 -20.5t-22 -53.5h-252z" />
    <glyph glyph-name="utilde" unicode="&#x169;" horiz-adv-x="1249" 
d="M625 -29q-106 0 -203.5 34.5t-177 98.5t-127 168t-47.5 232v633h399v-637q0 -67 43 -113.5t113 -46.5t112.5 46.5t42.5 113.5v637h400v-633q0 -128 -47.5 -232t-127 -168t-177 -98.5t-203.5 -34.5zM203 1286q7 153 83.5 237.5t205.5 84.5q44 0 82 -13t60 -29t46 -29
t43 -13q35 0 54 20t22 53h250q-8 -147 -82.5 -234t-200.5 -87q-56 0 -101.5 21t-78 42t-56.5 21q-35 0 -53.5 -20.5t-21.5 -53.5h-252z" />
    <glyph glyph-name="Umacron" unicode="&#x16a;" horiz-adv-x="1554" 
d="M778 -29q-137 0 -257 43t-214.5 125.5t-149.5 216t-55 301.5v777h400v-777q0 -124 76 -205t200 -81q123 0 200 81.5t77 204.5v777h399v-777q0 -168 -55 -301.5t-149.5 -216t-214.5 -125.5t-257 -43zM387 1602v256h784v-256h-784z" />
    <glyph glyph-name="umacron" unicode="&#x16b;" horiz-adv-x="1249" 
d="M625 -29q-106 0 -203.5 34.5t-177 98.5t-127 168t-47.5 232v633h399v-637q0 -67 43 -113.5t113 -46.5t112.5 46.5t42.5 113.5v637h400v-633q0 -128 -47.5 -232t-127 -168t-177 -98.5t-203.5 -34.5zM233 1305v256h785v-256h-785z" />
    <glyph glyph-name="Ubreve" unicode="&#x16c;" horiz-adv-x="1554" 
d="M778 -29q-137 0 -257 43t-214.5 125.5t-149.5 216t-55 301.5v777h400v-777q0 -124 76 -205t200 -81q123 0 200 81.5t77 204.5v777h399v-777q0 -168 -55 -301.5t-149.5 -216t-214.5 -125.5t-257 -43zM377 1882h266q2 -53 38 -90t97 -37t97 37t38 90h267
q-6 -97 -42.5 -170.5t-94.5 -116t-124.5 -63.5t-140.5 -21q-73 0 -139.5 21t-124 64t-94.5 116.5t-43 169.5z" />
    <glyph glyph-name="ubreve" unicode="&#x16d;" horiz-adv-x="1249" 
d="M625 -29q-106 0 -203.5 34.5t-177 98.5t-127 168t-47.5 232v633h399v-637q0 -67 43 -113.5t113 -46.5t112.5 46.5t42.5 113.5v637h400v-633q0 -128 -47.5 -232t-127 -168t-177 -98.5t-203.5 -34.5zM223 1585h266q2 -53 38.5 -90t97.5 -37t97 37t38 90h266
q-6 -97 -42.5 -170.5t-94 -116t-124 -63.5t-140.5 -21q-73 0 -139.5 21t-124.5 64t-95 116.5t-43 169.5z" />
    <glyph glyph-name="Uring" unicode="&#x16e;" horiz-adv-x="1554" 
d="M778 -29q-137 0 -257 43t-214.5 125.5t-149.5 216t-55 301.5v777h400v-777q0 -124 76 -205t200 -81q123 0 200 81.5t77 204.5v777h399v-777q0 -168 -55 -301.5t-149.5 -216t-214.5 -125.5t-257 -43zM518 1761q0 108 77 185t185 77q107 0 183.5 -77.5t76.5 -184.5
t-76.5 -183.5t-183.5 -76.5q-109 0 -185.5 76.5t-76.5 183.5zM713 1763q0 -29 19.5 -49t47.5 -20t48 20t20 49q0 26 -20 46t-48 20t-47.5 -19.5t-19.5 -46.5z" />
    <glyph glyph-name="uring" unicode="&#x16f;" horiz-adv-x="1249" 
d="M625 -29q-106 0 -203.5 34.5t-177 98.5t-127 168t-47.5 232v633h399v-637q0 -67 43 -113.5t113 -46.5t112.5 46.5t42.5 113.5v637h400v-633q0 -128 -47.5 -232t-127 -168t-177 -98.5t-203.5 -34.5zM365 1464q0 108 77 185t185 77q107 0 183.5 -77.5t76.5 -184.5
t-76.5 -183.5t-183.5 -76.5q-109 0 -185.5 76.5t-76.5 183.5zM559 1466q0 -29 20 -49t48 -20t47.5 20t19.5 49q0 26 -20 46t-47 20q-28 0 -48 -20t-20 -46z" />
    <glyph glyph-name="Uhungarumlaut" unicode="&#x170;" horiz-adv-x="1554" 
d="M778 -29q-137 0 -257 43t-214.5 125.5t-149.5 216t-55 301.5v777h400v-777q0 -124 76 -205t200 -81q123 0 200 81.5t77 204.5v777h399v-777q0 -168 -55 -301.5t-149.5 -216t-214.5 -125.5t-257 -43zM428 1577l90 379h377l-260 -379h-207zM854 1577l92 379h375l-260 -379
h-207z" />
    <glyph glyph-name="uhungarumlaut" unicode="&#x171;" horiz-adv-x="1249" 
d="M625 -29q-106 0 -203.5 34.5t-177 98.5t-127 168t-47.5 232v633h399v-637q0 -67 43 -113.5t113 -46.5t112.5 46.5t42.5 113.5v637h400v-633q0 -128 -47.5 -232t-127 -168t-177 -98.5t-203.5 -34.5zM274 1280l91 379h376l-260 -379h-207zM700 1280l93 379h374l-260 -379
h-207z" />
    <glyph glyph-name="Uogonek" unicode="&#x172;" horiz-adv-x="1554" 
d="M750 -430q-49 0 -92.5 5.5t-88 20.5t-76.5 38t-52.5 62t-20.5 89q0 66 48.5 119.5t145.5 83.5q-110 23 -201.5 75.5t-161.5 134t-109.5 199t-39.5 260.5v777h400v-777q0 -124 76 -205t200 -81q123 0 200 81.5t77 204.5v777h399v-777q0 -143 -39.5 -260.5t-109.5 -199
t-161.5 -134t-201.5 -75.5q-137 -53 -137 -129q0 -62 90 -62q19 0 42 3.5t37 7.5l13 4l-33 -218q-98 -24 -204 -24z" />
    <glyph glyph-name="uogonek" unicode="&#x173;" horiz-adv-x="1249" 
d="M586 -430q-49 0 -92.5 5.5t-88 20.5t-76.5 38t-52.5 62t-20.5 89q0 68 52 122.5t155 84.5q-82 22 -151.5 64.5t-124.5 105t-86 150.5t-31 192v633h399v-637q0 -67 43 -113.5t113 -46.5t112.5 46.5t42.5 113.5v637h400v-633q0 -100 -29.5 -186t-81.5 -148t-118.5 -105.5
t-145.5 -66.5q-164 -56 -164 -139q0 -62 90 -62q19 0 42 3.5t37 7.5l13 4l-32 -218q-98 -24 -205 -24z" />
    <glyph glyph-name="Wcircumflex" unicode="&#x174;" horiz-adv-x="2115" 
d="M1636 0h-282l-299 829l-301 -829h-283l-483 1434h434l223 -738l264 738h287l268 -738l228 738h426zM700 1516v270l353 158l354 -158v-270l-354 159z" />
    <glyph glyph-name="wcircumflex" unicode="&#x175;" horiz-adv-x="1835" 
d="M285 0l-289 1137h420l143 -740l154 740h403l152 -740l145 740h420l-289 -1137h-481l-150 713l-149 -713h-479zM561 1219v270l352 158l355 -158v-270l-355 159z" />
    <glyph glyph-name="Ycircumflex" unicode="&#x176;" horiz-adv-x="1439" 
d="M530 0v469l-553 965h463l295 -562l283 562h444l-532 -961v-473h-400zM367 1516v270l352 158l354 -158v-270l-354 159z" />
    <glyph glyph-name="ycircumflex" unicode="&#x177;" horiz-adv-x="1243" 
d="M193 -410l215 523l-422 1024h430l205 -559l200 559h420l-643 -1547h-405zM274 1219v270l353 158l354 -158v-270l-354 159z" />
    <glyph glyph-name="Ydieresis" unicode="&#x178;" horiz-adv-x="1439" 
d="M530 0v469l-553 965h463l295 -562l283 562h444l-532 -961v-473h-400zM268 1737q0 84 60.5 144.5t144.5 60.5t143.5 -60.5t59.5 -144.5q0 -85 -59 -145t-144 -60t-145 60t-60 145zM764 1737q0 83 61 144t144 61q84 0 144.5 -60.5t60.5 -144.5q0 -85 -60 -145t-145 -60
q-84 0 -144.5 60.5t-60.5 144.5z" />
    <glyph glyph-name="Zacute" unicode="&#x179;" horiz-adv-x="1341" 
d="M12 0l654 1075h-592v359h1263l-653 -1076h625v-358h-1297zM522 1546l111 379h405l-293 -379h-223z" />
    <glyph glyph-name="zacute" unicode="&#x17a;" horiz-adv-x="1101" 
d="M-14 0l473 801h-426v336h1065l-473 -801h452v-336h-1091zM395 1249l111 379h405l-293 -379h-223z" />
    <glyph glyph-name="Zdotaccent" unicode="&#x17b;" horiz-adv-x="1341" 
d="M12 0l654 1075h-592v359h1263l-653 -1076h625v-358h-1297zM449 1737q0 88 63.5 151.5t151.5 63.5q89 0 152 -63.5t63 -151.5q0 -89 -63 -152t-152 -63q-88 0 -151.5 63t-63.5 152z" />
    <glyph glyph-name="zdotaccent" unicode="&#x17c;" horiz-adv-x="1101" 
d="M-14 0l473 801h-426v336h1065l-473 -801h452v-336h-1091zM322 1440q0 88 63.5 151.5t151.5 63.5q89 0 152 -63.5t63 -151.5q0 -89 -63 -152t-152 -63q-88 0 -151.5 63t-63.5 152z" />
    <glyph glyph-name="Zcaron" unicode="&#x17d;" horiz-adv-x="1341" 
d="M12 0l654 1075h-592v359h1263l-653 -1076h625v-358h-1297zM309 1655v270l353 -160l354 160v-270l-354 -158z" />
    <glyph glyph-name="zcaron" unicode="&#x17e;" horiz-adv-x="1101" 
d="M-14 0l473 801h-426v336h1065l-473 -801h452v-336h-1091zM184 1358v270l353 -160l354 160v-270l-354 -158z" />
    <glyph glyph-name="uni018F" unicode="&#x18f;" horiz-adv-x="1611" 
d="M807 -29q-170 0 -314 63.5t-240 170.5t-150 248.5t-54 296.5v61l1092 -2q-24 127 -115.5 198.5t-218.5 71.5q-100 0 -177 -45.5t-120 -136.5h-440q59 249 262.5 407t474.5 158q209 0 383 -101t273.5 -274t99.5 -378q0 -153 -58.5 -289.5t-159 -235t-241 -156
t-297.5 -57.5zM492 541q42 -99 126 -150t183 -51q98 0 179.5 53.5t125.5 147.5h-614z" />
    <glyph glyph-name="florin" unicode="&#x192;" horiz-adv-x="755" 
d="M150 0v801h-119v336h119v24q0 209 106.5 302t325.5 93h145v-288h-104q-32 0 -53 -22.5t-21 -59.5v-49h178v-336h-178v-801h-399z" />
    <glyph glyph-name="Ohorn" unicode="&#x1a0;" horiz-adv-x="1611" 
d="M807 -29q-158 0 -298.5 58.5t-241.5 158.5t-159.5 238t-58.5 291q0 204 99.5 375t274 270.5t384.5 99.5q109 0 215 -28q135 0 135 114q0 40 -6 70h383q6 -30 6 -72q0 -208 -176 -321q95 -101 147 -231.5t52 -276.5q0 -204 -99.5 -375.5t-273.5 -271t-383 -99.5zM465 717
q0 -150 99.5 -248t242.5 -98t241.5 98t98.5 248t-98.5 248t-241.5 98t-242.5 -98t-99.5 -248z" />
    <glyph glyph-name="ohorn" unicode="&#x1a1;" horiz-adv-x="1306" 
d="M653 -29q-168 0 -309 78.5t-223 216t-82 303.5q0 165 82 302t223 215.5t309 78.5q95 0 187 -28q118 6 118 114q0 40 -6 70h383q6 -30 6 -72q0 -240 -247 -315q92 -63 133 -159.5t41 -205.5q0 -166 -82.5 -303.5t-223.5 -216t-309 -78.5zM440 569q0 -91 61 -153t152 -62
t152 62t61 153t-61 152t-152 61t-152 -61t-61 -152z" />
    <glyph glyph-name="Uhorn" unicode="&#x1af;" horiz-adv-x="1554" 
d="M778 -29q-137 0 -257 43t-214.5 125.5t-149.5 216t-55 301.5v777h400v-777q0 -124 76 -205t200 -81q123 0 200 81.5t77 204.5v777h125q135 0 135 114q0 40 -6 70h383q6 -30 6 -72q0 -125 -64.5 -216t-179.5 -142v-531q0 -168 -55 -301.5t-149.5 -216t-214.5 -125.5
t-257 -43z" />
    <glyph glyph-name="uhorn" unicode="&#x1b0;" horiz-adv-x="1249" 
d="M625 -29q-106 0 -203.5 34.5t-177 98.5t-127 168t-47.5 232v633h399v-637q0 -67 43 -113.5t113 -46.5t112.5 46.5t42.5 113.5v637h115q135 0 135 114q0 40 -6 70h383q6 -30 6 -72q0 -122 -61.5 -211.5t-171.5 -140.5v-393q0 -128 -47.5 -232t-127 -168t-177 -98.5
t-203.5 -34.5z" />
    <glyph glyph-name="uni0218" unicode="&#x218;" horiz-adv-x="1402" 
d="M717 -29q-162 0 -289 38t-207.5 105t-124 154.5t-49.5 190.5h397q11 -79 83.5 -126.5t189.5 -47.5q227 0 227 114q0 38 -20.5 62.5t-82.5 45.5t-173 34q-303 33 -445.5 147.5t-142.5 317.5q0 95 37.5 177t109.5 144.5t187.5 98.5t261.5 36q302 0 464 -127t183 -344h-397
q-12 73 -77 115.5t-165 42.5q-95 0 -149 -28.5t-54 -82.5q0 -36 26 -61t102 -47.5t212 -40.5q275 -35 404 -147.5t129 -311.5q0 -213 -165.5 -336t-471.5 -123zM494 -410l51 326h358l-127 -326h-282z" />
    <glyph glyph-name="uni0219" unicode="&#x219;" horiz-adv-x="1101" 
d="M561 -29q-250 0 -387.5 114t-153.5 290h386q9 -57 47.5 -88t103.5 -31q125 0 125 72q0 37 -46 55.5t-166 42.5q-32 6 -50 10q-61 12 -111 28.5t-101.5 45.5t-86.5 67t-57.5 95t-22.5 127q0 166 133 266t361 100q240 0 372 -103.5t144 -277.5h-385q-3 51 -33 82t-90 31
q-111 0 -111 -66q0 -36 42.5 -61.5t148.5 -46.5q242 -48 350 -132.5t108 -250.5q0 -165 -138.5 -267t-381.5 -102zM334 -410l51 326h358l-127 -326h-282z" />
    <glyph glyph-name="uni021A" unicode="&#x21a;" horiz-adv-x="1329" 
d="M469 0v1075h-457v359h1311v-359h-455v-1075h-399zM442 -410l52 326h358l-127 -326h-283z" />
    <glyph glyph-name="uni021B" unicode="&#x21b;" horiz-adv-x="765" 
d="M563 0q-434 0 -434 385v416h-119v336h119v182l399 74v-256h191v-336h-191v-383q0 -35 22 -58.5t54 -23.5h115v-336h-156zM248 -410l51 326h358l-127 -326h-282z" />
    <glyph glyph-name="uni0237" unicode="&#x237;" horiz-adv-x="552" 
d="M-23 -410v336h25q32 0 54 22t22 58v1131h399v-1151q0 -396 -434 -396h-66z" />
    <glyph glyph-name="uni0259" unicode="&#x259;" horiz-adv-x="1298" 
d="M647 1165q175 0 315.5 -78.5t219 -215.5t78.5 -304q0 -166 -78.5 -302.5t-219 -215t-315.5 -78.5q-174 0 -314 77.5t-218 212.5t-78 300q0 51 12 107h807q-20 77 -71 123.5t-134 46.5q-106 0 -168 -78h-417q67 185 218 295t363 110zM444 440q22 -74 74.5 -116.5
t128.5 -42.5q74 0 126.5 42t76.5 115z" />
    <glyph glyph-name="uni02BC" unicode="&#x2bc;" horiz-adv-x="1228" 
 />
    <glyph glyph-name="circumflex" unicode="&#x2c6;" horiz-adv-x="776" 
d="M35 1219v270l352 158l354 -158v-270l-354 159z" />
    <glyph glyph-name="caron" unicode="&#x2c7;" horiz-adv-x="776" 
d="M35 1628l352 -160l354 160v-270l-354 -158l-352 158v270z" />
    <glyph glyph-name="breve" unicode="&#x2d8;" horiz-adv-x="831" 
d="M416 1214q-73 0 -139.5 21t-124.5 64t-95 116.5t-43 169.5h267q2 -53 38 -90t97 -37t97 37t38 90h266q-6 -97 -42.5 -170.5t-94 -116t-124 -63.5t-140.5 -21z" />
    <glyph glyph-name="dotaccent" unicode="&#x2d9;" horiz-adv-x="430" 
d="M215 1225q-88 0 -151.5 63t-63.5 152q0 88 63.5 151.5t151.5 63.5q89 0 152 -63.5t63 -151.5q0 -89 -63 -152t-152 -63z" />
    <glyph glyph-name="ring" unicode="&#x2da;" horiz-adv-x="522" 
d="M262 1204q-109 0 -185.5 76.5t-76.5 183.5q0 108 77 185t185 77q107 0 183.5 -77.5t76.5 -184.5t-76.5 -183.5t-183.5 -76.5zM195 1466q0 -29 19.5 -49t47.5 -20t48 20t20 49q0 26 -20 46t-48 20t-47.5 -20t-19.5 -46z" />
    <glyph glyph-name="ogonek" unicode="&#x2db;" horiz-adv-x="1228" 
d="M653 -430q-62 0 -115.5 9.5t-104 32t-80 67t-29.5 106.5q0 83 78 145.5t233 81.5l246 -12q-172 -55 -172 -141q0 -62 90 -62q19 0 42 3.5t37 7.5l13 4l-33 -218q-98 -24 -205 -24z" />
    <glyph glyph-name="tilde" unicode="&#x2dc;" horiz-adv-x="921" 
d="M586 1276q-56 0 -101.5 21t-78 42t-56.5 21q-35 0 -54 -20.5t-22 -53.5h-251q7 153 83 237.5t205 84.5q56 0 101 -21t76.5 -42t54.5 -21q68 0 75 73h250q-8 -147 -82 -234t-200 -87z" />
    <glyph glyph-name="hungarumlaut" unicode="&#x2dd;" horiz-adv-x="894" 
d="M432 1249l92 379h375l-260 -379h-207zM6 1249l90 379h377l-260 -379h-207z" />
    <glyph glyph-name="gravecomb" unicode="&#x300;" horiz-adv-x="0" 
 />
    <glyph glyph-name="acutecomb" unicode="&#x301;" horiz-adv-x="0" 
 />
    <glyph glyph-name="uni0302" unicode="&#x302;" horiz-adv-x="0" 
 />
    <glyph glyph-name="tildecomb" unicode="&#x303;" horiz-adv-x="0" 
 />
    <glyph glyph-name="uni0306" unicode="&#x306;" horiz-adv-x="0" 
 />
    <glyph glyph-name="hookabovecomb" unicode="&#x309;" horiz-adv-x="0" 
d="M186 1249q0 36 22.5 62.5t49.5 39.5t49.5 31t22.5 39q0 41 -49 41q-29 0 -44.5 -19t-15.5 -50h-221q0 113 79 184.5t214 71.5q127 0 196.5 -46t69.5 -139q0 -47 -15 -81.5t-37 -52t-44.5 -29.5t-41 -24.5t-22.5 -27.5h-213z" />
    <glyph glyph-name="uni031B" unicode="&#x31b;" horiz-adv-x="0" 
d="M6 1137q135 0 135 114q0 40 -6 70h383q6 -30 6 -72q0 -127 -68 -220.5t-184.5 -141t-265.5 -47.5v297z" />
    <glyph glyph-name="dotbelowcomb" unicode="&#x323;" horiz-adv-x="0" 
d="M215 -516q-88 0 -151.5 63t-63.5 152q0 88 63.5 151.5t151.5 63.5q89 0 152 -63.5t63 -151.5q0 -89 -63 -152t-152 -63z" />
    <glyph glyph-name="uni0326" unicode="&#x326;" horiz-adv-x="0" 
d="M23 -410l51 326h358l-127 -326h-282z" />
    <glyph glyph-name="uni0374" unicode="&#x374;" horiz-adv-x="446" 
d="M59 768l-20 666h369l-21 -666h-328z" />
    <glyph glyph-name="uni0375" unicode="&#x375;" horiz-adv-x="583" 
d="M8 -199l96 605h420l-155 -605h-361z" />
    <glyph glyph-name="uni037E" unicode="&#x37e;" horiz-adv-x="583" 
d="M8 -199l96 605h420l-155 -605h-361zM61 934q0 95 68.5 163t163.5 68q94 0 161.5 -68t67.5 -163q0 -94 -67.5 -161.5t-161.5 -67.5q-95 0 -163.5 67.5t-68.5 161.5z" />
    <glyph glyph-name="tonos" unicode="&#x384;" horiz-adv-x="546" 
d="M0 1249l111 379h405l-293 -379h-223z" />
    <glyph glyph-name="dieresistonos" unicode="&#x385;" horiz-adv-x="903" 
d="M313 1249l33 379h281l-146 -379h-168zM-2 1440q0 61 43.5 104t105.5 43t106 -43t44 -104q0 -62 -44.5 -106t-105.5 -44t-105 44t-44 106zM602 1440q0 61 44 104t106 43t105.5 -43t43.5 -104q0 -62 -44 -106t-105 -44q-62 0 -106 44t-44 106z" />
    <glyph glyph-name="Alphatonos" unicode="&#x386;" horiz-adv-x="1644" 
d="M43 1044l63 379h406l-246 -379h-223zM-12 0l684 1434h307l674 -1434h-445l-84 193h-614l-86 -193h-436zM641 483h356l-176 404z" />
    <glyph glyph-name="anoteleia" unicode="&#x387;" horiz-adv-x="583" 
d="M293 352q-95 0 -163.5 69t-68.5 163t68.5 161.5t163.5 67.5q94 0 161.5 -67.5t67.5 -161.5t-68 -163t-161 -69z" />
    <glyph glyph-name="Epsilontonos" unicode="&#x388;" horiz-adv-x="1816" 
d="M61 1055l50 379h405l-231 -379h-224zM547 0v1434h1184v-359h-785v-186h723v-328h-723v-203h805v-358h-1204z" />
    <glyph glyph-name="Etatonos" unicode="&#x389;" horiz-adv-x="2041" 
d="M61 1055l50 379h405l-231 -379h-224zM547 0v1434h399v-500h584v500h399v-1434h-399v561h-584v-561h-399z" />
    <glyph glyph-name="Iotatonos" unicode="&#x38a;" horiz-adv-x="1058" 
d="M61 1055l50 379h405l-231 -379h-224zM547 0v1434h399v-1434h-399z" />
    <glyph glyph-name="Omicrontonos" unicode="&#x38c;" horiz-adv-x="1949" 
d="M61 1055l50 379h405l-231 -379h-224zM387 717q0 204 99.5 375t274 270.5t384.5 99.5q209 0 383 -99.5t273.5 -270.5t99.5 -375t-99.5 -375.5t-273.5 -271t-383 -99.5q-158 0 -298.5 58.5t-241.5 158.5t-159.5 238t-58.5 291zM803 717q0 -150 99.5 -248t242.5 -98
t241.5 98t98.5 248t-98.5 248t-241.5 98t-242.5 -98t-99.5 -248z" />
    <glyph glyph-name="Upsilontonos" unicode="&#x38e;" horiz-adv-x="2015" 
d="M61 1055l64 379h407l-247 -379h-224zM553 1434h463l295 -562l282 562h445l-533 -961v-473h-399v469z" />
    <glyph glyph-name="Omegatonos" unicode="&#x38f;" horiz-adv-x="1976" 
d="M61 1055l50 379h405l-231 -379h-224zM387 784q0 195 100.5 350.5t276 241.5t393.5 86t394 -86t277 -241.5t101 -350.5q0 -246 -153 -426h147v-358h-674v334q118 34 191 134.5t73 229.5q0 164 -104.5 264.5t-251.5 100.5q-146 0 -250 -100.5t-104 -264.5q0 -130 72.5 -230
t191.5 -134v-334h-676v358h148q-152 183 -152 426z" />
    <glyph glyph-name="iotadieresistonos" unicode="&#x390;" horiz-adv-x="552" 
d="M78 0v1137h399v-1137h-399zM-143 1436q0 61 43.5 104t105.5 43t106 -43t44 -104q0 -62 -44 -106t-106 -44q-61 0 -105 44t-44 106zM172 1245l33 379h280l-145 -379h-168zM461 1436q0 61 43.5 104t105.5 43t106 -43t44 -104q0 -62 -44 -106t-106 -44q-61 0 -105 44
t-44 106z" />
    <glyph glyph-name="Alpha" unicode="&#x391;" horiz-adv-x="1648" 
d="M-12 0l684 1434h307l674 -1434h-445l-84 193h-614l-86 -193h-436zM641 483h356l-176 404z" />
    <glyph glyph-name="Beta" unicode="&#x392;" horiz-adv-x="1544" 
d="M113 0v1434h848q228 0 350.5 -109.5t122.5 -284.5q0 -180 -148 -274q102 -54 155.5 -142.5t53.5 -203.5q0 -87 -32.5 -162.5t-94 -133t-158.5 -91t-217 -33.5h-880zM512 358h453q49 0 85.5 31.5t36.5 79.5t-36.5 79.5t-85.5 31.5h-453v-222zM512 874h412q52 0 81 29.5
t29 73.5q0 42 -29 70t-81 28h-412v-201z" />
    <glyph glyph-name="Gamma" unicode="&#x393;" horiz-adv-x="1112" 
d="M113 0v1434h1020v-373h-621v-1061h-399z" />
    <glyph glyph-name="uni0394" unicode="&#x394;" horiz-adv-x="1632" 
d="M-14 0l678 1434h307l669 -1434h-1654zM586 369h452l-223 514z" />
    <glyph glyph-name="Epsilon" unicode="&#x395;" horiz-adv-x="1382" 
d="M113 0v1434h1183v-359h-784v-186h723v-328h-723v-203h805v-358h-1204z" />
    <glyph glyph-name="Zeta" unicode="&#x396;" horiz-adv-x="1341" 
d="M12 0l654 1075h-592v359h1263l-653 -1076h625v-358h-1297z" />
    <glyph glyph-name="Eta" unicode="&#x397;" horiz-adv-x="1607" 
d="M113 0v1434h399v-500h584v500h399v-1434h-399v561h-584v-561h-399z" />
    <glyph glyph-name="Theta" unicode="&#x398;" horiz-adv-x="1611" 
d="M559 598v256h496v-256h-496zM49 717q0 204 99.5 375t274 270.5t384.5 99.5q209 0 383 -99.5t273.5 -270.5t99.5 -375t-99.5 -375.5t-273.5 -271t-383 -99.5q-158 0 -298.5 58.5t-241.5 158.5t-159.5 238t-58.5 291zM465 717q0 -150 99.5 -248t242.5 -98t241.5 98
t98.5 248t-98.5 248t-241.5 98t-242.5 -98t-99.5 -248z" />
    <glyph glyph-name="Iota" unicode="&#x399;" horiz-adv-x="624" 
d="M113 0v1434h399v-1434h-399z" />
    <glyph glyph-name="Kappa" unicode="&#x39a;" horiz-adv-x="1466" 
d="M1047 0l-535 723v-723h-399v1434h399v-699l537 699h444l-539 -689l564 -745h-471z" />
    <glyph glyph-name="Lambda" unicode="&#x39b;" horiz-adv-x="1566" 
d="M938 1452l635 -1452h-461l-336 838l-332 -838h-442l629 1452h307z" />
    <glyph glyph-name="Mu" unicode="&#x39c;" horiz-adv-x="1812" 
d="M113 1434h252l553 -648l532 648h250v-1434h-400v696l-382 -444l-406 444v-696h-399v1434z" />
    <glyph glyph-name="Nu" unicode="&#x39d;" horiz-adv-x="1597" 
d="M1485 0h-256l-717 745v-745h-399v1434h252l720 -746v746h400v-1434z" />
    <glyph glyph-name="Xi" unicode="&#x39e;" horiz-adv-x="1343" 
d="M68 0v358h1210v-358h-1210zM68 1075v359h1189v-359h-1189zM154 561v328h1036v-328h-1036z" />
    <glyph glyph-name="Omicron" unicode="&#x39f;" horiz-adv-x="1611" 
d="M807 -29q-158 0 -298.5 58.5t-241.5 158.5t-159.5 238t-58.5 291q0 204 99.5 375t274 270.5t384.5 99.5q209 0 383 -99.5t273.5 -270.5t99.5 -375t-99.5 -375.5t-273.5 -271t-383 -99.5zM465 717q0 -150 99.5 -248t242.5 -98t241.5 98t98.5 248t-98.5 248t-241.5 98
t-242.5 -98t-99.5 -248z" />
    <glyph glyph-name="Pi" unicode="&#x3a0;" horiz-adv-x="1576" 
d="M113 0v1434h1351v-1434h-399v1061h-553v-1061h-399z" />
    <glyph glyph-name="Rho" unicode="&#x3a1;" horiz-adv-x="1439" 
d="M113 0v1434h753q129 0 233 -42.5t168.5 -113.5t99 -160t34.5 -186q0 -96 -34.5 -185t-99 -160.5t-168.5 -114t-233 -42.5h-354v-430h-399zM512 774h328q58 0 99.5 44t41.5 106q0 63 -41 107t-100 44h-328v-301z" />
    <glyph glyph-name="Sigma" unicode="&#x3a3;" horiz-adv-x="1323" 
d="M-10 0l514 717l-514 717h1261v-359h-540l264 -358l-264 -359h544v-358h-1265z" />
    <glyph glyph-name="Tau" unicode="&#x3a4;" horiz-adv-x="1329" 
d="M469 0v1075h-457v359h1311v-359h-455v-1075h-399z" />
    <glyph glyph-name="Upsilon" unicode="&#x3a5;" horiz-adv-x="1439" 
d="M530 0v469l-553 965h463l295 -562l283 562h444l-532 -961v-473h-400z" />
    <glyph glyph-name="Phi" unicode="&#x3a6;" horiz-adv-x="1761" 
d="M696 0v164h-133q-161 0 -289 78t-196 203.5t-68 271.5t68 271.5t196 203.5t289 78h133v164h369v-164h133q161 0 289 -78t196 -203.5t68 -271.5t-68 -271.5t-196 -203.5t-289 -78h-133v-164h-369zM381 717q0 -86 60 -151.5t157 -65.5h98v434h-98q-97 0 -157 -65.5
t-60 -151.5zM1065 500h98q98 0 157.5 65t59.5 152t-59.5 152t-157.5 65h-98v-434z" />
    <glyph glyph-name="Chi" unicode="&#x3a7;" horiz-adv-x="1472" 
d="M-10 0l502 731l-496 703h473l276 -392l259 392h462l-491 -715l508 -719h-475l-289 408l-266 -408h-463z" />
    <glyph glyph-name="Psi" unicode="&#x3a8;" horiz-adv-x="1695" 
d="M1032 328v-328h-368v328h-72q-161 0 -289 78t-196 203.5t-68 271.5v553h371v-553q0 -87 59.5 -152t157.5 -65h37v770h368v-770h37q97 0 157 65.5t60 151.5v553h371v-553q0 -146 -68 -271.5t-196 -203.5t-289 -78h-72z" />
    <glyph glyph-name="uni03A9" unicode="&#x3a9;" horiz-adv-x="1640" 
d="M911 334q118 34 191.5 134.5t73.5 229.5q0 164 -105 264.5t-252 100.5q-146 0 -250 -100.5t-104 -264.5q0 -130 72.5 -230t191.5 -134v-334h-676v358h148q-152 183 -152 426q0 195 100.5 350.5t276 241.5t393.5 86t394 -86t277 -241.5t101 -350.5q0 -246 -153 -426h147
v-358h-674v334z" />
    <glyph glyph-name="Iotadieresis" unicode="&#x3aa;" horiz-adv-x="624" 
d="M113 0v1434h399v-1434h-399zM-139 1737q0 83 61 144t144 61q84 0 144 -60.5t60 -144.5q0 -85 -59.5 -145t-144.5 -60q-84 0 -144.5 60.5t-60.5 144.5zM356 1737q0 83 61 144t144 61q84 0 144.5 -60.5t60.5 -144.5q0 -85 -60 -145t-145 -60q-84 0 -144.5 60.5t-60.5 144.5
z" />
    <glyph glyph-name="Upsilondieresis" unicode="&#x3ab;" horiz-adv-x="1439" 
d="M530 0v469l-553 965h463l295 -562l283 562h444l-532 -961v-473h-400zM268 1737q0 84 60.5 144.5t144.5 60.5t143.5 -60.5t59.5 -144.5q0 -85 -59 -145t-144 -60t-145 60t-60 145zM764 1737q0 83 61 144t144 61q84 0 144.5 -60.5t60.5 -144.5q0 -85 -60 -145t-145 -60
q-84 0 -144.5 60.5t-60.5 144.5z" />
    <glyph glyph-name="alphatonos" unicode="&#x3ac;" 
d="M553 -29q-149 0 -267 79t-182.5 215t-64.5 304q0 125 38 235t105 189.5t163 125.5t208 46q216 0 336 -166v138h383v-1137h-383v137q-120 -166 -336 -166zM455 569q0 -92 61 -153.5t152 -61.5q92 0 153.5 61.5t61.5 153.5q0 91 -61.5 152t-153.5 61q-91 0 -152 -61
t-61 -152zM535 1249l110 379h406l-293 -379h-223z" />
    <glyph glyph-name="epsilontonos" unicode="&#x3ad;" horiz-adv-x="1224" 
d="M608 -25q-269 0 -412 91t-143 243q0 105 58 179t155 108q-98 32 -143 92.5t-45 159.5q0 146 132.5 231.5t403.5 85.5q135 0 241 -32.5t172.5 -89.5t102 -128t39.5 -153h-374q-7 50 -55.5 79t-116.5 29q-81 0 -124.5 -19.5t-43.5 -55.5t44.5 -57t127.5 -21h125v-266h-125
q-195 0 -195 -82q0 -44 49.5 -68.5t132.5 -24.5q79 0 134.5 34t64.5 102h375q-5 -94 -43.5 -172.5t-109 -138t-180 -93t-247.5 -33.5zM465 1249l110 379h406l-293 -379h-223z" />
    <glyph glyph-name="etatonos" unicode="&#x3ae;" horiz-adv-x="1286" 
d="M809 614q0 74 -46 125.5t-118 51.5q-73 0 -120.5 -51.5t-47.5 -125.5v-614h-399v1137h373v-129q115 157 323 157q211 0 322.5 -130.5t111.5 -368.5v-1076h-399v1024zM502 1249l110 379h406l-293 -379h-223z" />
    <glyph glyph-name="iotatonos" unicode="&#x3af;" horiz-adv-x="552" 
d="M78 0v1137h399v-1137h-399zM135 1249l111 379h405l-293 -379h-223z" />
    <glyph glyph-name="upsilondieresistonos" unicode="&#x3b0;" horiz-adv-x="1249" 
d="M625 -29q-106 0 -203.5 34.5t-177 98.5t-127 168t-47.5 232v633h399v-637q0 -67 43 -113.5t113 -46.5t112.5 46.5t42.5 113.5v637h400v-633q0 -128 -47.5 -232t-127 -168t-177 -98.5t-203.5 -34.5zM205 1436q0 61 43.5 104t105.5 43t106 -43t44 -104q0 -62 -44 -106
t-106 -44q-61 0 -105 44t-44 106zM520 1245l33 379h281l-146 -379h-168zM809 1436q0 61 43.5 104t105.5 43t106 -43t44 -104q0 -62 -44 -106t-106 -44q-61 0 -105 44t-44 106z" />
    <glyph glyph-name="alpha" unicode="&#x3b1;" 
d="M553 -29q-149 0 -267 79t-182.5 215t-64.5 304q0 125 38 235t105 189.5t163 125.5t208 46q216 0 336 -166v138h383v-1137h-383v137q-120 -166 -336 -166zM455 569q0 -92 61 -153.5t152 -61.5q92 0 153.5 61.5t61.5 153.5q0 91 -61.5 152t-153.5 61q-91 0 -152 -61
t-61 -152z" />
    <glyph glyph-name="beta" unicode="&#x3b2;" horiz-adv-x="1284" 
d="M797 -29q-203 0 -320 150v-531h-399v1399q0 104 21.5 190t62 147t93.5 106t119 71t136.5 38.5t148.5 12.5q133 0 239.5 -36.5t171.5 -98t99.5 -138t34.5 -161.5q0 -207 -174 -325q99 -60 157 -153t58 -220q0 -198 -125.5 -324.5t-322.5 -126.5zM477 569
q0 -96 55.5 -167.5t143.5 -71.5q73 0 118.5 43t45.5 112q0 75 -56.5 120.5t-152.5 45.5h-60v279h60q80 0 124 46t44 116q0 66 -40.5 110.5t-109.5 44.5q-86 0 -129 -52.5t-43 -166.5v-459z" />
    <glyph glyph-name="gamma" unicode="&#x3b3;" horiz-adv-x="1251" 
d="M432 -410v410l-436 1137h436l199 -695l190 695h428l-418 -1137v-410h-399z" />
    <glyph glyph-name="delta" unicode="&#x3b4;" horiz-adv-x="1300" 
d="M651 -29q-278 0 -445 153t-167 392q0 188 114.5 316.5t327.5 181.5l-368 270v272h1065v-335h-525l318 -224q160 -113 225.5 -229t65.5 -252q0 -239 -167 -392t-444 -153zM440 522q0 -84 59 -143.5t152 -59.5q92 0 151.5 59.5t59.5 143.5q0 86 -59.5 145.5t-151.5 59.5
q-93 0 -152 -59t-59 -146z" />
    <glyph glyph-name="epsilon" unicode="&#x3b5;" horiz-adv-x="1224" 
d="M608 -25q-269 0 -412 91t-143 243q0 105 58 179t155 108q-98 32 -143 92.5t-45 159.5q0 146 132.5 231.5t403.5 85.5q135 0 241 -32.5t172.5 -89.5t102 -128t39.5 -153h-374q-7 50 -55.5 79t-116.5 29q-81 0 -124.5 -19.5t-43.5 -55.5t44.5 -57t127.5 -21h125v-266h-125
q-195 0 -195 -82q0 -44 49.5 -68.5t132.5 -24.5q79 0 134.5 34t64.5 102h375q-5 -94 -43.5 -172.5t-109 -138t-180 -93t-247.5 -33.5z" />
    <glyph glyph-name="zeta" unicode="&#x3b6;" horiz-adv-x="1085" 
d="M31 412q0 210 124.5 429t344.5 380h-408v335h989v-272q-288 -173 -468.5 -403t-180.5 -398q0 -65 30.5 -106t102.5 -55l205 -46q161 -33 246.5 -130t85.5 -259q0 -153 -64 -297h-379q32 67 44 106t12 93q0 116 -146 150l-213 49q-152 34 -238.5 139.5t-86.5 284.5z" />
    <glyph glyph-name="eta" unicode="&#x3b7;" horiz-adv-x="1286" 
d="M809 614q0 74 -46 125.5t-118 51.5q-73 0 -120.5 -51.5t-47.5 -125.5v-614h-399v1137h373v-129q115 157 323 157q211 0 322.5 -130.5t111.5 -368.5v-1076h-399v1024z" />
    <glyph glyph-name="theta" unicode="&#x3b8;" horiz-adv-x="1306" 
d="M653 -29q-271 0 -427 161.5t-156 432.5v406q0 281 155.5 444.5t427.5 163.5q273 0 428.5 -163.5t155.5 -444.5v-406q0 -271 -156.5 -432.5t-427.5 -161.5zM459 530q0 -99 52 -155t142 -56q89 0 142 56t53 155v101h-389v-101zM459 920h389v104q0 97 -53 153t-142 56
q-90 0 -142 -55.5t-52 -153.5v-104z" />
    <glyph glyph-name="iota" unicode="&#x3b9;" horiz-adv-x="552" 
d="M78 0v1137h399v-1137h-399z" />
    <glyph glyph-name="kappa" unicode="&#x3ba;" horiz-adv-x="1230" 
d="M797 0l-320 561v-561h-399v1137h399v-521l332 521h418l-350 -529l370 -608h-450z" />
    <glyph glyph-name="lambda" unicode="&#x3bb;" horiz-adv-x="1241" 
d="M-8 0l418 1026l-228 530h414l647 -1556h-438l-207 575l-192 -575h-414z" />
    <glyph glyph-name="uni03BC" unicode="&#x3bc;" horiz-adv-x="1265" 
d="M514 -29q-25 0 -37 2v-383h-399v1547h399v-629q0 -72 43.5 -116t110.5 -44q68 0 112.5 45t44.5 115v629h400v-1137h-373v117q-110 -146 -301 -146z" />
    <glyph glyph-name="nu" unicode="&#x3bd;" horiz-adv-x="1267" 
d="M422 0l-426 1137h436l207 -695l199 695h428l-412 -1137h-432z" />
    <glyph glyph-name="xi" unicode="&#x3be;" horiz-adv-x="1224" 
d="M49 426q0 148 67 245t183 140q-99 43 -159 130.5t-60 217.5q0 188 148.5 307t406.5 119q268 0 417 -120t175 -351h-402q-8 60 -52 93.5t-122 33.5q-86 0 -129 -36.5t-43 -102.5q0 -70 50.5 -114t138.5 -44h131v-319h-137q-211 0 -211 -142q0 -67 44 -102.5t146 -54.5
l236 -43q358 -67 358 -396q0 -159 -61 -297h-379q22 49 31 71t16.5 56.5t7.5 71.5q0 123 -145 148l-252 49q-192 37 -298 145.5t-106 294.5z" />
    <glyph glyph-name="omicron" unicode="&#x3bf;" horiz-adv-x="1306" 
d="M653 -29q-168 0 -309 78.5t-223 216t-82 303.5q0 165 82 302t223 215.5t309 78.5t309 -78t223.5 -215.5t82.5 -302.5q0 -166 -82.5 -303.5t-223.5 -216t-309 -78.5zM440 569q0 -91 61 -153t152 -62t152 62t61 153t-61 152t-152 61t-152 -61t-61 -152z" />
    <glyph glyph-name="pi" unicode="&#x3c0;" horiz-adv-x="1392" 
d="M164 0v801h-133v336h1331v-336h-133v-801h-400v801h-266v-801h-399z" />
    <glyph glyph-name="rho" unicode="&#x3c1;" 
d="M78 569q0 126 43 235t122 189t196.5 126t258.5 46q188 0 328 -79.5t211.5 -213.5t71.5 -303q0 -168 -64 -304t-182 -215t-268 -79q-197 0 -318 144v-525h-399v979zM469 569q0 -92 60 -153.5t151 -61.5t152 61.5t61 153.5q0 91 -61 152t-152 61t-151 -61t-60 -152z" />
    <glyph glyph-name="uni03C2" unicode="&#x3c2;" horiz-adv-x="1290" 
d="M799 -410q31 66 43 105.5t12 93.5q0 59 -33.5 96.5t-111.5 51.5l-244 49q-193 38 -309.5 190t-116.5 395q0 172 82.5 309t222.5 211t309 74q233 0 406 -145t201 -367h-412q-24 58 -76.5 93.5t-118.5 35.5q-94 0 -153.5 -56t-59.5 -155q0 -205 205 -245l236 -43
q360 -65 360 -396q0 -162 -63 -297h-379z" />
    <glyph glyph-name="sigma" unicode="&#x3c3;" horiz-adv-x="1411" 
d="M653 -29q-168 0 -309 78.5t-223 216t-82 303.5q0 165 82 302t223 215.5t309 78.5q99 0 191 -28h557v-336h-180q47 -109 47 -232q0 -166 -82.5 -303.5t-223.5 -216t-309 -78.5zM440 569q0 -91 61 -153t152 -62t152 62t61 153t-61 152t-152 61t-152 -61t-61 -152z" />
    <glyph glyph-name="tau" unicode="&#x3c4;" horiz-adv-x="1054" 
d="M328 0v801h-301v336h1003v-336h-303v-801h-399z" />
    <glyph glyph-name="upsilon" unicode="&#x3c5;" horiz-adv-x="1249" 
d="M625 -29q-106 0 -203.5 34.5t-177 98.5t-127 168t-47.5 232v633h399v-637q0 -67 43 -113.5t113 -46.5t112.5 46.5t42.5 113.5v637h400v-633q0 -128 -47.5 -232t-127 -168t-177 -98.5t-203.5 -34.5z" />
    <glyph glyph-name="phi" unicode="&#x3c6;" horiz-adv-x="1703" 
d="M1034 -29v-381h-364v381q-110 0 -209.5 31.5t-175 87t-132 129t-85.5 160t-29 176.5q0 147 65 272t189 206t285 93v-348q-162 -46 -162 -223q0 -99 71.5 -166t182.5 -67v815h364q137 0 256.5 -48.5t200.5 -129t127.5 -186t46.5 -218.5q0 -90 -29 -176.5t-85.5 -160
t-132 -129t-175 -87t-209.5 -31.5zM1034 322q111 0 182.5 67t71.5 166q0 98 -71.5 165.5t-182.5 67.5v-466z" />
    <glyph glyph-name="chi" unicode="&#x3c7;" horiz-adv-x="1230" 
d="M-25 -410l371 828l-350 719h457l172 -418l174 418h432l-367 -750l381 -797h-457l-198 480l-182 -480h-433z" />
    <glyph glyph-name="psi" unicode="&#x3c8;" horiz-adv-x="1691" 
d="M1028 0v-410h-366v410q-254 2 -423 156t-169 385v596h376v-586q0 -100 59.5 -158.5t156.5 -58.5v803h366v-803q98 0 157.5 58.5t59.5 158.5v586h379v-596q0 -152 -77.5 -276t-214 -194.5t-304.5 -70.5z" />
    <glyph glyph-name="omega" unicode="&#x3c9;" horiz-adv-x="1755" 
d="M541 -29q-75 0 -144 18.5t-131 59.5t-107.5 101t-72.5 148.5t-27 195.5q0 170 29 316.5t105 326.5h399q-76 -184 -104.5 -319t-28.5 -281q0 -197 116 -197q53 0 86 41.5t33 124.5v405h369v-405q0 -84 32 -125t85 -41q116 0 116 197q0 146 -28.5 281t-104.5 319h400
q76 -180 105.5 -327t29.5 -316q0 -107 -27 -195.5t-72.5 -148.5t-107.5 -101t-131 -59.5t-143 -18.5q-102 0 -193 36.5t-145 121.5q-55 -85 -146 -121.5t-192 -36.5z" />
    <glyph glyph-name="iotadieresis" unicode="&#x3ca;" horiz-adv-x="552" 
d="M78 0v1137h399v-1137h-399zM-174 1440q0 83 60 144t143 61q84 0 144 -60.5t60 -144.5q0 -85 -59.5 -145t-144.5 -60q-83 0 -143 60t-60 145zM322 1440q0 84 60 144.5t144 60.5t143.5 -60.5t59.5 -144.5q0 -85 -59 -145t-144 -60t-144.5 60t-59.5 145z" />
    <glyph glyph-name="upsilondieresis" unicode="&#x3cb;" horiz-adv-x="1249" 
d="M625 -29q-106 0 -203.5 34.5t-177 98.5t-127 168t-47.5 232v633h399v-637q0 -67 43 -113.5t113 -46.5t112.5 46.5t42.5 113.5v637h400v-633q0 -128 -47.5 -232t-127 -168t-177 -98.5t-203.5 -34.5zM174 1440q0 83 60 144t143 61q84 0 144.5 -60.5t60.5 -144.5
q0 -85 -60 -145t-145 -60q-83 0 -143 60t-60 145zM670 1440q0 84 60 144.5t144 60.5t143.5 -60.5t59.5 -144.5q0 -85 -59 -145t-144 -60t-144.5 60t-59.5 145z" />
    <glyph glyph-name="omicrontonos" unicode="&#x3cc;" horiz-adv-x="1306" 
d="M653 -29q-168 0 -309 78.5t-223 216t-82 303.5q0 165 82 302t223 215.5t309 78.5t309 -78t223.5 -215.5t82.5 -302.5q0 -166 -82.5 -303.5t-223.5 -216t-309 -78.5zM440 569q0 -91 61 -153t152 -62t152 62t61 153t-61 152t-152 61t-152 -61t-61 -152zM512 1249l111 379
h405l-293 -379h-223z" />
    <glyph glyph-name="upsilontonos" unicode="&#x3cd;" horiz-adv-x="1249" 
d="M625 -29q-106 0 -203.5 34.5t-177 98.5t-127 168t-47.5 232v633h399v-637q0 -67 43 -113.5t113 -46.5t112.5 46.5t42.5 113.5v637h400v-633q0 -128 -47.5 -232t-127 -168t-177 -98.5t-203.5 -34.5zM483 1249l111 379h405l-292 -379h-224z" />
    <glyph glyph-name="omegatonos" unicode="&#x3ce;" horiz-adv-x="1755" 
d="M541 -29q-75 0 -144 18.5t-131 59.5t-107.5 101t-72.5 148.5t-27 195.5q0 170 29 316.5t105 326.5h399q-76 -184 -104.5 -319t-28.5 -281q0 -197 116 -197q53 0 86 41.5t33 124.5v405h369v-405q0 -84 32 -125t85 -41q116 0 116 197q0 146 -28.5 281t-104.5 319h400
q76 -180 105.5 -327t29.5 -316q0 -107 -27 -195.5t-72.5 -148.5t-107.5 -101t-131 -59.5t-143 -18.5q-102 0 -193 36.5t-145 121.5q-55 -85 -146 -121.5t-192 -36.5zM737 1249l111 379h405l-292 -379h-224z" />
    <glyph glyph-name="uni03CF" unicode="&#x3cf;" horiz-adv-x="1466" 
d="M1047 0l-535 723v-723h-399v1434h399v-699l537 699h444l-539 -689l564 -745h-471z" />
    <glyph glyph-name="uni03D7" unicode="&#x3d7;" horiz-adv-x="1230" 
d="M797 0l-320 561v-561h-399v1137h399v-521l332 521h418l-350 -529l370 -608h-450z" />
    <glyph glyph-name="uni0401" unicode="&#x401;" horiz-adv-x="1382" 
d="M113 0v1434h1183v-359h-784v-186h723v-328h-723v-203h805v-358h-1204zM285 1737q0 84 59.5 144.5t142.5 60.5q84 0 144.5 -60.5t60.5 -144.5q0 -85 -60 -145t-145 -60q-83 0 -142.5 60t-59.5 145zM780 1737q0 84 60.5 144.5t144.5 60.5t143.5 -60.5t59.5 -144.5
q0 -85 -59 -145t-144 -60t-145 60t-60 145z" />
    <glyph glyph-name="uni0404" unicode="&#x404;" horiz-adv-x="1603" 
d="M807 -29q-209 0 -383.5 99.5t-274.5 271t-100 375.5t100 375t274.5 270.5t383.5 99.5q142 0 271 -48t226.5 -131.5t163.5 -199t86 -247.5h-409q-35 113 -128 178t-218 65q-108 0 -194 -56.5t-124 -152.5h480v-297h-484q37 -100 123.5 -159.5t198.5 -59.5
q125 0 217.5 65.5t126.5 180.5h411q-20 -133 -86 -249t-163.5 -200t-226.5 -132t-271 -48z" />
    <glyph glyph-name="uni0406" unicode="&#x406;" horiz-adv-x="624" 
d="M113 0v1434h399v-1434h-399z" />
    <glyph glyph-name="uni0407" unicode="&#x407;" horiz-adv-x="624" 
d="M113 0v1434h399v-1434h-399zM-139 1737q0 83 61 144t144 61q84 0 144 -60.5t60 -144.5q0 -85 -59.5 -145t-144.5 -60q-84 0 -144.5 60.5t-60.5 144.5zM356 1737q0 83 61 144t144 61q84 0 144.5 -60.5t60.5 -144.5q0 -85 -60 -145t-145 -60q-84 0 -144.5 60.5t-60.5 144.5
z" />
    <glyph glyph-name="uni040E" unicode="&#x40e;" horiz-adv-x="1531" 
d="M416 0l174 358l-598 1076h454l351 -689l309 689h428l-690 -1434h-428zM367 1882h266q2 -53 38 -90t97 -37t97 37t38 90h266q-6 -97 -42.5 -170.5t-94 -116t-124 -63.5t-140.5 -21q-73 0 -139.5 21t-124 64t-94.5 116.5t-43 169.5z" />
    <glyph glyph-name="uni0410" unicode="&#x410;" horiz-adv-x="1648" 
d="M-12 0l684 1434h307l674 -1434h-445l-84 193h-614l-86 -193h-436zM641 483h356l-176 404z" />
    <glyph glyph-name="uni0411" unicode="&#x411;" horiz-adv-x="1497" 
d="M113 0v1434h1208v-342h-809v-174h440q126 0 227 -37t164 -100.5t96.5 -145.5t33.5 -176t-33.5 -176.5t-97 -146t-164 -100t-226.5 -36.5h-839zM512 328h430q56 0 96.5 41t40.5 96q0 57 -40.5 98t-96.5 41h-430v-276z" />
    <glyph glyph-name="uni0412" unicode="&#x412;" horiz-adv-x="1544" 
d="M113 0v1434h848q228 0 350.5 -109.5t122.5 -284.5q0 -180 -148 -274q102 -54 155.5 -142.5t53.5 -203.5q0 -87 -32.5 -162.5t-94 -133t-158.5 -91t-217 -33.5h-880zM512 358h453q49 0 85.5 31.5t36.5 79.5t-36.5 79.5t-85.5 31.5h-453v-222zM512 874h412q52 0 81 29.5
t29 73.5q0 42 -29 70t-81 28h-412v-201z" />
    <glyph glyph-name="uni0413" unicode="&#x413;" horiz-adv-x="1112" 
d="M113 0v1434h1020v-373h-621v-1061h-399z" />
    <glyph glyph-name="uni0414" unicode="&#x414;" horiz-adv-x="1605" 
d="M2 -328v686h170l475 1076h307l467 -1076h166v-686h-352v328h-879v-328h-354zM569 358h445l-215 553z" />
    <glyph glyph-name="uni0415" unicode="&#x415;" horiz-adv-x="1382" 
d="M113 0v1434h1183v-359h-784v-186h723v-328h-723v-203h805v-358h-1204z" />
    <glyph glyph-name="uni0416" unicode="&#x416;" horiz-adv-x="1988" 
d="M1581 0l-389 662v-662h-399v657l-385 -657h-459l461 743l-449 691h440l392 -633v633h399v-637l393 637h440l-446 -691l461 -743h-459z" />
    <glyph glyph-name="uni0417" unicode="&#x417;" horiz-adv-x="1435" 
d="M715 -29q-147 0 -271 42.5t-208 115.5t-133 170.5t-54 208.5h406q6 -84 74 -134t188 -50q117 0 184.5 36t67.5 95q0 120 -246 120h-174v297h174q102 0 156.5 34t54.5 87q0 56 -55 88.5t-162 32.5q-110 0 -174 -43.5t-72 -112.5h-401q9 99 53 187t123.5 160.5t207 115.5
t287.5 43q156 0 274.5 -30t189.5 -84t106 -124t35 -155q0 -242 -207 -323q247 -102 247 -355q0 -190 -174 -306t-497 -116z" />
    <glyph glyph-name="uni0418" unicode="&#x418;" horiz-adv-x="1556" 
d="M113 0v1434h399v-740l682 740h250v-1434h-400v739l-679 -739h-252z" />
    <glyph glyph-name="uni0419" unicode="&#x419;" horiz-adv-x="1556" 
d="M113 0v1434h399v-740l682 740h250v-1434h-400v739l-679 -739h-252zM430 1882h266q2 -53 38 -90t97 -37t97.5 37t38.5 90h266q-6 -97 -42.5 -170.5t-94.5 -116t-124.5 -63.5t-140.5 -21q-73 0 -139.5 21t-124 64t-94.5 116.5t-43 169.5z" />
    <glyph glyph-name="uni041A" unicode="&#x41a;" horiz-adv-x="1466" 
d="M1047 0l-535 723v-723h-399v1434h399v-699l537 699h444l-539 -689l564 -745h-471z" />
    <glyph glyph-name="uni041B" unicode="&#x41b;" horiz-adv-x="1566" 
d="M938 1452l635 -1452h-461l-336 838l-332 -838h-442l629 1452h307z" />
    <glyph glyph-name="uni041C" unicode="&#x41c;" horiz-adv-x="1812" 
d="M113 1434h252l553 -648l532 648h250v-1434h-400v696l-382 -444l-406 444v-696h-399v1434z" />
    <glyph glyph-name="uni041D" unicode="&#x41d;" horiz-adv-x="1607" 
d="M113 0v1434h399v-500h584v500h399v-1434h-399v561h-584v-561h-399z" />
    <glyph glyph-name="uni041E" unicode="&#x41e;" horiz-adv-x="1611" 
d="M807 -29q-158 0 -298.5 58.5t-241.5 158.5t-159.5 238t-58.5 291q0 204 99.5 375t274 270.5t384.5 99.5q209 0 383 -99.5t273.5 -270.5t99.5 -375t-99.5 -375.5t-273.5 -271t-383 -99.5zM465 717q0 -150 99.5 -248t242.5 -98t241.5 98t98.5 248t-98.5 248t-241.5 98
t-242.5 -98t-99.5 -248z" />
    <glyph glyph-name="uni041F" unicode="&#x41f;" horiz-adv-x="1576" 
d="M113 0v1434h1351v-1434h-399v1061h-553v-1061h-399z" />
    <glyph glyph-name="uni0420" unicode="&#x420;" horiz-adv-x="1439" 
d="M113 0v1434h753q129 0 233 -42.5t168.5 -113.5t99 -160t34.5 -186q0 -96 -34.5 -185t-99 -160.5t-168.5 -114t-233 -42.5h-354v-430h-399zM512 774h328q58 0 99.5 44t41.5 106q0 63 -41 107t-100 44h-328v-301z" />
    <glyph glyph-name="uni0421" unicode="&#x421;" horiz-adv-x="1603" 
d="M807 -29q-158 0 -298.5 58.5t-241.5 158.5t-159.5 238t-58.5 291q0 204 99.5 375t274 270.5t384.5 99.5q142 0 271 -48t226.5 -131.5t163.5 -199t86 -247.5h-426q-35 103 -122 165t-199 62q-143 0 -242.5 -98t-99.5 -248t99.5 -248t242.5 -98q112 0 199 62t122 167h426
q-20 -133 -86 -249t-163.5 -200t-226.5 -132t-271 -48z" />
    <glyph glyph-name="uni0422" unicode="&#x422;" horiz-adv-x="1329" 
d="M469 0v1075h-457v359h1311v-359h-455v-1075h-399z" />
    <glyph glyph-name="uni0423" unicode="&#x423;" horiz-adv-x="1531" 
d="M416 0l174 358l-598 1076h454l351 -689l309 689h428l-690 -1434h-428z" />
    <glyph glyph-name="uni0424" unicode="&#x424;" horiz-adv-x="1761" 
d="M696 0v164h-133q-161 0 -289 78t-196 203.5t-68 271.5t68 271.5t196 203.5t289 78h133v164h369v-164h133q161 0 289 -78t196 -203.5t68 -271.5t-68 -271.5t-196 -203.5t-289 -78h-133v-164h-369zM381 717q0 -86 60 -151.5t157 -65.5h98v434h-98q-97 0 -157 -65.5
t-60 -151.5zM1065 500h98q98 0 157.5 65t59.5 152t-59.5 152t-157.5 65h-98v-434z" />
    <glyph glyph-name="uni0425" unicode="&#x425;" horiz-adv-x="1472" 
d="M-10 0l502 731l-496 703h473l276 -392l259 392h462l-491 -715l508 -719h-475l-289 408l-266 -408h-463z" />
    <glyph glyph-name="uni0426" unicode="&#x426;" horiz-adv-x="1536" 
d="M1198 -328v328h-1085v1434h399v-1059h471v1059h399v-1106h170v-656h-354z" />
    <glyph glyph-name="uni0427" unicode="&#x427;" horiz-adv-x="1439" 
d="M928 567q-96 -24 -277 -24q-265 0 -424 149.5t-159 397.5v344h399v-258q0 -115 68.5 -186.5t187.5 -71.5q114 0 205 24v492h399v-1434h-399v567z" />
    <glyph glyph-name="uni0428" unicode="&#x428;" horiz-adv-x="1972" 
d="M113 0v1434h399v-1059h297v1059h369v-1059h282v1059h400v-1434h-1747z" />
    <glyph glyph-name="uni0429" unicode="&#x429;" horiz-adv-x="2007" 
d="M1669 -328v328h-1556v1434h399v-1059h297v1059h369v-1059h282v1059h400v-1106h163v-656h-354z" />
    <glyph glyph-name="uni042A" unicode="&#x42a;" horiz-adv-x="1640" 
d="M12 1075v359h703v-430h354q129 0 233 -42.5t168.5 -113.5t99 -160t34.5 -186q0 -96 -34.5 -185t-99 -160.5t-168.5 -114t-233 -42.5h-754v1075h-303zM715 358h327q59 0 100.5 44.5t41.5 107.5q0 62 -42 107t-100 45h-327v-304z" />
    <glyph glyph-name="uni042B" unicode="&#x42b;" horiz-adv-x="1976" 
d="M113 0v1434h399v-455h358q125 0 226.5 -41.5t164.5 -111.5t96.5 -156.5t33.5 -180.5q0 -75 -20.5 -146t-63.5 -133.5t-103.5 -109t-146.5 -73.5t-187 -27h-757zM512 358h332q57 0 97 41t40 97q0 57 -40 98t-97 41h-332v-277zM1464 0v1434h400v-1434h-400z" />
    <glyph glyph-name="uni042C" unicode="&#x42c;" horiz-adv-x="1439" 
d="M113 1434h399v-430h354q129 0 233 -42.5t168.5 -114t99 -160.5t34.5 -185q0 -97 -34.5 -186t-99 -160t-168.5 -113.5t-233 -42.5h-753v1434zM512 358h328q58 0 99.5 44.5t41.5 107.5q0 62 -41.5 105.5t-99.5 43.5h-328v-301z" />
    <glyph glyph-name="uni042D" unicode="&#x42d;" horiz-adv-x="1603" 
d="M797 -29q-189 0 -351 82.5t-266 225.5t-131 321h412q34 -115 126.5 -180.5t217.5 -65.5q112 0 198 59.5t123 159.5h-483v297h479q-38 96 -123.5 152.5t-193.5 56.5q-125 0 -218 -65t-128 -178h-410q42 269 252 447.5t496 178.5q157 0 297.5 -58.5t241 -158.5
t159.5 -237.5t59 -290.5t-59 -291t-159.5 -238t-241 -158.5t-297.5 -58.5z" />
    <glyph glyph-name="uni042E" unicode="&#x42e;" horiz-adv-x="2101" 
d="M1341 -29q-264 0 -455 162t-241 424h-133v-557h-399v1434h399v-502h143q60 244 246 387t440 143q151 0 282 -53.5t226 -149.5t149 -236t54 -306q0 -160 -54.5 -299t-148.5 -237t-226 -154t-282 -56zM1047 717q0 -154 83.5 -250t210.5 -96q128 0 211.5 96t83.5 250
q0 163 -82.5 254.5t-212.5 91.5t-212 -91.5t-82 -254.5z" />
    <glyph glyph-name="uni042F" unicode="&#x42f;" horiz-adv-x="1472" 
d="M465 0h-422l279 498q-121 65 -185.5 182.5t-64.5 251.5q0 97 34 186t98.5 160t168.5 113.5t233 42.5h754v-1434h-399v430h-261zM492 924q0 -62 41.5 -106t99.5 -44h328v301h-328q-59 0 -100 -44t-41 -107z" />
    <glyph glyph-name="uni0430" unicode="&#x430;" 
d="M553 -29q-149 0 -267 79t-182.5 215t-64.5 304q0 125 38 235t105 189.5t163 125.5t208 46q216 0 336 -166v138h383v-1137h-383v137q-120 -166 -336 -166zM455 569q0 -92 61 -153.5t152 -61.5q92 0 153.5 61.5t61.5 153.5q0 91 -61.5 152t-153.5 61q-91 0 -152 -61
t-61 -152z" />
    <glyph glyph-name="uni0431" unicode="&#x431;" horiz-adv-x="1298" 
d="M664 -29q-130 0 -240 41.5t-194 123t-131.5 212.5t-47.5 299q0 106 10.5 198t35.5 181.5t64.5 162t100.5 134.5t141 104t188 65.5t238 23.5h304v-351h-304q-97 0 -165 -17t-109.5 -52.5t-63.5 -81t-34 -111.5q110 107 293 107q103 0 195.5 -35t163 -98.5t112 -161.5
t41.5 -215q0 -158 -79 -279.5t-214.5 -185.5t-304.5 -64zM455 500q0 -84 56 -141.5t146 -57.5q89 0 146 58t57 141t-57 140.5t-146 57.5q-90 0 -146 -57t-56 -141z" />
    <glyph glyph-name="uni0432" unicode="&#x432;" horiz-adv-x="1239" 
d="M78 0v1137h688q196 0 306 -92.5t110 -225.5q0 -154 -115 -239q150 -83 150 -263q0 -132 -110 -224.5t-306 -92.5h-723zM477 289h256q45 0 71.5 25t26.5 59q0 37 -26 60.5t-74 23.5h-254v-168zM477 678h232q45 0 70.5 24t25.5 60t-25.5 61t-70.5 25h-232v-170z" />
    <glyph glyph-name="uni0433" unicode="&#x433;" horiz-adv-x="899" 
d="M78 0v1137h819v-336h-420v-801h-399z" />
    <glyph glyph-name="uni0434" unicode="&#x434;" horiz-adv-x="1419" 
d="M6 -328v633h148l282 801h529l297 -801h151v-633h-352v297h-703v-297h-352zM551 305h303l-154 471z" />
    <glyph glyph-name="uni0435" unicode="&#x435;" horiz-adv-x="1298" 
d="M651 -29q-131 0 -245.5 46t-194.5 126t-126 190.5t-46 235.5q0 124 46 234.5t126 190t194.5 125.5t245.5 46q174 0 314 -77.5t218.5 -212.5t78.5 -300q0 -46 -13 -106h-807q20 -77 71 -123.5t134 -46.5q106 0 168 78h418q-67 -185 -218.5 -295.5t-363.5 -110.5zM449 698
l405 -2q-22 74 -74.5 117t-128.5 43q-74 0 -126 -42.5t-76 -115.5z" />
    <glyph glyph-name="uni0436" unicode="&#x436;" horiz-adv-x="1921" 
d="M1473 0l-312 520v-520h-399v520l-313 -520h-463l379 598l-367 539h453l311 -486v486h399v-486l309 486h453l-367 -539l381 -598h-464z" />
    <glyph glyph-name="uni0437" unicode="&#x437;" horiz-adv-x="1169" 
d="M596 -25q-258 0 -403 118.5t-154 309.5h373q9 -62 57.5 -94.5t120.5 -32.5q69 0 116.5 25t47.5 68q0 82 -176 82h-93v266h93q62 0 101.5 21.5t39.5 56.5t-38 55t-99 20q-62 0 -103.5 -29t-48.5 -79h-373q4 81 39.5 153t100 128.5t166.5 89t229 32.5q250 0 378 -86
t128 -231q0 -97 -44 -158t-136 -94q98 -33 155 -107t57 -180q0 -152 -139 -243t-395 -91z" />
    <glyph glyph-name="uni0438" unicode="&#x438;" horiz-adv-x="1259" 
d="M78 0v1137h399v-629l328 629h379v-1137h-400v631l-327 -631h-379z" />
    <glyph glyph-name="uni0439" unicode="&#x439;" horiz-adv-x="1259" 
d="M78 0v1137h399v-629l328 629h379v-1137h-400v631l-327 -631h-379zM229 1585h267q2 -53 38 -90t97 -37t97 37t38 90h266q-6 -97 -42.5 -170.5t-94 -116t-124 -63.5t-140.5 -21q-73 0 -139.5 21t-124.5 64t-95 116.5t-43 169.5z" />
    <glyph glyph-name="uni043A" unicode="&#x43a;" horiz-adv-x="1230" 
d="M797 0l-320 561v-561h-399v1137h399v-521l332 521h418l-350 -529l370 -608h-450z" />
    <glyph glyph-name="uni043B" unicode="&#x43b;" horiz-adv-x="1267" 
d="M-4 0l428 1137h432l416 -1137h-436l-199 694l-213 -694h-428z" />
    <glyph glyph-name="uni043C" unicode="&#x43c;" horiz-adv-x="1581" 
d="M78 0v1137h475l238 -664l237 664h475v-1137h-399v590l-221 -590h-187l-219 590v-590h-399z" />
    <glyph glyph-name="uni043D" unicode="&#x43d;" horiz-adv-x="1259" 
d="M78 0v1137h399v-367h307v367h400v-1137h-400v436h-307v-436h-399z" />
    <glyph glyph-name="uni043E" unicode="&#x43e;" horiz-adv-x="1306" 
d="M653 -29q-168 0 -309 78.5t-223 216t-82 303.5q0 165 82 302t223 215.5t309 78.5t309 -78t223.5 -215.5t82.5 -302.5q0 -166 -82.5 -303.5t-223.5 -216t-309 -78.5zM440 569q0 -91 61 -153t152 -62t152 62t61 153t-61 152t-152 61t-152 -61t-61 -152z" />
    <glyph glyph-name="uni043F" unicode="&#x43f;" horiz-adv-x="1286" 
d="M78 0v1137h373v-129q115 157 323 157q211 0 322.5 -130.5t111.5 -368.5v-666h-399v614q0 74 -46 125.5t-118 51.5q-73 0 -120.5 -51.5t-47.5 -125.5v-614h-399z" />
    <glyph glyph-name="uni0440" unicode="&#x440;" 
d="M78 -410v1547h381v-138q120 166 336 166q150 0 268 -79t182 -214.5t64 -302.5q0 -168 -64 -304t-182 -215t-268 -79q-197 0 -318 144v-525h-399zM467 569q0 -92 61 -153.5t152 -61.5t152 61.5t61 153.5q0 91 -61 152t-152 61t-152 -61t-61 -152z" />
    <glyph glyph-name="uni0441" unicode="&#x441;" horiz-adv-x="1290" 
d="M653 -29q-168 0 -309 78.5t-223 216t-82 303.5q0 165 82 302t223 215.5t309 78.5q233 0 406 -145t201 -367h-412q-24 58 -76.5 93.5t-118.5 35.5q-91 0 -152 -61t-61 -152t61 -153t152 -62q66 0 118.5 35.5t76.5 93.5h412q-28 -221 -201.5 -366.5t-405.5 -145.5z" />
    <glyph glyph-name="uni0442" unicode="&#x442;" horiz-adv-x="1054" 
d="M328 0v801h-301v336h1003v-336h-303v-801h-399z" />
    <glyph glyph-name="uni0443" unicode="&#x443;" horiz-adv-x="1243" 
d="M193 -410l215 523l-422 1024h430l205 -559l200 559h420l-643 -1547h-405z" />
    <glyph glyph-name="uni0444" unicode="&#x444;" horiz-adv-x="1703" 
d="M670 -29q-137 0 -256 49t-200.5 131t-128 191t-46.5 227t46.5 226.5t128 190.5t200.5 130.5t256 48.5v351h364v-351q137 0 256 -48.5t200.5 -130.5t128 -190.5t46.5 -226.5t-46.5 -227t-128 -191t-200.5 -131t-256 -49v-381h-364v381zM416 569q0 -109 71 -178t183 -69
v493q-112 0 -183 -69t-71 -177zM1034 322q112 0 183 69t71 178q0 108 -71 177t-183 69v-493z" />
    <glyph glyph-name="uni0445" unicode="&#x445;" horiz-adv-x="1292" 
d="M10 0l404 571l-412 566h457l200 -277l195 277h432l-418 -568l414 -569h-457l-200 274l-183 -274h-432z" />
    <glyph glyph-name="uni0446" unicode="&#x446;" horiz-adv-x="1372" 
d="M1030 -328v328h-215v117q-114 -146 -303 -146q-209 0 -321.5 131t-112.5 369v666h399v-621q0 -72 45 -120t111 -48q67 0 111 48t44 120v621h400v-809h194v-656h-352z" />
    <glyph glyph-name="uni0447" unicode="&#x447;" horiz-adv-x="1177" 
d="M700 397q-73 -22 -170 -22q-229 0 -362 134t-133 355v273h399v-252q0 -74 39.5 -116t104.5 -42q75 0 122 16v394h400v-1137h-400v397z" />
    <glyph glyph-name="uni0448" unicode="&#x448;" horiz-adv-x="1841" 
d="M453 -27q-169 0 -272 113.5t-103 335.5v715h399v-643q0 -68 33.5 -107t87.5 -39t88.5 39.5t34.5 106.5v643h399v-643q0 -68 33.5 -107t87.5 -39q55 0 90 39t35 107v643h399v-1137h-374v98q-107 -125 -293 -125q-212 0 -312 181q-108 -181 -333 -181z" />
    <glyph glyph-name="uni0449" unicode="&#x449;" horiz-adv-x="1949" 
d="M1606 -328v328h-215v98q-107 -125 -293 -125q-212 0 -312 181q-108 -181 -333 -181q-169 0 -272 113.5t-103 335.5v715h399v-643q0 -68 33.5 -107t87.5 -39t88.5 39.5t34.5 106.5v643h399v-643q0 -68 33.5 -107t87.5 -39q55 0 90 39t35 107v643h399v-809h195v-656h-354z
" />
    <glyph glyph-name="uni044A" unicode="&#x44a;" horiz-adv-x="1280" 
d="M221 0v801h-221v336h621v-369h229q99 0 180 -33t131.5 -87.5t77.5 -122t27 -140.5q0 -74 -27 -142t-77.5 -122.5t-131.5 -87.5t-180 -33h-629zM621 289h161q41 0 69 28t28 68t-28 67t-69 27h-161v-190z" />
    <glyph glyph-name="uni044B" unicode="&#x44b;" horiz-adv-x="1671" 
d="M78 0v1137h399v-369h230q99 0 180 -33t131 -87.5t77 -122t27 -140.5q0 -74 -27 -142t-77 -122.5t-131 -87.5t-180 -33h-629zM477 289h162q41 0 68.5 28t27.5 68t-27.5 67t-68.5 27h-162v-190zM1196 0v1137h399v-1137h-399z" />
    <glyph glyph-name="uni044C" unicode="&#x44c;" horiz-adv-x="1136" 
d="M78 0v1137h399v-369h230q99 0 180 -33t131 -87.5t77 -122t27 -140.5q0 -74 -27 -142t-77 -122.5t-131 -87.5t-180 -33h-629zM477 289h162q41 0 68.5 28t27.5 68t-27.5 67t-68.5 27h-162v-190z" />
    <glyph glyph-name="uni044D" unicode="&#x44d;" horiz-adv-x="1296" 
d="M645 -29q-232 0 -405 145.5t-201 366.5h373q24 -80 84 -131t157 -51q81 0 142 41.5t90 108.5h-369v245h365q-32 64 -91.5 102t-136.5 38q-96 0 -156.5 -51t-84.5 -132h-373q28 222 200.5 367t405.5 145q171 0 312.5 -78.5t222 -215t80.5 -302.5q0 -167 -80.5 -304
t-222 -215.5t-312.5 -78.5z" />
    <glyph glyph-name="uni044E" unicode="&#x44e;" horiz-adv-x="1757" 
d="M1128 -29q-211 0 -360 117t-203 309h-88v-397h-399v1137h399v-404h84q54 195 204 313.5t363 118.5q128 0 238.5 -46t187.5 -125.5t120.5 -189.5t43.5 -235q0 -168 -74 -304t-209.5 -215t-306.5 -79zM942 569q0 -97 51 -156t135 -59q86 0 137.5 59t51.5 156
q0 96 -51.5 154.5t-137.5 58.5q-84 0 -135 -58.5t-51 -154.5z" />
    <glyph glyph-name="uni044F" unicode="&#x44f;" horiz-adv-x="1196" 
d="M211 412q-87 56 -134.5 144.5t-47.5 186.5q0 74 27.5 143.5t78.5 126t132.5 90.5t181.5 34h669v-1137h-399v348h-129l-162 -348h-420zM422 743q0 -42 28 -70t72 -28h197v195h-197q-44 0 -72 -28t-28 -69z" />
    <glyph glyph-name="uni0451" unicode="&#x451;" horiz-adv-x="1298" 
d="M651 -29q-131 0 -245.5 46t-194.5 126t-126 190.5t-46 235.5q0 124 46 234.5t126 190t194.5 125.5t245.5 46q174 0 314 -77.5t218.5 -212.5t78.5 -300q0 -46 -13 -106h-807q20 -77 71 -123.5t134 -46.5q106 0 168 78h418q-67 -185 -218.5 -295.5t-363.5 -110.5zM199 1440
q0 84 60 144.5t144 60.5t143.5 -60.5t59.5 -144.5q0 -85 -59 -145t-144 -60t-144.5 60t-59.5 145zM449 698l405 -2q-22 74 -74.5 117t-128.5 43q-74 0 -126 -42.5t-76 -115.5zM694 1440q0 83 61 144t144 61q84 0 144.5 -60.5t60.5 -144.5q0 -85 -60 -145t-145 -60
q-84 0 -144.5 60.5t-60.5 144.5z" />
    <glyph glyph-name="uni0454" unicode="&#x454;" horiz-adv-x="1296" 
d="M651 -29q-171 0 -312 78.5t-221.5 215.5t-80.5 304q0 166 80.5 302.5t221.5 215t312 78.5q233 0 405.5 -145t200.5 -367h-372q-24 80 -84.5 131.5t-157.5 51.5q-77 0 -136 -38t-91 -102h364v-245h-368q29 -67 89.5 -108.5t141.5 -41.5q97 0 157.5 51t84.5 131h372
q-28 -221 -201 -366.5t-405 -145.5z" />
    <glyph glyph-name="uni0456" unicode="&#x456;" horiz-adv-x="552" 
d="M78 0v1137h399v-1137h-399zM61 1440q0 88 63.5 151.5t151.5 63.5q89 0 152.5 -63.5t63.5 -151.5q0 -89 -63.5 -152t-152.5 -63q-88 0 -151.5 63t-63.5 152z" />
    <glyph glyph-name="uni0457" unicode="&#x457;" horiz-adv-x="552" 
d="M78 0v1137h399v-1137h-399zM-174 1440q0 83 60 144t143 61q84 0 144 -60.5t60 -144.5q0 -85 -59.5 -145t-144.5 -60q-83 0 -143 60t-60 145zM322 1440q0 84 60 144.5t144 60.5t143.5 -60.5t59.5 -144.5q0 -85 -59 -145t-144 -60t-144.5 60t-59.5 145z" />
    <glyph glyph-name="uni045E" unicode="&#x45e;" horiz-adv-x="1243" 
d="M193 -410l215 523l-422 1024h430l205 -559l200 559h420l-643 -1547h-405zM225 1585h267q2 -53 38 -90t97 -37t97 37t38 90h266q-6 -97 -42.5 -170.5t-94 -116t-124 -63.5t-140.5 -21q-73 0 -139.5 21t-124.5 64t-95 116.5t-43 169.5z" />
    <glyph glyph-name="uni0490" unicode="&#x490;" horiz-adv-x="1112" 
d="M113 0v1434h620v204h400v-577h-621v-1061h-399z" />
    <glyph glyph-name="uni0491" unicode="&#x491;" horiz-adv-x="899" 
d="M78 0v1137h420v182h399v-518h-420v-801h-399z" />
    <glyph glyph-name="uni05B0" unicode="&#x5b0;" horiz-adv-x="0" 
d="M123 -498q-35 0 -60.5 25.5t-25.5 60.5q0 34 25.5 59t60.5 25q34 0 59 -25t25 -59q0 -35 -25 -60.5t-59 -25.5zM37 -211q0 34 25.5 59t60.5 25q34 0 59 -25t25 -59q0 -35 -25 -60.5t-59 -25.5q-35 0 -60.5 25.5t-25.5 60.5z" />
    <glyph glyph-name="uni05B1" unicode="&#x5b1;" horiz-adv-x="0" 
d="M670 -498q-35 0 -60.5 25.5t-25.5 60.5q0 34 25.5 59t60.5 25q34 0 59 -25t25 -59q0 -35 -25 -60.5t-59 -25.5zM31 -211q0 34 25.5 59t60.5 25q34 0 59 -25t25 -59q0 -35 -25 -60.5t-59 -25.5q-35 0 -60.5 25.5t-25.5 60.5zM150 -412q0 34 25.5 59t60.5 25q34 0 58.5 -25
t24.5 -59q0 -35 -24.5 -60.5t-58.5 -25.5q-35 0 -60.5 25.5t-25.5 60.5zM268 -211q0 34 25.5 59t60.5 25q34 0 59 -25t25 -59q0 -35 -25 -60.5t-59 -25.5q-35 0 -60.5 25.5t-25.5 60.5zM584 -211q0 34 25.5 59t60.5 25q34 0 59 -25t25 -59q0 -35 -25 -60.5t-59 -25.5
q-35 0 -60.5 25.5t-25.5 60.5z" />
    <glyph glyph-name="uni05B2" unicode="&#x5b2;" horiz-adv-x="0" 
d="M37 -274v116h307v-116h-307zM463 -412q0 34 25.5 59t60.5 25q34 0 59 -25t25 -59q0 -35 -25 -60.5t-59 -25.5q-35 0 -60.5 25.5t-25.5 60.5zM463 -211q0 34 25.5 59t60.5 25q34 0 59 -25t25 -59q0 -35 -25 -60.5t-59 -25.5q-35 0 -60.5 25.5t-25.5 60.5z" />
    <glyph glyph-name="uni05B3" unicode="&#x5b3;" horiz-adv-x="0" 
d="M156 -410l12 136h-131v116h375v-116h-133l10 -136h-133zM530 -412q0 34 25.5 59t60.5 25q34 0 59 -25t25 -59q0 -35 -25 -60.5t-59 -25.5q-35 0 -60.5 25.5t-25.5 60.5zM530 -211q0 34 25.5 59t60.5 25q34 0 59 -25t25 -59q0 -35 -25 -60.5t-59 -25.5q-35 0 -60.5 25.5
t-25.5 60.5z" />
    <glyph glyph-name="uni05B4" unicode="&#x5b4;" horiz-adv-x="0" 
d="M117 -297q-35 0 -60.5 25.5t-25.5 60.5q0 34 25.5 59t60.5 25q34 0 59 -25t25 -59q0 -35 -25 -60.5t-59 -25.5z" />
    <glyph glyph-name="uni05B5" unicode="&#x5b5;" horiz-adv-x="0" 
d="M96 -297q-35 0 -60.5 25.5t-25.5 60.5q0 34 25.5 59t60.5 25q34 0 59 -25t25 -59q0 -35 -25 -60.5t-59 -25.5zM287 -211q0 34 25.5 59t60.5 25q34 0 59 -25t25 -59q0 -35 -25 -60.5t-59 -25.5q-35 0 -60.5 25.5t-25.5 60.5z" />
    <glyph glyph-name="uni05B6" unicode="&#x5b6;" horiz-adv-x="0" 
d="M369 -297q-35 0 -60.5 25.5t-25.5 60.5q0 34 25.5 59t60.5 25q34 0 59 -25t25 -59q0 -35 -25 -60.5t-59 -25.5zM-10 -211q0 34 25.5 59t60.5 25q34 0 59 -25t25 -59q0 -35 -25 -60.5t-59 -25.5q-35 0 -60.5 25.5t-25.5 60.5zM137 -412q0 34 25.5 59t60.5 25q34 0 59 -25
t25 -59q0 -35 -25 -60.5t-59 -25.5q-35 0 -60.5 25.5t-25.5 60.5z" />
    <glyph glyph-name="uni05B7" unicode="&#x5b7;" horiz-adv-x="0" 
d="M57 -274v116h349v-116h-349z" />
    <glyph glyph-name="uni05B8" unicode="&#x5b8;" horiz-adv-x="0" 
d="M156 -410l12 136h-131v116h375v-116h-133l10 -136h-133z" />
    <glyph glyph-name="uni05B9" unicode="&#x5b9;" horiz-adv-x="0" 
d="M117 1094q-35 0 -60.5 25.5t-25.5 60.5q0 34 25.5 59t60.5 25q34 0 59 -25t25 -59q0 -35 -25 -60.5t-59 -25.5z" />
    <glyph glyph-name="uni05BA" unicode="&#x5ba;" horiz-adv-x="0" 
d="M117 1094q-35 0 -60.5 25.5t-25.5 60.5q0 34 25.5 59t60.5 25q34 0 59 -25t25 -59q0 -35 -25 -60.5t-59 -25.5z" />
    <glyph glyph-name="uni05BB" unicode="&#x5bb;" horiz-adv-x="0" 
d="M117 -297q-35 0 -60.5 25.5t-25.5 60.5q0 34 25.5 59t60.5 25q34 0 59 -25t25 -59q0 -35 -25 -60.5t-59 -25.5zM172 -352q0 34 25.5 59t60.5 25q34 0 59 -25t25 -59q0 -35 -25 -60.5t-59 -25.5q-35 0 -60.5 25.5t-25.5 60.5zM313 -494q0 34 25.5 59t60.5 25q34 0 59 -25
t25 -59q0 -35 -25 -60.5t-59 -25.5q-35 0 -60.5 25.5t-25.5 60.5z" />
    <glyph glyph-name="uni05BC" unicode="&#x5bc;" horiz-adv-x="0" 
d="M117 356q-35 0 -60.5 25.5t-25.5 60.5q0 34 25.5 59t60.5 25q34 0 59 -25t25 -59q0 -35 -25 -60.5t-59 -25.5z" />
    <glyph glyph-name="uni05BE" unicode="&#x5be;" horiz-adv-x="958" 
d="M102 829v400h754v-400h-754z" />
    <glyph glyph-name="uni05BF" unicode="&#x5bf;" horiz-adv-x="0" 
d="M426 1128h448v-143h-448v143z" />
    <glyph glyph-name="uni05C1" unicode="&#x5c1;" horiz-adv-x="0" 
d="M117 1094q-35 0 -60.5 25.5t-25.5 60.5q0 34 25.5 59t60.5 25q34 0 59 -25t25 -59q0 -35 -25 -60.5t-59 -25.5z" />
    <glyph glyph-name="uni05C2" unicode="&#x5c2;" horiz-adv-x="0" 
d="M117 1094q-35 0 -60.5 25.5t-25.5 60.5q0 34 25.5 59t60.5 25q34 0 59 -25t25 -59q0 -35 -25 -60.5t-59 -25.5z" />
    <glyph glyph-name="uni05C7" unicode="&#x5c7;" horiz-adv-x="0" 
d="M115 -410l12 136h-70v116h252v-116h-71l10 -136h-133z" />
    <glyph glyph-name="uni05D0" unicode="&#x5d0;" horiz-adv-x="1464" 
d="M578 489q-44 -13 -63 -47t-19 -94v-348h-433v258q0 214 86.5 324t260.5 147l-347 500h490l295 -426q40 15 58 47.5t18 89.5v289h432v-199q0 -212 -85 -321t-255 -146l391 -563h-489z" />
    <glyph glyph-name="uni05D1" unicode="&#x5d1;" horiz-adv-x="1271" 
d="M649 655q0 82 -45.5 128t-122.5 46h-403v400h444q241 0 384 -138t143 -374v-318h147v-399h-1118v399h571v256z" />
    <glyph glyph-name="uni05D2" unicode="&#x5d2;" horiz-adv-x="888" 
d="M438 0l-26 225h-13q-33 -118 -124.5 -180t-217.5 -65v419q61 -3 114.5 4.5t100 26t73.5 54.5t28 85v187q0 73 -56 73h-204v400h329q186 0 258 -77.5t72 -274.5v-519l41 -358h-375z" />
    <glyph glyph-name="uni05D3" unicode="&#x5d3;" horiz-adv-x="1243" 
d="M582 0v829h-521v400h1121v-400h-201v-829h-399z" />
    <glyph glyph-name="uni05D4" unicode="&#x5d4;" horiz-adv-x="1323" 
d="M90 0v600h399v-600h-399zM90 829v400h606q255 0 401 -146.5t146 -402.5v-680h-399v639q0 91 -51 140.5t-140 49.5h-563z" />
    <glyph glyph-name="uni05D5" unicode="&#x5d5;" horiz-adv-x="563" 
d="M82 1229h399v-1229h-399v1229z" />
    <glyph glyph-name="uni05D6" unicode="&#x5d6;" horiz-adv-x="823" 
d="M563 0h-399v471q0 150 48.5 234.5t141.5 123.5h-293v400h701v-400h-45q-86 0 -120 -56t-34 -189v-584z" />
    <glyph glyph-name="uni05D7" unicode="&#x5d7;" horiz-adv-x="1361" 
d="M82 0v1229h651q255 0 401 -146.5t146 -402.5v-680h-399v639q0 91 -51 140.5t-140 49.5h-209v-829h-399z" />
    <glyph glyph-name="uni05D8" unicode="&#x5d8;" horiz-adv-x="1439" 
d="M725 -29q-135 0 -256.5 50t-208 135.5t-137.5 204.5t-51 253v615h401v-615q0 -105 73 -176t179 -71t178 71t72 176q0 113 -54.5 179.5t-160.5 66.5q-61 0 -135 -20v387q67 18 151 18q274 0 442 -176.5t168 -454.5q0 -133 -52.5 -252.5t-141 -205t-210.5 -135.5t-257 -50z
" />
    <glyph glyph-name="uni05D9" unicode="&#x5d9;" horiz-adv-x="563" 
d="M82 1229h399v-731h-399v731z" />
    <glyph glyph-name="uni05DA" unicode="&#x5da;" horiz-adv-x="1107" 
d="M627 -307v866h2v80q0 91 -51 140.5t-140 49.5h-409v400h452q255 0 401 -146.5t146 -402.5v-680h-2v-307h-399z" />
    <glyph glyph-name="uni05DB" unicode="&#x5db;" horiz-adv-x="1167" 
d="M459 -29q-195 0 -389 52v393q211 -49 342 -49q136 0 214.5 68t78.5 179q0 112 -72 180t-205 68q-132 0 -338 -49v395q206 49 383 49q289 0 465 -176.5t176 -466.5q0 -190 -83 -336.5t-232 -226.5t-340 -80z" />
    <glyph glyph-name="uni05DC" unicode="&#x5dc;" horiz-adv-x="1198" 
d="M358 0l306 829h-592v615h399v-215h668v-289l-344 -940h-437z" />
    <glyph glyph-name="uni05DD" unicode="&#x5dd;" horiz-adv-x="1372" 
d="M82 0v1229h661q255 0 401 -146.5t146 -402.5v-680h-1208zM481 399h410v240q0 91 -51 140.5t-140 49.5h-219v-430z" />
    <glyph glyph-name="uni05DE" unicode="&#x5de;" horiz-adv-x="1556" 
d="M53 1229h396l67 -234q58 127 165.5 199t258.5 72q251 0 406 -178t155 -467q0 -279 -171.5 -461.5t-438.5 -182.5q-115 0 -182 15v399q63 -14 141 -14q95 0 158 69t63 175q0 113 -56 179t-153 66q-84 0 -143 -50.5t-80 -153.5l-115 -662h-436l131 688z" />
    <glyph glyph-name="uni05DF" unicode="&#x5df;" horiz-adv-x="563" 
d="M82 1229h399v-1536h-399v1536z" />
    <glyph glyph-name="uni05E0" unicode="&#x5e0;" horiz-adv-x="768" 
d="M78 0v399h209v357q0 73 -56 73h-153v400h278q186 0 258 -77.5t72 -274.5v-877h-608z" />
    <glyph glyph-name="uni05E1" unicode="&#x5e1;" horiz-adv-x="1439" 
d="M721 -39q-192 0 -344.5 84t-238 234t-85.5 337t85.5 336.5t238 233.5t344.5 84q191 0 343 -84t237 -233.5t85 -336.5q0 -140 -50 -262t-137 -208t-211 -135.5t-267 -49.5zM451 616q0 -120 76 -198t194 -78q117 0 192.5 78t75.5 198t-75.5 197.5t-192.5 77.5
q-118 0 -194 -77.5t-76 -197.5z" />
    <glyph glyph-name="uni05E2" unicode="&#x5e2;" horiz-adv-x="1363" 
d="M90 0v399h268l-278 830h418l258 -787q69 35 99 104t30 187v496h399v-504q0 -160 -50 -292t-146.5 -229t-247.5 -150.5t-344 -53.5h-406z" />
    <glyph glyph-name="uni05E3" unicode="&#x5e3;" horiz-adv-x="1345" 
d="M870 643q0 115 -58.5 186.5t-154.5 71.5q-87 0 -144.5 -52.5t-57.5 -133.5q0 -88 49 -142.5t125 -54.5h12v-336h-43q-233 0 -381.5 143t-148.5 369q0 161 76.5 287.5t212 197t305.5 70.5q271 0 439.5 -177.5t168.5 -459.5v-919h-400v950z" />
    <glyph glyph-name="uni05E4" unicode="&#x5e4;" horiz-adv-x="1353" 
d="M567 -35q-124 0 -246.5 14.5t-193.5 40.5v363q82 -25 208.5 -41t227.5 -16q140 0 236 79.5t96 219.5q0 136 -71 214.5t-183 78.5q-77 0 -129.5 -33.5t-52.5 -87.5q0 -41 34.5 -70t81.5 -29h3v-274h-60q-216 0 -340.5 111t-124.5 272q0 195 165.5 327t428.5 132
q141 0 263 -50t207.5 -135.5t134 -203.5t48.5 -252q0 -142 -58.5 -266t-158 -210t-234 -135t-282.5 -49z" />
    <glyph glyph-name="uni05E5" unicode="&#x5e5;" horiz-adv-x="1271" 
d="M616 -307l-604 1536h453l201 -512q69 14 95.5 59t26.5 121v332h414v-332q0 -182 -120 -299.5t-310 -153.5l295 -751h-451z" />
    <glyph glyph-name="uni05E6" unicode="&#x5e6;" horiz-adv-x="1327" 
d="M84 0v399h516l-563 830h479l232 -342q52 20 71 62.5t19 111.5v168h415v-185q0 -161 -88.5 -266.5t-240.5 -150.5l274 -406v-221h-1114z" />
    <glyph glyph-name="uni05E7" unicode="&#x5e7;" horiz-adv-x="1439" 
d="M94 -307v901h400v-901h-400zM82 829v400h1300v-289l-309 -940h-436l272 829h-827z" />
    <glyph glyph-name="uni05E8" unicode="&#x5e8;" horiz-adv-x="1091" 
d="M61 829v400h402q255 0 401 -146.5t146 -402.5v-680h-400v639q0 91 -50.5 140.5t-139.5 49.5h-359z" />
    <glyph glyph-name="uni05E9" unicode="&#x5e9;" horiz-adv-x="1689" 
d="M846 -29q-157 0 -296 50t-243.5 141t-165.5 228.5t-61 301.5v537h399v-387q42 -23 86 -23q37 0 59.5 24t22.5 68v318h402v-268q0 -93 -25 -166t-64.5 -118t-94 -74t-108.5 -40.5t-112 -11.5q-81 0 -147 16q34 -105 127.5 -158t220.5 -53q160 0 263 84t103 246v543h400
v-537q0 -164 -60 -301t-164 -228.5t-243.5 -141.5t-298.5 -50z" />
    <glyph glyph-name="uni05EA" unicode="&#x5ea;" horiz-adv-x="1503" 
d="M59 0v399h168v830h647q255 0 401 -146.5t146 -402.5v-680h-399v639q0 91 -51 140.5t-140 49.5h-204v-829h-568z" />
    <glyph glyph-name="uni05F0" unicode="&#x5f0;" horiz-adv-x="1126" 
d="M645 1229h399v-1229h-399v1229zM82 0v1229h399v-1229h-399z" />
    <glyph glyph-name="uni05F1" unicode="&#x5f1;" horiz-adv-x="1126" 
d="M645 1229h399v-1229h-399v1229zM82 498v731h399v-731h-399z" />
    <glyph glyph-name="uni05F2" unicode="&#x5f2;" horiz-adv-x="1126" 
d="M645 1229h399v-731h-399v731zM82 498v731h399v-731h-399z" />
    <glyph glyph-name="uni05F3" unicode="&#x5f3;" horiz-adv-x="583" 
d="M8 750l96 604h420l-155 -604h-361z" />
    <glyph glyph-name="uni05F4" unicode="&#x5f4;" horiz-adv-x="1071" 
d="M496 748l96 604h420l-156 -604h-360zM8 748l96 604h420l-155 -604h-361z" />
    <glyph glyph-name="uni0E3F" unicode="&#xe3f;" horiz-adv-x="1544" 
d="M483 -205l19 205h-389v1434h512l18 204h318l-19 -204h19q228 0 350.5 -109.5t122.5 -284.5q0 -180 -148 -274q102 -54 155.5 -142.5t53.5 -203.5q0 -87 -32.5 -162.5t-94 -133t-158.5 -91t-217 -33.5h-174l-18 -205h-318zM512 358h453q49 0 85.5 31.5t36.5 79.5
t-36.5 79.5t-85.5 31.5h-453v-222zM512 874h412q52 0 81 29.5t29 73.5q0 42 -29 70t-81 28h-412v-201z" />
    <glyph glyph-name="Wgrave" unicode="&#x1e80;" horiz-adv-x="2115" 
d="M1636 0h-282l-299 829l-301 -829h-283l-483 1434h434l223 -738l264 738h287l268 -738l228 738h426zM688 1925h406l110 -379h-223z" />
    <glyph glyph-name="wgrave" unicode="&#x1e81;" horiz-adv-x="1835" 
d="M285 0l-289 1137h420l143 -740l154 740h403l152 -740l145 740h420l-289 -1137h-481l-150 713l-149 -713h-479zM549 1628h405l111 -379h-223z" />
    <glyph glyph-name="Wacute" unicode="&#x1e82;" horiz-adv-x="2115" 
d="M1636 0h-282l-299 829l-301 -829h-283l-483 1434h434l223 -738l264 738h287l268 -738l228 738h426zM911 1546l111 379h405l-292 -379h-224z" />
    <glyph glyph-name="wacute" unicode="&#x1e83;" horiz-adv-x="1835" 
d="M285 0l-289 1137h420l143 -740l154 740h403l152 -740l145 740h420l-289 -1137h-481l-150 713l-149 -713h-479zM772 1249l111 379h405l-293 -379h-223z" />
    <glyph glyph-name="Wdieresis" unicode="&#x1e84;" horiz-adv-x="2115" 
d="M1636 0h-282l-299 829l-301 -829h-283l-483 1434h434l223 -738l264 738h287l268 -738l228 738h426zM602 1737q0 83 61 144t144 61q84 0 144.5 -60.5t60.5 -144.5q0 -85 -60 -145t-145 -60q-84 0 -144.5 60.5t-60.5 144.5zM1098 1737q0 83 61 144t144 61q84 0 144 -60.5
t60 -144.5q0 -85 -59.5 -145t-144.5 -60q-84 0 -144.5 60.5t-60.5 144.5z" />
    <glyph glyph-name="wdieresis" unicode="&#x1e85;" horiz-adv-x="1835" 
d="M285 0l-289 1137h420l143 -740l154 740h403l152 -740l145 740h420l-289 -1137h-481l-150 713l-149 -713h-479zM463 1440q0 84 60.5 144.5t144.5 60.5t143 -60.5t59 -144.5q0 -85 -59 -145t-143 -60q-85 0 -145 60t-60 145zM958 1440q0 83 61 144t144 61q84 0 144.5 -60.5
t60.5 -144.5q0 -85 -60 -145t-145 -60q-84 0 -144.5 60.5t-60.5 144.5z" />
    <glyph glyph-name="uni1E9E" unicode="&#x1e9e;" horiz-adv-x="1548" 
d="M113 0v1434h1388l-323 -516q147 -40 235 -156t88 -293q0 -97 -31 -177t-82.5 -133t-120.5 -89.5t-143 -53t-151 -16.5h-322v358h322q49 0 86 32t37 81t-37 81t-86 32h-322l267 491h-406v-1075h-399z" />
    <glyph glyph-name="uni1EA0" unicode="&#x1ea0;" horiz-adv-x="1648" 
d="M-12 0l684 1434h307l674 -1434h-445l-84 193h-614l-86 -193h-436zM608 -301q0 88 63.5 151.5t151.5 63.5q89 0 152 -63.5t63 -151.5q0 -89 -63 -152t-152 -63q-88 0 -151.5 63t-63.5 152zM641 483h356l-176 404z" />
    <glyph glyph-name="uni1EA1" unicode="&#x1ea1;" 
d="M553 -29q-149 0 -267 79t-182.5 215t-64.5 304q0 125 38 235t105 189.5t163 125.5t208 46q216 0 336 -166v138h383v-1137h-383v137q-120 -166 -336 -166zM455 569q0 -92 61 -153.5t152 -61.5q92 0 153.5 61.5t61.5 153.5q0 91 -61.5 152t-153.5 61q-91 0 -152 -61
t-61 -152zM481 -301q0 88 63.5 151.5t151.5 63.5q89 0 152 -63.5t63 -151.5q0 -89 -63 -152t-152 -63q-88 0 -151.5 63t-63.5 152z" />
    <glyph glyph-name="uni1EA2" unicode="&#x1ea2;" horiz-adv-x="1648" 
d="M-12 0l684 1434h307l674 -1434h-445l-84 193h-614l-86 -193h-436zM547 1690q0 113 79 184.5t214 71.5q127 0 196.5 -46t69.5 -139q0 -47 -15 -81.5t-37 -52t-44.5 -29.5t-41 -24.5t-22.5 -27.5h-213q0 36 22.5 62.5t49.5 39.5t49.5 31t22.5 39q0 41 -50 41
q-29 0 -44 -18.5t-15 -50.5h-221zM641 483h356l-176 404z" />
    <glyph glyph-name="uni1EA3" unicode="&#x1ea3;" 
d="M553 -29q-149 0 -267 79t-182.5 215t-64.5 304q0 125 38 235t105 189.5t163 125.5t208 46q216 0 336 -166v138h383v-1137h-383v137q-120 -166 -336 -166zM401 1393q0 113 79 184.5t214 71.5q127 0 197 -46t70 -139q0 -47 -15 -81.5t-37 -52t-44.5 -29.5t-41 -24.5
t-22.5 -27.5h-213q0 36 22.5 62.5t49 39.5t49 31t22.5 39q0 41 -49 41q-29 0 -44 -18.5t-15 -50.5h-222zM455 569q0 -92 61 -153.5t152 -61.5q92 0 153.5 61.5t61.5 153.5q0 91 -61.5 152t-153.5 61q-91 0 -152 -61t-61 -152z" />
    <glyph glyph-name="uni1EA4" unicode="&#x1ea4;" horiz-adv-x="1648" 
d="M-12 0l684 1434h307l674 -1434h-445l-84 193h-614l-86 -193h-436zM471 1516v270l352 158l355 -158v-270l-355 159zM641 483h356l-176 404zM954 1905l111 379h405l-292 -379h-224z" />
    <glyph glyph-name="uni1EA5" unicode="&#x1ea5;" 
d="M553 -29q-149 0 -267 79t-182.5 215t-64.5 304q0 125 38 235t105 189.5t163 125.5t208 46q216 0 336 -166v138h383v-1137h-383v137q-120 -166 -336 -166zM324 1219v270l352 158l354 -158v-270l-354 159zM455 569q0 -92 61 -153.5t152 -61.5q92 0 153.5 61.5t61.5 153.5
q0 91 -61.5 152t-153.5 61q-91 0 -152 -61t-61 -152zM807 1608l111 379h405l-293 -379h-223z" />
    <glyph glyph-name="uni1EA6" unicode="&#x1ea6;" horiz-adv-x="1648" 
d="M-12 0l684 1434h307l674 -1434h-445l-84 193h-614l-86 -193h-436zM471 1516v270l352 158l355 -158v-270l-355 159zM641 483h356l-176 404zM729 2284h406l110 -379h-223z" />
    <glyph glyph-name="uni1EA7" unicode="&#x1ea7;" 
d="M553 -29q-149 0 -267 79t-182.5 215t-64.5 304q0 125 38 235t105 189.5t163 125.5t208 46q216 0 336 -166v138h383v-1137h-383v137q-120 -166 -336 -166zM324 1219v270l352 158l354 -158v-270l-354 159zM455 569q0 -92 61 -153.5t152 -61.5q92 0 153.5 61.5t61.5 153.5
q0 91 -61.5 152t-153.5 61q-91 0 -152 -61t-61 -152zM584 1987h405l111 -379h-223z" />
    <glyph glyph-name="uni1EA8" unicode="&#x1ea8;" horiz-adv-x="1648" 
d="M-12 0l684 1434h307l674 -1434h-445l-84 193h-614l-86 -193h-436zM471 1516v270l352 158l355 -158v-270l-355 159zM641 483h356l-176 404zM819 2048q0 113 79 184.5t214 71.5q127 0 196.5 -45.5t69.5 -138.5q0 -47 -15 -81.5t-37 -52t-44 -29.5t-40.5 -24.5t-22.5 -27.5
h-213q0 36 22.5 62.5t49 39.5t49 31t22.5 39q0 41 -49 41q-29 0 -44.5 -19t-15.5 -51h-221z" />
    <glyph glyph-name="uni1EA9" unicode="&#x1ea9;" 
d="M553 -29q-149 0 -267 79t-182.5 215t-64.5 304q0 125 38 235t105 189.5t163 125.5t208 46q216 0 336 -166v138h383v-1137h-383v137q-120 -166 -336 -166zM324 1219v270l352 158l354 -158v-270l-354 159zM455 569q0 -92 61 -153.5t152 -61.5q92 0 153.5 61.5t61.5 153.5
q0 91 -61.5 152t-153.5 61q-91 0 -152 -61t-61 -152zM672 1751q0 113 79 184.5t214 71.5q127 0 196.5 -45.5t69.5 -138.5q0 -47 -15 -81.5t-37 -52t-44.5 -29.5t-41 -24.5t-22.5 -27.5h-213q0 36 22.5 62.5t49 39.5t49 31t22.5 39q0 41 -49 41q-28 0 -43.5 -19t-15.5 -51
h-221z" />
    <glyph glyph-name="uni1EAA" unicode="&#x1eaa;" horiz-adv-x="1648" 
d="M-12 0l684 1434h307l674 -1434h-445l-84 193h-614l-86 -193h-436zM412 1948q7 153 83 237t205 84q56 0 101 -21t76.5 -42t54.5 -21q35 0 54 20.5t22 53.5h249q-8 -147 -82 -234.5t-200 -87.5q-56 0 -101.5 21t-78 42t-56.5 21q-68 0 -75 -73h-252zM471 1516v270l352 158
l355 -158v-270l-355 159zM641 483h356l-176 404z" />
    <glyph glyph-name="uni1EAB" unicode="&#x1eab;" 
d="M553 -29q-149 0 -267 79t-182.5 215t-64.5 304q0 125 38 235t105 189.5t163 125.5t208 46q216 0 336 -166v138h383v-1137h-383v137q-120 -166 -336 -166zM264 1651q7 153 83.5 237t205.5 84q44 0 82 -13t60 -29t46 -29t43 -13q35 0 54 20.5t22 53.5h250
q-8 -147 -82.5 -234.5t-200.5 -87.5q-44 0 -82.5 13t-61 29t-47 29t-44.5 13q-35 0 -54 -20t-22 -53h-252zM324 1219v270l352 158l354 -158v-270l-354 159zM455 569q0 -92 61 -153.5t152 -61.5q92 0 153.5 61.5t61.5 153.5q0 91 -61.5 152t-153.5 61q-91 0 -152 -61
t-61 -152z" />
    <glyph glyph-name="uni1EAC" unicode="&#x1eac;" horiz-adv-x="1648" 
d="M-12 0l684 1434h307l674 -1434h-445l-84 193h-614l-86 -193h-436zM471 1516v270l352 158l355 -158v-270l-355 159zM608 -301q0 88 63.5 151.5t151.5 63.5q89 0 152 -63.5t63 -151.5q0 -89 -63 -152t-152 -63q-88 0 -151.5 63t-63.5 152zM641 483h356l-176 404z" />
    <glyph glyph-name="uni1EAD" unicode="&#x1ead;" 
d="M553 -29q-149 0 -267 79t-182.5 215t-64.5 304q0 125 38 235t105 189.5t163 125.5t208 46q216 0 336 -166v138h383v-1137h-383v137q-120 -166 -336 -166zM324 1219v270l352 158l354 -158v-270l-354 159zM455 569q0 -92 61 -153.5t152 -61.5q92 0 153.5 61.5t61.5 153.5
q0 91 -61.5 152t-153.5 61q-91 0 -152 -61t-61 -152zM481 -301q0 88 63.5 151.5t151.5 63.5q89 0 152 -63.5t63 -151.5q0 -89 -63 -152t-152 -63q-88 0 -151.5 63t-63.5 152z" />
    <glyph glyph-name="uni1EAE" unicode="&#x1eae;" horiz-adv-x="1648" 
d="M-12 0l684 1434h307l674 -1434h-445l-84 193h-614l-86 -193h-436zM430 1882h266q2 -53 38 -90t97 -37t97.5 37t38.5 90h266q-6 -97 -42.5 -170.5t-94.5 -116t-124.5 -63.5t-140.5 -21q-73 0 -139.5 21t-124 64t-94.5 116.5t-43 169.5zM641 483h356l-176 404zM690 1905
l111 379h405l-293 -379h-223z" />
    <glyph glyph-name="uni1EAF" unicode="&#x1eaf;" 
d="M553 -29q-149 0 -267 79t-182.5 215t-64.5 304q0 125 38 235t105 189.5t163 125.5t208 46q216 0 336 -166v138h383v-1137h-383v137q-120 -166 -336 -166zM283 1585h266q2 -53 38 -90t97 -37t97 37t38 90h266q-6 -97 -42.5 -170.5t-94 -116t-124 -63.5t-140.5 -21
q-73 0 -139.5 21t-124 64t-94.5 116.5t-43 169.5zM455 569q0 -92 61 -153.5t152 -61.5q92 0 153.5 61.5t61.5 153.5q0 91 -61.5 152t-153.5 61q-91 0 -152 -61t-61 -152zM543 1608l110 379h406l-293 -379h-223z" />
    <glyph glyph-name="uni1EB0" unicode="&#x1eb0;" horiz-adv-x="1648" 
d="M-12 0l684 1434h307l674 -1434h-445l-84 193h-614l-86 -193h-436zM422 1882h266q2 -53 38 -90t97 -37t97 37t38 90h267q-6 -97 -42.5 -170.5t-94.5 -116t-124.5 -63.5t-140.5 -21q-73 0 -139.5 21t-124 64t-94.5 116.5t-43 169.5zM459 2284h405l111 -379h-223zM641 483
h356l-176 404z" />
    <glyph glyph-name="uni1EB1" unicode="&#x1eb1;" 
d="M553 -29q-149 0 -267 79t-182.5 215t-64.5 304q0 125 38 235t105 189.5t163 125.5t208 46q216 0 336 -166v138h383v-1137h-383v137q-120 -166 -336 -166zM274 1585h267q2 -53 38 -90t97 -37t97 37t38 90h266q-6 -97 -42.5 -170.5t-94 -116t-124 -63.5t-140.5 -21
q-73 0 -139.5 21t-124.5 64t-95 116.5t-43 169.5zM311 1987h406l110 -379h-223zM455 569q0 -92 61 -153.5t152 -61.5q92 0 153.5 61.5t61.5 153.5q0 91 -61.5 152t-153.5 61q-91 0 -152 -61t-61 -152z" />
    <glyph glyph-name="uni1EB2" unicode="&#x1eb2;" horiz-adv-x="1648" 
d="M-12 0l684 1434h307l674 -1434h-445l-84 193h-614l-86 -193h-436zM422 1882h266q2 -53 38 -90t97 -37t97 37t38 90h267q-6 -97 -42.5 -170.5t-94.5 -116t-124.5 -63.5t-140.5 -21q-73 0 -139.5 21t-124 64t-94.5 116.5t-43 169.5zM547 2048q0 113 79 184.5t214 71.5
q127 0 196.5 -45.5t69.5 -138.5q0 -47 -15 -81.5t-37 -52t-44.5 -29.5t-41 -24.5t-22.5 -27.5h-213q0 36 22.5 62.5t49.5 39.5t49.5 31t22.5 39q0 41 -50 41q-28 0 -43.5 -19t-15.5 -51h-221zM641 483h356l-176 404z" />
    <glyph glyph-name="uni1EB3" unicode="&#x1eb3;" 
d="M553 -29q-149 0 -267 79t-182.5 215t-64.5 304q0 125 38 235t105 189.5t163 125.5t208 46q216 0 336 -166v138h383v-1137h-383v137q-120 -166 -336 -166zM274 1585h267q2 -53 38 -90t97 -37t97 37t38 90h266q-6 -97 -42.5 -170.5t-94 -116t-124 -63.5t-140.5 -21
q-73 0 -139.5 21t-124.5 64t-95 116.5t-43 169.5zM401 1751q0 113 79 184.5t214 71.5q127 0 197 -45.5t70 -138.5q0 -47 -15 -81.5t-37 -52t-44.5 -29.5t-41 -24.5t-22.5 -27.5h-213q0 36 22.5 62.5t49 39.5t49 31t22.5 39q0 41 -49 41q-28 0 -43.5 -19t-15.5 -51h-222z
M455 569q0 -92 61 -153.5t152 -61.5q92 0 153.5 61.5t61.5 153.5q0 91 -61.5 152t-153.5 61q-91 0 -152 -61t-61 -152z" />
    <glyph glyph-name="uni1EB4" unicode="&#x1eb4;" horiz-adv-x="1648" 
d="M-12 0l684 1434h307l674 -1434h-445l-84 193h-614l-86 -193h-436zM401 1942q7 153 83.5 237t205.5 84q56 0 101 -21t76.5 -42t54.5 -21q35 0 53.5 20.5t21.5 53.5h250q-8 -147 -82 -234.5t-200 -87.5q-56 0 -101.5 21t-78 42t-56.5 21q-35 0 -54 -20t-22 -53h-252z
M422 1882h266q2 -53 38 -90t97 -37t97 37t38 90h267q-6 -97 -42.5 -170.5t-94.5 -116t-124.5 -63.5t-140.5 -21q-73 0 -139.5 21t-124 64t-94.5 116.5t-43 169.5zM641 483h356l-176 404z" />
    <glyph glyph-name="uni1EB5" unicode="&#x1eb5;" 
d="M553 -29q-149 0 -267 79t-182.5 215t-64.5 304q0 125 38 235t105 189.5t163 125.5t208 46q216 0 336 -166v138h383v-1137h-383v137q-120 -166 -336 -166zM254 1645q7 153 83.5 237t205.5 84q44 0 82 -13t60 -29t46 -29t43 -13q35 0 54 20.5t22 53.5h250
q-8 -147 -82.5 -234.5t-200.5 -87.5q-44 0 -82.5 13t-61 29t-47 29t-44.5 13q-35 0 -54 -20t-22 -53h-252zM274 1585h267q2 -53 38 -90t97 -37t97 37t38 90h266q-6 -97 -42.5 -170.5t-94 -116t-124 -63.5t-140.5 -21q-73 0 -139.5 21t-124.5 64t-95 116.5t-43 169.5z
M455 569q0 -92 61 -153.5t152 -61.5q92 0 153.5 61.5t61.5 153.5q0 91 -61.5 152t-153.5 61q-91 0 -152 -61t-61 -152z" />
    <glyph glyph-name="uni1EB6" unicode="&#x1eb6;" horiz-adv-x="1648" 
d="M-12 0l684 1434h307l674 -1434h-445l-84 193h-614l-86 -193h-436zM422 1882h266q2 -53 38 -90t97 -37t97 37t38 90h267q-6 -97 -42.5 -170.5t-94.5 -116t-124.5 -63.5t-140.5 -21q-73 0 -139.5 21t-124 64t-94.5 116.5t-43 169.5zM608 -301q0 88 63.5 151.5t151.5 63.5
q89 0 152 -63.5t63 -151.5q0 -89 -63 -152t-152 -63q-88 0 -151.5 63t-63.5 152zM641 483h356l-176 404z" />
    <glyph glyph-name="uni1EB7" unicode="&#x1eb7;" 
d="M553 -29q-149 0 -267 79t-182.5 215t-64.5 304q0 125 38 235t105 189.5t163 125.5t208 46q216 0 336 -166v138h383v-1137h-383v137q-120 -166 -336 -166zM274 1585h267q2 -53 38 -90t97 -37t97 37t38 90h266q-6 -97 -42.5 -170.5t-94 -116t-124 -63.5t-140.5 -21
q-73 0 -139.5 21t-124.5 64t-95 116.5t-43 169.5zM455 569q0 -92 61 -153.5t152 -61.5q92 0 153.5 61.5t61.5 153.5q0 91 -61.5 152t-153.5 61q-91 0 -152 -61t-61 -152zM481 -301q0 88 63.5 151.5t151.5 63.5q89 0 152 -63.5t63 -151.5q0 -89 -63 -152t-152 -63
q-88 0 -151.5 63t-63.5 152z" />
    <glyph glyph-name="uni1EB8" unicode="&#x1eb8;" horiz-adv-x="1382" 
d="M113 0v1434h1183v-359h-784v-186h723v-328h-723v-203h805v-358h-1204zM551 -301q0 88 63.5 151.5t151.5 63.5q89 0 152 -63.5t63 -151.5q0 -89 -63 -152t-152 -63q-88 0 -151.5 63t-63.5 152z" />
    <glyph glyph-name="uni1EB9" unicode="&#x1eb9;" horiz-adv-x="1298" 
d="M651 -29q-131 0 -245.5 46t-194.5 126t-126 190.5t-46 235.5q0 124 46 234.5t126 190t194.5 125.5t245.5 46q174 0 314 -77.5t218.5 -212.5t78.5 -300q0 -46 -13 -106h-807q20 -77 71 -123.5t134 -46.5q106 0 168 78h418q-67 -185 -218.5 -295.5t-363.5 -110.5zM434 -301
q0 88 63.5 151.5t151.5 63.5q89 0 152 -63.5t63 -151.5q0 -89 -63 -152t-152 -63q-88 0 -151.5 63t-63.5 152zM449 698l405 -2q-22 74 -74.5 117t-128.5 43q-74 0 -126 -42.5t-76 -115.5z" />
    <glyph glyph-name="uni1EBA" unicode="&#x1eba;" horiz-adv-x="1382" 
d="M113 0v1434h1183v-359h-784v-186h723v-328h-723v-203h805v-358h-1204zM459 1690q0 113 79 184.5t214 71.5q127 0 196.5 -46t69.5 -139q0 -47 -15 -81.5t-37 -52t-44.5 -29.5t-41 -24.5t-22.5 -27.5h-213q0 36 22.5 62.5t49 39.5t49 31t22.5 39q0 41 -49 41
q-29 0 -44 -18.5t-15 -50.5h-221z" />
    <glyph glyph-name="uni1EBB" unicode="&#x1ebb;" horiz-adv-x="1298" 
d="M651 -29q-131 0 -245.5 46t-194.5 126t-126 190.5t-46 235.5q0 124 46 234.5t126 190t194.5 125.5t245.5 46q174 0 314 -77.5t218.5 -212.5t78.5 -300q0 -46 -13 -106h-807q20 -77 71 -123.5t134 -46.5q106 0 168 78h418q-67 -185 -218.5 -295.5t-363.5 -110.5zM375 1393
q0 113 79 184.5t214 71.5q127 0 196.5 -46t69.5 -139q0 -47 -15 -81.5t-37 -52t-44.5 -29.5t-41 -24.5t-22.5 -27.5h-213q0 36 22.5 62.5t49.5 39.5t49.5 31t22.5 39q0 41 -50 41q-29 0 -44 -18.5t-15 -50.5h-221zM449 698l405 -2q-22 74 -74.5 117t-128.5 43
q-74 0 -126 -42.5t-76 -115.5z" />
    <glyph glyph-name="uni1EBC" unicode="&#x1ebc;" horiz-adv-x="1382" 
d="M113 0v1434h1183v-359h-784v-186h723v-328h-723v-203h805v-358h-1204zM313 1583q7 153 83.5 237.5t205.5 84.5q56 0 101 -21t76.5 -42t54.5 -21q68 0 75 73h250q-8 -147 -82 -234t-200 -87q-56 0 -101.5 21t-78 42t-56.5 21q-35 0 -54 -20.5t-22 -53.5h-252z" />
    <glyph glyph-name="uni1EBD" unicode="&#x1ebd;" horiz-adv-x="1298" 
d="M651 -29q-131 0 -245.5 46t-194.5 126t-126 190.5t-46 235.5q0 124 46 234.5t126 190t194.5 125.5t245.5 46q174 0 314 -77.5t218.5 -212.5t78.5 -300q0 -46 -13 -106h-807q20 -77 71 -123.5t134 -46.5q106 0 168 78h418q-67 -185 -218.5 -295.5t-363.5 -110.5zM227 1286
q7 153 83.5 237.5t205.5 84.5q56 0 101 -21t76.5 -42t54.5 -21q68 0 75 73h250q-8 -147 -82 -234t-200 -87q-56 0 -101.5 21t-78 42t-56.5 21q-35 0 -54 -20.5t-22 -53.5h-252zM449 698l405 -2q-22 74 -74.5 117t-128.5 43q-74 0 -126 -42.5t-76 -115.5z" />
    <glyph glyph-name="uni1EBE" unicode="&#x1ebe;" horiz-adv-x="1382" 
d="M113 0v1434h1183v-359h-784v-186h723v-328h-723v-203h805v-358h-1204zM383 1516v270l352 158l355 -158v-270l-355 159zM866 1905l111 379h405l-292 -379h-224z" />
    <glyph glyph-name="uni1EBF" unicode="&#x1ebf;" horiz-adv-x="1298" 
d="M651 -29q-131 0 -245.5 46t-194.5 126t-126 190.5t-46 235.5q0 124 46 234.5t126 190t194.5 125.5t245.5 46q174 0 314 -77.5t218.5 -212.5t78.5 -300q0 -46 -13 -106h-807q20 -77 71 -123.5t134 -46.5q106 0 168 78h418q-67 -185 -218.5 -295.5t-363.5 -110.5zM297 1219
v270l352 158l355 -158v-270l-355 159zM449 698l405 -2q-22 74 -74.5 117t-128.5 43q-74 0 -126 -42.5t-76 -115.5zM780 1608l111 379h405l-292 -379h-224z" />
    <glyph glyph-name="uni1EC0" unicode="&#x1ec0;" horiz-adv-x="1382" 
d="M113 0v1434h1183v-359h-784v-186h723v-328h-723v-203h805v-358h-1204zM383 1516v270l352 158l355 -158v-270l-355 159zM641 2284h406l110 -379h-223z" />
    <glyph glyph-name="uni1EC1" unicode="&#x1ec1;" horiz-adv-x="1298" 
d="M651 -29q-131 0 -245.5 46t-194.5 126t-126 190.5t-46 235.5q0 124 46 234.5t126 190t194.5 125.5t245.5 46q174 0 314 -77.5t218.5 -212.5t78.5 -300q0 -46 -13 -106h-807q20 -77 71 -123.5t134 -46.5q106 0 168 78h418q-67 -185 -218.5 -295.5t-363.5 -110.5zM297 1219
v270l352 158l355 -158v-270l-355 159zM449 698l405 -2q-22 74 -74.5 117t-128.5 43q-74 0 -126 -42.5t-76 -115.5zM557 1987h406l110 -379h-223z" />
    <glyph glyph-name="uni1EC2" unicode="&#x1ec2;" horiz-adv-x="1382" 
d="M113 0v1434h1183v-359h-784v-186h723v-328h-723v-203h805v-358h-1204zM383 1516v270l352 158l355 -158v-270l-355 159zM731 2048q0 113 79 184.5t214 71.5q127 0 196.5 -45.5t69.5 -138.5q0 -47 -15 -81.5t-37 -52t-44.5 -29.5t-41 -24.5t-22.5 -27.5h-212
q0 36 22.5 62.5t49 39.5t49 31t22.5 39q0 41 -49 41q-29 0 -44.5 -19t-15.5 -51h-221z" />
    <glyph glyph-name="uni1EC3" unicode="&#x1ec3;" horiz-adv-x="1298" 
d="M651 -29q-131 0 -245.5 46t-194.5 126t-126 190.5t-46 235.5q0 124 46 234.5t126 190t194.5 125.5t245.5 46q174 0 314 -77.5t218.5 -212.5t78.5 -300q0 -46 -13 -106h-807q20 -77 71 -123.5t134 -46.5q106 0 168 78h418q-67 -185 -218.5 -295.5t-363.5 -110.5zM297 1219
v270l352 158l355 -158v-270l-355 159zM449 698l405 -2q-22 74 -74.5 117t-128.5 43q-74 0 -126 -42.5t-76 -115.5zM645 1751q0 113 79 184.5t214 71.5q127 0 196.5 -45.5t69.5 -138.5q0 -47 -15 -81.5t-37 -52t-44.5 -29.5t-41 -24.5t-22.5 -27.5h-213q0 36 22.5 62.5
t49.5 39.5t49.5 31t22.5 39q0 41 -49 41q-29 0 -44.5 -19t-15.5 -51h-221z" />
    <glyph glyph-name="uni1EC4" unicode="&#x1ec4;" horiz-adv-x="1382" 
d="M113 0v1434h1183v-359h-784v-186h723v-328h-723v-203h805v-358h-1204zM324 1948q7 153 83 237t205 84q56 0 101 -21t76.5 -42t54.5 -21q35 0 54 20.5t22 53.5h249q-8 -147 -82 -234.5t-200 -87.5q-56 0 -101.5 21t-78 42t-56.5 21q-35 0 -54 -20t-22 -53h-251zM383 1516
v270l352 158l355 -158v-270l-355 159z" />
    <glyph glyph-name="uni1EC5" unicode="&#x1ec5;" horiz-adv-x="1298" 
d="M651 -29q-131 0 -245.5 46t-194.5 126t-126 190.5t-46 235.5q0 124 46 234.5t126 190t194.5 125.5t245.5 46q174 0 314 -77.5t218.5 -212.5t78.5 -300q0 -46 -13 -106h-807q20 -77 71 -123.5t134 -46.5q106 0 168 78h418q-67 -185 -218.5 -295.5t-363.5 -110.5zM238 1651
q7 153 83 237t205 84q56 0 101 -21t76.5 -42t54.5 -21q35 0 54 20.5t22 53.5h249q-8 -147 -82 -234.5t-200 -87.5q-56 0 -101.5 21t-78 42t-56.5 21q-35 0 -54 -20t-22 -53h-251zM297 1219v270l352 158l355 -158v-270l-355 159zM449 698l405 -2q-22 74 -74.5 117t-128.5 43
q-74 0 -126 -42.5t-76 -115.5z" />
    <glyph glyph-name="uni1EC6" unicode="&#x1ec6;" horiz-adv-x="1382" 
d="M113 0v1434h1183v-359h-784v-186h723v-328h-723v-203h805v-358h-1204zM383 1516v270l352 158l355 -158v-270l-355 159zM551 -301q0 88 63.5 151.5t151.5 63.5q89 0 152 -63.5t63 -151.5q0 -89 -63 -152t-152 -63q-88 0 -151.5 63t-63.5 152z" />
    <glyph glyph-name="uni1EC7" unicode="&#x1ec7;" horiz-adv-x="1298" 
d="M651 -29q-131 0 -245.5 46t-194.5 126t-126 190.5t-46 235.5q0 124 46 234.5t126 190t194.5 125.5t245.5 46q174 0 314 -77.5t218.5 -212.5t78.5 -300q0 -46 -13 -106h-807q20 -77 71 -123.5t134 -46.5q106 0 168 78h418q-67 -185 -218.5 -295.5t-363.5 -110.5zM297 1219
v270l352 158l355 -158v-270l-355 159zM434 -301q0 88 63.5 151.5t151.5 63.5q89 0 152 -63.5t63 -151.5q0 -89 -63 -152t-152 -63q-88 0 -151.5 63t-63.5 152zM449 698l405 -2q-22 74 -74.5 117t-128.5 43q-74 0 -126 -42.5t-76 -115.5z" />
    <glyph glyph-name="uni1EC8" unicode="&#x1ec8;" horiz-adv-x="624" 
d="M113 0v1434h399v-1434h-399zM37 1690q0 113 79 184.5t214 71.5q127 0 196.5 -46t69.5 -139q0 -47 -15 -81.5t-37 -52t-44.5 -29.5t-41 -24.5t-22.5 -27.5h-213q0 36 22.5 62.5t49.5 39.5t49.5 31t22.5 39q0 41 -50 41q-29 0 -44 -18.5t-15 -50.5h-221z" />
    <glyph glyph-name="uni1EC9" unicode="&#x1ec9;" horiz-adv-x="552" 
d="M78 0v1137h399v-1137h-399zM0 1393q0 113 79 184.5t214 71.5q127 0 196.5 -46t69.5 -139q0 -47 -15 -81.5t-37 -52t-44.5 -29.5t-41 -24.5t-22.5 -27.5h-213q0 36 22.5 62.5t49.5 39.5t49.5 31t22.5 39q0 41 -49 41q-29 0 -44.5 -19t-15.5 -50h-221z" />
    <glyph glyph-name="uni1ECA" unicode="&#x1eca;" horiz-adv-x="624" 
d="M113 0v1434h399v-1434h-399zM98 -301q0 88 63.5 151.5t151.5 63.5q89 0 152 -63.5t63 -151.5q0 -89 -63 -152t-152 -63q-88 0 -151.5 63t-63.5 152z" />
    <glyph glyph-name="uni1ECB" unicode="&#x1ecb;" horiz-adv-x="552" 
d="M78 0v1137h399v-1137h-399zM61 -301q0 88 63.5 151.5t151.5 63.5q89 0 152.5 -63.5t63.5 -151.5q0 -89 -63.5 -152t-152.5 -63q-88 0 -151.5 63t-63.5 152zM61 1440q0 88 63.5 151.5t151.5 63.5q89 0 152.5 -63.5t63.5 -151.5q0 -89 -63.5 -152t-152.5 -63
q-88 0 -151.5 63t-63.5 152z" />
    <glyph glyph-name="uni1ECC" unicode="&#x1ecc;" horiz-adv-x="1611" 
d="M807 -29q-158 0 -298.5 58.5t-241.5 158.5t-159.5 238t-58.5 291q0 204 99.5 375t274 270.5t384.5 99.5q209 0 383 -99.5t273.5 -270.5t99.5 -375t-99.5 -375.5t-273.5 -271t-383 -99.5zM465 717q0 -150 99.5 -248t242.5 -98t241.5 98t98.5 248t-98.5 248t-241.5 98
t-242.5 -98t-99.5 -248zM592 -301q0 88 63.5 151.5t151.5 63.5q89 0 152 -63.5t63 -151.5q0 -89 -63 -152t-152 -63q-88 0 -151.5 63t-63.5 152z" />
    <glyph glyph-name="uni1ECD" unicode="&#x1ecd;" horiz-adv-x="1306" 
d="M653 -29q-168 0 -309 78.5t-223 216t-82 303.5q0 165 82 302t223 215.5t309 78.5t309 -78t223.5 -215.5t82.5 -302.5q0 -166 -82.5 -303.5t-223.5 -216t-309 -78.5zM438 -301q0 88 63.5 151.5t151.5 63.5q89 0 152 -63.5t63 -151.5q0 -89 -63 -152t-152 -63
q-88 0 -151.5 63t-63.5 152zM440 569q0 -91 61 -153t152 -62t152 62t61 153t-61 152t-152 61t-152 -61t-61 -152z" />
    <glyph glyph-name="uni1ECE" unicode="&#x1ece;" horiz-adv-x="1611" 
d="M807 -29q-158 0 -298.5 58.5t-241.5 158.5t-159.5 238t-58.5 291q0 204 99.5 375t274 270.5t384.5 99.5q209 0 383 -99.5t273.5 -270.5t99.5 -375t-99.5 -375.5t-273.5 -271t-383 -99.5zM465 717q0 -150 99.5 -248t242.5 -98t241.5 98t98.5 248t-98.5 248t-241.5 98
t-242.5 -98t-99.5 -248zM530 1690q0 113 79 184.5t214 71.5q127 0 197 -46t70 -139q0 -47 -15 -81.5t-37 -52t-44.5 -29.5t-41 -24.5t-22.5 -27.5h-213q0 36 22.5 62.5t49 39.5t49 31t22.5 39q0 41 -49 41q-29 0 -44 -18.5t-15 -50.5h-222z" />
    <glyph glyph-name="uni1ECF" unicode="&#x1ecf;" horiz-adv-x="1306" 
d="M653 -29q-168 0 -309 78.5t-223 216t-82 303.5q0 165 82 302t223 215.5t309 78.5t309 -78t223.5 -215.5t82.5 -302.5q0 -166 -82.5 -303.5t-223.5 -216t-309 -78.5zM377 1393q0 113 79 184.5t214 71.5q127 0 196.5 -46t69.5 -139q0 -47 -15 -81.5t-37 -52t-44.5 -29.5
t-41 -24.5t-22.5 -27.5h-213q0 36 22.5 62.5t49.5 39.5t49.5 31t22.5 39q0 41 -50 41q-29 0 -44 -18.5t-15 -50.5h-221zM440 569q0 -91 61 -153t152 -62t152 62t61 153t-61 152t-152 61t-152 -61t-61 -152z" />
    <glyph glyph-name="uni1ED0" unicode="&#x1ed0;" horiz-adv-x="1611" 
d="M807 -29q-158 0 -298.5 58.5t-241.5 158.5t-159.5 238t-58.5 291q0 204 99.5 375t274 270.5t384.5 99.5q209 0 383 -99.5t273.5 -270.5t99.5 -375t-99.5 -375.5t-273.5 -271t-383 -99.5zM455 1516v270l352 158l354 -158v-270l-354 159zM465 717q0 -150 99.5 -248
t242.5 -98t241.5 98t98.5 248t-98.5 248t-241.5 98t-242.5 -98t-99.5 -248zM936 1905l111 379h405l-293 -379h-223z" />
    <glyph glyph-name="uni1ED1" unicode="&#x1ed1;" horiz-adv-x="1306" 
d="M653 -29q-168 0 -309 78.5t-223 216t-82 303.5q0 165 82 302t223 215.5t309 78.5t309 -78t223.5 -215.5t82.5 -302.5q0 -166 -82.5 -303.5t-223.5 -216t-309 -78.5zM301 1219v270l352 158l355 -158v-270l-355 159zM440 569q0 -91 61 -153t152 -62t152 62t61 153t-61 152
t-152 61t-152 -61t-61 -152zM782 1608l111 379h405l-292 -379h-224z" />
    <glyph glyph-name="uni1ED2" unicode="&#x1ed2;" horiz-adv-x="1611" 
d="M807 -29q-158 0 -298.5 58.5t-241.5 158.5t-159.5 238t-58.5 291q0 204 99.5 375t274 270.5t384.5 99.5q209 0 383 -99.5t273.5 -270.5t99.5 -375t-99.5 -375.5t-273.5 -271t-383 -99.5zM455 1516v270l352 158l354 -158v-270l-354 159zM465 717q0 -150 99.5 -248
t242.5 -98t241.5 98t98.5 248t-98.5 248t-241.5 98t-242.5 -98t-99.5 -248zM713 2284h405l111 -379h-223z" />
    <glyph glyph-name="uni1ED3" unicode="&#x1ed3;" horiz-adv-x="1306" 
d="M653 -29q-168 0 -309 78.5t-223 216t-82 303.5q0 165 82 302t223 215.5t309 78.5t309 -78t223.5 -215.5t82.5 -302.5q0 -166 -82.5 -303.5t-223.5 -216t-309 -78.5zM301 1219v270l352 158l355 -158v-270l-355 159zM440 569q0 -91 61 -153t152 -62t152 62t61 153t-61 152
t-152 61t-152 -61t-61 -152zM559 1987h406l110 -379h-223z" />
    <glyph glyph-name="uni1ED4" unicode="&#x1ed4;" horiz-adv-x="1611" 
d="M807 -29q-158 0 -298.5 58.5t-241.5 158.5t-159.5 238t-58.5 291q0 204 99.5 375t274 270.5t384.5 99.5q209 0 383 -99.5t273.5 -270.5t99.5 -375t-99.5 -375.5t-273.5 -271t-383 -99.5zM455 1516v270l352 158l354 -158v-270l-354 159zM465 717q0 -150 99.5 -248
t242.5 -98t241.5 98t98.5 248t-98.5 248t-241.5 98t-242.5 -98t-99.5 -248zM801 2048q0 113 79 184.5t214 71.5q127 0 196.5 -45.5t69.5 -138.5q0 -47 -15 -81.5t-37 -52t-44.5 -29.5t-41 -24.5t-22.5 -27.5h-213q0 36 22.5 62.5t49 39.5t49 31t22.5 39q0 41 -49 41
q-28 0 -43.5 -19t-15.5 -51h-221z" />
    <glyph glyph-name="uni1ED5" unicode="&#x1ed5;" horiz-adv-x="1306" 
d="M653 -29q-168 0 -309 78.5t-223 216t-82 303.5q0 165 82 302t223 215.5t309 78.5t309 -78t223.5 -215.5t82.5 -302.5q0 -166 -82.5 -303.5t-223.5 -216t-309 -78.5zM301 1219v270l352 158l355 -158v-270l-355 159zM440 569q0 -91 61 -153t152 -62t152 62t61 153t-61 152
t-152 61t-152 -61t-61 -152zM649 1751q0 113 79 184.5t214 71.5q127 0 196.5 -45.5t69.5 -138.5q0 -47 -15 -81.5t-37 -52t-44 -29.5t-40.5 -24.5t-22.5 -27.5h-213q0 36 22.5 62.5t49 39.5t49 31t22.5 39q0 41 -49 41q-29 0 -44.5 -19t-15.5 -51h-221z" />
    <glyph glyph-name="uni1ED6" unicode="&#x1ed6;" horiz-adv-x="1611" 
d="M807 -29q-158 0 -298.5 58.5t-241.5 158.5t-159.5 238t-58.5 291q0 204 99.5 375t274 270.5t384.5 99.5q209 0 383 -99.5t273.5 -270.5t99.5 -375t-99.5 -375.5t-273.5 -271t-383 -99.5zM393 1948q7 153 83.5 237t205.5 84q44 0 82 -13t60 -29t46 -29t43 -13
q35 0 54 20.5t22 53.5h250q-8 -147 -82.5 -234.5t-200.5 -87.5q-44 0 -82.5 13t-61 29t-47 29t-44.5 13q-35 0 -54 -20t-22 -53h-252zM455 1516v270l352 158l354 -158v-270l-354 159zM465 717q0 -150 99.5 -248t242.5 -98t241.5 98t98.5 248t-98.5 248t-241.5 98t-242.5 -98
t-99.5 -248z" />
    <glyph glyph-name="uni1ED7" unicode="&#x1ed7;" horiz-adv-x="1306" 
d="M653 -29q-168 0 -309 78.5t-223 216t-82 303.5q0 165 82 302t223 215.5t309 78.5t309 -78t223.5 -215.5t82.5 -302.5q0 -166 -82.5 -303.5t-223.5 -216t-309 -78.5zM240 1651q7 153 83 237t205 84q56 0 101 -21t76.5 -42t54.5 -21q35 0 54 20.5t22 53.5h249
q-8 -147 -82 -234.5t-200 -87.5q-56 0 -101.5 21t-78 42t-56.5 21q-68 0 -75 -73h-252zM301 1219v270l352 158l355 -158v-270l-355 159zM440 569q0 -91 61 -153t152 -62t152 62t61 153t-61 152t-152 61t-152 -61t-61 -152z" />
    <glyph glyph-name="uni1ED8" unicode="&#x1ed8;" horiz-adv-x="1611" 
d="M807 -29q-158 0 -298.5 58.5t-241.5 158.5t-159.5 238t-58.5 291q0 204 99.5 375t274 270.5t384.5 99.5q209 0 383 -99.5t273.5 -270.5t99.5 -375t-99.5 -375.5t-273.5 -271t-383 -99.5zM455 1516v270l352 158l354 -158v-270l-354 159zM465 717q0 -150 99.5 -248
t242.5 -98t241.5 98t98.5 248t-98.5 248t-241.5 98t-242.5 -98t-99.5 -248zM592 -301q0 88 63.5 151.5t151.5 63.5q89 0 152 -63.5t63 -151.5q0 -89 -63 -152t-152 -63q-88 0 -151.5 63t-63.5 152z" />
    <glyph glyph-name="uni1ED9" unicode="&#x1ed9;" horiz-adv-x="1306" 
d="M653 -29q-168 0 -309 78.5t-223 216t-82 303.5q0 165 82 302t223 215.5t309 78.5t309 -78t223.5 -215.5t82.5 -302.5q0 -166 -82.5 -303.5t-223.5 -216t-309 -78.5zM301 1219v270l352 158l355 -158v-270l-355 159zM438 -301q0 88 63.5 151.5t151.5 63.5q89 0 152 -63.5
t63 -151.5q0 -89 -63 -152t-152 -63q-88 0 -151.5 63t-63.5 152zM440 569q0 -91 61 -153t152 -62t152 62t61 153t-61 152t-152 61t-152 -61t-61 -152z" />
    <glyph glyph-name="uni1EDA" unicode="&#x1eda;" horiz-adv-x="1611" 
d="M807 -29q-158 0 -298.5 58.5t-241.5 158.5t-159.5 238t-58.5 291q0 204 99.5 375t274 270.5t384.5 99.5q109 0 215 -28q135 0 135 114q0 40 -6 70h383q6 -30 6 -72q0 -208 -176 -321q95 -101 147 -231.5t52 -276.5q0 -204 -99.5 -375.5t-273.5 -271t-383 -99.5zM465 717
q0 -150 99.5 -248t242.5 -98t241.5 98t98.5 248t-98.5 248t-241.5 98t-242.5 -98t-99.5 -248zM666 1546l110 379h406l-293 -379h-223z" />
    <glyph glyph-name="uni1EDB" unicode="&#x1edb;" horiz-adv-x="1306" 
d="M653 -29q-168 0 -309 78.5t-223 216t-82 303.5q0 165 82 302t223 215.5t309 78.5q95 0 187 -28q118 6 118 114q0 40 -6 70h383q6 -30 6 -72q0 -240 -247 -315q92 -63 133 -159.5t41 -205.5q0 -166 -82.5 -303.5t-223.5 -216t-309 -78.5zM440 569q0 -91 61 -153t152 -62
t152 62t61 153t-61 152t-152 61t-152 -61t-61 -152zM512 1249l111 379h405l-293 -379h-223z" />
    <glyph glyph-name="uni1EDC" unicode="&#x1edc;" horiz-adv-x="1611" 
d="M807 -29q-158 0 -298.5 58.5t-241.5 158.5t-159.5 238t-58.5 291q0 204 99.5 375t274 270.5t384.5 99.5q109 0 215 -28q135 0 135 114q0 40 -6 70h383q6 -30 6 -72q0 -208 -176 -321q95 -101 147 -231.5t52 -276.5q0 -204 -99.5 -375.5t-273.5 -271t-383 -99.5zM440 1925
h406l110 -379h-223zM465 717q0 -150 99.5 -248t242.5 -98t241.5 98t98.5 248t-98.5 248t-241.5 98t-242.5 -98t-99.5 -248z" />
    <glyph glyph-name="uni1EDD" unicode="&#x1edd;" horiz-adv-x="1306" 
d="M653 -29q-168 0 -309 78.5t-223 216t-82 303.5q0 165 82 302t223 215.5t309 78.5q95 0 187 -28q118 6 118 114q0 40 -6 70h383q6 -30 6 -72q0 -240 -247 -315q92 -63 133 -159.5t41 -205.5q0 -166 -82.5 -303.5t-223.5 -216t-309 -78.5zM289 1628h405l111 -379h-223z
M440 569q0 -91 61 -153t152 -62t152 62t61 153t-61 152t-152 61t-152 -61t-61 -152z" />
    <glyph glyph-name="uni1EDE" unicode="&#x1ede;" horiz-adv-x="1611" 
d="M807 -29q-158 0 -298.5 58.5t-241.5 158.5t-159.5 238t-58.5 291q0 204 99.5 375t274 270.5t384.5 99.5q109 0 215 -28q135 0 135 114q0 40 -6 70h383q6 -30 6 -72q0 -208 -176 -321q95 -101 147 -231.5t52 -276.5q0 -204 -99.5 -375.5t-273.5 -271t-383 -99.5zM465 717
q0 -150 99.5 -248t242.5 -98t241.5 98t98.5 248t-98.5 248t-241.5 98t-242.5 -98t-99.5 -248zM530 1690q0 113 79 184.5t214 71.5q127 0 197 -46t70 -139q0 -47 -15 -81.5t-37 -52t-44.5 -29.5t-41 -24.5t-22.5 -27.5h-213q0 36 22.5 62.5t49 39.5t49 31t22.5 39
q0 41 -49 41q-29 0 -44 -18.5t-15 -50.5h-222z" />
    <glyph glyph-name="uni1EDF" unicode="&#x1edf;" horiz-adv-x="1306" 
d="M653 -29q-168 0 -309 78.5t-223 216t-82 303.5q0 165 82 302t223 215.5t309 78.5q95 0 187 -28q118 6 118 114q0 40 -6 70h383q6 -30 6 -72q0 -240 -247 -315q92 -63 133 -159.5t41 -205.5q0 -166 -82.5 -303.5t-223.5 -216t-309 -78.5zM377 1393q0 113 79 184.5
t214 71.5q127 0 196.5 -46t69.5 -139q0 -47 -15 -81.5t-37 -52t-44.5 -29.5t-41 -24.5t-22.5 -27.5h-213q0 36 22.5 62.5t49.5 39.5t49.5 31t22.5 39q0 41 -50 41q-29 0 -44 -18.5t-15 -50.5h-221zM440 569q0 -91 61 -153t152 -62t152 62t61 153t-61 152t-152 61t-152 -61
t-61 -152z" />
    <glyph glyph-name="uni1EE0" unicode="&#x1ee0;" horiz-adv-x="1611" 
d="M807 -29q-158 0 -298.5 58.5t-241.5 158.5t-159.5 238t-58.5 291q0 204 99.5 375t274 270.5t384.5 99.5q109 0 215 -28q135 0 135 114q0 40 -6 70h383q6 -30 6 -72q0 -208 -176 -321q95 -101 147 -231.5t52 -276.5q0 -204 -99.5 -375.5t-273.5 -271t-383 -99.5zM383 1583
q7 153 83.5 237.5t205.5 84.5q44 0 82 -13t60 -29t46 -29t43 -13q35 0 54 20t22 53h250q-8 -147 -82.5 -234t-200.5 -87q-44 0 -82.5 13t-61 29t-47 29t-44.5 13q-35 0 -54 -20.5t-22 -53.5h-252zM465 717q0 -150 99.5 -248t242.5 -98t241.5 98t98.5 248t-98.5 248
t-241.5 98t-242.5 -98t-99.5 -248z" />
    <glyph glyph-name="uni1EE1" unicode="&#x1ee1;" horiz-adv-x="1306" 
d="M653 -29q-168 0 -309 78.5t-223 216t-82 303.5q0 165 82 302t223 215.5t309 78.5q95 0 187 -28q118 6 118 114q0 40 -6 70h383q6 -30 6 -72q0 -240 -247 -315q92 -63 133 -159.5t41 -205.5q0 -166 -82.5 -303.5t-223.5 -216t-309 -78.5zM229 1286q7 153 83.5 237.5
t205.5 84.5q56 0 101 -21t76.5 -42t54.5 -21q68 0 75 73h250q-8 -147 -82 -234t-200 -87q-56 0 -101.5 21t-78 42t-56.5 21q-35 0 -54 -20.5t-22 -53.5h-252zM440 569q0 -91 61 -153t152 -62t152 62t61 153t-61 152t-152 61t-152 -61t-61 -152z" />
    <glyph glyph-name="uni1EE2" unicode="&#x1ee2;" horiz-adv-x="1611" 
d="M807 -29q-158 0 -298.5 58.5t-241.5 158.5t-159.5 238t-58.5 291q0 204 99.5 375t274 270.5t384.5 99.5q109 0 215 -28q135 0 135 114q0 40 -6 70h383q6 -30 6 -72q0 -208 -176 -321q95 -101 147 -231.5t52 -276.5q0 -204 -99.5 -375.5t-273.5 -271t-383 -99.5zM465 717
q0 -150 99.5 -248t242.5 -98t241.5 98t98.5 248t-98.5 248t-241.5 98t-242.5 -98t-99.5 -248zM592 -301q0 88 63.5 151.5t151.5 63.5q89 0 152 -63.5t63 -151.5q0 -89 -63 -152t-152 -63q-88 0 -151.5 63t-63.5 152z" />
    <glyph glyph-name="uni1EE3" unicode="&#x1ee3;" horiz-adv-x="1306" 
d="M653 -29q-168 0 -309 78.5t-223 216t-82 303.5q0 165 82 302t223 215.5t309 78.5q95 0 187 -28q118 6 118 114q0 40 -6 70h383q6 -30 6 -72q0 -240 -247 -315q92 -63 133 -159.5t41 -205.5q0 -166 -82.5 -303.5t-223.5 -216t-309 -78.5zM438 -301q0 88 63.5 151.5
t151.5 63.5q89 0 152 -63.5t63 -151.5q0 -89 -63 -152t-152 -63q-88 0 -151.5 63t-63.5 152zM440 569q0 -91 61 -153t152 -62t152 62t61 153t-61 152t-152 61t-152 -61t-61 -152z" />
    <glyph glyph-name="uni1EE4" unicode="&#x1ee4;" horiz-adv-x="1554" 
d="M778 -29q-137 0 -257 43t-214.5 125.5t-149.5 216t-55 301.5v777h400v-777q0 -124 76 -205t200 -81q123 0 200 81.5t77 204.5v777h399v-777q0 -168 -55 -301.5t-149.5 -216t-214.5 -125.5t-257 -43zM563 -301q0 88 63.5 151.5t151.5 63.5q89 0 152 -63.5t63 -151.5
q0 -89 -63 -152t-152 -63q-88 0 -151.5 63t-63.5 152z" />
    <glyph glyph-name="uni1EE5" unicode="&#x1ee5;" horiz-adv-x="1249" 
d="M625 -29q-106 0 -203.5 34.5t-177 98.5t-127 168t-47.5 232v633h399v-637q0 -67 43 -113.5t113 -46.5t112.5 46.5t42.5 113.5v637h400v-633q0 -128 -47.5 -232t-127 -168t-177 -98.5t-203.5 -34.5zM420 -301q0 88 63.5 151.5t151.5 63.5q89 0 152 -63.5t63 -151.5
q0 -89 -63 -152t-152 -63q-88 0 -151.5 63t-63.5 152z" />
    <glyph glyph-name="uni1EE6" unicode="&#x1ee6;" horiz-adv-x="1554" 
d="M778 -29q-137 0 -257 43t-214.5 125.5t-149.5 216t-55 301.5v777h400v-777q0 -124 76 -205t200 -81q123 0 200 81.5t77 204.5v777h399v-777q0 -168 -55 -301.5t-149.5 -216t-214.5 -125.5t-257 -43zM502 1690q0 113 79 184.5t214 71.5q127 0 196.5 -46t69.5 -139
q0 -47 -15 -81.5t-37 -52t-44.5 -29.5t-41 -24.5t-22.5 -27.5h-213q0 36 22.5 62.5t49 39.5t49 31t22.5 39q0 41 -49 41q-29 0 -44 -18.5t-15 -50.5h-221z" />
    <glyph glyph-name="uni1EE7" unicode="&#x1ee7;" horiz-adv-x="1249" 
d="M625 -29q-106 0 -203.5 34.5t-177 98.5t-127 168t-47.5 232v633h399v-637q0 -67 43 -113.5t113 -46.5t112.5 46.5t42.5 113.5v637h400v-633q0 -128 -47.5 -232t-127 -168t-177 -98.5t-203.5 -34.5zM348 1393q0 113 79 184.5t214 71.5q127 0 196.5 -46t69.5 -139
q0 -47 -15 -81.5t-37 -52t-44 -29.5t-40.5 -24.5t-22.5 -27.5h-213q0 36 22.5 62.5t49 39.5t49 31t22.5 39q0 41 -49 41q-29 0 -44.5 -19t-15.5 -50h-221z" />
    <glyph glyph-name="uni1EE8" unicode="&#x1ee8;" horiz-adv-x="1554" 
d="M778 -29q-137 0 -257 43t-214.5 125.5t-149.5 216t-55 301.5v777h400v-777q0 -124 76 -205t200 -81q123 0 200 81.5t77 204.5v777h125q135 0 135 114q0 40 -6 70h383q6 -30 6 -72q0 -125 -64.5 -216t-179.5 -142v-531q0 -168 -55 -301.5t-149.5 -216t-214.5 -125.5
t-257 -43zM637 1546l111 379h405l-293 -379h-223z" />
    <glyph glyph-name="uni1EE9" unicode="&#x1ee9;" horiz-adv-x="1249" 
d="M625 -29q-106 0 -203.5 34.5t-177 98.5t-127 168t-47.5 232v633h399v-637q0 -67 43 -113.5t113 -46.5t112.5 46.5t42.5 113.5v637h115q135 0 135 114q0 40 -6 70h383q6 -30 6 -72q0 -122 -61.5 -211.5t-171.5 -140.5v-393q0 -128 -47.5 -232t-127 -168t-177 -98.5
t-203.5 -34.5zM483 1249l111 379h405l-292 -379h-224z" />
    <glyph glyph-name="uni1EEA" unicode="&#x1eea;" horiz-adv-x="1554" 
d="M778 -29q-137 0 -257 43t-214.5 125.5t-149.5 216t-55 301.5v777h400v-777q0 -124 76 -205t200 -81q123 0 200 81.5t77 204.5v777h125q135 0 135 114q0 40 -6 70h383q6 -30 6 -72q0 -125 -64.5 -216t-179.5 -142v-531q0 -168 -55 -301.5t-149.5 -216t-214.5 -125.5
t-257 -43zM412 1925h405l111 -379h-223z" />
    <glyph glyph-name="uni1EEB" unicode="&#x1eeb;" horiz-adv-x="1249" 
d="M625 -29q-106 0 -203.5 34.5t-177 98.5t-127 168t-47.5 232v633h399v-637q0 -67 43 -113.5t113 -46.5t112.5 46.5t42.5 113.5v637h115q135 0 135 114q0 40 -6 70h383q6 -30 6 -72q0 -122 -61.5 -211.5t-171.5 -140.5v-393q0 -128 -47.5 -232t-127 -168t-177 -98.5
t-203.5 -34.5zM260 1628h406l110 -379h-223z" />
    <glyph glyph-name="uni1EEC" unicode="&#x1eec;" horiz-adv-x="1554" 
d="M778 -29q-137 0 -257 43t-214.5 125.5t-149.5 216t-55 301.5v777h400v-777q0 -124 76 -205t200 -81q123 0 200 81.5t77 204.5v777h125q135 0 135 114q0 40 -6 70h383q6 -30 6 -72q0 -125 -64.5 -216t-179.5 -142v-531q0 -168 -55 -301.5t-149.5 -216t-214.5 -125.5
t-257 -43zM502 1690q0 113 79 184.5t214 71.5q127 0 196.5 -46t69.5 -139q0 -47 -15 -81.5t-37 -52t-44.5 -29.5t-41 -24.5t-22.5 -27.5h-213q0 36 22.5 62.5t49 39.5t49 31t22.5 39q0 41 -49 41q-29 0 -44 -18.5t-15 -50.5h-221z" />
    <glyph glyph-name="uni1EED" unicode="&#x1eed;" horiz-adv-x="1249" 
d="M625 -29q-106 0 -203.5 34.5t-177 98.5t-127 168t-47.5 232v633h399v-637q0 -67 43 -113.5t113 -46.5t112.5 46.5t42.5 113.5v637h115q135 0 135 114q0 40 -6 70h383q6 -30 6 -72q0 -122 -61.5 -211.5t-171.5 -140.5v-393q0 -128 -47.5 -232t-127 -168t-177 -98.5
t-203.5 -34.5zM348 1393q0 113 79 184.5t214 71.5q127 0 196.5 -46t69.5 -139q0 -47 -15 -81.5t-37 -52t-44 -29.5t-40.5 -24.5t-22.5 -27.5h-213q0 36 22.5 62.5t49 39.5t49 31t22.5 39q0 41 -49 41q-29 0 -44.5 -19t-15.5 -50h-221z" />
    <glyph glyph-name="uni1EEE" unicode="&#x1eee;" horiz-adv-x="1554" 
d="M778 -29q-137 0 -257 43t-214.5 125.5t-149.5 216t-55 301.5v777h400v-777q0 -124 76 -205t200 -81q123 0 200 81.5t77 204.5v777h125q135 0 135 114q0 40 -6 70h383q6 -30 6 -72q0 -125 -64.5 -216t-179.5 -142v-531q0 -168 -55 -301.5t-149.5 -216t-214.5 -125.5
t-257 -43zM354 1583q7 153 83.5 237.5t205.5 84.5q44 0 82 -13t60 -29t46 -29t43 -13q35 0 54 20t22 53h250q-8 -147 -82 -234t-200 -87q-56 0 -101.5 21t-78 42t-56.5 21q-35 0 -54 -20.5t-22 -53.5h-252z" />
    <glyph glyph-name="uni1EEF" unicode="&#x1eef;" horiz-adv-x="1249" 
d="M625 -29q-106 0 -203.5 34.5t-177 98.5t-127 168t-47.5 232v633h399v-637q0 -67 43 -113.5t113 -46.5t112.5 46.5t42.5 113.5v637h115q135 0 135 114q0 40 -6 70h383q6 -30 6 -72q0 -122 -61.5 -211.5t-171.5 -140.5v-393q0 -128 -47.5 -232t-127 -168t-177 -98.5
t-203.5 -34.5zM203 1286q7 153 83.5 237.5t205.5 84.5q44 0 82 -13t60 -29t46 -29t43 -13q35 0 54 20t22 53h250q-8 -147 -82.5 -234t-200.5 -87q-56 0 -101.5 21t-78 42t-56.5 21q-35 0 -53.5 -20.5t-21.5 -53.5h-252z" />
    <glyph glyph-name="uni1EF0" unicode="&#x1ef0;" horiz-adv-x="1554" 
d="M778 -29q-137 0 -257 43t-214.5 125.5t-149.5 216t-55 301.5v777h400v-777q0 -124 76 -205t200 -81q123 0 200 81.5t77 204.5v777h125q135 0 135 114q0 40 -6 70h383q6 -30 6 -72q0 -125 -64.5 -216t-179.5 -142v-531q0 -168 -55 -301.5t-149.5 -216t-214.5 -125.5
t-257 -43zM563 -301q0 88 63.5 151.5t151.5 63.5q89 0 152 -63.5t63 -151.5q0 -89 -63 -152t-152 -63q-88 0 -151.5 63t-63.5 152z" />
    <glyph glyph-name="uni1EF1" unicode="&#x1ef1;" horiz-adv-x="1249" 
d="M625 -29q-106 0 -203.5 34.5t-177 98.5t-127 168t-47.5 232v633h399v-637q0 -67 43 -113.5t113 -46.5t112.5 46.5t42.5 113.5v637h115q135 0 135 114q0 40 -6 70h383q6 -30 6 -72q0 -122 -61.5 -211.5t-171.5 -140.5v-393q0 -128 -47.5 -232t-127 -168t-177 -98.5
t-203.5 -34.5zM420 -301q0 88 63.5 151.5t151.5 63.5q89 0 152 -63.5t63 -151.5q0 -89 -63 -152t-152 -63q-88 0 -151.5 63t-63.5 152z" />
    <glyph glyph-name="Ygrave" unicode="&#x1ef2;" horiz-adv-x="1439" 
d="M530 0v469l-553 965h463l295 -562l283 562h444l-532 -961v-473h-400zM354 1925h406l110 -379h-223z" />
    <glyph glyph-name="ygrave" unicode="&#x1ef3;" horiz-adv-x="1243" 
d="M193 -410l215 523l-422 1024h430l205 -559l200 559h420l-643 -1547h-405zM262 1628h406l110 -379h-223z" />
    <glyph glyph-name="uni1EF4" unicode="&#x1ef4;" horiz-adv-x="1439" 
d="M530 0v469l-553 965h463l295 -562l283 562h444l-532 -961v-473h-400zM512 -301q0 88 63.5 151.5t151.5 63.5q89 0 152 -63.5t63 -151.5q0 -89 -63 -152t-152 -63q-88 0 -151.5 63t-63.5 152z" />
    <glyph glyph-name="uni1EF5" unicode="&#x1ef5;" horiz-adv-x="1243" 
d="M193 -410l215 523l-422 1024h430l205 -559l200 559h420l-643 -1547h-405zM791 -301q0 88 63.5 151.5t151.5 63.5q89 0 152 -63.5t63 -151.5q0 -89 -63 -152t-152 -63q-88 0 -151.5 63t-63.5 152z" />
    <glyph glyph-name="uni1EF6" unicode="&#x1ef6;" horiz-adv-x="1439" 
d="M530 0v469l-553 965h463l295 -562l283 562h444l-532 -961v-473h-400zM444 1690q0 113 79 184.5t214 71.5q127 0 197 -46t70 -139q0 -47 -15 -81.5t-37 -52t-44.5 -29.5t-41 -24.5t-22.5 -27.5h-213q0 36 22.5 62.5t49 39.5t49 31t22.5 39q0 41 -49 41q-29 0 -44 -18.5
t-15 -50.5h-222z" />
    <glyph glyph-name="uni1EF7" unicode="&#x1ef7;" horiz-adv-x="1243" 
d="M193 -410l215 523l-422 1024h430l205 -559l200 559h420l-643 -1547h-405zM350 1393q0 113 79 184.5t214 71.5q127 0 196.5 -46t69.5 -139q0 -47 -15 -81.5t-37 -52t-44 -29.5t-40.5 -24.5t-22.5 -27.5h-213q0 36 22.5 62.5t49 39.5t49 31t22.5 39q0 41 -49 41
q-29 0 -44.5 -19t-15.5 -50h-221z" />
    <glyph glyph-name="uni1EF8" unicode="&#x1ef8;" horiz-adv-x="1439" 
d="M530 0v469l-553 965h463l295 -562l283 562h444l-532 -961v-473h-400zM297 1583q7 153 83.5 237.5t205.5 84.5q44 0 82 -13t60 -29t46 -29t43 -13q35 0 54 20t22 53h250q-8 -147 -82.5 -234t-200.5 -87q-44 0 -82.5 13t-61 29t-47 29t-44.5 13q-35 0 -54 -20.5t-22 -53.5
h-252z" />
    <glyph glyph-name="uni1EF9" unicode="&#x1ef9;" horiz-adv-x="1243" 
d="M193 -410l215 523l-422 1024h430l205 -559l200 559h420l-643 -1547h-405zM205 1286q7 153 83.5 237.5t205.5 84.5q44 0 82 -13t60 -29t46 -29t43 -13q35 0 54 20t22 53h250q-8 -147 -82.5 -234t-200.5 -87q-56 0 -101.5 21t-78 42t-56.5 21q-35 0 -53.5 -20.5
t-21.5 -53.5h-252z" />
    <glyph glyph-name="uni2000" unicode="&#x2000;" horiz-adv-x="1177" 
 />
    <glyph glyph-name="uni2002" unicode="&#x2002;" horiz-adv-x="1177" 
 />
    <glyph glyph-name="uni2003" unicode="&#x2003;" horiz-adv-x="1433" 
 />
    <glyph glyph-name="uni2004" unicode="&#x2004;" horiz-adv-x="1091" 
 />
    <glyph glyph-name="uni2005" unicode="&#x2005;" horiz-adv-x="1050" 
 />
    <glyph glyph-name="uni2006" unicode="&#x2006;" horiz-adv-x="1007" 
 />
    <glyph glyph-name="uni2007" unicode="&#x2007;" horiz-adv-x="1402" 
 />
    <glyph glyph-name="uni2008" unicode="&#x2008;" horiz-adv-x="583" 
 />
    <glyph glyph-name="uni2009" unicode="&#x2009;" horiz-adv-x="1024" 
 />
    <glyph glyph-name="uni200A" unicode="&#x200a;" horiz-adv-x="995" 
 />
    <glyph glyph-name="uni200B" unicode="&#x200b;" horiz-adv-x="921" 
 />
    <glyph glyph-name="endash" unicode="&#x2013;" horiz-adv-x="1290" 
d="M0 608v248h1290v-248h-1290z" />
    <glyph glyph-name="emdash" unicode="&#x2014;" horiz-adv-x="1925" 
d="M0 608v248h1925v-248h-1925z" />
    <glyph glyph-name="quoteleft" unicode="&#x2018;" horiz-adv-x="583" 
d="M575 1434l-96 -605h-420l156 605h360z" />
    <glyph glyph-name="quoteright" unicode="&#x2019;" horiz-adv-x="583" 
d="M8 831l96 605h420l-155 -605h-361z" />
    <glyph glyph-name="quotesinglbase" unicode="&#x201a;" horiz-adv-x="583" 
d="M8 -199l96 605h420l-155 -605h-361z" />
    <glyph glyph-name="quotedblleft" unicode="&#x201c;" horiz-adv-x="1071" 
d="M575 1434l-96 -605h-420l156 605h360zM547 829l155 605h361l-96 -605h-420z" />
    <glyph glyph-name="quotedblright" unicode="&#x201d;" horiz-adv-x="1071" 
d="M496 831l96 605h420l-156 -605h-360zM8 831l96 605h420l-155 -605h-361z" />
    <glyph glyph-name="quotedblbase" unicode="&#x201e;" horiz-adv-x="1071" 
d="M496 -199l96 605h420l-156 -605h-360zM8 -199l96 605h420l-155 -605h-361z" />
    <glyph glyph-name="dagger" unicode="&#x2020;" horiz-adv-x="1001" 
d="M319 0v870h-307v267h307v297h369v-297h307v-267h-307v-870h-369z" />
    <glyph glyph-name="daggerdbl" unicode="&#x2021;" horiz-adv-x="1001" 
d="M319 0v297h-307v266h307v307h-307v267h307v297h369v-297h307v-267h-307v-307h307v-266h-307v-297h-369z" />
    <glyph glyph-name="bullet" unicode="&#x2022;" horiz-adv-x="815" 
d="M410 385q-142 0 -245.5 103t-103.5 243q0 141 103 242.5t246 101.5q140 0 242 -101.5t102 -242.5q0 -140 -102.5 -243t-241.5 -103z" />
    <glyph glyph-name="ellipsis" unicode="&#x2026;" horiz-adv-x="1705" 
d="M1413 -29q-93 0 -161 69t-68 163t67.5 161.5t161.5 67.5t163 -68t69 -161q0 -94 -69 -163t-163 -69zM61 203q0 94 68.5 161.5t163.5 67.5q94 0 161.5 -67.5t67.5 -161.5t-68 -163t-161 -69q-95 0 -163.5 69t-68.5 163zM623 203q0 94 67.5 161.5t161.5 67.5
q95 0 163 -67.5t68 -161.5t-68 -163t-163 -69q-93 0 -161 69t-68 163z" />
    <glyph glyph-name="uni202F" unicode="&#x202f;" horiz-adv-x="1003" 
 />
    <glyph glyph-name="perthousand" unicode="&#x2030;" horiz-adv-x="2793" 
d="M285 0l1036 1434h317l-1036 -1434h-317zM49 1067q0 164 115 279.5t278 115.5q164 0 280 -115.5t116 -279.5q0 -163 -116 -278t-280 -115q-163 0 -278 115t-115 278zM317 1067q0 -51 37 -88t88 -37q52 0 89.5 37t37.5 88q0 53 -37.5 90t-89.5 37q-51 0 -88 -37.5
t-37 -89.5zM1085 367q0 164 115.5 278.5t280.5 114.5q164 0 278.5 -114.5t114.5 -278.5q0 -165 -114.5 -280.5t-278.5 -115.5t-280 116t-116 280zM1356 367q0 -53 35.5 -89t89.5 -36q53 0 89 36t36 89t-36 89t-89 36q-54 0 -89.5 -36t-35.5 -89zM1956 367q0 164 115.5 278.5
t279.5 114.5t278.5 -114.5t114.5 -278.5q0 -165 -114.5 -280.5t-278.5 -115.5t-279.5 116t-115.5 280zM2226 367q0 -53 35.5 -89t89.5 -36q53 0 89 36t36 89t-36 89t-89 36q-54 0 -89.5 -36t-35.5 -89z" />
    <glyph glyph-name="guilsinglleft" unicode="&#x2039;" horiz-adv-x="958" 
d="M465 0l-434 569l434 568h463l-434 -568l434 -569h-463z" />
    <glyph glyph-name="guilsinglright" unicode="&#x203a;" horiz-adv-x="958" 
d="M31 0l434 569l-434 568h463l434 -568l-434 -569h-463z" />
    <glyph glyph-name="fraction" unicode="&#x2044;" horiz-adv-x="643" 
d="M-174 0l655 1434h336l-655 -1434h-336z" />
    <glyph glyph-name="uni205F" unicode="&#x205f;" horiz-adv-x="1036" 
 />
    <glyph glyph-name="uni20AA" unicode="&#x20aa;" horiz-adv-x="1916" 
d="M614 0v799h277v-523h360q89 0 140 50t51 141v762h291v-721q0 -230 -144.5 -369t-376.5 -139h-598zM184 0v1229h680q206 0 323.5 -113.5t117.5 -312.5v-373h-277v363q0 76 -43 117.5t-117 41.5h-391v-952h-293z" />
    <glyph glyph-name="Euro" unicode="&#x20ac;" horiz-adv-x="1656" 
d="M860 -29q-252 0 -447 141t-270 367h-143v199h104v39v39h-104v198h143q75 226 270 367t447 141q143 0 272.5 -48t227.5 -131.5t164 -199t86 -247.5h-377q-39 131 -140 205.5t-231 74.5q-97 0 -180.5 -43t-138.5 -119h479v-198h-549q-2 -12 -2 -39t2 -39h549v-199h-477
q53 -76 136.5 -119t180.5 -43q130 0 230.5 76t138.5 207h379q-27 -178 -131 -321t-266.5 -225.5t-352.5 -82.5z" />
    <glyph glyph-name="trademark" unicode="&#x2122;" horiz-adv-x="1568" 
d="M678 717v747l395 -334l383 334v-747h-242v268l-141 -125l-151 125v-268h-244zM12 1210v224h584v-224h-168v-493h-244v493h-172z" />
    <glyph glyph-name="oneeighth" unicode="&#x215b;" horiz-adv-x="2295" 
d="M262 430v651l-160 -55v279l457 143v-1018h-297zM561 0l656 1434h335l-655 -1434h-336zM1417 285q0 167 160 245q-131 80 -131 218q0 119 99 197.5t292 78.5q194 0 293.5 -78.5t99.5 -197.5q0 -138 -131 -218q160 -78 160 -245q0 -137 -110 -221t-312 -84q-200 0 -310 84
t-110 221zM1718 307q0 -41 33.5 -67.5t85.5 -26.5q54 0 87.5 26.5t33.5 67.5q0 43 -32 68.5t-89 25.5q-55 0 -87 -25.5t-32 -68.5zM1735 729q0 -36 28 -60t74 -24q52 1 78.5 24.5t26.5 59.5q0 34 -28 58t-77 24t-75.5 -24t-26.5 -58z" />
    <glyph glyph-name="threeeighths" unicode="&#x215c;" horiz-adv-x="2451" 
d="M457 410q-103 0 -184 30.5t-131.5 84t-79 121t-33.5 147.5h297q5 -55 37 -89t81 -34q48 0 77.5 22.5t29.5 63.5q0 44 -33 68t-96 24h-43v201h43q100 0 100 73q0 32 -24.5 53t-67.5 21t-70.5 -22.5t-31.5 -63.5h-295q10 144 119 245t292 101q186 0 282.5 -84t96.5 -209
q0 -136 -108 -213q137 -82 137 -245q0 -130 -107 -212.5t-288 -82.5zM717 0l655 1434h336l-655 -1434h-336zM1573 285q0 167 160 245q-131 80 -131 218q0 119 99 197.5t292 78.5q194 0 293.5 -78.5t99.5 -197.5q0 -138 -131 -218q160 -78 160 -245q0 -137 -110 -221
t-312 -84q-200 0 -310 84t-110 221zM1874 307q0 -41 33.5 -67.5t85.5 -26.5q54 0 87.5 26.5t33.5 67.5q0 43 -32 68.5t-89 25.5q-55 0 -87 -25.5t-32 -68.5zM1890 729q0 -36 28.5 -60t74.5 -24q52 1 78 24.5t26 59.5q0 34 -27.5 58t-76.5 24t-76 -24t-27 -58z" />
    <glyph glyph-name="fiveeighths" unicode="&#x215d;" horiz-adv-x="2478" 
d="M469 410q-175 0 -283.5 91t-119.5 236h301q23 -67 102 -67q47 0 78 30t31 72t-32 72t-79 30q-85 0 -129 -63h-262l61 623h690v-267h-452l-8 -102q74 31 149 31q172 0 267.5 -94.5t95.5 -235.5q0 -154 -106.5 -255t-303.5 -101zM743 0l656 1434h336l-656 -1434h-336z
M1599 285q0 167 160 245q-131 80 -131 218q0 119 99 197.5t292 78.5q195 0 294.5 -78.5t99.5 -197.5q0 -137 -132 -218q160 -78 160 -245q0 -137 -110 -221t-312 -84q-200 0 -310 84t-110 221zM1901 307q0 -41 33 -67.5t85 -26.5q54 0 87.5 26.5t33.5 67.5q0 43 -32 68.5
t-89 25.5q-55 0 -86.5 -25.5t-31.5 -68.5zM1917 729q0 -36 28 -60t74 -24q52 1 78.5 24.5t26.5 59.5q0 34 -28 58t-77 24t-75.5 -24t-26.5 -58z" />
    <glyph glyph-name="seveneighths" unicode="&#x215e;" horiz-adv-x="2351" 
d="M131 430l277 737h-406v267h811l-371 -1004h-311zM614 0l656 1434h336l-656 -1434h-336zM1470 285q0 167 160 245q-131 80 -131 218q0 119 99 197.5t292 78.5q195 0 294.5 -78.5t99.5 -197.5q0 -137 -132 -218q160 -78 160 -245q0 -137 -110 -221t-312 -84q-200 0 -310 84
t-110 221zM1772 307q0 -41 33 -67.5t85 -26.5q54 0 87.5 26.5t33.5 67.5q0 43 -32 68.5t-89 25.5q-55 0 -86.5 -25.5t-31.5 -68.5zM1788 729q0 -36 28 -60t74 -24q52 1 78.5 24.5t26.5 59.5q0 34 -28 58t-77 24t-75.5 -24t-26.5 -58z" />
    <glyph glyph-name="arrowleft" unicode="&#x2190;" horiz-adv-x="1761" 
d="M723 27l-686 686l688 688l190 -191l-368 -362h1149v-268h-1153l368 -363z" />
    <glyph glyph-name="arrowup" unicode="&#x2191;" horiz-adv-x="1423" 
d="M702 129l-71 928l-291 -598l-209 145l543 840l473 -615l-191 -102l-147 440l143 -995z" />
    <glyph glyph-name="arrowright" unicode="&#x2192;" horiz-adv-x="1761" 
d="M1038 27l-188 190l371 363h-1155v268h1151l-369 362l188 191l688 -688z" />
    <glyph glyph-name="arrowdown" unicode="&#x2193;" horiz-adv-x="1423" 
d="M707 -147l-691 688l193 190l362 -369v1149h269v-1153l362 369l191 -188z" />
    <glyph glyph-name="arrowboth" unicode="&#x2194;" horiz-adv-x="2379" 
d="M723 27l-686 686l688 688l190 -191l-368 -362h1286l-369 362l189 191l690 -688l-688 -686l-187 190l369 363h-1294l368 -363z" />
    <glyph glyph-name="arrowupdn" unicode="&#x2195;" horiz-adv-x="1423" 
d="M707 -340l-691 688l193 189l360 -369v989l-360 -369l-193 189l689 686l688 -688l-191 -189l-362 371v-989l362 367l191 -189z" />
    <glyph glyph-name="uni2196" unicode="&#x2196;" horiz-adv-x="1390" 
d="M1178 -18l-813 811l2 -517l-269 -2v975h973l-4 -266l-516 4l815 -815z" />
    <glyph glyph-name="uni2197" unicode="&#x2197;" horiz-adv-x="1390" 
d="M213 -20l-188 190l815 815l-516 -4l-5 266h973v-975l-268 2l2 517z" />
    <glyph glyph-name="uni2198" unicode="&#x2198;" horiz-adv-x="1390" 
d="M319 178l5 268l516 -4l-815 815l188 191l813 -813l-2 516l268 2v-975h-973z" />
    <glyph glyph-name="uni2199" unicode="&#x2199;" horiz-adv-x="1390" 
d="M98 178v975l269 -2l-2 -516l813 813l188 -191l-815 -815l516 4l4 -268h-973z" />
    <glyph glyph-name="partialdiff" unicode="&#x2202;" horiz-adv-x="1300" 
d="M651 -20q-177 0 -316.5 68t-217.5 191.5t-78 280.5q0 235 166.5 379.5t419.5 144.5q88 0 170 -36q-89 150 -242 260t-363 159l222 185q385 -100 617.5 -377t232.5 -641q0 -142 -46.5 -258.5t-128.5 -194t-194 -119.5t-242 -42zM455 526q0 -84 58.5 -137t137.5 -53t137 53
t58 137q0 86 -58 139.5t-137 53.5t-137.5 -53.5t-58.5 -139.5z" />
    </font>
</defs>
</svg>
