<?xml version="1.0" standalone="no"?>
<!DOCTYPE svg PUBLIC "-//W3C//DTD SVG 1.1//EN" "http://www.w3.org/Graphics/SVG/1.1/DTD/svg11.dtd" >
<svg xmlns="http://www.w3.org/2000/svg" xmlns:xlink="http://www.w3.org/1999/xlink" version="1.1">
<metadata>
Created by FontForge 20201107 at Fri Dec 12 14:10:26 2025
 By 
copyright missing
</metadata>
<defs>
<font id="Polin-Semibold" horiz-adv-x="1337" >
  <font-face 
    font-family="Polin Semibold"
    font-weight="600"
    font-stretch="normal"
    units-per-em="2048"
    panose-1="0 0 0 0 0 0 0 0 0 0"
    ascent="1638"
    descent="-410"
    x-height="1112"
    cap-height="1434"
    bbox="-150 -580 2505 2279"
    underline-thickness="102"
    underline-position="-255"
    unicode-range="U+0020-FB4B"
  />
<missing-glyph horiz-adv-x="1024" 
d="M840 1638v-2048h-650v2048h650zM342 -268h340v67h-209l143 97h66v67h-340v-67h143l-143 -97v-67zM342 10h340v232h-340v-232zM342 365h340v231h-205v-115h70v47h67v-96h-204v164h-68v-231zM342 641h340v205h-68v-135h-272v-70zM342 758h205v143h135v68h-340v-68h135v-76
h-135v-67zM342 1024h340v70h-135v143h-205v-213zM342 1290h340v68h-135v76h135v67h-338v-67h133v-76h-135v-68zM410 78v96h204v-96h-204zM410 1094v73h67v-73h-67z" />
    <glyph glyph-name="fi" unicode="fi" horiz-adv-x="1204" 
d="M186 0v856h-155v256h155v70q0 184 98 279t267 95h127v-245h-111q-48 0 -76 -34t-28 -95v-70h215v-256h-215v-856h-277zM786 1427q0 67 49 116.5t117 49.5t117 -49.5t49 -116.5q0 -69 -49 -117t-117 -48t-117 48t-49 117zM815 0v1112h277v-1112h-277z" />
    <glyph glyph-name="fl" unicode="fl" horiz-adv-x="1204" 
d="M186 0v856h-155v256h155v70q0 184 98 279t267 95h127v-245h-111q-48 0 -76 -34t-28 -95v-70h215v-256h-215v-856h-277zM815 0v1556h277v-1556h-277z" />
    <glyph glyph-name=".notdef" horiz-adv-x="1024" 
d="M840 1638v-2048h-650v2048h650zM342 -268h340v67h-209l143 97h66v67h-340v-67h143l-143 -97v-67zM342 10h340v232h-340v-232zM342 365h340v231h-205v-115h70v47h67v-96h-204v164h-68v-231zM342 641h340v205h-68v-135h-272v-70zM342 758h205v143h135v68h-340v-68h135v-76
h-135v-67zM342 1024h340v70h-135v143h-205v-213zM342 1290h340v68h-135v76h135v67h-338v-67h133v-76h-135v-68zM410 78v96h204v-96h-204zM410 1094v73h67v-73h-67z" />
    <glyph glyph-name=".null" horiz-adv-x="0" 
 />
    <glyph glyph-name="nonmarkingreturn" horiz-adv-x="682" 
 />
    <glyph glyph-name="space" unicode=" " horiz-adv-x="444" 
 />
    <glyph glyph-name="exclam" unicode="!" horiz-adv-x="460" 
d="M102 477l-10 957h277l-11 -957h-256zM61 147q0 69 50 118.5t120 49.5q69 0 118.5 -49.5t49.5 -118.5t-49.5 -119.5t-118.5 -50.5q-70 0 -120 50.5t-50 119.5z" />
    <glyph glyph-name="quotedbl" unicode="&#x22;" horiz-adv-x="718" 
d="M78 866l-21 568h271l-21 -568h-229zM391 1434h271l-21 -568h-229z" />
    <glyph glyph-name="numbersign" unicode="#" horiz-adv-x="1447" 
d="M780 0l49 350h-319l-51 -350h-250l51 350h-219l33 225h219l41 285h-219l32 223h220l51 351h250l-52 -351h322l51 351h250l-51 -351h219l-35 -223h-219l-39 -285h219l-35 -225h-219l-49 -350h-250zM543 575h321l39 285h-319z" />
    <glyph glyph-name="dollar" unicode="$" horiz-adv-x="1366" 
d="M702 -23h-4l-14 -182h-244l17 211q-188 48 -290 168t-108 285h281q2 -101 90 -165.5t264 -64.5q320 0 320 172q0 89 -81.5 131.5t-273.5 61.5q-106 12 -190 32t-155 54t-117.5 81.5t-72.5 114t-26 150.5q0 177 132 293t352 135l18 184h244l-19 -196q202 -36 318 -155
t125 -294h-281q-3 98 -94 154.5t-236 56.5q-121 0 -199.5 -44t-78.5 -126q0 -76 81.5 -118t268.5 -62q291 -32 430 -132.5t139 -303.5q0 -204 -157 -322.5t-439 -118.5z" />
    <glyph glyph-name="percent" unicode="%" horiz-adv-x="1775" 
d="M229 0l1037 1434h280l-1036 -1434h-281zM68 1098q0 149 104 253.5t252 104.5q149 0 253.5 -104.5t104.5 -253.5q0 -148 -104.5 -252.5t-253.5 -104.5q-148 0 -252 104.5t-104 252.5zM293 1098q0 -54 38.5 -92.5t92.5 -38.5q55 0 94 38.5t39 92.5q0 56 -38.5 94.5
t-94.5 38.5q-54 0 -92.5 -39t-38.5 -94zM993 336q0 148 105 252t254 104q148 0 252 -104t104 -252q0 -149 -104 -254t-252 -105q-149 0 -254 105t-105 254zM1221 336q0 -56 37.5 -93.5t93.5 -37.5q54 0 92.5 38t38.5 93q0 54 -38.5 92.5t-92.5 38.5q-55 0 -93 -38.5
t-38 -92.5z" />
    <glyph glyph-name="ampersand" unicode="&#x26;" horiz-adv-x="1505" 
d="M604 -23q-252 0 -397.5 116.5t-145.5 295.5q0 138 83 242t233 164q-119 144 -119 290q0 160 118 265.5t310 105.5q189 0 305.5 -101t116.5 -257q0 -263 -307 -389l252 -258q106 140 121 327h260q-21 -290 -207 -508l264 -270h-344l-105 106q-200 -129 -438 -129zM330 418
q0 -90 79.5 -144.5t200.5 -54.5q132 0 258 66l-336 346q-96 -34 -149 -89t-53 -124zM522 1075q0 -47 28.5 -92t90.5 -109q116 44 163.5 92t47.5 107q0 63 -45 105.5t-121 42.5t-120 -43.5t-44 -102.5z" />
    <glyph glyph-name="quotesingle" unicode="'" horiz-adv-x="385" 
d="M78 866l-21 568h271l-21 -568h-229z" />
    <glyph glyph-name="parenleft" unicode="(" horiz-adv-x="706" 
d="M397 -287q-54 90 -95.5 179t-81.5 207.5t-61.5 263t-21.5 303.5q0 160 21.5 304t62 262.5t81.5 206.5t95 179h277q-56 -100 -98 -194t-81 -213t-60 -257.5t-21 -287.5q0 -194 39.5 -378.5t92 -311.5t128.5 -263h-277z" />
    <glyph glyph-name="parenright" unicode=")" horiz-adv-x="706" 
d="M33 -287q76 136 128.5 263t92 311.5t39.5 378.5q0 149 -21 287.5t-60 257.5t-81 213t-98 194h276q54 -91 95 -179t81.5 -206.5t62 -262.5t21.5 -304q0 -159 -21.5 -303.5t-61.5 -263t-81.5 -207.5t-95.5 -179h-276z" />
    <glyph glyph-name="asterisk" unicode="*" horiz-adv-x="843" 
d="M455 727l-66 262l-188 -192l-125 151l229 146l-244 118l109 166l207 -172l39 269l190 -52l-100 -254l268 45l8 -194l-268 18l125 -239z" />
    <glyph glyph-name="plus" unicode="+" horiz-adv-x="1253" 
d="M506 147v465h-465v242h465v465h242v-465h464v-242h-464v-465h-242z" />
    <glyph glyph-name="comma" unicode="," horiz-adv-x="460" 
d="M27 -211l84 506h297l-144 -506h-237z" />
    <glyph glyph-name="hyphen" unicode="-" horiz-adv-x="815" 
d="M61 541v260h693v-260h-693z" />
    <glyph glyph-name="period" unicode="." horiz-adv-x="460" 
d="M231 -23q-70 0 -120 50.5t-50 119.5t50 118.5t120 49.5q69 0 118.5 -49.5t49.5 -118.5t-49.5 -119.5t-118.5 -50.5z" />
    <glyph glyph-name="slash" unicode="/" horiz-adv-x="935" 
d="M0 -287l655 1905h281l-655 -1905h-281z" />
    <glyph glyph-name="zero" unicode="0" horiz-adv-x="1329" 
d="M666 -23q-254 0 -401.5 157.5t-147.5 412.5v336q0 257 147.5 415t401.5 158q253 0 399.5 -158t146.5 -415v-336q0 -167 -64.5 -295.5t-189 -201.5t-292.5 -73zM399 551q0 -140 70.5 -221.5t196.5 -81.5q125 0 194.5 81.5t69.5 221.5v332q0 140 -69.5 221.5t-194.5 81.5
q-126 0 -196.5 -81.5t-70.5 -221.5v-332z" />
    <glyph glyph-name="one" unicode="1" horiz-adv-x="890" 
d="M360 0v1102l-243 -82v272l520 162v-1454h-277z" />
    <glyph glyph-name="two" unicode="2" horiz-adv-x="1202" 
d="M621 684q92 106 131 172.5t39 142.5q0 83 -55.5 138t-153.5 55q-95 0 -157.5 -64.5t-62.5 -164.5h-282q0 213 142 353t366 140q219 0 352 -121.5t133 -328.5q0 -127 -57 -235t-191 -261l-223 -250h502v-260h-1075z" />
    <glyph glyph-name="three" unicode="3" horiz-adv-x="1179" 
d="M584 -23q-233 0 -380.5 132t-150.5 337h281q1 -90 70.5 -147t177.5 -57q107 0 177 53t70 139q0 87 -75 138t-193 51h-112v235h112q101 0 164 48.5t63 123.5q0 74 -54 119t-156 45q-103 0 -164 -50.5t-62 -137.5h-280q2 191 143 321.5t367 130.5q112 0 205.5 -32t155 -87
t95 -128t33.5 -156q0 -104 -46.5 -181.5t-129.5 -125.5q217 -111 217 -351q0 -183 -148.5 -301.5t-379.5 -118.5z" />
    <glyph glyph-name="four" unicode="4" horiz-adv-x="1232" 
d="M29 291l575 1143h291l-434 -883h299v313h270v-313h209v-260h-209v-291h-270v291h-731z" />
    <glyph glyph-name="five" unicode="5" horiz-adv-x="1208" 
d="M627 -23q-218 0 -362.5 131t-145.5 330h282q2 -86 65 -141t161 -55q96 0 163.5 67.5t67.5 163.5q0 95 -70 164.5t-170 69.5q-157 0 -249 -103h-234l86 830h848v-260h-616l-31 -287q102 57 244 57q209 0 342 -132.5t133 -338.5q0 -104 -38 -195t-105 -157.5t-163.5 -105
t-207.5 -38.5z" />
    <glyph glyph-name="six" unicode="6" horiz-adv-x="1169" 
d="M584 -23q-227 0 -371.5 140t-144.5 354q0 92 32 177.5t113 207.5l381 578h317l-325 -494q231 12 373.5 -112t142.5 -351q0 -213 -146 -356.5t-372 -143.5zM350 477q0 -97 68.5 -166t165.5 -69t166 69t69 166t-69 165.5t-166 68.5t-165.5 -68.5t-68.5 -165.5z" />
    <glyph glyph-name="seven" unicode="7" horiz-adv-x="1021" 
d="M205 0l432 1174h-619v260h1010l-526 -1434h-297z" />
    <glyph glyph-name="eight" unicode="8" horiz-adv-x="1206" 
d="M604 -23q-237 0 -386.5 119.5t-149.5 304.5q0 120 61 209t170 140q-190 106 -190 311q0 168 138.5 281.5t356.5 113.5q217 0 355.5 -113.5t138.5 -281.5q0 -104 -51 -182.5t-140 -128.5q109 -51 170.5 -140t61.5 -209q0 -185 -150 -304.5t-385 -119.5zM350 424
q0 -90 67.5 -144.5t186.5 -54.5q117 0 184.5 54.5t67.5 144.5q0 91 -67.5 147t-184.5 56q-118 0 -186 -56t-68 -147zM383 1038q0 -75 60.5 -123.5t160.5 -48.5q98 0 158.5 48.5t60.5 123.5q0 76 -60.5 126t-158.5 50q-100 0 -160.5 -50t-60.5 -126z" />
    <glyph glyph-name="nine" unicode="9" horiz-adv-x="1169" 
d="M586 1456q227 0 371.5 -139.5t144.5 -353.5q0 -91 -32.5 -177t-113.5 -208l-381 -578h-317l326 494q-231 -12 -373.5 111.5t-142.5 350.5q0 213 146 356.5t372 143.5zM350 956q0 -96 69.5 -164.5t166.5 -68.5t165 68t68 165t-68.5 166.5t-164.5 69.5q-97 0 -166.5 -69.5
t-69.5 -166.5z" />
    <glyph glyph-name="colon" unicode=":" horiz-adv-x="460" 
d="M231 797q-70 0 -120 49.5t-50 118.5t50 119.5t120 50.5q69 0 118.5 -50.5t49.5 -119.5t-49.5 -118.5t-118.5 -49.5zM61 147q0 69 50 118.5t120 49.5q69 0 118.5 -49.5t49.5 -118.5t-49.5 -119.5t-118.5 -50.5q-70 0 -120 50.5t-50 119.5z" />
    <glyph glyph-name="semicolon" unicode=";" horiz-adv-x="460" 
d="M27 -211l84 506h297l-144 -506h-237zM61 965q0 69 50 119.5t120 50.5q69 0 118.5 -50.5t49.5 -119.5t-49.5 -118.5t-118.5 -49.5q-70 0 -120 49.5t-50 118.5z" />
    <glyph glyph-name="less" unicode="&#x3c;" horiz-adv-x="1253" 
d="M1212 205l-1171 426v203l1171 466v-260l-780 -303l780 -272v-260z" />
    <glyph glyph-name="equal" unicode="=" horiz-adv-x="1253" 
d="M41 408v241h1171v-241h-1171zM41 817v242h1171v-242h-1171z" />
    <glyph glyph-name="greater" unicode="&#x3e;" horiz-adv-x="1253" 
d="M41 205v260l780 272l-780 303v260l1171 -466v-203z" />
    <glyph glyph-name="question" unicode="?" horiz-adv-x="1048" 
d="M385 477q0 70 19 128.5t49.5 98t67 73t73 61t67 54.5t49.5 61t19 73q0 80 -54.5 126t-142.5 46q-97 0 -153.5 -51t-56.5 -131h-283q0 138 67.5 239t179.5 151t253 50q135 0 240.5 -45.5t169 -140t63.5 -226.5q0 -68 -20.5 -125.5t-53 -97.5t-72.5 -74.5t-79.5 -64
t-72 -59t-53 -67t-20.5 -79.5h-256zM344 147q0 69 49.5 118.5t118.5 49.5t119.5 -49.5t50.5 -118.5t-50.5 -119.5t-119.5 -50.5t-118.5 50.5t-49.5 119.5z" />
    <glyph glyph-name="at" unicode="@" horiz-adv-x="1900" 
d="M881 -285q-151 0 -282.5 43.5t-228 120.5t-165 179t-103 221.5t-34.5 246.5q0 168 50 315.5t140 259t210.5 192t265 122t300.5 41.5q233 0 414 -90.5t283 -260.5t102 -394q0 -115 -26.5 -216.5t-78.5 -183t-136.5 -129t-192.5 -47.5q-199 0 -252 156q-103 -156 -287 -156
q-159 0 -259.5 113.5t-100.5 304.5q0 92 32 177.5t88 150.5t139.5 104t180.5 39q161 0 240 -109l8 93h219l-53 -539q-13 -125 80 -125q72 0 120 99t48 247q0 116 -33 210t-88.5 156t-132 103.5t-159 59.5t-173.5 18q-139 0 -266 -45t-228.5 -130.5t-162 -222.5t-60.5 -307
q0 -274 165 -436t441 -162q167 0 346 62v-217q-179 -64 -370 -64zM729 555q0 -88 52.5 -145.5t138.5 -57.5q97 0 161 75t64 181q0 88 -51 143.5t-136 55.5q-97 0 -163 -73.5t-66 -178.5z" />
    <glyph glyph-name="A" unicode="A" horiz-adv-x="1570" 
d="M6 0l703 1434h159l697 -1434h-312l-133 285h-674l-135 -285h-305zM555 514h457l-228 483z" />
    <glyph glyph-name="B" unicode="B" horiz-adv-x="1488" 
d="M137 0v1434h785q193 0 311.5 -111t118.5 -281q0 -184 -144 -278q100 -50 156.5 -139.5t56.5 -204.5q0 -179 -130.5 -299.5t-329.5 -120.5h-824zM414 260h530q79 0 137 52t58 126q0 73 -58 125.5t-137 52.5h-530v-356zM414 860h489q77 0 122.5 46.5t45.5 113.5
q0 64 -45.5 109t-122.5 45h-489v-314z" />
    <glyph glyph-name="C" unicode="C" horiz-adv-x="1615" 
d="M819 -23q-208 0 -381 99t-271.5 269t-98.5 372q0 151 58 288t158 236t239.5 157t295.5 58q273 0 474.5 -165t254.5 -419h-293q-50 139 -168 224.5t-268 85.5q-194 0 -330.5 -135.5t-136.5 -329.5t136.5 -329.5t330.5 -135.5q151 0 268.5 85.5t165.5 225.5h295
q-53 -256 -254.5 -421t-474.5 -165z" />
    <glyph glyph-name="D" unicode="D" horiz-adv-x="1531" 
d="M731 0h-594v1434h594q152 0 288.5 -56.5t233.5 -152t154 -228.5t57 -280t-57 -280t-154 -228.5t-233.5 -152t-288.5 -56.5zM414 264h317q188 0 321.5 131.5t133.5 321.5t-133.5 322t-321.5 132h-317v-907z" />
    <glyph glyph-name="E" unicode="E" horiz-adv-x="1308" 
d="M137 0v1434h1073v-260h-796v-316h735v-254h-735v-344h817v-260h-1094z" />
    <glyph glyph-name="F" unicode="F" horiz-adv-x="1261" 
d="M137 0v1434h1069v-260h-792v-330h751v-256h-751v-588h-277z" />
    <glyph glyph-name="G" unicode="G" horiz-adv-x="1626" 
d="M819 -23q-208 0 -381 99t-271.5 269t-98.5 372q0 151 58 288t158 236t239.5 157t295.5 58q244 0 433.5 -129.5t267.5 -347.5h-316q-57 100 -155.5 153.5t-229.5 53.5q-194 0 -330.5 -136.5t-136.5 -332.5q0 -197 136.5 -334t330.5 -137q150 0 261 76t163 208h-444v248
h760v-51q0 -127 -36 -242.5t-103 -207.5t-157.5 -159.5t-204.5 -104t-239 -36.5z" />
    <glyph glyph-name="H" unicode="H" horiz-adv-x="1533" 
d="M137 0v1434h277v-543h706v543h277v-1434h-277v629h-706v-629h-277z" />
    <glyph glyph-name="I" unicode="I" horiz-adv-x="550" 
d="M137 0v1434h277v-1434h-277z" />
    <glyph glyph-name="J" unicode="J" horiz-adv-x="1105" 
d="M518 -23q-196 0 -331.5 136.5t-135.5 335.5h277q0 -89 54 -145t136 -56q81 0 135 56.5t54 144.5v985h276v-985q0 -199 -135.5 -335.5t-329.5 -136.5z" />
    <glyph glyph-name="K" unicode="K" horiz-adv-x="1396" 
d="M1075 0l-629 731l615 703h325l-606 -693l643 -741h-348zM137 0v1434h277v-1434h-277z" />
    <glyph glyph-name="L" unicode="L" horiz-adv-x="1153" 
d="M137 0v1434h277v-1170h719v-264h-996z" />
    <glyph glyph-name="M" unicode="M" horiz-adv-x="1787" 
d="M137 1434h166l602 -703l582 703h164v-1434h-277v893l-469 -555l-491 555v-893h-277v1434z" />
    <glyph glyph-name="N" unicode="N" horiz-adv-x="1548" 
d="M1411 0h-182l-815 911v-911h-277v1434h166l832 -912v912h276v-1434z" />
    <glyph glyph-name="O" unicode="O" horiz-adv-x="1636" 
d="M819 -23q-208 0 -381 99t-271.5 269t-98.5 372q0 151 58 288t158 236t239.5 157t295.5 58q155 0 294.5 -58t239 -157t158 -236t58.5 -288t-58.5 -288t-158 -236t-239 -157.5t-294.5 -58.5zM352 717q0 -194 136.5 -329.5t330.5 -135.5q193 0 329 135.5t136 329.5
t-136 329.5t-329 135.5q-194 0 -330.5 -135.5t-136.5 -329.5z" />
    <glyph glyph-name="P" unicode="P" horiz-adv-x="1378" 
d="M137 0v1434h701q137 0 248.5 -65t173 -174.5t61.5 -238.5t-61.5 -238t-173 -174t-248.5 -65h-424v-479h-277zM414 737h405q85 0 146 64t61 153q0 91 -61 155.5t-146 64.5h-405v-437z" />
    <glyph glyph-name="Q" unicode="Q" horiz-adv-x="1636" 
d="M819 -23q-208 0 -381 99t-271.5 269t-98.5 372q0 151 58 288t158 236t239.5 157t295.5 58q155 0 294.5 -58t239 -157t158 -236t58.5 -288q0 -157 -61.5 -296.5t-170.5 -242.5l215 -280h-317l-111 143q-144 -64 -305 -64zM352 717q0 -194 136.5 -329.5t330.5 -135.5
q193 0 329 135.5t136 329.5t-136 329.5t-329 135.5q-194 0 -330.5 -135.5t-136.5 -329.5z" />
    <glyph glyph-name="R" unicode="R" horiz-adv-x="1417" 
d="M1065 0l-274 479h-377v-479h-277v1434h701q137 0 248.5 -65t173 -174.5t61.5 -238.5q0 -136 -69.5 -250.5t-188.5 -173.5l305 -532h-303zM414 737h405q85 0 146 64t61 153q0 91 -61 155.5t-146 64.5h-405v-437z" />
    <glyph glyph-name="S" unicode="S" horiz-adv-x="1366" 
d="M702 -23q-303 0 -469 133t-174 349h281q2 -101 90 -165.5t264 -64.5q320 0 320 172q0 89 -81.5 131.5t-273.5 61.5q-106 12 -190 32t-155 54t-117.5 81.5t-72.5 114t-26 150.5q0 192 153.5 311t401.5 119q278 0 441 -126t174 -337h-281q-3 98 -94 154.5t-236 56.5
q-121 0 -199.5 -44t-78.5 -126q0 -76 81.5 -118t268.5 -62q291 -32 430 -132.5t139 -303.5q0 -204 -157 -322.5t-439 -118.5z" />
    <glyph glyph-name="T" unicode="T" horiz-adv-x="1249" 
d="M487 0v1174h-469v260h1213v-260h-467v-1174h-277z" />
    <glyph glyph-name="U" unicode="U" horiz-adv-x="1501" 
d="M750 -23q-178 0 -320.5 76.5t-224.5 219.5t-82 329v832h276v-832q0 -157 97 -253.5t254 -96.5q158 0 254 96.5t96 253.5v832h276v-832q0 -280 -177 -452.5t-449 -172.5z" />
    <glyph glyph-name="V" unicode="V" horiz-adv-x="1462" 
d="M659 -61l-647 1495h314l422 -1028l399 1028h301l-629 -1495h-160z" />
    <glyph glyph-name="W" unicode="W" horiz-adv-x="2048" 
d="M1556 0h-172l-360 1008l-362 -1008h-170l-486 1434h299l295 -912l330 912h188l328 -912l297 912h297z" />
    <glyph glyph-name="X" unicode="X" horiz-adv-x="1425" 
d="M14 0l523 741l-504 693h332l358 -490l338 490h321l-499 -711l528 -723h-334l-379 518l-362 -518h-322z" />
    <glyph glyph-name="Y" unicode="Y" horiz-adv-x="1353" 
d="M549 0v494l-553 940h317l379 -656l359 656h307l-533 -936v-498h-276z" />
    <glyph glyph-name="Z" unicode="Z" horiz-adv-x="1267" 
d="M18 0l742 1174h-680v260h1171l-743 -1174h729v-260h-1219z" />
    <glyph glyph-name="bracketleft" unicode="[" horiz-adv-x="688" 
d="M137 -283v1901h510v-260h-233v-1381h233v-260h-510z" />
    <glyph glyph-name="backslash" unicode="\" horiz-adv-x="935" 
d="M936 -287h-281l-655 1905h281z" />
    <glyph glyph-name="bracketright" unicode="]" horiz-adv-x="688" 
d="M41 -283v260h233v1381h-233v260h510v-1901h-510z" />
    <glyph glyph-name="asciicircum" unicode="^" horiz-adv-x="1064" 
d="M20 717l410 717h207l407 -717h-299l-213 424l-210 -424h-302z" />
    <glyph glyph-name="underscore" unicode="_" horiz-adv-x="692" 
d="M0 -260v260h692v-260h-692z" />
    <glyph glyph-name="grave" unicode="`" horiz-adv-x="454" 
d="M455 1249h-199l-250 355h301z" />
    <glyph glyph-name="a" unicode="a" 
d="M602 -23q-151 0 -276.5 77.5t-197 210.5t-71.5 292q0 157 71.5 290t197 210.5t276.5 77.5q220 0 356 -172v149h267v-1112h-267v150q-136 -173 -356 -173zM342 557q0 -129 89 -219t218 -90t219 90t90 219q0 128 -90 217.5t-219 89.5t-218 -89.5t-89 -217.5z" />
    <glyph glyph-name="b" unicode="b" 
d="M389 977q135 158 346 158q151 0 276.5 -77.5t197 -210.5t71.5 -290q0 -159 -71.5 -292t-197 -210.5t-276.5 -77.5q-220 0 -356 173v-150h-266v1556h276v-579zM379 557q0 -129 90 -219t219 -90t218 90t89 219q0 128 -89 217.5t-218 89.5t-219 -89.5t-90 -217.5z" />
    <glyph glyph-name="c" unicode="c" horiz-adv-x="1261" 
d="M647 -23q-162 0 -298 77.5t-214 210.5t-78 292q0 157 78 290t214 210.5t298 77.5q216 0 376 -131t194 -332h-291q-30 84 -106.5 138t-172.5 54q-128 0 -218.5 -90t-90.5 -217t91 -218t218 -91q96 0 172.5 54t106.5 138h291q-34 -200 -194.5 -331.5t-375.5 -131.5z" />
    <glyph glyph-name="d" unicode="d" 
d="M948 1556h277v-1556h-267v150q-136 -173 -356 -173q-151 0 -276.5 77.5t-197 210.5t-71.5 292q0 157 71.5 290t197 210.5t276.5 77.5q211 0 346 -158v579zM342 557q0 -129 89 -219t218 -90t219 90t90 219q0 128 -90 217.5t-219 89.5t-218 -89.5t-89 -217.5z" />
    <glyph glyph-name="e" unicode="e" horiz-adv-x="1269" 
d="M639 -23q-164 0 -298 77.5t-209 210.5t-75 292q0 118 44.5 224.5t121 184.5t185 123.5t231.5 45.5q163 0 295 -73.5t206 -200.5t74 -281q0 -54 -12 -109h-860q24 -107 102 -173.5t193 -66.5q84 0 140 29t102 86h301q-66 -167 -209 -268t-332 -101zM352 688h572
q-31 95 -106 150t-179 55t-180 -55t-107 -150z" />
    <glyph glyph-name="f" unicode="f" horiz-adv-x="700" 
d="M186 0v856h-155v256h155v70q0 184 98 279t267 95h127v-245h-111q-48 0 -76 -34t-28 -95v-70h215v-256h-215v-856h-277z" />
    <glyph glyph-name="g" unicode="g" 
d="M647 -430q-199 0 -348 101.5t-209 267.5h297q33 -56 100.5 -91.5t155.5 -35.5q137 0 226 95.5t89 231.5v58q-135 -168 -358 -168q-152 0 -277 74.5t-195.5 201t-70.5 277.5q0 112 42 214t114 176.5t173.5 118.5t215.5 44q221 0 356 -168v145h267v-969q0 -157 -74.5 -288
t-207.5 -208t-296 -77zM342 582q0 -127 88 -209t219 -82t220 82t89 209t-89 208.5t-220 81.5t-219 -81.5t-88 -208.5z" />
    <glyph glyph-name="h" unicode="h" horiz-adv-x="1273" 
d="M115 0v1556h276v-569q116 148 322 148q209 0 327.5 -134.5t118.5 -355.5v-645h-276v618q0 104 -68 176t-170 72q-103 0 -178.5 -73t-75.5 -175v-618h-276z" />
    <glyph glyph-name="i" unicode="i" horiz-adv-x="503" 
d="M115 0v1112h276v-1112h-276zM86 1427q0 67 49 116.5t117 49.5t117 -49.5t49 -116.5q0 -69 -49 -117t-117 -48t-117 48t-49 117z" />
    <glyph glyph-name="j" unicode="j" horiz-adv-x="503" 
d="M-29 -410v256h37q48 0 77.5 34t29.5 93v1139h276v-1147q0 -183 -98.5 -279t-267.5 -96h-54zM86 1427q0 67 49 116.5t117 49.5t117 -49.5t49 -116.5q0 -69 -49 -117t-117 -48t-117 48t-49 117z" />
    <glyph glyph-name="k" unicode="k" horiz-adv-x="1163" 
d="M840 0l-428 578l422 534h313l-422 -518l442 -594h-327zM115 0v1556h276v-1556h-276z" />
    <glyph glyph-name="l" unicode="l" horiz-adv-x="503" 
d="M115 0v1556h276v-1556h-276z" />
    <glyph glyph-name="m" unicode="m" horiz-adv-x="1863" 
d="M115 0v1112h262v-102q120 123 291 123q105 0 194.5 -50.5t143.5 -138.5q56 88 146 138.5t196 50.5q169 0 286 -119t117 -299v-715h-276v657q0 86 -59.5 146.5t-141.5 60.5q-85 0 -144 -60.5t-59 -146.5v-657h-276v657q0 86 -59 146.5t-142 60.5q-86 0 -144.5 -60
t-58.5 -147v-657h-276z" />
    <glyph glyph-name="n" unicode="n" horiz-adv-x="1273" 
d="M115 0v1112h262v-141q121 164 336 164q209 0 327.5 -134.5t118.5 -355.5v-645h-276v618q0 104 -68 176t-170 72q-103 0 -178.5 -73t-75.5 -175v-618h-276z" />
    <glyph glyph-name="o" unicode="o" horiz-adv-x="1294" 
d="M647 -23q-162 0 -298 77.5t-214 210.5t-78 292q0 157 78 290t214 210.5t298 77.5t298 -77.5t214 -210.5t78 -290q0 -159 -78 -292t-214 -210.5t-298 -77.5zM338 557q0 -127 91 -218t218 -91t217 90.5t90 218.5q0 127 -90 217t-217 90q-128 0 -218.5 -90t-90.5 -217z" />
    <glyph glyph-name="p" unicode="p" 
d="M115 -410v1522h264v-149q136 172 356 172q151 0 276.5 -77.5t197 -210.5t71.5 -290q0 -159 -71.5 -292t-197 -210.5t-276.5 -77.5q-212 0 -344 158v-545h-276zM381 557q0 -129 89 -219t218 -90t218 90t89 219q0 128 -89 217.5t-218 89.5t-218 -89.5t-89 -217.5z" />
    <glyph glyph-name="q" unicode="q" 
d="M1223 -410h-277v545q-132 -158 -344 -158q-151 0 -276.5 77.5t-197 210.5t-71.5 292q0 157 71.5 290t197 210.5t276.5 77.5q220 0 356 -172v149h265v-1522zM342 557q0 -129 89 -219t218 -90t218 90t89 219q0 128 -89 217.5t-218 89.5t-218 -89.5t-89 -217.5z" />
    <glyph glyph-name="r" unicode="r" horiz-adv-x="716" 
d="M115 0v1112h262v-215q87 256 307 238v-340q-55 22 -107.5 16t-94 -30t-66.5 -77t-25 -126v-578h-276z" />
    <glyph glyph-name="s" unicode="s" horiz-adv-x="1064" 
d="M541 -23q-226 0 -356.5 107.5t-139.5 277.5h279q3 -66 56.5 -110.5t156.5 -44.5q206 0 206 108q0 54 -60.5 78t-213.5 49q-195 29 -299 111.5t-104 234.5q0 157 125 252t331 95q198 0 328 -99t139 -264h-278q-3 58 -49 97.5t-138 39.5t-138 -26t-46 -72q0 -55 58.5 -83.5
t199.5 -51.5q78 -13 136.5 -28.5t115 -43t92 -64.5t57 -92t21.5 -126q0 -152 -132 -248.5t-347 -96.5z" />
    <glyph glyph-name="t" unicode="t" horiz-adv-x="710" 
d="M530 0q-169 0 -266.5 95.5t-97.5 277.5v483h-156v256h156v201l276 80v-281h234v-256h-234v-473q0 -59 28.5 -93t76.5 -34h129v-256h-146z" />
    <glyph glyph-name="u" unicode="u" horiz-adv-x="1228" 
d="M614 -23q-102 0 -196 39t-163.5 105.5t-111 161.5t-41.5 202v627h277v-631q0 -97 68.5 -166t166.5 -69q99 0 167.5 69t68.5 166v631h276v-627q0 -107 -41.5 -202t-111 -161.5t-163.5 -105.5t-196 -39z" />
    <glyph glyph-name="v" unicode="v" horiz-adv-x="1187" 
d="M453 0l-445 1112h307l285 -786l281 786h299l-439 -1112h-288z" />
    <glyph glyph-name="w" unicode="w" horiz-adv-x="1740" 
d="M330 0l-322 1112h297l193 -795l227 795h293l227 -795l195 795h291l-318 -1112h-309l-234 791l-233 -791h-307z" />
    <glyph glyph-name="x" unicode="x" horiz-adv-x="1187" 
d="M10 0l416 563l-418 549h324l266 -348l256 348h315l-419 -551l428 -561h-324l-274 358l-254 -358h-316z" />
    <glyph glyph-name="y" unicode="y" horiz-adv-x="1173" 
d="M229 -410l217 510l-448 1012h307l293 -694l270 694h297l-639 -1522h-297z" />
    <glyph glyph-name="z" unicode="z" horiz-adv-x="1089" 
d="M23 0l552 856h-512v256h992l-553 -856h532v-256h-1011z" />
    <glyph glyph-name="braceleft" unicode="{" horiz-adv-x="706" 
d="M559 -287q-163 0 -277 111.5t-114 275.5v314q0 54 -41.5 88.5t-122.5 34.5v270q81 0 122.5 34.5t41.5 88.5v301q0 164 114 275.5t277 111.5h105v-260h-93q-52 0 -89.5 -37t-37.5 -92v-311q0 -165 -137 -246q137 -81 137 -246v-324q0 -55 37.5 -92t89.5 -37h95v-260h-107z
" />
    <glyph glyph-name="bar" unicode="|" horiz-adv-x="688" 
d="M207 -287v1905h276v-1905h-276z" />
    <glyph glyph-name="braceright" unicode="}" horiz-adv-x="706" 
d="M41 -287v260h94q52 0 89.5 37t37.5 92v324q0 165 137 246q-137 81 -137 246v311q0 55 -37.5 92t-89.5 37h-92v260h104q163 0 277.5 -111.5t114.5 -275.5v-301q0 -54 41 -88.5t122 -34.5v-270q-81 0 -122 -34.5t-41 -88.5v-314q0 -164 -114.5 -275.5t-277.5 -111.5h-106z
" />
    <glyph glyph-name="asciitilde" unicode="~" horiz-adv-x="1253" 
d="M874 571q-74 0 -167 26.5t-172.5 52.5t-120.5 26q-67 0 -94.5 -24t-30.5 -70h-248q7 152 104.5 245t241.5 93q73 0 165 -26t170.5 -52.5t119.5 -26.5q68 0 95 23.5t30 70.5h245q-7 -153 -101 -245.5t-237 -92.5z" />
    <glyph glyph-name="uni00A0" unicode="&#xa0;" horiz-adv-x="444" 
 />
    <glyph glyph-name="exclamdown" unicode="&#xa1;" horiz-adv-x="460" 
d="M92 -322l10 959h256l11 -959h-277zM61 965q0 69 50 119.5t120 50.5q69 0 118.5 -50.5t49.5 -119.5t-49.5 -118.5t-118.5 -49.5q-70 0 -120 49.5t-50 118.5z" />
    <glyph glyph-name="cent" unicode="&#xa2;" horiz-adv-x="1261" 
d="M453 -205l18 209q-183 55 -298.5 206.5t-115.5 346.5q0 219 146 381.5t366 191.5l15 181h243l-16 -199q159 -43 268.5 -162t137.5 -278h-291q-30 84 -106.5 138t-172.5 54q-128 0 -218.5 -90t-90.5 -217t91 -218t218 -91q96 0 172.5 54t106.5 138h291
q-31 -183 -171 -310.5t-333 -147.5l-17 -187h-243z" />
    <glyph glyph-name="sterling" unicode="&#xa3;" horiz-adv-x="1296" 
d="M106 211q143 135 156 350h-192v217h151q-1 2 -6 19.5l-6 21t-6 19.5t-6 21.5t-5 20.5t-5 23t-3.5 22t-3 24t-1.5 23t-1 25q0 113 39.5 201.5t109.5 144.5t164 84.5t207 28.5q228 0 365 -137t137 -350h-278q0 102 -60.5 165.5t-165.5 63.5q-113 0 -174 -54t-61 -155
q0 -93 43 -211h559v-217h-518q-3 -89 -30.5 -157t-98.5 -146h805v-258h-1115v211z" />
    <glyph glyph-name="currency" unicode="&#xa4;" horiz-adv-x="1261" 
d="M633 240q-152 0 -277 86l-166 -166l-129 129l168 166q-86 119 -86 272q0 150 86 277l-170 172l125 127l174 -175q125 86 275 86q148 0 272 -81l166 165l129 -129l-166 -165q88 -125 88 -277q0 -149 -86 -276l168 -168l-127 -127l-168 168q-127 -84 -276 -84zM328 727
q0 -129 88 -217t217 -88q131 -1 218 87t87 218q0 131 -87 219t-218 88q-129 0 -217 -88.5t-88 -218.5z" />
    <glyph glyph-name="yen" unicode="&#xa5;" horiz-adv-x="1353" 
d="M203 494v165h248l-455 775h317l379 -656l359 656h307l-440 -775h231v-165h-324v-115h324v-166h-324v-213h-276v213h-346v166h346v115h-346z" />
    <glyph glyph-name="brokenbar" unicode="&#xa6;" horiz-adv-x="688" 
d="M207 739v879h276v-879h-276zM207 -287v879h276v-879h-276z" />
    <glyph glyph-name="section" unicode="&#xa7;" horiz-adv-x="1054" 
d="M539 -174q-225 0 -355 106t-139 277h281q2 -64 54.5 -109t154.5 -45q101 0 149.5 32t48.5 77q0 22 -12 39.5t-29.5 29t-54 22t-66.5 17t-86 17.5q-76 14 -132.5 30t-113 43.5t-92.5 63t-58.5 89t-22.5 120.5q0 151 120 239q-116 82 -116 238t124 250t330 94
q197 0 326 -96.5t141 -261.5h-280q0 55 -47 94t-140 39q-90 0 -137 -29.5t-47 -73.5q0 -49 57 -74.5t199 -52.5q48 -10 78.5 -17.5t78.5 -23.5t79.5 -32.5t68.5 -44.5t58.5 -61t36 -79.5t14.5 -101.5q0 -138 -119 -227q119 -87 119 -246q0 -146 -130 -244t-341 -98zM338 666
q0 -57 57 -87t189 -57q77 7 113 37.5t36 71.5q0 55 -56 84t-177 53q-79 -4 -120.5 -32.5t-41.5 -69.5z" />
    <glyph glyph-name="dieresis" unicode="&#xa8;" horiz-adv-x="739" 
d="M150 1264q-68 0 -117 47.5t-49 115.5q0 67 49 115.5t117 48.5q66 0 114.5 -48.5t48.5 -115.5q0 -68 -48 -115.5t-115 -47.5zM428 1427q0 67 48 115.5t116 48.5t116 -48.5t48 -115.5q0 -69 -48 -116t-116 -47t-116 47t-48 116z" />
    <glyph glyph-name="copyright" unicode="&#xa9;" horiz-adv-x="1617" 
d="M809 -20q-155 0 -293 58t-236 156.5t-155 234.5t-57 288t57 288t155 234.5t236 156.5t293 58t293 -58t236 -156.5t155 -234.5t57 -288t-57 -288t-155 -234.5t-236 -156.5t-293 -58zM172 717q0 -184 83 -329t228 -225.5t326 -80.5q179 0 324 80.5t228 226t83 328.5
q0 175 -82.5 321t-228.5 231t-324 85q-179 0 -325.5 -85t-229 -231t-82.5 -321zM385 717q0 175 123.5 296.5t304.5 121.5q157 0 273 -93t145 -239h-168q-27 79 -95 128.5t-155 49.5q-110 0 -188 -77t-78 -187t78 -188t188 -78q87 0 155 49.5t95 128.5h168
q-30 -144 -146 -238t-272 -94q-181 0 -304.5 122t-123.5 298z" />
    <glyph glyph-name="guillemotleft" unicode="&#xab;" horiz-adv-x="1300" 
d="M948 0l-434 557l434 555h322l-434 -555l434 -557h-322zM31 557l434 555h321l-434 -555l434 -557h-321z" />
    <glyph glyph-name="logicalnot" unicode="&#xac;" horiz-adv-x="1253" 
d="M961 383v229h-920v242h1171v-471h-251z" />
    <glyph glyph-name="registered" unicode="&#xae;" horiz-adv-x="1617" 
d="M809 -20q-155 0 -293 58t-236 156.5t-155 234.5t-57 288t57 288t155 234.5t236 156.5t293 58t293 -58t236 -156.5t155 -234.5t57 -288t-57 -288t-155 -234.5t-236 -156.5t-293 -58zM172 717q0 -184 83 -329t228 -225.5t326 -80.5q179 0 324 80.5t228 226t83 328.5
q0 175 -82.5 321t-228.5 231t-324 85q-179 0 -325.5 -85t-229 -231t-82.5 -321zM502 309v815h403q114 0 189 -77t75 -183q0 -78 -42.5 -143t-114.5 -94l176 -318h-172l-164 295h-193v-295h-157zM659 752h236q46 0 80.5 33t34.5 77q0 47 -34.5 80t-80.5 33h-236v-223z" />
    <glyph glyph-name="macron" unicode="&#xaf;" horiz-adv-x="698" 
d="M0 1298v207h698v-207h-698z" />
    <glyph glyph-name="degree" unicode="&#xb0;" horiz-adv-x="702" 
d="M352 823q-136 0 -228.5 91.5t-92.5 222.5q0 134 92.5 226.5t228.5 92.5q135 0 227.5 -92.5t92.5 -226.5q0 -131 -92.5 -222.5t-227.5 -91.5zM215 1137q0 -55 40 -94t97 -39q56 0 95.5 39t39.5 94q0 57 -40 98t-95 41q-57 0 -97 -41t-40 -98z" />
    <glyph glyph-name="plusminus" unicode="&#xb1;" horiz-adv-x="1253" 
d="M506 289v465h-465v241h465v465h242v-465h464v-241h-464v-465h-242zM41 -2v242h1171v-242h-1171z" />
    <glyph glyph-name="acute" unicode="&#xb4;" horiz-adv-x="454" 
d="M0 1249l147 355h302l-250 -355h-199z" />
    <glyph glyph-name="uni00B5" unicode="&#xb5;" horiz-adv-x="1253" 
d="M569 -23q-100 0 -178 35v-422h-276v1522h276v-631q0 -112 63.5 -173.5t163.5 -61.5q98 0 171 67.5t73 167.5v631h277v-1112h-262v123q-110 -146 -308 -146z" />
    <glyph glyph-name="paragraph" unicode="&#xb6;" horiz-adv-x="1462" 
d="M633 -205v723h-115q-127 0 -233.5 62t-167 166.5t-60.5 228.5q0 189 134 324t327 135h807v-1639h-270v1403h-152v-1403h-270z" />
    <glyph glyph-name="periodcentered" unicode="&#xb7;" horiz-adv-x="460" 
d="M231 408q-70 0 -120 50.5t-50 119.5t50 118t120 49q69 0 118.5 -49t49.5 -118t-49.5 -119.5t-118.5 -50.5z" />
    <glyph glyph-name="cedilla" unicode="&#xb8;" horiz-adv-x="1136" 
d="M502 -430q-50 0 -95 5t-65 10l-20 5v138q227 -44 227 16q0 25 -41.5 37.5t-138.5 15.5l26 320h156l-14 -170q247 -20 247 -180q0 -98 -75.5 -147.5t-206.5 -49.5z" />
    <glyph glyph-name="guillemotright" unicode="&#xbb;" horiz-adv-x="1300" 
d="M514 0l434 557l-434 555h322l434 -555l-434 -557h-322zM31 0l434 557l-434 555h321l434 -555l-434 -557h-321z" />
    <glyph glyph-name="onequarter" unicode="&#xbc;" horiz-adv-x="2125" 
d="M274 430v737l-165 -57v215l389 123v-1018h-224zM541 0l655 1434h231l-655 -1434h-231zM1257 193l394 811h229l-287 -605h191v205h211v-205h131v-206h-131v-193h-211v193h-527z" />
    <glyph glyph-name="onehalf" unicode="&#xbd;" horiz-adv-x="2140" 
d="M274 430v737l-165 -57v215l389 123v-1018h-224zM541 0l655 1434h231l-655 -1434h-231zM1294 0l428 502q55 63 79 103.5t24 88.5q0 52 -34.5 86.5t-96.5 34.5q-60 0 -97.5 -42t-37.5 -109h-228q0 153 102.5 254.5t270.5 101.5q161 0 254.5 -85t93.5 -230q0 -89 -37.5 -163
t-126.5 -177l-139 -160h326v-205h-781z" />
    <glyph glyph-name="threequarters" unicode="&#xbe;" horiz-adv-x="2281" 
d="M422 414q-170 0 -276 95t-111 247h225q2 -60 45.5 -99t112.5 -39q67 0 110 33.5t43 89.5t-46.5 87.5t-123.5 31.5h-67v176h67q65 0 103.5 30t38.5 77q0 46 -33.5 74t-97.5 28t-102.5 -31t-39.5 -86h-225q3 135 105.5 229.5t267.5 94.5q164 0 258 -82t94 -203
q0 -140 -117 -215q146 -78 146 -243q0 -129 -105 -212t-272 -83zM696 0l656 1434h231l-655 -1434h-232zM1415 193l393 811h230l-287 -605h191v205h210v-205h132v-206h-132v-193h-210v193h-527z" />
    <glyph glyph-name="questiondown" unicode="&#xbf;" horiz-adv-x="1048" 
d="M510 -344q-208 0 -339.5 107.5t-131.5 304.5q0 68 20.5 125.5t53 97.5t72 74.5t79.5 64.5t72.5 59.5t53 67t20.5 80.5h256q0 -71 -19 -129.5t-49.5 -98t-67 -73.5t-73 -61.5t-67 -54.5t-49.5 -61t-19 -73q0 -80 53 -125t141 -45q98 0 155.5 50t57.5 130h283
q0 -137 -68 -238.5t-180.5 -151.5t-253.5 -50zM367 965q0 69 50.5 119.5t119.5 50.5t118.5 -50.5t49.5 -119.5t-49.5 -118.5t-118.5 -49.5t-119.5 49.5t-50.5 118.5z" />
    <glyph glyph-name="Agrave" unicode="&#xc0;" horiz-adv-x="1570" 
d="M6 0l703 1434h159l697 -1434h-312l-133 285h-674l-135 -285h-305zM479 1925h301l148 -354h-199zM555 514h457l-228 483z" />
    <glyph glyph-name="Aacute" unicode="&#xc1;" horiz-adv-x="1570" 
d="M6 0l703 1434h159l697 -1434h-312l-133 285h-674l-135 -285h-305zM555 514h457l-228 483zM657 1571l148 354h301l-250 -354h-199z" />
    <glyph glyph-name="Acircumflex" unicode="&#xc2;" horiz-adv-x="1570" 
d="M6 0l703 1434h159l697 -1434h-312l-133 285h-674l-135 -285h-305zM467 1542v225l317 172l316 -172v-225l-316 170zM555 514h457l-228 483z" />
    <glyph glyph-name="Atilde" unicode="&#xc3;" horiz-adv-x="1570" 
d="M6 0l703 1434h159l697 -1434h-312l-133 285h-674l-135 -285h-305zM403 1595q7 144 76.5 215.5t182.5 71.5q44 0 81 -15.5t57.5 -33.5t45.5 -33.5t47 -15.5q64 0 70 88h200q-7 -139 -74 -213t-178 -74q-44 0 -82.5 15.5t-60 33.5t-46.5 33.5t-46 15.5q-64 0 -70 -88h-203z
M555 514h457l-228 483z" />
    <glyph glyph-name="Adieresis" unicode="&#xc4;" horiz-adv-x="1570" 
d="M6 0l703 1434h159l697 -1434h-312l-133 285h-674l-135 -285h-305zM397 1749q0 67 49 115.5t117 48.5q66 0 115 -48.5t49 -115.5q0 -68 -48.5 -116t-115.5 -48q-68 0 -117 48t-49 116zM555 514h457l-228 483zM842 1749q0 67 48 115.5t116 48.5q67 0 115 -48t48 -116
q0 -69 -47.5 -116.5t-115.5 -47.5t-116 47.5t-48 116.5z" />
    <glyph glyph-name="Aring" unicode="&#xc5;" horiz-adv-x="1558" 
d="M6 0l682 1393q-69 25 -112.5 86.5t-43.5 136.5q0 98 69 167.5t169 69.5q98 0 167 -69.5t69 -167.5q0 -67 -33.5 -122.5t-91.5 -86.5l684 -1407h-312l-133 285h-674l-135 -285h-305zM555 514h457l-228 483zM690 1618q0 -34 23 -57t57 -23q33 0 56.5 23.5t23.5 56.5
q0 32 -24 56t-56 24q-33 0 -56.5 -23.5t-23.5 -56.5z" />
    <glyph glyph-name="AE" unicode="&#xc6;" horiz-adv-x="2220" 
d="M-2 0l1096 1434h1028v-260h-752v-316h690v-254h-690v-344h772v-260h-1048v264h-555l-197 -264h-344zM713 498h381v514z" />
    <glyph glyph-name="Ccedilla" unicode="&#xc7;" horiz-adv-x="1615" 
d="M856 -430q-50 0 -95 5t-65 10l-20 5v138q227 -44 227 16q0 25 -41.5 37.5t-138.5 15.5l14 185q-189 19 -342 121t-240 263.5t-87 350.5q0 151 58 288t158 236t239.5 157t295.5 58q273 0 474.5 -165t254.5 -419h-293q-50 139 -168 224.5t-268 85.5q-194 0 -330.5 -135.5
t-136.5 -329.5t136.5 -329.5t330.5 -135.5q151 0 268.5 85.5t165.5 225.5h295q-50 -237 -228 -397.5t-425 -183.5l-4 -35q248 -20 248 -180q0 -98 -76 -147.5t-207 -49.5z" />
    <glyph glyph-name="Egrave" unicode="&#xc8;" horiz-adv-x="1308" 
d="M137 0v1434h1073v-260h-796v-316h735v-254h-735v-344h817v-260h-1094zM401 1925h301l148 -354h-199z" />
    <glyph glyph-name="Eacute" unicode="&#xc9;" horiz-adv-x="1308" 
d="M137 0v1434h1073v-260h-796v-316h735v-254h-735v-344h817v-260h-1094zM580 1571l147 354h301l-250 -354h-198z" />
    <glyph glyph-name="Ecircumflex" unicode="&#xca;" horiz-adv-x="1308" 
d="M137 0v1434h1073v-260h-796v-316h735v-254h-735v-344h817v-260h-1094zM389 1542v225l318 172l315 -172v-225l-315 170z" />
    <glyph glyph-name="Edieresis" unicode="&#xcb;" horiz-adv-x="1308" 
d="M137 0v1434h1073v-260h-796v-316h735v-254h-735v-344h817v-260h-1094zM322 1749q0 68 48 116t115 48q66 0 115 -48.5t49 -115.5q0 -68 -48.5 -116t-115.5 -48q-68 0 -115.5 47.5t-47.5 116.5zM764 1749q0 67 49 115.5t115 48.5q68 0 116 -48.5t48 -115.5
q0 -69 -48 -116.5t-116 -47.5q-67 0 -115.5 48t-48.5 116z" />
    <glyph glyph-name="Igrave" unicode="&#xcc;" horiz-adv-x="550" 
d="M137 0v1434h277v-1434h-277zM-29 1925h301l148 -354h-199z" />
    <glyph glyph-name="Iacute" unicode="&#xcd;" horiz-adv-x="550" 
d="M137 0v1434h277v-1434h-277zM150 1571l147 354h301l-250 -354h-198z" />
    <glyph glyph-name="Icircumflex" unicode="&#xce;" horiz-adv-x="550" 
d="M137 0v1434h277v-1434h-277zM-41 1542v225l317 172l316 -172v-225l-316 170z" />
    <glyph glyph-name="Idieresis" unicode="&#xcf;" horiz-adv-x="550" 
d="M137 0v1434h277v-1434h-277zM-111 1749q0 67 49 115.5t117 48.5q66 0 115 -48.5t49 -115.5q0 -68 -48.5 -116t-115.5 -48q-68 0 -117 48t-49 116zM334 1749q0 67 48 115.5t116 48.5t116 -48.5t48 -115.5q0 -69 -48 -116.5t-116 -47.5t-116 47.5t-48 116.5z" />
    <glyph glyph-name="Eth" unicode="&#xd0;" horiz-adv-x="1515" 
d="M12 635v207h125v592h594q152 0 288.5 -56.5t233.5 -152t154 -228.5t57 -280t-57 -280t-154 -228.5t-233.5 -152t-288.5 -56.5h-594v635h-125zM414 264h317q188 0 321.5 131.5t133.5 321.5t-133.5 322t-321.5 132h-317v-329h331v-207h-331v-371z" />
    <glyph glyph-name="Ntilde" unicode="&#xd1;" horiz-adv-x="1548" 
d="M1411 0h-182l-815 911v-911h-277v1434h166l832 -912v912h276v-1434zM403 1595q7 144 76.5 215.5t182.5 71.5q44 0 81 -15.5t57.5 -33.5t45.5 -33.5t47 -15.5q64 0 70 88h200q-7 -139 -74 -213t-178 -74q-44 0 -82.5 15.5t-60 33.5t-46.5 33.5t-46 15.5q-64 0 -70 -88
h-203z" />
    <glyph glyph-name="Ograve" unicode="&#xd2;" horiz-adv-x="1636" 
d="M819 -23q-208 0 -381 99t-271.5 269t-98.5 372q0 151 58 288t158 236t239.5 157t295.5 58q155 0 294.5 -58t239 -157t158 -236t58.5 -288t-58.5 -288t-158 -236t-239 -157.5t-294.5 -58.5zM352 717q0 -194 136.5 -329.5t330.5 -135.5q193 0 329 135.5t136 329.5
t-136 329.5t-329 135.5q-194 0 -330.5 -135.5t-136.5 -329.5zM514 1925h301l148 -354h-199z" />
    <glyph glyph-name="Oacute" unicode="&#xd3;" horiz-adv-x="1636" 
d="M819 -23q-208 0 -381 99t-271.5 269t-98.5 372q0 151 58 288t158 236t239.5 157t295.5 58q155 0 294.5 -58t239 -157t158 -236t58.5 -288t-58.5 -288t-158 -236t-239 -157.5t-294.5 -58.5zM352 717q0 -194 136.5 -329.5t330.5 -135.5q193 0 329 135.5t136 329.5
t-136 329.5t-329 135.5q-194 0 -330.5 -135.5t-136.5 -329.5zM692 1571l148 354h301l-250 -354h-199z" />
    <glyph glyph-name="Ocircumflex" unicode="&#xd4;" horiz-adv-x="1636" 
d="M819 -23q-208 0 -381 99t-271.5 269t-98.5 372q0 151 58 288t158 236t239.5 157t295.5 58q155 0 294.5 -58t239 -157t158 -236t58.5 -288t-58.5 -288t-158 -236t-239 -157.5t-294.5 -58.5zM352 717q0 -194 136.5 -329.5t330.5 -135.5q193 0 329 135.5t136 329.5
t-136 329.5t-329 135.5q-194 0 -330.5 -135.5t-136.5 -329.5zM502 1542v225l317 172l316 -172v-225l-316 170z" />
    <glyph glyph-name="Otilde" unicode="&#xd5;" horiz-adv-x="1636" 
d="M819 -23q-208 0 -381 99t-271.5 269t-98.5 372q0 151 58 288t158 236t239.5 157t295.5 58q155 0 294.5 -58t239 -157t158 -236t58.5 -288t-58.5 -288t-158 -236t-239 -157.5t-294.5 -58.5zM352 717q0 -194 136.5 -329.5t330.5 -135.5q193 0 329 135.5t136 329.5
t-136 329.5t-329 135.5q-194 0 -330.5 -135.5t-136.5 -329.5zM438 1595q7 144 76 215.5t182 71.5q44 0 81 -15.5t58 -33.5t46 -33.5t47 -15.5q63 0 69 88h201q-7 -139 -74 -213t-178 -74q-44 0 -82.5 15.5t-60 33.5t-46.5 33.5t-46 15.5q-64 0 -70 -88h-203z" />
    <glyph glyph-name="Odieresis" unicode="&#xd6;" horiz-adv-x="1636" 
d="M819 -23q-208 0 -381 99t-271.5 269t-98.5 372q0 151 58 288t158 236t239.5 157t295.5 58q155 0 294.5 -58t239 -157t158 -236t58.5 -288t-58.5 -288t-158 -236t-239 -157.5t-294.5 -58.5zM352 717q0 -194 136.5 -329.5t330.5 -135.5q193 0 329 135.5t136 329.5
t-136 329.5t-329 135.5q-194 0 -330.5 -135.5t-136.5 -329.5zM432 1749q0 67 49 115.5t117 48.5q66 0 115 -48.5t49 -115.5q0 -68 -48.5 -116t-115.5 -48q-68 0 -117 48t-49 116zM877 1749q0 68 48 116t115 48q68 0 116 -48.5t48 -115.5q0 -69 -48 -116.5t-116 -47.5
t-115.5 47.5t-47.5 116.5z" />
    <glyph glyph-name="multiply" unicode="&#xd7;" horiz-adv-x="1253" 
d="M219 156l-170 170l406 407l-406 406l172 172l406 -408l405 408l174 -172l-407 -406l407 -407l-172 -170l-407 407z" />
    <glyph glyph-name="Oslash" unicode="&#xd8;" horiz-adv-x="1638" 
d="M258 -16l-168 168l123 122q-145 194 -145 443q0 151 58 288t158 236t239.5 157t295.5 58q242 0 438 -137l132 131l167 -168l-129 -129q142 -194 142 -436q0 -151 -58.5 -288t-158 -236t-239 -157.5t-294.5 -58.5q-241 0 -434 134zM352 717q0 -125 66 -238l639 639
q-109 64 -238 64q-194 0 -330.5 -135.5t-136.5 -329.5zM588 313q106 -61 231 -61q193 0 329 135.5t136 329.5q0 125 -61 231z" />
    <glyph glyph-name="Ugrave" unicode="&#xd9;" horiz-adv-x="1501" 
d="M750 -23q-178 0 -320.5 76.5t-224.5 219.5t-82 329v832h276v-832q0 -157 97 -253.5t254 -96.5q158 0 254 96.5t96 253.5v832h276v-832q0 -280 -177 -452.5t-449 -172.5zM446 1925h302l147 -354h-199z" />
    <glyph glyph-name="Uacute" unicode="&#xda;" horiz-adv-x="1501" 
d="M750 -23q-178 0 -320.5 76.5t-224.5 219.5t-82 329v832h276v-832q0 -157 97 -253.5t254 -96.5q158 0 254 96.5t96 253.5v832h276v-832q0 -280 -177 -452.5t-449 -172.5zM625 1571l147 354h301l-250 -354h-198z" />
    <glyph glyph-name="Ucircumflex" unicode="&#xdb;" horiz-adv-x="1501" 
d="M750 -23q-178 0 -320.5 76.5t-224.5 219.5t-82 329v832h276v-832q0 -157 97 -253.5t254 -96.5q158 0 254 96.5t96 253.5v832h276v-832q0 -280 -177 -452.5t-449 -172.5zM434 1542v225l318 172l315 -172v-225l-315 170z" />
    <glyph glyph-name="Udieresis" unicode="&#xdc;" horiz-adv-x="1501" 
d="M750 -23q-178 0 -320.5 76.5t-224.5 219.5t-82 329v832h276v-832q0 -157 97 -253.5t254 -96.5q158 0 254 96.5t96 253.5v832h276v-832q0 -280 -177 -452.5t-449 -172.5zM365 1749q0 67 48.5 115.5t114.5 48.5q68 0 117 -48.5t49 -115.5q0 -68 -49 -116t-117 -48
q-67 0 -115 48t-48 116zM809 1749q0 67 48.5 115.5t115.5 48.5q66 0 115 -48.5t49 -115.5q0 -68 -48.5 -116t-115.5 -48q-68 0 -116 47.5t-48 116.5z" />
    <glyph glyph-name="Yacute" unicode="&#xdd;" horiz-adv-x="1353" 
d="M549 0v494l-553 940h317l379 -656l359 656h307l-533 -936v-498h-276zM549 1571l147 354h301l-249 -354h-199z" />
    <glyph glyph-name="Thorn" unicode="&#xde;" horiz-adv-x="1413" 
d="M137 0v1434h277v-258h477q133 0 241.5 -64t167 -168.5t58.5 -226.5t-58.5 -226.5t-167 -168.5t-241.5 -64h-477v-258h-277zM414 518h460q82 0 141.5 58.5t59.5 140.5q0 81 -59.5 139.5t-141.5 58.5h-460v-397z" />
    <glyph glyph-name="germandbls" unicode="&#xdf;" horiz-adv-x="1300" 
d="M168 1120q0 91 26.5 164.5t72 123.5t108 84t132.5 49t148 15q122 0 219.5 -40t158.5 -123t61 -197q0 -55 -15 -100.5t-36.5 -76t-43 -58.5t-36.5 -62t-15 -72q0 -34 30.5 -67t73.5 -66.5t86.5 -75t74 -111t30.5 -157.5q0 -112 -59.5 -193t-153 -119t-209.5 -38h-205v244
h201q66 0 102.5 30.5t36.5 77.5q0 49 -30.5 89.5t-73.5 72.5t-86 67.5t-73.5 91.5t-30.5 128q0 60 23 111t50.5 81.5t50.5 74.5t23 93q0 70 -50 112t-122 42q-79 0 -136 -50t-57 -147v-1118h-276v856h-137v256h137v8z" />
    <glyph glyph-name="agrave" unicode="&#xe0;" 
d="M602 -23q-151 0 -276.5 77.5t-197 210.5t-71.5 292q0 157 71.5 290t197 210.5t276.5 77.5q220 0 356 -172v149h267v-1112h-267v150q-136 -173 -356 -173zM342 557q0 -129 89 -219t218 -90t219 90t90 219q0 128 -90 217.5t-219 89.5t-218 -89.5t-89 -217.5zM350 1604h301
l148 -355h-199z" />
    <glyph glyph-name="aacute" unicode="&#xe1;" 
d="M602 -23q-151 0 -276.5 77.5t-197 210.5t-71.5 292q0 157 71.5 290t197 210.5t276.5 77.5q220 0 356 -172v149h267v-1112h-267v150q-136 -173 -356 -173zM342 557q0 -129 89 -219t218 -90t219 90t90 219q0 128 -90 217.5t-219 89.5t-218 -89.5t-89 -217.5zM526 1249
l148 355h301l-250 -355h-199z" />
    <glyph glyph-name="acircumflex" unicode="&#xe2;" 
d="M602 -23q-151 0 -276.5 77.5t-197 210.5t-71.5 292q0 157 71.5 290t197 210.5t276.5 77.5q220 0 356 -172v149h267v-1112h-267v150q-136 -173 -356 -173zM336 1221v225l317 172l316 -172v-225l-316 170zM342 557q0 -129 89 -219t218 -90t219 90t90 219q0 128 -90 217.5
t-219 89.5t-218 -89.5t-89 -217.5z" />
    <glyph glyph-name="atilde" unicode="&#xe3;" 
d="M602 -23q-151 0 -276.5 77.5t-197 210.5t-71.5 292q0 157 71.5 290t197 210.5t276.5 77.5q220 0 356 -172v149h267v-1112h-267v150q-136 -173 -356 -173zM272 1274q7 144 76 215.5t182 71.5q44 0 81 -15.5t58 -34t46 -34t47 -15.5q63 0 69 88h201q-7 -139 -74 -212.5
t-178 -73.5q-44 0 -82.5 15.5t-60 33.5t-46.5 33.5t-46 15.5q-64 0 -70 -88h-203zM342 557q0 -129 89 -219t218 -90t219 90t90 219q0 128 -90 217.5t-219 89.5t-218 -89.5t-89 -217.5z" />
    <glyph glyph-name="adieresis" unicode="&#xe4;" 
d="M602 -23q-151 0 -276.5 77.5t-197 210.5t-71.5 292q0 157 71.5 290t197 210.5t276.5 77.5q220 0 356 -172v149h267v-1112h-267v150q-136 -173 -356 -173zM268 1427q0 67 48 115.5t116 48.5t116 -48.5t48 -115.5q0 -69 -48 -116t-116 -47t-116 47t-48 116zM342 557
q0 -129 89 -219t218 -90t219 90t90 219q0 128 -90 217.5t-219 89.5t-218 -89.5t-89 -217.5zM711 1427q0 67 48.5 115.5t114.5 48.5q68 0 117 -48.5t49 -115.5q0 -68 -49 -115.5t-117 -47.5q-67 0 -115 47.5t-48 115.5z" />
    <glyph glyph-name="aring" unicode="&#xe5;" 
d="M602 -23q-151 0 -276.5 77.5t-197 210.5t-71.5 292q0 157 71.5 290t197 210.5t276.5 77.5q220 0 356 -172v149h267v-1112h-267v150q-136 -173 -356 -173zM342 557q0 -129 89 -219t218 -90t219 90t90 219q0 128 -90 217.5t-219 89.5t-218 -89.5t-89 -217.5zM418 1438
q0 99 69 168t168 69q98 0 167 -69.5t69 -167.5q0 -97 -69 -167.5t-167 -70.5q-99 0 -168 70t-69 168zM575 1440q0 -34 23 -57t57 -23q33 0 56.5 23.5t23.5 56.5q0 32 -24 56t-56 24q-33 0 -56.5 -23.5t-23.5 -56.5z" />
    <glyph glyph-name="ae" unicode="&#xe6;" horiz-adv-x="2222" 
d="M602 -23q-151 0 -276.5 77.5t-197 210.5t-71.5 292q0 157 71.5 290t197 210.5t276.5 77.5q220 0 356 -172v149h267v-102q157 125 366 125q122 0 229.5 -43t183.5 -117.5t119.5 -177t43.5 -217.5q0 -49 -13 -109h-860q24 -107 102 -173.5t193 -66.5q84 0 140 29t102 86
h301q-66 -167 -209 -268t-332 -101q-209 0 -366 125v-102h-267v150q-136 -173 -356 -173zM342 557q0 -129 89 -219t218 -90t219 90t90 219q0 128 -90 217.5t-219 89.5t-218 -89.5t-89 -217.5zM1305 688h571q-31 95 -106 150t-179 55t-179.5 -55t-106.5 -150z" />
    <glyph glyph-name="ccedilla" unicode="&#xe7;" horiz-adv-x="1261" 
d="M676 -430q-50 0 -95 5t-65 10l-20 5v138q227 -44 227 16q0 25 -41.5 37.5t-138.5 15.5l16 187q-216 31 -359 192.5t-143 380.5q0 157 78 290t214 210.5t298 77.5q216 0 376 -131t194 -332h-291q-30 84 -106.5 138t-172.5 54q-128 0 -218.5 -90t-90.5 -217t91 -218
t218 -91q96 0 172.5 54t106.5 138h291q-31 -183 -170 -310.5t-332 -147.5l-4 -35q247 -20 247 -180q0 -98 -75.5 -147.5t-206.5 -49.5z" />
    <glyph glyph-name="egrave" unicode="&#xe8;" horiz-adv-x="1269" 
d="M639 -23q-164 0 -298 77.5t-209 210.5t-75 292q0 118 44.5 224.5t121 184.5t185 123.5t231.5 45.5q163 0 295 -73.5t206 -200.5t74 -281q0 -54 -12 -109h-860q24 -107 102 -173.5t193 -66.5q84 0 140 29t102 86h301q-66 -167 -209 -268t-332 -101zM332 1604h301l147 -355
h-198zM352 688h572q-31 95 -106 150t-179 55t-180 -55t-107 -150z" />
    <glyph glyph-name="eacute" unicode="&#xe9;" horiz-adv-x="1269" 
d="M639 -23q-164 0 -298 77.5t-209 210.5t-75 292q0 118 44.5 224.5t121 184.5t185 123.5t231.5 45.5q163 0 295 -73.5t206 -200.5t74 -281q0 -54 -12 -109h-860q24 -107 102 -173.5t193 -66.5q84 0 140 29t102 86h301q-66 -167 -209 -268t-332 -101zM352 688h572
q-31 95 -106 150t-179 55t-180 -55t-107 -150zM510 1249l147 355h301l-249 -355h-199z" />
    <glyph glyph-name="ecircumflex" unicode="&#xea;" horiz-adv-x="1269" 
d="M639 -23q-164 0 -298 77.5t-209 210.5t-75 292q0 118 44.5 224.5t121 184.5t185 123.5t231.5 45.5q163 0 295 -73.5t206 -200.5t74 -281q0 -54 -12 -109h-860q24 -107 102 -173.5t193 -66.5q84 0 140 29t102 86h301q-66 -167 -209 -268t-332 -101zM319 1221v225l318 172
l315 -172v-225l-315 170zM352 688h572q-31 95 -106 150t-179 55t-180 -55t-107 -150z" />
    <glyph glyph-name="edieresis" unicode="&#xeb;" horiz-adv-x="1269" 
d="M639 -23q-164 0 -298 77.5t-209 210.5t-75 292q0 118 44.5 224.5t121 184.5t185 123.5t231.5 45.5q163 0 295 -73.5t206 -200.5t74 -281q0 -54 -12 -109h-860q24 -107 102 -173.5t193 -66.5q84 0 140 29t102 86h301q-66 -167 -209 -268t-332 -101zM252 1427
q0 67 48 115.5t116 48.5q66 0 115 -48.5t49 -115.5q0 -68 -48.5 -115.5t-115.5 -47.5q-68 0 -116 47t-48 116zM352 688h572q-31 95 -106 150t-179 55t-180 -55t-107 -150zM694 1427q0 67 49 115.5t115 48.5q68 0 116 -48.5t48 -115.5q0 -69 -48 -116t-116 -47
q-67 0 -115.5 47.5t-48.5 115.5z" />
    <glyph glyph-name="igrave" unicode="&#xec;" horiz-adv-x="503" 
d="M115 0v1112h276v-1112h-276zM-51 1604h301l147 -355h-198z" />
    <glyph glyph-name="iacute" unicode="&#xed;" horiz-adv-x="503" 
d="M115 0v1112h276v-1112h-276zM125 1249l147 355h301l-249 -355h-199z" />
    <glyph glyph-name="icircumflex" unicode="&#xee;" horiz-adv-x="503" 
d="M115 0v1112h276v-1112h-276zM-66 1221v225l318 172l315 -172v-225l-315 170z" />
    <glyph glyph-name="idieresis" unicode="&#xef;" horiz-adv-x="503" 
d="M115 0v1112h276v-1112h-276zM-133 1427q0 67 49 115.5t115 48.5q67 0 115.5 -48.5t48.5 -115.5q0 -69 -48 -116t-116 -47q-67 0 -115.5 47.5t-48.5 115.5zM309 1427q0 67 49 115.5t117 48.5q66 0 115 -48.5t49 -115.5q0 -68 -48.5 -115.5t-115.5 -47.5q-68 0 -117 47.5
t-49 115.5z" />
    <glyph glyph-name="eth" unicode="&#xf0;" horiz-adv-x="1228" 
d="M514 1071l-133 135l115 115q-135 72 -297 111l184 151q154 -43 268 -106l142 141l133 -135l-115 -115q172 -139 265 -338t93 -436q0 -151 -44.5 -270t-121.5 -193t-176 -112.5t-213 -38.5q-122 0 -227 41t-177 111t-112.5 165t-40.5 201q0 141 67.5 259t186.5 186.5
t264 68.5q149 0 263 -90q-44 162 -185 288zM342 498q0 -117 79 -192t193 -75t192.5 75t78.5 192q0 118 -78 193t-193 75t-193.5 -75t-78.5 -193z" />
    <glyph glyph-name="ntilde" unicode="&#xf1;" horiz-adv-x="1273" 
d="M115 0v1112h262v-141q121 164 336 164q209 0 327.5 -134.5t118.5 -355.5v-645h-276v618q0 104 -68 176t-170 72q-103 0 -178.5 -73t-75.5 -175v-618h-276zM256 1274q7 144 76 215.5t182 71.5q44 0 81 -15.5t57.5 -34t45.5 -34t47 -15.5q64 0 70 88h201
q-7 -139 -74 -212.5t-178 -73.5q-44 0 -82.5 15.5t-60 33.5t-47 33.5t-46.5 15.5q-63 0 -69 -88h-203z" />
    <glyph glyph-name="ograve" unicode="&#xf2;" horiz-adv-x="1294" 
d="M647 -23q-162 0 -298 77.5t-214 210.5t-78 292q0 157 78 290t214 210.5t298 77.5t298 -77.5t214 -210.5t78 -290q0 -159 -78 -292t-214 -210.5t-298 -77.5zM338 557q0 -127 91 -218t218 -91t217 90.5t90 218.5q0 127 -90 217t-217 90q-128 0 -218.5 -90t-90.5 -217z
M344 1604h301l148 -355h-199z" />
    <glyph glyph-name="oacute" unicode="&#xf3;" horiz-adv-x="1294" 
d="M647 -23q-162 0 -298 77.5t-214 210.5t-78 292q0 157 78 290t214 210.5t298 77.5t298 -77.5t214 -210.5t78 -290q0 -159 -78 -292t-214 -210.5t-298 -77.5zM338 557q0 -127 91 -218t218 -91t217 90.5t90 218.5q0 127 -90 217t-217 90q-128 0 -218.5 -90t-90.5 -217z
M520 1249l148 355h301l-250 -355h-199z" />
    <glyph glyph-name="ocircumflex" unicode="&#xf4;" horiz-adv-x="1294" 
d="M647 -23q-162 0 -298 77.5t-214 210.5t-78 292q0 157 78 290t214 210.5t298 77.5t298 -77.5t214 -210.5t78 -290q0 -159 -78 -292t-214 -210.5t-298 -77.5zM330 1221v225l317 172l316 -172v-225l-316 170zM338 557q0 -127 91 -218t218 -91t217 90.5t90 218.5
q0 127 -90 217t-217 90q-128 0 -218.5 -90t-90.5 -217z" />
    <glyph glyph-name="otilde" unicode="&#xf5;" horiz-adv-x="1294" 
d="M647 -23q-162 0 -298 77.5t-214 210.5t-78 292q0 157 78 290t214 210.5t298 77.5t298 -77.5t214 -210.5t78 -290q0 -159 -78 -292t-214 -210.5t-298 -77.5zM266 1274q7 144 76 215.5t182 71.5q44 0 81 -15.5t58 -34t46 -34t47 -15.5q63 0 69 88h201q-7 -139 -74 -212.5
t-178 -73.5q-44 0 -82.5 15.5t-60 33.5t-46.5 33.5t-46 15.5q-64 0 -70 -88h-203zM338 557q0 -127 91 -218t218 -91t217 90.5t90 218.5q0 127 -90 217t-217 90q-128 0 -218.5 -90t-90.5 -217z" />
    <glyph glyph-name="odieresis" unicode="&#xf6;" horiz-adv-x="1294" 
d="M647 -23q-162 0 -298 77.5t-214 210.5t-78 292q0 157 78 290t214 210.5t298 77.5t298 -77.5t214 -210.5t78 -290q0 -159 -78 -292t-214 -210.5t-298 -77.5zM262 1427q0 67 48 115.5t116 48.5q66 0 115 -48.5t49 -115.5q0 -68 -48.5 -115.5t-115.5 -47.5q-68 0 -116 47
t-48 116zM338 557q0 -127 91 -218t218 -91t217 90.5t90 218.5q0 127 -90 217t-217 90q-128 0 -218.5 -90t-90.5 -217zM705 1427q0 67 48.5 115.5t114.5 48.5q68 0 117 -48.5t49 -115.5q0 -68 -49 -115.5t-117 -47.5q-67 0 -115 47.5t-48 115.5z" />
    <glyph glyph-name="divide" unicode="&#xf7;" horiz-adv-x="1253" 
d="M41 612v242h1171v-242h-1171zM475 311q0 69 50 119.5t120 50.5q69 0 118.5 -50.5t49.5 -119.5t-49.5 -118.5t-118.5 -49.5q-70 0 -120 49.5t-50 118.5zM475 1153q0 69 50 119.5t120 50.5q69 0 118.5 -50.5t49.5 -119.5t-49.5 -118.5t-118.5 -49.5q-70 0 -120 49.5
t-50 118.5z" />
    <glyph glyph-name="oslash" unicode="&#xf8;" horiz-adv-x="1347" 
d="M221 -61l-164 163l127 127q-100 149 -100 328q0 157 77.5 290t213.5 210.5t299 77.5q172 0 319 -91l133 134l164 -164l-129 -129q103 -147 103 -328q0 -159 -78 -292t-214 -210.5t-298 -77.5q-177 0 -322 93zM356 557q0 -61 27 -127l416 418q-58 24 -125 24
q-132 0 -225 -92t-93 -223zM547 266q63 -26 127 -26q131 0 223 92.5t92 224.5q0 64 -26 127z" />
    <glyph glyph-name="ugrave" unicode="&#xf9;" horiz-adv-x="1228" 
d="M614 -23q-102 0 -196 39t-163.5 105.5t-111 161.5t-41.5 202v627h277v-631q0 -97 68.5 -166t166.5 -69q99 0 167.5 69t68.5 166v631h276v-627q0 -107 -41.5 -202t-111 -161.5t-163.5 -105.5t-196 -39zM311 1604h301l148 -355h-199z" />
    <glyph glyph-name="uacute" unicode="&#xfa;" horiz-adv-x="1228" 
d="M614 -23q-102 0 -196 39t-163.5 105.5t-111 161.5t-41.5 202v627h277v-631q0 -97 68.5 -166t166.5 -69q99 0 167.5 69t68.5 166v631h276v-627q0 -107 -41.5 -202t-111 -161.5t-163.5 -105.5t-196 -39zM487 1249l148 355h301l-250 -355h-199z" />
    <glyph glyph-name="ucircumflex" unicode="&#xfb;" horiz-adv-x="1228" 
d="M614 -23q-102 0 -196 39t-163.5 105.5t-111 161.5t-41.5 202v627h277v-631q0 -97 68.5 -166t166.5 -69q99 0 167.5 69t68.5 166v631h276v-627q0 -107 -41.5 -202t-111 -161.5t-163.5 -105.5t-196 -39zM297 1221v225l317 172l316 -172v-225l-316 170z" />
    <glyph glyph-name="udieresis" unicode="&#xfc;" horiz-adv-x="1228" 
d="M614 -23q-102 0 -196 39t-163.5 105.5t-111 161.5t-41.5 202v627h277v-631q0 -97 68.5 -166t166.5 -69q99 0 167.5 69t68.5 166v631h276v-627q0 -107 -41.5 -202t-111 -161.5t-163.5 -105.5t-196 -39zM229 1427q0 67 49 115.5t115 48.5q68 0 117 -48.5t49 -115.5
q0 -68 -49 -115.5t-117 -47.5q-67 0 -115.5 47.5t-48.5 115.5zM674 1427q0 67 48 115.5t116 48.5q66 0 114.5 -48.5t48.5 -115.5q0 -68 -48 -115.5t-115 -47.5q-68 0 -116 47t-48 116z" />
    <glyph glyph-name="yacute" unicode="&#xfd;" horiz-adv-x="1173" 
d="M229 -410l217 510l-448 1012h307l293 -694l270 694h297l-639 -1522h-297zM465 1249l147 355h301l-249 -355h-199z" />
    <glyph glyph-name="thorn" unicode="&#xfe;" 
d="M735 -23q-211 0 -344 156v-543h-276v1966h272v-581q134 160 348 160q151 0 276.5 -77.5t197 -210.5t71.5 -290q0 -159 -71.5 -292t-197 -210.5t-276.5 -77.5zM381 557q0 -129 89 -219t218 -90t218 90t89 219q0 128 -89 217.5t-218 89.5t-218 -89.5t-89 -217.5z" />
    <glyph glyph-name="ydieresis" unicode="&#xff;" horiz-adv-x="1173" 
d="M229 -410l217 510l-448 1012h307l293 -694l270 694h297l-639 -1522h-297zM207 1427q0 67 49 115.5t115 48.5q68 0 117 -48.5t49 -115.5q0 -68 -49 -115.5t-117 -47.5q-67 0 -115.5 47.5t-48.5 115.5zM651 1427q0 67 48.5 115.5t115.5 48.5q66 0 115 -48.5t49 -115.5
q0 -68 -48.5 -115.5t-115.5 -47.5q-68 0 -116 47t-48 116z" />
    <glyph glyph-name="Amacron" unicode="&#x100;" horiz-adv-x="1570" 
d="M6 0l703 1434h159l697 -1434h-312l-133 285h-674l-135 -285h-305zM438 1620v207h699v-207h-699zM555 514h457l-228 483z" />
    <glyph glyph-name="amacron" unicode="&#x101;" 
d="M602 -23q-151 0 -276.5 77.5t-197 210.5t-71.5 292q0 157 71.5 290t197 210.5t276.5 77.5q220 0 356 -172v149h267v-1112h-267v150q-136 -173 -356 -173zM307 1298v207h699v-207h-699zM342 557q0 -129 89 -219t218 -90t219 90t90 219q0 128 -90 217.5t-219 89.5
t-218 -89.5t-89 -217.5z" />
    <glyph glyph-name="Abreve" unicode="&#x102;" horiz-adv-x="1570" 
d="M6 0l703 1434h159l697 -1434h-312l-133 285h-674l-135 -285h-305zM442 1874h209q5 -57 38.5 -94t94.5 -37q62 0 95.5 37t38.5 94h208q-12 -154 -105.5 -240t-236.5 -86q-141 0 -235.5 87t-106.5 239zM555 514h457l-228 483z" />
    <glyph glyph-name="abreve" unicode="&#x103;" 
d="M602 -23q-151 0 -276.5 77.5t-197 210.5t-71.5 292q0 157 71.5 290t197 210.5t276.5 77.5q220 0 356 -172v149h267v-1112h-267v150q-136 -173 -356 -173zM311 1552h209q5 -57 38.5 -94t94.5 -37q62 0 95 37t38 94h209q-12 -153 -105.5 -239t-236.5 -86
q-141 0 -235.5 86.5t-106.5 238.5zM342 557q0 -129 89 -219t218 -90t219 90t90 219q0 128 -90 217.5t-219 89.5t-218 -89.5t-89 -217.5z" />
    <glyph glyph-name="Aogonek" unicode="&#x104;" horiz-adv-x="1564" 
d="M1391 -430q-119 0 -194 54.5t-75 160.5q0 57 30 112t99 93l-139 295h-674l-135 -285h-305l700 1434h160l698 -1434q-172 -56 -172 -150q0 -36 25 -55.5t70 -19.5q19 0 41 3.5t34 7.5l13 3l-21 -195q-60 -24 -155 -24zM547 514h457l-230 483z" />
    <glyph glyph-name="aogonek" unicode="&#x105;" horiz-adv-x="1339" 
d="M604 -23q-151 0 -276.5 77.5t-197 210.5t-71.5 292q0 157 71.5 290t197 210.5t276.5 77.5q220 0 357 -170v147h264v-1112h2q-172 -56 -172 -150q0 -36 24.5 -55.5t69.5 -19.5q19 0 41 3.5t34 7.5l13 3l-20 -195q-60 -24 -156 -24q-119 0 -193.5 54.5t-74.5 160.5
q0 65 39 125t129 98v139q-137 -170 -357 -170zM344 557q0 -129 89 -219t218 -90t218 90t89 219q0 128 -89 217.5t-218 89.5t-218 -89.5t-89 -217.5z" />
    <glyph glyph-name="Cacute" unicode="&#x106;" horiz-adv-x="1615" 
d="M819 -23q-208 0 -381 99t-271.5 269t-98.5 372q0 151 58 288t158 236t239.5 157t295.5 58q273 0 474.5 -165t254.5 -419h-293q-50 139 -168 224.5t-268 85.5q-194 0 -330.5 -135.5t-136.5 -329.5t136.5 -329.5t330.5 -135.5q151 0 268.5 85.5t165.5 225.5h295
q-53 -256 -254.5 -421t-474.5 -165zM684 1571l147 354h302l-250 -354h-199z" />
    <glyph glyph-name="cacute" unicode="&#x107;" horiz-adv-x="1261" 
d="M647 -23q-162 0 -298 77.5t-214 210.5t-78 292q0 157 78 290t214 210.5t298 77.5q216 0 376 -131t194 -332h-291q-30 84 -106.5 138t-172.5 54q-128 0 -218.5 -90t-90.5 -217t91 -218t218 -91q96 0 172.5 54t106.5 138h291q-34 -200 -194.5 -331.5t-375.5 -131.5z
M504 1249l147 355h301l-250 -355h-198z" />
    <glyph glyph-name="Ccircumflex" unicode="&#x108;" horiz-adv-x="1615" 
d="M819 -23q-208 0 -381 99t-271.5 269t-98.5 372q0 151 58 288t158 236t239.5 157t295.5 58q273 0 474.5 -165t254.5 -419h-293q-50 139 -168 224.5t-268 85.5q-194 0 -330.5 -135.5t-136.5 -329.5t136.5 -329.5t330.5 -135.5q151 0 268.5 85.5t165.5 225.5h295
q-53 -256 -254.5 -421t-474.5 -165zM494 1542v225l317 172l315 -172v-225l-315 170z" />
    <glyph glyph-name="ccircumflex" unicode="&#x109;" horiz-adv-x="1261" 
d="M647 -23q-162 0 -298 77.5t-214 210.5t-78 292q0 157 78 290t214 210.5t298 77.5q216 0 376 -131t194 -332h-291q-30 84 -106.5 138t-172.5 54q-128 0 -218.5 -90t-90.5 -217t91 -218t218 -91q96 0 172.5 54t106.5 138h291q-34 -200 -194.5 -331.5t-375.5 -131.5z
M313 1221v225l318 172l315 -172v-225l-315 170z" />
    <glyph glyph-name="Cdotaccent" unicode="&#x10a;" horiz-adv-x="1615" 
d="M819 -23q-208 0 -381 99t-271.5 269t-98.5 372q0 151 58 288t158 236t239.5 157t295.5 58q273 0 474.5 -165t254.5 -419h-293q-50 139 -168 224.5t-268 85.5q-194 0 -330.5 -135.5t-136.5 -329.5t136.5 -329.5t330.5 -135.5q151 0 268.5 85.5t165.5 225.5h295
q-53 -256 -254.5 -421t-474.5 -165zM645 1749q0 67 49.5 116.5t116.5 49.5t116.5 -49.5t49.5 -116.5q0 -69 -49 -117.5t-117 -48.5t-117 48.5t-49 117.5z" />
    <glyph glyph-name="cdotaccent" unicode="&#x10b;" horiz-adv-x="1261" 
d="M647 -23q-162 0 -298 77.5t-214 210.5t-78 292q0 157 78 290t214 210.5t298 77.5q216 0 376 -131t194 -332h-291q-30 84 -106.5 138t-172.5 54q-128 0 -218.5 -90t-90.5 -217t91 -218t218 -91q96 0 172.5 54t106.5 138h291q-34 -200 -194.5 -331.5t-375.5 -131.5z
M465 1427q0 67 49.5 116.5t116.5 49.5t116.5 -49.5t49.5 -116.5q0 -69 -49 -117t-117 -48t-117 48t-49 117z" />
    <glyph glyph-name="Ccaron" unicode="&#x10c;" horiz-adv-x="1615" 
d="M819 -23q-208 0 -381 99t-271.5 269t-98.5 372q0 151 58 288t158 236t239.5 157t295.5 58q273 0 474.5 -165t254.5 -419h-293q-50 139 -168 224.5t-268 85.5q-194 0 -330.5 -135.5t-136.5 -329.5t136.5 -329.5t330.5 -135.5q151 0 268.5 85.5t165.5 225.5h295
q-53 -256 -254.5 -421t-474.5 -165zM492 1698v225l317 -170l315 170v-225l-315 -172z" />
    <glyph glyph-name="ccaron" unicode="&#x10d;" horiz-adv-x="1261" 
d="M647 -23q-162 0 -298 77.5t-214 210.5t-78 292q0 157 78 290t214 210.5t298 77.5q216 0 376 -131t194 -332h-291q-30 84 -106.5 138t-172.5 54q-128 0 -218.5 -90t-90.5 -217t91 -218t218 -91q96 0 172.5 54t106.5 138h291q-34 -200 -194.5 -331.5t-375.5 -131.5z
M309 1376v226l318 -170l315 170v-226l-315 -172z" />
    <glyph glyph-name="Dcaron" unicode="&#x10e;" horiz-adv-x="1531" 
d="M731 0h-594v1434h594q152 0 288.5 -56.5t233.5 -152t154 -228.5t57 -280t-57 -280t-154 -228.5t-233.5 -152t-288.5 -56.5zM393 1698v225l318 -170l315 170v-225l-315 -172zM414 264h317q188 0 321.5 131.5t133.5 321.5t-133.5 322t-321.5 132h-317v-907z" />
    <glyph glyph-name="dcaron" unicode="&#x10f;" horiz-adv-x="1556" 
d="M948 1556h277v-1556h-267v150q-136 -173 -356 -173q-151 0 -276.5 77.5t-197 210.5t-71.5 292q0 157 71.5 290t197 210.5t276.5 77.5q211 0 346 -158v579zM342 557q0 -129 89 -219t218 -90t219 90t90 219q0 128 -90 217.5t-219 89.5t-218 -89.5t-89 -217.5zM1294 1077
l29 479h268l-92 -479h-205z" />
    <glyph glyph-name="Dcroat" unicode="&#x110;" horiz-adv-x="1515" 
d="M12 635v207h125v592h594q152 0 288.5 -56.5t233.5 -152t154 -228.5t57 -280t-57 -280t-154 -228.5t-233.5 -152t-288.5 -56.5h-594v635h-125zM414 264h317q188 0 321.5 131.5t133.5 321.5t-133.5 322t-321.5 132h-317v-329h331v-207h-331v-371z" />
    <glyph glyph-name="dcroat" unicode="&#x111;" horiz-adv-x="1339" 
d="M616 1198v197h332v161h277v-161h114v-197h-114v-1198h-267v150q-136 -173 -356 -173q-151 0 -276.5 77.5t-197 210.5t-71.5 292q0 157 71.5 290t197 210.5t276.5 77.5q211 0 346 -158v221h-332zM342 557q0 -129 89 -219t218 -90t219 90t90 219q0 128 -90 217.5t-219 89.5
t-218 -89.5t-89 -217.5z" />
    <glyph glyph-name="Emacron" unicode="&#x112;" horiz-adv-x="1308" 
d="M137 0v1434h1073v-260h-796v-316h735v-254h-735v-344h817v-260h-1094zM360 1620v207h699v-207h-699z" />
    <glyph glyph-name="emacron" unicode="&#x113;" horiz-adv-x="1269" 
d="M639 -23q-164 0 -298 77.5t-209 210.5t-75 292q0 118 44.5 224.5t121 184.5t185 123.5t231.5 45.5q163 0 295 -73.5t206 -200.5t74 -281q0 -54 -12 -109h-860q24 -107 102 -173.5t193 -66.5q84 0 140 29t102 86h301q-66 -167 -209 -268t-332 -101zM291 1298v207h698v-207
h-698zM352 688h572q-31 95 -106 150t-179 55t-180 -55t-107 -150z" />
    <glyph glyph-name="Ebreve" unicode="&#x114;" horiz-adv-x="1308" 
d="M137 0v1434h1073v-260h-796v-316h735v-254h-735v-344h817v-260h-1094zM362 1874h209q5 -57 39 -94t95 -37q62 0 95 37t38 94h209q-12 -154 -105.5 -240t-236.5 -86q-141 0 -236 87t-107 239z" />
    <glyph glyph-name="ebreve" unicode="&#x115;" horiz-adv-x="1269" 
d="M639 -23q-164 0 -298 77.5t-209 210.5t-75 292q0 118 44.5 224.5t121 184.5t185 123.5t231.5 45.5q163 0 295 -73.5t206 -200.5t74 -281q0 -54 -12 -109h-860q24 -107 102 -173.5t193 -66.5q84 0 140 29t102 86h301q-66 -167 -209 -268t-332 -101zM293 1552h209
q5 -57 38.5 -94t94.5 -37q62 0 95 37t38 94h209q-12 -153 -105.5 -239t-236.5 -86q-141 0 -235.5 86.5t-106.5 238.5zM352 688h572q-31 95 -106 150t-179 55t-180 -55t-107 -150z" />
    <glyph glyph-name="Edotaccent" unicode="&#x116;" horiz-adv-x="1308" 
d="M137 0v1434h1073v-260h-796v-316h735v-254h-735v-344h817v-260h-1094zM541 1749q0 67 49.5 116.5t116.5 49.5t116 -49t49 -117q0 -69 -48.5 -117.5t-116.5 -48.5t-117 48.5t-49 117.5z" />
    <glyph glyph-name="edotaccent" unicode="&#x117;" horiz-adv-x="1269" 
d="M639 -23q-164 0 -298 77.5t-209 210.5t-75 292q0 118 44.5 224.5t121 184.5t185 123.5t231.5 45.5q163 0 295 -73.5t206 -200.5t74 -281q0 -54 -12 -109h-860q24 -107 102 -173.5t193 -66.5q84 0 140 29t102 86h301q-66 -167 -209 -268t-332 -101zM352 688h572
q-31 95 -106 150t-179 55t-180 -55t-107 -150zM471 1427q0 67 49.5 116.5t116.5 49.5t116.5 -49.5t49.5 -116.5q0 -69 -49 -117t-117 -48t-117 48t-49 117z" />
    <glyph glyph-name="Eogonek" unicode="&#x118;" horiz-adv-x="1308" 
d="M137 0v1434h1073v-260h-796v-316h735v-254h-735v-344h817v-260h2q-172 -56 -172 -150q0 -36 24.5 -55.5t69.5 -19.5q19 0 41 3.5t34 7.5l13 3l-20 -195q-60 -24 -156 -24q-119 0 -193.5 54.5t-74.5 160.5q0 62 35 119.5t116 95.5h-813z" />
    <glyph glyph-name="eogonek" unicode="&#x119;" horiz-adv-x="1273" 
d="M702 -430q-119 0 -193.5 54.5t-74.5 160.5q0 126 98 201q-209 37 -342 196.5t-133 374.5q0 118 44.5 224.5t121 184.5t185 123.5t231.5 45.5q163 0 295 -73.5t206 -200.5t74 -281q0 -54 -12 -109h-860q24 -107 102 -173.5t193 -66.5q84 0 140 29t102 86h301
q-50 -127 -146.5 -217.5t-224.5 -126.5q-113 -55 -113 -147q0 -38 25 -59t70 -21q19 0 41 3.5t34 7.5l13 3l-21 -195q-60 -24 -156 -24zM352 688h572q-31 95 -106 150t-179 55t-180 -55t-107 -150z" />
    <glyph glyph-name="Ecaron" unicode="&#x11a;" horiz-adv-x="1308" 
d="M137 0v1434h1073v-260h-796v-316h735v-254h-735v-344h817v-260h-1094zM385 1698v225l317 -170l316 170v-225l-316 -172z" />
    <glyph glyph-name="ecaron" unicode="&#x11b;" horiz-adv-x="1269" 
d="M639 -23q-164 0 -298 77.5t-209 210.5t-75 292q0 118 44.5 224.5t121 184.5t185 123.5t231.5 45.5q163 0 295 -73.5t206 -200.5t74 -281q0 -54 -12 -109h-860q24 -107 102 -173.5t193 -66.5q84 0 140 29t102 86h301q-66 -167 -209 -268t-332 -101zM315 1376v226l318 -170
l315 170v-226l-315 -172zM352 688h572q-31 95 -106 150t-179 55t-180 -55t-107 -150z" />
    <glyph glyph-name="Gcircumflex" unicode="&#x11c;" horiz-adv-x="1626" 
d="M819 -23q-208 0 -381 99t-271.5 269t-98.5 372q0 151 58 288t158 236t239.5 157t295.5 58q244 0 433.5 -129.5t267.5 -347.5h-316q-57 100 -155.5 153.5t-229.5 53.5q-194 0 -330.5 -136.5t-136.5 -332.5q0 -197 136.5 -334t330.5 -137q150 0 261 76t163 208h-444v248
h760v-51q0 -127 -36 -242.5t-103 -207.5t-157.5 -159.5t-204.5 -104t-239 -36.5zM502 1542v225l317 172l316 -172v-225l-316 170z" />
    <glyph glyph-name="gcircumflex" unicode="&#x11d;" 
d="M647 -430q-199 0 -348 101.5t-209 267.5h297q33 -56 100.5 -91.5t155.5 -35.5q137 0 226 95.5t89 231.5v58q-135 -168 -358 -168q-152 0 -277 74.5t-195.5 201t-70.5 277.5q0 112 42 214t114 176.5t173.5 118.5t215.5 44q221 0 356 -168v145h267v-969q0 -157 -74.5 -288
t-207.5 -208t-296 -77zM342 582q0 -127 88 -209t219 -82t220 82t89 209t-89 208.5t-220 81.5t-219 -81.5t-88 -208.5zM356 1221v225l318 172l315 -172v-225l-315 170z" />
    <glyph glyph-name="Gbreve" unicode="&#x11e;" horiz-adv-x="1626" 
d="M819 -23q-208 0 -381 99t-271.5 269t-98.5 372q0 151 58 288t158 236t239.5 157t295.5 58q244 0 433.5 -129.5t267.5 -347.5h-316q-57 100 -155.5 153.5t-229.5 53.5q-194 0 -330.5 -136.5t-136.5 -332.5q0 -197 136.5 -334t330.5 -137q150 0 261 76t163 208h-444v248
h760v-51q0 -127 -36 -242.5t-103 -207.5t-157.5 -159.5t-204.5 -104t-239 -36.5zM475 1874h209q5 -57 38.5 -94t94.5 -37q62 0 95 37t38 94h209q-12 -154 -105.5 -240t-236.5 -86q-141 0 -235.5 87t-106.5 239z" />
    <glyph glyph-name="gbreve" unicode="&#x11f;" 
d="M647 -430q-199 0 -348 101.5t-209 267.5h297q33 -56 100.5 -91.5t155.5 -35.5q137 0 226 95.5t89 231.5v58q-135 -168 -358 -168q-152 0 -277 74.5t-195.5 201t-70.5 277.5q0 112 42 214t114 176.5t173.5 118.5t215.5 44q221 0 356 -168v145h267v-969q0 -157 -74.5 -288
t-207.5 -208t-296 -77zM332 1552h209q5 -57 38.5 -94t94.5 -37q62 0 95 37t38 94h209q-12 -153 -105.5 -239t-236.5 -86q-141 0 -235.5 86.5t-106.5 238.5zM342 582q0 -127 88 -209t219 -82t220 82t89 209t-89 208.5t-220 81.5t-219 -81.5t-88 -208.5z" />
    <glyph glyph-name="Gdotaccent" unicode="&#x120;" horiz-adv-x="1626" 
d="M819 -23q-208 0 -381 99t-271.5 269t-98.5 372q0 151 58 288t158 236t239.5 157t295.5 58q244 0 433.5 -129.5t267.5 -347.5h-316q-57 100 -155.5 153.5t-229.5 53.5q-194 0 -330.5 -136.5t-136.5 -332.5q0 -197 136.5 -334t330.5 -137q150 0 261 76t163 208h-444v248
h760v-51q0 -127 -36 -242.5t-103 -207.5t-157.5 -159.5t-204.5 -104t-239 -36.5zM653 1749q0 67 49.5 116.5t116.5 49.5t116.5 -49.5t49.5 -116.5q0 -69 -49 -117.5t-117 -48.5t-117 48.5t-49 117.5z" />
    <glyph glyph-name="gdotaccent" unicode="&#x121;" 
d="M647 -430q-199 0 -348 101.5t-209 267.5h297q33 -56 100.5 -91.5t155.5 -35.5q137 0 226 95.5t89 231.5v58q-135 -168 -358 -168q-152 0 -277 74.5t-195.5 201t-70.5 277.5q0 112 42 214t114 176.5t173.5 118.5t215.5 44q221 0 356 -168v145h267v-969q0 -157 -74.5 -288
t-207.5 -208t-296 -77zM342 582q0 -127 88 -209t219 -82t220 82t89 209t-89 208.5t-220 81.5t-219 -81.5t-88 -208.5zM508 1427q0 67 49 116.5t117 49.5t117 -49.5t49 -116.5q0 -69 -49 -117t-117 -48t-117 48t-49 117z" />
    <glyph glyph-name="uni0122" unicode="&#x122;" horiz-adv-x="1626" 
d="M819 -23q-208 0 -381 99t-271.5 269t-98.5 372q0 151 58 288t158 236t239.5 157t295.5 58q244 0 433.5 -129.5t267.5 -347.5h-316q-57 100 -155.5 153.5t-229.5 53.5q-194 0 -330.5 -136.5t-136.5 -332.5q0 -197 136.5 -334t330.5 -137q150 0 261 76t163 208h-444v248
h760v-51q0 -127 -36 -242.5t-103 -207.5t-157.5 -159.5t-204.5 -104t-239 -36.5zM621 -410l59 326h285l-142 -326h-202z" />
    <glyph glyph-name="uni0123" unicode="&#x123;" 
d="M506 1270l237 325h205l-131 -325h-311zM57 582q0 112 42 214t114 176.5t173.5 118.5t215.5 44q221 0 356 -168v145h267v-969q0 -157 -74.5 -288t-207.5 -208t-296 -77q-199 0 -348 101.5t-209 267.5h297q33 -56 100.5 -91.5t155.5 -35.5q137 0 226 95.5t89 231.5v58
q-135 -168 -358 -168q-152 0 -277 74.5t-195.5 201t-70.5 277.5zM342 582q0 -127 88 -209t219 -82t220 82t89 209t-89 208.5t-220 81.5t-219 -81.5t-88 -208.5z" />
    <glyph glyph-name="Hcircumflex" unicode="&#x124;" horiz-adv-x="1533" 
d="M137 0v1434h277v-543h706v543h277v-1434h-277v629h-706v-629h-277zM451 1542v225l317 172l315 -172v-225l-315 170z" />
    <glyph glyph-name="hcircumflex" unicode="&#x125;" horiz-adv-x="1273" 
d="M115 0v1556h276v-569q116 148 322 148q209 0 327.5 -134.5t118.5 -355.5v-645h-276v618q0 104 -68 176t-170 72q-103 0 -178.5 -73t-75.5 -175v-618h-276zM-66 1665v225l318 172l315 -172v-225l-315 170z" />
    <glyph glyph-name="Hbar" unicode="&#x126;" horiz-adv-x="1533" 
d="M0 1057v207h137v170h277v-170h706v170h277v-170h137v-207h-137v-1057h-277v629h-706v-629h-277v1057h-137zM414 891h706v166h-706v-166z" />
    <glyph glyph-name="hbar" unicode="&#x127;" horiz-adv-x="1273" 
d="M0 1198v197h115v161h276v-161h332v-197h-332v-211q116 148 322 148q209 0 327.5 -134.5t118.5 -355.5v-645h-276v618q0 104 -68 176t-170 72q-103 0 -178.5 -73t-75.5 -175v-618h-276v1198h-115z" />
    <glyph glyph-name="Itilde" unicode="&#x128;" horiz-adv-x="550" 
d="M137 0v1434h277v-1434h-277zM-104 1595q7 144 76 215.5t182 71.5q44 0 81 -15.5t57.5 -33.5t45.5 -33.5t47 -15.5q64 0 70 88h200q-7 -139 -74 -213t-178 -74q-44 0 -82.5 15.5t-60 33.5t-46.5 33.5t-46 15.5q-64 0 -70 -88h-202z" />
    <glyph glyph-name="itilde" unicode="&#x129;" horiz-adv-x="503" 
d="M115 0v1112h276v-1112h-276zM-127 1274q7 144 76 215.5t182 71.5q44 0 81 -15.5t57.5 -34t45.5 -34t47 -15.5q64 0 70 88h201q-7 -139 -74 -212.5t-178 -73.5q-44 0 -82.5 15.5t-60 33.5t-47 33.5t-46.5 15.5q-63 0 -69 -88h-203z" />
    <glyph glyph-name="Imacron" unicode="&#x12a;" horiz-adv-x="550" 
d="M137 0v1434h277v-1434h-277zM-70 1620v207h699v-207h-699z" />
    <glyph glyph-name="imacron" unicode="&#x12b;" horiz-adv-x="503" 
d="M115 0v1112h276v-1112h-276zM-94 1298v207h698v-207h-698z" />
    <glyph glyph-name="Ibreve" unicode="&#x12c;" horiz-adv-x="550" 
d="M137 0v1434h277v-1434h-277zM-68 1874h209q5 -57 38.5 -94t94.5 -37q62 0 95.5 37t38.5 94h208q-12 -154 -105.5 -240t-236.5 -86q-141 0 -235.5 87t-106.5 239z" />
    <glyph glyph-name="ibreve" unicode="&#x12d;" horiz-adv-x="503" 
d="M115 0v1112h276v-1112h-276zM-90 1552h209q5 -57 38.5 -94t94.5 -37q62 0 95 37t38 94h209q-12 -153 -105.5 -239t-236.5 -86q-141 0 -235.5 86.5t-106.5 238.5z" />
    <glyph glyph-name="Iogonek" unicode="&#x12e;" horiz-adv-x="550" 
d="M250 -430q-119 0 -193.5 54.5t-74.5 160.5q0 63 36 121t119 96v1432h277v-1434h2q-172 -56 -172 -150q0 -36 24.5 -55.5t69.5 -19.5q19 0 41 3.5t35 7.5l12 3l-20 -195q-60 -24 -156 -24z" />
    <glyph glyph-name="iogonek" unicode="&#x12f;" horiz-adv-x="503" 
d="M225 -430q-119 0 -193.5 54.5t-74.5 160.5q0 63 36.5 121t121.5 96v1110h276v-1112q-172 -56 -172 -150q0 -36 24.5 -55.5t69.5 -19.5q19 0 41 3.5t34 7.5l13 3l-20 -195q-60 -24 -156 -24zM86 1427q0 67 49 116.5t117 49.5t117 -49.5t49 -116.5q0 -69 -49 -117t-117 -48
t-117 48t-49 117z" />
    <glyph glyph-name="Idotaccent" unicode="&#x130;" horiz-adv-x="550" 
d="M137 0v1434h277v-1434h-277zM111 1749q0 68 49 117t116 49q68 0 117 -49.5t49 -116.5q0 -69 -49 -117.5t-117 -48.5t-116.5 48.5t-48.5 117.5z" />
    <glyph glyph-name="dotlessi" unicode="&#x131;" horiz-adv-x="503" 
d="M115 0v1112h276v-1112h-276z" />
    <glyph glyph-name="IJ" unicode="&#x132;" horiz-adv-x="1656" 
d="M137 0v1434h277v-1434h-277zM602 449h277q0 -89 54 -145t136 -56q80 0 134 56.5t54 144.5v985h277v-985q0 -199 -135.5 -335.5t-329.5 -136.5q-196 0 -331.5 136.5t-135.5 335.5z" />
    <glyph glyph-name="ij" unicode="&#x133;" horiz-adv-x="1007" 
d="M115 0v1112h276v-1112h-276zM86 1427q0 67 49 116.5t117 49.5t117 -49.5t49 -116.5q0 -69 -49 -117t-117 -48t-117 48t-49 117zM475 -410v256h37q48 0 77 34t29 93v1139h277v-1147q0 -183 -99 -279t-268 -96h-53zM590 1427q0 67 49 116.5t117 49.5t117 -49.5t49 -116.5
q0 -69 -49 -117t-117 -48t-117 48t-49 117z" />
    <glyph glyph-name="Jcircumflex" unicode="&#x134;" horiz-adv-x="1105" 
d="M518 -23q-196 0 -331.5 136.5t-135.5 335.5h277q0 -89 54 -145t136 -56q81 0 135 56.5t54 144.5v985h276v-985q0 -199 -135.5 -335.5t-329.5 -136.5zM528 1542v225l318 172l315 -172v-225l-315 170z" />
    <glyph glyph-name="jcircumflex" unicode="&#x135;" horiz-adv-x="503" 
d="M-29 -410v256h37q48 0 77.5 34t29.5 93v1139h276v-1147q0 -183 -98.5 -279t-267.5 -96h-54zM-66 1221v225l318 172l315 -172v-225l-315 170z" />
    <glyph glyph-name="uni0136" unicode="&#x136;" horiz-adv-x="1396" 
d="M1075 0l-629 731l615 703h325l-606 -693l643 -741h-348zM137 0v1434h277v-1434h-277zM518 -410l60 326h284l-141 -326h-203z" />
    <glyph glyph-name="uni0137" unicode="&#x137;" horiz-adv-x="1163" 
d="M840 0l-428 578l422 534h313l-422 -518l442 -594h-327zM115 0v1556h276v-1556h-276zM416 -410l59 326h285l-142 -326h-202z" />
    <glyph glyph-name="Lacute" unicode="&#x139;" horiz-adv-x="1153" 
d="M137 0v1434h277v-1170h719v-264h-996zM156 1571l147 354h301l-250 -354h-198z" />
    <glyph glyph-name="lacute" unicode="&#x13a;" horiz-adv-x="503" 
d="M115 0v1556h276v-1556h-276zM125 1694l147 354h301l-249 -354h-199z" />
    <glyph glyph-name="uni013B" unicode="&#x13b;" horiz-adv-x="1153" 
d="M137 0v1434h277v-1170h719v-264h-996zM467 -410l59 326h285l-141 -326h-203z" />
    <glyph glyph-name="uni013C" unicode="&#x13c;" horiz-adv-x="503" 
d="M115 0v1556h276v-1556h-276zM53 -410l60 326h284l-141 -326h-203z" />
    <glyph glyph-name="Lcaron" unicode="&#x13d;" horiz-adv-x="1153" 
d="M137 0v1434h277v-1170h719v-264h-996zM778 954l29 480h268l-92 -480h-205z" />
    <glyph glyph-name="lcaron" unicode="&#x13e;" horiz-adv-x="765" 
d="M115 0v1556h276v-1556h-276zM461 1077l28 479h269l-92 -479h-205z" />
    <glyph glyph-name="Lslash" unicode="&#x141;" horiz-adv-x="1093" 
d="M0 473v264l137 56v641h277v-553l407 159v-264l-407 -160v-352h719v-264h-996v528z" />
    <glyph glyph-name="lslash" unicode="&#x142;" horiz-adv-x="593" 
d="M166 0v623l-146 -88v280l146 88v653h276v-505l148 90v-281l-148 -90v-770h-276z" />
    <glyph glyph-name="Nacute" unicode="&#x143;" horiz-adv-x="1548" 
d="M1411 0h-182l-815 911v-911h-277v1434h166l832 -912v912h276v-1434zM655 1571l148 354h301l-250 -354h-199z" />
    <glyph glyph-name="nacute" unicode="&#x144;" horiz-adv-x="1273" 
d="M115 0v1112h262v-141q121 164 336 164q209 0 327.5 -134.5t118.5 -355.5v-645h-276v618q0 104 -68 176t-170 72q-103 0 -178.5 -73t-75.5 -175v-618h-276zM510 1249l147 355h301l-249 -355h-199z" />
    <glyph glyph-name="uni0145" unicode="&#x145;" horiz-adv-x="1548" 
d="M1411 0h-182l-815 911v-911h-277v1434h166l832 -912v912h276v-1434zM621 -410l59 326h285l-142 -326h-202z" />
    <glyph glyph-name="uni0146" unicode="&#x146;" horiz-adv-x="1273" 
d="M115 0v1112h262v-141q121 164 336 164q209 0 327.5 -134.5t118.5 -355.5v-645h-276v618q0 104 -68 176t-170 72q-103 0 -178.5 -73t-75.5 -175v-618h-276zM438 -410l60 326h284l-141 -326h-203z" />
    <glyph glyph-name="Ncaron" unicode="&#x147;" horiz-adv-x="1548" 
d="M1411 0h-182l-815 911v-911h-277v1434h166l832 -912v912h276v-1434zM463 1698v225l317 -170l316 170v-225l-316 -172z" />
    <glyph glyph-name="ncaron" unicode="&#x148;" horiz-adv-x="1273" 
d="M115 0v1112h262v-141q121 164 336 164q209 0 327.5 -134.5t118.5 -355.5v-645h-276v618q0 104 -68 176t-170 72q-103 0 -178.5 -73t-75.5 -175v-618h-276zM315 1376v226l318 -170l315 170v-226l-315 -172z" />
    <glyph glyph-name="Omacron" unicode="&#x14c;" horiz-adv-x="1636" 
d="M819 -23q-208 0 -381 99t-271.5 269t-98.5 372q0 151 58 288t158 236t239.5 157t295.5 58q155 0 294.5 -58t239 -157t158 -236t58.5 -288t-58.5 -288t-158 -236t-239 -157.5t-294.5 -58.5zM352 717q0 -194 136.5 -329.5t330.5 -135.5q193 0 329 135.5t136 329.5
t-136 329.5t-329 135.5q-194 0 -330.5 -135.5t-136.5 -329.5zM473 1620v207h698v-207h-698z" />
    <glyph glyph-name="omacron" unicode="&#x14d;" horiz-adv-x="1294" 
d="M647 -23q-162 0 -298 77.5t-214 210.5t-78 292q0 157 78 290t214 210.5t298 77.5t298 -77.5t214 -210.5t78 -290q0 -159 -78 -292t-214 -210.5t-298 -77.5zM301 1298v207h698v-207h-698zM338 557q0 -127 91 -218t218 -91t217 90.5t90 218.5q0 127 -90 217t-217 90
q-128 0 -218.5 -90t-90.5 -217z" />
    <glyph glyph-name="Obreve" unicode="&#x14e;" horiz-adv-x="1636" 
d="M819 -23q-208 0 -381 99t-271.5 269t-98.5 372q0 151 58 288t158 236t239.5 157t295.5 58q155 0 294.5 -58t239 -157t158 -236t58.5 -288t-58.5 -288t-158 -236t-239 -157.5t-294.5 -58.5zM352 717q0 -194 136.5 -329.5t330.5 -135.5q193 0 329 135.5t136 329.5
t-136 329.5t-329 135.5q-194 0 -330.5 -135.5t-136.5 -329.5zM475 1874h209q5 -57 38.5 -94t94.5 -37q62 0 95 37t38 94h209q-12 -154 -105.5 -240t-236.5 -86q-141 0 -235.5 87t-106.5 239z" />
    <glyph glyph-name="obreve" unicode="&#x14f;" horiz-adv-x="1294" 
d="M647 -23q-162 0 -298 77.5t-214 210.5t-78 292q0 157 78 290t214 210.5t298 77.5t298 -77.5t214 -210.5t78 -290q0 -159 -78 -292t-214 -210.5t-298 -77.5zM305 1552h209q5 -57 38.5 -94t94.5 -37q62 0 95 37t38 94h209q-12 -153 -105.5 -239t-236.5 -86
q-141 0 -235.5 86.5t-106.5 238.5zM338 557q0 -127 91 -218t218 -91t217 90.5t90 218.5q0 127 -90 217t-217 90q-128 0 -218.5 -90t-90.5 -217z" />
    <glyph glyph-name="Ohungarumlaut" unicode="&#x150;" horiz-adv-x="1636" 
d="M819 -23q-208 0 -381 99t-271.5 269t-98.5 372q0 151 58 288t158 236t239.5 157t295.5 58q155 0 294.5 -58t239 -157t158 -236t58.5 -288t-58.5 -288t-158 -236t-239 -157.5t-294.5 -58.5zM352 717q0 -194 136.5 -329.5t330.5 -135.5q193 0 329 135.5t136 329.5
t-136 329.5t-329 135.5q-194 0 -330.5 -135.5t-136.5 -329.5zM510 1577l133 354h297l-235 -354h-195zM883 1577l135 354h295l-236 -354h-194z" />
    <glyph glyph-name="ohungarumlaut" unicode="&#x151;" horiz-adv-x="1294" 
d="M647 -23q-162 0 -298 77.5t-214 210.5t-78 292q0 157 78 290t214 210.5t298 77.5t298 -77.5t214 -210.5t78 -290q0 -159 -78 -292t-214 -210.5t-298 -77.5zM338 557q0 -127 91 -218t218 -91t217 90.5t90 218.5q0 127 -90 217t-217 90q-128 0 -218.5 -90t-90.5 -217z
M338 1255l133 355h297l-236 -355h-194zM711 1255l135 355h295l-236 -355h-194z" />
    <glyph glyph-name="OE" unicode="&#x152;" horiz-adv-x="2152" 
d="M819 0q-157 0 -296 55t-239 149.5t-158 228t-58 284.5t58 284.5t158 228t239 149.5t296 55h1233v-260h-752v-316h691v-254h-691v-344h773v-260h-1254zM352 717q0 -127 63 -229.5t169.5 -159t234.5 -56.5h205v889h-205q-196 0 -331.5 -126t-135.5 -318z" />
    <glyph glyph-name="oe" unicode="&#x153;" horiz-adv-x="2168" 
d="M647 -23q-162 0 -298 77.5t-214 210.5t-78 292q0 157 78 290t214 210.5t298 77.5q133 0 248.5 -52.5t198.5 -146.5q79 94 193.5 146.5t248.5 52.5q163 0 295 -73.5t206 -200.5t74 -281q0 -54 -12 -109h-860q24 -107 102 -173.5t193 -66.5q84 0 140 29t102 86h301
q-66 -167 -209 -268t-332 -101q-134 0 -248.5 52.5t-193.5 146.5q-83 -94 -198.5 -146.5t-248.5 -52.5zM338 557q0 -127 91 -218t218 -91t217 90.5t90 218.5q0 127 -90 217t-217 90q-128 0 -218.5 -90t-90.5 -217zM1249 688h572q-31 95 -106 150t-179 55t-180 -55t-107 -150
z" />
    <glyph glyph-name="Racute" unicode="&#x154;" horiz-adv-x="1417" 
d="M1065 0l-274 479h-377v-479h-277v1434h701q137 0 248.5 -65t173 -174.5t61.5 -238.5q0 -136 -69.5 -250.5t-188.5 -173.5l305 -532h-303zM414 737h405q85 0 146 64t61 153q0 91 -61 155.5t-146 64.5h-405v-437zM575 1571l148 354h301l-250 -354h-199z" />
    <glyph glyph-name="racute" unicode="&#x155;" horiz-adv-x="716" 
d="M115 0v1112h262v-215q87 256 307 238v-340q-55 22 -107.5 16t-94 -30t-66.5 -77t-25 -126v-578h-276zM231 1249l148 355h301l-250 -355h-199z" />
    <glyph glyph-name="uni0156" unicode="&#x156;" horiz-adv-x="1417" 
d="M1065 0l-274 479h-377v-479h-277v1434h701q137 0 248.5 -65t173 -174.5t61.5 -238.5q0 -136 -69.5 -250.5t-188.5 -173.5l305 -532h-303zM414 737h405q85 0 146 64t61 153q0 91 -61 155.5t-146 64.5h-405v-437zM545 -410l59 326h285l-141 -326h-203z" />
    <glyph glyph-name="uni0157" unicode="&#x157;" horiz-adv-x="716" 
d="M115 0v1112h262v-215q87 256 307 238v-340q-55 22 -107.5 16t-94 -30t-66.5 -77t-25 -126v-578h-276zM53 -410l60 326h284l-141 -326h-203z" />
    <glyph glyph-name="Rcaron" unicode="&#x158;" horiz-adv-x="1417" 
d="M1065 0l-274 479h-377v-479h-277v1434h701q137 0 248.5 -65t173 -174.5t61.5 -238.5q0 -136 -69.5 -250.5t-188.5 -173.5l305 -532h-303zM383 1698v225l317 -170l316 170v-225l-316 -172zM414 737h405q85 0 146 64t61 153q0 91 -61 155.5t-146 64.5h-405v-437z" />
    <glyph glyph-name="rcaron" unicode="&#x159;" horiz-adv-x="716" 
d="M115 0v1112h262v-215q87 256 307 238v-340q-55 22 -107.5 16t-94 -30t-66.5 -77t-25 -126v-578h-276zM37 1376v226l317 -170l316 170v-226l-316 -172z" />
    <glyph glyph-name="Sacute" unicode="&#x15a;" horiz-adv-x="1366" 
d="M702 -23q-303 0 -469 133t-174 349h281q2 -101 90 -165.5t264 -64.5q320 0 320 172q0 89 -81.5 131.5t-273.5 61.5q-106 12 -190 32t-155 54t-117.5 81.5t-72.5 114t-26 150.5q0 192 153.5 311t401.5 119q278 0 441 -126t174 -337h-281q-3 98 -94 154.5t-236 56.5
q-121 0 -199.5 -44t-78.5 -126q0 -76 81.5 -118t268.5 -62q291 -32 430 -132.5t139 -303.5q0 -204 -157 -322.5t-439 -118.5zM547 1571l147 354h301l-250 -354h-198z" />
    <glyph glyph-name="sacute" unicode="&#x15b;" horiz-adv-x="1064" 
d="M541 -23q-226 0 -356.5 107.5t-139.5 277.5h279q3 -66 56.5 -110.5t156.5 -44.5q206 0 206 108q0 54 -60.5 78t-213.5 49q-195 29 -299 111.5t-104 234.5q0 157 125 252t331 95q198 0 328 -99t139 -264h-278q-3 58 -49 97.5t-138 39.5t-138 -26t-46 -72q0 -55 58.5 -83.5
t199.5 -51.5q78 -13 136.5 -28.5t115 -43t92 -64.5t57 -92t21.5 -126q0 -152 -132 -248.5t-347 -96.5zM399 1249l148 355h301l-250 -355h-199z" />
    <glyph glyph-name="Scircumflex" unicode="&#x15c;" horiz-adv-x="1366" 
d="M702 -23q-303 0 -469 133t-174 349h281q2 -101 90 -165.5t264 -64.5q320 0 320 172q0 89 -81.5 131.5t-273.5 61.5q-106 12 -190 32t-155 54t-117.5 81.5t-72.5 114t-26 150.5q0 192 153.5 311t401.5 119q278 0 441 -126t174 -337h-281q-3 98 -94 154.5t-236 56.5
q-121 0 -199.5 -44t-78.5 -126q0 -76 81.5 -118t268.5 -62q291 -32 430 -132.5t139 -303.5q0 -204 -157 -322.5t-439 -118.5zM356 1542v225l318 172l315 -172v-225l-315 170z" />
    <glyph glyph-name="scircumflex" unicode="&#x15d;" horiz-adv-x="1064" 
d="M541 -23q-226 0 -356.5 107.5t-139.5 277.5h279q3 -66 56.5 -110.5t156.5 -44.5q206 0 206 108q0 54 -60.5 78t-213.5 49q-195 29 -299 111.5t-104 234.5q0 157 125 252t331 95q198 0 328 -99t139 -264h-278q-3 58 -49 97.5t-138 39.5t-138 -26t-46 -72q0 -55 58.5 -83.5
t199.5 -51.5q78 -13 136.5 -28.5t115 -43t92 -64.5t57 -92t21.5 -126q0 -152 -132 -248.5t-347 -96.5zM209 1221v225l317 172l316 -172v-225l-316 170z" />
    <glyph glyph-name="Scedilla" unicode="&#x15e;" horiz-adv-x="1366" 
d="M735 -430q-50 0 -95 5t-65 10l-20 5v138q227 -44 227 16q0 25 -41.5 37.5t-138.5 15.5l14 183q-263 20 -406 149.5t-151 329.5h281q2 -101 90 -165.5t264 -64.5q320 0 320 172q0 89 -81.5 131.5t-273.5 61.5q-106 12 -190 32t-155 54t-117.5 81.5t-72.5 114t-26 150.5
q0 192 153.5 311t401.5 119q278 0 441 -126t174 -337h-281q-3 98 -94 154.5t-236 56.5q-121 0 -199.5 -44t-78.5 -126q0 -76 81.5 -118t268.5 -62q291 -32 430 -132.5t139 -303.5q0 -191 -137.5 -307t-386.5 -131l-4 -33q248 -20 248 -180q0 -98 -76 -147.5t-207 -49.5z" />
    <glyph glyph-name="scedilla" unicode="&#x15f;" horiz-adv-x="1064" 
d="M569 -430q-50 0 -95 5t-65 10l-20 5v138q227 -44 227 16q0 25 -41.5 37.5t-138.5 15.5l17 185q-187 21 -293.5 124.5t-114.5 255.5h279q3 -66 56.5 -110.5t156.5 -44.5q206 0 206 108q0 54 -60.5 78t-213.5 49q-195 29 -299 111.5t-104 234.5q0 157 125 252t331 95
q198 0 328 -99t139 -264h-278q-3 58 -49 97.5t-138 39.5t-138 -26t-46 -72q0 -55 58.5 -83.5t199.5 -51.5q78 -13 136.5 -28.5t115 -43t92 -64.5t57 -92t21.5 -126q0 -139 -112.5 -233t-299.5 -109l-4 -33q248 -20 248 -180q0 -98 -76 -147.5t-207 -49.5z" />
    <glyph glyph-name="Scaron" unicode="&#x160;" horiz-adv-x="1366" 
d="M702 -23q-303 0 -469 133t-174 349h281q2 -101 90 -165.5t264 -64.5q320 0 320 172q0 89 -81.5 131.5t-273.5 61.5q-106 12 -190 32t-155 54t-117.5 81.5t-72.5 114t-26 150.5q0 192 153.5 311t401.5 119q278 0 441 -126t174 -337h-281q-3 98 -94 154.5t-236 56.5
q-121 0 -199.5 -44t-78.5 -126q0 -76 81.5 -118t268.5 -62q291 -32 430 -132.5t139 -303.5q0 -204 -157 -322.5t-439 -118.5zM354 1698v225l318 -170l315 170v-225l-315 -172z" />
    <glyph glyph-name="scaron" unicode="&#x161;" horiz-adv-x="1064" 
d="M541 -23q-226 0 -356.5 107.5t-139.5 277.5h279q3 -66 56.5 -110.5t156.5 -44.5q206 0 206 108q0 54 -60.5 78t-213.5 49q-195 29 -299 111.5t-104 234.5q0 157 125 252t331 95q198 0 328 -99t139 -264h-278q-3 58 -49 97.5t-138 39.5t-138 -26t-46 -72q0 -55 58.5 -83.5
t199.5 -51.5q78 -13 136.5 -28.5t115 -43t92 -64.5t57 -92t21.5 -126q0 -152 -132 -248.5t-347 -96.5zM205 1376v226l317 -170l316 170v-226l-316 -172z" />
    <glyph glyph-name="uni0162" unicode="&#x162;" horiz-adv-x="1249" 
d="M487 0v1174h-469v260h1213v-260h-467v-1174h-55l-7 -53q248 -20 248 -180q0 -98 -75.5 -147.5t-206.5 -49.5q-50 0 -95.5 5t-65.5 10l-20 5v138q228 -44 228 16q0 25 -41.5 37.5t-138.5 15.5l16 203h-64z" />
    <glyph glyph-name="uni0163" unicode="&#x163;" horiz-adv-x="710" 
d="M530 0h-24l-6 -53q248 -20 248 -180q0 -98 -76 -147.5t-207 -49.5q-50 0 -95 5t-65 10l-20 5v138q227 -44 227 16q0 25 -41.5 37.5t-138.5 15.5l20 238q-89 41 -137.5 126t-48.5 212v483h-156v256h156v201l276 80v-281h234v-256h-234v-473q0 -59 28.5 -93t76.5 -34h129
v-256h-146z" />
    <glyph glyph-name="Tcaron" unicode="&#x164;" horiz-adv-x="1249" 
d="M487 0v1174h-469v260h1213v-260h-467v-1174h-277zM305 1698v225l318 -170l315 170v-225l-315 -172z" />
    <glyph glyph-name="tcaron" unicode="&#x165;" horiz-adv-x="710" 
d="M530 0q-169 0 -266.5 95.5t-97.5 277.5v483h-156v256h156v201l276 80v-281h234v-256h-234v-473q0 -59 28.5 -93t76.5 -34h129v-256h-146zM547 1217l28 421h269l-92 -421h-205z" />
    <glyph glyph-name="Tbar" unicode="&#x166;" horiz-adv-x="1249" 
d="M252 610v207h235v357h-469v260h1213v-260h-467v-357h235v-207h-235v-610h-277v610h-235z" />
    <glyph glyph-name="tbar" unicode="&#x167;" horiz-adv-x="722" 
d="M23 506v207h143v143h-156v256h156v201l276 80v-281h234v-256h-234v-143h246v-207h-246v-123q0 -59 28.5 -93t76.5 -34h129v-256h-146q-169 0 -266.5 95.5t-97.5 277.5v133h-143z" />
    <glyph glyph-name="Utilde" unicode="&#x168;" horiz-adv-x="1501" 
d="M750 -23q-178 0 -320.5 76.5t-224.5 219.5t-82 329v832h276v-832q0 -157 97 -253.5t254 -96.5q158 0 254 96.5t96 253.5v832h276v-832q0 -280 -177 -452.5t-449 -172.5zM371 1595q7 144 76 215.5t182 71.5q44 0 81 -15.5t57.5 -33.5t45.5 -33.5t47 -15.5q64 0 70 88h200
q-7 -139 -73.5 -213t-177.5 -74q-44 0 -82.5 15.5t-60 33.5t-47 33.5t-46.5 15.5q-64 0 -70 -88h-202z" />
    <glyph glyph-name="utilde" unicode="&#x169;" horiz-adv-x="1228" 
d="M614 -23q-102 0 -196 39t-163.5 105.5t-111 161.5t-41.5 202v627h277v-631q0 -97 68.5 -166t166.5 -69q99 0 167.5 69t68.5 166v631h276v-627q0 -107 -41.5 -202t-111 -161.5t-163.5 -105.5t-196 -39zM236 1274q7 144 76 215.5t182 71.5q44 0 81 -15.5t57.5 -34t45.5 -34
t47 -15.5q64 0 70 88h200q-7 -139 -74 -212.5t-178 -73.5q-44 0 -82.5 15.5t-60 33.5t-46.5 33.5t-46 15.5q-64 0 -70 -88h-202z" />
    <glyph glyph-name="Umacron" unicode="&#x16a;" horiz-adv-x="1501" 
d="M750 -23q-178 0 -320.5 76.5t-224.5 219.5t-82 329v832h276v-832q0 -157 97 -253.5t254 -96.5q158 0 254 96.5t96 253.5v832h276v-832q0 -280 -177 -452.5t-449 -172.5zM406 1620v207h698v-207h-698z" />
    <glyph glyph-name="umacron" unicode="&#x16b;" horiz-adv-x="1228" 
d="M614 -23q-102 0 -196 39t-163.5 105.5t-111 161.5t-41.5 202v627h277v-631q0 -97 68.5 -166t166.5 -69q99 0 167.5 69t68.5 166v631h276v-627q0 -107 -41.5 -202t-111 -161.5t-163.5 -105.5t-196 -39zM270 1298v207h699v-207h-699z" />
    <glyph glyph-name="Ubreve" unicode="&#x16c;" horiz-adv-x="1501" 
d="M750 -23q-178 0 -320.5 76.5t-224.5 219.5t-82 329v832h276v-832q0 -157 97 -253.5t254 -96.5q158 0 254 96.5t96 253.5v832h276v-832q0 -280 -177 -452.5t-449 -172.5zM408 1874h208q5 -57 39 -94t95 -37q62 0 95 37t38 94h209q-12 -154 -105.5 -240t-236.5 -86
q-141 0 -235.5 87t-106.5 239z" />
    <glyph glyph-name="ubreve" unicode="&#x16d;" horiz-adv-x="1228" 
d="M614 -23q-102 0 -196 39t-163.5 105.5t-111 161.5t-41.5 202v627h277v-631q0 -97 68.5 -166t166.5 -69q99 0 167.5 69t68.5 166v631h276v-627q0 -107 -41.5 -202t-111 -161.5t-163.5 -105.5t-196 -39zM272 1552h209q5 -57 38.5 -94t94.5 -37q62 0 95.5 37t38.5 94h208
q-12 -153 -105.5 -239t-236.5 -86q-141 0 -235.5 86.5t-106.5 238.5z" />
    <glyph glyph-name="Uring" unicode="&#x16e;" horiz-adv-x="1501" 
d="M750 -23q-178 0 -320.5 76.5t-224.5 219.5t-82 329v832h276v-832q0 -157 97 -253.5t254 -96.5q158 0 254 96.5t96 253.5v832h276v-832q0 -280 -177 -452.5t-449 -172.5zM514 1759q0 99 69.5 168.5t168.5 69.5q98 0 166.5 -69.5t68.5 -168.5q0 -97 -68.5 -167t-166.5 -70
q-99 0 -168.5 70t-69.5 167zM672 1761q0 -34 23 -57t57 -23q32 0 55.5 23.5t23.5 56.5q0 32 -23.5 56t-55.5 24q-33 0 -56.5 -23.5t-23.5 -56.5z" />
    <glyph glyph-name="uring" unicode="&#x16f;" horiz-adv-x="1228" 
d="M614 -23q-102 0 -196 39t-163.5 105.5t-111 161.5t-41.5 202v627h277v-631q0 -97 68.5 -166t166.5 -69q99 0 167.5 69t68.5 166v631h276v-627q0 -107 -41.5 -202t-111 -161.5t-163.5 -105.5t-196 -39zM379 1438q0 99 69 168t168 69q98 0 167 -69.5t69 -167.5
q0 -97 -69 -167.5t-167 -70.5q-99 0 -168 70t-69 168zM537 1440q0 -34 22.5 -57t56.5 -23q33 0 56.5 23.5t23.5 56.5q0 32 -24 56t-56 24q-33 0 -56 -23.5t-23 -56.5z" />
    <glyph glyph-name="Uhungarumlaut" unicode="&#x170;" horiz-adv-x="1501" 
d="M750 -23q-178 0 -320.5 76.5t-224.5 219.5t-82 329v832h276v-832q0 -157 97 -253.5t254 -96.5q158 0 254 96.5t96 253.5v832h276v-832q0 -280 -177 -452.5t-449 -172.5zM442 1577l133 354h297l-235 -354h-195zM815 1577l135 354h295l-235 -354h-195z" />
    <glyph glyph-name="uhungarumlaut" unicode="&#x171;" horiz-adv-x="1228" 
d="M614 -23q-102 0 -196 39t-163.5 105.5t-111 161.5t-41.5 202v627h277v-631q0 -97 68.5 -166t166.5 -69q99 0 167.5 69t68.5 166v631h276v-627q0 -107 -41.5 -202t-111 -161.5t-163.5 -105.5t-196 -39zM307 1255l133 355h297l-235 -355h-195zM680 1255l135 355h295
l-236 -355h-194z" />
    <glyph glyph-name="Uogonek" unicode="&#x172;" horiz-adv-x="1501" 
d="M762 -430q-119 0 -193.5 54.5t-74.5 160.5q0 56 30.5 110.5t98.5 92.5q-224 39 -362 204t-138 410v832h276v-832q0 -157 97 -253.5t254 -96.5q158 0 254 96.5t96 253.5v832h276v-832q0 -233 -125 -394.5t-331 -209.5q-164 -56 -164 -148q0 -36 24.5 -55.5t69.5 -19.5
q19 0 41 3.5t35 7.5l12 3l-20 -195q-60 -24 -156 -24z" />
    <glyph glyph-name="uogonek" unicode="&#x173;" horiz-adv-x="1228" 
d="M598 -430q-119 0 -193.5 54.5t-74.5 160.5q0 140 143 211q-162 45 -266.5 179t-104.5 310v627h277v-631q0 -97 68.5 -166t166.5 -69q99 0 167.5 69t68.5 166v631h276v-627q0 -178 -105.5 -311.5t-268.5 -177.5q-160 -57 -160 -146q0 -36 24.5 -55.5t69.5 -19.5
q19 0 41 3.5t35 7.5l12 3l-20 -195q-60 -24 -156 -24z" />
    <glyph glyph-name="Wcircumflex" unicode="&#x174;" horiz-adv-x="2048" 
d="M1556 0h-172l-360 1008l-362 -1008h-170l-486 1434h299l295 -912l330 912h188l328 -912l297 912h297zM707 1542v225l317 172l315 -172v-225l-315 170z" />
    <glyph glyph-name="wcircumflex" unicode="&#x175;" horiz-adv-x="1740" 
d="M330 0l-322 1112h297l193 -795l227 795h293l227 -795l195 795h291l-318 -1112h-309l-234 791l-233 -791h-307zM553 1221v225l317 172l316 -172v-225l-316 170z" />
    <glyph glyph-name="Ycircumflex" unicode="&#x176;" horiz-adv-x="1353" 
d="M549 0v494l-553 940h317l379 -656l359 656h307l-533 -936v-498h-276zM358 1542v225l318 172l315 -172v-225l-315 170z" />
    <glyph glyph-name="ycircumflex" unicode="&#x177;" horiz-adv-x="1173" 
d="M229 -410l217 510l-448 1012h307l293 -694l270 694h297l-639 -1522h-297zM274 1221v225l318 172l315 -172v-225l-315 170z" />
    <glyph glyph-name="Ydieresis" unicode="&#x178;" horiz-adv-x="1353" 
d="M549 0v494l-553 940h317l379 -656l359 656h307l-533 -936v-498h-276zM291 1749q0 67 49 115.5t115 48.5q68 0 117 -48.5t49 -115.5q0 -68 -49 -116t-117 -48q-67 0 -115.5 48t-48.5 116zM735 1749q0 67 48.5 115.5t115.5 48.5q66 0 115 -48.5t49 -115.5q0 -68 -48.5 -116
t-115.5 -48q-68 0 -116 47.5t-48 116.5z" />
    <glyph glyph-name="Zacute" unicode="&#x179;" horiz-adv-x="1267" 
d="M18 0l742 1174h-680v260h1171l-743 -1174h729v-260h-1219zM506 1571l147 354h301l-249 -354h-199z" />
    <glyph glyph-name="zacute" unicode="&#x17a;" horiz-adv-x="1089" 
d="M23 0l552 856h-512v256h992l-553 -856h532v-256h-1011zM410 1249l147 355h301l-250 -355h-198z" />
    <glyph glyph-name="Zdotaccent" unicode="&#x17b;" horiz-adv-x="1267" 
d="M18 0l742 1174h-680v260h1171l-743 -1174h729v-260h-1219zM467 1749q0 67 49.5 116.5t116.5 49.5t116.5 -49.5t49.5 -116.5q0 -69 -49 -117.5t-117 -48.5t-117 48.5t-49 117.5z" />
    <glyph glyph-name="zdotaccent" unicode="&#x17c;" horiz-adv-x="1089" 
d="M23 0l552 856h-512v256h992l-553 -856h532v-256h-1011zM371 1427q0 67 49.5 116.5t116.5 49.5t116 -49t49 -117q0 -69 -48.5 -117t-116.5 -48t-117 48t-49 117z" />
    <glyph glyph-name="Zcaron" unicode="&#x17d;" horiz-adv-x="1267" 
d="M18 0l742 1174h-680v260h1171l-743 -1174h729v-260h-1219zM311 1698v225l318 -170l315 170v-225l-315 -172z" />
    <glyph glyph-name="zcaron" unicode="&#x17e;" horiz-adv-x="1089" 
d="M23 0l552 856h-512v256h992l-553 -856h532v-256h-1011zM217 1376v226l318 -170l315 170v-226l-315 -172z" />
    <glyph glyph-name="uni018F" unicode="&#x18f;" horiz-adv-x="1636" 
d="M819 -23q-159 0 -299 59t-239 159.5t-156 238t-57 289.5v61h1212q-23 174 -153.5 288t-307.5 114q-289 0 -403 -228h-318q79 229 271.5 363.5t449.5 134.5q155 0 294.5 -58t239 -157.5t158 -236.5t58.5 -289q0 -151 -58.5 -287.5t-158 -235.5t-239 -157t-294.5 -58z
M377 559q47 -141 168 -227t272 -86q150 0 270 86.5t170 226.5h-880z" />
    <glyph glyph-name="florin" unicode="&#x192;" horiz-adv-x="700" 
d="M186 0v856h-155v256h155v70q0 184 98 279t267 95h127v-245h-111q-48 0 -76 -34t-28 -95v-70h215v-256h-215v-856h-277z" />
    <glyph glyph-name="Ohorn" unicode="&#x1a0;" horiz-adv-x="1636" 
d="M819 -23q-208 0 -381 99t-271.5 269t-98.5 372q0 151 58 288t158 236t239.5 157t295.5 58q94 0 187 -22q93 2 137.5 32.5t44.5 106.5q0 39 -6 69h272q6 -30 6 -71q0 -193 -155 -289q125 -103 194.5 -250t69.5 -315q0 -151 -58.5 -288t-158 -236t-239 -157.5t-294.5 -58.5
zM352 717q0 -194 136.5 -329.5t330.5 -135.5q193 0 329 135.5t136 329.5t-136 329.5t-329 135.5q-194 0 -330.5 -135.5t-136.5 -329.5z" />
    <glyph glyph-name="ohorn" unicode="&#x1a1;" horiz-adv-x="1294" 
d="M647 -23q-162 0 -298 77.5t-214 210.5t-78 292q0 157 78 290t214 210.5t298 77.5q67 0 156 -21q71 6 107 38.5t36 98.5q0 40 -6 70h272q7 -35 7 -72q0 -203 -197 -284q107 -60 161 -170.5t54 -237.5q0 -159 -78 -292t-214 -210.5t-298 -77.5zM338 557q0 -127 91 -218
t218 -91t217 90.5t90 218.5q0 127 -90 217t-217 90q-128 0 -218.5 -90t-90.5 -217z" />
    <glyph glyph-name="Uhorn" unicode="&#x1af;" horiz-adv-x="1501" 
d="M750 -23q-178 0 -320.5 76.5t-224.5 219.5t-82 329v832h276v-832q0 -157 97 -253.5t254 -96.5q158 0 254 96.5t96 253.5v832h59q97 0 144 30.5t47 108.5q0 34 -7 69h273q6 -30 6 -71q0 -121 -63 -205.5t-183 -124.5v-639q0 -280 -177 -452.5t-449 -172.5z" />
    <glyph glyph-name="uhorn" unicode="&#x1b0;" horiz-adv-x="1228" 
d="M614 -23q-102 0 -196 39t-163.5 105.5t-111 161.5t-41.5 202v627h277v-631q0 -97 68.5 -166t166.5 -69q99 0 167.5 69t68.5 166v631h41q97 0 143.5 30.5t46.5 108.5q0 40 -6 70h273q6 -30 6 -72q0 -116 -58.5 -199t-169.5 -124v-441q0 -107 -41.5 -202t-111 -161.5
t-163.5 -105.5t-196 -39z" />
    <glyph glyph-name="uni0218" unicode="&#x218;" horiz-adv-x="1366" 
d="M702 -23q-303 0 -469 133t-174 349h281q2 -101 90 -165.5t264 -64.5q320 0 320 172q0 89 -81.5 131.5t-273.5 61.5q-106 12 -190 32t-155 54t-117.5 81.5t-72.5 114t-26 150.5q0 192 153.5 311t401.5 119q278 0 441 -126t174 -337h-281q-3 98 -94 154.5t-236 56.5
q-121 0 -199.5 -44t-78.5 -126q0 -76 81.5 -118t268.5 -62q291 -32 430 -132.5t139 -303.5q0 -204 -157 -322.5t-439 -118.5zM494 -410l59 326h285l-142 -326h-202z" />
    <glyph glyph-name="uni0219" unicode="&#x219;" horiz-adv-x="1064" 
d="M541 -23q-226 0 -356.5 107.5t-139.5 277.5h279q3 -66 56.5 -110.5t156.5 -44.5q206 0 206 108q0 54 -60.5 78t-213.5 49q-195 29 -299 111.5t-104 234.5q0 157 125 252t331 95q198 0 328 -99t139 -264h-278q-3 58 -49 97.5t-138 39.5t-138 -26t-46 -72q0 -55 58.5 -83.5
t199.5 -51.5q78 -13 136.5 -28.5t115 -43t92 -64.5t57 -92t21.5 -126q0 -152 -132 -248.5t-347 -96.5zM328 -410l59 326h285l-142 -326h-202z" />
    <glyph glyph-name="uni021A" unicode="&#x21a;" horiz-adv-x="1249" 
d="M487 0v1174h-469v260h1213v-260h-467v-1174h-277zM424 -410l59 326h285l-141 -326h-203z" />
    <glyph glyph-name="uni021B" unicode="&#x21b;" horiz-adv-x="710" 
d="M530 0q-169 0 -266.5 95.5t-97.5 277.5v483h-156v256h156v201l276 80v-281h234v-256h-234v-473q0 -59 28.5 -93t76.5 -34h129v-256h-146zM221 -410l60 326h284l-141 -326h-203z" />
    <glyph glyph-name="uni0237" unicode="&#x237;" horiz-adv-x="503" 
d="M-29 -410v256h37q48 0 77.5 34t29.5 93v1139h276v-1147q0 -183 -98.5 -279t-267.5 -96h-54z" />
    <glyph glyph-name="uni0259" unicode="&#x259;" horiz-adv-x="1269" 
d="M631 1135q164 0 297.5 -77.5t208.5 -210.5t75 -292q0 -158 -75 -290.5t-208.5 -210t-297.5 -77.5q-122 0 -229.5 43t-183.5 117.5t-119.5 177t-43.5 217.5q0 49 13 109h860q-24 107 -102 173.5t-193 66.5q-84 0 -140 -29t-102 -86h-301q66 167 209 268t332 101zM346 424
q31 -95 106 -150t179 -55t180 55t107 150h-572z" />
    <glyph glyph-name="uni02BC" unicode="&#x2bc;" horiz-adv-x="1228" 
 />
    <glyph glyph-name="circumflex" unicode="&#x2c6;" horiz-adv-x="655" 
d="M6 1221v225l318 172l315 -172v-225l-315 170z" />
    <glyph glyph-name="caron" unicode="&#x2c7;" horiz-adv-x="653" 
d="M6 1602l318 -170l315 170v-226l-315 -172l-318 172v226z" />
    <glyph glyph-name="breve" unicode="&#x2d8;" horiz-adv-x="712" 
d="M356 1227q-141 0 -235.5 86.5t-106.5 238.5h209q5 -57 38.5 -94t94.5 -37q62 0 95 37t38 94h209q-12 -153 -105.5 -239t-236.5 -86z" />
    <glyph glyph-name="dotaccent" unicode="&#x2d9;" horiz-adv-x="331" 
d="M166 1262q-68 0 -117 48t-49 117q0 67 49 116.5t117 49.5t117 -49.5t49 -116.5q0 -69 -49 -117t-117 -48z" />
    <glyph glyph-name="ring" unicode="&#x2da;" horiz-adv-x="473" 
d="M238 1200q-99 0 -168.5 70.5t-69.5 167.5q0 98 69 167.5t169 69.5q98 0 166.5 -69.5t68.5 -167.5q0 -97 -68.5 -167.5t-166.5 -70.5zM158 1440q0 -34 23 -57t57 -23q32 0 55.5 23t23.5 57q0 32 -23.5 56t-55.5 24q-33 0 -56.5 -23.5t-23.5 -56.5z" />
    <glyph glyph-name="ogonek" unicode="&#x2db;" horiz-adv-x="1228" 
d="M653 -430q-119 0 -193.5 54.5t-74.5 160.5q0 81 60.5 151t201.5 101l172 -37q-172 -56 -172 -150q0 -36 24.5 -55.5t69.5 -19.5q19 0 41 3.5t34 7.5l13 3l-20 -195q-60 -24 -156 -24z" />
    <glyph glyph-name="tilde" unicode="&#x2dc;" horiz-adv-x="774" 
d="M512 1264q-44 0 -82.5 15.5t-60 33.5t-47 33.5t-46.5 15.5q-63 0 -69 -88h-203q7 144 76 215.5t182 71.5q44 0 81 -15.5t58 -34t46 -34t47 -15.5q63 0 69 88h201q-7 -139 -74 -212.5t-178 -73.5z" />
    <glyph glyph-name="hungarumlaut" unicode="&#x2dd;" horiz-adv-x="804" 
d="M391 1249l135 355h295l-235 -355h-195zM18 1249l134 355h297l-236 -355h-195z" />
    <glyph glyph-name="gravecomb" unicode="&#x300;" horiz-adv-x="0" 
 />
    <glyph glyph-name="acutecomb" unicode="&#x301;" horiz-adv-x="0" 
 />
    <glyph glyph-name="uni0302" unicode="&#x302;" horiz-adv-x="0" 
 />
    <glyph glyph-name="tildecomb" unicode="&#x303;" horiz-adv-x="0" 
 />
    <glyph glyph-name="uni0306" unicode="&#x306;" horiz-adv-x="0" 
 />
    <glyph glyph-name="hookabovecomb" unicode="&#x309;" horiz-adv-x="0" 
d="M162 1249q0 36 20.5 62.5t45 39.5t45 31t20.5 39q0 41 -49 41q-29 0 -44.5 -19t-15.5 -50h-184q0 98 66.5 164.5t189.5 66.5q111 0 170 -46.5t59 -125.5q0 -40 -13.5 -70.5t-33 -47.5t-39 -30t-34 -26.5t-15.5 -28.5h-188z" />
    <glyph glyph-name="uni031B" unicode="&#x31b;" horiz-adv-x="0" 
d="M18 1112q97 0 144 30.5t47 108.5q0 40 -6 70h272q6 -30 6 -72q0 -169 -121 -264.5t-342 -95.5v223z" />
    <glyph glyph-name="dotbelowcomb" unicode="&#x323;" horiz-adv-x="0" 
d="M166 -479q-68 0 -117 48.5t-49 117.5q0 67 49 116.5t117 49.5t117 -49.5t49 -116.5q0 -69 -49 -117.5t-117 -48.5z" />
    <glyph glyph-name="uni0326" unicode="&#x326;" horiz-adv-x="0" 
d="M4 -410l59 326h285l-141 -326h-203z" />
    <glyph glyph-name="uni0374" unicode="&#x374;" horiz-adv-x="385" 
d="M78 866l-21 568h271l-21 -568h-229z" />
    <glyph glyph-name="uni0375" unicode="&#x375;" horiz-adv-x="460" 
d="M27 -211l84 506h297l-144 -506h-237z" />
    <glyph glyph-name="uni037E" unicode="&#x37e;" horiz-adv-x="460" 
d="M27 -211l84 506h297l-144 -506h-237zM61 965q0 69 50 119.5t120 50.5q69 0 118.5 -50.5t49.5 -119.5t-49.5 -118.5t-118.5 -49.5q-70 0 -120 49.5t-50 118.5z" />
    <glyph glyph-name="tonos" unicode="&#x384;" horiz-adv-x="454" 
d="M0 1249l147 355h302l-250 -355h-199z" />
    <glyph glyph-name="dieresistonos" unicode="&#x385;" horiz-adv-x="794" 
d="M260 1249l57 355h232l-141 -355h-148zM-6 1427q0 54 38.5 93t92.5 39t93.5 -39t39.5 -93q0 -55 -39.5 -94t-93.5 -39t-92.5 39t-38.5 94zM524 1427q0 54 38.5 93t92.5 39t93.5 -39t39.5 -93q0 -55 -39.5 -94t-93.5 -39t-92.5 39t-38.5 94z" />
    <glyph glyph-name="Alphatonos" unicode="&#x386;" horiz-adv-x="1558" 
d="M55 1044l88 355h301l-190 -355h-199zM6 0l703 1434h159l697 -1434h-312l-133 285h-674l-135 -285h-305zM555 514h457l-228 483z" />
    <glyph glyph-name="anoteleia" unicode="&#x387;" horiz-adv-x="460" 
d="M231 408q-70 0 -120 50.5t-50 119.5t50 118t120 49q69 0 118.5 -49t49.5 -118t-49.5 -119.5t-118.5 -50.5z" />
    <glyph glyph-name="Epsilontonos" unicode="&#x388;" horiz-adv-x="1626" 
d="M12 1079l86 355h301l-188 -355h-199zM455 0v1434h1073v-260h-797v-316h735v-254h-735v-344h817v-260h-1093z" />
    <glyph glyph-name="Etatonos" unicode="&#x389;" horiz-adv-x="1851" 
d="M12 1079l86 355h301l-188 -355h-199zM455 0v1434h276v-543h707v543h276v-1434h-276v629h-707v-629h-276z" />
    <glyph glyph-name="Iotatonos" unicode="&#x38a;" horiz-adv-x="868" 
d="M12 1079l86 355h301l-188 -355h-199zM455 0v1434h276v-1434h-276z" />
    <glyph glyph-name="Omicrontonos" unicode="&#x38c;" horiz-adv-x="1869" 
d="M12 1079l86 355h301l-188 -355h-199zM301 717q0 151 58.5 288t158 236t239.5 157t296 58q124 0 239.5 -37t207 -105.5t160 -159t105.5 -203.5t37 -234q0 -202 -98.5 -372t-271 -269t-379.5 -99q-156 0 -296 58.5t-239.5 157.5t-158 236t-58.5 288zM586 717
q0 -194 136.5 -329.5t330.5 -135.5q193 0 329 135.5t136 329.5t-136 329.5t-329 135.5q-194 0 -330.5 -135.5t-136.5 -329.5z" />
    <glyph glyph-name="Upsilontonos" unicode="&#x38e;" horiz-adv-x="1781" 
d="M12 1079l88 355h303l-192 -355h-199zM424 1434h317l379 -656l359 656h307l-533 -936v-498h-276v494z" />
    <glyph glyph-name="Omegatonos" unicode="&#x38f;" horiz-adv-x="1873" 
d="M12 1079l86 355h301l-188 -355h-199zM301 748q0 150 58.5 281.5t158.5 225t239.5 147.5t297.5 54q210 0 382.5 -91.5t271.5 -254t99 -362.5q0 -300 -194 -488h176v-260h-619v223q157 43 255 180.5t98 325.5q0 196 -137 324.5t-332 128.5q-128 0 -235 -57t-170.5 -161.5
t-63.5 -234.5q0 -188 97.5 -325.5t254.5 -180.5v-223h-621v260h179q-195 189 -195 488z" />
    <glyph glyph-name="iotadieresistonos" unicode="&#x390;" horiz-adv-x="503" 
d="M115 0v1112h276v-1112h-276zM-119 1411q0 54 38.5 92.5t92.5 38.5t93.5 -38.5t39.5 -92.5q0 -55 -39.5 -94t-93.5 -39t-92.5 39t-38.5 94zM147 1233l58 354h231l-141 -354h-148zM412 1411q0 54 38.5 92.5t92.5 38.5t93.5 -38.5t39.5 -92.5q0 -55 -39.5 -94t-93.5 -39
t-92.5 39t-38.5 94z" />
    <glyph glyph-name="Alpha" unicode="&#x391;" horiz-adv-x="1570" 
d="M6 0l703 1434h159l697 -1434h-312l-133 285h-674l-135 -285h-305zM555 514h457l-228 483z" />
    <glyph glyph-name="Beta" unicode="&#x392;" horiz-adv-x="1488" 
d="M137 0v1434h785q193 0 311.5 -111t118.5 -281q0 -184 -144 -278q100 -50 156.5 -139.5t56.5 -204.5q0 -179 -130.5 -299.5t-329.5 -120.5h-824zM414 260h530q79 0 137 52t58 126q0 73 -58 125.5t-137 52.5h-530v-356zM414 860h489q77 0 122.5 46.5t45.5 113.5
q0 64 -45.5 109t-122.5 45h-489v-314z" />
    <glyph glyph-name="Gamma" unicode="&#x393;" horiz-adv-x="1075" 
d="M137 0v1434h959v-263h-682v-1171h-277z" />
    <glyph glyph-name="uni0394" unicode="&#x394;" horiz-adv-x="1519" 
d="M-2 0l684 1434h160l680 -1434h-1524zM418 246h680l-340 741z" />
    <glyph glyph-name="Epsilon" unicode="&#x395;" horiz-adv-x="1308" 
d="M137 0v1434h1073v-260h-796v-316h735v-254h-735v-344h817v-260h-1094z" />
    <glyph glyph-name="Zeta" unicode="&#x396;" horiz-adv-x="1267" 
d="M18 0l742 1174h-680v260h1171l-743 -1174h729v-260h-1219z" />
    <glyph glyph-name="Eta" unicode="&#x397;" horiz-adv-x="1533" 
d="M137 0v1434h277v-543h706v543h277v-1434h-277v629h-706v-629h-277z" />
    <glyph glyph-name="Theta" unicode="&#x398;" horiz-adv-x="1636" 
d="M502 616v207h639v-207h-639zM68 717q0 151 58 288t158 236t239.5 157t295.5 58q155 0 294.5 -58t239 -157t158 -236t58.5 -288t-58.5 -288t-158 -236t-239 -157.5t-294.5 -58.5q-208 0 -381 99t-271.5 269t-98.5 372zM352 717q0 -194 136.5 -329.5t330.5 -135.5
q193 0 329 135.5t136 329.5t-136 329.5t-329 135.5q-194 0 -330.5 -135.5t-136.5 -329.5z" />
    <glyph glyph-name="Iota" unicode="&#x399;" horiz-adv-x="550" 
d="M137 0v1434h277v-1434h-277z" />
    <glyph glyph-name="Kappa" unicode="&#x39a;" horiz-adv-x="1396" 
d="M1075 0l-629 731l615 703h325l-606 -693l643 -741h-348zM137 0v1434h277v-1434h-277z" />
    <glyph glyph-name="Lambda" unicode="&#x39b;" horiz-adv-x="1462" 
d="M803 1495l647 -1495h-313l-422 1028l-400 -1028h-301l629 1495h160z" />
    <glyph glyph-name="Mu" unicode="&#x39c;" horiz-adv-x="1787" 
d="M137 1434h166l602 -703l582 703h164v-1434h-277v893l-469 -555l-491 555v-893h-277v1434z" />
    <glyph glyph-name="Nu" unicode="&#x39d;" horiz-adv-x="1548" 
d="M1411 0h-182l-815 911v-911h-277v1434h166l832 -912v912h276v-1434z" />
    <glyph glyph-name="Xi" unicode="&#x39e;" horiz-adv-x="1286" 
d="M80 0v260h1128v-260h-1128zM80 1174v260h1108v-260h-1108zM178 604v254h930v-254h-930z" />
    <glyph glyph-name="Omicron" unicode="&#x39f;" horiz-adv-x="1636" 
d="M819 -23q-208 0 -381 99t-271.5 269t-98.5 372q0 151 58 288t158 236t239.5 157t295.5 58q155 0 294.5 -58t239 -157t158 -236t58.5 -288t-58.5 -288t-158 -236t-239 -157.5t-294.5 -58.5zM352 717q0 -194 136.5 -329.5t330.5 -135.5q193 0 329 135.5t136 329.5
t-136 329.5t-329 135.5q-194 0 -330.5 -135.5t-136.5 -329.5z" />
    <glyph glyph-name="Pi" unicode="&#x3a0;" horiz-adv-x="1527" 
d="M137 0v1434h1254v-1434h-277v1171h-700v-1171h-277z" />
    <glyph glyph-name="Rho" unicode="&#x3a1;" horiz-adv-x="1378" 
d="M137 0v1434h701q137 0 248.5 -65t173 -174.5t61.5 -238.5t-61.5 -238t-173 -174t-248.5 -65h-424v-479h-277zM414 737h405q85 0 146 64t61 153q0 91 -61 155.5t-146 64.5h-405v-437z" />
    <glyph glyph-name="Sigma" unicode="&#x3a3;" horiz-adv-x="1255" 
d="M14 0l496 717l-496 717h1145v-260h-637l318 -457l-318 -457h656v-260h-1164z" />
    <glyph glyph-name="Tau" unicode="&#x3a4;" horiz-adv-x="1249" 
d="M487 0v1174h-469v260h1213v-260h-467v-1174h-277z" />
    <glyph glyph-name="Upsilon" unicode="&#x3a5;" horiz-adv-x="1353" 
d="M549 0v494l-553 940h317l379 -656l359 656h307l-533 -936v-498h-276z" />
    <glyph glyph-name="Phi" unicode="&#x3a6;" horiz-adv-x="1712" 
d="M721 0v164h-133q-161 0 -289 78t-196 203.5t-68 271.5t68 271.5t196 203.5t289 78h133v164h270v-164h133q161 0 289 -78t196 -203.5t68 -271.5t-68 -271.5t-196 -203.5t-289 -78h-133v-164h-270zM311 719q0 -75 34 -142t103 -111t158 -44h115v592h-115q-133 0 -214 -89
t-81 -206zM991 422h115q89 0 158 44t103 111t34 142q0 117 -81 206t-214 89h-115v-592z" />
    <glyph glyph-name="Chi" unicode="&#x3a7;" horiz-adv-x="1425" 
d="M14 0l523 741l-504 693h332l358 -490l338 490h321l-499 -711l528 -723h-334l-379 518l-362 -518h-322z" />
    <glyph glyph-name="Psi" unicode="&#x3a8;" horiz-adv-x="1634" 
d="M952 377v-377h-270v377h-72q-161 0 -289 78t-196 203.5t-68 271.5v504l275 2v-504q0 -117 82 -207t215 -90h53v799h270v-799h54q89 0 157.5 44t102.5 111t34 142v504l277 -2v-504q0 -146 -68 -271.5t-196 -203.5t-289 -78h-72z" />
    <glyph glyph-name="uni03A9" unicode="&#x3a9;" horiz-adv-x="1642" 
d="M938 223q157 43 254.5 180.5t97.5 325.5q0 196 -137 324.5t-332 128.5q-128 0 -235 -57t-170.5 -161.5t-63.5 -234.5q0 -188 98 -325.5t255 -180.5v-223h-621v260h178q-194 188 -194 488q0 200 99 362.5t271.5 254t382.5 91.5q158 0 297.5 -54t239.5 -147.5t158.5 -225
t58.5 -281.5q0 -299 -195 -488h176v-260h-618v223z" />
    <glyph glyph-name="Iotadieresis" unicode="&#x3aa;" horiz-adv-x="550" 
d="M137 0v1434h277v-1434h-277zM-111 1749q0 67 49 115.5t117 48.5q66 0 115 -48.5t49 -115.5q0 -68 -48.5 -116t-115.5 -48q-68 0 -117 48t-49 116zM334 1749q0 67 48 115.5t116 48.5t116 -48.5t48 -115.5q0 -69 -48 -116.5t-116 -47.5t-116 47.5t-48 116.5z" />
    <glyph glyph-name="Upsilondieresis" unicode="&#x3ab;" horiz-adv-x="1353" 
d="M549 0v494l-553 940h317l379 -656l359 656h307l-533 -936v-498h-276zM291 1749q0 67 49 115.5t115 48.5q68 0 117 -48.5t49 -115.5q0 -68 -49 -116t-117 -48q-67 0 -115.5 48t-48.5 116zM735 1749q0 67 48.5 115.5t115.5 48.5q66 0 115 -48.5t49 -115.5q0 -68 -48.5 -116
t-115.5 -48q-68 0 -116 47.5t-48 116.5z" />
    <glyph glyph-name="alphatonos" unicode="&#x3ac;" 
d="M602 -23q-151 0 -276.5 77.5t-197 210.5t-71.5 292q0 157 71.5 290t197 210.5t276.5 77.5q220 0 356 -172v149h267v-1112h-267v150q-136 -173 -356 -173zM342 557q0 -129 89 -219t218 -90t219 90t90 219q0 128 -90 217.5t-219 89.5t-218 -89.5t-89 -217.5zM526 1249
l148 355h301l-250 -355h-199z" />
    <glyph glyph-name="epsilontonos" unicode="&#x3ad;" horiz-adv-x="1167" 
d="M596 -20q-237 0 -376.5 86.5t-139.5 238.5q0 103 53.5 175.5t153.5 103.5q-96 35 -139.5 93t-43.5 150q0 149 134 228.5t358 79.5q209 0 349 -100t147 -269h-271q-7 64 -68.5 96.5t-154.5 32.5q-217 0 -217 -100q0 -50 55 -80.5t172 -30.5h107v-227h-107
q-125 0 -188.5 -28.5t-63.5 -92.5q0 -56 63 -86.5t177 -30.5q65 0 116 15t86.5 50.5t41.5 88.5h270q-9 -188 -151.5 -290.5t-362.5 -102.5zM467 1249l147 355h301l-249 -355h-199z" />
    <glyph glyph-name="etatonos" unicode="&#x3ae;" horiz-adv-x="1273" 
d="M883 618q0 104 -68 176t-170 72q-103 0 -178.5 -73t-75.5 -175v-618h-276v1112h262v-141q121 164 336 164q209 0 327.5 -134.5t118.5 -355.5v-1055h-276v1028zM510 1249l147 355h301l-249 -355h-199z" />
    <glyph glyph-name="iotatonos" unicode="&#x3af;" horiz-adv-x="503" 
d="M115 0v1112h276v-1112h-276zM125 1249l147 355h301l-249 -355h-199z" />
    <glyph glyph-name="upsilondieresistonos" unicode="&#x3b0;" horiz-adv-x="1228" 
d="M614 -23q-102 0 -196 39t-163.5 105.5t-111 161.5t-41.5 202v627h277v-631q0 -97 68.5 -166t166.5 -69q99 0 167.5 69t68.5 166v631h276v-627q0 -107 -41.5 -202t-111 -161.5t-163.5 -105.5t-196 -39zM244 1411q0 54 38.5 92.5t92.5 38.5t93.5 -38.5t39.5 -92.5
q0 -55 -39.5 -94t-93.5 -39t-92.5 39t-38.5 94zM510 1233l57 354h232l-142 -354h-147zM774 1411q0 54 38.5 92.5t92.5 38.5t93.5 -38.5t39.5 -92.5q0 -55 -39.5 -94t-93.5 -39t-92.5 39t-38.5 94z" />
    <glyph glyph-name="alpha" unicode="&#x3b1;" 
d="M602 -23q-151 0 -276.5 77.5t-197 210.5t-71.5 292q0 157 71.5 290t197 210.5t276.5 77.5q220 0 356 -172v149h267v-1112h-267v150q-136 -173 -356 -173zM342 557q0 -129 89 -219t218 -90t219 90t90 219q0 128 -90 217.5t-219 89.5t-218 -89.5t-89 -217.5z" />
    <glyph glyph-name="beta" unicode="&#x3b2;" horiz-adv-x="1236" 
d="M715 -23q-206 0 -324 148v-535h-276v1411q0 139 39 246t110.5 174t168 101t214.5 34q112 0 206 -34.5t155.5 -93t96 -134.5t34.5 -159q0 -226 -187 -332q108 -54 168 -147t60 -220q0 -199 -130.5 -329t-334.5 -130zM391 557q0 -136 67 -224.5t191 -88.5q109 0 178.5 57
t69.5 156q0 110 -74.5 167.5t-195.5 57.5h-78v236h78q103 0 166 54t63 142q0 80 -56 140.5t-155 60.5q-131 0 -192.5 -74t-61.5 -237v-447z" />
    <glyph glyph-name="gamma" unicode="&#x3b3;" horiz-adv-x="1183" 
d="M459 -410v410l-451 1112h307l283 -786l279 786h299l-441 -1112v-410h-276z" />
    <glyph glyph-name="delta" unicode="&#x3b4;" horiz-adv-x="1275" 
d="M639 -23q-129 0 -238.5 43.5t-184.5 118t-117 176.5t-42 217q0 202 126.5 338t342.5 170l-389 289v227h991v-256h-602l426 -307q143 -102 205 -214.5t62 -246.5q0 -154 -71.5 -280t-205 -200.5t-303.5 -74.5zM338 535q0 -119 86 -206t215 -87q128 0 213.5 87.5
t85.5 205.5t-85.5 205t-213.5 87q-129 0 -215 -87t-86 -205z" />
    <glyph glyph-name="epsilon" unicode="&#x3b5;" horiz-adv-x="1167" 
d="M596 -20q-237 0 -376.5 86.5t-139.5 238.5q0 103 53.5 175.5t153.5 103.5q-96 35 -139.5 93t-43.5 150q0 149 134 228.5t358 79.5q209 0 349 -100t147 -269h-271q-7 64 -68.5 96.5t-154.5 32.5q-217 0 -217 -100q0 -50 55 -80.5t172 -30.5h107v-227h-107
q-125 0 -188.5 -28.5t-63.5 -92.5q0 -56 63 -86.5t177 -30.5q65 0 116 15t86.5 50.5t41.5 88.5h270q-9 -188 -151.5 -290.5t-362.5 -102.5z" />
    <glyph glyph-name="zeta" unicode="&#x3b6;" horiz-adv-x="1056" 
d="M55 393q0 96 29.5 201t92.5 222t175 242.5t264 241.5h-499v256h927v-227q-155 -98 -280 -207.5t-202.5 -206t-129.5 -191t-73 -165.5t-21 -127q0 -71 31.5 -114t111.5 -54l211 -31q176 -25 274.5 -126.5t98.5 -272.5q0 -122 -53 -244h-281q40 102 48 144q5 30 5 63
q0 68 -42 114t-124 58l-210 31q-173 23 -263 122.5t-90 270.5z" />
    <glyph glyph-name="eta" unicode="&#x3b7;" horiz-adv-x="1273" 
d="M883 618q0 104 -68 176t-170 72q-103 0 -178.5 -73t-75.5 -175v-618h-276v1112h262v-141q121 164 336 164q209 0 327.5 -134.5t118.5 -355.5v-1055h-276v1028z" />
    <glyph glyph-name="theta" unicode="&#x3b8;" horiz-adv-x="1273" 
d="M637 -23q-250 0 -392.5 157t-142.5 413v442q0 257 142.5 414.5t392.5 157.5t392 -157.5t142 -414.5v-442q0 -256 -142 -413t-392 -157zM369 524q0 -137 71 -218t197 -81t197 81t71 218v135h-536v-135zM369 881h536v135q0 137 -71 218t-197 81t-197 -81t-71 -218v-135z
" />
    <glyph glyph-name="iota" unicode="&#x3b9;" horiz-adv-x="503" 
d="M115 0v1112h276v-1112h-276z" />
    <glyph glyph-name="kappa" unicode="&#x3ba;" horiz-adv-x="1163" 
d="M840 0l-428 578l422 534h313l-422 -518l442 -594h-327zM115 0v1112h276v-1112h-276z" />
    <glyph glyph-name="lambda" unicode="&#x3bb;" horiz-adv-x="1140" 
d="M-2 0l432 1014l-233 542h299l653 -1556h-307l-273 696l-274 -696h-297z" />
    <glyph glyph-name="uni03BC" unicode="&#x3bc;" horiz-adv-x="1253" 
d="M569 -23q-100 0 -178 35v-422h-276v1522h276v-631q0 -112 63.5 -173.5t163.5 -61.5q98 0 171 67.5t73 167.5v631h277v-1112h-262v123q-110 -146 -308 -146z" />
    <glyph glyph-name="nu" unicode="&#x3bd;" horiz-adv-x="1187" 
d="M453 0l-445 1112h307l285 -786l281 786h299l-439 -1112h-288z" />
    <glyph glyph-name="xi" unicode="&#x3be;" horiz-adv-x="1163" 
d="M68 438q0 135 70 235t192 138q-107 47 -169.5 135.5t-62.5 216.5q0 183 140 299.5t368 116.5q239 0 384 -119.5t157 -324.5h-285q-8 88 -69 137t-175 49q-241 0 -241 -191q0 -87 64.5 -146.5t179.5 -59.5h153v-252h-156q-126 0 -198 -51.5t-72 -155.5q0 -177 230 -203
l231 -29q181 -22 280 -124t99 -275q0 -119 -51 -244h-281q3 7 10.5 27.5t10 27t8 23.5t8 25t6 23t5 26t2.5 25.5t1 29.5q0 69 -41.5 115t-124.5 55l-235 31q-438 52 -438 440z" />
    <glyph glyph-name="omicron" unicode="&#x3bf;" horiz-adv-x="1294" 
d="M647 -23q-162 0 -298 77.5t-214 210.5t-78 292q0 157 78 290t214 210.5t298 77.5t298 -77.5t214 -210.5t78 -290q0 -159 -78 -292t-214 -210.5t-298 -77.5zM338 557q0 -127 91 -218t218 -91t217 90.5t90 218.5q0 127 -90 217t-217 90q-128 0 -218.5 -90t-90.5 -217z" />
    <glyph glyph-name="pi" unicode="&#x3c0;" horiz-adv-x="1343" 
d="M188 0v856h-157v256h1282v-256h-158v-856h-276v856h-414v-856h-277z" />
    <glyph glyph-name="rho" unicode="&#x3c1;" 
d="M115 557q0 118 45 224.5t123 184.5t188 123.5t234 45.5q163 0 295.5 -77.5t206 -210t73.5 -290.5q0 -159 -71.5 -292t-197 -210.5t-276.5 -77.5q-212 0 -344 158v-545h-276v967zM389 557q0 -130 85.5 -219.5t213.5 -89.5q129 0 218 90t89 219q0 128 -89 217.5t-218 89.5
q-128 0 -213.5 -89t-85.5 -218z" />
    <glyph glyph-name="uni03C2" unicode="&#x3c2;" horiz-adv-x="1261" 
d="M848 -410q20 50 28 73t15.5 59.5t7.5 74.5q0 69 -41 114.5t-123 55.5l-233 31q-209 25 -327 175t-118 392q0 159 78 290t213.5 205.5t298.5 74.5q216 0 376 -131t194 -332h-291q-30 84 -106.5 138t-172.5 54q-129 0 -219 -85.5t-90 -213.5q0 -131 57 -209.5t174 -93.5
l234 -29q179 -22 278 -124t99 -275q0 -124 -52 -244h-280z" />
    <glyph glyph-name="sigma" unicode="&#x3c3;" horiz-adv-x="1380" 
d="M647 -23q-162 0 -298 77.5t-214 210.5t-78 292q0 157 78 290t214 210.5t298 77.5q79 0 166 -23h557v-256h-217q84 -139 84 -299q0 -159 -78 -292t-214 -210.5t-298 -77.5zM338 557q0 -127 91 -218t218 -91t217 90.5t90 218.5q0 127 -90 217t-217 90q-128 0 -218.5 -90
t-90.5 -217z" />
    <glyph glyph-name="tau" unicode="&#x3c4;" horiz-adv-x="980" 
d="M352 0v856h-338v256h955v-256h-340v-856h-277z" />
    <glyph glyph-name="upsilon" unicode="&#x3c5;" horiz-adv-x="1228" 
d="M614 -23q-102 0 -196 39t-163.5 105.5t-111 161.5t-41.5 202v627h277v-631q0 -97 68.5 -166t166.5 -69q99 0 167.5 69t68.5 166v631h276v-627q0 -107 -41.5 -202t-111 -161.5t-163.5 -105.5t-196 -39z" />
    <glyph glyph-name="phi" unicode="&#x3c6;" horiz-adv-x="1593" 
d="M928 -23v-387h-262v387q-129 0 -243 46t-194 123.5t-126 181.5t-46 217q0 223 135.5 376t356.5 181v-262q-101 -30 -158 -105.5t-57 -189.5q0 -125 95.5 -214t236.5 -89v870h262q130 0 244.5 -45.5t194 -122.5t125.5 -181t46 -218q0 -113 -46 -217t-125.5 -181.5
t-194 -123.5t-244.5 -46zM928 242q142 0 237 89t95 214t-95 215t-237 90v-608z" />
    <glyph glyph-name="chi" unicode="&#x3c7;" horiz-adv-x="1150" 
d="M-12 -410l407 797l-387 725h324l241 -485l238 485h315l-393 -733l420 -789h-324l-272 545l-254 -545h-315z" />
    <glyph glyph-name="psi" unicode="&#x3c8;" horiz-adv-x="1662" 
d="M963 0v-410h-263v410q-170 0 -306 67.5t-214 192t-78 283.5v569h277v-567q0 -134 90.5 -215.5t230.5 -81.5v864h263v-864q140 0 230.5 81.5t90.5 215.5v567h279v-569q0 -159 -78 -283.5t-214.5 -192t-307.5 -67.5z" />
    <glyph glyph-name="omega" unicode="&#x3c9;" horiz-adv-x="1710" 
d="M518 -23q-187 0 -309.5 137.5t-122.5 385.5q0 157 37.5 301t124.5 311h276q-88 -181 -122.5 -317.5t-34.5 -288.5q0 -260 174 -260q82 0 131 61t49 193v387h270v-387q0 -132 48.5 -193t129.5 -61q174 0 174 260q0 154 -34.5 290t-122.5 316h276q89 -167 126.5 -310.5
t37.5 -301.5q0 -126 -34 -226.5t-93.5 -164.5t-137.5 -98t-167 -34q-109 0 -192 42.5t-146 138.5q-63 -96 -146 -138.5t-192 -42.5z" />
    <glyph glyph-name="iotadieresis" unicode="&#x3ca;" horiz-adv-x="503" 
d="M115 0v1112h276v-1112h-276zM-133 1427q0 67 49 115.5t115 48.5q67 0 115.5 -48.5t48.5 -115.5q0 -69 -48 -116t-116 -47q-67 0 -115.5 47.5t-48.5 115.5zM309 1427q0 67 49 115.5t117 48.5q66 0 115 -48.5t49 -115.5q0 -68 -48.5 -115.5t-115.5 -47.5q-68 0 -117 47.5
t-49 115.5z" />
    <glyph glyph-name="upsilondieresis" unicode="&#x3cb;" horiz-adv-x="1228" 
d="M614 -23q-102 0 -196 39t-163.5 105.5t-111 161.5t-41.5 202v627h277v-631q0 -97 68.5 -166t166.5 -69q99 0 167.5 69t68.5 166v631h276v-627q0 -107 -41.5 -202t-111 -161.5t-163.5 -105.5t-196 -39zM229 1427q0 67 49 115.5t115 48.5q68 0 117 -48.5t49 -115.5
q0 -68 -49 -115.5t-117 -47.5q-67 0 -115.5 47.5t-48.5 115.5zM674 1427q0 67 48 115.5t116 48.5q66 0 114.5 -48.5t48.5 -115.5q0 -68 -48 -115.5t-115 -47.5q-68 0 -116 47t-48 116z" />
    <glyph glyph-name="omicrontonos" unicode="&#x3cc;" horiz-adv-x="1294" 
d="M647 -23q-162 0 -298 77.5t-214 210.5t-78 292q0 157 78 290t214 210.5t298 77.5t298 -77.5t214 -210.5t78 -290q0 -159 -78 -292t-214 -210.5t-298 -77.5zM338 557q0 -127 91 -218t218 -91t217 90.5t90 218.5q0 127 -90 217t-217 90q-128 0 -218.5 -90t-90.5 -217z
M520 1249l148 355h301l-250 -355h-199z" />
    <glyph glyph-name="upsilontonos" unicode="&#x3cd;" horiz-adv-x="1228" 
d="M614 -23q-102 0 -196 39t-163.5 105.5t-111 161.5t-41.5 202v627h277v-631q0 -97 68.5 -166t166.5 -69q99 0 167.5 69t68.5 166v631h276v-627q0 -107 -41.5 -202t-111 -161.5t-163.5 -105.5t-196 -39zM487 1249l148 355h301l-250 -355h-199z" />
    <glyph glyph-name="omegatonos" unicode="&#x3ce;" horiz-adv-x="1710" 
d="M518 -23q-187 0 -309.5 137.5t-122.5 385.5q0 157 37.5 301t124.5 311h276q-88 -181 -122.5 -317.5t-34.5 -288.5q0 -260 174 -260q82 0 131 61t49 193v387h270v-387q0 -132 48.5 -193t129.5 -61q174 0 174 260q0 154 -34.5 290t-122.5 316h276q89 -167 126.5 -310.5
t37.5 -301.5q0 -126 -34 -226.5t-93.5 -164.5t-137.5 -98t-167 -34q-109 0 -192 42.5t-146 138.5q-63 -96 -146 -138.5t-192 -42.5zM729 1249l148 355h301l-250 -355h-199z" />
    <glyph glyph-name="uni03CF" unicode="&#x3cf;" horiz-adv-x="1396" 
d="M1075 0l-629 731l615 703h325l-606 -693l643 -741h-348zM137 0v1434h277v-1434h-277z" />
    <glyph glyph-name="uni03D7" unicode="&#x3d7;" horiz-adv-x="1163" 
d="M840 0l-428 578l422 534h313l-422 -518l442 -594h-327zM115 0v1112h276v-1112h-276z" />
    <glyph glyph-name="uni0401" unicode="&#x401;" horiz-adv-x="1308" 
d="M137 0v1434h1073v-260h-796v-316h735v-254h-735v-344h817v-260h-1094zM322 1749q0 68 48 116t115 48q66 0 115 -48.5t49 -115.5q0 -68 -48.5 -116t-115.5 -48q-68 0 -115.5 47.5t-47.5 116.5zM764 1749q0 67 49 115.5t115 48.5q68 0 116 -48.5t48 -115.5
q0 -69 -48 -116.5t-116 -47.5q-67 0 -115.5 48t-48.5 116z" />
    <glyph glyph-name="uni0404" unicode="&#x404;" horiz-adv-x="1615" 
d="M819 -23q-207 0 -380 99t-272 269t-99 372q0 151 58.5 288t158.5 236t239.5 157t294.5 58q273 0 474.5 -165t254.5 -419h-288q-50 140 -170 227t-273 87q-159 0 -283.5 -95.5t-164.5 -244.5h598v-248h-602q39 -153 164.5 -251.5t287.5 -98.5q153 0 272.5 87t167.5 228
h291q-53 -256 -254.5 -421t-474.5 -165z" />
    <glyph glyph-name="uni0406" unicode="&#x406;" horiz-adv-x="550" 
d="M137 0v1434h277v-1434h-277z" />
    <glyph glyph-name="uni0407" unicode="&#x407;" horiz-adv-x="550" 
d="M137 0v1434h277v-1434h-277zM-111 1749q0 67 49 115.5t117 48.5q66 0 115 -48.5t49 -115.5q0 -68 -48.5 -116t-115.5 -48q-68 0 -117 48t-49 116zM334 1749q0 67 48 115.5t116 48.5t116 -48.5t48 -115.5q0 -69 -48 -116.5t-116 -47.5t-116 47.5t-48 116.5z" />
    <glyph glyph-name="uni040E" unicode="&#x40e;" horiz-adv-x="1439" 
d="M422 0l180 365l-598 1069h315l433 -793l385 793h299l-715 -1434h-299zM379 1874h209q5 -57 38.5 -94t94.5 -37q62 0 95 37t38 94h209q-12 -154 -105.5 -240t-236.5 -86q-141 0 -235.5 87t-106.5 239z" />
    <glyph glyph-name="uni0410" unicode="&#x410;" horiz-adv-x="1570" 
d="M6 0l703 1434h159l697 -1434h-312l-133 285h-674l-135 -285h-305zM555 514h457l-228 483z" />
    <glyph glyph-name="uni0411" unicode="&#x411;" horiz-adv-x="1404" 
d="M137 0v1434h1086v-256h-809v-273h489q199 0 332 -132t133 -320q0 -189 -133 -321t-332 -132h-766zM414 254h475q82 0 140 58.5t58 140.5t-58 139t-140 57h-475v-395z" />
    <glyph glyph-name="uni0412" unicode="&#x412;" horiz-adv-x="1488" 
d="M137 0v1434h785q193 0 311.5 -111t118.5 -281q0 -184 -144 -278q100 -50 156.5 -139.5t56.5 -204.5q0 -179 -130.5 -299.5t-329.5 -120.5h-824zM414 260h530q79 0 137 52t58 126q0 73 -58 125.5t-137 52.5h-530v-356zM414 860h489q77 0 122.5 46.5t45.5 113.5
q0 64 -45.5 109t-122.5 45h-489v-314z" />
    <glyph glyph-name="uni0413" unicode="&#x413;" horiz-adv-x="1075" 
d="M137 0v1434h959v-263h-682v-1171h-277z" />
    <glyph glyph-name="uni0414" unicode="&#x414;" horiz-adv-x="1550" 
d="M33 -328v588h149l520 1174h160l502 -1174h149v-588h-266v328h-946v-328h-268zM475 260h592l-289 725z" />
    <glyph glyph-name="uni0415" unicode="&#x415;" horiz-adv-x="1308" 
d="M137 0v1434h1073v-260h-796v-316h735v-254h-735v-344h817v-260h-1094z" />
    <glyph glyph-name="uni0416" unicode="&#x416;" horiz-adv-x="1921" 
d="M1618 0l-514 731l508 703h317l-510 -691l529 -743h-330zM-27 0l529 743l-510 691h317l508 -703l-514 -731h-330zM819 0v1434h277v-1434h-277z" />
    <glyph glyph-name="uni0417" unicode="&#x417;" horiz-adv-x="1370" 
d="M680 -23q-271 0 -440.5 140.5t-171.5 359.5h282q2 -106 90.5 -172.5t239.5 -66.5q161 0 246.5 53t85.5 143q0 172 -342 172h-168v248h168q154 0 226.5 50.5t72.5 125.5q0 77 -72 123.5t-217 46.5q-143 0 -226 -60t-85 -151h-281q2 94 43 178t116 149t191 103.5t256 38.5
q268 0 417 -110.5t149 -282.5q0 -225 -203 -322q114 -43 180 -132t66 -214q0 -187 -167 -303.5t-456 -116.5z" />
    <glyph glyph-name="uni0418" unicode="&#x418;" horiz-adv-x="1507" 
d="M137 0v1434h277v-918l792 918h164v-1434h-276v918l-791 -918h-166z" />
    <glyph glyph-name="uni0419" unicode="&#x419;" horiz-adv-x="1507" 
d="M137 0v1434h277v-918l792 918h164v-1434h-276v918l-791 -918h-166zM444 1874h209q5 -57 38.5 -94t94.5 -37q62 0 95.5 37t38.5 94h208q-12 -154 -105.5 -240t-236.5 -86q-141 0 -235.5 87t-106.5 239z" />
    <glyph glyph-name="uni041A" unicode="&#x41a;" horiz-adv-x="1396" 
d="M1075 0l-629 731l615 703h325l-606 -693l643 -741h-348zM137 0v1434h277v-1434h-277z" />
    <glyph glyph-name="uni041B" unicode="&#x41b;" horiz-adv-x="1462" 
d="M803 1495l647 -1495h-313l-422 1028l-400 -1028h-301l629 1495h160z" />
    <glyph glyph-name="uni041C" unicode="&#x41c;" horiz-adv-x="1787" 
d="M137 1434h166l602 -703l582 703h164v-1434h-277v893l-469 -555l-491 555v-893h-277v1434z" />
    <glyph glyph-name="uni041D" unicode="&#x41d;" horiz-adv-x="1533" 
d="M137 0v1434h277v-543h706v543h277v-1434h-277v629h-706v-629h-277z" />
    <glyph glyph-name="uni041E" unicode="&#x41e;" horiz-adv-x="1636" 
d="M819 -23q-208 0 -381 99t-271.5 269t-98.5 372q0 151 58 288t158 236t239.5 157t295.5 58q155 0 294.5 -58t239 -157t158 -236t58.5 -288t-58.5 -288t-158 -236t-239 -157.5t-294.5 -58.5zM352 717q0 -194 136.5 -329.5t330.5 -135.5q193 0 329 135.5t136 329.5
t-136 329.5t-329 135.5q-194 0 -330.5 -135.5t-136.5 -329.5z" />
    <glyph glyph-name="uni041F" unicode="&#x41f;" horiz-adv-x="1527" 
d="M137 0v1434h1254v-1434h-277v1171h-700v-1171h-277z" />
    <glyph glyph-name="uni0420" unicode="&#x420;" horiz-adv-x="1378" 
d="M137 0v1434h701q137 0 248.5 -65t173 -174.5t61.5 -238.5t-61.5 -238t-173 -174t-248.5 -65h-424v-479h-277zM414 737h405q85 0 146 64t61 153q0 91 -61 155.5t-146 64.5h-405v-437z" />
    <glyph glyph-name="uni0421" unicode="&#x421;" horiz-adv-x="1615" 
d="M819 -23q-208 0 -381 99t-271.5 269t-98.5 372q0 151 58 288t158 236t239.5 157t295.5 58q273 0 474.5 -165t254.5 -419h-293q-50 139 -168 224.5t-268 85.5q-194 0 -330.5 -135.5t-136.5 -329.5t136.5 -329.5t330.5 -135.5q151 0 268.5 85.5t165.5 225.5h295
q-53 -256 -254.5 -421t-474.5 -165z" />
    <glyph glyph-name="uni0422" unicode="&#x422;" horiz-adv-x="1249" 
d="M487 0v1174h-469v260h1213v-260h-467v-1174h-277z" />
    <glyph glyph-name="uni0423" unicode="&#x423;" horiz-adv-x="1439" 
d="M422 0l180 365l-598 1069h315l433 -793l385 793h299l-715 -1434h-299z" />
    <glyph glyph-name="uni0424" unicode="&#x424;" horiz-adv-x="1712" 
d="M721 0v164h-133q-161 0 -289 78t-196 203.5t-68 271.5t68 271.5t196 203.5t289 78h133v164h270v-164h133q161 0 289 -78t196 -203.5t68 -271.5t-68 -271.5t-196 -203.5t-289 -78h-133v-164h-270zM311 719q0 -75 34 -142t103 -111t158 -44h115v592h-115q-133 0 -214 -89
t-81 -206zM991 422h115q89 0 158 44t103 111t34 142q0 117 -81 206t-214 89h-115v-592z" />
    <glyph glyph-name="uni0425" unicode="&#x425;" horiz-adv-x="1425" 
d="M14 0l523 741l-504 693h332l358 -490l338 490h321l-499 -711l528 -723h-334l-379 518l-362 -518h-322z" />
    <glyph glyph-name="uni0426" unicode="&#x426;" horiz-adv-x="1486" 
d="M1223 -328v328h-1086v1434h277v-1170h618v1170h277v-1180h182v-582h-268z" />
    <glyph glyph-name="uni0427" unicode="&#x427;" horiz-adv-x="1353" 
d="M940 600q-120 -33 -301 -33q-256 0 -407.5 148t-151.5 395v324h276v-306q0 -131 82 -211.5t224 -80.5q164 0 278 32v566h277v-1434h-277v600z" />
    <glyph glyph-name="uni0428" unicode="&#x428;" horiz-adv-x="1935" 
d="M137 0v1434h277v-1170h420v1170h270v-1170h418v1170h276v-1434h-1661z" />
    <glyph glyph-name="uni0429" unicode="&#x429;" horiz-adv-x="1957" 
d="M1694 -328v328h-1557v1434h277v-1170h420v1170h270v-1170h418v1170h276v-1180h164v-582h-268z" />
    <glyph glyph-name="uni042A" unicode="&#x42a;" horiz-adv-x="1597" 
d="M18 1174v260h617v-480h422q138 0 250 -65t173.5 -174t61.5 -238t-61.5 -238t-173.5 -174t-250 -65h-699v1174h-340zM635 260h405q85 0 146 64t61 155q0 89 -61 154t-146 65h-405v-438z" />
    <glyph glyph-name="uni042B" unicode="&#x42b;" horiz-adv-x="1804" 
d="M137 0v1434h277v-516h407q131 0 238.5 -63t167 -168t59.5 -228q0 -190 -133.5 -324.5t-331.5 -134.5h-684zM414 260h391q81 0 138.5 58.5t57.5 140.5t-57 139t-139 57h-391v-395zM1391 0v1434h276v-1434h-276z" />
    <glyph glyph-name="uni042C" unicode="&#x42c;" horiz-adv-x="1378" 
d="M137 1434h277v-480h424q137 0 248.5 -65t173 -174t61.5 -238t-61.5 -238t-173 -174t-248.5 -65h-701v1434zM414 260h405q85 0 146 64t61 155q0 89 -61 153t-146 64h-405v-436z" />
    <glyph glyph-name="uni042D" unicode="&#x42d;" horiz-adv-x="1615" 
d="M797 -23q-273 0 -474.5 165t-254.5 421h290q48 -141 167.5 -228t273.5 -87q162 0 287.5 98.5t164.5 251.5h-602v248h598q-40 149 -164.5 244.5t-283.5 95.5q-153 0 -273 -87t-170 -227h-288q53 254 254.5 419t474.5 165q155 0 294.5 -58t239.5 -157t158.5 -236t58.5 -288
q0 -202 -99 -372t-272 -269t-380 -99z" />
    <glyph glyph-name="uni042E" unicode="&#x42e;" horiz-adv-x="2045" 
d="M1286 -23q-275 0 -464.5 176t-221.5 457h-186v-610h-277v1434h277v-560h192q46 262 231.5 422t448.5 160q198 0 356 -93.5t247 -262.5t89 -383q0 -212 -89 -381.5t-247 -264t-356 -94.5zM879 717q0 -206 114 -335.5t293 -129.5q178 0 293 129.5t115 335.5
q0 209 -114.5 337t-293.5 128q-180 0 -293.5 -128t-113.5 -337z" />
    <glyph glyph-name="uni042F" unicode="&#x42f;" horiz-adv-x="1417" 
d="M352 0h-303l305 532q-119 59 -188.5 173.5t-69.5 250.5q0 129 61.5 238.5t173.5 174.5t249 65h700v-1434h-276v479h-377zM389 954q0 -89 61.5 -153t145.5 -64h408v437h-408q-84 0 -145.5 -65t-61.5 -155z" />
    <glyph glyph-name="uni0430" unicode="&#x430;" 
d="M602 -23q-151 0 -276.5 77.5t-197 210.5t-71.5 292q0 157 71.5 290t197 210.5t276.5 77.5q220 0 356 -172v149h267v-1112h-267v150q-136 -173 -356 -173zM342 557q0 -129 89 -219t218 -90t219 90t90 219q0 128 -90 217.5t-219 89.5t-218 -89.5t-89 -217.5z" />
    <glyph glyph-name="uni0431" unicode="&#x431;" horiz-adv-x="1290" 
d="M655 -23q-122 0 -226.5 41.5t-184.5 120.5t-125 205t-45 285q0 224 37.5 384.5t123 275.5t228.5 171t350 56h301v-259h-301q-102 0 -176.5 -16.5t-122.5 -45t-79.5 -76.5t-47.5 -100.5t-25 -127.5q116 156 343 156q145 0 266 -67t191.5 -189t70.5 -273q0 -153 -77 -277.5
t-209.5 -194t-291.5 -69.5zM356 518q0 -118 81 -199t216 -81t217 81t82 199t-82 199.5t-217 81.5t-216 -81.5t-81 -199.5z" />
    <glyph glyph-name="uni0432" unicode="&#x432;" horiz-adv-x="1214" 
d="M115 0v1112h661q149 0 250.5 -94t101.5 -223q0 -149 -106 -228q66 -39 102.5 -103t36.5 -147q0 -129 -102.5 -223t-251.5 -94h-692zM391 246h381q47 0 79 30t32 72q0 44 -32 73.5t-79 29.5h-381v-205zM391 662h361q47 0 77.5 29.5t30.5 72.5t-30.5 72.5t-77.5 29.5h-361
v-204z" />
    <glyph glyph-name="uni0433" unicode="&#x433;" horiz-adv-x="868" 
d="M115 0v1112h745v-256h-469v-856h-276z" />
    <glyph glyph-name="uni0434" unicode="&#x434;" horiz-adv-x="1333" 
d="M18 -328v578h152l330 856h323l336 -856h156v-578h-266v322h-764v-322h-267zM457 250h407l-205 569z" />
    <glyph glyph-name="uni0435" unicode="&#x435;" horiz-adv-x="1269" 
d="M639 -23q-164 0 -298 77.5t-209 210.5t-75 292q0 118 44.5 224.5t121 184.5t185 123.5t231.5 45.5q163 0 295 -73.5t206 -200.5t74 -281q0 -54 -12 -109h-860q24 -107 102 -173.5t193 -66.5q84 0 140 29t102 86h301q-66 -167 -209 -268t-332 -101zM352 688h572
q-31 95 -106 150t-179 55t-180 -55t-107 -150z" />
    <glyph glyph-name="uni0436" unicode="&#x436;" horiz-adv-x="1724" 
d="M1405 0l-395 575l387 537h311l-391 -526l412 -586h-324zM-2 0l410 586l-392 526h312l389 -537l-398 -575h-321zM725 0v1112h276v-1112h-276z" />
    <glyph glyph-name="uni0437" unicode="&#x437;" horiz-adv-x="1103" 
d="M551 -20q-133 0 -241 43t-177.5 133t-75.5 215h271q6 -51 40 -86t81 -50.5t102 -15.5q100 0 159.5 31t59.5 86q0 121 -231 121h-101v227h101q97 0 146.5 31t49.5 80q0 47 -48.5 73.5t-137.5 26.5q-81 0 -138.5 -32.5t-64.5 -96.5h-270q7 168 143.5 268.5t331.5 100.5
q132 0 234.5 -33.5t164.5 -104.5t62 -170q0 -91 -42 -149t-130 -94q100 -31 153.5 -103.5t53.5 -175.5q0 -151 -136.5 -238t-359.5 -87z" />
    <glyph glyph-name="uni0438" unicode="&#x438;" horiz-adv-x="1234" 
d="M115 0v1112h276v-739l451 739h280v-1112h-276v741l-451 -741h-280z" />
    <glyph glyph-name="uni0439" unicode="&#x439;" horiz-adv-x="1234" 
d="M115 0v1112h276v-739l451 739h280v-1112h-276v741l-451 -741h-280zM274 1552h209q5 -57 38.5 -94t94.5 -37q62 0 95.5 37t38.5 94h208q-12 -153 -105.5 -239t-236.5 -86q-141 0 -235.5 86.5t-106.5 238.5z" />
    <glyph glyph-name="uni043A" unicode="&#x43a;" horiz-adv-x="1163" 
d="M840 0l-428 578l422 534h313l-422 -518l442 -594h-327zM115 0v1112h276v-1112h-276z" />
    <glyph glyph-name="uni043B" unicode="&#x43b;" horiz-adv-x="1187" 
d="M8 0l445 1112h288l439 -1112h-308l-280 786l-285 -786h-299z" />
    <glyph glyph-name="uni043C" unicode="&#x43c;" horiz-adv-x="1495" 
d="M115 0v1112h340l293 -799l292 799h340v-1112h-276v700l-264 -700h-187l-262 700v-700h-276z" />
    <glyph glyph-name="uni043D" unicode="&#x43d;" horiz-adv-x="1234" 
d="M115 0v1112h276v-385h455v385h276v-1112h-276v473h-455v-473h-276z" />
    <glyph glyph-name="uni043E" unicode="&#x43e;" horiz-adv-x="1294" 
d="M647 -23q-162 0 -298 77.5t-214 210.5t-78 292q0 157 78 290t214 210.5t298 77.5t298 -77.5t214 -210.5t78 -290q0 -159 -78 -292t-214 -210.5t-298 -77.5zM338 557q0 -127 91 -218t218 -91t217 90.5t90 218.5q0 127 -90 217t-217 90q-128 0 -218.5 -90t-90.5 -217z" />
    <glyph glyph-name="uni043F" unicode="&#x43f;" horiz-adv-x="1273" 
d="M115 0v1112h262v-141q121 164 336 164q209 0 327.5 -134.5t118.5 -355.5v-645h-276v618q0 104 -68 176t-170 72q-103 0 -178.5 -73t-75.5 -175v-618h-276z" />
    <glyph glyph-name="uni0440" unicode="&#x440;" 
d="M115 -410v1522h264v-149q136 172 356 172q151 0 276.5 -77.5t197 -210.5t71.5 -290q0 -159 -71.5 -292t-197 -210.5t-276.5 -77.5q-212 0 -344 158v-545h-276zM381 557q0 -129 89 -219t218 -90t218 90t89 219q0 128 -89 217.5t-218 89.5t-218 -89.5t-89 -217.5z" />
    <glyph glyph-name="uni0441" unicode="&#x441;" horiz-adv-x="1261" 
d="M647 -23q-162 0 -298 77.5t-214 210.5t-78 292q0 157 78 290t214 210.5t298 77.5q216 0 376 -131t194 -332h-291q-30 84 -106.5 138t-172.5 54q-128 0 -218.5 -90t-90.5 -217t91 -218t218 -91q96 0 172.5 54t106.5 138h291q-34 -200 -194.5 -331.5t-375.5 -131.5z" />
    <glyph glyph-name="uni0442" unicode="&#x442;" horiz-adv-x="980" 
d="M352 0v856h-338v256h955v-256h-340v-856h-277z" />
    <glyph glyph-name="uni0443" unicode="&#x443;" horiz-adv-x="1173" 
d="M229 -410l217 510l-448 1012h307l293 -694l270 694h297l-639 -1522h-297z" />
    <glyph glyph-name="uni0444" unicode="&#x444;" horiz-adv-x="1593" 
d="M666 -23q-129 0 -243 46.5t-194 124.5t-126 184.5t-46 224.5t46 224t126 184t194 124t243 46v381h262v-381q173 0 313.5 -78t218.5 -210.5t78 -289.5t-78 -290t-218.5 -211.5t-313.5 -78.5v-387h-262v387zM334 557q0 -133 95 -224t237 -91v628q-142 0 -237 -91t-95 -222z
M928 242q143 0 237.5 91t94.5 224q0 132 -94.5 222.5t-237.5 90.5v-628z" />
    <glyph glyph-name="uni0445" unicode="&#x445;" horiz-adv-x="1187" 
d="M10 0l416 563l-418 549h324l266 -348l256 348h315l-419 -551l428 -561h-324l-274 358l-254 -358h-316z" />
    <glyph glyph-name="uni0446" unicode="&#x446;" horiz-adv-x="1323" 
d="M1042 -328v328h-165v133q-116 -156 -316 -156q-204 0 -325 135.5t-121 354.5v645h276v-618q0 -102 70 -175t166 -73t165.5 73t69.5 175v618h277v-858h170v-582h-267z" />
    <glyph glyph-name="uni0447" unicode="&#x447;" horiz-adv-x="1132" 
d="M741 410q-91 -23 -215 -23q-218 0 -346.5 136t-128.5 362v227h277v-225q0 -116 56 -177t161 -61q99 0 196 23v440h277v-1112h-277v410z" />
    <glyph glyph-name="uni0448" unicode="&#x448;" horiz-adv-x="1826" 
d="M506 -20q-162 0 -276.5 119t-114.5 298v715h276v-657q0 -94 56 -150.5t135 -56.5q80 0 136 56t56 151v657h277v-657q0 -95 56 -151t136 -56q81 0 137 56t56 151v657h276v-1112h-262v100q-114 -120 -283 -120q-100 0 -186.5 49.5t-140.5 136.5q-55 -86 -143 -136t-191 -50
z" />
    <glyph glyph-name="uni0449" unicode="&#x449;" horiz-adv-x="1896" 
d="M1616 -328v328h-166v100q-114 -120 -283 -120q-100 0 -186.5 49.5t-140.5 136.5q-55 -86 -143 -136t-191 -50q-162 0 -276.5 119t-114.5 298v715h276v-657q0 -94 56 -150.5t135 -56.5q80 0 136 56t56 151v657h277v-657q0 -95 56 -151t136 -56q81 0 137 56t56 151v657h276
v-858h170v-582h-266z" />
    <glyph glyph-name="uni044A" unicode="&#x44a;" horiz-adv-x="1204" 
d="M258 0v856h-258v256h535v-418h315q150 0 252 -101t102 -245q0 -146 -102 -247t-252 -101h-592zM535 246h280q46 0 77.5 29t31.5 73t-31.5 72.5t-77.5 28.5h-280v-203z" />
    <glyph glyph-name="uni044B" unicode="&#x44b;" horiz-adv-x="1579" 
d="M115 0v1112h276v-418h316q150 0 252 -101t102 -245q0 -146 -102 -247t-252 -101h-592zM391 246h281q46 0 77 29t31 73t-31 72.5t-77 28.5h-281v-203zM1190 0v1112h276v-1112h-276z" />
    <glyph glyph-name="uni044C" unicode="&#x44c;" horiz-adv-x="1060" 
d="M115 0v1112h276v-418h316q150 0 252 -101t102 -245q0 -146 -102 -247t-252 -101h-592zM391 246h281q46 0 77 29t31 73t-31 72.5t-77 28.5h-281v-203z" />
    <glyph glyph-name="uni044D" unicode="&#x44d;" horiz-adv-x="1273" 
d="M629 -23q-215 0 -376.5 132t-195.5 331h285q28 -89 107 -145.5t182 -56.5q102 0 183 59.5t114 153.5h-434v221h430q-34 91 -113.5 146.5t-179.5 55.5q-103 0 -182 -56.5t-107 -145.5h-285q34 200 195 331.5t377 131.5q122 0 231.5 -45.5t187.5 -123.5t123.5 -184.5
t45.5 -224.5q0 -159 -77 -292t-212.5 -210.5t-298.5 -77.5z" />
    <glyph glyph-name="uni044E" unicode="&#x44e;" horiz-adv-x="1671" 
d="M1061 -23q-212 0 -358.5 130t-182.5 333h-129v-440h-276v1112h276v-416h133q41 195 185 317t352 122q162 0 289.5 -78t195.5 -209.5t68 -290.5q0 -161 -68 -292.5t-195.5 -209.5t-289.5 -78zM791 557q0 -133 73.5 -221t196.5 -88q124 0 197 88t73 221q0 132 -73 219.5
t-197 87.5q-123 0 -196.5 -88t-73.5 -219z" />
    <glyph glyph-name="uni044F" unicode="&#x44f;" horiz-adv-x="1165" 
d="M283 432q-95 45 -153 132t-58 192q0 149 107.5 252.5t264.5 103.5h607v-1112h-277v397h-219l-207 -397h-297zM352 756q0 -48 33 -79.5t88 -31.5h301v219h-301q-55 0 -88 -30.5t-33 -77.5z" />
    <glyph glyph-name="uni0451" unicode="&#x451;" horiz-adv-x="1269" 
d="M639 -23q-164 0 -298 77.5t-209 210.5t-75 292q0 118 44.5 224.5t121 184.5t185 123.5t231.5 45.5q163 0 295 -73.5t206 -200.5t74 -281q0 -54 -12 -109h-860q24 -107 102 -173.5t193 -66.5q84 0 140 29t102 86h301q-66 -167 -209 -268t-332 -101zM252 1427
q0 67 48 115.5t116 48.5q66 0 115 -48.5t49 -115.5q0 -68 -48.5 -115.5t-115.5 -47.5q-68 0 -116 47t-48 116zM352 688h572q-31 95 -106 150t-179 55t-180 -55t-107 -150zM694 1427q0 67 49 115.5t115 48.5q68 0 116 -48.5t48 -115.5q0 -69 -48 -116t-116 -47
q-67 0 -115.5 47.5t-48.5 115.5z" />
    <glyph glyph-name="uni0454" unicode="&#x454;" horiz-adv-x="1273" 
d="M645 -23q-163 0 -298.5 77.5t-212.5 210.5t-77 292q0 118 45.5 224.5t123.5 184.5t187.5 123.5t231.5 45.5q216 0 377 -131.5t195 -331.5h-285q-28 89 -107 145.5t-182 56.5q-100 0 -179.5 -55.5t-113.5 -146.5h430v-221h-434q33 -94 114 -153.5t183 -59.5
q103 0 182 56.5t107 145.5h285q-34 -199 -195.5 -331t-376.5 -132z" />
    <glyph glyph-name="uni0456" unicode="&#x456;" horiz-adv-x="503" 
d="M115 0v1112h276v-1112h-276zM86 1427q0 67 49 116.5t117 49.5t117 -49.5t49 -116.5q0 -69 -49 -117t-117 -48t-117 48t-49 117z" />
    <glyph glyph-name="uni0457" unicode="&#x457;" horiz-adv-x="503" 
d="M115 0v1112h276v-1112h-276zM-133 1427q0 67 49 115.5t115 48.5q67 0 115.5 -48.5t48.5 -115.5q0 -69 -48 -116t-116 -47q-67 0 -115.5 47.5t-48.5 115.5zM309 1427q0 67 49 115.5t117 48.5q66 0 115 -48.5t49 -115.5q0 -68 -48.5 -115.5t-115.5 -47.5q-68 0 -117 47.5
t-49 115.5z" />
    <glyph glyph-name="uni045E" unicode="&#x45e;" horiz-adv-x="1173" 
d="M229 -410l217 510l-448 1012h307l293 -694l270 694h297l-639 -1522h-297zM250 1552h209q5 -57 38.5 -94t94.5 -37q62 0 95 37t38 94h209q-12 -153 -105.5 -239t-236.5 -86q-141 0 -235.5 86.5t-106.5 238.5z" />
    <glyph glyph-name="uni0490" unicode="&#x490;" horiz-adv-x="1075" 
d="M137 0v1434h682v204h277v-467h-682v-1171h-277z" />
    <glyph glyph-name="uni0491" unicode="&#x491;" horiz-adv-x="868" 
d="M115 0v1112h469v201h276v-457h-469v-856h-276z" />
    <glyph glyph-name="uni05B0" unicode="&#x5b0;" horiz-adv-x="0" 
d="M123 -498q-35 0 -60.5 25.5t-25.5 60.5q0 34 25.5 59t60.5 25q34 0 59 -25t25 -59q0 -35 -25 -60.5t-59 -25.5zM37 -211q0 34 25.5 59t60.5 25q34 0 59 -25t25 -59q0 -35 -25 -60.5t-59 -25.5q-35 0 -60.5 25.5t-25.5 60.5z" />
    <glyph glyph-name="uni05B1" unicode="&#x5b1;" horiz-adv-x="0" 
d="M670 -498q-35 0 -60.5 25.5t-25.5 60.5q0 34 25.5 59t60.5 25q34 0 59 -25t25 -59q0 -35 -25 -60.5t-59 -25.5zM31 -211q0 34 25.5 59t60.5 25q34 0 59 -25t25 -59q0 -35 -25 -60.5t-59 -25.5q-35 0 -60.5 25.5t-25.5 60.5zM150 -412q0 34 25.5 59t60.5 25q34 0 58.5 -25
t24.5 -59q0 -35 -24.5 -60.5t-58.5 -25.5q-35 0 -60.5 25.5t-25.5 60.5zM268 -211q0 34 25.5 59t60.5 25q34 0 59 -25t25 -59q0 -35 -25 -60.5t-59 -25.5q-35 0 -60.5 25.5t-25.5 60.5zM584 -211q0 34 25.5 59t60.5 25q34 0 59 -25t25 -59q0 -35 -25 -60.5t-59 -25.5
q-35 0 -60.5 25.5t-25.5 60.5z" />
    <glyph glyph-name="uni05B2" unicode="&#x5b2;" horiz-adv-x="0" 
d="M37 -274v116h307v-116h-307zM463 -412q0 34 25.5 59t60.5 25q34 0 59 -25t25 -59q0 -35 -25 -60.5t-59 -25.5q-35 0 -60.5 25.5t-25.5 60.5zM463 -211q0 34 25.5 59t60.5 25q34 0 59 -25t25 -59q0 -35 -25 -60.5t-59 -25.5q-35 0 -60.5 25.5t-25.5 60.5z" />
    <glyph glyph-name="uni05B3" unicode="&#x5b3;" horiz-adv-x="0" 
d="M156 -410l12 136h-131v116h375v-116h-133l10 -136h-133zM530 -412q0 34 25.5 59t60.5 25q34 0 59 -25t25 -59q0 -35 -25 -60.5t-59 -25.5q-35 0 -60.5 25.5t-25.5 60.5zM530 -211q0 34 25.5 59t60.5 25q34 0 59 -25t25 -59q0 -35 -25 -60.5t-59 -25.5q-35 0 -60.5 25.5
t-25.5 60.5z" />
    <glyph glyph-name="uni05B4" unicode="&#x5b4;" horiz-adv-x="0" 
d="M117 -297q-35 0 -60.5 25.5t-25.5 60.5q0 34 25.5 59t60.5 25q34 0 59 -25t25 -59q0 -35 -25 -60.5t-59 -25.5z" />
    <glyph glyph-name="uni05B5" unicode="&#x5b5;" horiz-adv-x="0" 
d="M96 -297q-35 0 -60.5 25.5t-25.5 60.5q0 34 25.5 59t60.5 25q34 0 59 -25t25 -59q0 -35 -25 -60.5t-59 -25.5zM287 -211q0 34 25.5 59t60.5 25q34 0 59 -25t25 -59q0 -35 -25 -60.5t-59 -25.5q-35 0 -60.5 25.5t-25.5 60.5z" />
    <glyph glyph-name="uni05B6" unicode="&#x5b6;" horiz-adv-x="0" 
d="M369 -297q-35 0 -60.5 25.5t-25.5 60.5q0 34 25.5 59t60.5 25q34 0 59 -25t25 -59q0 -35 -25 -60.5t-59 -25.5zM-10 -211q0 34 25.5 59t60.5 25q34 0 59 -25t25 -59q0 -35 -25 -60.5t-59 -25.5q-35 0 -60.5 25.5t-25.5 60.5zM137 -412q0 34 25.5 59t60.5 25q34 0 59 -25
t25 -59q0 -35 -25 -60.5t-59 -25.5q-35 0 -60.5 25.5t-25.5 60.5z" />
    <glyph glyph-name="uni05B7" unicode="&#x5b7;" horiz-adv-x="0" 
d="M57 -274v116h349v-116h-349z" />
    <glyph glyph-name="uni05B8" unicode="&#x5b8;" horiz-adv-x="0" 
d="M156 -410l12 136h-131v116h375v-116h-133l10 -136h-133z" />
    <glyph glyph-name="uni05B9" unicode="&#x5b9;" horiz-adv-x="0" 
d="M117 1094q-35 0 -60.5 25.5t-25.5 60.5q0 34 25.5 59t60.5 25q34 0 59 -25t25 -59q0 -35 -25 -60.5t-59 -25.5z" />
    <glyph glyph-name="uni05BA" unicode="&#x5ba;" horiz-adv-x="0" 
d="M117 1094q-35 0 -60.5 25.5t-25.5 60.5q0 34 25.5 59t60.5 25q34 0 59 -25t25 -59q0 -35 -25 -60.5t-59 -25.5z" />
    <glyph glyph-name="uni05BB" unicode="&#x5bb;" horiz-adv-x="0" 
d="M117 -297q-35 0 -60.5 25.5t-25.5 60.5q0 34 25.5 59t60.5 25q34 0 59 -25t25 -59q0 -35 -25 -60.5t-59 -25.5zM172 -352q0 34 25.5 59t60.5 25q34 0 59 -25t25 -59q0 -35 -25 -60.5t-59 -25.5q-35 0 -60.5 25.5t-25.5 60.5zM313 -494q0 34 25.5 59t60.5 25q34 0 59 -25
t25 -59q0 -35 -25 -60.5t-59 -25.5q-35 0 -60.5 25.5t-25.5 60.5z" />
    <glyph glyph-name="uni05BC" unicode="&#x5bc;" horiz-adv-x="0" 
d="M117 356q-35 0 -60.5 25.5t-25.5 60.5q0 34 25.5 59t60.5 25q34 0 59 -25t25 -59q0 -35 -25 -60.5t-59 -25.5z" />
    <glyph glyph-name="uni05BE" unicode="&#x5be;" horiz-adv-x="897" 
d="M102 952v277h693v-277h-693z" />
    <glyph glyph-name="uni05BF" unicode="&#x5bf;" horiz-adv-x="0" 
d="M426 1454h448v-143h-448v143z" />
    <glyph glyph-name="uni05C1" unicode="&#x5c1;" horiz-adv-x="0" 
d="M117 1094q-35 0 -60.5 25.5t-25.5 60.5q0 34 25.5 59t60.5 25q34 0 59 -25t25 -59q0 -35 -25 -60.5t-59 -25.5z" />
    <glyph glyph-name="uni05C2" unicode="&#x5c2;" horiz-adv-x="0" 
d="M117 1094q-35 0 -60.5 25.5t-25.5 60.5q0 34 25.5 59t60.5 25q34 0 59 -25t25 -59q0 -35 -25 -60.5t-59 -25.5z" />
    <glyph glyph-name="uni05C7" unicode="&#x5c7;" horiz-adv-x="0" 
d="M115 -410l12 136h-70v116h252v-116h-71l10 -136h-133z" />
    <glyph glyph-name="uni05D0" unicode="&#x5d0;" horiz-adv-x="1388" 
d="M567 569q-110 -12 -158.5 -73t-48.5 -185v-311h-290v293q0 379 360 465l-340 471h342l354 -490q96 11 140.5 68t44.5 174v248h291v-230q0 -366 -340 -446l399 -553h-342z" />
    <glyph glyph-name="uni05D1" unicode="&#x5d1;" horiz-adv-x="1327" 
d="M760 707q0 120 -59.5 182.5t-159.5 62.5h-426v277h434q220 0 353.5 -136.5t133.5 -375.5v-441h178v-276h-1099v276h645v431z" />
    <glyph glyph-name="uni05D2" unicode="&#x5d2;" horiz-adv-x="870" 
d="M492 0l-35 229h-11q-31 -99 -142.5 -171t-233.5 -74v297q90 -1 170.5 24t135 80t54.5 129v336q0 61 -14.5 81.5t-59.5 20.5h-221v277h262q174 0 242 -74.5t68 -263.5v-545l51 -346h-266z" />
    <glyph glyph-name="uni05D3" unicode="&#x5d3;" horiz-adv-x="1263" 
d="M682 0v952h-596v277h1092v-277h-220v-952h-276z" />
    <glyph glyph-name="uni05D4" unicode="&#x5d4;" horiz-adv-x="1378" 
d="M133 0v662h277v-662h-277zM133 952v277h608q242 0 374 -134.5t132 -381.5v-713h-276v705q0 124 -63 185.5t-175 61.5h-600z" />
    <glyph glyph-name="uni05D5" unicode="&#x5d5;" horiz-adv-x="538" 
d="M131 1229h277v-1229h-277v1229z" />
    <glyph glyph-name="uni05D6" unicode="&#x5d6;" horiz-adv-x="829" 
d="M496 0h-277v590q0 264 168 362h-301v277h657v-277h-45q-111 0 -156.5 -87t-45.5 -261v-604z" />
    <glyph glyph-name="uni05D7" unicode="&#x5d7;" horiz-adv-x="1386" 
d="M131 0v1229h619q242 0 373.5 -134.5t131.5 -381.5v-713h-276v705q0 124 -63 185.5t-175 61.5h-333v-952h-277z" />
    <glyph glyph-name="uni05D8" unicode="&#x5d8;" horiz-adv-x="1488" 
d="M756 -23q-178 0 -326.5 85t-233.5 231.5t-85 320.5v615h290v-615q0 -146 104.5 -250t250.5 -104q148 0 252 104t104 250q0 162 -79.5 261.5t-223.5 99.5q-94 0 -201 -31v281q103 30 205 30q178 0 313.5 -83.5t207 -228.5t71.5 -329q0 -174 -86 -320.5t-235.5 -231.5
t-327.5 -85z" />
    <glyph glyph-name="uni05D9" unicode="&#x5d9;" horiz-adv-x="538" 
d="M131 1229h277v-719h-277v719z" />
    <glyph glyph-name="uni05DA" unicode="&#x5da;" horiz-adv-x="1114" 
d="M707 -307v1012q0 124 -63 185.5t-175 61.5h-422v277h430q242 0 374 -134.5t132 -381.5v-1020h-276z" />
    <glyph glyph-name="uni05DB" unicode="&#x5db;" horiz-adv-x="1200" 
d="M477 -23q-211 0 -389 41v277q71 -18 175 -29.5t175 -11.5q191 0 287 101t96 259q0 76 -22 140t-66.5 114t-119.5 78.5t-173 28.5q-135 0 -331 -45v274q188 47 370 47q195 0 341 -85t221 -228.5t75 -323.5t-75.5 -323.5t-222 -228.5t-341.5 -85z" />
    <glyph glyph-name="uni05DC" unicode="&#x5dc;" horiz-adv-x="1183" 
d="M365 0l356 952h-625v516h277v-239h733v-58l-436 -1171h-305z" />
    <glyph glyph-name="uni05DD" unicode="&#x5dd;" horiz-adv-x="1421" 
d="M131 0v1229h653q242 0 374 -134.5t132 -381.5v-713h-1159zM408 276h606v429q0 124 -63 185.5t-175 61.5h-368v-676z" />
    <glyph glyph-name="uni05DE" unicode="&#x5de;" horiz-adv-x="1552" 
d="M84 1229h293l78 -244q69 125 187 196.5t257 71.5q251 0 410 -177.5t159 -459.5q0 -277 -175 -456.5t-441 -179.5q-122 0 -217 24v277q98 -25 209 -25q148 0 240 100.5t92 259.5q0 165 -75.5 263t-217.5 98q-55 0 -105.5 -15.5t-96.5 -48t-80 -89.5t-48 -132l-160 -692
h-293l164 684z" />
    <glyph glyph-name="uni05DF" unicode="&#x5df;" horiz-adv-x="538" 
d="M131 1229h277v-1536h-277v1536z" />
    <glyph glyph-name="uni05E0" unicode="&#x5e0;" horiz-adv-x="788" 
d="M115 0v276h266v574q0 61 -14 81.5t-58 20.5h-194v277h235q174 0 240.5 -74t66.5 -264v-891h-542z" />
    <glyph glyph-name="uni05E1" unicode="&#x5e1;" horiz-adv-x="1474" 
d="M737 -33q-183 0 -333 85.5t-235 233t-85 326.5q0 181 85 329t234.5 232t333.5 84q138 0 259.5 -49.5t208 -135t136.5 -205t50 -255.5q0 -179 -85 -326.5t-235.5 -233t-333.5 -85.5zM373 612q0 -158 104 -266t260 -108t259.5 108t103.5 266q0 162 -103.5 269.5
t-259.5 107.5q-157 0 -260.5 -107.5t-103.5 -269.5z" />
    <glyph glyph-name="uni05E2" unicode="&#x5e2;" horiz-adv-x="1345" 
d="M117 0v276h329l-323 953h289l309 -918q225 83 225 418v500h277v-502q0 -184 -51.5 -324t-148 -227.5t-229.5 -131.5t-302 -44h-375z" />
    <glyph glyph-name="uni05E3" unicode="&#x5e3;" horiz-adv-x="1345" 
d="M956 621q0 161 -80 261.5t-214 100.5q-115 0 -194 -72t-79 -180q0 -114 73 -182t183 -68h14v-268h-20q-153 0 -274.5 60.5t-191 173.5t-69.5 260q0 236 158.5 389t399.5 153q256 0 413.5 -177t157.5 -458v-921h-277v928z" />
    <glyph glyph-name="uni05E4" unicode="&#x5e4;" horiz-adv-x="1368" 
d="M580 -23q-115 0 -242 20t-203 50v275q86 -32 213 -54t227 -22q191 0 302.5 103t111.5 272q0 168 -96.5 269t-253.5 101q-105 0 -182.5 -51t-77.5 -133q0 -64 51.5 -109t114.5 -45h4v-252h-21q-195 0 -319.5 109.5t-124.5 277.5q0 195 159 332t408 137q181 0 325 -80
t226 -225.5t82 -330.5q0 -187 -87 -333.5t-247.5 -228.5t-369.5 -82z" />
    <glyph glyph-name="uni05E5" unicode="&#x5e5;" horiz-adv-x="1173" 
d="M668 -307l-625 1536h305l225 -553q121 15 177.5 76.5t56.5 171.5v305h278v-305q0 -194 -114.5 -308.5t-313.5 -148.5l316 -774h-305z" />
    <glyph glyph-name="uni05E6" unicode="&#x5e6;" horiz-adv-x="1265" 
d="M90 0v276h600l-616 953h323l283 -436q109 17 156 76.5t47 168.5v191h278v-195q0 -181 -92 -290t-260 -150l356 -549v-45h-1075z" />
    <glyph glyph-name="uni05E7" unicode="&#x5e7;" horiz-adv-x="1445" 
d="M150 -307v950h276v-950h-276zM131 952v277h1239v-58l-399 -1171h-305l327 952h-862z" />
    <glyph glyph-name="uni05E8" unicode="&#x5e8;" horiz-adv-x="1128" 
d="M86 952v277h403q242 0 374 -134.5t132 -381.5v-713h-276v705q0 124 -63 185.5t-175 61.5h-395z" />
    <glyph glyph-name="uni05E9" unicode="&#x5e9;" horiz-adv-x="1665" 
d="M834 -23q-202 0 -363 83.5t-255.5 242.5t-94.5 367v559h276v-410q73 -43 160 -43q66 0 109 36t43 116v301h276v-283q0 -95 -32.5 -172.5t-86.5 -125t-121 -72.5t-139 -25q-109 0 -203 33q26 -159 142.5 -245.5t288.5 -86.5q193 0 313.5 109.5t120.5 306.5v561h276v-559
q0 -208 -93.5 -367t-254 -242.5t-362.5 -83.5z" />
    <glyph glyph-name="uni05EA" unicode="&#x5ea;" horiz-adv-x="1546" 
d="M102 0v276h205v953h602q242 0 374 -134.5t132 -381.5v-713h-276v705q0 124 -63 185.5t-175 61.5h-317v-952h-482z" />
    <glyph glyph-name="uni05F0" unicode="&#x5f0;" horiz-adv-x="1077" 
d="M670 1229h276v-1229h-276v1229zM131 0v1229h277v-1229h-277z" />
    <glyph glyph-name="uni05F1" unicode="&#x5f1;" horiz-adv-x="1077" 
d="M670 1229h276v-1229h-276v1229zM131 510v719h277v-719h-277z" />
    <glyph glyph-name="uni05F2" unicode="&#x5f2;" horiz-adv-x="1077" 
d="M670 1229h276v-719h-276v719zM131 510v719h277v-719h-277z" />
    <glyph glyph-name="uni05F3" unicode="&#x5f3;" horiz-adv-x="460" 
d="M27 848l84 506h297l-144 -506h-237z" />
    <glyph glyph-name="uni05F4" unicode="&#x5f4;" horiz-adv-x="837" 
d="M403 844l84 506h297l-143 -506h-238zM27 844l84 506h297l-144 -506h-237z" />
    <glyph glyph-name="uni0E3F" unicode="&#xe3f;" horiz-adv-x="1488" 
d="M496 -205l16 205h-375v1434h500l18 204h244l-18 -204h41q193 0 311.5 -111t118.5 -281q0 -184 -144 -278q100 -50 156.5 -139.5t56.5 -204.5q0 -179 -130.5 -299.5t-329.5 -120.5h-205l-17 -205h-243zM414 260h530q79 0 137 52t58 126q0 73 -58 125.5t-137 52.5h-530
v-356zM414 860h489q77 0 122.5 46.5t45.5 113.5q0 64 -45.5 109t-122.5 45h-489v-314z" />
    <glyph glyph-name="Wgrave" unicode="&#x1e80;" horiz-adv-x="2048" 
d="M1556 0h-172l-360 1008l-362 -1008h-170l-486 1434h299l295 -912l330 912h188l328 -912l297 912h297zM719 1925h301l147 -354h-198z" />
    <glyph glyph-name="wgrave" unicode="&#x1e81;" horiz-adv-x="1740" 
d="M330 0l-322 1112h297l193 -795l227 795h293l227 -795l195 795h291l-318 -1112h-309l-234 791l-233 -791h-307zM567 1604h301l148 -355h-199z" />
    <glyph glyph-name="Wacute" unicode="&#x1e82;" horiz-adv-x="2048" 
d="M1556 0h-172l-360 1008l-362 -1008h-170l-486 1434h299l295 -912l330 912h188l328 -912l297 912h297zM897 1571l147 354h302l-250 -354h-199z" />
    <glyph glyph-name="wacute" unicode="&#x1e83;" horiz-adv-x="1740" 
d="M330 0l-322 1112h297l193 -795l227 795h293l227 -795l195 795h291l-318 -1112h-309l-234 791l-233 -791h-307zM743 1249l148 355h301l-250 -355h-199z" />
    <glyph glyph-name="Wdieresis" unicode="&#x1e84;" horiz-adv-x="2048" 
d="M1556 0h-172l-360 1008l-362 -1008h-170l-486 1434h299l295 -912l330 912h188l328 -912l297 912h297zM637 1749q0 67 49 115.5t117 48.5q66 0 115 -48.5t49 -115.5q0 -68 -48.5 -116t-115.5 -48q-68 0 -117 48t-49 116zM1081 1749q0 67 48.5 115.5t115.5 48.5
t115.5 -48.5t48.5 -115.5q0 -69 -48 -116.5t-116 -47.5t-116 47.5t-48 116.5z" />
    <glyph glyph-name="wdieresis" unicode="&#x1e85;" horiz-adv-x="1740" 
d="M330 0l-322 1112h297l193 -795l227 795h293l227 -795l195 795h291l-318 -1112h-309l-234 791l-233 -791h-307zM485 1427q0 67 49 115.5t115 48.5q68 0 117 -48.5t49 -115.5q0 -68 -49 -115.5t-117 -47.5q-67 0 -115.5 47.5t-48.5 115.5zM930 1427q0 67 48 115.5t116 48.5
q66 0 114.5 -48.5t48.5 -115.5q0 -68 -48 -115.5t-115 -47.5q-68 0 -116 47t-48 116z" />
    <glyph glyph-name="uni1E9E" unicode="&#x1e9e;" horiz-adv-x="1480" 
d="M137 0v1434h1278l-373 -553q165 -23 269 -147.5t104 -295.5q0 -129 -65 -230.5t-170.5 -154.5t-231.5 -53h-334v260h322q81 0 139 53t58 133q0 79 -58.5 134t-138.5 55h-322l328 539h-528v-1174h-277z" />
    <glyph glyph-name="uni1EA0" unicode="&#x1ea0;" horiz-adv-x="1570" 
d="M6 0l703 1434h159l697 -1434h-312l-133 285h-674l-135 -285h-305zM555 514h457l-228 483zM618 -313q0 67 49 116.5t117 49.5t117 -49.5t49 -116.5q0 -69 -49 -117.5t-117 -48.5t-117 48.5t-49 117.5z" />
    <glyph glyph-name="uni1EA1" unicode="&#x1ea1;" 
d="M602 -23q-151 0 -276.5 77.5t-197 210.5t-71.5 292q0 157 71.5 290t197 210.5t276.5 77.5q220 0 356 -172v149h267v-1112h-267v150q-136 -173 -356 -173zM342 557q0 -129 89 -219t218 -90t219 90t90 219q0 128 -90 217.5t-219 89.5t-218 -89.5t-89 -217.5zM508 -313
q0 67 49 116.5t117 49.5t117 -49.5t49 -116.5q0 -69 -49 -117.5t-117 -48.5t-117 48.5t-49 117.5z" />
    <glyph glyph-name="uni1EA2" unicode="&#x1ea2;" horiz-adv-x="1570" 
d="M6 0l703 1434h159l697 -1434h-312l-133 285h-674l-135 -285h-305zM543 1714q0 98 66.5 165t189.5 67q111 0 170 -46.5t59 -125.5q0 -40 -13.5 -70.5t-33 -47.5t-39 -30t-34 -26.5t-15.5 -28.5h-188q0 36 20.5 62.5t45 39.5t45 31t20.5 39q0 41 -50 41q-28 0 -43.5 -19
t-15.5 -51h-184zM555 514h457l-228 483z" />
    <glyph glyph-name="uni1EA3" unicode="&#x1ea3;" 
d="M602 -23q-151 0 -276.5 77.5t-197 210.5t-71.5 292q0 157 71.5 290t197 210.5t276.5 77.5q220 0 356 -172v149h267v-1112h-267v150q-136 -173 -356 -173zM342 557q0 -129 89 -219t218 -90t219 90t90 219q0 128 -90 217.5t-219 89.5t-218 -89.5t-89 -217.5zM414 1393
q0 98 66.5 164.5t189.5 66.5q111 0 170 -46.5t59 -125.5q0 -40 -13.5 -70.5t-33 -47.5t-39 -30t-34 -26.5t-15.5 -28.5h-189q0 36 20.5 62.5t45.5 39.5t45.5 31t20.5 39q0 41 -50 41q-29 0 -44 -18.5t-15 -50.5h-184z" />
    <glyph glyph-name="uni1EA4" unicode="&#x1ea4;" horiz-adv-x="1570" 
d="M6 0l703 1434h159l697 -1434h-312l-133 285h-674l-135 -285h-305zM467 1542v225l317 172l316 -172v-225l-316 170zM555 514h457l-228 483zM918 1905l147 354h301l-250 -354h-198z" />
    <glyph glyph-name="uni1EA5" unicode="&#x1ea5;" 
d="M602 -23q-151 0 -276.5 77.5t-197 210.5t-71.5 292q0 157 71.5 290t197 210.5t276.5 77.5q220 0 356 -172v149h267v-1112h-267v150q-136 -173 -356 -173zM336 1221v225l317 172l316 -172v-225l-316 170zM342 557q0 -129 89 -219t218 -90t219 90t90 219q0 128 -90 217.5
t-219 89.5t-218 -89.5t-89 -217.5zM786 1583l148 354h301l-250 -354h-199z" />
    <glyph glyph-name="uni1EA6" unicode="&#x1ea6;" horiz-adv-x="1570" 
d="M6 0l703 1434h159l697 -1434h-312l-133 285h-674l-135 -285h-305zM467 1542v225l317 172l316 -172v-225l-316 170zM555 514h457l-228 483zM739 2259h301l148 -354h-199z" />
    <glyph glyph-name="uni1EA7" unicode="&#x1ea7;" 
d="M602 -23q-151 0 -276.5 77.5t-197 210.5t-71.5 292q0 157 71.5 290t197 210.5t276.5 77.5q220 0 356 -172v149h267v-1112h-267v150q-136 -173 -356 -173zM336 1221v225l317 172l316 -172v-225l-316 170zM342 557q0 -129 89 -219t218 -90t219 90t90 219q0 128 -90 217.5
t-219 89.5t-218 -89.5t-89 -217.5zM608 1937h301l148 -354h-199z" />
    <glyph glyph-name="uni1EA8" unicode="&#x1ea8;" horiz-adv-x="1570" 
d="M6 0l703 1434h159l697 -1434h-312l-133 285h-674l-135 -285h-305zM467 1542v225l317 172l316 -172v-225l-316 170zM555 514h457l-228 483zM803 2048q0 98 66.5 164.5t189.5 66.5q111 0 170 -46.5t59 -125.5q0 -40 -13.5 -70.5t-33 -47.5t-39 -29.5t-34 -26t-15.5 -28.5
h-188q0 36 20.5 62.5t45 39.5t45 31t20.5 39q0 41 -49 41q-29 0 -44.5 -19t-15.5 -51h-184z" />
    <glyph glyph-name="uni1EA9" unicode="&#x1ea9;" 
d="M602 -23q-151 0 -276.5 77.5t-197 210.5t-71.5 292q0 157 71.5 290t197 210.5t276.5 77.5q220 0 356 -172v149h267v-1112h-267v150q-136 -173 -356 -173zM336 1221v225l317 172l316 -172v-225l-316 170zM342 557q0 -129 89 -219t218 -90t219 90t90 219q0 128 -90 217.5
t-219 89.5t-218 -89.5t-89 -217.5zM672 1726q0 98 66.5 165t189.5 67q111 0 170 -46.5t59 -125.5q0 -40 -13.5 -70.5t-33 -47.5t-39 -30t-34 -26.5t-15.5 -28.5h-188q0 36 20.5 62.5t45 39.5t45 31t20.5 39q0 41 -50 41q-28 0 -43.5 -19t-15.5 -51h-184z" />
    <glyph glyph-name="uni1EAA" unicode="&#x1eaa;" horiz-adv-x="1570" 
d="M6 0l703 1434h159l697 -1434h-312l-133 285h-674l-135 -285h-305zM414 1948q7 144 76 215t182 71q44 0 81 -15.5t57.5 -33.5t45.5 -33.5t47 -15.5q64 0 70 88h201q-7 -139 -74 -213t-178 -74q-44 0 -82.5 15.5t-60 34t-47 34t-46.5 15.5q-64 0 -70 -88h-202zM467 1542
v225l317 172l316 -172v-225l-316 170zM555 514h457l-228 483z" />
    <glyph glyph-name="uni1EAB" unicode="&#x1eab;" 
d="M602 -23q-151 0 -276.5 77.5t-197 210.5t-71.5 292q0 157 71.5 290t197 210.5t276.5 77.5q220 0 356 -172v149h267v-1112h-267v150q-136 -173 -356 -173zM283 1626q7 144 76 215.5t182 71.5q44 0 81 -15.5t57.5 -33.5t45.5 -33.5t47 -15.5q64 0 70 88h200
q-7 -139 -73.5 -213t-177.5 -74q-44 0 -82.5 15.5t-60 33.5t-47 33.5t-46.5 15.5q-64 0 -70 -88h-202zM336 1221v225l317 172l316 -172v-225l-316 170zM342 557q0 -129 89 -219t218 -90t219 90t90 219q0 128 -90 217.5t-219 89.5t-218 -89.5t-89 -217.5z" />
    <glyph glyph-name="uni1EAC" unicode="&#x1eac;" horiz-adv-x="1570" 
d="M6 0l703 1434h159l697 -1434h-312l-133 285h-674l-135 -285h-305zM467 1542v225l317 172l316 -172v-225l-316 170zM555 514h457l-228 483zM618 -313q0 67 49 116.5t117 49.5t117 -49.5t49 -116.5q0 -69 -49 -117.5t-117 -48.5t-117 48.5t-49 117.5z" />
    <glyph glyph-name="uni1EAD" unicode="&#x1ead;" 
d="M602 -23q-151 0 -276.5 77.5t-197 210.5t-71.5 292q0 157 71.5 290t197 210.5t276.5 77.5q220 0 356 -172v149h267v-1112h-267v150q-136 -173 -356 -173zM336 1221v225l317 172l316 -172v-225l-316 170zM342 557q0 -129 89 -219t218 -90t219 90t90 219q0 128 -90 217.5
t-219 89.5t-218 -89.5t-89 -217.5zM508 -313q0 67 49 116.5t117 49.5t117 -49.5t49 -116.5q0 -69 -49 -117.5t-117 -48.5t-117 48.5t-49 117.5z" />
    <glyph glyph-name="uni1EAE" unicode="&#x1eae;" horiz-adv-x="1570" 
d="M6 0l703 1434h159l697 -1434h-312l-133 285h-674l-135 -285h-305zM442 1874h209q5 -57 38.5 -94t94.5 -37q62 0 95.5 37t38.5 94h208q-12 -154 -105.5 -240t-236.5 -86q-141 0 -235.5 87t-106.5 239zM555 514h457l-228 483zM657 1905l148 354h301l-250 -354h-199z" />
    <glyph glyph-name="uni1EAF" unicode="&#x1eaf;" 
d="M602 -23q-151 0 -276.5 77.5t-197 210.5t-71.5 292q0 157 71.5 290t197 210.5t276.5 77.5q220 0 356 -172v149h267v-1112h-267v150q-136 -173 -356 -173zM311 1552h209q5 -57 38.5 -94t94.5 -37q62 0 95 37t38 94h209q-12 -153 -105.5 -239t-236.5 -86
q-141 0 -235.5 86.5t-106.5 238.5zM342 557q0 -129 89 -219t218 -90t219 90t90 219q0 128 -90 217.5t-219 89.5t-218 -89.5t-89 -217.5zM528 1583l148 354h301l-250 -354h-199z" />
    <glyph glyph-name="uni1EB0" unicode="&#x1eb0;" horiz-adv-x="1570" 
d="M6 0l703 1434h159l697 -1434h-312l-133 285h-674l-135 -285h-305zM442 1874h209q5 -57 38.5 -94t94.5 -37q62 0 95.5 37t38.5 94h208q-12 -154 -105.5 -240t-236.5 -86q-141 0 -235.5 87t-106.5 239zM481 2259h301l148 -354h-199zM555 514h457l-228 483z" />
    <glyph glyph-name="uni1EB1" unicode="&#x1eb1;" 
d="M602 -23q-151 0 -276.5 77.5t-197 210.5t-71.5 292q0 157 71.5 290t197 210.5t276.5 77.5q220 0 356 -172v149h267v-1112h-267v150q-136 -173 -356 -173zM311 1552h209q5 -57 38.5 -94t94.5 -37q62 0 95 37t38 94h209q-12 -153 -105.5 -239t-236.5 -86
q-141 0 -235.5 86.5t-106.5 238.5zM342 557q0 -129 89 -219t218 -90t219 90t90 219q0 128 -90 217.5t-219 89.5t-218 -89.5t-89 -217.5zM350 1937h301l148 -354h-199z" />
    <glyph glyph-name="uni1EB2" unicode="&#x1eb2;" horiz-adv-x="1570" 
d="M6 0l703 1434h159l697 -1434h-312l-133 285h-674l-135 -285h-305zM442 1874h209q5 -57 38.5 -94t94.5 -37q62 0 95.5 37t38.5 94h208q-12 -154 -105.5 -240t-236.5 -86q-141 0 -235.5 87t-106.5 239zM545 2048q0 98 66.5 164.5t189.5 66.5q111 0 170 -46.5t59 -125.5
q0 -40 -13.5 -70.5t-33 -47.5t-39 -29.5t-34 -26t-15.5 -28.5h-188q0 36 20.5 62.5t45 39.5t45 31t20.5 39q0 41 -50 41q-28 0 -43.5 -19t-15.5 -51h-184zM555 514h457l-228 483z" />
    <glyph glyph-name="uni1EB3" unicode="&#x1eb3;" 
d="M602 -23q-151 0 -276.5 77.5t-197 210.5t-71.5 292q0 157 71.5 290t197 210.5t276.5 77.5q220 0 356 -172v149h267v-1112h-267v150q-136 -173 -356 -173zM311 1552h209q5 -57 38.5 -94t94.5 -37q62 0 95 37t38 94h209q-12 -153 -105.5 -239t-236.5 -86
q-141 0 -235.5 86.5t-106.5 238.5zM342 557q0 -129 89 -219t218 -90t219 90t90 219q0 128 -90 217.5t-219 89.5t-218 -89.5t-89 -217.5zM414 1726q0 98 66.5 165t189.5 67q111 0 170 -46.5t59 -125.5q0 -40 -13.5 -70.5t-33 -47.5t-39 -30t-34 -26.5t-15.5 -28.5h-189
q0 36 20.5 62.5t45.5 39.5t45.5 31t20.5 39q0 41 -50 41q-28 0 -43.5 -19t-15.5 -51h-184z" />
    <glyph glyph-name="uni1EB4" unicode="&#x1eb4;" horiz-adv-x="1570" 
d="M6 0l703 1434h159l697 -1434h-312l-133 285h-674l-135 -285h-305zM406 1929q7 144 76 215.5t182 71.5q44 0 81 -15.5t57.5 -33.5t45.5 -33.5t47 -15.5q64 0 70 88h200q-7 -139 -74 -213t-178 -74q-44 0 -82.5 15.5t-60 33.5t-46.5 33.5t-46 15.5q-64 0 -70 -88h-202z
M442 1874h209q5 -57 38.5 -94t94.5 -37q62 0 95.5 37t38.5 94h208q-12 -154 -105.5 -240t-236.5 -86q-141 0 -235.5 87t-106.5 239zM555 514h457l-228 483z" />
    <glyph glyph-name="uni1EB5" unicode="&#x1eb5;" 
d="M602 -23q-151 0 -276.5 77.5t-197 210.5t-71.5 292q0 157 71.5 290t197 210.5t276.5 77.5q220 0 356 -172v149h267v-1112h-267v150q-136 -173 -356 -173zM272 1608q7 144 76 215t182 71q44 0 81 -15.5t58 -33.5t46 -33.5t47 -15.5q63 0 69 88h201q-7 -139 -74 -213
t-178 -74q-44 0 -82.5 15.5t-60 34t-46.5 34t-46 15.5q-64 0 -70 -88h-203zM311 1552h209q5 -57 38.5 -94t94.5 -37q62 0 95 37t38 94h209q-12 -153 -105.5 -239t-236.5 -86q-141 0 -235.5 86.5t-106.5 238.5zM342 557q0 -129 89 -219t218 -90t219 90t90 219
q0 128 -90 217.5t-219 89.5t-218 -89.5t-89 -217.5z" />
    <glyph glyph-name="uni1EB6" unicode="&#x1eb6;" horiz-adv-x="1570" 
d="M6 0l703 1434h159l697 -1434h-312l-133 285h-674l-135 -285h-305zM442 1874h209q5 -57 38.5 -94t94.5 -37q62 0 95.5 37t38.5 94h208q-12 -154 -105.5 -240t-236.5 -86q-141 0 -235.5 87t-106.5 239zM555 514h457l-228 483zM618 -313q0 67 49 116.5t117 49.5t117 -49.5
t49 -116.5q0 -69 -49 -117.5t-117 -48.5t-117 48.5t-49 117.5z" />
    <glyph glyph-name="uni1EB7" unicode="&#x1eb7;" 
d="M602 -23q-151 0 -276.5 77.5t-197 210.5t-71.5 292q0 157 71.5 290t197 210.5t276.5 77.5q220 0 356 -172v149h267v-1112h-267v150q-136 -173 -356 -173zM311 1552h209q5 -57 38.5 -94t94.5 -37q62 0 95 37t38 94h209q-12 -153 -105.5 -239t-236.5 -86
q-141 0 -235.5 86.5t-106.5 238.5zM342 557q0 -129 89 -219t218 -90t219 90t90 219q0 128 -90 217.5t-219 89.5t-218 -89.5t-89 -217.5zM508 -313q0 67 49 116.5t117 49.5t117 -49.5t49 -116.5q0 -69 -49 -117.5t-117 -48.5t-117 48.5t-49 117.5z" />
    <glyph glyph-name="uni1EB8" unicode="&#x1eb8;" horiz-adv-x="1308" 
d="M137 0v1434h1073v-260h-796v-316h735v-254h-735v-344h817v-260h-1094zM547 -313q0 67 49.5 116.5t116.5 49.5t116.5 -49.5t49.5 -116.5q0 -69 -49 -117.5t-117 -48.5t-117 48.5t-49 117.5z" />
    <glyph glyph-name="uni1EB9" unicode="&#x1eb9;" horiz-adv-x="1269" 
d="M639 -23q-164 0 -298 77.5t-209 210.5t-75 292q0 118 44.5 224.5t121 184.5t185 123.5t231.5 45.5q163 0 295 -73.5t206 -200.5t74 -281q0 -54 -12 -109h-860q24 -107 102 -173.5t193 -66.5q84 0 140 29t102 86h301q-66 -167 -209 -268t-332 -101zM352 688h572
q-31 95 -106 150t-179 55t-180 -55t-107 -150zM471 -313q0 67 49.5 116.5t116.5 49.5t116.5 -49.5t49.5 -116.5q0 -69 -49 -117.5t-117 -48.5t-117 48.5t-49 117.5z" />
    <glyph glyph-name="uni1EBA" unicode="&#x1eba;" horiz-adv-x="1308" 
d="M137 0v1434h1073v-260h-796v-316h735v-254h-735v-344h817v-260h-1094zM465 1714q0 98 66.5 165t189.5 67q111 0 170 -46.5t59 -125.5q0 -40 -13.5 -70.5t-33 -47.5t-39 -30t-34 -26.5t-15.5 -28.5h-188q0 36 20.5 62.5t45 39.5t45 31t20.5 39q0 41 -49 41
q-29 0 -44.5 -19t-15.5 -51h-184z" />
    <glyph glyph-name="uni1EBB" unicode="&#x1ebb;" horiz-adv-x="1269" 
d="M639 -23q-164 0 -298 77.5t-209 210.5t-75 292q0 118 44.5 224.5t121 184.5t185 123.5t231.5 45.5q163 0 295 -73.5t206 -200.5t74 -281q0 -54 -12 -109h-860q24 -107 102 -173.5t193 -66.5q84 0 140 29t102 86h301q-66 -167 -209 -268t-332 -101zM352 688h572
q-31 95 -106 150t-179 55t-180 -55t-107 -150zM395 1393q0 98 66.5 164.5t189.5 66.5q111 0 170.5 -46.5t59.5 -125.5q0 -40 -13.5 -70.5t-33.5 -47.5t-39.5 -30t-34 -26.5t-15.5 -28.5h-188q0 36 20.5 62.5t45 39.5t45 31t20.5 39q0 41 -49 41q-29 0 -44 -18.5t-15 -50.5
h-185z" />
    <glyph glyph-name="uni1EBC" unicode="&#x1ebc;" horiz-adv-x="1308" 
d="M137 0v1434h1073v-260h-796v-316h735v-254h-735v-344h817v-260h-1094zM326 1595q7 144 76 215.5t182 71.5q44 0 81 -15.5t57.5 -33.5t45.5 -33.5t47 -15.5q64 0 70 88h200q-7 -139 -73.5 -213t-177.5 -74q-44 0 -82.5 15.5t-60 33.5t-47 33.5t-46.5 15.5q-64 0 -70 -88
h-202z" />
    <glyph glyph-name="uni1EBD" unicode="&#x1ebd;" horiz-adv-x="1269" 
d="M639 -23q-164 0 -298 77.5t-209 210.5t-75 292q0 118 44.5 224.5t121 184.5t185 123.5t231.5 45.5q163 0 295 -73.5t206 -200.5t74 -281q0 -54 -12 -109h-860q24 -107 102 -173.5t193 -66.5q84 0 140 29t102 86h301q-66 -167 -209 -268t-332 -101zM256 1274
q7 144 76 215.5t182 71.5q44 0 81 -15.5t57.5 -34t45.5 -34t47 -15.5q64 0 70 88h201q-7 -139 -74 -212.5t-178 -73.5q-44 0 -82.5 15.5t-60 33.5t-47 33.5t-46.5 15.5q-63 0 -69 -88h-203zM352 688h572q-31 95 -106 150t-179 55t-180 -55t-107 -150z" />
    <glyph glyph-name="uni1EBE" unicode="&#x1ebe;" horiz-adv-x="1308" 
d="M137 0v1434h1073v-260h-796v-316h735v-254h-735v-344h817v-260h-1094zM389 1542v225l318 172l315 -172v-225l-315 170zM838 1905l147 354h301l-250 -354h-198z" />
    <glyph glyph-name="uni1EBF" unicode="&#x1ebf;" horiz-adv-x="1269" 
d="M639 -23q-164 0 -298 77.5t-209 210.5t-75 292q0 118 44.5 224.5t121 184.5t185 123.5t231.5 45.5q163 0 295 -73.5t206 -200.5t74 -281q0 -54 -12 -109h-860q24 -107 102 -173.5t193 -66.5q84 0 140 29t102 86h301q-66 -167 -209 -268t-332 -101zM319 1221v225l318 172
l315 -172v-225l-315 170zM352 688h572q-31 95 -106 150t-179 55t-180 -55t-107 -150zM768 1583l147 354h302l-250 -354h-199z" />
    <glyph glyph-name="uni1EC0" unicode="&#x1ec0;" horiz-adv-x="1308" 
d="M137 0v1434h1073v-260h-796v-316h735v-254h-735v-344h817v-260h-1094zM389 1542v225l318 172l315 -172v-225l-315 170zM662 2259h301l147 -354h-199z" />
    <glyph glyph-name="uni1EC1" unicode="&#x1ec1;" horiz-adv-x="1269" 
d="M639 -23q-164 0 -298 77.5t-209 210.5t-75 292q0 118 44.5 224.5t121 184.5t185 123.5t231.5 45.5q163 0 295 -73.5t206 -200.5t74 -281q0 -54 -12 -109h-860q24 -107 102 -173.5t193 -66.5q84 0 140 29t102 86h301q-66 -167 -209 -268t-332 -101zM319 1221v225l318 172
l315 -172v-225l-315 170zM352 688h572q-31 95 -106 150t-179 55t-180 -55t-107 -150zM592 1937h301l147 -354h-198z" />
    <glyph glyph-name="uni1EC2" unicode="&#x1ec2;" horiz-adv-x="1308" 
d="M137 0v1434h1073v-260h-796v-316h735v-254h-735v-344h817v-260h-1094zM389 1542v225l318 172l315 -172v-225l-315 170zM725 2048q0 98 66.5 164.5t189.5 66.5q111 0 170 -46.5t59 -125.5q0 -40 -13.5 -70.5t-33 -47.5t-39 -29.5t-34 -26t-15.5 -28.5h-188q0 36 20.5 62.5
t45 39.5t45 31t20.5 39q0 41 -49 41q-29 0 -44.5 -19t-15.5 -51h-184z" />
    <glyph glyph-name="uni1EC3" unicode="&#x1ec3;" horiz-adv-x="1269" 
d="M639 -23q-164 0 -298 77.5t-209 210.5t-75 292q0 118 44.5 224.5t121 184.5t185 123.5t231.5 45.5q163 0 295 -73.5t206 -200.5t74 -281q0 -54 -12 -109h-860q24 -107 102 -173.5t193 -66.5q84 0 140 29t102 86h301q-66 -167 -209 -268t-332 -101zM319 1221v225l318 172
l315 -172v-225l-315 170zM352 688h572q-31 95 -106 150t-179 55t-180 -55t-107 -150zM655 1726q0 98 66.5 165t189.5 67q111 0 170.5 -46.5t59.5 -125.5q0 -40 -13.5 -70.5t-33 -47.5t-39 -30t-34 -26.5t-15.5 -28.5h-189q0 36 20.5 62.5t45 39.5t45 31t20.5 39q0 41 -49 41
q-28 0 -43.5 -19t-15.5 -51h-185z" />
    <glyph glyph-name="uni1EC4" unicode="&#x1ec4;" horiz-adv-x="1308" 
d="M137 0v1434h1073v-260h-796v-316h735v-254h-735v-344h817v-260h-1094zM336 1948q7 144 76 215t182 71q44 0 81 -15.5t57.5 -33.5t45.5 -33.5t47 -15.5q64 0 70 88h201q-7 -139 -74 -213t-178 -74q-44 0 -82.5 15.5t-60 34t-47 34t-46.5 15.5q-63 0 -69 -88h-203z
M389 1542v225l318 172l315 -172v-225l-315 170z" />
    <glyph glyph-name="uni1EC5" unicode="&#x1ec5;" horiz-adv-x="1269" 
d="M639 -23q-164 0 -298 77.5t-209 210.5t-75 292q0 118 44.5 224.5t121 184.5t185 123.5t231.5 45.5q163 0 295 -73.5t206 -200.5t74 -281q0 -54 -12 -109h-860q24 -107 102 -173.5t193 -66.5q84 0 140 29t102 86h301q-66 -167 -209 -268t-332 -101zM266 1626
q7 144 76 215.5t182 71.5q44 0 81 -15.5t58 -33.5t46 -33.5t47 -15.5q63 0 69 88h201q-7 -139 -74 -213t-178 -74q-44 0 -82.5 15.5t-60 33.5t-46.5 33.5t-46 15.5q-64 0 -70 -88h-203zM319 1221v225l318 172l315 -172v-225l-315 170zM352 688h572q-31 95 -106 150t-179 55
t-180 -55t-107 -150z" />
    <glyph glyph-name="uni1EC6" unicode="&#x1ec6;" horiz-adv-x="1308" 
d="M137 0v1434h1073v-260h-796v-316h735v-254h-735v-344h817v-260h-1094zM389 1542v225l318 172l315 -172v-225l-315 170zM547 -313q0 67 49.5 116.5t116.5 49.5t116.5 -49.5t49.5 -116.5q0 -69 -49 -117.5t-117 -48.5t-117 48.5t-49 117.5z" />
    <glyph glyph-name="uni1EC7" unicode="&#x1ec7;" horiz-adv-x="1269" 
d="M639 -23q-164 0 -298 77.5t-209 210.5t-75 292q0 118 44.5 224.5t121 184.5t185 123.5t231.5 45.5q163 0 295 -73.5t206 -200.5t74 -281q0 -54 -12 -109h-860q24 -107 102 -173.5t193 -66.5q84 0 140 29t102 86h301q-66 -167 -209 -268t-332 -101zM319 1221v225l318 172
l315 -172v-225l-315 170zM352 688h572q-31 95 -106 150t-179 55t-180 -55t-107 -150zM471 -313q0 67 49.5 116.5t116.5 49.5t116.5 -49.5t49.5 -116.5q0 -69 -49 -117.5t-117 -48.5t-117 48.5t-49 117.5z" />
    <glyph glyph-name="uni1EC8" unicode="&#x1ec8;" horiz-adv-x="550" 
d="M137 0v1434h277v-1434h-277zM35 1714q0 98 66.5 165t189.5 67q111 0 170 -46.5t59 -125.5q0 -40 -13.5 -70.5t-33 -47.5t-39 -30t-34 -26.5t-15.5 -28.5h-188q0 36 20.5 62.5t45 39.5t45 31t20.5 39q0 41 -49 41q-29 0 -44.5 -19t-15.5 -51h-184z" />
    <glyph glyph-name="uni1EC9" unicode="&#x1ec9;" horiz-adv-x="503" 
d="M115 0v1112h276v-1112h-276zM12 1393q0 98 66.5 164.5t189.5 66.5q111 0 170.5 -46.5t59.5 -125.5q0 -40 -13.5 -70.5t-33.5 -47.5t-39.5 -30t-34 -26.5t-15.5 -28.5h-188q0 36 20.5 62.5t45 39.5t45 31t20.5 39q0 41 -49 41q-29 0 -44 -18.5t-15 -50.5h-185z" />
    <glyph glyph-name="uni1ECA" unicode="&#x1eca;" horiz-adv-x="550" 
d="M137 0v1434h277v-1434h-277zM111 -313q0 68 49 117t116 49q68 0 117 -49.5t49 -116.5q0 -69 -49 -117.5t-117 -48.5t-116.5 48.5t-48.5 117.5z" />
    <glyph glyph-name="uni1ECB" unicode="&#x1ecb;" horiz-adv-x="503" 
d="M115 0v1112h276v-1112h-276zM86 -313q0 67 49 116.5t117 49.5t117 -49.5t49 -116.5q0 -69 -49 -117.5t-117 -48.5t-117 48.5t-49 117.5zM86 1427q0 67 49 116.5t117 49.5t117 -49.5t49 -116.5q0 -69 -49 -117t-117 -48t-117 48t-49 117z" />
    <glyph glyph-name="uni1ECC" unicode="&#x1ecc;" horiz-adv-x="1636" 
d="M819 -23q-208 0 -381 99t-271.5 269t-98.5 372q0 151 58 288t158 236t239.5 157t295.5 58q155 0 294.5 -58t239 -157t158 -236t58.5 -288t-58.5 -288t-158 -236t-239 -157.5t-294.5 -58.5zM352 717q0 -194 136.5 -329.5t330.5 -135.5q193 0 329 135.5t136 329.5
t-136 329.5t-329 135.5q-194 0 -330.5 -135.5t-136.5 -329.5zM653 -313q0 67 49.5 116.5t116.5 49.5t116.5 -49.5t49.5 -116.5q0 -69 -49 -117.5t-117 -48.5t-117 48.5t-49 117.5z" />
    <glyph glyph-name="uni1ECD" unicode="&#x1ecd;" horiz-adv-x="1294" 
d="M647 -23q-162 0 -298 77.5t-214 210.5t-78 292q0 157 78 290t214 210.5t298 77.5t298 -77.5t214 -210.5t78 -290q0 -159 -78 -292t-214 -210.5t-298 -77.5zM338 557q0 -127 91 -218t218 -91t217 90.5t90 218.5q0 127 -90 217t-217 90q-128 0 -218.5 -90t-90.5 -217z
M481 -313q0 67 49.5 116.5t116.5 49.5t116.5 -49.5t49.5 -116.5q0 -69 -49 -117.5t-117 -48.5t-117 48.5t-49 117.5z" />
    <glyph glyph-name="uni1ECE" unicode="&#x1ece;" horiz-adv-x="1636" 
d="M819 -23q-208 0 -381 99t-271.5 269t-98.5 372q0 151 58 288t158 236t239.5 157t295.5 58q155 0 294.5 -58t239 -157t158 -236t58.5 -288t-58.5 -288t-158 -236t-239 -157.5t-294.5 -58.5zM352 717q0 -194 136.5 -329.5t330.5 -135.5q193 0 329 135.5t136 329.5
t-136 329.5t-329 135.5q-194 0 -330.5 -135.5t-136.5 -329.5zM578 1714q0 98 66.5 165t189.5 67q111 0 170 -46.5t59 -125.5q0 -40 -13.5 -70.5t-33 -47.5t-39 -30t-34 -26.5t-15.5 -28.5h-189q0 36 20.5 62.5t45 39.5t45 31t20.5 39q0 41 -49 41q-28 0 -43.5 -19t-15.5 -51
h-184z" />
    <glyph glyph-name="uni1ECF" unicode="&#x1ecf;" horiz-adv-x="1294" 
d="M647 -23q-162 0 -298 77.5t-214 210.5t-78 292q0 157 78 290t214 210.5t298 77.5t298 -77.5t214 -210.5t78 -290q0 -159 -78 -292t-214 -210.5t-298 -77.5zM338 557q0 -127 91 -218t218 -91t217 90.5t90 218.5q0 127 -90 217t-217 90q-128 0 -218.5 -90t-90.5 -217z
M406 1393q0 98 66.5 164.5t189.5 66.5q111 0 170 -46.5t59 -125.5q0 -40 -13.5 -70.5t-33 -47.5t-39 -30t-34 -26.5t-15.5 -28.5h-189q0 36 20.5 62.5t45 39.5t45 31t20.5 39q0 41 -49 41q-29 0 -44 -18.5t-15 -50.5h-184z" />
    <glyph glyph-name="uni1ED0" unicode="&#x1ed0;" horiz-adv-x="1636" 
d="M819 -23q-208 0 -381 99t-271.5 269t-98.5 372q0 151 58 288t158 236t239.5 157t295.5 58q155 0 294.5 -58t239 -157t158 -236t58.5 -288t-58.5 -288t-158 -236t-239 -157.5t-294.5 -58.5zM352 717q0 -194 136.5 -329.5t330.5 -135.5q193 0 329 135.5t136 329.5
t-136 329.5t-329 135.5q-194 0 -330.5 -135.5t-136.5 -329.5zM502 1542v225l317 172l316 -172v-225l-316 170zM950 1905l148 354h301l-250 -354h-199z" />
    <glyph glyph-name="uni1ED1" unicode="&#x1ed1;" horiz-adv-x="1294" 
d="M647 -23q-162 0 -298 77.5t-214 210.5t-78 292q0 157 78 290t214 210.5t298 77.5t298 -77.5t214 -210.5t78 -290q0 -159 -78 -292t-214 -210.5t-298 -77.5zM330 1221v225l317 172l316 -172v-225l-316 170zM338 557q0 -127 91 -218t218 -91t217 90.5t90 218.5
q0 127 -90 217t-217 90q-128 0 -218.5 -90t-90.5 -217zM778 1583l148 354h301l-250 -354h-199z" />
    <glyph glyph-name="uni1ED2" unicode="&#x1ed2;" horiz-adv-x="1636" 
d="M819 -23q-208 0 -381 99t-271.5 269t-98.5 372q0 151 58 288t158 236t239.5 157t295.5 58q155 0 294.5 -58t239 -157t158 -236t58.5 -288t-58.5 -288t-158 -236t-239 -157.5t-294.5 -58.5zM352 717q0 -194 136.5 -329.5t330.5 -135.5q193 0 329 135.5t136 329.5
t-136 329.5t-329 135.5q-194 0 -330.5 -135.5t-136.5 -329.5zM502 1542v225l317 172l316 -172v-225l-316 170zM774 2259h301l148 -354h-199z" />
    <glyph glyph-name="uni1ED3" unicode="&#x1ed3;" horiz-adv-x="1294" 
d="M647 -23q-162 0 -298 77.5t-214 210.5t-78 292q0 157 78 290t214 210.5t298 77.5t298 -77.5t214 -210.5t78 -290q0 -159 -78 -292t-214 -210.5t-298 -77.5zM330 1221v225l317 172l316 -172v-225l-316 170zM338 557q0 -127 91 -218t218 -91t217 90.5t90 218.5
q0 127 -90 217t-217 90q-128 0 -218.5 -90t-90.5 -217zM602 1937h301l148 -354h-199z" />
    <glyph glyph-name="uni1ED4" unicode="&#x1ed4;" horiz-adv-x="1636" 
d="M819 -23q-208 0 -381 99t-271.5 269t-98.5 372q0 151 58 288t158 236t239.5 157t295.5 58q155 0 294.5 -58t239 -157t158 -236t58.5 -288t-58.5 -288t-158 -236t-239 -157.5t-294.5 -58.5zM352 717q0 -194 136.5 -329.5t330.5 -135.5q193 0 329 135.5t136 329.5
t-136 329.5t-329 135.5q-194 0 -330.5 -135.5t-136.5 -329.5zM502 1542v225l317 172l316 -172v-225l-316 170zM838 2048q0 98 66.5 164.5t189.5 66.5q111 0 170 -46.5t59 -125.5q0 -40 -13.5 -70.5t-33 -47.5t-39 -29.5t-34 -26t-15.5 -28.5h-189q0 36 20.5 62.5t45 39.5
t45 31t20.5 39q0 41 -49 41q-28 0 -43.5 -19t-15.5 -51h-184z" />
    <glyph glyph-name="uni1ED5" unicode="&#x1ed5;" horiz-adv-x="1294" 
d="M647 -23q-162 0 -298 77.5t-214 210.5t-78 292q0 157 78 290t214 210.5t298 77.5t298 -77.5t214 -210.5t78 -290q0 -159 -78 -292t-214 -210.5t-298 -77.5zM330 1221v225l317 172l316 -172v-225l-316 170zM338 557q0 -127 91 -218t218 -91t217 90.5t90 218.5
q0 127 -90 217t-217 90q-128 0 -218.5 -90t-90.5 -217zM666 1726q0 98 66.5 165t189.5 67q111 0 170 -46.5t59 -125.5q0 -40 -13.5 -70.5t-33 -47.5t-39 -30t-34 -26.5t-15.5 -28.5h-189q0 36 20.5 62.5t45 39.5t45 31t20.5 39q0 41 -49 41q-28 0 -43.5 -19t-15.5 -51h-184z
" />
    <glyph glyph-name="uni1ED6" unicode="&#x1ed6;" horiz-adv-x="1636" 
d="M819 -23q-208 0 -381 99t-271.5 269t-98.5 372q0 151 58 288t158 236t239.5 157t295.5 58q155 0 294.5 -58t239 -157t158 -236t58.5 -288t-58.5 -288t-158 -236t-239 -157.5t-294.5 -58.5zM352 717q0 -194 136.5 -329.5t330.5 -135.5q193 0 329 135.5t136 329.5
t-136 329.5t-329 135.5q-194 0 -330.5 -135.5t-136.5 -329.5zM449 1948q7 144 76 215t182 71q44 0 81 -15.5t57.5 -33.5t45.5 -33.5t47 -15.5q64 0 70 88h200q-7 -139 -74 -213t-178 -74q-44 0 -82.5 15.5t-60 34t-46.5 34t-46 15.5q-64 0 -70 -88h-202zM502 1542v225
l317 172l316 -172v-225l-316 170z" />
    <glyph glyph-name="uni1ED7" unicode="&#x1ed7;" horiz-adv-x="1294" 
d="M647 -23q-162 0 -298 77.5t-214 210.5t-78 292q0 157 78 290t214 210.5t298 77.5t298 -77.5t214 -210.5t78 -290q0 -159 -78 -292t-214 -210.5t-298 -77.5zM276 1626q7 144 76.5 215.5t182.5 71.5q44 0 81 -15.5t57.5 -33.5t45.5 -33.5t47 -15.5q64 0 70 88h200
q-7 -139 -74 -213t-178 -74q-44 0 -82.5 15.5t-60 33.5t-46.5 33.5t-46 15.5q-64 0 -70 -88h-203zM330 1221v225l317 172l316 -172v-225l-316 170zM338 557q0 -127 91 -218t218 -91t217 90.5t90 218.5q0 127 -90 217t-217 90q-128 0 -218.5 -90t-90.5 -217z" />
    <glyph glyph-name="uni1ED8" unicode="&#x1ed8;" horiz-adv-x="1636" 
d="M819 -23q-208 0 -381 99t-271.5 269t-98.5 372q0 151 58 288t158 236t239.5 157t295.5 58q155 0 294.5 -58t239 -157t158 -236t58.5 -288t-58.5 -288t-158 -236t-239 -157.5t-294.5 -58.5zM352 717q0 -194 136.5 -329.5t330.5 -135.5q193 0 329 135.5t136 329.5
t-136 329.5t-329 135.5q-194 0 -330.5 -135.5t-136.5 -329.5zM502 1542v225l317 172l316 -172v-225l-316 170zM653 -313q0 67 49.5 116.5t116.5 49.5t116.5 -49.5t49.5 -116.5q0 -69 -49 -117.5t-117 -48.5t-117 48.5t-49 117.5z" />
    <glyph glyph-name="uni1ED9" unicode="&#x1ed9;" horiz-adv-x="1294" 
d="M647 -23q-162 0 -298 77.5t-214 210.5t-78 292q0 157 78 290t214 210.5t298 77.5t298 -77.5t214 -210.5t78 -290q0 -159 -78 -292t-214 -210.5t-298 -77.5zM330 1221v225l317 172l316 -172v-225l-316 170zM338 557q0 -127 91 -218t218 -91t217 90.5t90 218.5
q0 127 -90 217t-217 90q-128 0 -218.5 -90t-90.5 -217zM481 -313q0 67 49.5 116.5t116.5 49.5t116.5 -49.5t49.5 -116.5q0 -69 -49 -117.5t-117 -48.5t-117 48.5t-49 117.5z" />
    <glyph glyph-name="uni1EDA" unicode="&#x1eda;" horiz-adv-x="1636" 
d="M819 -23q-208 0 -381 99t-271.5 269t-98.5 372q0 151 58 288t158 236t239.5 157t295.5 58q94 0 187 -22q93 2 137.5 32.5t44.5 106.5q0 39 -6 69h272q6 -30 6 -71q0 -193 -155 -289q125 -103 194.5 -250t69.5 -315q0 -151 -58.5 -288t-158 -236t-239 -157.5t-294.5 -58.5
zM352 717q0 -194 136.5 -329.5t330.5 -135.5q193 0 329 135.5t136 329.5t-136 329.5t-329 135.5q-194 0 -330.5 -135.5t-136.5 -329.5zM692 1571l148 354h301l-250 -354h-199z" />
    <glyph glyph-name="uni1EDB" unicode="&#x1edb;" horiz-adv-x="1294" 
d="M647 -23q-162 0 -298 77.5t-214 210.5t-78 292q0 157 78 290t214 210.5t298 77.5q67 0 156 -21q71 6 107 38.5t36 98.5q0 40 -6 70h272q7 -35 7 -72q0 -203 -197 -284q107 -60 161 -170.5t54 -237.5q0 -159 -78 -292t-214 -210.5t-298 -77.5zM338 557q0 -127 91 -218
t218 -91t217 90.5t90 218.5q0 127 -90 217t-217 90q-128 0 -218.5 -90t-90.5 -217zM520 1249l148 355h301l-250 -355h-199z" />
    <glyph glyph-name="uni1EDC" unicode="&#x1edc;" horiz-adv-x="1636" 
d="M819 -23q-208 0 -381 99t-271.5 269t-98.5 372q0 151 58 288t158 236t239.5 157t295.5 58q94 0 187 -22q93 2 137.5 32.5t44.5 106.5q0 39 -6 69h272q6 -30 6 -71q0 -193 -155 -289q125 -103 194.5 -250t69.5 -315q0 -151 -58.5 -288t-158 -236t-239 -157.5t-294.5 -58.5
zM352 717q0 -194 136.5 -329.5t330.5 -135.5q193 0 329 135.5t136 329.5t-136 329.5t-329 135.5q-194 0 -330.5 -135.5t-136.5 -329.5zM514 1925h301l148 -354h-199z" />
    <glyph glyph-name="uni1EDD" unicode="&#x1edd;" horiz-adv-x="1294" 
d="M647 -23q-162 0 -298 77.5t-214 210.5t-78 292q0 157 78 290t214 210.5t298 77.5q67 0 156 -21q71 6 107 38.5t36 98.5q0 40 -6 70h272q7 -35 7 -72q0 -203 -197 -284q107 -60 161 -170.5t54 -237.5q0 -159 -78 -292t-214 -210.5t-298 -77.5zM338 557q0 -127 91 -218
t218 -91t217 90.5t90 218.5q0 127 -90 217t-217 90q-128 0 -218.5 -90t-90.5 -217zM344 1604h301l148 -355h-199z" />
    <glyph glyph-name="uni1EDE" unicode="&#x1ede;" horiz-adv-x="1636" 
d="M819 -23q-208 0 -381 99t-271.5 269t-98.5 372q0 151 58 288t158 236t239.5 157t295.5 58q94 0 187 -22q93 2 137.5 32.5t44.5 106.5q0 39 -6 69h272q6 -30 6 -71q0 -193 -155 -289q125 -103 194.5 -250t69.5 -315q0 -151 -58.5 -288t-158 -236t-239 -157.5t-294.5 -58.5
zM352 717q0 -194 136.5 -329.5t330.5 -135.5q193 0 329 135.5t136 329.5t-136 329.5t-329 135.5q-194 0 -330.5 -135.5t-136.5 -329.5zM578 1714q0 98 66.5 165t189.5 67q111 0 170 -46.5t59 -125.5q0 -40 -13.5 -70.5t-33 -47.5t-39 -30t-34 -26.5t-15.5 -28.5h-189
q0 36 20.5 62.5t45 39.5t45 31t20.5 39q0 41 -49 41q-28 0 -43.5 -19t-15.5 -51h-184z" />
    <glyph glyph-name="uni1EDF" unicode="&#x1edf;" horiz-adv-x="1294" 
d="M647 -23q-162 0 -298 77.5t-214 210.5t-78 292q0 157 78 290t214 210.5t298 77.5q67 0 156 -21q71 6 107 38.5t36 98.5q0 40 -6 70h272q7 -35 7 -72q0 -203 -197 -284q107 -60 161 -170.5t54 -237.5q0 -159 -78 -292t-214 -210.5t-298 -77.5zM338 557q0 -127 91 -218
t218 -91t217 90.5t90 218.5q0 127 -90 217t-217 90q-128 0 -218.5 -90t-90.5 -217zM406 1393q0 98 66.5 164.5t189.5 66.5q111 0 170 -46.5t59 -125.5q0 -40 -13.5 -70.5t-33 -47.5t-39 -30t-34 -26.5t-15.5 -28.5h-189q0 36 20.5 62.5t45 39.5t45 31t20.5 39q0 41 -49 41
q-29 0 -44 -18.5t-15 -50.5h-184z" />
    <glyph glyph-name="uni1EE0" unicode="&#x1ee0;" horiz-adv-x="1636" 
d="M819 -23q-208 0 -381 99t-271.5 269t-98.5 372q0 151 58 288t158 236t239.5 157t295.5 58q94 0 187 -22q93 2 137.5 32.5t44.5 106.5q0 39 -6 69h272q6 -30 6 -71q0 -193 -155 -289q125 -103 194.5 -250t69.5 -315q0 -151 -58.5 -288t-158 -236t-239 -157.5t-294.5 -58.5
zM352 717q0 -194 136.5 -329.5t330.5 -135.5q193 0 329 135.5t136 329.5t-136 329.5t-329 135.5q-194 0 -330.5 -135.5t-136.5 -329.5zM438 1595q7 144 76 215.5t182 71.5q44 0 81 -15.5t58 -33.5t46 -33.5t47 -15.5q63 0 69 88h201q-7 -139 -74 -213t-178 -74
q-44 0 -82.5 15.5t-60 33.5t-46.5 33.5t-46 15.5q-64 0 -70 -88h-203z" />
    <glyph glyph-name="uni1EE1" unicode="&#x1ee1;" horiz-adv-x="1294" 
d="M647 -23q-162 0 -298 77.5t-214 210.5t-78 292q0 157 78 290t214 210.5t298 77.5q67 0 156 -21q71 6 107 38.5t36 98.5q0 40 -6 70h272q7 -35 7 -72q0 -203 -197 -284q107 -60 161 -170.5t54 -237.5q0 -159 -78 -292t-214 -210.5t-298 -77.5zM266 1274q7 144 76 215.5
t182 71.5q44 0 81 -15.5t58 -34t46 -34t47 -15.5q63 0 69 88h201q-7 -139 -74 -212.5t-178 -73.5q-44 0 -82.5 15.5t-60 33.5t-46.5 33.5t-46 15.5q-64 0 -70 -88h-203zM338 557q0 -127 91 -218t218 -91t217 90.5t90 218.5q0 127 -90 217t-217 90q-128 0 -218.5 -90
t-90.5 -217z" />
    <glyph glyph-name="uni1EE2" unicode="&#x1ee2;" horiz-adv-x="1636" 
d="M819 -23q-208 0 -381 99t-271.5 269t-98.5 372q0 151 58 288t158 236t239.5 157t295.5 58q94 0 187 -22q93 2 137.5 32.5t44.5 106.5q0 39 -6 69h272q6 -30 6 -71q0 -193 -155 -289q125 -103 194.5 -250t69.5 -315q0 -151 -58.5 -288t-158 -236t-239 -157.5t-294.5 -58.5
zM352 717q0 -194 136.5 -329.5t330.5 -135.5q193 0 329 135.5t136 329.5t-136 329.5t-329 135.5q-194 0 -330.5 -135.5t-136.5 -329.5zM653 -313q0 67 49.5 116.5t116.5 49.5t116.5 -49.5t49.5 -116.5q0 -69 -49 -117.5t-117 -48.5t-117 48.5t-49 117.5z" />
    <glyph glyph-name="uni1EE3" unicode="&#x1ee3;" horiz-adv-x="1294" 
d="M647 -23q-162 0 -298 77.5t-214 210.5t-78 292q0 157 78 290t214 210.5t298 77.5q67 0 156 -21q71 6 107 38.5t36 98.5q0 40 -6 70h272q7 -35 7 -72q0 -203 -197 -284q107 -60 161 -170.5t54 -237.5q0 -159 -78 -292t-214 -210.5t-298 -77.5zM338 557q0 -127 91 -218
t218 -91t217 90.5t90 218.5q0 127 -90 217t-217 90q-128 0 -218.5 -90t-90.5 -217zM481 -313q0 67 49.5 116.5t116.5 49.5t116.5 -49.5t49.5 -116.5q0 -69 -49 -117.5t-117 -48.5t-117 48.5t-49 117.5z" />
    <glyph glyph-name="uni1EE4" unicode="&#x1ee4;" horiz-adv-x="1501" 
d="M750 -23q-178 0 -320.5 76.5t-224.5 219.5t-82 329v832h276v-832q0 -157 97 -253.5t254 -96.5q158 0 254 96.5t96 253.5v832h276v-832q0 -280 -177 -452.5t-449 -172.5zM584 -313q0 67 49 116.5t117 49.5q67 0 116 -49t49 -117q0 -69 -48.5 -117.5t-116.5 -48.5
t-117 48.5t-49 117.5z" />
    <glyph glyph-name="uni1EE5" unicode="&#x1ee5;" horiz-adv-x="1228" 
d="M614 -23q-102 0 -196 39t-163.5 105.5t-111 161.5t-41.5 202v627h277v-631q0 -97 68.5 -166t166.5 -69q99 0 167.5 69t68.5 166v631h276v-627q0 -107 -41.5 -202t-111 -161.5t-163.5 -105.5t-196 -39zM459 -313q0 67 49.5 116.5t116.5 49.5t116.5 -49.5t49.5 -116.5
q0 -69 -49 -117.5t-117 -48.5t-117 48.5t-49 117.5z" />
    <glyph glyph-name="uni1EE6" unicode="&#x1ee6;" horiz-adv-x="1501" 
d="M750 -23q-178 0 -320.5 76.5t-224.5 219.5t-82 329v832h276v-832q0 -157 97 -253.5t254 -96.5q158 0 254 96.5t96 253.5v832h276v-832q0 -280 -177 -452.5t-449 -172.5zM510 1714q0 98 66.5 165t189.5 67q111 0 170 -46.5t59 -125.5q0 -40 -13.5 -70.5t-33 -47.5t-39 -30
t-34 -26.5t-15.5 -28.5h-188q0 36 20.5 62.5t45 39.5t45 31t20.5 39q0 41 -49 41q-29 0 -44.5 -19t-15.5 -51h-184z" />
    <glyph glyph-name="uni1EE7" unicode="&#x1ee7;" horiz-adv-x="1228" 
d="M614 -23q-102 0 -196 39t-163.5 105.5t-111 161.5t-41.5 202v627h277v-631q0 -97 68.5 -166t166.5 -69q99 0 167.5 69t68.5 166v631h276v-627q0 -107 -41.5 -202t-111 -161.5t-163.5 -105.5t-196 -39zM375 1393q0 98 66.5 164.5t189.5 66.5q111 0 170 -46.5t59 -125.5
q0 -40 -13.5 -70.5t-33 -47.5t-39 -30t-34 -26.5t-15.5 -28.5h-188q0 36 20.5 62.5t45 39.5t45 31t20.5 39q0 41 -50 41q-29 0 -44 -18.5t-15 -50.5h-184z" />
    <glyph glyph-name="uni1EE8" unicode="&#x1ee8;" horiz-adv-x="1501" 
d="M750 -23q-178 0 -320.5 76.5t-224.5 219.5t-82 329v832h276v-832q0 -157 97 -253.5t254 -96.5q158 0 254 96.5t96 253.5v832h59q97 0 144 30.5t47 108.5q0 34 -7 69h273q6 -30 6 -71q0 -121 -63 -205.5t-183 -124.5v-639q0 -280 -177 -452.5t-449 -172.5zM625 1571
l147 354h301l-250 -354h-198z" />
    <glyph glyph-name="uni1EE9" unicode="&#x1ee9;" horiz-adv-x="1228" 
d="M614 -23q-102 0 -196 39t-163.5 105.5t-111 161.5t-41.5 202v627h277v-631q0 -97 68.5 -166t166.5 -69q99 0 167.5 69t68.5 166v631h41q97 0 143.5 30.5t46.5 108.5q0 40 -6 70h273q6 -30 6 -72q0 -116 -58.5 -199t-169.5 -124v-441q0 -107 -41.5 -202t-111 -161.5
t-163.5 -105.5t-196 -39zM487 1249l148 355h301l-250 -355h-199z" />
    <glyph glyph-name="uni1EEA" unicode="&#x1eea;" horiz-adv-x="1501" 
d="M750 -23q-178 0 -320.5 76.5t-224.5 219.5t-82 329v832h276v-832q0 -157 97 -253.5t254 -96.5q158 0 254 96.5t96 253.5v832h59q97 0 144 30.5t47 108.5q0 34 -7 69h273q6 -30 6 -71q0 -121 -63 -205.5t-183 -124.5v-639q0 -280 -177 -452.5t-449 -172.5zM446 1925h302
l147 -354h-199z" />
    <glyph glyph-name="uni1EEB" unicode="&#x1eeb;" horiz-adv-x="1228" 
d="M614 -23q-102 0 -196 39t-163.5 105.5t-111 161.5t-41.5 202v627h277v-631q0 -97 68.5 -166t166.5 -69q99 0 167.5 69t68.5 166v631h41q97 0 143.5 30.5t46.5 108.5q0 40 -6 70h273q6 -30 6 -72q0 -116 -58.5 -199t-169.5 -124v-441q0 -107 -41.5 -202t-111 -161.5
t-163.5 -105.5t-196 -39zM311 1604h301l148 -355h-199z" />
    <glyph glyph-name="uni1EEC" unicode="&#x1eec;" horiz-adv-x="1501" 
d="M750 -23q-178 0 -320.5 76.5t-224.5 219.5t-82 329v832h276v-832q0 -157 97 -253.5t254 -96.5q158 0 254 96.5t96 253.5v832h59q97 0 144 30.5t47 108.5q0 34 -7 69h273q6 -30 6 -71q0 -121 -63 -205.5t-183 -124.5v-639q0 -280 -177 -452.5t-449 -172.5zM510 1714
q0 98 66.5 165t189.5 67q111 0 170 -46.5t59 -125.5q0 -40 -13.5 -70.5t-33 -47.5t-39 -30t-34 -26.5t-15.5 -28.5h-188q0 36 20.5 62.5t45 39.5t45 31t20.5 39q0 41 -49 41q-29 0 -44.5 -19t-15.5 -51h-184z" />
    <glyph glyph-name="uni1EED" unicode="&#x1eed;" horiz-adv-x="1228" 
d="M614 -23q-102 0 -196 39t-163.5 105.5t-111 161.5t-41.5 202v627h277v-631q0 -97 68.5 -166t166.5 -69q99 0 167.5 69t68.5 166v631h41q97 0 143.5 30.5t46.5 108.5q0 40 -6 70h273q6 -30 6 -72q0 -116 -58.5 -199t-169.5 -124v-441q0 -107 -41.5 -202t-111 -161.5
t-163.5 -105.5t-196 -39zM375 1393q0 98 66.5 164.5t189.5 66.5q111 0 170 -46.5t59 -125.5q0 -40 -13.5 -70.5t-33 -47.5t-39 -30t-34 -26.5t-15.5 -28.5h-188q0 36 20.5 62.5t45 39.5t45 31t20.5 39q0 41 -50 41q-29 0 -44 -18.5t-15 -50.5h-184z" />
    <glyph glyph-name="uni1EEE" unicode="&#x1eee;" horiz-adv-x="1501" 
d="M750 -23q-178 0 -320.5 76.5t-224.5 219.5t-82 329v832h276v-832q0 -157 97 -253.5t254 -96.5q158 0 254 96.5t96 253.5v832h59q97 0 144 30.5t47 108.5q0 34 -7 69h273q6 -30 6 -71q0 -121 -63 -205.5t-183 -124.5v-639q0 -280 -177 -452.5t-449 -172.5zM371 1595
q7 144 76 215.5t182 71.5q44 0 81 -15.5t57.5 -33.5t45.5 -33.5t47 -15.5q64 0 70 88h200q-7 -139 -73.5 -213t-177.5 -74q-44 0 -82.5 15.5t-60 33.5t-47 33.5t-46.5 15.5q-64 0 -70 -88h-202z" />
    <glyph glyph-name="uni1EEF" unicode="&#x1eef;" horiz-adv-x="1228" 
d="M614 -23q-102 0 -196 39t-163.5 105.5t-111 161.5t-41.5 202v627h277v-631q0 -97 68.5 -166t166.5 -69q99 0 167.5 69t68.5 166v631h41q97 0 143.5 30.5t46.5 108.5q0 40 -6 70h273q6 -30 6 -72q0 -116 -58.5 -199t-169.5 -124v-441q0 -107 -41.5 -202t-111 -161.5
t-163.5 -105.5t-196 -39zM236 1274q7 144 76 215.5t182 71.5q44 0 81 -15.5t57.5 -34t45.5 -34t47 -15.5q64 0 70 88h200q-7 -139 -74 -212.5t-178 -73.5q-44 0 -82.5 15.5t-60 33.5t-46.5 33.5t-46 15.5q-64 0 -70 -88h-202z" />
    <glyph glyph-name="uni1EF0" unicode="&#x1ef0;" horiz-adv-x="1501" 
d="M750 -23q-178 0 -320.5 76.5t-224.5 219.5t-82 329v832h276v-832q0 -157 97 -253.5t254 -96.5q158 0 254 96.5t96 253.5v832h59q97 0 144 30.5t47 108.5q0 34 -7 69h273q6 -30 6 -71q0 -121 -63 -205.5t-183 -124.5v-639q0 -280 -177 -452.5t-449 -172.5zM584 -313
q0 67 49 116.5t117 49.5q67 0 116 -49t49 -117q0 -69 -48.5 -117.5t-116.5 -48.5t-117 48.5t-49 117.5z" />
    <glyph glyph-name="uni1EF1" unicode="&#x1ef1;" horiz-adv-x="1228" 
d="M614 -23q-102 0 -196 39t-163.5 105.5t-111 161.5t-41.5 202v627h277v-631q0 -97 68.5 -166t166.5 -69q99 0 167.5 69t68.5 166v631h41q97 0 143.5 30.5t46.5 108.5q0 40 -6 70h273q6 -30 6 -72q0 -116 -58.5 -199t-169.5 -124v-441q0 -107 -41.5 -202t-111 -161.5
t-163.5 -105.5t-196 -39zM459 -313q0 67 49.5 116.5t116.5 49.5t116.5 -49.5t49.5 -116.5q0 -69 -49 -117.5t-117 -48.5t-117 48.5t-49 117.5z" />
    <glyph glyph-name="Ygrave" unicode="&#x1ef2;" horiz-adv-x="1353" 
d="M549 0v494l-553 940h317l379 -656l359 656h307l-533 -936v-498h-276zM373 1925h301l147 -354h-198z" />
    <glyph glyph-name="ygrave" unicode="&#x1ef3;" horiz-adv-x="1173" 
d="M229 -410l217 510l-448 1012h307l293 -694l270 694h297l-639 -1522h-297zM289 1604h301l147 -355h-198z" />
    <glyph glyph-name="uni1EF4" unicode="&#x1ef4;" horiz-adv-x="1353" 
d="M549 0v494l-553 940h317l379 -656l359 656h307l-533 -936v-498h-276zM512 -313q0 67 49 116.5t117 49.5t117 -49.5t49 -116.5q0 -69 -49 -117.5t-117 -48.5t-117 48.5t-49 117.5z" />
    <glyph glyph-name="uni1EF5" unicode="&#x1ef5;" horiz-adv-x="1173" 
d="M229 -410l217 510l-448 1012h307l293 -694l270 694h297l-639 -1522h-297zM780 -313q0 67 49 116.5t117 49.5t117 -49.5t49 -116.5q0 -69 -49 -117.5t-117 -48.5t-117 48.5t-49 117.5z" />
    <glyph glyph-name="uni1EF6" unicode="&#x1ef6;" horiz-adv-x="1353" 
d="M549 0v494l-553 940h317l379 -656l359 656h307l-533 -936v-498h-276zM436 1714q0 98 66.5 165t189.5 67q111 0 170.5 -46.5t59.5 -125.5q0 -40 -13.5 -70.5t-33.5 -47.5t-39.5 -30t-34 -26.5t-15.5 -28.5h-188q0 36 20.5 62.5t45 39.5t45 31t20.5 39q0 41 -49 41
q-28 0 -43.5 -19t-15.5 -51h-185z" />
    <glyph glyph-name="uni1EF7" unicode="&#x1ef7;" horiz-adv-x="1173" 
d="M229 -410l217 510l-448 1012h307l293 -694l270 694h297l-639 -1522h-297zM352 1393q0 98 66.5 164.5t189.5 66.5q111 0 170.5 -46.5t59.5 -125.5q0 -40 -13.5 -70.5t-33.5 -47.5t-39.5 -30t-34 -26.5t-15.5 -28.5h-188q0 36 20.5 62.5t45 39.5t45 31t20.5 39q0 41 -49 41
q-29 0 -44 -18.5t-15 -50.5h-185z" />
    <glyph glyph-name="uni1EF8" unicode="&#x1ef8;" horiz-adv-x="1353" 
d="M549 0v494l-553 940h317l379 -656l359 656h307l-533 -936v-498h-276zM297 1595q7 144 76 215.5t182 71.5q44 0 81 -15.5t57.5 -33.5t45.5 -33.5t47 -15.5q64 0 70 88h201q-7 -139 -74 -213t-178 -74q-44 0 -82.5 15.5t-60 33.5t-47 33.5t-46.5 15.5q-63 0 -69 -88h-203z
" />
    <glyph glyph-name="uni1EF9" unicode="&#x1ef9;" horiz-adv-x="1173" 
d="M229 -410l217 510l-448 1012h307l293 -694l270 694h297l-639 -1522h-297zM213 1274q7 144 76 215.5t182 71.5q44 0 81 -15.5t57.5 -34t45.5 -34t47 -15.5q64 0 70 88h201q-7 -139 -74 -212.5t-178 -73.5q-44 0 -82.5 15.5t-60 33.5t-47 33.5t-46.5 15.5q-63 0 -69 -88
h-203z" />
    <glyph glyph-name="uni2000" unicode="&#x2000;" horiz-adv-x="1054" 
 />
    <glyph glyph-name="uni2002" unicode="&#x2002;" horiz-adv-x="1054" 
 />
    <glyph glyph-name="uni2003" unicode="&#x2003;" horiz-adv-x="1925" 
 />
    <glyph glyph-name="uni2004" unicode="&#x2004;" horiz-adv-x="763" 
 />
    <glyph glyph-name="uni2005" unicode="&#x2005;" horiz-adv-x="620" 
 />
    <glyph glyph-name="uni2006" unicode="&#x2006;" horiz-adv-x="475" 
 />
    <glyph glyph-name="uni2007" unicode="&#x2007;" horiz-adv-x="1329" 
 />
    <glyph glyph-name="uni2008" unicode="&#x2008;" horiz-adv-x="460" 
 />
    <glyph glyph-name="uni2009" unicode="&#x2009;" horiz-adv-x="532" 
 />
    <glyph glyph-name="uni200A" unicode="&#x200a;" horiz-adv-x="434" 
 />
    <glyph glyph-name="uni200B" unicode="&#x200b;" horiz-adv-x="184" 
 />
    <glyph glyph-name="endash" unicode="&#x2013;" horiz-adv-x="1142" 
d="M0 645v176h1143v-176h-1143z" />
    <glyph glyph-name="emdash" unicode="&#x2014;" horiz-adv-x="1728" 
d="M0 645v176h1729v-176h-1729z" />
    <glyph glyph-name="quoteleft" unicode="&#x2018;" horiz-adv-x="460" 
d="M434 1434l-84 -506h-297l144 506h237z" />
    <glyph glyph-name="quoteright" unicode="&#x2019;" horiz-adv-x="460" 
d="M27 930l84 506h297l-144 -506h-237z" />
    <glyph glyph-name="quotesinglbase" unicode="&#x201a;" horiz-adv-x="460" 
d="M27 -211l84 506h297l-144 -506h-237z" />
    <glyph glyph-name="quotedblleft" unicode="&#x201c;" horiz-adv-x="837" 
d="M434 1434l-84 -506h-297l144 506h237zM430 928l143 506h238l-84 -506h-297z" />
    <glyph glyph-name="quotedblright" unicode="&#x201d;" horiz-adv-x="837" 
d="M403 930l84 506h297l-143 -506h-238zM27 930l84 506h297l-144 -506h-237z" />
    <glyph glyph-name="quotedblbase" unicode="&#x201e;" horiz-adv-x="837" 
d="M403 -211l84 506h297l-143 -506h-238zM27 -211l84 506h297l-144 -506h-237z" />
    <glyph glyph-name="dagger" unicode="&#x2020;" horiz-adv-x="921" 
d="M326 0v870h-308v242h308v322h270v-322h307v-242h-307v-870h-270z" />
    <glyph glyph-name="daggerdbl" unicode="&#x2021;" horiz-adv-x="921" 
d="M326 0v322h-308v241h308v307h-308v242h308v322h270v-322h307v-242h-307v-307h307v-241h-307v-322h-270z" />
    <glyph glyph-name="bullet" unicode="&#x2022;" horiz-adv-x="630" 
d="M317 504q-105 0 -180.5 75.5t-75.5 180.5q0 103 75.5 177.5t180.5 74.5q103 0 177.5 -74.5t74.5 -177.5q0 -104 -74.5 -180t-177.5 -76z" />
    <glyph glyph-name="ellipsis" unicode="&#x2026;" horiz-adv-x="1423" 
d="M1192 -23q-69 0 -118.5 50.5t-49.5 119.5t49.5 118.5t118.5 49.5t119.5 -49.5t50.5 -118.5t-50.5 -119.5t-119.5 -50.5zM61 147q0 69 50 118.5t120 49.5q69 0 118.5 -49.5t49.5 -118.5t-49.5 -119.5t-118.5 -50.5q-70 0 -120 50.5t-50 119.5zM543 147q0 69 49.5 118.5
t118.5 49.5t119.5 -49.5t50.5 -118.5t-50.5 -119.5t-119.5 -50.5t-118.5 50.5t-49.5 119.5z" />
    <glyph glyph-name="uni202F" unicode="&#x202f;" horiz-adv-x="462" 
 />
    <glyph glyph-name="perthousand" unicode="&#x2030;" horiz-adv-x="2572" 
d="M229 0l1037 1434h280l-1036 -1434h-281zM68 1098q0 149 104 253.5t252 104.5q149 0 253.5 -104.5t104.5 -253.5q0 -148 -104.5 -252.5t-253.5 -104.5q-148 0 -252 104.5t-104 252.5zM293 1098q0 -54 38.5 -92.5t92.5 -38.5q55 0 94 38.5t39 92.5q0 56 -38.5 94.5
t-94.5 38.5q-54 0 -92.5 -39t-38.5 -94zM993 336q0 148 105 252t254 104q148 0 252 -104t104 -252q0 -149 -104 -254t-252 -105q-149 0 -254 105t-105 254zM1221 336q0 -56 37.5 -93.5t93.5 -37.5q54 0 92.5 38t38.5 93q0 54 -38.5 92.5t-92.5 38.5q-55 0 -93 -38.5
t-38 -92.5zM1790 336q0 148 104.5 252t253.5 104q148 0 252.5 -104t104.5 -252q0 -149 -104.5 -254t-252.5 -105q-149 0 -253.5 105t-104.5 254zM2017 336q0 -56 37.5 -93.5t93.5 -37.5q54 0 92.5 38t38.5 93q0 54 -38.5 92.5t-92.5 38.5q-55 0 -93 -38.5t-38 -92.5z" />
    <glyph glyph-name="guilsinglleft" unicode="&#x2039;" horiz-adv-x="817" 
d="M465 0l-434 557l434 555h321l-434 -555l434 -557h-321z" />
    <glyph glyph-name="guilsinglright" unicode="&#x203a;" horiz-adv-x="817" 
d="M31 0l434 557l-434 555h321l434 -555l-434 -557h-321z" />
    <glyph glyph-name="fraction" unicode="&#x2044;" horiz-adv-x="587" 
d="M-150 0l656 1434h231l-655 -1434h-232z" />
    <glyph glyph-name="uni205F" unicode="&#x205f;" horiz-adv-x="571" 
 />
    <glyph glyph-name="uni20AA" unicode="&#x20aa;" horiz-adv-x="1798" 
d="M561 0v737h252v-485h358q111 0 174.5 62t63.5 186v729h254v-705q0 -242 -139.5 -383t-376.5 -141h-586zM135 0v1229h619q231 0 357 -128t126 -364v-245h-252v243q0 121 -61 181.5t-170 60.5h-363v-977h-256z" />
    <glyph glyph-name="Euro" unicode="&#x20ac;" horiz-adv-x="1669" 
d="M866 -23q-254 0 -450 145.5t-266 375.5h-150v161h119q-2 18 -2 58q0 39 2 57h-119v162h150q70 229 266 374.5t450 145.5q181 0 337.5 -76t260 -209t138.5 -299h-283q-52 144 -175 233t-278 89q-136 0 -249.5 -70.5t-172.5 -187.5h596v-162h-645q-4 -36 -4 -57
q0 -22 4 -58h645v-161h-596q59 -117 172.5 -187.5t249.5 -70.5q156 0 278.5 88.5t172.5 234.5h285q-53 -255 -257.5 -420.5t-478.5 -165.5z" />
    <glyph glyph-name="trademark" unicode="&#x2122;" horiz-adv-x="1550" 
d="M659 717v747l383 -346l371 346v-747h-211v301l-160 -160l-170 160v-301h-213zM18 1241v193h560v-193h-172v-524h-213v524h-175z" />
    <glyph glyph-name="oneeighth" unicode="&#x215b;" horiz-adv-x="2144" 
d="M274 430v737l-165 -57v215l389 123v-1018h-224zM541 0l655 1434h231l-655 -1434h-231zM1321 281q0 168 164 245q-135 74 -135 217q0 119 98 198t262 79t261 -79t97 -198q0 -142 -133 -217q162 -78 162 -245q0 -131 -106 -214t-281 -83q-176 0 -282.5 83t-106.5 214z
M1548 299q0 -57 44 -91t118 -34q73 0 116.5 34t43.5 91q0 59 -43.5 94t-116.5 35q-75 0 -118.5 -35.5t-43.5 -93.5zM1571 727q0 -47 38 -79t101 -32q63 1 102 32.5t39 78.5q0 48 -39.5 80.5t-101.5 32.5q-64 0 -101.5 -32.5t-37.5 -80.5z" />
    <glyph glyph-name="threeeighths" unicode="&#x215c;" horiz-adv-x="2299" 
d="M422 414q-170 0 -276 95t-111 247h225q2 -60 45.5 -99t112.5 -39q67 0 110 33.5t43 89.5t-46.5 87.5t-123.5 31.5h-67v176h67q65 0 103.5 30t38.5 77q0 46 -33.5 74t-97.5 28t-102.5 -31t-39.5 -86h-225q3 135 105.5 229.5t267.5 94.5q164 0 258 -82t94 -203
q0 -140 -117 -215q146 -78 146 -243q0 -129 -105 -212t-272 -83zM696 0l656 1434h231l-655 -1434h-232zM1479 281q0 168 163 245q-135 74 -135 217q0 119 98 198t263 79q164 0 261 -79t97 -198q0 -142 -133 -217q162 -78 162 -245q0 -131 -106 -214t-281 -83
q-176 0 -282.5 83t-106.5 214zM1706 299q0 -57 44 -91t118 -34q73 0 116.5 34t43.5 91q0 59 -43.5 94t-116.5 35q-75 0 -118.5 -35.5t-43.5 -93.5zM1729 727q0 -47 38 -79t101 -32q63 1 102 32.5t39 78.5q0 48 -39.5 80.5t-101.5 32.5q-64 0 -101.5 -32.5t-37.5 -80.5z" />
    <glyph glyph-name="fiveeighths" unicode="&#x215d;" horiz-adv-x="2320" 
d="M449 414q-160 0 -263 91t-108 232h227q3 -49 42.5 -84t101.5 -35q60 0 102.5 43.5t42.5 102.5t-45 103t-107 44q-103 0 -161 -71h-193l62 594h620v-205h-438l-17 -174q70 37 164 37q153 0 247.5 -93.5t94.5 -236.5q0 -149 -102.5 -248.5t-269.5 -99.5zM717 0l655 1434
h232l-656 -1434h-231zM1499 281q0 168 164 245q-135 74 -135 217q0 119 98 198t262 79t261.5 -79t97.5 -198q0 -142 -133 -217q161 -77 161 -245q0 -131 -106 -214t-281 -83q-176 0 -282.5 83t-106.5 214zM1726 299q0 -57 44 -91t118 -34q73 0 116.5 34t43.5 91
q0 59 -43.5 94t-116.5 35q-75 0 -118.5 -35.5t-43.5 -93.5zM1749 727q0 -47 38 -79t101 -32q64 1 103 32.5t39 78.5q0 48 -40 80.5t-102 32.5q-64 0 -101.5 -32.5t-37.5 -80.5z" />
    <glyph glyph-name="seveneighths" unicode="&#x215e;" horiz-adv-x="2191" 
d="M139 430l295 799h-426v205h737l-368 -1004h-238zM586 0l655 1434h232l-656 -1434h-231zM1368 281q0 168 164 245q-135 74 -135 217q0 119 98 198t262 79t261.5 -79t97.5 -198q0 -142 -134 -217q162 -78 162 -245q0 -131 -106 -214t-281 -83q-176 0 -282.5 83t-106.5 214z
M1595 299q0 -57 44 -91t118 -34q73 0 116.5 34t43.5 91q0 59 -43.5 94t-116.5 35q-75 0 -118.5 -35.5t-43.5 -93.5zM1618 727q0 -47 38 -79t101 -32q63 1 102 32.5t39 78.5q0 48 -39.5 80.5t-101.5 32.5q-64 0 -101.5 -32.5t-37.5 -80.5z" />
    <glyph glyph-name="arrowleft" unicode="&#x2190;" horiz-adv-x="1761" 
d="M637 121l-600 600l602 602l174 -178l-303 -299h1186v-250h-1186l303 -297z" />
    <glyph glyph-name="arrowup" unicode="&#x2191;" horiz-adv-x="1259" 
d="M952 674l-241 416l-58 -1078l-239 31l108 1122l-129 -352l-178 119l434 551l492 -664z" />
    <glyph glyph-name="arrowright" unicode="&#x2192;" horiz-adv-x="1761" 
d="M1124 121l-176 178l303 297h-1185v250h1187l-305 299l174 178l602 -602z" />
    <glyph glyph-name="arrowdown" unicode="&#x2193;" horiz-adv-x="1259" 
d="M629 -147l-600 602l176 174l299 -303v1185h250v-1185l297 303l178 -176z" />
    <glyph glyph-name="arrowboth" unicode="&#x2194;" horiz-adv-x="2336" 
d="M637 121l-600 600l602 602l174 -178l-303 -299h1319l-305 299l174 178l602 -602l-600 -600l-176 178l303 297h-1317l303 -297z" />
    <glyph glyph-name="arrowupdn" unicode="&#x2195;" horiz-adv-x="1259" 
d="M629 -268l-600 602l176 174l297 -303v985l-297 -303l-176 176l598 600l602 -602l-178 -174l-297 303v-985l297 303l178 -176z" />
    <glyph glyph-name="uni2196" unicode="&#x2196;" horiz-adv-x="1384" 
d="M1184 43l-840 836l4 -426h-250v850h848v-250l-424 4l838 -840z" />
    <glyph glyph-name="uni2197" unicode="&#x2197;" horiz-adv-x="1384" 
d="M201 41l-176 174l837 840l-424 -4v249h848v-849h-250l2 426z" />
    <glyph glyph-name="uni2198" unicode="&#x2198;" horiz-adv-x="1384" 
d="M438 125v250l424 -4l-837 839l176 176l837 -837l-2 426h250v-850h-848z" />
    <glyph glyph-name="uni2199" unicode="&#x2199;" horiz-adv-x="1384" 
d="M98 125v850h250l-4 -426l840 837l176 -176l-838 -839l424 4v-250h-848z" />
    <glyph glyph-name="partialdiff" unicode="&#x2202;" horiz-adv-x="1226" 
d="M614 -20q-122 0 -227 41t-177 111t-112.5 165t-40.5 201q0 141 67.5 259t186.5 186.5t264 68.5q149 0 263 -90q-49 178 -211.5 312t-427.5 198l184 151q361 -96 573.5 -361t212.5 -628q0 -151 -44.5 -270t-121.5 -193t-176 -112.5t-213 -38.5zM342 498q0 -117 79 -192
t193 -75t192.5 75t78.5 192q0 118 -78 193t-193 75t-193.5 -75t-78.5 -193z" />
    <glyph glyph-name="uni2206" unicode="&#x2206;" horiz-adv-x="1519" 
d="M-2 0l684 1434h160l680 -1434h-1524zM418 246h680l-340 741z" />
    <glyph glyph-name="product" unicode="&#x220f;" horiz-adv-x="1488" 
d="M250 -410v1577h-240v267h1444v-267h-240v-1577h-276v1577h-412v-1577h-276z" />
    <glyph glyph-name="summation" unicode="&#x2211;" horiz-adv-x="1249" 
d="M18 -410l553 942l-553 902h1131v-267h-627l387 -635l-387 -675h647v-267h-1151z" />
    <glyph glyph-name="minus" unicode="&#x2212;" horiz-adv-x="1253" 
d="M41 612v242h1171v-242h-1171z" />
    <glyph glyph-name="radical" unicode="&#x221a;" horiz-adv-x="1564" 
d="M451 0l-443 1112h305l291 -793l443 1319h509v-266h-303l-501 -1372h-301z" />
    <glyph glyph-name="infinity" unicode="&#x221e;" horiz-adv-x="1257" 
d="M897 422q-148 0 -268 137q-120 -137 -269 -137q-136 0 -227.5 91t-91.5 222q0 132 91.5 226t227.5 94q146 0 269 -140q123 140 268 140q137 0 228.5 -93.5t91.5 -226.5q0 -131 -91 -222t-229 -91zM279 735q0 -33 23.5 -56.5t57.5 -23.5q32 0 71.5 23t72.5 57
q-32 36 -71.5 60t-72.5 24q-34 0 -57.5 -24.5t-23.5 -59.5zM754 735q33 -34 72 -57t71 -23q34 0 58 24t24 56q0 35 -24 59.5t-58 24.5q-33 0 -72 -23.5t-71 -60.5z" />
    </font>
</defs>
</svg>
