<?xml version="1.0" standalone="no"?>
<!DOCTYPE svg PUBLIC "-//W3C//DTD SVG 1.1//EN" "http://www.w3.org/Graphics/SVG/1.1/DTD/svg11.dtd" >
<svg xmlns="http://www.w3.org/2000/svg" xmlns:xlink="http://www.w3.org/1999/xlink" version="1.1">
<metadata>
Created by FontForge 20201107 at Fri Dec 12 14:10:27 2025
 By 
copyright missing
</metadata>
<defs>
<font id="Polin-Regular" horiz-adv-x="1339" >
  <font-face 
    font-family="Polin"
    font-weight="400"
    font-stretch="normal"
    units-per-em="2048"
    panose-1="0 0 0 0 0 0 0 0 0 0"
    ascent="1638"
    descent="-410"
    x-height="1090"
    cap-height="1434"
    bbox="-152 -528 2306 2265"
    underline-thickness="102"
    underline-position="-255"
    unicode-range="U+0020-FB4B"
  />
<missing-glyph horiz-adv-x="1024" 
d="M840 1638v-2048h-650v2048h650zM342 -268h340v67h-209l143 97h66v67h-340v-67h143l-143 -97v-67zM342 10h340v232h-340v-232zM342 365h340v231h-205v-115h70v47h67v-96h-204v164h-68v-231zM342 641h340v205h-68v-135h-272v-70zM342 758h205v143h135v68h-340v-68h135v-76
h-135v-67zM342 1024h340v70h-135v143h-205v-213zM342 1290h340v68h-135v76h135v67h-338v-67h133v-76h-135v-68zM410 78v96h204v-96h-204zM410 1094v73h67v-73h-67z" />
    <glyph glyph-name="fi" unicode="fi" horiz-adv-x="1114" 
d="M219 0v930h-188v160h188v153q0 150 81 231.5t218 81.5h115v-159h-109q-66 0 -102.5 -41t-36.5 -117v-149h248v-160h-248v-930h-166zM774 1409q0 44 31.5 76.5t75.5 32.5t76 -32.5t32 -76.5t-32 -75t-76 -31t-75.5 31t-31.5 75zM801 0v1090h166v-1090h-166z" />
    <glyph glyph-name="fl" unicode="fl" horiz-adv-x="1114" 
d="M219 0v930h-188v160h188v153q0 150 81 231.5t218 81.5h115v-159h-109q-66 0 -102.5 -41t-36.5 -117v-149h248v-160h-248v-930h-166zM801 0v1556h166v-1556h-166z" />
    <glyph glyph-name=".notdef" horiz-adv-x="1024" 
d="M840 1638v-2048h-650v2048h650zM342 -268h340v67h-209l143 97h66v67h-340v-67h143l-143 -97v-67zM342 10h340v232h-340v-232zM342 365h340v231h-205v-115h70v47h67v-96h-204v164h-68v-231zM342 641h340v205h-68v-135h-272v-70zM342 758h205v143h135v68h-340v-68h135v-76
h-135v-67zM342 1024h340v70h-135v143h-205v-213zM342 1290h340v68h-135v76h135v67h-338v-67h133v-76h-135v-68zM410 78v96h204v-96h-204zM410 1094v73h67v-73h-67z" />
    <glyph glyph-name=".null" horiz-adv-x="0" 
 />
    <glyph glyph-name="nonmarkingreturn" horiz-adv-x="682" 
 />
    <glyph glyph-name="space" unicode=" " horiz-adv-x="466" 
 />
    <glyph glyph-name="exclam" unicode="!" horiz-adv-x="366" 
d="M109 397l-11 1037h170l-10 -1037h-149zM61 100q0 51 35.5 87t85.5 36q51 0 87 -36t36 -87q0 -50 -36 -85t-87 -35q-50 0 -85.5 35.5t-35.5 84.5z" />
    <glyph glyph-name="quotedbl" unicode="&#x22;" horiz-adv-x="620" 
d="M88 924l-14 510h166l-15 -510h-137zM381 1434h166l-15 -510h-137z" />
    <glyph glyph-name="numbersign" unicode="#" horiz-adv-x="1325" 
d="M752 0l55 393h-385l-57 -393h-154l57 393h-227l20 146h230l51 356h-229l22 145h227l58 394h153l-55 -394h385l58 394h153l-57 -394h227l-20 -145h-230l-49 -356h227l-22 -146h-227l-58 -393h-153zM444 539h385l52 356h-385z" />
    <glyph glyph-name="dollar" unicode="$" horiz-adv-x="1331" 
d="M684 -20h-8l-17 -185h-153l16 197q-205 34 -317.5 153.5t-126.5 298.5h170q9 -114 80.5 -190.5t208.5 -101.5l45 516q-110 17 -190.5 45t-143 73.5t-94 113.5t-31.5 159q0 178 145 286.5t375 108.5h6l17 184h153l-16 -198q185 -34 293.5 -146t120.5 -280h-168
q-9 103 -77 171t-184 95l-40 -471q255 -38 377 -136t122 -280q0 -188 -147 -300.5t-416 -112.5zM293 1059q0 -95 72.5 -148t228.5 -80l41 463q-156 -2 -249 -63.5t-93 -171.5zM688 139q197 1 294 68t97 178q0 112 -81.5 172t-264.5 90z" />
    <glyph glyph-name="percent" unicode="%" horiz-adv-x="1642" 
d="M211 0l1036 1434h187l-1037 -1434h-186zM84 1130q0 134 95 229t229 95q135 0 229 -95t94 -229q0 -135 -94 -230t-229 -95q-134 0 -229 95t-95 230zM231 1130q0 -74 52 -126t125 -52q74 0 126 52t52 126q0 72 -52.5 124.5t-125.5 52.5t-125 -52.5t-52 -124.5zM911 303
q0 135 95 230.5t229 95.5t229 -95.5t95 -230.5q0 -133 -95 -228t-229 -95t-229 95t-95 228zM1059 303q0 -72 51.5 -124t124.5 -52t125.5 52t52.5 124q0 73 -52.5 125.5t-125.5 52.5t-124.5 -52t-51.5 -126z" />
    <glyph glyph-name="ampersand" unicode="&#x26;" horiz-adv-x="1439" 
d="M586 -20q-237 0 -375.5 110t-138.5 285q0 145 96 249.5t260 161.5q-69 76 -108 153t-39 169q0 146 107.5 246t281.5 100q170 0 274.5 -96.5t104.5 -241.5q0 -264 -349 -387l357 -364q139 180 151 413h160q-18 -304 -205 -520l252 -258h-213l-147 150q-217 -170 -469 -170
zM236 391q0 -119 100 -189.5t250 -70.5q204 0 362 127l-418 424q-134 -40 -214 -114.5t-80 -176.5zM444 1102q0 -67 37 -126.5t117 -139.5q156 54 223.5 118t67.5 146q0 87 -58.5 145t-160.5 58t-164 -59.5t-62 -141.5z" />
    <glyph glyph-name="quotesingle" unicode="'" horiz-adv-x="313" 
d="M88 924l-14 510h166l-15 -510h-137z" />
    <glyph glyph-name="parenleft" unicode="(" horiz-adv-x="638" 
d="M432 -287q-137 199 -213 427t-76 526t76 525.5t213 426.5h166q-138 -207 -213.5 -436.5t-75.5 -515.5t75.5 -516t213.5 -437h-166z" />
    <glyph glyph-name="parenright" unicode=")" horiz-adv-x="638" 
d="M41 -287q138 207 213.5 437t75.5 516t-75.5 515.5t-213.5 436.5h166q137 -199 213 -426.5t76 -525.5t-76 -526t-213 -427h-166z" />
    <glyph glyph-name="asterisk" unicode="*" horiz-adv-x="823" 
d="M467 748l-88 288l-217 -205l-82 103l246 172l-265 143l72 109l240 -178l55 295l127 -35l-98 -285l299 37l6 -129l-299 6l125 -272z" />
    <glyph glyph-name="plus" unicode="+" horiz-adv-x="1181" 
d="M510 184v469h-469v160h469v469h160v-469h471v-160h-471v-469h-160z" />
    <glyph glyph-name="comma" unicode="," horiz-adv-x="366" 
d="M43 -207l78 434h178l-119 -434h-137z" />
    <glyph glyph-name="hyphen" unicode="-" horiz-adv-x="765" 
d="M61 561v160h644v-160h-644z" />
    <glyph glyph-name="period" unicode="." horiz-adv-x="366" 
d="M182 -20q-50 0 -85.5 35.5t-35.5 84.5q0 51 35.5 87t85.5 36q51 0 87 -36t36 -87q0 -50 -36 -85t-87 -35z" />
    <glyph glyph-name="slash" unicode="/" horiz-adv-x="823" 
d="M0 -287l655 1905h168l-655 -1905h-168z" />
    <glyph glyph-name="zero" unicode="0" horiz-adv-x="1302" 
d="M651 -20q-235 0 -373.5 150t-138.5 392v389q0 242 138.5 392.5t373.5 150.5t373.5 -150.5t138.5 -392.5v-389q0 -242 -138.5 -392t-373.5 -150zM309 522q0 -173 91.5 -276t250.5 -103t250.5 103t91.5 276v389q0 173 -91.5 276t-250.5 103t-250.5 -103t-91.5 -276v-389z
" />
    <glyph glyph-name="one" unicode="1" horiz-adv-x="833" 
d="M385 0l-2 1231l-277 -123v168l445 178v-1454h-166z" />
    <glyph glyph-name="two" unicode="2" horiz-adv-x="1185" 
d="M645 621q84 89 127.5 143.5t74 121.5t30.5 136q0 119 -75.5 193.5t-209.5 74.5q-132 0 -218.5 -84.5t-86.5 -216.5h-170q0 203 134 334t343 131q204 0 328.5 -118t124.5 -314q0 -128 -62.5 -237.5t-206.5 -260.5l-358 -364h657v-160h-1011z" />
    <glyph glyph-name="three" unicode="3" horiz-adv-x="1148" 
d="M563 -20q-216 0 -355.5 124.5t-139.5 317.5h170q0 -122 92.5 -200.5t232.5 -78.5q142 0 237 70t95 188q0 127 -101 199t-249 72h-113v151h113q131 0 218 66t87 172t-75.5 168.5t-211.5 62.5q-138 0 -221.5 -74t-83.5 -188h-170q0 178 131 302t344 124q209 0 333 -108
t124 -277q0 -117 -64 -197.5t-170 -121.5q129 -42 204 -135t75 -234q0 -180 -142.5 -291.5t-359.5 -111.5z" />
    <glyph glyph-name="four" unicode="4" horiz-adv-x="1202" 
d="M59 303l613 1131h180l-522 -971h479v401h166v-401h225v-160h-225v-303h-166v303h-750z" />
    <glyph glyph-name="five" unicode="5" horiz-adv-x="1159" 
d="M596 -20q-130 0 -239.5 56t-175.5 159.5t-66 232.5h170q0 -126 90.5 -205.5t220.5 -79.5q133 0 222 90.5t89 223.5q0 135 -91.5 227t-227.5 92q-108 0 -190 -38.5t-130 -96.5h-135l84 793h791v-160h-650l-49 -445q124 97 305 97q199 0 331 -131t132 -336
q0 -207 -137 -343t-344 -136z" />
    <glyph glyph-name="six" unicode="6" horiz-adv-x="1138" 
d="M569 -20q-205 0 -345 138t-140 341q0 88 28 167.5t93 178.5l405 629h195l-363 -560q84 31 172 32t166.5 -28.5t140 -84t98 -141.5t36.5 -193q0 -205 -138 -342t-348 -137zM254 459q0 -128 95 -222t220 -94q132 0 224 93t92 223t-92 223.5t-224 93.5q-130 0 -222.5 -93
t-92.5 -224z" />
    <glyph glyph-name="seven" unicode="7" horiz-adv-x="993" 
d="M250 0l489 1274h-719v160h957l-549 -1434h-178z" />
    <glyph glyph-name="eight" unicode="8" horiz-adv-x="1177" 
d="M590 -20q-140 0 -255 50t-183 144t-68 213q0 136 77 228.5t206 132.5q-108 42 -175 123.5t-67 201.5q0 166 132 273.5t333 107.5q199 0 331 -107.5t132 -273.5q0 -120 -67 -201.5t-175 -123.5q129 -40 206 -132.5t77 -228.5q0 -119 -67.5 -213t-182 -144t-254.5 -50z
M254 399q0 -119 95.5 -191.5t240.5 -72.5q144 0 240 72.5t96 191.5q0 128 -95.5 200.5t-240.5 72.5q-146 0 -241 -72.5t-95 -200.5zM291 1061q0 -110 85.5 -175t213.5 -65q126 0 211.5 65t85.5 175q0 105 -83.5 171t-213.5 66q-131 0 -215 -66t-84 -171z" />
    <glyph glyph-name="nine" unicode="9" horiz-adv-x="1138" 
d="M569 1454q205 0 345.5 -138t140.5 -341q0 -88 -28 -167.5t-93 -178.5l-406 -629h-194l362 559q-84 -31 -172 -32t-166 29t-140 84.5t-98 141.5t-36 193q0 205 137.5 342t347.5 137zM254 975q0 -130 91.5 -224t223.5 -94q130 0 223 93.5t93 224.5q0 128 -95 221.5
t-221 93.5q-132 0 -223.5 -92.5t-91.5 -222.5z" />
    <glyph glyph-name="colon" unicode=":" horiz-adv-x="366" 
d="M182 868q-50 0 -85.5 36t-35.5 85q0 51 35.5 87t85.5 36q51 0 87 -36t36 -87q0 -50 -36 -85.5t-87 -35.5zM61 100q0 51 35.5 87t85.5 36q51 0 87 -36t36 -87q0 -50 -36 -85t-87 -35q-50 0 -85.5 35.5t-35.5 84.5z" />
    <glyph glyph-name="semicolon" unicode=";" horiz-adv-x="378" 
d="M43 -207l78 434h178l-119 -434h-137zM61 989q0 51 35.5 87t85.5 36q51 0 87 -36t36 -87q0 -50 -36 -85.5t-87 -35.5q-50 0 -85.5 36t-35.5 85z" />
    <glyph glyph-name="less" unicode="&#x3c;" horiz-adv-x="1181" 
d="M1141 229l-1100 437v135l1100 475v-174l-842 -365l842 -334v-174z" />
    <glyph glyph-name="equal" unicode="=" horiz-adv-x="1181" 
d="M41 449v159h1100v-159h-1100zM41 858v160h1100v-160h-1100z" />
    <glyph glyph-name="greater" unicode="&#x3e;" horiz-adv-x="1181" 
d="M41 229v174l842 334l-842 365v174l1100 -475v-135z" />
    <glyph glyph-name="question" unicode="?" horiz-adv-x="991" 
d="M416 397q0 74 20 137t52.5 107t71.5 82.5t78 73.5t71.5 70.5t52.5 82.5t20 101q0 115 -72.5 179t-197.5 64q-134 0 -217.5 -74t-83.5 -196h-170q0 199 135 314.5t340 115.5q193 0 313.5 -104.5t120.5 -292.5q0 -72 -21 -133t-55 -104.5t-75 -82.5t-82.5 -75t-75.5 -73.5
t-55 -86.5t-21 -105h-149zM373 100q0 51 35.5 87t85.5 36q51 0 86.5 -36t35.5 -87q0 -50 -35.5 -85t-86.5 -35q-50 0 -85.5 35.5t-35.5 84.5z" />
    <glyph glyph-name="at" unicode="@" horiz-adv-x="1910" 
d="M885 -287q-152 0 -282.5 44.5t-224.5 122t-161 180.5t-100 220.5t-33 241.5q0 169 50 317.5t139 259.5t209 192t263.5 122t298.5 41q231 0 408.5 -90.5t276 -260t98.5 -392.5q0 -88 -14 -170.5t-45.5 -157t-77 -130t-112.5 -88t-148 -32.5q-102 0 -161.5 50t-74.5 143
q-116 -193 -322 -193q-154 0 -254 112.5t-100 305.5q0 124 54 231.5t156 174.5t230 67q196 0 273 -160l14 144h144l-54 -547q-11 -91 17 -141t96 -50q69 0 122 60.5t80 156t27 207.5q0 124 -33 226t-92 174t-140 121t-176.5 72.5t-203.5 23.5q-124 0 -240.5 -32t-218 -97.5
t-177.5 -157.5t-119.5 -220t-43.5 -276q0 -144 46.5 -267t130.5 -212.5t209.5 -140.5t277.5 -51q178 0 365 63v-143q-168 -64 -377 -64zM668 551q0 -126 65.5 -200.5t169.5 -74.5q133 0 216 97.5t83 234.5q0 121 -62 197t-169 76q-133 0 -218 -96.5t-85 -233.5z" />
    <glyph glyph-name="A" unicode="A" horiz-adv-x="1488" 
d="M8 0l737 1499l736 -1499h-187l-186 391h-729l-186 -391h-185zM451 539h585l-293 612z" />
    <glyph glyph-name="B" unicode="B" horiz-adv-x="1462" 
d="M168 0v1434h719q183 0 301.5 -102t118.5 -271q0 -104 -52 -180.5t-141 -116.5q121 -43 192.5 -135t71.5 -219q0 -119 -61 -213.5t-163.5 -145.5t-225.5 -51h-760zM334 160h586q118 0 203 71.5t85 184.5q0 111 -86.5 183.5t-208.5 72.5h-579v-512zM334 827h547
q107 0 181.5 62t74.5 164q0 104 -74 162.5t-184 58.5h-545v-447z" />
    <glyph glyph-name="C" unicode="C" horiz-adv-x="1622" 
d="M825 -20q-155 0 -293 58t-236 156.5t-155 234.5t-57 288t57 288t155 234.5t236 156.5t293 58q263 0 458.5 -156t254.5 -401h-174q-58 176 -203 284.5t-336 108.5q-160 0 -291.5 -77t-205.5 -208t-74 -288q0 -158 74 -289.5t205.5 -208t291.5 -76.5q191 0 335.5 109
t201.5 285h176q-59 -245 -254.5 -401t-458.5 -156z" />
    <glyph glyph-name="D" unicode="D" horiz-adv-x="1521" 
d="M733 0h-565v1434h565q201 0 363 -96t252 -260t90 -361t-90 -361t-252 -260t-363 -96zM334 160h399q148 0 271.5 71.5t195.5 199.5t72 286t-72 286t-195.5 199.5t-271.5 71.5h-399v-1114z" />
    <glyph glyph-name="E" unicode="E" horiz-adv-x="1265" 
d="M168 0v1434h1003v-160h-837v-461h776v-160h-776v-493h858v-160h-1024z" />
    <glyph glyph-name="F" unicode="F" horiz-adv-x="1224" 
d="M168 0v1434h995v-160h-829v-461h788v-160h-788v-653h-166z" />
    <glyph glyph-name="G" unicode="G" horiz-adv-x="1640" 
d="M825 -20q-155 0 -293 58t-236 156.5t-155 234.5t-57 288t57 288t155 234.5t236 156.5t293 58q235 0 419 -125t267 -332h-192q-65 135 -195.5 214t-298.5 79q-160 0 -291.5 -77t-205.5 -208t-74 -288q0 -158 74 -289.5t205.5 -208t291.5 -76.5q211 0 359 125t184 324h-555
v160h743v-29q0 -209 -94 -379t-261.5 -267t-375.5 -97z" />
    <glyph glyph-name="H" unicode="H" horiz-adv-x="1515" 
d="M168 0v1434h166v-586h848v586h166v-1434h-166v688h-848v-688h-166z" />
    <glyph glyph-name="I" unicode="I" horiz-adv-x="499" 
d="M168 0v1434h166v-1434h-166z" />
    <glyph glyph-name="J" unicode="J" horiz-adv-x="1054" 
d="M481 -20q-181 0 -301.5 123.5t-120.5 308.5h166q0 -119 72.5 -194t183.5 -75q113 0 185.5 75t72.5 194v1022h166v-1022q0 -185 -121.5 -308.5t-302.5 -123.5z" />
    <glyph glyph-name="K" unicode="K" horiz-adv-x="1341" 
d="M1126 0l-706 733l686 701h203l-680 -695l712 -739h-215zM168 0v1434h166v-1434h-166z" />
    <glyph glyph-name="L" unicode="L" horiz-adv-x="1138" 
d="M168 0v1434h166v-1274h776v-160h-942z" />
    <glyph glyph-name="M" unicode="M" horiz-adv-x="1781" 
d="M168 0v1475l733 -828l713 828v-1475h-166v1075l-547 -667l-567 667v-1075h-166z" />
    <glyph glyph-name="N" unicode="N" horiz-adv-x="1536" 
d="M1368 -53l-1034 1138v-1085h-166v1487l1034 -1139v1086h166v-1487z" />
    <glyph glyph-name="O" unicode="O" horiz-adv-x="1648" 
d="M825 -20q-155 0 -293 58t-236 156.5t-155 234.5t-57 288t57 288t155 234.5t236 156.5t293 58t293 -58t235.5 -156.5t154.5 -234.5t57 -288t-57 -288t-154.5 -234.5t-235.5 -156.5t-293 -58zM254 717q0 -158 74 -289.5t205.5 -208t291.5 -76.5q159 0 290 76.5t205.5 208
t74.5 289.5q0 117 -44 223t-119 183t-181.5 122t-225.5 45q-160 0 -291.5 -77t-205.5 -208t-74 -288z" />
    <glyph glyph-name="P" unicode="P" horiz-adv-x="1337" 
d="M168 0v1434h655q125 0 229 -57.5t165 -160.5t61 -229q0 -192 -132 -320t-323 -128h-489v-539h-166zM334 698h481q121 0 204 83t83 206q0 122 -83 204.5t-204 82.5h-481v-576z" />
    <glyph glyph-name="Q" unicode="Q" horiz-adv-x="1648" 
d="M825 -20q-155 0 -293 58t-236 156.5t-155 234.5t-57 288t57 288t155 234.5t236 156.5t293 58t293 -58t235.5 -156.5t154.5 -234.5t57 -288q0 -178 -75.5 -331.5t-209.5 -256.5l186 -252h-192l-127 172q-147 -69 -322 -69zM254 717q0 -158 74 -289.5t205.5 -208
t291.5 -76.5q118 0 219 43l-182 244h195l123 -166q101 79 158 197.5t57 255.5q0 117 -44 223t-119 183t-181.5 122t-225.5 45q-160 0 -291.5 -77t-205.5 -208t-74 -288z" />
    <glyph glyph-name="R" unicode="R" horiz-adv-x="1378" 
d="M1133 0l-312 539h-487v-539h-166v1434h655q125 0 229 -57.5t165 -160.5t61 -229q0 -147 -79.5 -259.5t-209.5 -160.5l326 -567h-182zM334 698h481q121 0 204 83t83 206q0 122 -83 204.5t-204 82.5h-481v-576z" />
    <glyph glyph-name="S" unicode="S" horiz-adv-x="1331" 
d="M684 -20q-280 0 -434 125.5t-172 338.5h170q11 -141 116.5 -223t313.5 -82q202 0 301.5 66.5t99.5 179.5q0 123 -101 184.5t-333 89.5q-98 12 -175 30.5t-143.5 50t-110.5 74.5t-68.5 105t-24.5 140q0 178 145 286.5t375 108.5q254 0 406.5 -118.5t167.5 -321.5h-168
q-12 133 -119 206.5t-285 73.5q-160 0 -256 -61.5t-96 -173.5q0 -107 93.5 -161.5t299.5 -80.5q287 -33 424 -132.5t137 -291.5q0 -188 -147 -300.5t-416 -112.5z" />
    <glyph glyph-name="T" unicode="T" horiz-adv-x="1212" 
d="M524 0v1274h-504v160h1172v-160h-502v-1274h-166z" />
    <glyph glyph-name="U" unicode="U" horiz-adv-x="1482" 
d="M741 -20q-259 0 -424 164.5t-165 430.5v859h165v-859q0 -192 114 -312t310 -120q195 0 309.5 120t114.5 312v859h166v-859q0 -266 -165.5 -430.5t-424.5 -164.5z" />
    <glyph glyph-name="V" unicode="V" horiz-adv-x="1382" 
d="M700 -63l-686 1497h187l504 -1133l485 1133h180z" />
    <glyph glyph-name="W" unicode="W" horiz-adv-x="1998" 
d="M549 -63l-526 1497h178l356 -1076l387 1076h109l385 -1076l358 1076h180l-528 -1497l-451 1234z" />
    <glyph glyph-name="X" unicode="X" horiz-adv-x="1349" 
d="M29 0l540 735l-528 699h201l442 -580l424 580h195l-523 -711l549 -723h-201l-460 604l-445 -604h-194z" />
    <glyph glyph-name="Y" unicode="Y" horiz-adv-x="1314" 
d="M586 0v518l-570 916h191l465 -746l444 746h182l-546 -912v-522h-166z" />
    <glyph glyph-name="Z" unicode="Z" horiz-adv-x="1232" 
d="M29 0l872 1274h-819v160h1122l-872 -1274h870v-160h-1173z" />
    <glyph glyph-name="bracketleft" unicode="[" horiz-adv-x="618" 
d="M168 -283v1901h418v-160h-252v-1581h252v-160h-418z" />
    <glyph glyph-name="backslash" unicode="\" horiz-adv-x="823" 
d="M823 -287h-168l-655 1905h168z" />
    <glyph glyph-name="bracketright" unicode="]" horiz-adv-x="618" 
d="M33 -283v160h252v1581h-252v160h418v-1901h-418z" />
    <glyph glyph-name="asciicircum" unicode="^" horiz-adv-x="960" 
d="M20 717l394 717h133l393 -717h-195l-264 522l-266 -522h-195z" />
    <glyph glyph-name="underscore" unicode="_" horiz-adv-x="643" 
d="M0 -160v160h643v-160h-643z" />
    <glyph glyph-name="grave" unicode="`" horiz-adv-x="356" 
d="M356 1241h-133l-223 340h190z" />
    <glyph glyph-name="a" unicode="a" 
d="M618 -20q-150 0 -276 75t-199 205t-73 285t73 285t199 205t276 75q135 0 243 -64t171 -174v218h160v-1090h-160v217q-63 -110 -171 -173.5t-243 -63.5zM240 545q0 -169 115.5 -285.5t281.5 -116.5q167 0 282 117t115 285q0 169 -115 285t-282 116q-166 0 -281.5 -116.5
t-115.5 -284.5z" />
    <glyph glyph-name="b" unicode="b" 
d="M313 881q61 105 168.5 167t239.5 62q150 0 276.5 -75t199.5 -205t73 -285t-73 -285t-199.5 -205t-276.5 -75q-135 0 -243 63.5t-171 173.5v-217h-160v1556h166v-675zM305 545q0 -168 115 -285t282 -117q166 0 282 117t116 285t-116 284.5t-282 116.5q-167 0 -282 -116
t-115 -285z" />
    <glyph glyph-name="c" unicode="c" horiz-adv-x="1236" 
d="M637 -20q-157 0 -287.5 75.5t-205 205.5t-74.5 284t74.5 284t205 205.5t287.5 75.5q201 0 352 -120t193 -306h-176q-37 116 -139 189t-230 73q-165 0 -281 -117.5t-116 -283.5t116 -284t281 -118q128 0 230 74t139 189h176q-42 -185 -193.5 -305.5t-351.5 -120.5z" />
    <glyph glyph-name="d" unicode="d" 
d="M1026 1556h166v-1556h-160v217q-63 -110 -171 -173.5t-243 -63.5q-150 0 -276 75t-199 205t-73 285t73 285t199 205t276 75q132 0 239.5 -62t168.5 -167v675zM240 545q0 -169 115.5 -285.5t281.5 -116.5q167 0 282 117t115 285q0 169 -115 285t-282 116
q-166 0 -281.5 -116.5t-115.5 -284.5z" />
    <glyph glyph-name="e" unicode="e" horiz-adv-x="1245" 
d="M631 -20q-157 0 -286 75.5t-202 205t-73 284.5t71 284.5t199 205t287 75.5q240 0 394.5 -152.5t154.5 -379.5q0 -34 -9 -72h-929q14 -156 124 -261.5t269 -105.5q212 0 330 174h182q-66 -151 -202 -242t-310 -91zM248 653h753q-25 135 -125 219t-249 84
q-145 0 -246.5 -83t-132.5 -220z" />
    <glyph glyph-name="f" unicode="f" horiz-adv-x="653" 
d="M219 0v930h-188v160h188v153q0 150 81 231.5t218 81.5h115v-159h-109q-66 0 -102.5 -41t-36.5 -117v-149h248v-160h-248v-930h-166z" />
    <glyph glyph-name="g" unicode="g" 
d="M639 -430q-181 0 -320.5 91t-205.5 235h184q47 -77 135.5 -124.5t206.5 -47.5q175 0 284 114t109 281v123q-63 -110 -171 -174t-243 -64q-152 0 -278.5 74.5t-198 201.5t-71.5 277t71.5 277t198 201.5t278.5 74.5q135 0 243 -63.5t171 -172.5v216h160v-971
q0 -237 -157.5 -393t-395.5 -156zM240 557q0 -167 115 -278t282 -111q168 0 282.5 111.5t114.5 277.5q0 168 -114.5 278.5t-282.5 110.5q-167 0 -282 -111t-115 -278z" />
    <glyph glyph-name="h" unicode="h" horiz-adv-x="1286" 
d="M147 0v1556h166v-661q52 101 147.5 158t223.5 57q211 0 333 -138t122 -351v-621h-166v600q0 152 -89 249t-231 97t-241 -98.5t-99 -247.5v-600h-166z" />
    <glyph glyph-name="i" unicode="i" horiz-adv-x="458" 
d="M147 0v1090h166v-1090h-166zM121 1409q0 45 31 77t75 32t76.5 -32.5t32.5 -76.5t-32 -75t-77 -31q-44 0 -75 31t-31 75z" />
    <glyph glyph-name="j" unicode="j" horiz-adv-x="458" 
d="M-27 -410v160h33q68 0 104.5 41t36.5 117v1182h166v-1186q0 -151 -81.5 -232.5t-219.5 -81.5h-39zM121 1409q0 45 31 77t75 32t76.5 -32.5t32.5 -76.5t-32 -75t-77 -31q-44 0 -75 31t-31 75z" />
    <glyph glyph-name="k" unicode="k" horiz-adv-x="1091" 
d="M879 0l-508 573l491 517h197l-492 -506l514 -584h-202zM147 0v1556h166v-1556h-166z" />
    <glyph glyph-name="l" unicode="l" horiz-adv-x="458" 
d="M147 0v1556h166v-1556h-166z" />
    <glyph glyph-name="m" unicode="m" horiz-adv-x="1880" 
d="M147 0v1090h160v-160q47 86 129.5 133t186.5 47q120 0 215 -62t141 -171q46 108 140 170.5t214 62.5q169 0 284.5 -118.5t115.5 -299.5v-692h-166v651q0 132 -79 213.5t-190 81.5q-112 0 -194 -80.5t-82 -206.5v-659h-166v651q0 136 -77.5 215.5t-188.5 79.5
q-115 0 -196 -80t-81 -215v-651h-166z" />
    <glyph glyph-name="n" unicode="n" horiz-adv-x="1286" 
d="M147 0v1090h160v-203q52 104 149.5 163.5t227.5 59.5q211 0 333 -138t122 -351v-621h-166v600q0 152 -89 249t-231 97t-241 -98.5t-99 -247.5v-600h-166z" />
    <glyph glyph-name="o" unicode="o" horiz-adv-x="1273" 
d="M637 -20q-157 0 -287.5 75.5t-205 205.5t-74.5 284t74.5 284t205 205.5t287.5 75.5t287.5 -75.5t205 -205.5t74.5 -284t-74.5 -284t-205 -205.5t-287.5 -75.5zM240 545q0 -166 116 -284t281 -118t281 118t116 284t-116 283.5t-281 117.5t-281 -117.5t-116 -283.5z" />
    <glyph glyph-name="p" unicode="p" 
d="M147 -410v1500h160v-218q62 110 170 174t244 64q149 0 275.5 -75t200 -205t73.5 -285t-73.5 -285t-200 -205t-275.5 -75q-133 0 -239.5 61.5t-168.5 167.5v-619h-166zM303 545q0 -167 115.5 -284.5t281.5 -117.5t283 117t117 285t-117 284.5t-283 116.5t-281.5 -116.5
t-115.5 -284.5z" />
    <glyph glyph-name="q" unicode="q" 
d="M1192 -410h-166v619q-62 -106 -168.5 -167.5t-239.5 -61.5q-149 0 -275 75t-199.5 205t-73.5 285t73.5 285t199.5 205t275 75q136 0 244 -64t170 -174v218h160v-1500zM240 545q0 -168 116.5 -285t282.5 -117t281.5 117.5t115.5 284.5q0 168 -115.5 284.5t-281.5 116.5
t-282.5 -116.5t-116.5 -284.5z" />
    <glyph glyph-name="r" unicode="r" horiz-adv-x="673" 
d="M147 0v1090h160v-240q40 130 126.5 196t205.5 60v-211q-136 28 -231 -52t-95 -261v-582h-166z" />
    <glyph glyph-name="s" unicode="s" horiz-adv-x="1058" 
d="M543 -20q-206 0 -331 100.5t-136 271.5h170q6 -103 83 -164t212 -61q136 0 206 44.5t70 123.5q0 37 -15.5 65.5t-40 47t-67.5 33t-85.5 23t-106.5 17.5q-195 27 -298.5 100t-103.5 216q0 145 116.5 229t307.5 84q174 0 296.5 -90t135.5 -252h-170q-9 92 -77.5 143.5
t-184.5 51.5q-125 0 -191.5 -41t-66.5 -113q0 -36 15 -62.5t38 -44t65.5 -31.5t83 -22t105.5 -18q74 -12 129.5 -26t111 -39t90.5 -59.5t57 -87t22 -120.5q0 -144 -122 -231.5t-318 -87.5z" />
    <glyph glyph-name="t" unicode="t" horiz-adv-x="663" 
d="M522 0q-150 0 -236.5 88.5t-86.5 255.5v586h-189v160h189v225l166 53v-278h268v-160h-268v-582q0 -93 42 -140.5t121 -47.5h105v-160h-111z" />
    <glyph glyph-name="u" unicode="u" horiz-adv-x="1228" 
d="M614 -20q-207 0 -344 140t-137 353v617h166v-621q0 -143 87 -234.5t228 -91.5q140 0 228 92t88 234v621h166v-617q0 -213 -137.5 -353t-344.5 -140z" />
    <glyph glyph-name="v" unicode="v" horiz-adv-x="1134" 
d="M487 0l-464 1090h184l366 -891l361 891h180l-457 -1090h-170z" />
    <glyph glyph-name="w" unicode="w" horiz-adv-x="1669" 
d="M360 0l-337 1090h178l254 -887l293 887h176l295 -887l254 887h176l-338 -1090h-176l-299 889l-299 -889h-177z" />
    <glyph glyph-name="x" unicode="x" horiz-adv-x="1140" 
d="M35 0l430 557l-426 533h197l335 -416l330 416h197l-432 -539l442 -551h-199l-348 432l-332 -432h-194z" />
    <glyph glyph-name="y" unicode="y" horiz-adv-x="1120" 
d="M248 -410l229 504l-469 996h185l374 -807l355 807h178l-670 -1500h-182z" />
    <glyph glyph-name="z" unicode="z" horiz-adv-x="1060" 
d="M39 0l672 930h-627v160h928l-672 -930h668v-160h-969z" />
    <glyph glyph-name="braceleft" unicode="{" horiz-adv-x="638" 
d="M535 -287q-152 0 -252.5 102t-100.5 255v381q0 67 -48.5 103t-133.5 36v166q86 0 134 38t48 115v353q0 153 100.5 254.5t252.5 101.5h71v-160h-71q-81 0 -134 -53.5t-53 -132.5v-363q0 -51 -12.5 -91.5t-35.5 -68.5t-42.5 -44t-46.5 -33q27 -17 46.5 -32.5t42.5 -42
t35.5 -63.5t12.5 -83v-392q0 -84 52 -135t135 -51h71v-160h-71z" />
    <glyph glyph-name="bar" unicode="|" horiz-adv-x="667" 
d="M252 -287v1905h166v-1905h-166z" />
    <glyph glyph-name="braceright" unicode="}" horiz-adv-x="638" 
d="M33 -287v160h71q81 0 134 51.5t53 134.5v392q0 46 12.5 83t35 63.5t42.5 42.5t47 32q-27 16 -47 32.5t-42.5 44.5t-35 68.5t-12.5 91.5v363q0 78 -54 132t-133 54h-71v160h71q152 0 252.5 -101.5t100.5 -254.5v-353q0 -77 48 -115t134 -38v-166q-85 0 -133.5 -36
t-48.5 -103v-381q0 -153 -100.5 -255t-252.5 -102h-71z" />
    <glyph glyph-name="asciitilde" unicode="~" horiz-adv-x="1181" 
d="M866 598q-63 0 -141 19.5t-139 43t-130 43t-116 19.5q-132 0 -135 -115h-164q4 125 85.5 200t197.5 75q78 0 178 -31.5t192.5 -62.5t151.5 -31q125 0 131 114h164q-6 -125 -84.5 -199.5t-190.5 -74.5z" />
    <glyph glyph-name="uni00A0" unicode="&#xa0;" horiz-adv-x="466" 
 />
    <glyph glyph-name="exclamdown" unicode="&#xa1;" horiz-adv-x="366" 
d="M98 -344l11 1036h149l10 -1036h-170zM61 989q0 49 35.5 85t85.5 36q51 0 87 -35.5t36 -85.5q0 -51 -36 -87t-87 -36q-50 0 -85.5 36t-35.5 87z" />
    <glyph glyph-name="cent" unicode="&#xa2;" horiz-adv-x="1236" 
d="M492 -205l16 199q-192 43 -315 196.5t-123 354.5q0 228 154 390.5t382 174.5l17 201h153l-18 -213q160 -34 274.5 -145.5t149.5 -268.5h-176q-29 90 -99.5 155.5t-163.5 92.5l-32 -365l-35 -422q115 10 205.5 82.5t124.5 178.5h176q-40 -179 -184 -299t-336 -127
l-17 -185h-153zM240 545q0 -135 79 -241.5t205 -143.5l35 407l33 377q-151 -17 -251.5 -131t-100.5 -268z" />
    <glyph glyph-name="sterling" unicode="&#xa3;" horiz-adv-x="1255" 
d="M104 135q92 106 130 207t38 219q0 7 -1 21.5t-1 21.5h-207v139h170q-19 58 -28 88t-19 82t-10 97q0 205 131.5 324.5t362.5 119.5q216 0 347.5 -134t131.5 -345h-168q0 140 -82 229.5t-229 89.5q-160 0 -242 -79t-82 -205q0 -45 10 -97t19 -82t28 -88h637v-139h-600
q0 -7 1 -21.5t1 -21.5q0 -114 -30 -200.5t-123 -200.5h880v-160h-1065v135z" />
    <glyph glyph-name="currency" unicode="&#xa4;" horiz-adv-x="1198" 
d="M600 281q-153 0 -274 94l-166 -168l-84 82l168 168q-94 115 -94 270q0 150 96 274l-176 177l82 79l176 -176q120 93 272 93q149 0 270 -91l168 168l82 -82l-166 -168q99 -124 99 -274q0 -152 -97 -274l172 -172l-81 -80l-173 172q-119 -92 -274 -92zM268 727
q0 -141 96 -236.5t236 -95.5q142 -1 238 95t96 237t-96 236.5t-238 95.5q-140 0 -236 -95.5t-96 -236.5z" />
    <glyph glyph-name="yen" unicode="&#xa5;" horiz-adv-x="1314" 
d="M221 506v110h303l-508 818h191l465 -746l444 746h182l-489 -818h285v-110h-342v-144h342v-108h-342v-254h-166v254h-365v108h365v144h-365z" />
    <glyph glyph-name="brokenbar" unicode="&#xa6;" horiz-adv-x="667" 
d="M252 739v879h166v-879h-166zM252 -287v879h166v-879h-166z" />
    <glyph glyph-name="section" unicode="&#xa7;" horiz-adv-x="1060" 
d="M541 -164q-210 0 -333.5 100.5t-131.5 272.5h170q2 -100 78.5 -162.5t214.5 -62.5q130 0 205 51t75 125q0 88 -102 128q-50 20 -205 46l-10 2q-71 12 -124 26t-109 39.5t-91.5 58t-58.5 83t-23 114.5q0 164 158 240q-158 76 -158 242q0 143 120.5 229t311.5 86
q115 0 211.5 -38.5t159.5 -119.5t68 -192h-170q-3 94 -76 148.5t-193 54.5q-122 0 -194 -45.5t-72 -116.5q0 -32 14.5 -56.5t41 -41t62.5 -28.5t79.5 -22t90.5 -19q25 -4 38 -7q36 -7 60 -12t60 -14t61 -18.5t56 -24t52 -30.5t43 -39t35 -48.5t21.5 -59.5t8.5 -72
q0 -162 -162 -241q162 -79 162 -254q0 -139 -126 -230.5t-318 -91.5zM262 674q0 -30 10.5 -55t33.5 -43.5t47 -31.5t65 -25.5t72 -19.5t83 -18q117 6 181.5 50.5t64.5 117.5q0 29 -10.5 52.5t-33 40.5t-46.5 29.5t-64 23t-71 17t-80 15.5q-118 -3 -185 -44t-67 -109z" />
    <glyph glyph-name="dieresis" unicode="&#xa8;" horiz-adv-x="632" 
d="M111 1303q-44 0 -75.5 31t-31.5 75t31.5 76.5t75.5 32.5t76 -32.5t32 -76.5t-32 -75t-76 -31zM416 1409q0 45 31 77t75 32t76.5 -32.5t32.5 -76.5t-32 -75t-77 -31q-44 0 -75 31t-31 75z" />
    <glyph glyph-name="copyright" unicode="&#xa9;" horiz-adv-x="1650" 
d="M825 -20q-158 0 -296.5 58t-235.5 156.5t-153 234.5t-56 288t56 288t153 234.5t235.5 156.5t296.5 58q211 0 381.5 -98.5t265.5 -267t95 -371.5t-95 -371.5t-265.5 -267t-381.5 -98.5zM158 717q0 -187 86 -339.5t238.5 -239.5t342.5 -87q189 0 342 87t238.5 239.5
t85.5 339.5q0 183 -85.5 335t-238.5 241t-342 89q-142 0 -266.5 -52.5t-212 -141.5t-138 -211.5t-50.5 -259.5zM406 717q0 176 123 299t302 123q150 0 264.5 -91t147.5 -229h-106q-36 98 -117.5 158.5t-188.5 60.5q-135 0 -228 -93t-93 -228t93 -229.5t228 -94.5
q108 0 189 60.5t117 160.5h106q-33 -139 -147.5 -230t-264.5 -91q-179 0 -302 124t-123 300z" />
    <glyph glyph-name="guillemotleft" unicode="&#xab;" horiz-adv-x="1116" 
d="M889 0l-434 545l434 545h196l-434 -545l434 -545h-196zM31 545l434 545h197l-435 -545l435 -545h-197z" />
    <glyph glyph-name="logicalnot" unicode="&#xac;" horiz-adv-x="1181" 
d="M975 389v264h-934v160h1100v-424h-166z" />
    <glyph glyph-name="registered" unicode="&#xae;" horiz-adv-x="1650" 
d="M825 -20q-155 0 -293 58t-236 156.5t-155 234.5t-57 288t57 288t155 234.5t236 156.5t293 58t293.5 -58t236.5 -156.5t155 -234.5t57 -288t-57 -288t-155 -234.5t-236.5 -156.5t-293.5 -58zM158 717q0 -187 86 -339.5t238.5 -239.5t342.5 -87q189 0 342 87t238.5 239.5
t85.5 339.5q0 183 -85.5 335t-238.5 241t-342 89q-142 0 -266.5 -52.5t-212 -141.5t-138 -211.5t-50.5 -259.5zM537 309v819h383q104 0 179 -72t75 -177q0 -84 -51.5 -148t-131.5 -88l193 -334h-113l-184 322h-250v-322h-100zM637 729h278q66 0 110 43t44 107
q0 67 -43.5 109t-110.5 42h-278v-301z" />
    <glyph glyph-name="macron" unicode="&#xaf;" horiz-adv-x="636" 
d="M0 1319v133h629v-133h-629z" />
    <glyph glyph-name="degree" unicode="&#xb0;" horiz-adv-x="636" 
d="M317 887q-121 0 -203.5 81.5t-82.5 200.5t82.5 202t203.5 83q122 0 205.5 -83t83.5 -202t-83 -200.5t-206 -81.5zM150 1169q0 -68 49 -116.5t118 -48.5q70 0 120 48.5t50 116.5q0 69 -50 118.5t-120 49.5q-69 0 -118 -49.5t-49 -118.5z" />
    <glyph glyph-name="plusminus" unicode="&#xb1;" horiz-adv-x="1181" 
d="M512 281v469h-471v159h471v471h160v-471h469v-159h-469v-469h-160zM41 61v160h1100v-160h-1100z" />
    <glyph glyph-name="acute" unicode="&#xb4;" horiz-adv-x="356" 
d="M0 1241l166 340h190l-223 -340h-133z" />
    <glyph glyph-name="uni00B5" unicode="&#xb5;" horiz-adv-x="1265" 
d="M600 -20q-176 0 -287 108v-498h-166v1500h166v-609q0 -157 84 -247.5t221 -90.5q130 0 232 96.5t102 241.5v609h166v-1090h-160v195q-52 -100 -145 -157.5t-213 -57.5z" />
    <glyph glyph-name="paragraph" unicode="&#xb6;" horiz-adv-x="1378" 
d="M643 -205v778h-145q-183 0 -311 123t-128 308t128 307.5t311 122.5h712v-1639h-166v1479h-235v-1479h-166z" />
    <glyph glyph-name="periodcentered" unicode="&#xb7;" horiz-adv-x="366" 
d="M182 446q-50 0 -85.5 36t-35.5 85q0 51 35.5 87t85.5 36q51 0 87 -36t36 -87q0 -50 -36 -85.5t-87 -35.5z" />
    <glyph glyph-name="cedilla" unicode="&#xb8;" horiz-adv-x="886" 
d="M377 -430q-41 0 -79 5t-56 10l-17 5v97q132 -28 196 -15t64 60q0 40 -51.5 59.5t-161.5 20.5l29 266h100l-20 -162q248 -15 248 -168q0 -89 -69.5 -133.5t-182.5 -44.5z" />
    <glyph glyph-name="guillemotright" unicode="&#xbb;" horiz-adv-x="1116" 
d="M455 0l434 545l-434 545h196l434 -545l-434 -545h-196zM31 0l434 545l-434 545h196l435 -545l-435 -545h-196z" />
    <glyph glyph-name="onequarter" unicode="&#xbc;" horiz-adv-x="1939" 
d="M293 430l-2 834l-189 -84v139l330 129v-1018h-139zM494 0l655 1434h143l-655 -1434h-143zM1122 205l420 799h148l-351 -668h316v268h135v-268h147v-131h-147v-205h-135v205h-533z" />
    <glyph glyph-name="onehalf" unicode="&#xbd;" horiz-adv-x="1988" 
d="M293 430l-2 834l-189 -84v139l330 129v-1018h-139zM494 0l655 1434h143l-655 -1434h-143zM1184 0l418 453q77 81 112 137.5t35 120.5q0 76 -49 125t-137 49q-87 0 -143 -56t-56 -145h-143q0 144 96.5 240t249.5 96q149 0 237 -83.5t88 -221.5q0 -89 -42 -165t-138 -179
l-231 -238h434v-133h-731z" />
    <glyph glyph-name="threequarters" unicode="&#xbe;" horiz-adv-x="2111" 
d="M403 414q-156 0 -256.5 90.5t-101.5 232.5h141q1 -83 61.5 -135.5t153.5 -52.5t155 45.5t62 122.5q0 84 -66 130t-165 46h-74v119h74q87 0 143 42t56 113q0 67 -49.5 108.5t-137.5 41.5q-89 0 -144.5 -48.5t-55.5 -123.5h-144q3 127 97.5 217t248.5 90q152 0 240 -77
t88 -197q0 -79 -43 -135.5t-113 -86.5q88 -32 138.5 -97t50.5 -161q0 -126 -101.5 -205t-257.5 -79zM666 0l655 1434h143l-655 -1434h-143zM1294 205l420 799h148l-351 -668h316v268h135v-268h147v-131h-147v-205h-135v205h-533z" />
    <glyph glyph-name="questiondown" unicode="&#xbf;" horiz-adv-x="991" 
d="M475 -365q-193 0 -313.5 105t-120.5 293q0 72 21 133.5t55 105t75 82.5t82.5 75t75.5 73t55 85.5t21 104.5h152q0 -74 -20 -136.5t-52.5 -106t-72 -82.5t-78.5 -73.5t-71.5 -70t-52.5 -82t-20 -100.5q0 -116 71.5 -181t196.5 -65q135 0 219 75t84 196h168
q0 -133 -64 -232.5t-171 -149t-240 -49.5zM377 989q0 49 35.5 85t85.5 36q51 0 87 -35.5t36 -85.5q0 -51 -36 -87t-87 -36q-50 0 -85.5 36t-35.5 87z" />
    <glyph glyph-name="Agrave" unicode="&#xc0;" horiz-adv-x="1488" 
d="M8 0l737 1499l736 -1499h-187l-186 391h-729l-186 -391h-185zM451 539h585l-293 612zM483 1925h191l166 -340h-133z" />
    <glyph glyph-name="Aacute" unicode="&#xc1;" horiz-adv-x="1488" 
d="M8 0l737 1499l736 -1499h-187l-186 391h-729l-186 -391h-185zM451 539h585l-293 612zM657 1585l166 340h191l-223 -340h-134z" />
    <glyph glyph-name="Acircumflex" unicode="&#xc2;" horiz-adv-x="1488" 
d="M8 0l737 1499l736 -1499h-187l-186 391h-729l-186 -391h-185zM436 1567v151l303 199l303 -199v-151l-303 198zM451 539h585l-293 612z" />
    <glyph glyph-name="Atilde" unicode="&#xc3;" horiz-adv-x="1488" 
d="M8 0l737 1499l736 -1499h-187l-186 391h-729l-186 -391h-185zM399 1620q4 123 62.5 187.5t154.5 64.5q44 0 81 -21t58 -46.5t49 -46.5t56 -21q42 0 65 33.5t25 91.5h131q-4 -120 -61 -186t-152 -66q-44 0 -81.5 21t-59 45.5t-50 45.5t-56.5 21q-42 0 -64.5 -33t-24.5 -90
h-133zM451 539h585l-293 612z" />
    <glyph glyph-name="Adieresis" unicode="&#xc4;" horiz-adv-x="1488" 
d="M8 0l737 1499l736 -1499h-187l-186 391h-729l-186 -391h-185zM428 1753q0 44 31.5 76.5t75.5 32.5t76 -32.5t32 -76.5t-32 -75t-76 -31t-75.5 31t-31.5 75zM451 539h585l-293 612zM840 1753q0 45 31 77t75 32t76.5 -32.5t32.5 -76.5t-32 -75t-77 -31q-44 0 -75 31t-31 75
z" />
    <glyph glyph-name="Aring" unicode="&#xc5;" horiz-adv-x="1488" 
d="M8 0l697 1415q-82 11 -137.5 73t-55.5 146q0 91 64.5 156t156.5 65q91 0 155 -65t64 -156q0 -77 -47.5 -137.5t-120.5 -77.5l697 -1419h-187l-186 391h-729l-186 -391h-185zM451 539h585l-293 612zM618 1636q0 -50 33 -83t82 -33q48 0 81.5 33.5t33.5 82.5q0 46 -34 79.5
t-81 33.5q-49 0 -82 -33.5t-33 -79.5z" />
    <glyph glyph-name="AE" unicode="&#xc6;" horiz-adv-x="2146" 
d="M8 0l1071 1434h973v-160h-807v-461h746v-160h-746v-493h828v-160h-994v346h-610l-254 -346h-207zM582 500h497v676z" />
    <glyph glyph-name="Ccedilla" unicode="&#xc7;" horiz-adv-x="1622" 
d="M856 -430q-41 0 -78.5 5t-55.5 10l-17 5v97q132 -28 196 -15t64 60q0 40 -51.5 59.5t-161.5 20.5l18 170q-194 13 -351.5 114t-246 264.5t-88.5 356.5q0 152 57 288t155 234.5t236 156.5t293 58q263 0 458.5 -156t254.5 -401h-174q-58 176 -203 284.5t-336 108.5
q-160 0 -291.5 -77t-205.5 -208t-74 -288q0 -158 74 -289.5t205.5 -208t291.5 -76.5q191 0 335.5 109t201.5 285h176q-56 -235 -238.5 -388.5t-431.5 -166.5l-8 -66q248 -15 248 -168q0 -89 -69.5 -133.5t-182.5 -44.5z" />
    <glyph glyph-name="Egrave" unicode="&#xc8;" horiz-adv-x="1265" 
d="M168 0v1434h1003v-160h-837v-461h776v-160h-776v-493h858v-160h-1024zM438 1925h191l166 -340h-133z" />
    <glyph glyph-name="Eacute" unicode="&#xc9;" horiz-adv-x="1265" 
d="M168 0v1434h1003v-160h-837v-461h776v-160h-776v-493h858v-160h-1024zM610 1585l166 340h191l-224 -340h-133z" />
    <glyph glyph-name="Ecircumflex" unicode="&#xca;" horiz-adv-x="1265" 
d="M168 0v1434h1003v-160h-837v-461h776v-160h-776v-493h858v-160h-1024zM391 1567v151l303 199l303 -199v-151l-303 198z" />
    <glyph glyph-name="Edieresis" unicode="&#xcb;" horiz-adv-x="1265" 
d="M168 0v1434h1003v-160h-837v-461h776v-160h-776v-493h858v-160h-1024zM381 1753q0 45 31 77t75 32t76.5 -32.5t32.5 -76.5t-32 -75t-77 -31q-44 0 -75 31t-31 75zM795 1753q0 45 31 77t75 32t76.5 -32.5t32.5 -76.5t-32 -75t-77 -31q-44 0 -75 31t-31 75z" />
    <glyph glyph-name="Igrave" unicode="&#xcc;" horiz-adv-x="499" 
d="M168 0v1434h166v-1434h-166zM-6 1925h190l166 -340h-133z" />
    <glyph glyph-name="Iacute" unicode="&#xcd;" horiz-adv-x="499" 
d="M168 0v1434h166v-1434h-166zM168 1585l166 340h190l-223 -340h-133z" />
    <glyph glyph-name="Icircumflex" unicode="&#xce;" horiz-adv-x="499" 
d="M168 0v1434h166v-1434h-166zM-53 1567v151l303 199l303 -199v-151l-303 198z" />
    <glyph glyph-name="Idieresis" unicode="&#xcf;" horiz-adv-x="499" 
d="M168 0v1434h166v-1434h-166zM-63 1753q0 45 31 77t75 32t76.5 -32.5t32.5 -76.5t-32 -75t-77 -31q-44 0 -75 31t-31 75zM350 1753q0 44 31.5 76.5t75.5 32.5t76 -32.5t32 -76.5t-32 -75t-76 -31t-75.5 31t-31.5 75z" />
    <glyph glyph-name="Eth" unicode="&#xd0;" horiz-adv-x="1492" 
d="M12 682v133h156v619h565q201 0 363 -96t252 -260t90 -361t-90 -361t-252 -260t-363 -96h-565v682h-156zM334 160h399q148 0 271.5 71.5t195.5 199.5t72 286t-72 286t-195.5 199.5t-271.5 71.5h-399v-459h371v-133h-371v-522z" />
    <glyph glyph-name="Ntilde" unicode="&#xd1;" horiz-adv-x="1536" 
d="M1368 -53l-1034 1138v-1085h-166v1487l1034 -1139v1086h166v-1487zM442 1620q4 123 62.5 187.5t154.5 64.5q44 0 81 -21t58 -46.5t49 -46.5t56 -21q42 0 65 33.5t25 91.5h131q-4 -120 -61 -186t-152 -66q-44 0 -81.5 21t-59 45.5t-50 45.5t-56.5 21q-42 0 -64.5 -33
t-24.5 -90h-133z" />
    <glyph glyph-name="Ograve" unicode="&#xd2;" horiz-adv-x="1648" 
d="M825 -20q-155 0 -293 58t-236 156.5t-155 234.5t-57 288t57 288t155 234.5t236 156.5t293 58t293 -58t235.5 -156.5t154.5 -234.5t57 -288t-57 -288t-154.5 -234.5t-235.5 -156.5t-293 -58zM254 717q0 -158 74 -289.5t205.5 -208t291.5 -76.5q159 0 290 76.5t205.5 208
t74.5 289.5q0 117 -44 223t-119 183t-181.5 122t-225.5 45q-160 0 -291.5 -77t-205.5 -208t-74 -288zM569 1925h191l166 -340h-133z" />
    <glyph glyph-name="Oacute" unicode="&#xd3;" horiz-adv-x="1648" 
d="M825 -20q-155 0 -293 58t-236 156.5t-155 234.5t-57 288t57 288t155 234.5t236 156.5t293 58t293 -58t235.5 -156.5t154.5 -234.5t57 -288t-57 -288t-154.5 -234.5t-235.5 -156.5t-293 -58zM254 717q0 -158 74 -289.5t205.5 -208t291.5 -76.5q159 0 290 76.5t205.5 208
t74.5 289.5q0 117 -44 223t-119 183t-181.5 122t-225.5 45q-160 0 -291.5 -77t-205.5 -208t-74 -288zM741 1585l166 340h191l-224 -340h-133z" />
    <glyph glyph-name="Ocircumflex" unicode="&#xd4;" horiz-adv-x="1648" 
d="M825 -20q-155 0 -293 58t-236 156.5t-155 234.5t-57 288t57 288t155 234.5t236 156.5t293 58t293 -58t235.5 -156.5t154.5 -234.5t57 -288t-57 -288t-154.5 -234.5t-235.5 -156.5t-293 -58zM254 717q0 -158 74 -289.5t205.5 -208t291.5 -76.5q159 0 290 76.5t205.5 208
t74.5 289.5q0 117 -44 223t-119 183t-181.5 122t-225.5 45q-160 0 -291.5 -77t-205.5 -208t-74 -288zM522 1567v151l303 199l303 -199v-151l-303 198z" />
    <glyph glyph-name="Otilde" unicode="&#xd5;" horiz-adv-x="1648" 
d="M825 -20q-155 0 -293 58t-236 156.5t-155 234.5t-57 288t57 288t155 234.5t236 156.5t293 58t293 -58t235.5 -156.5t154.5 -234.5t57 -288t-57 -288t-154.5 -234.5t-235.5 -156.5t-293 -58zM254 717q0 -158 74 -289.5t205.5 -208t291.5 -76.5q159 0 290 76.5t205.5 208
t74.5 289.5q0 117 -44 223t-119 183t-181.5 122t-225.5 45q-160 0 -291.5 -77t-205.5 -208t-74 -288zM483 1620q4 123 62.5 187.5t154.5 64.5q44 0 81 -21t58 -46.5t49 -46.5t56 -21q42 0 65 33.5t25 91.5h131q-4 -120 -61 -186t-152 -66q-44 0 -81.5 21t-59 45.5t-50 45.5
t-56.5 21q-42 0 -64.5 -33t-24.5 -90h-133z" />
    <glyph glyph-name="Odieresis" unicode="&#xd6;" horiz-adv-x="1648" 
d="M825 -20q-155 0 -293 58t-236 156.5t-155 234.5t-57 288t57 288t155 234.5t236 156.5t293 58t293 -58t235.5 -156.5t154.5 -234.5t57 -288t-57 -288t-154.5 -234.5t-235.5 -156.5t-293 -58zM254 717q0 -158 74 -289.5t205.5 -208t291.5 -76.5q159 0 290 76.5t205.5 208
t74.5 289.5q0 117 -44 223t-119 183t-181.5 122t-225.5 45q-160 0 -291.5 -77t-205.5 -208t-74 -288zM512 1753q0 45 31 77t75 32t76.5 -32.5t32.5 -76.5t-32 -75t-77 -31q-44 0 -75 31t-31 75zM926 1753q0 45 31 77t75 32t76.5 -32.5t32.5 -76.5t-32 -75t-77 -31
q-44 0 -75 31t-31 75z" />
    <glyph glyph-name="multiply" unicode="&#xd7;" horiz-adv-x="1181" 
d="M164 193l-113 112l426 428l-426 426l113 113l426 -426l426 426l114 -113l-425 -426l425 -428l-112 -112l-428 428z" />
    <glyph glyph-name="Oslash" unicode="&#xd8;" horiz-adv-x="1648" 
d="M227 -16l-110 108l139 146q-172 204 -172 479q0 152 57 288t155 234.5t236 156.5t293 58q257 0 455 -149l139 145l111 -109l-139 -143q174 -202 174 -481q0 -152 -57 -288t-154.5 -234.5t-235.5 -156.5t-293 -58q-255 0 -456 151zM254 717q0 -204 121 -357l788 822
q-149 108 -338 108q-160 0 -291.5 -77t-205.5 -208t-74 -288zM485 252q151 -109 340 -109q159 0 290 76.5t205.5 208t74.5 289.5q0 202 -121 358z" />
    <glyph glyph-name="Ugrave" unicode="&#xd9;" horiz-adv-x="1482" 
d="M741 -20q-259 0 -424 164.5t-165 430.5v859h165v-859q0 -192 114 -312t310 -120q195 0 309.5 120t114.5 312v859h166v-859q0 -266 -165.5 -430.5t-424.5 -164.5zM485 1925h191l166 -340h-133z" />
    <glyph glyph-name="Uacute" unicode="&#xda;" horiz-adv-x="1482" 
d="M741 -20q-259 0 -424 164.5t-165 430.5v859h165v-859q0 -192 114 -312t310 -120q195 0 309.5 120t114.5 312v859h166v-859q0 -266 -165.5 -430.5t-424.5 -164.5zM657 1585l166 340h191l-223 -340h-134z" />
    <glyph glyph-name="Ucircumflex" unicode="&#xdb;" horiz-adv-x="1482" 
d="M741 -20q-259 0 -424 164.5t-165 430.5v859h165v-859q0 -192 114 -312t310 -120q195 0 309.5 120t114.5 312v859h166v-859q0 -266 -165.5 -430.5t-424.5 -164.5zM438 1567v151l303 199l303 -199v-151l-303 198z" />
    <glyph glyph-name="Udieresis" unicode="&#xdc;" horiz-adv-x="1482" 
d="M741 -20q-259 0 -424 164.5t-165 430.5v859h165v-859q0 -192 114 -312t310 -120q195 0 309.5 120t114.5 312v859h166v-859q0 -266 -165.5 -430.5t-424.5 -164.5zM428 1753q0 44 31.5 76.5t75.5 32.5t76 -32.5t32 -76.5t-32 -75t-76 -31t-75.5 31t-31.5 75zM842 1753
q0 45 31 77t75 32t76.5 -32.5t32.5 -76.5t-32 -75t-77 -31q-44 0 -75 31t-31 75z" />
    <glyph glyph-name="Yacute" unicode="&#xdd;" horiz-adv-x="1314" 
d="M586 0v518l-570 916h191l465 -746l444 746h182l-546 -912v-522h-166zM575 1585l166 340h191l-223 -340h-134z" />
    <glyph glyph-name="Thorn" unicode="&#xde;" horiz-adv-x="1384" 
d="M168 0v1434h166v-287h553q121 0 221 -55t158.5 -154t58.5 -221q0 -185 -127 -308.5t-311 -123.5h-553v-285h-166zM334 449h543q119 0 198.5 76.5t79.5 193.5q0 115 -79.5 191.5t-198.5 76.5h-543v-538z" />
    <glyph glyph-name="germandbls" unicode="&#xdf;" horiz-adv-x="1241" 
d="M190 1135q0 199 123 310t316 111q167 0 278 -93t111 -242q0 -61 -18.5 -111t-45 -83.5t-53 -64.5t-45 -68.5t-18.5 -80.5q0 -42 34.5 -80t83.5 -74t97.5 -79t83 -112t34.5 -155q0 -140 -102 -226.5t-268 -86.5h-213v152h213q90 0 144 45t54 112q0 45 -18.5 84t-47.5 68
t-65 56.5t-71.5 55.5t-64.5 59t-47.5 74.5t-18.5 94.5q0 52 18.5 96t45 76t53 63.5t45 74t18.5 93.5q0 86 -65.5 142.5t-164.5 56.5q-114 0 -187 -72.5t-73 -202.5v-1128h-166v930h-159v160h159v45z" />
    <glyph glyph-name="agrave" unicode="&#xe0;" 
d="M618 -20q-150 0 -276 75t-199 205t-73 285t73 285t199 205t276 75q135 0 243 -64t171 -174v218h160v-1090h-160v217q-63 -110 -171 -173.5t-243 -63.5zM240 545q0 -169 115.5 -285.5t281.5 -116.5q167 0 282 117t115 285q0 169 -115 285t-282 116q-166 0 -281.5 -116.5
t-115.5 -284.5zM393 1581h191l166 -340h-134z" />
    <glyph glyph-name="aacute" unicode="&#xe1;" 
d="M618 -20q-150 0 -276 75t-199 205t-73 285t73 285t199 205t276 75q135 0 243 -64t171 -174v218h160v-1090h-160v217q-63 -110 -171 -173.5t-243 -63.5zM240 545q0 -169 115.5 -285.5t281.5 -116.5q167 0 282 117t115 285q0 169 -115 285t-282 116q-166 0 -281.5 -116.5
t-115.5 -284.5zM565 1241l166 340h191l-224 -340h-133z" />
    <glyph glyph-name="acircumflex" unicode="&#xe2;" 
d="M618 -20q-150 0 -276 75t-199 205t-73 285t73 285t199 205t276 75q135 0 243 -64t171 -174v218h160v-1090h-160v217q-63 -110 -171 -173.5t-243 -63.5zM240 545q0 -169 115.5 -285.5t281.5 -116.5q167 0 282 117t115 285q0 169 -115 285t-282 116q-166 0 -281.5 -116.5
t-115.5 -284.5zM346 1223v151l303 199l303 -199v-151l-303 198z" />
    <glyph glyph-name="atilde" unicode="&#xe3;" 
d="M618 -20q-150 0 -276 75t-199 205t-73 285t73 285t199 205t276 75q135 0 243 -64t171 -174v218h160v-1090h-160v217q-63 -110 -171 -173.5t-243 -63.5zM240 545q0 -169 115.5 -285.5t281.5 -116.5q167 0 282 117t115 285q0 169 -115 285t-282 116q-166 0 -281.5 -116.5
t-115.5 -284.5zM307 1276q4 123 62.5 187.5t154.5 64.5q44 0 81 -21t58 -46.5t49 -46.5t56 -21q42 0 65 33.5t25 91.5h131q-4 -120 -61 -186t-152 -66q-44 0 -81.5 21t-59.5 45.5t-50.5 45.5t-56.5 21q-42 0 -64 -33t-24 -90h-133z" />
    <glyph glyph-name="adieresis" unicode="&#xe4;" 
d="M618 -20q-150 0 -276 75t-199 205t-73 285t73 285t199 205t276 75q135 0 243 -64t171 -174v218h160v-1090h-160v217q-63 -110 -171 -173.5t-243 -63.5zM240 545q0 -169 115.5 -285.5t281.5 -116.5q167 0 282 117t115 285q0 169 -115 285t-282 116q-166 0 -281.5 -116.5
t-115.5 -284.5zM336 1409q0 45 31 77t75 32t76.5 -32.5t32.5 -76.5t-32 -75t-77 -31q-44 0 -75 31t-31 75zM750 1409q0 45 31 77t75 32t76.5 -32.5t32.5 -76.5t-32 -75t-77 -31q-44 0 -75 31t-31 75z" />
    <glyph glyph-name="aring" unicode="&#xe5;" 
d="M618 -20q-150 0 -276 75t-199 205t-73 285t73 285t199 205t276 75q135 0 243 -64t171 -174v218h160v-1090h-160v217q-63 -110 -171 -173.5t-243 -63.5zM240 545q0 -169 115.5 -285.5t281.5 -116.5q167 0 282 117t115 285q0 169 -115 285t-282 116q-166 0 -281.5 -116.5
t-115.5 -284.5zM428 1413q0 91 64.5 156t156.5 65q91 0 155 -65t64 -156q0 -92 -64 -156.5t-155 -64.5q-92 0 -156.5 64.5t-64.5 156.5zM535 1415q0 -50 32.5 -83.5t81.5 -33.5q48 0 81.5 34t33.5 83q0 46 -34 79.5t-81 33.5q-49 0 -81.5 -33t-32.5 -80z" />
    <glyph glyph-name="ae" unicode="&#xe6;" horiz-adv-x="2224" 
d="M618 -20q-150 0 -276 75t-199 205t-73 285t73 285t199 205t276 75q135 0 243 -64t171 -174v218h160v-160q77 85 183 132.5t231 47.5q240 0 394 -152.5t154 -379.5q0 -39 -8 -72h-929q14 -156 124 -261.5t269 -105.5q211 0 329 174h183q-66 -151 -202 -242t-310 -91
q-125 0 -233 48.5t-185 135.5v-164h-160v217q-63 -110 -171 -173.5t-243 -63.5zM240 545q0 -169 115.5 -285.5t281.5 -116.5q167 0 282 117t115 285q0 169 -115 285t-282 116q-166 0 -281.5 -116.5t-115.5 -284.5zM1227 653h753q-25 135 -125 219t-249 84q-145 0 -246.5 -83
t-132.5 -220z" />
    <glyph glyph-name="ccedilla" unicode="&#xe7;" horiz-adv-x="1236" 
d="M662 -430q-41 0 -79 5t-55 10l-18 5v97q132 -28 196 -15t64 60q0 40 -51.5 59.5t-161.5 20.5l18 172q-217 22 -361 181.5t-144 379.5q0 154 74.5 284t205 205.5t287.5 75.5q201 0 352 -120t193 -306h-176q-37 116 -139 189t-230 73q-165 0 -281 -117.5t-116 -283.5
t116 -284t281 -118q128 0 230 74t139 189h176q-40 -176 -180 -295t-328 -129l-8 -66q247 -15 247 -168q0 -89 -69 -133.5t-182 -44.5z" />
    <glyph glyph-name="egrave" unicode="&#xe8;" horiz-adv-x="1245" 
d="M631 -20q-157 0 -286 75.5t-202 205t-73 284.5t71 284.5t199 205t287 75.5q240 0 394.5 -152.5t154.5 -379.5q0 -34 -9 -72h-929q14 -156 124 -261.5t269 -105.5q212 0 330 174h182q-66 -151 -202 -242t-310 -91zM248 653h753q-25 135 -125 219t-249 84
q-145 0 -246.5 -83t-132.5 -220zM369 1581h190l166 -340h-133z" />
    <glyph glyph-name="eacute" unicode="&#xe9;" horiz-adv-x="1245" 
d="M631 -20q-157 0 -286 75.5t-202 205t-73 284.5t71 284.5t199 205t287 75.5q240 0 394.5 -152.5t154.5 -379.5q0 -34 -9 -72h-929q14 -156 124 -261.5t269 -105.5q212 0 330 174h182q-66 -151 -202 -242t-310 -91zM248 653h753q-25 135 -125 219t-249 84
q-145 0 -246.5 -83t-132.5 -220zM543 1241l166 340h190l-223 -340h-133z" />
    <glyph glyph-name="ecircumflex" unicode="&#xea;" horiz-adv-x="1245" 
d="M631 -20q-157 0 -286 75.5t-202 205t-73 284.5t71 284.5t199 205t287 75.5q240 0 394.5 -152.5t154.5 -379.5q0 -34 -9 -72h-929q14 -156 124 -261.5t269 -105.5q212 0 330 174h182q-66 -151 -202 -242t-310 -91zM248 653h753q-25 135 -125 219t-249 84
q-145 0 -246.5 -83t-132.5 -220zM322 1223v151l303 199l303 -199v-151l-303 198z" />
    <glyph glyph-name="edieresis" unicode="&#xeb;" horiz-adv-x="1245" 
d="M631 -20q-157 0 -286 75.5t-202 205t-73 284.5t71 284.5t199 205t287 75.5q240 0 394.5 -152.5t154.5 -379.5q0 -34 -9 -72h-929q14 -156 124 -261.5t269 -105.5q212 0 330 174h182q-66 -151 -202 -242t-310 -91zM248 653h753q-25 135 -125 219t-249 84
q-145 0 -246.5 -83t-132.5 -220zM313 1409q0 44 31.5 76.5t75.5 32.5t76 -32.5t32 -76.5t-32 -75t-76 -31t-75.5 31t-31.5 75zM727 1409q0 44 31.5 76.5t75.5 32.5t76 -32.5t32 -76.5t-32 -75t-76 -31t-75.5 31t-31.5 75z" />
    <glyph glyph-name="igrave" unicode="&#xec;" horiz-adv-x="458" 
d="M147 0v1090h166v-1090h-166zM-27 1581h191l166 -340h-133z" />
    <glyph glyph-name="iacute" unicode="&#xed;" horiz-adv-x="458" 
d="M147 0v1090h166v-1090h-166zM147 1241l166 340h191l-223 -340h-134z" />
    <glyph glyph-name="icircumflex" unicode="&#xee;" horiz-adv-x="458" 
d="M147 0v1090h166v-1090h-166zM-74 1223v151l303 199l303 -199v-151l-303 198z" />
    <glyph glyph-name="idieresis" unicode="&#xef;" horiz-adv-x="458" 
d="M147 0v1090h166v-1090h-166zM-84 1409q0 44 31.5 76.5t75.5 32.5t76 -32.5t32 -76.5t-32 -75t-76 -31t-75.5 31t-31.5 75zM330 1409q0 45 31 77t75 32t76.5 -32.5t32.5 -76.5t-32 -75t-77 -31q-44 0 -75 31t-31 75z" />
    <glyph glyph-name="eth" unicode="&#xf0;" horiz-adv-x="1228" 
d="M485 1104l-86 88l148 147q-143 90 -338 142l119 96q175 -48 319 -137l158 157l86 -88l-141 -141q179 -146 268.5 -356.5t89.5 -470.5q0 -136 -42.5 -245t-115 -177t-165 -103.5t-197.5 -35.5q-223 0 -370.5 141.5t-147.5 349.5q0 136 65.5 249.5t179 179t248.5 65.5
q220 0 342 -168q-35 286 -258 469zM240 471q0 -147 102.5 -242.5t245.5 -95.5t246.5 95.5t103.5 242.5q0 148 -103 244t-247 96q-143 0 -245.5 -95.5t-102.5 -244.5z" />
    <glyph glyph-name="ntilde" unicode="&#xf1;" horiz-adv-x="1286" 
d="M147 0v1090h160v-203q52 104 149.5 163.5t227.5 59.5q211 0 333 -138t122 -351v-621h-166v600q0 152 -89 249t-231 97t-241 -98.5t-99 -247.5v-600h-166zM305 1276q4 123 62.5 187.5t154.5 64.5q44 0 81 -21t58 -46.5t49 -46.5t56 -21q42 0 65 33.5t25 91.5h131
q-4 -120 -61 -186t-152 -66q-44 0 -81.5 21t-59.5 45.5t-50.5 45.5t-56.5 21q-42 0 -64 -33t-24 -90h-133z" />
    <glyph glyph-name="ograve" unicode="&#xf2;" horiz-adv-x="1273" 
d="M637 -20q-157 0 -287.5 75.5t-205 205.5t-74.5 284t74.5 284t205 205.5t287.5 75.5t287.5 -75.5t205 -205.5t74.5 -284t-74.5 -284t-205 -205.5t-287.5 -75.5zM240 545q0 -166 116 -284t281 -118t281 118t116 284t-116 283.5t-281 117.5t-281 -117.5t-116 -283.5z
M381 1581h190l166 -340h-133z" />
    <glyph glyph-name="oacute" unicode="&#xf3;" horiz-adv-x="1273" 
d="M637 -20q-157 0 -287.5 75.5t-205 205.5t-74.5 284t74.5 284t205 205.5t287.5 75.5t287.5 -75.5t205 -205.5t74.5 -284t-74.5 -284t-205 -205.5t-287.5 -75.5zM240 545q0 -166 116 -284t281 -118t281 118t116 284t-116 283.5t-281 117.5t-281 -117.5t-116 -283.5z
M555 1241l166 340h190l-223 -340h-133z" />
    <glyph glyph-name="ocircumflex" unicode="&#xf4;" horiz-adv-x="1273" 
d="M637 -20q-157 0 -287.5 75.5t-205 205.5t-74.5 284t74.5 284t205 205.5t287.5 75.5t287.5 -75.5t205 -205.5t74.5 -284t-74.5 -284t-205 -205.5t-287.5 -75.5zM240 545q0 -166 116 -284t281 -118t281 118t116 284t-116 283.5t-281 117.5t-281 -117.5t-116 -283.5z
M334 1223v151l303 199l303 -199v-151l-303 198z" />
    <glyph glyph-name="otilde" unicode="&#xf5;" horiz-adv-x="1273" 
d="M637 -20q-157 0 -287.5 75.5t-205 205.5t-74.5 284t74.5 284t205 205.5t287.5 75.5t287.5 -75.5t205 -205.5t74.5 -284t-74.5 -284t-205 -205.5t-287.5 -75.5zM240 545q0 -166 116 -284t281 -118t281 118t116 284t-116 283.5t-281 117.5t-281 -117.5t-116 -283.5z
M297 1276q4 123 62.5 187.5t154.5 64.5q44 0 81 -21t58 -46.5t49 -46.5t56 -21q42 0 65 33.5t25 91.5h131q-4 -120 -61 -186t-152 -66q-44 0 -81.5 21t-59.5 45.5t-50.5 45.5t-56.5 21q-42 0 -64 -33t-24 -90h-133z" />
    <glyph glyph-name="odieresis" unicode="&#xf6;" horiz-adv-x="1273" 
d="M637 -20q-157 0 -287.5 75.5t-205 205.5t-74.5 284t74.5 284t205 205.5t287.5 75.5t287.5 -75.5t205 -205.5t74.5 -284t-74.5 -284t-205 -205.5t-287.5 -75.5zM240 545q0 -166 116 -284t281 -118t281 118t116 284t-116 283.5t-281 117.5t-281 -117.5t-116 -283.5z
M324 1409q0 45 31 77t75 32t76.5 -32.5t32.5 -76.5t-32 -75t-77 -31q-44 0 -75 31t-31 75zM737 1409q0 44 31.5 76.5t75.5 32.5t76 -32.5t32 -76.5t-32 -75t-76 -31t-75.5 31t-31.5 75z" />
    <glyph glyph-name="divide" unicode="&#xf7;" horiz-adv-x="1181" 
d="M41 653v160h1100v-160h-1100zM481 309q0 51 35.5 87t85.5 36q51 0 87 -36t36 -87q0 -50 -36 -85.5t-87 -35.5q-50 0 -85.5 36t-35.5 85zM481 1155q0 49 35.5 85t85.5 36q51 0 87 -35.5t36 -85.5q0 -51 -36 -86t-87 -35q-50 0 -85.5 35t-35.5 86z" />
    <glyph glyph-name="oslash" unicode="&#xf8;" horiz-adv-x="1312" 
d="M180 -61l-108 108l139 146q-123 151 -123 352q0 154 75 284t205.5 205.5t286.5 75.5q181 0 330 -102l145 151l109 -108l-141 -150q125 -154 125 -356q0 -154 -75 -284t-205.5 -205.5t-287.5 -75.5q-190 0 -333 106zM258 545q0 -125 70 -228l540 568q-95 61 -213 61
q-165 0 -281 -117.5t-116 -283.5zM438 209q98 -66 217 -66q166 0 283 118t117 284q0 124 -74 233z" />
    <glyph glyph-name="ugrave" unicode="&#xf9;" horiz-adv-x="1228" 
d="M614 -20q-207 0 -344 140t-137 353v617h166v-621q0 -143 87 -234.5t228 -91.5q140 0 228 92t88 234v621h166v-617q0 -213 -137.5 -353t-344.5 -140zM358 1581h191l166 -340h-133z" />
    <glyph glyph-name="uacute" unicode="&#xfa;" horiz-adv-x="1228" 
d="M614 -20q-207 0 -344 140t-137 353v617h166v-621q0 -143 87 -234.5t228 -91.5q140 0 228 92t88 234v621h166v-617q0 -213 -137.5 -353t-344.5 -140zM530 1241l166 340h191l-223 -340h-134z" />
    <glyph glyph-name="ucircumflex" unicode="&#xfb;" horiz-adv-x="1228" 
d="M614 -20q-207 0 -344 140t-137 353v617h166v-621q0 -143 87 -234.5t228 -91.5q140 0 228 92t88 234v621h166v-617q0 -213 -137.5 -353t-344.5 -140zM311 1223v151l303 199l304 -199v-151l-304 198z" />
    <glyph glyph-name="udieresis" unicode="&#xfc;" horiz-adv-x="1228" 
d="M614 -20q-207 0 -344 140t-137 353v617h166v-621q0 -143 87 -234.5t228 -91.5q140 0 228 92t88 234v621h166v-617q0 -213 -137.5 -353t-344.5 -140zM301 1409q0 44 31.5 76.5t75.5 32.5t76 -32.5t32 -76.5t-32 -75t-76 -31t-75.5 31t-31.5 75zM715 1409q0 45 31 77t75 32
t76.5 -32.5t32.5 -76.5t-32 -75t-77 -31q-44 0 -75 31t-31 75z" />
    <glyph glyph-name="yacute" unicode="&#xfd;" horiz-adv-x="1120" 
d="M248 -410l229 504l-469 996h185l374 -807l355 807h178l-670 -1500h-182zM479 1241l166 340h191l-224 -340h-133z" />
    <glyph glyph-name="thorn" unicode="&#xfe;" 
d="M721 -20q-130 0 -235 58t-173 159v-607h-166v1966h166v-663q68 101 173 159t235 58q149 0 275.5 -75t200 -205t73.5 -285t-73.5 -285t-200 -205t-275.5 -75zM305 506q14 -154 126.5 -258.5t268.5 -104.5q166 0 283 117t117 285t-117 284.5t-283 116.5q-151 0 -262 -97.5
t-131 -246.5z" />
    <glyph glyph-name="ydieresis" unicode="&#xff;" horiz-adv-x="1120" 
d="M248 -410l229 504l-469 996h185l374 -807l355 807h178l-670 -1500h-182zM250 1409q0 45 31 77t75 32t76.5 -32.5t32.5 -76.5t-32 -75t-77 -31q-44 0 -75 31t-31 75zM664 1409q0 45 31 77t75 32t76.5 -32.5t32.5 -76.5t-32 -75t-77 -31q-44 0 -75 31t-31 75z" />
    <glyph glyph-name="Amacron" unicode="&#x100;" horiz-adv-x="1488" 
d="M8 0l737 1499l736 -1499h-187l-186 391h-729l-186 -391h-185zM428 1663v133h629v-133h-629zM451 539h585l-293 612z" />
    <glyph glyph-name="amacron" unicode="&#x101;" 
d="M618 -20q-150 0 -276 75t-199 205t-73 285t73 285t199 205t276 75q135 0 243 -64t171 -174v218h160v-1090h-160v217q-63 -110 -171 -173.5t-243 -63.5zM240 545q0 -169 115.5 -285.5t281.5 -116.5q167 0 282 117t115 285q0 169 -115 285t-282 116q-166 0 -281.5 -116.5
t-115.5 -284.5zM338 1319v133h629v-133h-629z" />
    <glyph glyph-name="Abreve" unicode="&#x102;" horiz-adv-x="1488" 
d="M8 0l737 1499l736 -1499h-187l-186 391h-729l-186 -391h-185zM432 1870h135q3 -76 49 -124t125 -48q77 0 123 48t49 124h136q-7 -140 -92 -220.5t-216 -80.5q-132 0 -216 80.5t-93 220.5zM451 539h585l-293 612z" />
    <glyph glyph-name="abreve" unicode="&#x103;" 
d="M618 -20q-150 0 -276 75t-199 205t-73 285t73 285t199 205t276 75q135 0 243 -64t171 -174v218h160v-1090h-160v217q-63 -110 -171 -173.5t-243 -63.5zM240 545q0 -169 115.5 -285.5t281.5 -116.5q167 0 282 117t115 285q0 169 -115 285t-282 116q-166 0 -281.5 -116.5
t-115.5 -284.5zM340 1526h135q3 -76 49 -124t125 -48q77 0 123 48t49 124h135q-7 -140 -91.5 -220.5t-215.5 -80.5q-132 0 -216 80.5t-93 220.5z" />
    <glyph glyph-name="Aogonek" unicode="&#x104;" horiz-adv-x="1499" 
d="M1343 -430q-104 0 -166.5 54t-62.5 151q0 70 45 130t133 99l-184 387h-729l-186 -391h-185l737 1499l736 -1499q-209 -63 -209 -186q0 -50 30.5 -78.5t86.5 -28.5q62 0 102 25l-12 -133q-56 -29 -136 -29zM451 539h585l-293 612z" />
    <glyph glyph-name="aogonek" unicode="&#x105;" 
d="M618 -20q-150 0 -276 75t-199 205t-73 285t73 285t199 205t276 75q133 0 239.5 -60.5t174.5 -166.5v207h160v-1090q-209 -63 -209 -186q0 -50 30 -78.5t85 -28.5q59 0 104 25l-12 -133q-56 -29 -137 -29q-103 0 -165.5 54t-62.5 151q0 75 51 140t156 103v189
q-68 -106 -174.5 -166.5t-239.5 -60.5zM240 545q0 -169 115.5 -285.5t281.5 -116.5q167 0 282 117t115 285q0 169 -115 285t-282 116q-166 0 -281.5 -116.5t-115.5 -284.5z" />
    <glyph glyph-name="Cacute" unicode="&#x106;" horiz-adv-x="1622" 
d="M825 -20q-155 0 -293 58t-236 156.5t-155 234.5t-57 288t57 288t155 234.5t236 156.5t293 58q263 0 458.5 -156t254.5 -401h-174q-58 176 -203 284.5t-336 108.5q-160 0 -291.5 -77t-205.5 -208t-74 -288q0 -158 74 -289.5t205.5 -208t291.5 -76.5q191 0 335.5 109
t201.5 285h176q-59 -245 -254.5 -401t-458.5 -156zM737 1585l166 340h191l-224 -340h-133z" />
    <glyph glyph-name="cacute" unicode="&#x107;" horiz-adv-x="1236" 
d="M637 -20q-157 0 -287.5 75.5t-205 205.5t-74.5 284t74.5 284t205 205.5t287.5 75.5q201 0 352 -120t193 -306h-176q-37 116 -139 189t-230 73q-165 0 -281 -117.5t-116 -283.5t116 -284t281 -118q128 0 230 74t139 189h176q-42 -185 -193.5 -305.5t-351.5 -120.5z
M543 1241l166 340h190l-223 -340h-133z" />
    <glyph glyph-name="Ccircumflex" unicode="&#x108;" horiz-adv-x="1622" 
d="M825 -20q-155 0 -293 58t-236 156.5t-155 234.5t-57 288t57 288t155 234.5t236 156.5t293 58q263 0 458.5 -156t254.5 -401h-174q-58 176 -203 284.5t-336 108.5q-160 0 -291.5 -77t-205.5 -208t-74 -288q0 -158 74 -289.5t205.5 -208t291.5 -76.5q191 0 335.5 109
t201.5 285h176q-59 -245 -254.5 -401t-458.5 -156zM516 1567v151l303 199l303 -199v-151l-303 198z" />
    <glyph glyph-name="ccircumflex" unicode="&#x109;" horiz-adv-x="1236" 
d="M637 -20q-157 0 -287.5 75.5t-205 205.5t-74.5 284t74.5 284t205 205.5t287.5 75.5q201 0 352 -120t193 -306h-176q-37 116 -139 189t-230 73q-165 0 -281 -117.5t-116 -283.5t116 -284t281 -118q128 0 230 74t139 189h176q-42 -185 -193.5 -305.5t-351.5 -120.5z
M322 1223v151l303 199l303 -199v-151l-303 198z" />
    <glyph glyph-name="Cdotaccent" unicode="&#x10a;" horiz-adv-x="1622" 
d="M825 -20q-155 0 -293 58t-236 156.5t-155 234.5t-57 288t57 288t155 234.5t236 156.5t293 58q263 0 458.5 -156t254.5 -401h-174q-58 176 -203 284.5t-336 108.5q-160 0 -291.5 -77t-205.5 -208t-74 -288q0 -158 74 -289.5t205.5 -208t291.5 -76.5q191 0 335.5 109
t201.5 285h176q-59 -245 -254.5 -401t-458.5 -156zM711 1753q0 45 31 77t75 32t76.5 -32.5t32.5 -76.5t-32 -75t-77 -31q-44 0 -75 31t-31 75z" />
    <glyph glyph-name="cdotaccent" unicode="&#x10b;" horiz-adv-x="1236" 
d="M637 -20q-157 0 -287.5 75.5t-205 205.5t-74.5 284t74.5 284t205 205.5t287.5 75.5q201 0 352 -120t193 -306h-176q-37 116 -139 189t-230 73q-165 0 -281 -117.5t-116 -283.5t116 -284t281 -118q128 0 230 74t139 189h176q-42 -185 -193.5 -305.5t-351.5 -120.5z
M516 1409q0 44 31.5 76.5t75.5 32.5t76 -32.5t32 -76.5t-32 -75t-76 -31t-75.5 31t-31.5 75z" />
    <glyph glyph-name="Ccaron" unicode="&#x10c;" horiz-adv-x="1622" 
d="M825 -20q-155 0 -293 58t-236 156.5t-155 234.5t-57 288t57 288t155 234.5t236 156.5t293 58q263 0 458.5 -156t254.5 -401h-174q-58 176 -203 284.5t-336 108.5q-160 0 -291.5 -77t-205.5 -208t-74 -288q0 -158 74 -289.5t205.5 -208t291.5 -76.5q191 0 335.5 109
t201.5 285h176q-59 -245 -254.5 -401t-458.5 -156zM514 1749v152l303 -199l303 199v-152l-303 -199z" />
    <glyph glyph-name="ccaron" unicode="&#x10d;" horiz-adv-x="1236" 
d="M637 -20q-157 0 -287.5 75.5t-205 205.5t-74.5 284t74.5 284t205 205.5t287.5 75.5q201 0 352 -120t193 -306h-176q-37 116 -139 189t-230 73q-165 0 -281 -117.5t-116 -283.5t116 -284t281 -118q128 0 230 74t139 189h176q-42 -185 -193.5 -305.5t-351.5 -120.5z
M319 1405v151l304 -198l303 198v-151l-303 -199z" />
    <glyph glyph-name="Dcaron" unicode="&#x10e;" horiz-adv-x="1521" 
d="M733 0h-565v1434h565q201 0 363 -96t252 -260t90 -361t-90 -361t-252 -260t-363 -96zM334 160h399q148 0 271.5 71.5t195.5 199.5t72 286t-72 286t-195.5 199.5t-271.5 71.5h-399v-1114zM426 1749v152l303 -199l303 199v-152l-303 -199z" />
    <glyph glyph-name="dcaron" unicode="&#x10f;" horiz-adv-x="1484" 
d="M1026 1556h166v-1556h-160v217q-63 -110 -171 -173.5t-243 -63.5q-150 0 -276 75t-199 205t-73 285t73 285t199 205t276 75q132 0 239.5 -62t168.5 -167v675zM240 545q0 -169 115.5 -285.5t281.5 -116.5q167 0 282 117t115 285q0 169 -115 285t-282 116
q-166 0 -281.5 -116.5t-115.5 -284.5zM1290 1108l33 448h170l-76 -448h-127z" />
    <glyph glyph-name="Dcroat" unicode="&#x110;" horiz-adv-x="1492" 
d="M12 682v133h156v619h565q201 0 363 -96t252 -260t90 -361t-90 -361t-252 -260t-363 -96h-565v682h-156zM334 160h399q148 0 271.5 71.5t195.5 199.5t72 286t-72 286t-195.5 199.5t-271.5 71.5h-399v-459h371v-133h-371v-522z" />
    <glyph glyph-name="dcroat" unicode="&#x111;" 
d="M623 1223v133h403v200h166v-200h147v-133h-147v-1223h-160v217q-63 -110 -171 -173.5t-243 -63.5q-150 0 -276 75t-199 205t-73 285t73 285t199 205t276 75q132 0 239.5 -62t168.5 -167v342h-403zM240 545q0 -169 115.5 -285.5t281.5 -116.5q167 0 282 117t115 285
q0 169 -115 285t-282 116q-166 0 -281.5 -116.5t-115.5 -284.5z" />
    <glyph glyph-name="Emacron" unicode="&#x112;" horiz-adv-x="1265" 
d="M168 0v1434h1003v-160h-837v-461h776v-160h-776v-493h858v-160h-1024zM383 1663v133h629v-133h-629z" />
    <glyph glyph-name="emacron" unicode="&#x113;" horiz-adv-x="1245" 
d="M631 -20q-157 0 -286 75.5t-202 205t-73 284.5t71 284.5t199 205t287 75.5q240 0 394.5 -152.5t154.5 -379.5q0 -34 -9 -72h-929q14 -156 124 -261.5t269 -105.5q212 0 330 174h182q-66 -151 -202 -242t-310 -91zM248 653h753q-25 135 -125 219t-249 84
q-145 0 -246.5 -83t-132.5 -220zM313 1319v133h629v-133h-629z" />
    <glyph glyph-name="Ebreve" unicode="&#x114;" horiz-adv-x="1265" 
d="M168 0v1434h1003v-160h-837v-461h776v-160h-776v-493h858v-160h-1024zM385 1870h135q3 -76 49 -124t125 -48q77 0 123 48t49 124h135q-7 -140 -91.5 -220.5t-215.5 -80.5q-132 0 -216 80.5t-93 220.5z" />
    <glyph glyph-name="ebreve" unicode="&#x115;" horiz-adv-x="1245" 
d="M631 -20q-157 0 -286 75.5t-202 205t-73 284.5t71 284.5t199 205t287 75.5q240 0 394.5 -152.5t154.5 -379.5q0 -34 -9 -72h-929q14 -156 124 -261.5t269 -105.5q212 0 330 174h182q-66 -151 -202 -242t-310 -91zM248 653h753q-25 135 -125 219t-249 84
q-145 0 -246.5 -83t-132.5 -220zM317 1526h136q3 -76 49 -124t125 -48q77 0 123 48t49 124h135q-7 -140 -91.5 -220.5t-215.5 -80.5q-132 0 -216.5 80.5t-93.5 220.5z" />
    <glyph glyph-name="Edotaccent" unicode="&#x116;" horiz-adv-x="1265" 
d="M168 0v1434h1003v-160h-837v-461h776v-160h-776v-493h858v-160h-1024zM584 1753q0 45 31 77t75 32t76.5 -32.5t32.5 -76.5t-32 -75t-77 -31q-44 0 -75 31t-31 75z" />
    <glyph glyph-name="edotaccent" unicode="&#x117;" horiz-adv-x="1245" 
d="M631 -20q-157 0 -286 75.5t-202 205t-73 284.5t71 284.5t199 205t287 75.5q240 0 394.5 -152.5t154.5 -379.5q0 -34 -9 -72h-929q14 -156 124 -261.5t269 -105.5q212 0 330 174h182q-66 -151 -202 -242t-310 -91zM248 653h753q-25 135 -125 219t-249 84
q-145 0 -246.5 -83t-132.5 -220zM516 1409q0 44 31.5 76.5t75.5 32.5t76 -32.5t32 -76.5t-32 -75t-76 -31t-75.5 31t-31.5 75z" />
    <glyph glyph-name="Eogonek" unicode="&#x118;" horiz-adv-x="1265" 
d="M168 0v1434h1003v-160h-837v-461h776v-160h-776v-493h858v-160h2q-209 -63 -209 -186q0 -50 30 -78.5t85 -28.5q59 0 104 25l-12 -133q-56 -29 -137 -29q-103 0 -165.5 54t-62.5 151q0 67 40 126.5t122 98.5h-821z" />
    <glyph glyph-name="eogonek" unicode="&#x119;" horiz-adv-x="1245" 
d="M682 -430q-104 0 -166.5 54t-62.5 151q0 127 112 209q-141 15 -254.5 93t-177 201t-63.5 267q0 155 71 284.5t199 205t287 75.5q240 0 394.5 -152.5t154.5 -379.5q0 -34 -9 -72h-929q14 -156 124 -261.5t269 -105.5q212 0 330 174h182q-51 -120 -149 -203.5t-226 -113.5
q-158 -65 -158 -182q0 -50 30.5 -78.5t86.5 -28.5q62 0 102 25l-12 -133q-56 -29 -135 -29zM248 653h753q-25 135 -125 219t-249 84q-145 0 -246.5 -83t-132.5 -220z" />
    <glyph glyph-name="Ecaron" unicode="&#x11a;" horiz-adv-x="1265" 
d="M168 0v1434h1003v-160h-837v-461h776v-160h-776v-493h858v-160h-1024zM387 1749v152l303 -199l303 199v-152l-303 -199z" />
    <glyph glyph-name="ecaron" unicode="&#x11b;" horiz-adv-x="1245" 
d="M631 -20q-157 0 -286 75.5t-202 205t-73 284.5t71 284.5t199 205t287 75.5q240 0 394.5 -152.5t154.5 -379.5q0 -34 -9 -72h-929q14 -156 124 -261.5t269 -105.5q212 0 330 174h182q-66 -151 -202 -242t-310 -91zM248 653h753q-25 135 -125 219t-249 84
q-145 0 -246.5 -83t-132.5 -220zM319 1405v151l304 -198l303 198v-151l-303 -199z" />
    <glyph glyph-name="Gcircumflex" unicode="&#x11c;" horiz-adv-x="1640" 
d="M825 -20q-155 0 -293 58t-236 156.5t-155 234.5t-57 288t57 288t155 234.5t236 156.5t293 58q235 0 419 -125t267 -332h-192q-65 135 -195.5 214t-298.5 79q-160 0 -291.5 -77t-205.5 -208t-74 -288q0 -158 74 -289.5t205.5 -208t291.5 -76.5q211 0 359 125t184 324h-555
v160h743v-29q0 -209 -94 -379t-261.5 -267t-375.5 -97zM520 1567v151l303 199l303 -199v-151l-303 198z" />
    <glyph glyph-name="gcircumflex" unicode="&#x11d;" 
d="M639 -430q-181 0 -320.5 91t-205.5 235h184q47 -77 135.5 -124.5t206.5 -47.5q175 0 284 114t109 281v123q-63 -110 -171 -174t-243 -64q-152 0 -278.5 74.5t-198 201.5t-71.5 277t71.5 277t198 201.5t278.5 74.5q135 0 243 -63.5t171 -172.5v216h160v-971
q0 -237 -157.5 -393t-395.5 -156zM240 557q0 -167 115 -278t282 -111q168 0 282.5 111.5t114.5 277.5q0 168 -114.5 278.5t-282.5 110.5q-167 0 -282 -111t-115 -278zM358 1223v151l304 199l303 -199v-151l-303 198z" />
    <glyph glyph-name="Gbreve" unicode="&#x11e;" horiz-adv-x="1640" 
d="M825 -20q-155 0 -293 58t-236 156.5t-155 234.5t-57 288t57 288t155 234.5t236 156.5t293 58q235 0 419 -125t267 -332h-192q-65 135 -195.5 214t-298.5 79q-160 0 -291.5 -77t-205.5 -208t-74 -288q0 -158 74 -289.5t205.5 -208t291.5 -76.5q211 0 359 125t184 324h-555
v160h743v-29q0 -209 -94 -379t-261.5 -267t-375.5 -97zM516 1870h135q3 -76 49 -124t125 -48q77 0 123 48t49 124h136q-7 -140 -92 -220.5t-216 -80.5q-132 0 -216 80.5t-93 220.5z" />
    <glyph glyph-name="gbreve" unicode="&#x11f;" 
d="M639 -430q-181 0 -320.5 91t-205.5 235h184q47 -77 135.5 -124.5t206.5 -47.5q175 0 284 114t109 281v123q-63 -110 -171 -174t-243 -64q-152 0 -278.5 74.5t-198 201.5t-71.5 277t71.5 277t198 201.5t278.5 74.5q135 0 243 -63.5t171 -172.5v216h160v-971
q0 -237 -157.5 -393t-395.5 -156zM240 557q0 -167 115 -278t282 -111q168 0 282.5 111.5t114.5 277.5q0 168 -114.5 278.5t-282.5 110.5q-167 0 -282 -111t-115 -278zM352 1526h135q3 -76 49.5 -124t125.5 -48q77 0 123 48t49 124h135q-7 -140 -91.5 -220.5t-215.5 -80.5
q-132 0 -216.5 80.5t-93.5 220.5z" />
    <glyph glyph-name="Gdotaccent" unicode="&#x120;" horiz-adv-x="1640" 
d="M825 -20q-155 0 -293 58t-236 156.5t-155 234.5t-57 288t57 288t155 234.5t236 156.5t293 58q235 0 419 -125t267 -332h-192q-65 135 -195.5 214t-298.5 79q-160 0 -291.5 -77t-205.5 -208t-74 -288q0 -158 74 -289.5t205.5 -208t291.5 -76.5q211 0 359 125t184 324h-555
v160h743v-29q0 -209 -94 -379t-261.5 -267t-375.5 -97zM715 1753q0 45 31 77t75 32t76.5 -32.5t32.5 -76.5t-32 -75t-77 -31q-44 0 -75 31t-31 75z" />
    <glyph glyph-name="gdotaccent" unicode="&#x121;" 
d="M639 -430q-181 0 -320.5 91t-205.5 235h184q47 -77 135.5 -124.5t206.5 -47.5q175 0 284 114t109 281v123q-63 -110 -171 -174t-243 -64q-152 0 -278.5 74.5t-198 201.5t-71.5 277t71.5 277t198 201.5t278.5 74.5q135 0 243 -63.5t171 -172.5v216h160v-971
q0 -237 -157.5 -393t-395.5 -156zM240 557q0 -167 115 -278t282 -111q168 0 282.5 111.5t114.5 277.5q0 168 -114.5 278.5t-282.5 110.5q-167 0 -282 -111t-115 -278zM553 1409q0 45 31 77t75 32t76.5 -32.5t32.5 -76.5t-32 -75t-77 -31q-44 0 -75 31t-31 75z" />
    <glyph glyph-name="uni0122" unicode="&#x122;" horiz-adv-x="1640" 
d="M825 -20q-155 0 -293 58t-236 156.5t-155 234.5t-57 288t57 288t155 234.5t236 156.5t293 58q235 0 419 -125t267 -332h-192q-65 135 -195.5 214t-298.5 79q-160 0 -291.5 -77t-205.5 -208t-74 -288q0 -158 74 -289.5t205.5 -208t291.5 -76.5q211 0 359 125t184 324h-555
v160h743v-29q0 -209 -94 -379t-261.5 -267t-375.5 -97zM662 -410l73 326h185l-134 -326h-124z" />
    <glyph glyph-name="uni0123" unicode="&#x123;" 
d="M545 1239l184 326h137l-125 -326h-196zM70 557q0 150 71.5 277t198 201.5t278.5 74.5q135 0 243 -63.5t171 -172.5v216h160v-971q0 -237 -157.5 -393t-395.5 -156q-181 0 -320.5 91t-205.5 235h184q47 -77 135.5 -124.5t206.5 -47.5q175 0 284 114t109 281v123
q-63 -110 -171 -174t-243 -64q-152 0 -278.5 74.5t-198 201.5t-71.5 277zM240 557q0 -167 115 -278t282 -111q168 0 282.5 111.5t114.5 277.5q0 168 -114.5 278.5t-282.5 110.5q-167 0 -282 -111t-115 -278z" />
    <glyph glyph-name="Hcircumflex" unicode="&#x124;" horiz-adv-x="1515" 
d="M168 0v1434h166v-586h848v586h166v-1434h-166v688h-848v-688h-166zM455 1567v151l303 199l303 -199v-151l-303 198z" />
    <glyph glyph-name="hcircumflex" unicode="&#x125;" horiz-adv-x="1286" 
d="M147 0v1556h166v-661q52 101 147.5 158t223.5 57q211 0 333 -138t122 -351v-621h-166v600q0 152 -89 249t-231 97t-241 -98.5t-99 -247.5v-600h-166zM-74 1690v151l303 199l303 -199v-151l-303 198z" />
    <glyph glyph-name="Hbar" unicode="&#x126;" horiz-adv-x="1515" 
d="M0 1077v135h168v222h166v-222h848v222h166v-222h168v-135h-168v-1077h-166v688h-848v-688h-166v1077h-168zM334 848h848v229h-848v-229z" />
    <glyph glyph-name="hbar" unicode="&#x127;" horiz-adv-x="1286" 
d="M0 1223v133h147v200h166v-200h404v-133h-404v-328q52 101 147.5 158t223.5 57q211 0 333 -138t122 -351v-621h-166v600q0 152 -89 249t-231 97t-241 -98.5t-99 -247.5v-600h-166v1223h-147z" />
    <glyph glyph-name="Itilde" unicode="&#x128;" horiz-adv-x="499" 
d="M168 0v1434h166v-1434h-166zM-90 1620q4 123 62.5 187.5t154.5 64.5q44 0 81 -21t58 -46.5t49 -46.5t56 -21q42 0 65 33.5t25 91.5h131q-4 -120 -61 -186t-152 -66q-44 0 -81.5 21t-59.5 45.5t-50.5 45.5t-56.5 21q-42 0 -64 -33t-24 -90h-133z" />
    <glyph glyph-name="itilde" unicode="&#x129;" horiz-adv-x="458" 
d="M147 0v1090h166v-1090h-166zM-111 1276q4 123 62.5 187.5t154.5 64.5q44 0 81 -21t58 -46.5t49 -46.5t56 -21q42 0 65 33.5t25 91.5h131q-4 -120 -61 -186t-152 -66q-44 0 -81.5 21t-59 45.5t-50 45.5t-56.5 21q-42 0 -64 -33t-24 -90h-134z" />
    <glyph glyph-name="Imacron" unicode="&#x12a;" horiz-adv-x="499" 
d="M168 0v1434h166v-1434h-166zM-61 1663v133h628v-133h-628z" />
    <glyph glyph-name="imacron" unicode="&#x12b;" horiz-adv-x="458" 
d="M147 0v1090h166v-1090h-166zM-82 1319v133h629v-133h-629z" />
    <glyph glyph-name="Ibreve" unicode="&#x12c;" horiz-adv-x="499" 
d="M168 0v1434h166v-1434h-166zM-57 1870h135q3 -76 49 -124t125 -48q77 0 123 48t49 124h135q-7 -140 -91.5 -220.5t-215.5 -80.5q-132 0 -216 80.5t-93 220.5z" />
    <glyph glyph-name="ibreve" unicode="&#x12d;" horiz-adv-x="458" 
d="M147 0v1090h166v-1090h-166zM-78 1526h135q3 -76 49 -124t125 -48q77 0 123 48t49 124h136q-7 -140 -92 -220.5t-216 -80.5q-132 0 -216 80.5t-93 220.5z" />
    <glyph glyph-name="Iogonek" unicode="&#x12e;" horiz-adv-x="499" 
d="M195 -430q-103 0 -165.5 54t-62.5 151q0 74 49.5 138.5t151.5 102.5v1418h166v-1434q-209 -63 -209 -186q0 -50 30 -78.5t85 -28.5q59 0 104 25l-12 -133q-56 -29 -137 -29z" />
    <glyph glyph-name="iogonek" unicode="&#x12f;" horiz-adv-x="458" 
d="M174 -430q-103 0 -165 54t-62 151q0 74 49 138.5t151 102.5v1074h166v-1090q-209 -63 -209 -186q0 -50 30 -78.5t85 -28.5q60 0 105 25l-13 -133q-56 -29 -137 -29zM123 1409q0 45 31 77t75 32t76.5 -32.5t32.5 -76.5t-32 -75t-77 -31q-44 0 -75 31t-31 75z" />
    <glyph glyph-name="Idotaccent" unicode="&#x130;" horiz-adv-x="499" 
d="M168 0v1434h166v-1434h-166zM141 1753q0 44 31.5 76.5t75.5 32.5t76 -32.5t32 -76.5t-32 -75t-76 -31t-75.5 31t-31.5 75z" />
    <glyph glyph-name="dotlessi" unicode="&#x131;" horiz-adv-x="458" 
d="M147 0v1090h166v-1090h-166z" />
    <glyph glyph-name="IJ" unicode="&#x132;" horiz-adv-x="1556" 
d="M168 0v1434h166v-1434h-166zM559 412h166q0 -119 72.5 -194t183.5 -75q113 0 185.5 75t72.5 194v1022h166v-1022q0 -185 -121.5 -308.5t-302.5 -123.5t-301.5 123.5t-120.5 308.5z" />
    <glyph glyph-name="ij" unicode="&#x133;" horiz-adv-x="919" 
d="M147 0v1090h166v-1090h-166zM121 1409q0 45 31 77t75 32t76.5 -32.5t32.5 -76.5t-32 -75t-77 -31q-44 0 -75 31t-31 75zM432 -410v160h33q68 0 104.5 41t36.5 117v1182h166v-1186q0 -151 -81.5 -232.5t-219.5 -81.5h-39zM580 1409q0 45 31 77t75 32t76.5 -32.5
t32.5 -76.5t-32 -75t-77 -31q-44 0 -75 31t-31 75z" />
    <glyph glyph-name="Jcircumflex" unicode="&#x134;" horiz-adv-x="1054" 
d="M481 -20q-181 0 -301.5 123.5t-120.5 308.5h166q0 -119 72.5 -194t183.5 -75q113 0 185.5 75t72.5 194v1022h166v-1022q0 -185 -121.5 -308.5t-302.5 -123.5zM518 1567v151l303 199l303 -199v-151l-303 198z" />
    <glyph glyph-name="jcircumflex" unicode="&#x135;" horiz-adv-x="458" 
d="M-27 -410v160h33q68 0 104.5 41t36.5 117v1182h166v-1186q0 -151 -81.5 -232.5t-219.5 -81.5h-39zM-74 1223v151l303 199l303 -199v-151l-303 198z" />
    <glyph glyph-name="uni0136" unicode="&#x136;" horiz-adv-x="1341" 
d="M1126 0l-706 733l686 701h203l-680 -695l712 -739h-215zM168 0v1434h166v-1434h-166zM541 -410l73 326h185l-133 -326h-125z" />
    <glyph glyph-name="uni0137" unicode="&#x137;" horiz-adv-x="1091" 
d="M879 0l-508 573l491 517h197l-492 -506l514 -584h-202zM147 0v1556h166v-1556h-166zM432 -410l74 326h184l-133 -326h-125z" />
    <glyph glyph-name="Lacute" unicode="&#x139;" horiz-adv-x="1138" 
d="M168 0v1434h166v-1274h776v-160h-942zM166 1585l166 340h190l-223 -340h-133z" />
    <glyph glyph-name="lacute" unicode="&#x13a;" horiz-adv-x="458" 
d="M147 0v1556h166v-1556h-166zM147 1708l166 340h191l-223 -340h-134z" />
    <glyph glyph-name="uni013B" unicode="&#x13b;" horiz-adv-x="1138" 
d="M168 0v1434h166v-1274h776v-160h-942zM502 -410l73 326h185l-133 -326h-125z" />
    <glyph glyph-name="uni013C" unicode="&#x13c;" horiz-adv-x="458" 
d="M147 0v1556h166v-1556h-166zM68 -410l73 326h185l-133 -326h-125z" />
    <glyph glyph-name="Lcaron" unicode="&#x13d;" horiz-adv-x="1138" 
d="M168 0v1434h166v-1274h776v-160h-942zM803 985l33 449h170l-76 -449h-127z" />
    <glyph glyph-name="lcaron" unicode="&#x13e;" horiz-adv-x="636" 
d="M147 0v1556h166v-1556h-166zM412 1108l32 448h170l-75 -448h-127z" />
    <glyph glyph-name="Lslash" unicode="&#x141;" horiz-adv-x="1085" 
d="M0 485v162l168 82v705h166v-635l440 213v-162l-440 -215v-475h776v-160h-942v567z" />
    <glyph glyph-name="lslash" unicode="&#x142;" horiz-adv-x="544" 
d="M199 0v678l-166 -121v176l166 121v702h166v-595l172 122v-176l-172 -123v-784h-166z" />
    <glyph glyph-name="Nacute" unicode="&#x143;" horiz-adv-x="1536" 
d="M1368 -53l-1034 1138v-1085h-166v1487l1034 -1139v1086h166v-1487zM698 1585l166 340h191l-224 -340h-133z" />
    <glyph glyph-name="nacute" unicode="&#x144;" horiz-adv-x="1286" 
d="M147 0v1090h160v-203q52 104 149.5 163.5t227.5 59.5q211 0 333 -138t122 -351v-621h-166v600q0 152 -89 249t-231 97t-241 -98.5t-99 -247.5v-600h-166zM563 1241l166 340h191l-224 -340h-133z" />
    <glyph glyph-name="uni0145" unicode="&#x145;" horiz-adv-x="1536" 
d="M1368 -53l-1034 1138v-1085h-166v1487l1034 -1139v1086h166v-1487zM645 -410l74 326h184l-133 -326h-125z" />
    <glyph glyph-name="uni0146" unicode="&#x146;" horiz-adv-x="1286" 
d="M147 0v1090h160v-203q52 104 149.5 163.5t227.5 59.5q211 0 333 -138t122 -351v-621h-166v600q0 152 -89 249t-231 97t-241 -98.5t-99 -247.5v-600h-166zM481 -410l74 326h184l-133 -326h-125z" />
    <glyph glyph-name="Ncaron" unicode="&#x147;" horiz-adv-x="1536" 
d="M1368 -53l-1034 1138v-1085h-166v1487l1034 -1139v1086h166v-1487zM477 1749v152l303 -199l303 199v-152l-303 -199z" />
    <glyph glyph-name="ncaron" unicode="&#x148;" horiz-adv-x="1286" 
d="M147 0v1090h160v-203q52 104 149.5 163.5t227.5 59.5q211 0 333 -138t122 -351v-621h-166v600q0 152 -89 249t-231 97t-241 -98.5t-99 -247.5v-600h-166zM342 1405v151l303 -198l303 198v-151l-303 -199z" />
    <glyph glyph-name="Omacron" unicode="&#x14c;" horiz-adv-x="1648" 
d="M825 -20q-155 0 -293 58t-236 156.5t-155 234.5t-57 288t57 288t155 234.5t236 156.5t293 58t293 -58t235.5 -156.5t154.5 -234.5t57 -288t-57 -288t-154.5 -234.5t-235.5 -156.5t-293 -58zM254 717q0 -158 74 -289.5t205.5 -208t291.5 -76.5q159 0 290 76.5t205.5 208
t74.5 289.5q0 117 -44 223t-119 183t-181.5 122t-225.5 45q-160 0 -291.5 -77t-205.5 -208t-74 -288zM512 1663v133h629v-133h-629z" />
    <glyph glyph-name="omacron" unicode="&#x14d;" horiz-adv-x="1273" 
d="M637 -20q-157 0 -287.5 75.5t-205 205.5t-74.5 284t74.5 284t205 205.5t287.5 75.5t287.5 -75.5t205 -205.5t74.5 -284t-74.5 -284t-205 -205.5t-287.5 -75.5zM240 545q0 -166 116 -284t281 -118t281 118t116 284t-116 283.5t-281 117.5t-281 -117.5t-116 -283.5z
M326 1319v133h628v-133h-628z" />
    <glyph glyph-name="Obreve" unicode="&#x14e;" horiz-adv-x="1648" 
d="M825 -20q-155 0 -293 58t-236 156.5t-155 234.5t-57 288t57 288t155 234.5t236 156.5t293 58t293 -58t235.5 -156.5t154.5 -234.5t57 -288t-57 -288t-154.5 -234.5t-235.5 -156.5t-293 -58zM254 717q0 -158 74 -289.5t205.5 -208t291.5 -76.5q159 0 290 76.5t205.5 208
t74.5 289.5q0 117 -44 223t-119 183t-181.5 122t-225.5 45q-160 0 -291.5 -77t-205.5 -208t-74 -288zM516 1870h135q3 -76 49 -124t125 -48q77 0 123 48t49 124h136q-7 -140 -92 -220.5t-216 -80.5q-132 0 -216 80.5t-93 220.5z" />
    <glyph glyph-name="obreve" unicode="&#x14f;" horiz-adv-x="1273" 
d="M637 -20q-157 0 -287.5 75.5t-205 205.5t-74.5 284t74.5 284t205 205.5t287.5 75.5t287.5 -75.5t205 -205.5t74.5 -284t-74.5 -284t-205 -205.5t-287.5 -75.5zM240 545q0 -166 116 -284t281 -118t281 118t116 284t-116 283.5t-281 117.5t-281 -117.5t-116 -283.5z
M330 1526h135q3 -76 49 -124t125 -48q77 0 123 48t49 124h135q-7 -140 -91.5 -220.5t-215.5 -80.5q-132 0 -216 80.5t-93 220.5z" />
    <glyph glyph-name="Ohungarumlaut" unicode="&#x150;" horiz-adv-x="1648" 
d="M825 -20q-155 0 -293 58t-236 156.5t-155 234.5t-57 288t57 288t155 234.5t236 156.5t293 58t293 -58t235.5 -156.5t154.5 -234.5t57 -288t-57 -288t-154.5 -234.5t-235.5 -156.5t-293 -58zM254 717q0 -158 74 -289.5t205.5 -208t291.5 -76.5q159 0 290 76.5t205.5 208
t74.5 289.5q0 117 -44 223t-119 183t-181.5 122t-225.5 45q-160 0 -291.5 -77t-205.5 -208t-74 -288zM559 1593l158 340h192l-215 -340h-135zM915 1593l158 340h193l-215 -340h-136z" />
    <glyph glyph-name="ohungarumlaut" unicode="&#x151;" horiz-adv-x="1273" 
d="M637 -20q-157 0 -287.5 75.5t-205 205.5t-74.5 284t74.5 284t205 205.5t287.5 75.5t287.5 -75.5t205 -205.5t74.5 -284t-74.5 -284t-205 -205.5t-287.5 -75.5zM240 545q0 -166 116 -284t281 -118t281 118t116 284t-116 283.5t-281 117.5t-281 -117.5t-116 -283.5z
M371 1249l157 340h193l-215 -340h-135zM727 1249l158 340h192l-215 -340h-135z" />
    <glyph glyph-name="OE" unicode="&#x152;" horiz-adv-x="2115" 
d="M825 0q-156 0 -293.5 55t-235.5 149.5t-155 228t-57 284.5t57 284.5t155 228t235.5 149.5t293.5 55h1196v-160h-804v-461h743v-160h-743v-493h825v-160h-1217zM254 717q0 -157 74.5 -284t205 -198t291.5 -71h226v1106h-226q-161 0 -291.5 -71.5t-205 -198.5t-74.5 -283z
" />
    <glyph glyph-name="oe" unicode="&#x153;" horiz-adv-x="2211" 
d="M637 -20q-157 0 -287.5 75.5t-205 205.5t-74.5 284t74.5 284t205 205.5t287.5 75.5q153 0 279.5 -70.5t201.5 -191.5q74 121 198 191.5t277 70.5q240 0 394.5 -152.5t154.5 -379.5q0 -39 -8 -72h-930q14 -156 124 -261.5t269 -105.5q212 0 330 174h182
q-66 -151 -202 -242t-310 -91q-152 0 -277.5 71.5t-199.5 192.5q-77 -121 -204 -192.5t-279 -71.5zM240 545q0 -166 116 -284t281 -118t281 118t116 284t-116 283.5t-281 117.5t-281 -117.5t-116 -283.5zM1214 653h754q-25 135 -125.5 219t-249.5 84q-145 0 -246.5 -83
t-132.5 -220z" />
    <glyph glyph-name="Racute" unicode="&#x154;" horiz-adv-x="1378" 
d="M1133 0l-312 539h-487v-539h-166v1434h655q125 0 229 -57.5t165 -160.5t61 -229q0 -147 -79.5 -259.5t-209.5 -160.5l326 -567h-182zM334 698h481q121 0 204 83t83 206q0 122 -83 204.5t-204 82.5h-481v-576zM604 1585l166 340h191l-224 -340h-133z" />
    <glyph glyph-name="racute" unicode="&#x155;" horiz-adv-x="673" 
d="M147 0v1090h160v-240q40 130 126.5 196t205.5 60v-211q-136 28 -231 -52t-95 -261v-582h-166zM258 1241l166 340h190l-223 -340h-133z" />
    <glyph glyph-name="uni0156" unicode="&#x156;" horiz-adv-x="1378" 
d="M1133 0l-312 539h-487v-539h-166v1434h655q125 0 229 -57.5t165 -160.5t61 -229q0 -147 -79.5 -259.5t-209.5 -160.5l326 -567h-182zM334 698h481q121 0 204 83t83 206q0 122 -83 204.5t-204 82.5h-481v-576zM565 -410l74 326h184l-133 -326h-125z" />
    <glyph glyph-name="uni0157" unicode="&#x157;" horiz-adv-x="673" 
d="M147 0v1090h160v-240q40 130 126.5 196t205.5 60v-211q-136 28 -231 -52t-95 -261v-582h-166zM68 -410l73 326h185l-133 -326h-125z" />
    <glyph glyph-name="Rcaron" unicode="&#x158;" horiz-adv-x="1378" 
d="M1133 0l-312 539h-487v-539h-166v1434h655q125 0 229 -57.5t165 -160.5t61 -229q0 -147 -79.5 -259.5t-209.5 -160.5l326 -567h-182zM334 698h481q121 0 204 83t83 206q0 122 -83 204.5t-204 82.5h-481v-576zM381 1749v152l303 -199l303 199v-152l-303 -199z" />
    <glyph glyph-name="rcaron" unicode="&#x159;" horiz-adv-x="673" 
d="M147 0v1090h160v-240q40 130 126.5 196t205.5 60v-211q-136 28 -231 -52t-95 -261v-582h-166zM37 1405v151l303 -198l303 198v-151l-303 -199z" />
    <glyph glyph-name="Sacute" unicode="&#x15a;" horiz-adv-x="1331" 
d="M684 -20q-280 0 -434 125.5t-172 338.5h170q11 -141 116.5 -223t313.5 -82q202 0 301.5 66.5t99.5 179.5q0 123 -101 184.5t-333 89.5q-98 12 -175 30.5t-143.5 50t-110.5 74.5t-68.5 105t-24.5 140q0 178 145 286.5t375 108.5q254 0 406.5 -118.5t167.5 -321.5h-168
q-12 133 -119 206.5t-285 73.5q-160 0 -256 -61.5t-96 -173.5q0 -107 93.5 -161.5t299.5 -80.5q287 -33 424 -132.5t137 -291.5q0 -188 -147 -300.5t-416 -112.5zM578 1585l165 340h191l-223 -340h-133z" />
    <glyph glyph-name="sacute" unicode="&#x15b;" horiz-adv-x="1058" 
d="M543 -20q-206 0 -331 100.5t-136 271.5h170q6 -103 83 -164t212 -61q136 0 206 44.5t70 123.5q0 37 -15.5 65.5t-40 47t-67.5 33t-85.5 23t-106.5 17.5q-195 27 -298.5 100t-103.5 216q0 145 116.5 229t307.5 84q174 0 296.5 -90t135.5 -252h-170q-9 92 -77.5 143.5
t-184.5 51.5q-125 0 -191.5 -41t-66.5 -113q0 -36 15 -62.5t38 -44t65.5 -31.5t83 -22t105.5 -18q74 -12 129.5 -26t111 -39t90.5 -59.5t57 -87t22 -120.5q0 -144 -122 -231.5t-318 -87.5zM434 1241l166 340h191l-224 -340h-133z" />
    <glyph glyph-name="Scircumflex" unicode="&#x15c;" horiz-adv-x="1331" 
d="M684 -20q-280 0 -434 125.5t-172 338.5h170q11 -141 116.5 -223t313.5 -82q202 0 301.5 66.5t99.5 179.5q0 123 -101 184.5t-333 89.5q-98 12 -175 30.5t-143.5 50t-110.5 74.5t-68.5 105t-24.5 140q0 178 145 286.5t375 108.5q254 0 406.5 -118.5t167.5 -321.5h-168
q-12 133 -119 206.5t-285 73.5q-160 0 -256 -61.5t-96 -173.5q0 -107 93.5 -161.5t299.5 -80.5q287 -33 424 -132.5t137 -291.5q0 -188 -147 -300.5t-416 -112.5zM356 1567v151l303 199l304 -199v-151l-304 198z" />
    <glyph glyph-name="scircumflex" unicode="&#x15d;" horiz-adv-x="1058" 
d="M543 -20q-206 0 -331 100.5t-136 271.5h170q6 -103 83 -164t212 -61q136 0 206 44.5t70 123.5q0 37 -15.5 65.5t-40 47t-67.5 33t-85.5 23t-106.5 17.5q-195 27 -298.5 100t-103.5 216q0 145 116.5 229t307.5 84q174 0 296.5 -90t135.5 -252h-170q-9 92 -77.5 143.5
t-184.5 51.5q-125 0 -191.5 -41t-66.5 -113q0 -36 15 -62.5t38 -44t65.5 -31.5t83 -22t105.5 -18q74 -12 129.5 -26t111 -39t90.5 -59.5t57 -87t22 -120.5q0 -144 -122 -231.5t-318 -87.5zM213 1223v151l303 199l303 -199v-151l-303 198z" />
    <glyph glyph-name="Scedilla" unicode="&#x15e;" horiz-adv-x="1331" 
d="M709 -430q-41 0 -79 5t-56 10l-17 5v97q132 -28 196 -15t64 60q0 40 -51.5 59.5t-161.5 20.5l19 170q-251 13 -390.5 137t-154.5 325h170q11 -141 116.5 -223t313.5 -82q202 0 301.5 66.5t99.5 179.5q0 123 -101 184.5t-333 89.5q-98 12 -175 30.5t-143.5 50t-110.5 74.5
t-68.5 105t-24.5 140q0 178 145 286.5t375 108.5q254 0 406.5 -118.5t167.5 -321.5h-168q-12 133 -119 206.5t-285 73.5q-160 0 -256 -61.5t-96 -173.5q0 -107 93.5 -161.5t299.5 -80.5q287 -33 424 -132.5t137 -291.5q0 -181 -136.5 -292.5t-389.5 -120.5l-8 -64
q248 -15 248 -168q0 -89 -69.5 -133.5t-182.5 -44.5z" />
    <glyph glyph-name="scedilla" unicode="&#x15f;" horiz-adv-x="1058" 
d="M561 -430q-41 0 -78.5 5t-54.5 10l-18 5v97q132 -28 196 -15t64 60q0 40 -51.5 59.5t-161.5 20.5l18 170q-179 17 -284.5 115t-114.5 255h170q6 -103 83 -164t212 -61q136 0 206 44.5t70 123.5q0 37 -15.5 65.5t-40 47t-67.5 33t-85.5 23t-106.5 17.5q-195 27 -298.5 100
t-103.5 216q0 145 116.5 229t307.5 84q174 0 296.5 -90t135.5 -252h-170q-9 92 -77.5 143.5t-184.5 51.5q-125 0 -191.5 -41t-66.5 -113q0 -36 15 -62.5t38 -44t65.5 -31.5t83 -22t105.5 -18q74 -12 129.5 -26t111 -39t90.5 -59.5t57 -87t22 -120.5q0 -137 -113 -224
t-297 -95l-8 -64q248 -15 248 -168q0 -89 -69.5 -133.5t-182.5 -44.5z" />
    <glyph glyph-name="Scaron" unicode="&#x160;" horiz-adv-x="1331" 
d="M684 -20q-280 0 -434 125.5t-172 338.5h170q11 -141 116.5 -223t313.5 -82q202 0 301.5 66.5t99.5 179.5q0 123 -101 184.5t-333 89.5q-98 12 -175 30.5t-143.5 50t-110.5 74.5t-68.5 105t-24.5 140q0 178 145 286.5t375 108.5q254 0 406.5 -118.5t167.5 -321.5h-168
q-12 133 -119 206.5t-285 73.5q-160 0 -256 -61.5t-96 -173.5q0 -107 93.5 -161.5t299.5 -80.5q287 -33 424 -132.5t137 -291.5q0 -188 -147 -300.5t-416 -112.5zM354 1749v152l303 -199l304 199v-152l-304 -199z" />
    <glyph glyph-name="scaron" unicode="&#x161;" horiz-adv-x="1058" 
d="M543 -20q-206 0 -331 100.5t-136 271.5h170q6 -103 83 -164t212 -61q136 0 206 44.5t70 123.5q0 37 -15.5 65.5t-40 47t-67.5 33t-85.5 23t-106.5 17.5q-195 27 -298.5 100t-103.5 216q0 145 116.5 229t307.5 84q174 0 296.5 -90t135.5 -252h-170q-9 92 -77.5 143.5
t-184.5 51.5q-125 0 -191.5 -41t-66.5 -113q0 -36 15 -62.5t38 -44t65.5 -31.5t83 -22t105.5 -18q74 -12 129.5 -26t111 -39t90.5 -59.5t57 -87t22 -120.5q0 -144 -122 -231.5t-318 -87.5zM211 1405v151l303 -198l303 198v-151l-303 -199z" />
    <glyph glyph-name="uni0162" unicode="&#x162;" horiz-adv-x="1212" 
d="M524 0v1274h-504v160h1172v-160h-502v-1274h-33l-10 -84q248 -15 248 -168q0 -89 -69.5 -133.5t-182.5 -44.5q-41 0 -78.5 5t-54.5 10l-18 5v97q132 -28 196 -15t64 60q0 40 -51.5 59.5t-161.5 20.5l20 188h-35z" />
    <glyph glyph-name="uni0163" unicode="&#x163;" horiz-adv-x="663" 
d="M522 0q-21 0 -53 4l-12 -88q248 -15 248 -168q0 -89 -69.5 -133.5t-182.5 -44.5q-41 0 -79 5t-56 10l-17 5v97q132 -28 196 -15t64 60q0 40 -51.5 59.5t-161.5 20.5l23 217q-82 36 -127 116t-45 199v586h-189v160h189v225l166 53v-278h268v-160h-268v-582
q0 -93 42 -140.5t121 -47.5h105v-160h-111z" />
    <glyph glyph-name="Tcaron" unicode="&#x164;" horiz-adv-x="1212" 
d="M524 0v1274h-504v160h1172v-160h-502v-1274h-166zM301 1749v152l303 -199l303 199v-152l-303 -199z" />
    <glyph glyph-name="tcaron" unicode="&#x165;" horiz-adv-x="663" 
d="M522 0q-150 0 -236.5 88.5t-86.5 255.5v586h-189v160h189v225l166 53v-278h268v-160h-268v-582q0 -93 42 -140.5t121 -47.5h105v-160h-111zM520 1243l33 395h170l-76 -395h-127z" />
    <glyph glyph-name="Tbar" unicode="&#x166;" horiz-adv-x="1212" 
d="M256 651v133h268v490h-504v160h1172v-160h-502v-490h283v-133h-283v-651h-166v651h-268z" />
    <glyph glyph-name="tbar" unicode="&#x167;" horiz-adv-x="686" 
d="M33 553v133h166v244h-189v160h189v225l166 53v-278h268v-160h-268v-244h290v-133h-290v-205q0 -93 42 -140.5t121 -47.5h105v-160h-111q-150 0 -236.5 88.5t-86.5 255.5v209h-166z" />
    <glyph glyph-name="Utilde" unicode="&#x168;" horiz-adv-x="1482" 
d="M741 -20q-259 0 -424 164.5t-165 430.5v859h165v-859q0 -192 114 -312t310 -120q195 0 309.5 120t114.5 312v859h166v-859q0 -266 -165.5 -430.5t-424.5 -164.5zM399 1620q4 123 62.5 187.5t154.5 64.5q44 0 81 -21t58 -46.5t49 -46.5t56 -21q42 0 65 33.5t25 91.5h131
q-4 -120 -61 -186t-152 -66q-44 0 -81.5 21t-59 45.5t-50 45.5t-56.5 21q-42 0 -64.5 -33t-24.5 -90h-133z" />
    <glyph glyph-name="utilde" unicode="&#x169;" horiz-adv-x="1228" 
d="M614 -20q-207 0 -344 140t-137 353v617h166v-621q0 -143 87 -234.5t228 -91.5q140 0 228 92t88 234v621h166v-617q0 -213 -137.5 -353t-344.5 -140zM272 1276q4 123 62.5 187.5t154.5 64.5q44 0 81 -21t58 -46.5t49 -46.5t56 -21q42 0 65 33.5t25 91.5h131
q-4 -120 -61 -186t-152 -66q-44 0 -81.5 21t-59 45.5t-50 45.5t-56.5 21q-42 0 -64 -33t-24 -90h-134z" />
    <glyph glyph-name="Umacron" unicode="&#x16a;" horiz-adv-x="1482" 
d="M741 -20q-259 0 -424 164.5t-165 430.5v859h165v-859q0 -192 114 -312t310 -120q195 0 309.5 120t114.5 312v859h166v-859q0 -266 -165.5 -430.5t-424.5 -164.5zM430 1663v133h629v-133h-629z" />
    <glyph glyph-name="umacron" unicode="&#x16b;" horiz-adv-x="1228" 
d="M614 -20q-207 0 -344 140t-137 353v617h166v-621q0 -143 87 -234.5t228 -91.5q140 0 228 92t88 234v621h166v-617q0 -213 -137.5 -353t-344.5 -140zM303 1319v133h629v-133h-629z" />
    <glyph glyph-name="Ubreve" unicode="&#x16c;" horiz-adv-x="1482" 
d="M741 -20q-259 0 -424 164.5t-165 430.5v859h165v-859q0 -192 114 -312t310 -120q195 0 309.5 120t114.5 312v859h166v-859q0 -266 -165.5 -430.5t-424.5 -164.5zM432 1870h135q3 -76 49 -124t125 -48q77 0 123 48t49 124h136q-7 -140 -92 -220.5t-216 -80.5
q-132 0 -216 80.5t-93 220.5z" />
    <glyph glyph-name="ubreve" unicode="&#x16d;" horiz-adv-x="1228" 
d="M614 -20q-207 0 -344 140t-137 353v617h166v-621q0 -143 87 -234.5t228 -91.5q140 0 228 92t88 234v621h166v-617q0 -213 -137.5 -353t-344.5 -140zM305 1526h135q3 -76 49 -124t125 -48q77 0 123 48t49 124h136q-7 -140 -92 -220.5t-216 -80.5q-132 0 -216 80.5
t-93 220.5z" />
    <glyph glyph-name="Uring" unicode="&#x16e;" horiz-adv-x="1482" 
d="M741 -20q-259 0 -424 164.5t-165 430.5v859h165v-859q0 -192 114 -312t310 -120q195 0 309.5 120t114.5 312v859h166v-859q0 -266 -165.5 -430.5t-424.5 -164.5zM522 1757q0 91 64.5 156t156.5 65q91 0 155.5 -65t64.5 -156q0 -92 -64.5 -156.5t-155.5 -64.5
q-92 0 -156.5 64.5t-64.5 156.5zM629 1759q0 -50 32.5 -83.5t81.5 -33.5q48 0 81.5 34t33.5 83q0 46 -34 79.5t-81 33.5q-49 0 -81.5 -33t-32.5 -80z" />
    <glyph glyph-name="uring" unicode="&#x16f;" horiz-adv-x="1228" 
d="M614 -20q-207 0 -344 140t-137 353v617h166v-621q0 -143 87 -234.5t228 -91.5q140 0 228 92t88 234v621h166v-617q0 -213 -137.5 -353t-344.5 -140zM393 1413q0 91 64.5 156t156.5 65q91 0 155.5 -65t64.5 -156q0 -92 -64.5 -156.5t-155.5 -64.5q-92 0 -156.5 64.5
t-64.5 156.5zM500 1415q0 -50 32.5 -83.5t81.5 -33.5q48 0 81.5 34t33.5 83q0 46 -34 79.5t-81 33.5q-49 0 -81.5 -33t-32.5 -80z" />
    <glyph glyph-name="Uhungarumlaut" unicode="&#x170;" horiz-adv-x="1482" 
d="M741 -20q-259 0 -424 164.5t-165 430.5v859h165v-859q0 -192 114 -312t310 -120q195 0 309.5 120t114.5 312v859h166v-859q0 -266 -165.5 -430.5t-424.5 -164.5zM475 1593l158 340h192l-215 -340h-135zM831 1593l158 340h193l-215 -340h-136z" />
    <glyph glyph-name="uhungarumlaut" unicode="&#x171;" horiz-adv-x="1228" 
d="M614 -20q-207 0 -344 140t-137 353v617h166v-621q0 -143 87 -234.5t228 -91.5q140 0 228 92t88 234v621h166v-617q0 -213 -137.5 -353t-344.5 -140zM348 1249l158 340h192l-215 -340h-135zM705 1249l157 340h193l-215 -340h-135z" />
    <glyph glyph-name="Uogonek" unicode="&#x172;" horiz-adv-x="1482" 
d="M766 -430q-103 0 -165 54t-62 151q0 60 32.5 114.5t98.5 94.5q-231 24 -374.5 184.5t-143.5 406.5v859h165v-859q0 -192 114 -312t310 -120q195 0 309.5 120t114.5 312v859h166v-859q0 -224 -119.5 -379t-318.5 -200q-197 -63 -197 -182q0 -50 30 -78.5t85 -28.5
q59 0 104 25l-12 -133q-56 -29 -137 -29z" />
    <glyph glyph-name="uogonek" unicode="&#x173;" horiz-adv-x="1228" 
d="M616 -430q-103 0 -165 54t-62 151q0 62 34 117.5t103 95.5q-175 29 -284 162.5t-109 322.5v617h166v-621q0 -143 87 -234.5t228 -91.5q140 0 228 92t88 234v621h166v-617q0 -180 -100 -310t-261 -169q-188 -63 -188 -180q0 -50 30 -78.5t85 -28.5q59 0 104 25l-12 -133
q-56 -29 -138 -29z" />
    <glyph glyph-name="Wcircumflex" unicode="&#x174;" horiz-adv-x="1998" 
d="M549 -63l-526 1497h178l356 -1076l387 1076h109l385 -1076l358 1076h180l-528 -1497l-451 1234zM694 1567v151l303 199l303 -199v-151l-303 198z" />
    <glyph glyph-name="wcircumflex" unicode="&#x175;" horiz-adv-x="1669" 
d="M360 0l-337 1090h178l254 -887l293 887h176l295 -887l254 887h176l-338 -1090h-176l-299 889l-299 -889h-177zM532 1223v151l304 199l303 -199v-151l-303 198z" />
    <glyph glyph-name="Ycircumflex" unicode="&#x176;" horiz-adv-x="1314" 
d="M586 0v518l-570 916h191l465 -746l444 746h182l-546 -912v-522h-166zM354 1567v151l303 199l304 -199v-151l-304 198z" />
    <glyph glyph-name="ycircumflex" unicode="&#x177;" horiz-adv-x="1120" 
d="M248 -410l229 504l-469 996h185l374 -807l355 807h178l-670 -1500h-182zM258 1223v151l303 199l303 -199v-151l-303 198z" />
    <glyph glyph-name="Ydieresis" unicode="&#x178;" horiz-adv-x="1314" 
d="M586 0v518l-570 916h191l465 -746l444 746h182l-546 -912v-522h-166zM344 1753q0 44 31.5 76.5t75.5 32.5t76 -32.5t32 -76.5t-32 -75t-76 -31t-75.5 31t-31.5 75zM758 1753q0 45 31 77t75 32t76.5 -32.5t32.5 -76.5t-32 -75t-77 -31q-44 0 -75 31t-31 75z" />
    <glyph glyph-name="Zacute" unicode="&#x179;" horiz-adv-x="1232" 
d="M29 0l872 1274h-819v160h1122l-872 -1274h870v-160h-1173zM535 1585l165 340h191l-223 -340h-133z" />
    <glyph glyph-name="zacute" unicode="&#x17a;" horiz-adv-x="1060" 
d="M39 0l672 930h-627v160h928l-672 -930h668v-160h-969zM455 1241l166 340h190l-223 -340h-133z" />
    <glyph glyph-name="Zdotaccent" unicode="&#x17b;" horiz-adv-x="1232" 
d="M29 0l872 1274h-819v160h1122l-872 -1274h870v-160h-1173zM508 1753q0 45 31 77t75 32t76.5 -32.5t32.5 -76.5t-32 -75t-77 -31q-44 0 -75 31t-31 75z" />
    <glyph glyph-name="zdotaccent" unicode="&#x17c;" horiz-adv-x="1060" 
d="M39 0l672 930h-627v160h928l-672 -930h668v-160h-969zM428 1409q0 44 31.5 76.5t75.5 32.5t76 -32.5t32 -76.5t-32 -75t-76 -31t-75.5 31t-31.5 75z" />
    <glyph glyph-name="Zcaron" unicode="&#x17d;" horiz-adv-x="1232" 
d="M29 0l872 1274h-819v160h1122l-872 -1274h870v-160h-1173zM311 1749v152l303 -199l304 199v-152l-304 -199z" />
    <glyph glyph-name="zcaron" unicode="&#x17e;" horiz-adv-x="1060" 
d="M39 0l672 930h-627v160h928l-672 -930h668v-160h-969zM231 1405v151l304 -198l303 198v-151l-303 -199z" />
    <glyph glyph-name="uni018F" unicode="&#x18f;" horiz-adv-x="1650" 
d="M825 -20q-155 0 -293 58t-235.5 156t-154.5 231.5t-58 281.5v45h1313q-9 149 -86 272t-205 194.5t-281 71.5q-181 0 -313 -82t-197 -231h-192q80 220 267 348.5t435 128.5q155 0 293.5 -58t236.5 -156.5t155 -234.5t57 -288t-57 -288t-155 -234.5t-236.5 -156.5
t-293.5 -58zM264 604q36 -198 192.5 -329.5t368.5 -131.5q211 0 366.5 130t194.5 331h-1122z" />
    <glyph glyph-name="florin" unicode="&#x192;" horiz-adv-x="653" 
d="M219 0v930h-188v160h188v153q0 150 81 231.5t218 81.5h115v-159h-109q-66 0 -102.5 -41t-36.5 -117v-149h248v-160h-248v-930h-166z" />
    <glyph glyph-name="Ohorn" unicode="&#x1a0;" horiz-adv-x="1648" 
d="M825 -20q-155 0 -293 58t-236 156.5t-155 234.5t-57 288t57 288t155 234.5t236 156.5t293 58q98 0 179 -20q109 2 159.5 39.5t50.5 125.5q0 40 -6 70h166q6 -30 6 -72q0 -184 -151 -258q156 -100 246 -264t90 -358q0 -152 -57 -288t-154.5 -234.5t-235.5 -156.5t-293 -58
zM254 717q0 -158 74 -289.5t205.5 -208t291.5 -76.5q159 0 290 76.5t205.5 208t74.5 289.5q0 117 -44 223t-119 183t-181.5 122t-225.5 45q-160 0 -291.5 -77t-205.5 -208t-74 -288z" />
    <glyph glyph-name="ohorn" unicode="&#x1a1;" horiz-adv-x="1273" 
d="M637 -20q-157 0 -287.5 75.5t-205 205.5t-74.5 284t74.5 284t205 205.5t287.5 75.5q77 0 147 -18q94 5 139.5 43t45.5 120q0 40 -6 70h165q7 -35 7 -72q0 -199 -197 -256q127 -63 196.5 -185t69.5 -267q0 -154 -74.5 -284t-205 -205.5t-287.5 -75.5zM240 545
q0 -166 116 -284t281 -118t281 118t116 284t-116 283.5t-281 117.5t-281 -117.5t-116 -283.5z" />
    <glyph glyph-name="Uhorn" unicode="&#x1af;" horiz-adv-x="1482" 
d="M741 -20q-259 0 -424 164.5t-165 430.5v859h165v-859q0 -192 114 -312t310 -120q195 0 309.5 120t114.5 312v859h25q114 0 167.5 37.5t53.5 127.5q0 40 -6 70h166q6 -30 6 -72q0 -115 -62 -189.5t-184 -100.5v-732q0 -266 -165.5 -430.5t-424.5 -164.5z" />
    <glyph glyph-name="uhorn" unicode="&#x1b0;" horiz-adv-x="1228" 
d="M614 -20q-207 0 -344 140t-137 353v617h166v-621q0 -143 87 -234.5t228 -91.5q140 0 228 92t88 234v621h12q114 0 167.5 37.5t53.5 127.5q0 40 -6 70h166q6 -30 6 -72q0 -112 -58.5 -185.5t-174.5 -102.5v-492q0 -213 -137.5 -353t-344.5 -140z" />
    <glyph glyph-name="uni0218" unicode="&#x218;" horiz-adv-x="1331" 
d="M684 -20q-280 0 -434 125.5t-172 338.5h170q11 -141 116.5 -223t313.5 -82q202 0 301.5 66.5t99.5 179.5q0 123 -101 184.5t-333 89.5q-98 12 -175 30.5t-143.5 50t-110.5 74.5t-68.5 105t-24.5 140q0 178 145 286.5t375 108.5q254 0 406.5 -118.5t167.5 -321.5h-168
q-12 133 -119 206.5t-285 73.5q-160 0 -256 -61.5t-96 -173.5q0 -107 93.5 -161.5t299.5 -80.5q287 -33 424 -132.5t137 -291.5q0 -188 -147 -300.5t-416 -112.5zM510 -410l74 326h184l-133 -326h-125z" />
    <glyph glyph-name="uni0219" unicode="&#x219;" horiz-adv-x="1058" 
d="M543 -20q-206 0 -331 100.5t-136 271.5h170q6 -103 83 -164t212 -61q136 0 206 44.5t70 123.5q0 37 -15.5 65.5t-40 47t-67.5 33t-85.5 23t-106.5 17.5q-195 27 -298.5 100t-103.5 216q0 145 116.5 229t307.5 84q174 0 296.5 -90t135.5 -252h-170q-9 92 -77.5 143.5
t-184.5 51.5q-125 0 -191.5 -41t-66.5 -113q0 -36 15 -62.5t38 -44t65.5 -31.5t83 -22t105.5 -18q74 -12 129.5 -26t111 -39t90.5 -59.5t57 -87t22 -120.5q0 -144 -122 -231.5t-318 -87.5zM362 -410l74 326h185l-134 -326h-125z" />
    <glyph glyph-name="uni021A" unicode="&#x21a;" horiz-adv-x="1212" 
d="M524 0v1274h-504v160h1172v-160h-502v-1274h-166zM444 -410l74 326h184l-133 -326h-125z" />
    <glyph glyph-name="uni021B" unicode="&#x21b;" horiz-adv-x="663" 
d="M522 0q-150 0 -236.5 88.5t-86.5 255.5v586h-189v160h189v225l166 53v-278h268v-160h-268v-582q0 -93 42 -140.5t121 -47.5h105v-160h-111zM254 -410l74 326h184l-133 -326h-125z" />
    <glyph glyph-name="uni0237" unicode="&#x237;" horiz-adv-x="458" 
d="M-27 -410v160h33q68 0 104.5 41t36.5 117v1182h166v-1186q0 -151 -81.5 -232.5t-219.5 -81.5h-39z" />
    <glyph glyph-name="uni0259" unicode="&#x259;" horiz-adv-x="1245" 
d="M614 1110q157 0 286 -75.5t202.5 -205t73.5 -284.5q0 -116 -42 -220t-115 -180t-177.5 -120.5t-223.5 -44.5q-240 0 -394 152.5t-154 379.5q0 39 8 72h930q-14 156 -124.5 261t-269.5 105q-211 0 -329 -174h-183q66 151 202.5 242.5t309.5 91.5zM244 436
q25 -135 125 -219t249 -84q145 0 246.5 83t132.5 220h-753z" />
    <glyph glyph-name="uni02BC" unicode="&#x2bc;" horiz-adv-x="1228" 
 />
    <glyph glyph-name="circumflex" unicode="&#x2c6;" horiz-adv-x="612" 
d="M0 1223v151l303 199l303 -199v-151l-303 198z" />
    <glyph glyph-name="caron" unicode="&#x2c7;" horiz-adv-x="622" 
d="M0 1556l303 -198l303 198v-151l-303 -199l-303 199v151z" />
    <glyph glyph-name="breve" unicode="&#x2d8;" horiz-adv-x="632" 
d="M317 1225q-132 0 -216 80.5t-93 220.5h135q3 -76 49 -124t125 -48q77 0 123 48t49 124h136q-7 -140 -92 -220.5t-216 -80.5z" />
    <glyph glyph-name="dotaccent" unicode="&#x2d9;" horiz-adv-x="243" 
d="M121 1303q-44 0 -75.5 31t-31.5 75t31.5 76.5t75.5 32.5t76 -32.5t32 -76.5t-32 -75t-76 -31z" />
    <glyph glyph-name="ring" unicode="&#x2da;" horiz-adv-x="440" 
d="M221 1192q-92 0 -156.5 64.5t-64.5 156.5q0 91 64.5 156t156.5 65q91 0 155 -65t64 -156q0 -92 -64 -156.5t-155 -64.5zM106 1415q0 -50 33 -83.5t82 -33.5q48 0 81.5 34t33.5 83q0 46 -34 79.5t-81 33.5q-49 0 -82 -33.5t-33 -79.5z" />
    <glyph glyph-name="ogonek" unicode="&#x2db;" horiz-adv-x="872" 
d="M471 -430q-103 0 -165 54t-62 151q0 85 64 156t196 104l106 -35q-209 -63 -209 -186q0 -50 30 -78.5t85 -28.5q60 0 105 25l-13 -133q-56 -29 -137 -29z" />
    <glyph glyph-name="tilde" unicode="&#x2dc;" horiz-adv-x="665" 
d="M461 1266q-44 0 -81.5 21t-59.5 45.5t-50.5 45.5t-56.5 21q-42 0 -64 -33t-24 -90h-133q4 123 62.5 187.5t154.5 64.5q44 0 81 -21t58 -46.5t49 -46.5t56 -21q42 0 65 33.5t25 91.5h131q-4 -120 -61 -186t-152 -66z" />
    <glyph glyph-name="hungarumlaut" unicode="&#x2dd;" horiz-adv-x="714" 
d="M373 1249l157 340h193l-215 -340h-135zM16 1249l158 340h193l-215 -340h-136z" />
    <glyph glyph-name="gravecomb" unicode="&#x300;" horiz-adv-x="0" 
 />
    <glyph glyph-name="acutecomb" unicode="&#x301;" horiz-adv-x="0" 
 />
    <glyph glyph-name="uni0302" unicode="&#x302;" horiz-adv-x="0" 
 />
    <glyph glyph-name="tildecomb" unicode="&#x303;" horiz-adv-x="0" 
 />
    <glyph glyph-name="uni0306" unicode="&#x306;" horiz-adv-x="0" 
 />
    <glyph glyph-name="hookabovecomb" unicode="&#x309;" horiz-adv-x="0" 
d="M147 1241q0 37 21 66t46 44t46 36.5t21 46.5q0 59 -74 59q-39 0 -61.5 -23t-22.5 -65h-123q0 84 57 140.5t158 56.5q95 0 145 -42t50 -110q0 -36 -14 -64t-34.5 -45t-41 -31.5t-34.5 -31.5t-14 -37h-125z" />
    <glyph glyph-name="uni031B" unicode="&#x31b;" horiz-adv-x="0" 
d="M20 1090q114 0 168 37.5t54 127.5q0 40 -6 70h165q7 -35 7 -72q0 -145 -98.5 -225t-289.5 -80v142z" />
    <glyph glyph-name="dotbelowcomb" unicode="&#x323;" horiz-adv-x="0" 
d="M106 -428q-44 0 -75 31t-31 75q0 45 31 77t75 32t76.5 -32.5t32.5 -76.5t-32 -75t-77 -31z" />
    <glyph glyph-name="uni0326" unicode="&#x326;" horiz-adv-x="0" 
d="M0 -410l74 326h184l-133 -326h-125z" />
    <glyph glyph-name="uni0374" unicode="&#x374;" horiz-adv-x="313" 
d="M88 924l-14 510h166l-15 -510h-137z" />
    <glyph glyph-name="uni0375" unicode="&#x375;" horiz-adv-x="366" 
d="M43 -207l78 434h178l-119 -434h-137z" />
    <glyph glyph-name="uni037E" unicode="&#x37e;" horiz-adv-x="374" 
d="M43 -207l78 434h178l-119 -434h-137zM61 989q0 51 35.5 87t85.5 36q51 0 87 -36t36 -87q0 -50 -36 -85.5t-87 -35.5q-50 0 -85.5 36t-35.5 85z" />
    <glyph glyph-name="tonos" unicode="&#x384;" horiz-adv-x="356" 
d="M0 1241l166 340h190l-223 -340h-133z" />
    <glyph glyph-name="dieresistonos" unicode="&#x385;" horiz-adv-x="649" 
d="M205 1241l86 340h151l-137 -340h-100zM-20 1407q0 38 27 66t65 28q37 0 64.5 -28t27.5 -66q0 -37 -27.5 -64.5t-64.5 -27.5q-38 0 -65 27.5t-27 64.5zM459 1407q0 38 27 66t65 28q37 0 64.5 -28t27.5 -66q0 -37 -27.5 -64.5t-64.5 -27.5q-38 0 -65 27.5t-27 64.5z" />
    <glyph glyph-name="Alphatonos" unicode="&#x386;" horiz-adv-x="1488" 
d="M49 1069l113 340h190l-170 -340h-133zM8 0l737 1499l736 -1499h-187l-186 391h-729l-186 -391h-185zM451 539h585l-293 612z" />
    <glyph glyph-name="anoteleia" unicode="&#x387;" horiz-adv-x="366" 
d="M182 446q-50 0 -85.5 36t-35.5 85q0 51 35.5 87t85.5 36q51 0 87 -36t36 -87q0 -50 -36 -85.5t-87 -35.5z" />
    <glyph glyph-name="Epsilontonos" unicode="&#x388;" horiz-adv-x="1470" 
d="M0 1094l113 340h190l-170 -340h-133zM373 0v1434h1003v-160h-837v-461h776v-160h-776v-493h858v-160h-1024z" />
    <glyph glyph-name="Etatonos" unicode="&#x389;" horiz-adv-x="1720" 
d="M0 1094l113 340h190l-170 -340h-133zM373 0v1434h166v-586h847v586h166v-1434h-166v688h-847v-688h-166z" />
    <glyph glyph-name="Iotatonos" unicode="&#x38a;" horiz-adv-x="704" 
d="M0 1094l113 340h190l-170 -340h-133zM373 0v1434h166v-1434h-166z" />
    <glyph glyph-name="Omicrontonos" unicode="&#x38c;" horiz-adv-x="1794" 
d="M0 1094l113 340h190l-170 -340h-133zM229 717q0 152 57 288t155 234.5t236.5 156.5t293.5 58q207 0 377 -98.5t266 -267t96 -371.5t-96 -371.5t-266 -267t-377 -98.5q-155 0 -293.5 58t-236.5 156.5t-155 234.5t-57 288zM399 717q0 -158 74.5 -289.5t206 -208
t291.5 -76.5q159 0 290 76.5t205 208t74 289.5q0 157 -74 288t-205 208t-290 77q-160 0 -291.5 -77t-206 -208t-74.5 -288z" />
    <glyph glyph-name="Upsilontonos" unicode="&#x38e;" horiz-adv-x="1622" 
d="M0 1094l113 340h190l-170 -340h-133zM324 1434h190l465 -746l444 746h183l-547 -912v-522h-166v518z" />
    <glyph glyph-name="Omegatonos" unicode="&#x38f;" horiz-adv-x="1794" 
d="M0 1094l113 340h190l-170 -340h-133zM229 733q0 202 97 367.5t267 259.5t378 94q156 0 293 -55.5t235 -151t154.5 -229.5t56.5 -285q0 -190 -80.5 -340t-212.5 -233h281v-160h-604v131q121 21 222.5 102t162.5 213t61 287q0 118 -43.5 221.5t-119 177t-181 116
t-225.5 42.5q-161 0 -292 -72t-205.5 -200t-74.5 -285q0 -234 130.5 -402t318.5 -200v-131h-606v160h282q-133 83 -214 233t-81 340z" />
    <glyph glyph-name="iotadieresistonos" unicode="&#x390;" horiz-adv-x="458" 
d="M147 0v1090h166v-1090h-166zM-82 1386q0 39 27 67t65 28q37 0 64.5 -28.5t27.5 -66.5q0 -37 -27.5 -64.5t-64.5 -27.5q-38 0 -65 27.5t-27 64.5zM143 1221l86 340h152l-137 -340h-101zM397 1386q0 39 27 67t65 28q37 0 65 -28.5t28 -66.5q0 -37 -28 -64.5t-65 -27.5
q-38 0 -65 27.5t-27 64.5z" />
    <glyph glyph-name="Alpha" unicode="&#x391;" horiz-adv-x="1488" 
d="M8 0l737 1499l736 -1499h-187l-186 391h-729l-186 -391h-185zM451 539h585l-293 612z" />
    <glyph glyph-name="Beta" unicode="&#x392;" horiz-adv-x="1462" 
d="M168 0v1434h719q183 0 301.5 -102t118.5 -271q0 -104 -52 -180.5t-141 -116.5q121 -43 192.5 -135t71.5 -219q0 -119 -61 -213.5t-163.5 -145.5t-225.5 -51h-760zM334 160h586q118 0 203 71.5t85 184.5q0 111 -86.5 183.5t-208.5 72.5h-579v-512zM334 827h547
q107 0 181.5 62t74.5 164q0 104 -74 162.5t-184 58.5h-545v-447z" />
    <glyph glyph-name="Gamma" unicode="&#x393;" horiz-adv-x="1056" 
d="M168 0v1434h901v-160h-735v-1274h-166z" />
    <glyph glyph-name="uni0394" unicode="&#x394;" horiz-adv-x="1460" 
d="M8 0l723 1499l721 -1499h-1444zM262 147h934l-467 998z" />
    <glyph glyph-name="Epsilon" unicode="&#x395;" horiz-adv-x="1265" 
d="M168 0v1434h1003v-160h-837v-461h776v-160h-776v-493h858v-160h-1024z" />
    <glyph glyph-name="Zeta" unicode="&#x396;" horiz-adv-x="1232" 
d="M29 0l872 1274h-819v160h1122l-872 -1274h870v-160h-1173z" />
    <glyph glyph-name="Eta" unicode="&#x397;" horiz-adv-x="1515" 
d="M168 0v1434h166v-586h848v586h166v-1434h-166v688h-848v-688h-166z" />
    <glyph glyph-name="Theta" unicode="&#x398;" horiz-adv-x="1648" 
d="M512 657v136h629v-136h-629zM84 717q0 152 57 288t155 234.5t236 156.5t293 58t293 -58t235.5 -156.5t154.5 -234.5t57 -288t-57 -288t-154.5 -234.5t-235.5 -156.5t-293 -58t-293 58t-236 156.5t-155 234.5t-57 288zM254 717q0 -158 74 -289.5t205.5 -208t291.5 -76.5
q159 0 290 76.5t205.5 208t74.5 289.5q0 117 -44 223t-119 183t-181.5 122t-225.5 45q-160 0 -291.5 -77t-205.5 -208t-74 -288z" />
    <glyph glyph-name="Iota" unicode="&#x399;" horiz-adv-x="499" 
d="M168 0v1434h166v-1434h-166z" />
    <glyph glyph-name="Kappa" unicode="&#x39a;" horiz-adv-x="1341" 
d="M1126 0l-706 733l686 701h203l-680 -695l712 -739h-215zM168 0v1434h166v-1434h-166z" />
    <glyph glyph-name="Lambda" unicode="&#x39b;" horiz-adv-x="1382" 
d="M682 1497l686 -1497h-186l-504 1133l-485 -1133h-181z" />
    <glyph glyph-name="Mu" unicode="&#x39c;" horiz-adv-x="1781" 
d="M168 0v1475l733 -828l713 828v-1475h-166v1075l-547 -667l-567 667v-1075h-166z" />
    <glyph glyph-name="Nu" unicode="&#x39d;" horiz-adv-x="1536" 
d="M1368 -53l-1034 1138v-1085h-166v1487l1034 -1139v1086h166v-1487z" />
    <glyph glyph-name="Xi" unicode="&#x39e;" horiz-adv-x="1230" 
d="M74 0v160h1083v-160h-1083zM74 1274v160h1063v-160h-1063zM176 653v160h879v-160h-879z" />
    <glyph glyph-name="Omicron" unicode="&#x39f;" horiz-adv-x="1648" 
d="M825 -20q-155 0 -293 58t-236 156.5t-155 234.5t-57 288t57 288t155 234.5t236 156.5t293 58t293 -58t235.5 -156.5t154.5 -234.5t57 -288t-57 -288t-154.5 -234.5t-235.5 -156.5t-293 -58zM254 717q0 -158 74 -289.5t205.5 -208t291.5 -76.5q159 0 290 76.5t205.5 208
t74.5 289.5q0 117 -44 223t-119 183t-181.5 122t-225.5 45q-160 0 -291.5 -77t-205.5 -208t-74 -288z" />
    <glyph glyph-name="Pi" unicode="&#x3a0;" horiz-adv-x="1515" 
d="M168 0v1434h1180v-1434h-166v1274h-848v-1274h-166z" />
    <glyph glyph-name="Rho" unicode="&#x3a1;" horiz-adv-x="1337" 
d="M168 0v1434h655q125 0 229 -57.5t165 -160.5t61 -229q0 -192 -132 -320t-323 -128h-489v-539h-166zM334 698h481q121 0 204 83t83 206q0 122 -83 204.5t-204 82.5h-481v-576z" />
    <glyph glyph-name="Sigma" unicode="&#x3a3;" horiz-adv-x="1214" 
d="M29 0l549 725l-549 709h1091v-160h-782l438 -549l-438 -565h803v-160h-1112z" />
    <glyph glyph-name="Tau" unicode="&#x3a4;" horiz-adv-x="1212" 
d="M524 0v1274h-504v160h1172v-160h-502v-1274h-166z" />
    <glyph glyph-name="Upsilon" unicode="&#x3a5;" horiz-adv-x="1314" 
d="M586 0v518l-570 916h191l465 -746l444 746h182l-546 -912v-522h-166z" />
    <glyph glyph-name="Phi" unicode="&#x3a6;" horiz-adv-x="1636" 
d="M735 0v172h-133q-165 0 -295 76t-198 199.5t-68 269.5t68 269.5t198 199.5t295 76h133v172h166v-172h133q165 0 295 -76t198 -199.5t68 -269.5t-68 -269.5t-198 -199.5t-295 -76h-133v-172h-166zM211 719q0 -157 109 -271t290 -114h125v770h-125q-181 0 -290 -114
t-109 -271zM901 334h125q181 0 290 114t109 271t-109 271t-290 114h-125v-770z" />
    <glyph glyph-name="Chi" unicode="&#x3a7;" horiz-adv-x="1349" 
d="M29 0l540 735l-528 699h201l442 -580l424 580h195l-523 -711l549 -723h-201l-460 604l-445 -604h-194z" />
    <glyph glyph-name="Psi" unicode="&#x3a8;" horiz-adv-x="1550" 
d="M858 397v-397h-166v397h-102q-154 0 -277 72t-188.5 191t-65.5 260v514l170 2v-514q0 -96 43.5 -178t129 -133.5t196.5 -51.5h94v875h166v-875h94q111 0 196.5 51.5t129 133.5t43.5 178v514l170 -2v-514q0 -141 -65.5 -260t-187.5 -191t-275 -72h-105z" />
    <glyph glyph-name="uni03A9" unicode="&#x3a9;" horiz-adv-x="1648" 
d="M948 131q187 32 317 200.5t130 401.5q0 157 -74.5 285t-205 200t-290.5 72q-161 0 -291.5 -72t-205 -200t-74.5 -285q0 -234 130 -402t318 -200v-131h-606v160h283q-133 83 -214 233t-81 340q0 151 57 285t155 229.5t235.5 151t293.5 55.5q208 0 377.5 -94t266 -259.5
t96.5 -367.5q0 -190 -80.5 -340t-212.5 -233h280v-160h-604v131z" />
    <glyph glyph-name="Iotadieresis" unicode="&#x3aa;" horiz-adv-x="499" 
d="M168 0v1434h166v-1434h-166zM-63 1753q0 45 31 77t75 32t76.5 -32.5t32.5 -76.5t-32 -75t-77 -31q-44 0 -75 31t-31 75zM350 1753q0 44 31.5 76.5t75.5 32.5t76 -32.5t32 -76.5t-32 -75t-76 -31t-75.5 31t-31.5 75z" />
    <glyph glyph-name="Upsilondieresis" unicode="&#x3ab;" horiz-adv-x="1314" 
d="M586 0v518l-570 916h191l465 -746l444 746h182l-546 -912v-522h-166zM344 1753q0 44 31.5 76.5t75.5 32.5t76 -32.5t32 -76.5t-32 -75t-76 -31t-75.5 31t-31.5 75zM758 1753q0 45 31 77t75 32t76.5 -32.5t32.5 -76.5t-32 -75t-77 -31q-44 0 -75 31t-31 75z" />
    <glyph glyph-name="alphatonos" unicode="&#x3ac;" 
d="M618 -20q-150 0 -276 75t-199 205t-73 285t73 285t199 205t276 75q135 0 243 -64t171 -174v218h160v-1090h-160v217q-63 -110 -171 -173.5t-243 -63.5zM240 545q0 -169 115.5 -285.5t281.5 -116.5q167 0 282 117t115 285q0 169 -115 285t-282 116q-166 0 -281.5 -116.5
t-115.5 -284.5zM565 1241l166 340h191l-224 -340h-133z" />
    <glyph glyph-name="epsilontonos" unicode="&#x3ad;" horiz-adv-x="1126" 
d="M580 -20q-222 0 -353 83t-131 232q0 108 66.5 179.5t169.5 96.5q-211 58 -211 250q0 140 123.5 214.5t328.5 74.5q128 0 232 -41.5t167 -122t68 -186.5h-166q-7 94 -89.5 145t-211.5 51q-282 0 -282 -151q0 -79 70 -123.5t204 -44.5h150v-148h-150q-138 0 -218.5 -45.5
t-80.5 -134.5q0 -86 82 -131t232 -45q128 0 214.5 56.5t96.5 162.5h166q-7 -118 -73 -203.5t-170 -127t-234 -41.5zM485 1241l166 340h191l-224 -340h-133z" />
    <glyph glyph-name="etatonos" unicode="&#x3ae;" horiz-adv-x="1286" 
d="M973 600q0 152 -87.5 249t-228.5 97q-137 0 -240.5 -99.5t-103.5 -246.5v-600h-166v1090h160v-207q54 105 153.5 166t227.5 61q141 0 244.5 -65t155 -175t51.5 -249v-1031h-166v1010zM563 1241l166 340h191l-224 -340h-133z" />
    <glyph glyph-name="iotatonos" unicode="&#x3af;" horiz-adv-x="458" 
d="M147 0v1090h166v-1090h-166zM147 1241l166 340h191l-223 -340h-134z" />
    <glyph glyph-name="upsilondieresistonos" unicode="&#x3b0;" horiz-adv-x="1228" 
d="M614 -20q-207 0 -344 140t-137 353v617h166v-621q0 -143 87 -234.5t228 -91.5q140 0 228 92t88 234v621h166v-617q0 -213 -137.5 -353t-344.5 -140zM303 1386q0 39 27 67t65 28q37 0 64.5 -28.5t27.5 -66.5q0 -37 -27.5 -64.5t-64.5 -27.5q-38 0 -65 27.5t-27 64.5z
M528 1221l86 340h152l-137 -340h-101zM782 1386q0 39 27 67t65 28q37 0 65 -28.5t28 -66.5q0 -37 -28 -64.5t-65 -27.5q-38 0 -65 27.5t-27 64.5z" />
    <glyph glyph-name="alpha" unicode="&#x3b1;" 
d="M618 -20q-150 0 -276 75t-199 205t-73 285t73 285t199 205t276 75q135 0 243 -64t171 -174v218h160v-1090h-160v217q-63 -110 -171 -173.5t-243 -63.5zM240 545q0 -169 115.5 -285.5t281.5 -116.5q167 0 282 117t115 285q0 169 -115 285t-282 116q-166 0 -281.5 -116.5
t-115.5 -284.5z" />
    <glyph glyph-name="beta" unicode="&#x3b2;" horiz-adv-x="1210" 
d="M684 -20q-129 0 -223.5 59t-147.5 162v-611h-166v1422q0 264 132 404t360 140q207 0 332 -117.5t125 -293.5q0 -124 -66.5 -209.5t-175.5 -126.5q132 -44 209.5 -143t77.5 -242q0 -198 -127 -321t-330 -123zM313 545q0 -175 89 -288.5t249 -113.5q142 0 231 76t89 209
q0 145 -100 224t-250 79h-89v152h89q133 0 219 68t86 184q0 114 -77 191t-210 77q-326 0 -326 -397v-461z" />
    <glyph glyph-name="gamma" unicode="&#x3b3;" horiz-adv-x="1134" 
d="M489 -410v410l-466 1090h184l366 -891l361 891h180l-459 -1090v-410h-166z" />
    <glyph glyph-name="delta" unicode="&#x3b4;" horiz-adv-x="1261" 
d="M631 -20q-122 0 -227.5 43t-178 116t-114 173t-41.5 212q0 120 48 220t128.5 163.5t185 94.5t217.5 22l-485 389v143h936v-159h-694l557 -439q229 -173 229 -434q0 -112 -41.5 -212t-114 -173t-178 -116t-227.5 -43zM240 524q0 -157 111 -269t280 -112q170 0 280.5 112
t110.5 269t-111 269t-280 112q-168 0 -279.5 -112.5t-111.5 -268.5z" />
    <glyph glyph-name="epsilon" unicode="&#x3b5;" horiz-adv-x="1126" 
d="M580 -20q-222 0 -353 83t-131 232q0 108 66.5 179.5t169.5 96.5q-211 58 -211 250q0 140 123.5 214.5t328.5 74.5q128 0 232 -41.5t167 -122t68 -186.5h-166q-7 94 -89.5 145t-211.5 51q-282 0 -282 -151q0 -79 70 -123.5t204 -44.5h150v-148h-150q-138 0 -218.5 -45.5
t-80.5 -134.5q0 -86 82 -131t232 -45q128 0 214.5 56.5t96.5 162.5h166q-7 -118 -73 -203.5t-170 -127t-234 -41.5z" />
    <glyph glyph-name="zeta" unicode="&#x3b6;" horiz-adv-x="1024" 
d="M70 385q0 104 36.5 220t113 245.5t208 270.5t307.5 276h-612v159h874v-143q-165 -113 -298 -235t-217 -228.5t-140 -211t-79 -186t-23 -149.5q0 -106 52.5 -162t172.5 -71l192 -23q176 -22 268.5 -110.5t92.5 -239.5q0 -109 -43 -207h-174q47 117 47 195q0 171 -219 197
l-193 22q-366 41 -366 381z" />
    <glyph glyph-name="eta" unicode="&#x3b7;" horiz-adv-x="1286" 
d="M973 600q0 152 -87.5 249t-228.5 97q-137 0 -240.5 -99.5t-103.5 -246.5v-600h-166v1090h160v-207q54 105 153.5 166t227.5 61q141 0 244.5 -65t155 -175t51.5 -249v-1031h-166v1010z" />
    <glyph glyph-name="theta" unicode="&#x3b8;" horiz-adv-x="1269" 
d="M635 -20q-231 0 -366.5 146.5t-135.5 387.5v516q0 242 135.5 388.5t366.5 146.5q230 0 366 -147t136 -388v-516q0 -241 -136 -387.5t-366 -146.5zM291 502q0 -171 94 -271t250 -100q155 0 248.5 100t93.5 271v200h-686v-200zM291 842h686v200q0 171 -93.5 271t-248.5 100
q-156 0 -250 -100t-94 -271v-200z" />
    <glyph glyph-name="iota" unicode="&#x3b9;" horiz-adv-x="458" 
d="M147 0v1090h166v-1090h-166z" />
    <glyph glyph-name="kappa" unicode="&#x3ba;" horiz-adv-x="1091" 
d="M879 0l-508 573l491 517h197l-492 -506l514 -584h-202zM147 0v1090h166v-1090h-166z" />
    <glyph glyph-name="lambda" unicode="&#x3bb;" horiz-adv-x="1079" 
d="M8 0l449 995l-254 561h182l694 -1556h-186l-352 807l-355 -807h-178z" />
    <glyph glyph-name="uni03BC" unicode="&#x3bc;" horiz-adv-x="1265" 
d="M600 -20q-176 0 -287 108v-498h-166v1500h166v-609q0 -157 84 -247.5t221 -90.5q130 0 232 96.5t102 241.5v609h166v-1090h-160v195q-52 -100 -145 -157.5t-213 -57.5z" />
    <glyph glyph-name="nu" unicode="&#x3bd;" horiz-adv-x="1134" 
d="M487 0l-464 1090h184l366 -891l361 891h180l-457 -1090h-170z" />
    <glyph glyph-name="xi" unicode="&#x3be;" horiz-adv-x="1132" 
d="M84 428q0 149 94 249.5t234 133.5q-58 19 -107.5 47.5t-93 71.5t-68 104t-24.5 135q0 182 133.5 295t351.5 113q217 0 348.5 -111.5t149.5 -296.5h-172q-18 114 -97 181t-223 67q-154 0 -238.5 -69t-84.5 -193q0 -120 95 -195t247 -75h166v-158h-166q-165 0 -270 -75.5
t-105 -211.5q0 -122 79 -189.5t240 -84.5l205 -21q176 -19 269.5 -108t93.5 -240q0 -105 -45 -207h-174q49 114 49 195q0 82 -54 132.5t-165 62.5l-207 20q-226 24 -343.5 128t-117.5 300z" />
    <glyph glyph-name="omicron" unicode="&#x3bf;" horiz-adv-x="1273" 
d="M637 -20q-157 0 -287.5 75.5t-205 205.5t-74.5 284t74.5 284t205 205.5t287.5 75.5t287.5 -75.5t205 -205.5t74.5 -284t-74.5 -284t-205 -205.5t-287.5 -75.5zM240 545q0 -166 116 -284t281 -118t281 118t116 284t-116 283.5t-281 117.5t-281 -117.5t-116 -283.5z" />
    <glyph glyph-name="pi" unicode="&#x3c0;" horiz-adv-x="1331" 
d="M219 0v930h-188v160h1269v-160h-188v-930h-166v930h-561v-930h-166z" />
    <glyph glyph-name="rho" unicode="&#x3c1;" 
d="M147 545q0 154 74.5 284t204 205.5t285.5 75.5q154 0 282.5 -75t202.5 -205t74 -285t-73.5 -285t-200 -205t-275.5 -75q-133 0 -239.5 61.5t-168.5 167.5v-619h-166v955zM313 545q0 -168 111 -285t276 -117q166 0 283 117t117 285t-117 284.5t-283 116.5
q-164 0 -275.5 -117t-111.5 -284z" />
    <glyph glyph-name="uni03C2" unicode="&#x3c2;" horiz-adv-x="1236" 
d="M924 -410q49 114 49 195q0 82 -55 132.5t-166 62.5l-205 20q-225 25 -351 174t-126 385q0 155 73 281t203 198t291 72q201 0 352 -120t193 -306h-176q-37 116 -139 189t-230 73q-171 0 -284 -110.5t-113 -276.5q0 -168 86 -271.5t249 -121.5l205 -21q176 -19 269.5 -108
t93.5 -240q0 -105 -45 -207h-174z" />
    <glyph glyph-name="sigma" unicode="&#x3c3;" 
d="M637 -20q-157 0 -287.5 75.5t-205 205.5t-74.5 284t74.5 284t205 205.5t287.5 75.5q84 0 154 -20h534v-160h-270q149 -159 149 -385q0 -154 -74.5 -284t-205 -205.5t-287.5 -75.5zM240 545q0 -166 116 -284t281 -118t281 118t116 284t-116 283.5t-281 117.5t-281 -117.5
t-116 -283.5z" />
    <glyph glyph-name="tau" unicode="&#x3c4;" horiz-adv-x="937" 
d="M387 0v930h-373v160h910v-160h-371v-930h-166z" />
    <glyph glyph-name="upsilon" unicode="&#x3c5;" horiz-adv-x="1228" 
d="M614 -20q-207 0 -344 140t-137 353v617h166v-621q0 -143 87 -234.5t228 -91.5q140 0 228 92t88 234v621h166v-617q0 -213 -137.5 -353t-344.5 -140z" />
    <glyph glyph-name="phi" unicode="&#x3c6;" horiz-adv-x="1523" 
d="M842 -20v-390h-160v390q-131 0 -245.5 42.5t-194.5 116.5t-126 176.5t-46 219.5q0 221 123.5 365t324.5 175v-164q-129 -32 -203.5 -127t-74.5 -249q0 -171 124.5 -281.5t317.5 -110.5v947h160q131 0 245.5 -42.5t194.5 -116.5t126 -176.5t46 -219.5t-46 -219.5
t-126 -176.5t-194.5 -116.5t-245.5 -42.5zM842 143q193 0 317.5 110.5t124.5 281.5q0 170 -124.5 280.5t-317.5 110.5v-783z" />
    <glyph glyph-name="chi" unicode="&#x3c7;" horiz-adv-x="1114" 
d="M18 -410l431 785l-406 715h195l315 -566l313 566h195l-412 -721l443 -779h-197l-350 631l-332 -631h-195z" />
    <glyph glyph-name="psi" unicode="&#x3c8;" horiz-adv-x="1628" 
d="M893 -8v-402h-160v402q-266 0 -433 150.5t-167 400.5v547h168v-547q0 -184 119.5 -291t312.5 -107v945h160v-945q194 0 313 107t119 291v547h170v-547q0 -250 -167 -400.5t-435 -150.5z" />
    <glyph glyph-name="omega" unicode="&#x3c9;" horiz-adv-x="1708" 
d="M512 -20q-84 0 -156.5 32.5t-129.5 94.5t-89.5 161.5t-32.5 225.5q0 153 36 293.5t116 302.5h166q-80 -173 -114 -310.5t-34 -290.5q0 -178 69 -262t181 -84q114 0 180 83t66 247v383h166v-383q0 -164 67 -247t181 -83q111 0 180.5 84.5t69.5 261.5q0 153 -34 290.5
t-114 310.5h166q80 -162 116 -302.5t36 -293.5q0 -126 -32.5 -225.5t-89.5 -161.5t-129.5 -94.5t-156.5 -32.5q-233 0 -342 229q-109 -229 -342 -229z" />
    <glyph glyph-name="iotadieresis" unicode="&#x3ca;" horiz-adv-x="458" 
d="M147 0v1090h166v-1090h-166zM-84 1409q0 44 31.5 76.5t75.5 32.5t76 -32.5t32 -76.5t-32 -75t-76 -31t-75.5 31t-31.5 75zM330 1409q0 45 31 77t75 32t76.5 -32.5t32.5 -76.5t-32 -75t-77 -31q-44 0 -75 31t-31 75z" />
    <glyph glyph-name="upsilondieresis" unicode="&#x3cb;" horiz-adv-x="1228" 
d="M614 -20q-207 0 -344 140t-137 353v617h166v-621q0 -143 87 -234.5t228 -91.5q140 0 228 92t88 234v621h166v-617q0 -213 -137.5 -353t-344.5 -140zM301 1409q0 44 31.5 76.5t75.5 32.5t76 -32.5t32 -76.5t-32 -75t-76 -31t-75.5 31t-31.5 75zM715 1409q0 45 31 77t75 32
t76.5 -32.5t32.5 -76.5t-32 -75t-77 -31q-44 0 -75 31t-31 75z" />
    <glyph glyph-name="omicrontonos" unicode="&#x3cc;" horiz-adv-x="1273" 
d="M637 -20q-157 0 -287.5 75.5t-205 205.5t-74.5 284t74.5 284t205 205.5t287.5 75.5t287.5 -75.5t205 -205.5t74.5 -284t-74.5 -284t-205 -205.5t-287.5 -75.5zM240 545q0 -166 116 -284t281 -118t281 118t116 284t-116 283.5t-281 117.5t-281 -117.5t-116 -283.5z
M555 1241l166 340h190l-223 -340h-133z" />
    <glyph glyph-name="upsilontonos" unicode="&#x3cd;" horiz-adv-x="1228" 
d="M614 -20q-207 0 -344 140t-137 353v617h166v-621q0 -143 87 -234.5t228 -91.5q140 0 228 92t88 234v621h166v-617q0 -213 -137.5 -353t-344.5 -140zM530 1241l166 340h191l-223 -340h-134z" />
    <glyph glyph-name="omegatonos" unicode="&#x3ce;" horiz-adv-x="1708" 
d="M512 -20q-84 0 -156.5 32.5t-129.5 94.5t-89.5 161.5t-32.5 225.5q0 153 36 293.5t116 302.5h166q-80 -173 -114 -310.5t-34 -290.5q0 -178 69 -262t181 -84q114 0 180 83t66 247v383h166v-383q0 -164 67 -247t181 -83q111 0 180.5 84.5t69.5 261.5q0 153 -34 290.5
t-114 310.5h166q80 -162 116 -302.5t36 -293.5q0 -126 -32.5 -225.5t-89.5 -161.5t-129.5 -94.5t-156.5 -32.5q-233 0 -342 229q-109 -229 -342 -229zM770 1241l166 340h190l-223 -340h-133z" />
    <glyph glyph-name="uni03CF" unicode="&#x3cf;" horiz-adv-x="1341" 
d="M1126 0l-706 733l686 701h203l-680 -695l712 -739h-215zM168 0v1434h166v-1434h-166z" />
    <glyph glyph-name="uni03D7" unicode="&#x3d7;" horiz-adv-x="1091" 
d="M879 0l-508 573l491 517h197l-492 -506l514 -584h-202zM147 0v1090h166v-1090h-166z" />
    <glyph glyph-name="uni0401" unicode="&#x401;" horiz-adv-x="1265" 
d="M168 0v1434h1003v-160h-837v-461h776v-160h-776v-493h858v-160h-1024zM381 1753q0 45 31 77t75 32t76.5 -32.5t32.5 -76.5t-32 -75t-77 -31q-44 0 -75 31t-31 75zM795 1753q0 45 31 77t75 32t76.5 -32.5t32.5 -76.5t-32 -75t-77 -31q-44 0 -75 31t-31 75z" />
    <glyph glyph-name="uni0404" unicode="&#x404;" horiz-adv-x="1622" 
d="M825 -20q-155 0 -293 58t-236 156.5t-155 234.5t-57 288t57 288t155 234.5t236 156.5t293 58q263 0 458.5 -156t254.5 -401h-174q-57 175 -202.5 284t-336.5 109q-217 0 -374 -137.5t-187 -345.5h713v-160h-717q25 -216 183.5 -360t381.5 -144q191 0 336.5 109.5
t200.5 284.5h176q-59 -245 -254.5 -401t-458.5 -156z" />
    <glyph glyph-name="uni0406" unicode="&#x406;" horiz-adv-x="499" 
d="M168 0v1434h166v-1434h-166z" />
    <glyph glyph-name="uni0407" unicode="&#x407;" horiz-adv-x="499" 
d="M168 0v1434h166v-1434h-166zM-63 1753q0 45 31 77t75 32t76.5 -32.5t32.5 -76.5t-32 -75t-77 -31q-44 0 -75 31t-31 75zM350 1753q0 44 31.5 76.5t75.5 32.5t76 -32.5t32 -76.5t-32 -75t-76 -31t-75.5 31t-31.5 75z" />
    <glyph glyph-name="uni040E" unicode="&#x40e;" horiz-adv-x="1374" 
d="M416 0l207 393l-609 1041h191l510 -875l463 875h182l-762 -1434h-182zM379 1870h135q3 -76 49 -124t125 -48q77 0 123 48t49 124h135q-7 -140 -91.5 -220.5t-215.5 -80.5q-132 0 -216 80.5t-93 220.5z" />
    <glyph glyph-name="uni0410" unicode="&#x410;" horiz-adv-x="1488" 
d="M8 0l737 1499l736 -1499h-187l-186 391h-729l-186 -391h-185zM451 539h585l-293 612z" />
    <glyph glyph-name="uni0411" unicode="&#x411;" horiz-adv-x="1357" 
d="M168 0v1434h1014v-160h-848v-412h536q184 0 311.5 -123.5t127.5 -308.5q0 -184 -127 -307t-312 -123h-702zM334 160h528q118 0 198.5 77t80.5 193q0 115 -80.5 192.5t-198.5 77.5h-528v-540z" />
    <glyph glyph-name="uni0412" unicode="&#x412;" horiz-adv-x="1462" 
d="M168 0v1434h719q183 0 301.5 -102t118.5 -271q0 -104 -52 -180.5t-141 -116.5q121 -43 192.5 -135t71.5 -219q0 -119 -61 -213.5t-163.5 -145.5t-225.5 -51h-760zM334 160h586q118 0 203 71.5t85 184.5q0 111 -86.5 183.5t-208.5 72.5h-579v-512zM334 827h547
q107 0 181.5 62t74.5 164q0 104 -74 162.5t-184 58.5h-545v-447z" />
    <glyph glyph-name="uni0413" unicode="&#x413;" horiz-adv-x="1056" 
d="M168 0v1434h901v-160h-735v-1274h-166z" />
    <glyph glyph-name="uni0414" unicode="&#x414;" horiz-adv-x="1503" 
d="M25 -328v488h147l590 1351l577 -1351h140v-488h-166v328h-1123v-328h-165zM352 160h803l-395 979z" />
    <glyph glyph-name="uni0415" unicode="&#x415;" horiz-adv-x="1265" 
d="M168 0v1434h1003v-160h-837v-461h776v-160h-776v-493h858v-160h-1024z" />
    <glyph glyph-name="uni0416" unicode="&#x416;" horiz-adv-x="1849" 
d="M1649 0l-590 731l575 703h197l-576 -695l596 -739h-202zM0 0l596 739l-576 695h197l576 -703l-590 -731h-203zM840 0v1434h166v-1434h-166z" />
    <glyph glyph-name="uni0417" unicode="&#x417;" horiz-adv-x="1333" 
d="M662 -20q-259 0 -418.5 131t-159.5 346h170q0 -144 112 -231t296 -87q193 0 303 70t110 192t-112.5 190t-296.5 68h-191v160h191q171 0 268.5 66.5t97.5 175.5q0 108 -92.5 171.5t-271.5 63.5q-178 0 -286 -78t-108 -200h-170q0 184 156.5 311t413.5 127
q251 0 391.5 -104.5t140.5 -274.5q0 -229 -256 -332q58 -17 108.5 -46.5t94.5 -73t70 -106t26 -136.5q0 -183 -159.5 -293t-427.5 -110z" />
    <glyph glyph-name="uni0418" unicode="&#x418;" horiz-adv-x="1495" 
d="M168 -53v1487h166v-1080l993 1133v-1487h-166v1079z" />
    <glyph glyph-name="uni0419" unicode="&#x419;" horiz-adv-x="1495" 
d="M168 -53v1487h166v-1080l993 1133v-1487h-166v1079zM457 1870h135q3 -76 49 -124t125 -48q77 0 123 48t49 124h135q-7 -140 -91.5 -220.5t-215.5 -80.5q-132 0 -216 80.5t-93 220.5z" />
    <glyph glyph-name="uni041A" unicode="&#x41a;" horiz-adv-x="1341" 
d="M1126 0l-706 733l686 701h203l-680 -695l712 -739h-215zM168 0v1434h166v-1434h-166z" />
    <glyph glyph-name="uni041B" unicode="&#x41b;" horiz-adv-x="1382" 
d="M682 1497l686 -1497h-186l-504 1133l-485 -1133h-181z" />
    <glyph glyph-name="uni041C" unicode="&#x41c;" horiz-adv-x="1781" 
d="M168 0v1475l733 -828l713 828v-1475h-166v1075l-547 -667l-567 667v-1075h-166z" />
    <glyph glyph-name="uni041D" unicode="&#x41d;" horiz-adv-x="1515" 
d="M168 0v1434h166v-586h848v586h166v-1434h-166v688h-848v-688h-166z" />
    <glyph glyph-name="uni041E" unicode="&#x41e;" horiz-adv-x="1648" 
d="M825 -20q-155 0 -293 58t-236 156.5t-155 234.5t-57 288t57 288t155 234.5t236 156.5t293 58t293 -58t235.5 -156.5t154.5 -234.5t57 -288t-57 -288t-154.5 -234.5t-235.5 -156.5t-293 -58zM254 717q0 -158 74 -289.5t205.5 -208t291.5 -76.5q159 0 290 76.5t205.5 208
t74.5 289.5q0 117 -44 223t-119 183t-181.5 122t-225.5 45q-160 0 -291.5 -77t-205.5 -208t-74 -288z" />
    <glyph glyph-name="uni041F" unicode="&#x41f;" horiz-adv-x="1515" 
d="M168 0v1434h1180v-1434h-166v1274h-848v-1274h-166z" />
    <glyph glyph-name="uni0420" unicode="&#x420;" horiz-adv-x="1337" 
d="M168 0v1434h655q125 0 229 -57.5t165 -160.5t61 -229q0 -192 -132 -320t-323 -128h-489v-539h-166zM334 698h481q121 0 204 83t83 206q0 122 -83 204.5t-204 82.5h-481v-576z" />
    <glyph glyph-name="uni0421" unicode="&#x421;" horiz-adv-x="1622" 
d="M825 -20q-155 0 -293 58t-236 156.5t-155 234.5t-57 288t57 288t155 234.5t236 156.5t293 58q263 0 458.5 -156t254.5 -401h-174q-58 176 -203 284.5t-336 108.5q-160 0 -291.5 -77t-205.5 -208t-74 -288q0 -158 74 -289.5t205.5 -208t291.5 -76.5q191 0 335.5 109
t201.5 285h176q-59 -245 -254.5 -401t-458.5 -156z" />
    <glyph glyph-name="uni0422" unicode="&#x422;" horiz-adv-x="1212" 
d="M524 0v1274h-504v160h1172v-160h-502v-1274h-166z" />
    <glyph glyph-name="uni0423" unicode="&#x423;" horiz-adv-x="1374" 
d="M416 0l207 393l-609 1041h191l510 -875l463 875h182l-762 -1434h-182z" />
    <glyph glyph-name="uni0424" unicode="&#x424;" horiz-adv-x="1636" 
d="M735 0v172h-133q-165 0 -295 76t-198 199.5t-68 269.5t68 269.5t198 199.5t295 76h133v172h166v-172h133q165 0 295 -76t198 -199.5t68 -269.5t-68 -269.5t-198 -199.5t-295 -76h-133v-172h-166zM211 719q0 -157 109 -271t290 -114h125v770h-125q-181 0 -290 -114
t-109 -271zM901 334h125q181 0 290 114t109 271t-109 271t-290 114h-125v-770z" />
    <glyph glyph-name="uni0425" unicode="&#x425;" horiz-adv-x="1349" 
d="M29 0l540 735l-528 699h201l442 -580l424 580h195l-523 -711l549 -723h-201l-460 604l-445 -604h-194z" />
    <glyph glyph-name="uni0426" unicode="&#x426;" horiz-adv-x="1458" 
d="M1270 -328v328h-1102v1434h166v-1274h766v1274h166v-1274h170v-488h-166z" />
    <glyph glyph-name="uni0427" unicode="&#x427;" horiz-adv-x="1323" 
d="M989 645q-131 -39 -338 -39q-251 0 -398 142.5t-147 388.5v297h166v-297q0 -170 102 -269.5t283 -99.5q201 0 332 39v627h166v-1434h-166v645z" />
    <glyph glyph-name="uni0428" unicode="&#x428;" horiz-adv-x="1957" 
d="M168 0v1434h166v-1274h561v1274h166v-1274h563v1274h166v-1434h-1622z" />
    <glyph glyph-name="uni0429" unicode="&#x429;" horiz-adv-x="1970" 
d="M1780 -328v328h-1612v1434h166v-1274h561v1274h166v-1274h563v1274h166v-1274h156v-488h-166z" />
    <glyph glyph-name="uni042A" unicode="&#x42a;" horiz-adv-x="1548" 
d="M20 1274v160h523v-539h489q191 0 323 -128.5t132 -320.5q0 -126 -61 -229t-165 -160t-229 -57h-655v1274h-357zM543 160h481q121 0 204 82t83 204t-83.5 205.5t-203.5 83.5h-481v-575z" />
    <glyph glyph-name="uni042B" unicode="&#x42b;" horiz-adv-x="1722" 
d="M168 0v1434h166v-572h471q184 0 311 -123.5t127 -308.5q0 -122 -58.5 -221t-158.5 -154t-221 -55h-637zM334 160h461q119 0 198.5 76.5t79.5 193.5q0 115 -79.5 192.5t-198.5 77.5h-461v-540zM1389 0v1434h165v-1434h-165z" />
    <glyph glyph-name="uni042C" unicode="&#x42c;" horiz-adv-x="1337" 
d="M168 1434h166v-539h489q191 0 323 -128.5t132 -320.5q0 -126 -61 -229t-165 -160t-229 -57h-655v1434zM334 160h481q121 0 204 82t83 204t-83 205.5t-204 83.5h-481v-575z" />
    <glyph glyph-name="uni042D" unicode="&#x42d;" horiz-adv-x="1622" 
d="M797 -20q-263 0 -458.5 156t-254.5 401h176q55 -175 200.5 -284.5t336.5 -109.5q223 0 381.5 144t183.5 360h-717v160h713q-30 208 -187 345.5t-374 137.5q-191 0 -336.5 -109t-202.5 -284h-174q59 245 254.5 401t458.5 156q155 0 293 -58t236 -156.5t155 -234.5t57 -288
t-57 -288t-155 -234.5t-236 -156.5t-293 -58z" />
    <glyph glyph-name="uni042E" unicode="&#x42e;" horiz-adv-x="1998" 
d="M1243 -20q-282 0 -466.5 190.5t-203.5 497.5h-239v-668h-166v1434h166v-607h246q32 281 214 454t449 173q194 0 347.5 -94t239 -262.5t85.5 -380.5t-85.5 -380.5t-239 -262.5t-347.5 -94zM741 717q0 -255 140 -414.5t362 -159.5t362 159.5t140 414.5q0 253 -140.5 413
t-361.5 160t-361.5 -160t-140.5 -413z" />
    <glyph glyph-name="uni042F" unicode="&#x42f;" horiz-adv-x="1378" 
d="M248 0h-185l326 567q-130 48 -209.5 160.5t-79.5 259.5q0 126 61 229t165 160.5t229 57.5h657v-1434h-165v539h-490zM276 987q0 -122 84 -205.5t205 -83.5h482v576h-482q-121 0 -205 -82.5t-84 -204.5z" />
    <glyph glyph-name="uni0430" unicode="&#x430;" 
d="M618 -20q-150 0 -276 75t-199 205t-73 285t73 285t199 205t276 75q135 0 243 -64t171 -174v218h160v-1090h-160v217q-63 -110 -171 -173.5t-243 -63.5zM240 545q0 -169 115.5 -285.5t281.5 -116.5q167 0 282 117t115 285q0 169 -115 285t-282 116q-166 0 -281.5 -116.5
t-115.5 -284.5z" />
    <glyph glyph-name="uni0431" unicode="&#x431;" horiz-adv-x="1265" 
d="M643 -20q-117 0 -217.5 39.5t-175.5 113t-117.5 187t-42.5 253.5q0 256 36 430.5t119.5 291t217 169t330.5 52.5h292v-160h-292q-122 0 -210.5 -23.5t-145.5 -65.5t-93 -111.5t-52.5 -148.5t-23.5 -190q57 103 161.5 160t240.5 57q226 0 377 -148t151 -376
q0 -150 -73 -271.5t-200 -190t-282 -68.5zM260 518q-3 -159 104 -267t279 -108q174 0 279.5 103.5t105.5 263.5t-105.5 264.5t-279.5 104.5q-168 0 -274 -104t-109 -257z" />
    <glyph glyph-name="uni0432" unicode="&#x432;" horiz-adv-x="1216" 
d="M147 0v1090h629q130 0 223 -85.5t93 -207.5q0 -78 -33 -138t-92 -94q76 -34 119.5 -100.5t43.5 -155.5q0 -129 -97.5 -219t-233.5 -90h-652zM313 160h467q77 0 129 46.5t52 117.5q0 72 -50.5 116.5t-128.5 44.5h-469v-325zM313 629h453q72 0 118 43t46 110
q0 65 -46.5 106.5t-117.5 41.5h-453v-301z" />
    <glyph glyph-name="uni0433" unicode="&#x433;" horiz-adv-x="872" 
d="M147 0v1090h703v-160h-537v-930h-166z" />
    <glyph glyph-name="uni0434" unicode="&#x434;" horiz-adv-x="1286" 
d="M12 -328v488h150l387 946h182l393 -946h150v-488h-166v328h-930v-328h-166zM336 160h608l-305 760z" />
    <glyph glyph-name="uni0435" unicode="&#x435;" horiz-adv-x="1245" 
d="M631 -20q-157 0 -286 75.5t-202 205t-73 284.5t71 284.5t199 205t287 75.5q240 0 394.5 -152.5t154.5 -379.5q0 -34 -9 -72h-929q14 -156 124 -261.5t269 -105.5q212 0 330 174h182q-66 -151 -202 -242t-310 -91zM248 653h753q-25 135 -125 219t-249 84
q-145 0 -246.5 -83t-132.5 -220z" />
    <glyph glyph-name="uni0436" unicode="&#x436;" horiz-adv-x="1609" 
d="M1403 0l-471 563l463 527h190l-463 -519l480 -571h-199zM8 0l479 571l-462 519h190l463 -527l-471 -563h-199zM723 0v1090h166v-1090h-166z" />
    <glyph glyph-name="uni0437" unicode="&#x437;" horiz-adv-x="1062" 
d="M535 -20q-129 0 -230.5 41.5t-164.5 126.5t-70 204h166q10 -107 91.5 -163t207.5 -56q133 0 210.5 45.5t77.5 130.5q0 89 -77.5 134.5t-206.5 45.5h-142v148h142q118 0 185 45t67 123q0 73 -67.5 112t-191.5 39q-117 0 -194 -51t-84 -145h-166q5 106 66 186.5t159.5 122
t218.5 41.5q189 0 309 -75t120 -214q0 -189 -203 -250q104 -25 169.5 -96t65.5 -180q0 -148 -127 -231.5t-331 -83.5z" />
    <glyph glyph-name="uni0438" unicode="&#x438;" horiz-adv-x="1245" 
d="M147 0v1090h166v-861l613 861h172v-1090h-166v860l-613 -860h-172z" />
    <glyph glyph-name="uni0439" unicode="&#x439;" horiz-adv-x="1245" 
d="M147 0v1090h166v-861l613 861h172v-1090h-166v860l-613 -860h-172zM317 1526h136q3 -76 49 -124t125 -48q77 0 123 48t49 124h135q-7 -140 -91.5 -220.5t-215.5 -80.5q-132 0 -216.5 80.5t-93.5 220.5z" />
    <glyph glyph-name="uni043A" unicode="&#x43a;" horiz-adv-x="1091" 
d="M879 0l-508 573l491 517h197l-492 -506l514 -584h-202zM147 0v1090h166v-1090h-166z" />
    <glyph glyph-name="uni043B" unicode="&#x43b;" horiz-adv-x="1120" 
d="M23 0l452 1090h170l453 -1090h-185l-356 891l-354 -891h-180z" />
    <glyph glyph-name="uni043C" unicode="&#x43c;" horiz-adv-x="1464" 
d="M147 0v1090h199l387 -906l385 906h199v-1090h-166v819l-354 -819h-129l-355 819v-819h-166z" />
    <glyph glyph-name="uni043D" unicode="&#x43d;" horiz-adv-x="1245" 
d="M147 0v1090h166v-412h619v412h166v-1090h-166v518h-619v-518h-166z" />
    <glyph glyph-name="uni043E" unicode="&#x43e;" horiz-adv-x="1273" 
d="M637 -20q-157 0 -287.5 75.5t-205 205.5t-74.5 284t74.5 284t205 205.5t287.5 75.5t287.5 -75.5t205 -205.5t74.5 -284t-74.5 -284t-205 -205.5t-287.5 -75.5zM240 545q0 -166 116 -284t281 -118t281 118t116 284t-116 283.5t-281 117.5t-281 -117.5t-116 -283.5z" />
    <glyph glyph-name="uni043F" unicode="&#x43f;" horiz-adv-x="1286" 
d="M147 0v1090h160v-203q52 104 149.5 163.5t227.5 59.5q211 0 333 -138t122 -351v-621h-166v600q0 152 -89 249t-231 97t-241 -98.5t-99 -247.5v-600h-166z" />
    <glyph glyph-name="uni0440" unicode="&#x440;" 
d="M147 -410v1500h160v-218q62 110 170 174t244 64q149 0 275.5 -75t200 -205t73.5 -285t-73.5 -285t-200 -205t-275.5 -75q-133 0 -239.5 61.5t-168.5 167.5v-619h-166zM303 545q0 -167 115.5 -284.5t281.5 -117.5t283 117t117 285t-117 284.5t-283 116.5t-281.5 -116.5
t-115.5 -284.5z" />
    <glyph glyph-name="uni0441" unicode="&#x441;" horiz-adv-x="1236" 
d="M637 -20q-157 0 -287.5 75.5t-205 205.5t-74.5 284t74.5 284t205 205.5t287.5 75.5q201 0 352 -120t193 -306h-176q-37 116 -139 189t-230 73q-165 0 -281 -117.5t-116 -283.5t116 -284t281 -118q128 0 230 74t139 189h176q-42 -185 -193.5 -305.5t-351.5 -120.5z" />
    <glyph glyph-name="uni0442" unicode="&#x442;" horiz-adv-x="937" 
d="M387 0v930h-373v160h910v-160h-371v-930h-166z" />
    <glyph glyph-name="uni0443" unicode="&#x443;" horiz-adv-x="1120" 
d="M248 -410l229 504l-469 996h185l374 -807l355 807h178l-670 -1500h-182z" />
    <glyph glyph-name="uni0444" unicode="&#x444;" horiz-adv-x="1523" 
d="M682 -20q-266 0 -439 160t-173 405t173 405t439 160v406h160v-406q266 0 439 -160t173 -405t-173 -405t-439 -160v-390h-160v390zM240 545q0 -178 124 -290t318 -112v803q-194 0 -318 -111.5t-124 -289.5zM842 143q194 0 318 112t124 290t-124 289.5t-318 111.5v-803z
" />
    <glyph glyph-name="uni0445" unicode="&#x445;" horiz-adv-x="1140" 
d="M35 0l430 557l-426 533h197l335 -416l330 416h197l-432 -539l442 -551h-199l-348 432l-332 -432h-194z" />
    <glyph glyph-name="uni0446" unicode="&#x446;" horiz-adv-x="1294" 
d="M1100 -328v328h-150v193q-52 -100 -143 -156.5t-209 -56.5q-203 0 -327 135.5t-124 345.5v629h166v-609q0 -149 91 -243.5t225 -94.5q127 0 221 95.5t94 242.5v609h166v-930h156v-488h-166z" />
    <glyph glyph-name="uni0447" unicode="&#x447;" horiz-adv-x="1107" 
d="M795 432q-114 -26 -258 -26q-224 0 -347.5 127t-123.5 350v207h165v-211q0 -310 314 -310q115 0 250 27v494h166v-1090h-166v432z" />
    <glyph glyph-name="uni0448" unicode="&#x448;" horiz-adv-x="1839" 
d="M537 -18q-163 0 -276.5 116t-113.5 297v695h166v-660q0 -138 74.5 -212.5t181.5 -74.5q108 0 187.5 76t79.5 207v664h165v-660q0 -143 75.5 -215t183.5 -72q52 0 98.5 17.5t84.5 52t60.5 91.5t22.5 130v656h166v-1090h-160v156q-47 -85 -126 -129.5t-179 -44.5
q-116 0 -208 60t-136 167q-47 -106 -139 -166.5t-207 -60.5z" />
    <glyph glyph-name="uni0449" unicode="&#x449;" horiz-adv-x="1875" 
d="M1681 -328v328h-149v156q-47 -85 -126 -129.5t-179 -44.5q-116 0 -208 60t-136 167q-47 -106 -139 -166.5t-207 -60.5q-163 0 -276.5 116t-113.5 297v695h166v-660q0 -138 74.5 -212.5t181.5 -74.5q108 0 187.5 76t79.5 207v664h165v-660q0 -143 75.5 -215t183.5 -72
q52 0 98.5 17.5t84.5 52t60.5 91.5t22.5 130v656h166v-930h155v-488h-166z" />
    <glyph glyph-name="uni044A" unicode="&#x44a;" horiz-adv-x="1202" 
d="M266 0v930h-266v160h432v-431h393q139 0 238.5 -94.5t99.5 -234.5q0 -142 -99.5 -236t-238.5 -94h-559zM432 160h377q78 0 131 47.5t53 122.5q0 77 -52.5 123.5t-131.5 46.5h-377v-340z" />
    <glyph glyph-name="uni044B" unicode="&#x44b;" horiz-adv-x="1523" 
d="M147 0v1090h166v-431h394q139 0 238 -94.5t99 -234.5q0 -142 -99 -236t-238 -94h-560zM313 160h375q78 0 132 47.5t54 122.5q0 77 -53.5 123.5t-132.5 46.5h-375v-340zM1212 0v1090h166v-1090h-166z" />
    <glyph glyph-name="uni044C" unicode="&#x44c;" horiz-adv-x="1083" 
d="M147 0v1090h166v-431h394q139 0 238 -94.5t99 -234.5q0 -142 -99 -236t-238 -94h-560zM313 160h375q78 0 132 47.5t54 122.5q0 77 -53.5 123.5t-132.5 46.5h-375v-340z" />
    <glyph glyph-name="uni044D" unicode="&#x44d;" horiz-adv-x="1251" 
d="M618 -20q-201 0 -353.5 120.5t-194.5 305.5h176q37 -115 140.5 -189t231.5 -74q149 0 255.5 96.5t127.5 243.5h-514v146h512q-27 138 -132.5 227.5t-248.5 89.5q-129 0 -232 -73t-140 -189h-176q42 186 194.5 306t353.5 120q157 0 286.5 -75.5t203.5 -205t74 -284.5
t-74 -284.5t-203.5 -205t-286.5 -75.5z" />
    <glyph glyph-name="uni044E" unicode="&#x44e;" horiz-adv-x="1619" 
d="M1024 -20q-217 0 -359 141t-163 358h-189v-479h-166v1090h166v-451h193q28 206 168.5 338.5t349.5 132.5q156 0 277 -76t185 -204t64 -285t-64 -285t-185 -204t-277 -76zM668 545q0 -171 97.5 -286.5t258.5 -115.5q108 0 190.5 54.5t125 145.5t42.5 202t-42.5 201.5
t-125 145t-190.5 54.5q-161 0 -258.5 -115t-97.5 -286z" />
    <glyph glyph-name="uni044F" unicode="&#x44f;" horiz-adv-x="1144" 
d="M332 436q-109 30 -179.5 116.5t-70.5 201.5q0 145 103.5 240.5t248.5 95.5h563v-1090h-166v418h-331l-250 -418h-180zM252 754q0 -81 54 -128.5t140 -47.5h385v352h-385q-85 0 -139.5 -48.5t-54.5 -127.5z" />
    <glyph glyph-name="uni0451" unicode="&#x451;" horiz-adv-x="1245" 
d="M631 -20q-157 0 -286 75.5t-202 205t-73 284.5t71 284.5t199 205t287 75.5q240 0 394.5 -152.5t154.5 -379.5q0 -34 -9 -72h-929q14 -156 124 -261.5t269 -105.5q212 0 330 174h182q-66 -151 -202 -242t-310 -91zM248 653h753q-25 135 -125 219t-249 84
q-145 0 -246.5 -83t-132.5 -220zM313 1409q0 44 31.5 76.5t75.5 32.5t76 -32.5t32 -76.5t-32 -75t-76 -31t-75.5 31t-31.5 75zM727 1409q0 44 31.5 76.5t75.5 32.5t76 -32.5t32 -76.5t-32 -75t-76 -31t-75.5 31t-31.5 75z" />
    <glyph glyph-name="uni0454" unicode="&#x454;" horiz-adv-x="1251" 
d="M633 -20q-157 0 -286.5 75.5t-203 205t-73.5 284.5t73.5 284.5t203 205t286.5 75.5q201 0 354 -120t195 -306h-176q-37 116 -140.5 189t-232.5 73q-143 0 -248.5 -89.5t-132.5 -227.5h512v-146h-514q21 -147 127.5 -243.5t255.5 -96.5q128 0 232 74t141 189h176
q-42 -185 -195 -305.5t-354 -120.5z" />
    <glyph glyph-name="uni0456" unicode="&#x456;" horiz-adv-x="458" 
d="M147 0v1090h166v-1090h-166zM121 1409q0 45 31 77t75 32t76.5 -32.5t32.5 -76.5t-32 -75t-77 -31q-44 0 -75 31t-31 75z" />
    <glyph glyph-name="uni0457" unicode="&#x457;" horiz-adv-x="458" 
d="M147 0v1090h166v-1090h-166zM-84 1409q0 44 31.5 76.5t75.5 32.5t76 -32.5t32 -76.5t-32 -75t-76 -31t-75.5 31t-31.5 75zM330 1409q0 45 31 77t75 32t76.5 -32.5t32.5 -76.5t-32 -75t-77 -31q-44 0 -75 31t-31 75z" />
    <glyph glyph-name="uni045E" unicode="&#x45e;" horiz-adv-x="1120" 
d="M248 -410l229 504l-469 996h185l374 -807l355 807h178l-670 -1500h-182zM254 1526h135q3 -76 49 -124t125 -48q77 0 123 48t49 124h135q-7 -140 -91.5 -220.5t-215.5 -80.5q-132 0 -216 80.5t-93 220.5z" />
    <glyph glyph-name="uni0490" unicode="&#x490;" horiz-adv-x="1056" 
d="M168 0v1434h735v204h166v-364h-735v-1274h-166z" />
    <glyph glyph-name="uni0491" unicode="&#x491;" horiz-adv-x="872" 
d="M147 0v1090h537v225h166v-385h-537v-930h-166z" />
    <glyph glyph-name="uni05B0" unicode="&#x5b0;" horiz-adv-x="0" 
d="M123 -463q-28 0 -48 20t-20 48q0 26 20 45.5t48 19.5q26 0 45.5 -19.5t19.5 -45.5q0 -28 -19.5 -48t-45.5 -20zM55 -211q0 26 20 46t48 20q26 0 45.5 -20t19.5 -46q0 -28 -19.5 -48t-45.5 -20q-28 0 -48 20t-20 48z" />
    <glyph glyph-name="uni05B1" unicode="&#x5b1;" horiz-adv-x="0" 
d="M631 -463q-28 0 -48 20t-20 48q0 26 20 45.5t48 19.5q26 0 45.5 -19.5t19.5 -45.5q0 -28 -19.5 -48t-45.5 -20zM66 -211q0 27 20 46.5t47 19.5q26 0 46 -20t20 -46q0 -28 -20 -48t-46 -20q-28 0 -47.5 20t-19.5 48zM176 -395q0 26 20 45.5t48 19.5q26 0 45.5 -19.5
t19.5 -45.5q0 -28 -19.5 -48t-45.5 -20q-28 0 -48 20t-20 48zM287 -211q0 27 19.5 46.5t47.5 19.5q26 0 46 -20t20 -46q0 -28 -20 -48t-46 -20q-28 0 -47.5 20t-19.5 48zM563 -211q0 26 20 46t48 20q26 0 45.5 -20t19.5 -46q0 -28 -19.5 -48t-45.5 -20q-28 0 -48 20t-20 48z
" />
    <glyph glyph-name="uni05B2" unicode="&#x5b2;" horiz-adv-x="0" 
d="M53 -250v84h307v-84h-307zM465 -395q0 26 19.5 45.5t47.5 19.5q26 0 46 -19.5t20 -45.5q0 -28 -20 -48t-46 -20q-28 0 -47.5 20t-19.5 48zM465 -211q0 27 19.5 46.5t47.5 19.5q26 0 46 -20t20 -46q0 -28 -20 -48t-46 -20q-28 0 -47.5 20t-19.5 48z" />
    <glyph glyph-name="uni05B3" unicode="&#x5b3;" horiz-adv-x="0" 
d="M203 -385l12 135h-131v84h344v-84h-133l10 -135h-102zM532 -395q0 26 20 45.5t48 19.5q26 0 46 -19.5t20 -45.5q0 -28 -20 -48t-46 -20q-28 0 -48 20t-20 48zM532 -211q0 26 20 46t48 20q26 0 46 -20t20 -46q0 -28 -20 -48t-46 -20q-28 0 -48 20t-20 48z" />
    <glyph glyph-name="uni05B4" unicode="&#x5b4;" horiz-adv-x="0" 
d="M117 -279q-28 0 -48 20t-20 48q0 26 20 46t48 20q26 0 45.5 -20t19.5 -46q0 -28 -19.5 -48t-45.5 -20z" />
    <glyph glyph-name="uni05B5" unicode="&#x5b5;" horiz-adv-x="0" 
d="M104 -279q-28 0 -47.5 20t-19.5 48q0 27 19.5 46.5t47.5 19.5q26 0 46 -20t20 -46q0 -28 -20 -48t-46 -20zM297 -211q0 26 20 46t48 20q26 0 45.5 -20t19.5 -46q0 -28 -19.5 -48t-45.5 -20q-28 0 -48 20t-20 48z" />
    <glyph glyph-name="uni05B6" unicode="&#x5b6;" horiz-adv-x="0" 
d="M352 -279q-28 0 -47.5 20t-19.5 48q0 27 19.5 46.5t47.5 19.5q26 0 46 -20t20 -46q0 -28 -20 -48t-46 -20zM25 -211q0 27 19.5 46.5t47.5 19.5q26 0 46 -20t20 -46q0 -28 -20 -48t-46 -20q-28 0 -47.5 20t-19.5 48zM156 -395q0 26 19.5 45.5t47.5 19.5q26 0 46 -19.5
t20 -45.5q0 -28 -20 -48t-46 -20q-28 0 -47.5 20t-19.5 48z" />
    <glyph glyph-name="uni05B7" unicode="&#x5b7;" horiz-adv-x="0" 
d="M57 -250v84h349v-84h-349z" />
    <glyph glyph-name="uni05B8" unicode="&#x5b8;" horiz-adv-x="0" 
d="M172 -385l12 135h-147v84h375v-84h-150l10 -135h-100z" />
    <glyph glyph-name="uni05B9" unicode="&#x5b9;" horiz-adv-x="0" 
d="M117 1112q-28 0 -48 20t-20 48q0 26 20 45.5t48 19.5q26 0 45.5 -19.5t19.5 -45.5q0 -28 -19.5 -48t-45.5 -20z" />
    <glyph glyph-name="uni05BA" unicode="&#x5ba;" horiz-adv-x="0" 
d="M117 1112q-28 0 -48 20t-20 48q0 26 20 45.5t48 19.5q26 0 45.5 -19.5t19.5 -45.5q0 -28 -19.5 -48t-45.5 -20z" />
    <glyph glyph-name="uni05BB" unicode="&#x5bb;" horiz-adv-x="0" 
d="M117 -279q-28 0 -48 20t-20 48q0 26 20 46t48 20q26 0 45.5 -20t19.5 -46q0 -28 -19.5 -48t-45.5 -20zM174 -336q0 26 20 46t48 20q26 0 45.5 -20t19.5 -46q0 -28 -19.5 -47.5t-45.5 -19.5q-28 0 -48 19.5t-20 47.5zM299 -461q0 26 20 46t48 20q26 0 45.5 -20t19.5 -46
q0 -28 -19.5 -47.5t-45.5 -19.5q-28 0 -48 19.5t-20 47.5z" />
    <glyph glyph-name="uni05BC" unicode="&#x5bc;" horiz-adv-x="0" 
d="M117 375q-28 0 -48 19.5t-20 47.5q0 26 20 46t48 20q26 0 45.5 -20t19.5 -46q0 -28 -19.5 -47.5t-45.5 -19.5z" />
    <glyph glyph-name="uni05BE" unicode="&#x5be;" horiz-adv-x="833" 
d="M94 1063v166h645v-166h-645z" />
    <glyph glyph-name="uni05BF" unicode="&#x5bf;" horiz-adv-x="0" 
d="M426 1509h448v-104h-448v104z" />
    <glyph glyph-name="uni05C1" unicode="&#x5c1;" horiz-adv-x="0" 
d="M117 1112q-28 0 -48 20t-20 48q0 26 20 45.5t48 19.5q26 0 45.5 -19.5t19.5 -45.5q0 -28 -19.5 -48t-45.5 -20z" />
    <glyph glyph-name="uni05C2" unicode="&#x5c2;" horiz-adv-x="0" 
d="M117 1112q-28 0 -48 20t-20 48q0 26 20 45.5t48 19.5q26 0 45.5 -19.5t19.5 -45.5q0 -28 -19.5 -48t-45.5 -20z" />
    <glyph glyph-name="uni05C7" unicode="&#x5c7;" horiz-adv-x="0" 
d="M125 -397l12 135h-67v96h229v-96h-72l11 -135h-113z" />
    <glyph glyph-name="uni05D0" unicode="&#x5d0;" horiz-adv-x="1370" 
d="M584 637q-160 -13 -231.5 -99t-71.5 -249v-289h-172v285q0 196 96 317.5t287 159.5l-357 467h205l416 -545q157 10 228 89t71 237v219h172v-213q0 -384 -377 -455l426 -561h-207z" />
    <glyph glyph-name="uni05D1" unicode="&#x5d1;" horiz-adv-x="1329" 
d="M856 702q0 361 -313 361h-412v166h412q230 0 354.5 -138t124.5 -391v-534h184v-166h-1075v166h725v536z" />
    <glyph glyph-name="uni05D2" unicode="&#x5d2;" horiz-adv-x="854" 
d="M545 0l-43 283h-2q-18 -75 -84 -144.5t-154 -111t-170 -41.5v178q92 0 182 40t150.5 116t60.5 167v445q0 76 -19.5 103.5t-78.5 27.5h-221v166h233q142 0 197 -62t55 -221v-594l56 -352h-162z" />
    <glyph glyph-name="uni05D3" unicode="&#x5d3;" horiz-adv-x="1261" 
d="M766 0v1063h-662v166h1053v-166h-225v-1063h-166z" />
    <glyph glyph-name="uni05D4" unicode="&#x5d4;" horiz-adv-x="1400" 
d="M168 0v700h166v-700h-166zM160 1063v166h583q233 0 361.5 -131.5t128.5 -370.5v-727h-166v727q0 164 -85 250t-239 86h-583z" />
    <glyph glyph-name="uni05D5" unicode="&#x5d5;" horiz-adv-x="499" 
d="M168 1229h166v-1229h-166v1229z" />
    <glyph glyph-name="uni05D6" unicode="&#x5d6;" horiz-adv-x="772" 
d="M418 0h-166v702q0 267 156 361h-308v166h584v-166h-47q-221 0 -221 -367z" />
    <glyph glyph-name="uni05D7" unicode="&#x5d7;" horiz-adv-x="1400" 
d="M168 0v1229h575q233 0 361.5 -131.5t128.5 -370.5v-727h-166v727q0 164 -85 250t-239 86h-409v-1063h-166z" />
    <glyph glyph-name="uni05D8" unicode="&#x5d8;" horiz-adv-x="1501" 
d="M770 -20q-173 0 -316.5 82.5t-227 228t-83.5 321.5v617h174v-617q0 -128 61 -234.5t165 -167t227 -60.5q184 0 318.5 140.5t134.5 332.5q0 205 -103 332.5t-274 127.5q-107 0 -225 -36v172q111 34 225 34q164 0 290 -80.5t194.5 -223.5t68.5 -326q0 -173 -84 -321
t-229 -235t-316 -87z" />
    <glyph glyph-name="uni05D9" unicode="&#x5d9;" horiz-adv-x="499" 
d="M168 1229h166v-717h-166v717z" />
    <glyph glyph-name="uni05DA" unicode="&#x5da;" horiz-adv-x="1120" 
d="M786 -307v1034q0 164 -84.5 250t-238.5 86h-408v166h408q233 0 361 -131.5t128 -370.5v-1034h-166z" />
    <glyph glyph-name="uni05DB" unicode="&#x5db;" horiz-adv-x="1208" 
d="M473 -20q-203 0 -369 38v166q170 -39 347 -39q229 0 352 131t123 338t-123 338t-352 131q-149 0 -326 -45v168q169 43 348 43q194 0 338.5 -83.5t218.5 -226.5t74 -325t-74 -324.5t-218.5 -226t-338.5 -83.5z" />
    <glyph glyph-name="uni05DC" unicode="&#x5dc;" horiz-adv-x="1163" 
d="M418 0l407 1063h-710v444h166v-278h788l-467 -1229h-184z" />
    <glyph glyph-name="uni05DD" unicode="&#x5dd;" horiz-adv-x="1458" 
d="M168 0v1229h633q233 0 361 -131.5t128 -370.5v-727h-1122zM334 166h790v561q0 164 -84.5 250t-238.5 86h-467v-897z" />
    <glyph glyph-name="uni05DE" unicode="&#x5de;" horiz-adv-x="1527" 
d="M90 1229h180l123 -314q67 160 197 248t278 88q163 0 290 -82.5t196 -227t69 -325.5q0 -180 -77 -325.5t-213.5 -228t-307.5 -82.5q-123 0 -233 26v166q114 -27 233 -27q187 0 305.5 134t118.5 337q0 207 -100.5 338t-280.5 131q-64 0 -124 -19t-116 -59.5t-99 -112
t-64 -167.5l-176 -727h-172l176 717z" />
    <glyph glyph-name="uni05DF" unicode="&#x5df;" horiz-adv-x="499" 
d="M168 1229h166v-1536h-166v1536z" />
    <glyph glyph-name="uni05E0" unicode="&#x5e0;" horiz-adv-x="763" 
d="M135 0v166h295v766q0 76 -19.5 103.5t-78.5 27.5h-197v166h209q142 0 197 -62t55 -221v-946h-461z" />
    <glyph glyph-name="uni05E1" unicode="&#x5e1;" horiz-adv-x="1486" 
d="M743 -27q-178 0 -325 85.5t-230.5 232t-83.5 321.5q0 132 49.5 250.5t134 204.5t203.5 136t252 50q177 0 324 -85t231 -232.5t84 -323.5q0 -175 -84 -321.5t-231 -232t-324 -85.5zM281 612q0 -198 133.5 -336.5t328.5 -138.5t329 138.5t134 336.5q0 200 -133.5 339
t-329.5 139t-329 -139t-133 -339z" />
    <glyph glyph-name="uni05E2" unicode="&#x5e2;" horiz-adv-x="1333" 
d="M139 0v166h357h32l-366 1063h172l358 -1039q318 92 318 521v518h166v-518q0 -182 -48 -319t-138.5 -222.5t-214 -127.5t-279.5 -42h-357z" />
    <glyph glyph-name="uni05E3" unicode="&#x5e3;" horiz-adv-x="1327" 
d="M1008 625q0 209 -97 333.5t-272 124.5q-147 0 -245.5 -91.5t-98.5 -229.5q0 -129 85.5 -215t211.5 -86h24v-170h-24q-203 0 -337 129.5t-134 327.5q0 216 147.5 358.5t370.5 142.5q249 0 392 -171t143 -453v-932h-166v932z" />
    <glyph glyph-name="uni05E4" unicode="&#x5e4;" horiz-adv-x="1347" 
d="M553 -20q-100 0 -215 16t-186 41v172q75 -28 190.5 -46t208.5 -18q234 3 374 134t140 339q0 209 -119.5 338t-310.5 129q-148 0 -250 -76t-102 -196q0 -95 70 -163t161 -68h8v-166h-12q-173 0 -289.5 109t-116.5 274q0 192 151.5 323t387.5 131q171 0 308 -80t214.5 -225
t77.5 -330q0 -280 -189.5 -457.5t-500.5 -180.5z" />
    <glyph glyph-name="uni05E5" unicode="&#x5e5;" horiz-adv-x="1105" 
d="M690 -307l-639 1536h182l256 -615q164 18 247 109t83 240v266h166v-266q0 -202 -116 -326t-324 -154l327 -790h-182z" />
    <glyph glyph-name="uni05E6" unicode="&#x5e6;" horiz-adv-x="1245" 
d="M100 0v166h717l-694 1063h194l334 -510q153 15 222 94.5t69 220.5v195h166v-195q0 -186 -95 -298t-278 -146l385 -590h-1020z" />
    <glyph glyph-name="uni05E7" unicode="&#x5e7;" horiz-adv-x="1447" 
d="M197 -307v979h165v-979h-165zM168 1063v166h1186l-430 -1229h-183l377 1063h-950z" />
    <glyph glyph-name="uni05E8" unicode="&#x5e8;" horiz-adv-x="1140" 
d="M104 1063v166h379q233 0 361.5 -131.5t128.5 -370.5v-727h-166v727q0 164 -85 250t-239 86h-379z" />
    <glyph glyph-name="uni05E9" unicode="&#x5e9;" horiz-adv-x="1640" 
d="M821 -20q-191 0 -342.5 82t-239 234.5t-87.5 350.5v582h165v-461q94 -66 199 -66q46 0 84.5 11.5t73 36.5t54.5 74t20 116v289h165v-283q0 -97 -32 -174t-85.5 -123t-118.5 -70t-136 -24q-121 0 -222 53q12 -212 152 -337.5t350 -125.5q220 0 361 137t141 365v582h166
v-582q0 -198 -87.5 -350.5t-239 -234.5t-341.5 -82z" />
    <glyph glyph-name="uni05EA" unicode="&#x5ea;" horiz-adv-x="1564" 
d="M117 0v166h235v1063h555q233 0 361.5 -131.5t128.5 -370.5v-727h-166v727q0 164 -85 250t-239 86h-389v-1063h-401z" />
    <glyph glyph-name="uni05F0" unicode="&#x5f0;" horiz-adv-x="1001" 
d="M668 1229h166v-1229h-166v1229zM168 0v1229h166v-1229h-166z" />
    <glyph glyph-name="uni05F1" unicode="&#x5f1;" horiz-adv-x="1001" 
d="M668 1229h166v-1229h-166v1229zM168 512v717h166v-717h-166z" />
    <glyph glyph-name="uni05F2" unicode="&#x5f2;" horiz-adv-x="1001" 
d="M668 1229h166v-717h-166v717zM168 512v717h166v-717h-166z" />
    <glyph glyph-name="uni05F3" unicode="&#x5f3;" horiz-adv-x="366" 
d="M43 920l78 434h178l-119 -434h-137z" />
    <glyph glyph-name="uni05F4" unicode="&#x5f4;" horiz-adv-x="665" 
d="M344 915l78 435h178l-119 -435h-137zM43 915l78 435h178l-119 -435h-137z" />
    <glyph glyph-name="uni0E3F" unicode="&#xe3f;" horiz-adv-x="1462" 
d="M545 -205l18 205h-395v1434h518l19 204h151l-18 -204h49q183 0 301.5 -102t118.5 -271q0 -104 -52 -180.5t-141 -116.5q121 -43 192.5 -135t71.5 -219q0 -119 -61 -213.5t-163.5 -145.5t-225.5 -51h-213l-19 -205h-151zM334 160h241l46 512h-287v-512zM334 827h299
l39 447h-338v-447zM729 160h191q118 0 203 71.5t85 184.5q0 111 -86.5 183.5t-208.5 72.5h-139zM786 827h95q107 0 181.5 62t74.5 164q0 104 -74 162.5t-184 58.5h-54z" />
    <glyph glyph-name="Wgrave" unicode="&#x1e80;" horiz-adv-x="1998" 
d="M549 -63l-526 1497h178l356 -1076l387 1076h109l385 -1076l358 1076h180l-528 -1497l-451 1234zM741 1925h191l166 -340h-133z" />
    <glyph glyph-name="wgrave" unicode="&#x1e81;" horiz-adv-x="1669" 
d="M360 0l-337 1090h178l254 -887l293 887h176l295 -887l254 887h176l-338 -1090h-176l-299 889l-299 -889h-177zM580 1581h190l166 -340h-133z" />
    <glyph glyph-name="Wacute" unicode="&#x1e82;" horiz-adv-x="1998" 
d="M549 -63l-526 1497h178l356 -1076l387 1076h109l385 -1076l358 1076h180l-528 -1497l-451 1234zM915 1585l166 340h191l-223 -340h-134z" />
    <glyph glyph-name="wacute" unicode="&#x1e83;" horiz-adv-x="1669" 
d="M360 0l-337 1090h178l254 -887l293 887h176l295 -887l254 887h176l-338 -1090h-176l-299 889l-299 -889h-177zM754 1241l166 340h190l-223 -340h-133z" />
    <glyph glyph-name="Wdieresis" unicode="&#x1e84;" horiz-adv-x="1998" 
d="M549 -63l-526 1497h178l356 -1076l387 1076h109l385 -1076l358 1076h180l-528 -1497l-451 1234zM686 1753q0 44 31.5 76.5t75.5 32.5t76 -32.5t32 -76.5t-32 -75t-76 -31t-75.5 31t-31.5 75zM1098 1753q0 45 31 77t75 32t76.5 -32.5t32.5 -76.5t-32 -75t-77 -31
q-44 0 -75 31t-31 75z" />
    <glyph glyph-name="wdieresis" unicode="&#x1e85;" horiz-adv-x="1669" 
d="M360 0l-337 1090h178l254 -887l293 887h176l295 -887l254 887h176l-338 -1090h-176l-299 889l-299 -889h-177zM524 1409q0 44 31.5 76.5t75.5 32.5t76 -32.5t32 -76.5t-32 -75t-76 -31t-75.5 31t-31.5 75zM936 1409q0 45 31 77t75 32t76.5 -32.5t32.5 -76.5t-32 -75
t-77 -31q-44 0 -75 31t-31 75z" />
    <glyph glyph-name="uni1E9E" unicode="&#x1e9e;" horiz-adv-x="1443" 
d="M168 0v1434h1192l-451 -596h64q113 -7 202 -65.5t137 -152t48 -204.5q0 -180 -121.5 -298t-306.5 -118h-332v160h324q115 0 191.5 74.5t76.5 187.5q0 114 -77 189t-191 75h-299l428 588h-719v-1274h-166z" />
    <glyph glyph-name="uni1EA0" unicode="&#x1ea0;" horiz-adv-x="1488" 
d="M8 0l737 1499l736 -1499h-187l-186 391h-729l-186 -391h-185zM451 539h585l-293 612zM633 -322q0 45 31 77t75 32t76.5 -32.5t32.5 -76.5t-32 -75t-77 -31q-44 0 -75 31t-31 75z" />
    <glyph glyph-name="uni1EA1" unicode="&#x1ea1;" 
d="M618 -20q-150 0 -276 75t-199 205t-73 285t73 285t199 205t276 75q135 0 243 -64t171 -174v218h160v-1090h-160v217q-63 -110 -171 -173.5t-243 -63.5zM240 545q0 -169 115.5 -285.5t281.5 -116.5q167 0 282 117t115 285q0 169 -115 285t-282 116q-166 0 -281.5 -116.5
t-115.5 -284.5zM553 -322q0 45 31 77t75 32t76.5 -32.5t32.5 -76.5t-32 -75t-77 -31q-44 0 -75 31t-31 75z" />
    <glyph glyph-name="uni1EA2" unicode="&#x1ea2;" horiz-adv-x="1488" 
d="M8 0l737 1499l736 -1499h-187l-186 391h-729l-186 -391h-185zM451 539h585l-293 612zM539 1749q0 84 57 140.5t158 56.5q95 0 144.5 -42t49.5 -110q0 -44 -21.5 -77t-47 -49t-47 -37.5t-21.5 -45.5h-125q0 37 21 66t45.5 44t45.5 36.5t21 46.5q0 59 -74 59q-39 0 -61 -23
t-22 -65h-123z" />
    <glyph glyph-name="uni1EA3" unicode="&#x1ea3;" 
d="M618 -20q-150 0 -276 75t-199 205t-73 285t73 285t199 205t276 75q135 0 243 -64t171 -174v218h160v-1090h-160v217q-63 -110 -171 -173.5t-243 -63.5zM240 545q0 -169 115.5 -285.5t281.5 -116.5q167 0 282 117t115 285q0 169 -115 285t-282 116q-166 0 -281.5 -116.5
t-115.5 -284.5zM446 1405q0 84 57 140.5t159 56.5q95 0 144.5 -42t49.5 -110q0 -44 -21.5 -77t-47 -49t-47 -37.5t-21.5 -45.5h-125q0 37 21 66t45.5 44t45.5 36.5t21 46.5q0 59 -74 59q-39 0 -61.5 -23t-22.5 -65h-123z" />
    <glyph glyph-name="uni1EA4" unicode="&#x1ea4;" horiz-adv-x="1488" 
d="M8 0l737 1499l736 -1499h-187l-186 391h-729l-186 -391h-185zM436 1567v151l303 199l303 -199v-151l-303 198zM451 539h585l-293 612zM877 1905l165 340h191l-223 -340h-133z" />
    <glyph glyph-name="uni1EA5" unicode="&#x1ea5;" 
d="M618 -20q-150 0 -276 75t-199 205t-73 285t73 285t199 205t276 75q135 0 243 -64t171 -174v218h160v-1090h-160v217q-63 -110 -171 -173.5t-243 -63.5zM240 545q0 -169 115.5 -285.5t281.5 -116.5q167 0 282 117t115 285q0 169 -115 285t-282 116q-166 0 -281.5 -116.5
t-115.5 -284.5zM346 1223v151l303 199l303 -199v-151l-303 198zM786 1561l166 340h191l-223 -340h-134z" />
    <glyph glyph-name="uni1EA6" unicode="&#x1ea6;" horiz-adv-x="1488" 
d="M8 0l737 1499l736 -1499h-187l-186 391h-729l-186 -391h-185zM436 1567v151l303 199l303 -199v-151l-303 198zM451 539h585l-293 612zM702 2245h191l166 -340h-133z" />
    <glyph glyph-name="uni1EA7" unicode="&#x1ea7;" 
d="M618 -20q-150 0 -276 75t-199 205t-73 285t73 285t199 205t276 75q135 0 243 -64t171 -174v218h160v-1090h-160v217q-63 -110 -171 -173.5t-243 -63.5zM240 545q0 -169 115.5 -285.5t281.5 -116.5q167 0 282 117t115 285q0 169 -115 285t-282 116q-166 0 -281.5 -116.5
t-115.5 -284.5zM346 1223v151l303 199l303 -199v-151l-303 198zM612 1901h191l166 -340h-133z" />
    <glyph glyph-name="uni1EA8" unicode="&#x1ea8;" horiz-adv-x="1488" 
d="M8 0l737 1499l736 -1499h-187l-186 391h-729l-186 -391h-185zM436 1567v151l303 199l303 -199v-151l-303 198zM451 539h585l-293 612zM758 2068q0 84 57 140.5t158 56.5q95 0 144.5 -41.5t49.5 -109.5q0 -44 -21.5 -77t-47 -49t-47 -37.5t-21.5 -45.5h-125q0 37 21 66
t45.5 43.5t45.5 36t21 46.5q0 60 -73 60q-39 0 -61.5 -23.5t-22.5 -65.5h-123z" />
    <glyph glyph-name="uni1EA9" unicode="&#x1ea9;" 
d="M618 -20q-150 0 -276 75t-199 205t-73 285t73 285t199 205t276 75q135 0 243 -64t171 -174v218h160v-1090h-160v217q-63 -110 -171 -173.5t-243 -63.5zM240 545q0 -169 115.5 -285.5t281.5 -116.5q167 0 282 117t115 285q0 169 -115 285t-282 116q-166 0 -281.5 -116.5
t-115.5 -284.5zM346 1223v151l303 199l303 -199v-151l-303 198zM668 1724q0 84 57 140.5t158 56.5q95 0 144.5 -42t49.5 -110q0 -36 -14 -64t-34 -45t-40.5 -31t-34.5 -31t-14 -37h-125q0 37 21 66t45.5 43.5t45.5 36t21 46.5q0 59 -74 59q-39 0 -61 -23t-22 -65h-123z" />
    <glyph glyph-name="uni1EAA" unicode="&#x1eaa;" horiz-adv-x="1488" 
d="M8 0l737 1499l736 -1499h-187l-186 391h-729l-186 -391h-185zM406 1952q4 123 62.5 187.5t154.5 64.5q36 0 66.5 -14t51.5 -34t39.5 -40t40.5 -34t45 -14q42 0 65 33.5t25 91.5h131q-4 -120 -61 -185.5t-152 -65.5q-44 0 -81.5 21t-59 45.5t-50 45.5t-56.5 21
q-42 0 -64 -33t-24 -90h-133zM436 1567v151l303 199l303 -199v-151l-303 198zM451 539h585l-293 612z" />
    <glyph glyph-name="uni1EAB" unicode="&#x1eab;" 
d="M618 -20q-150 0 -276 75t-199 205t-73 285t73 285t199 205t276 75q135 0 243 -64t171 -174v218h160v-1090h-160v217q-63 -110 -171 -173.5t-243 -63.5zM240 545q0 -169 115.5 -285.5t281.5 -116.5q167 0 282 117t115 285q0 169 -115 285t-282 116q-166 0 -281.5 -116.5
t-115.5 -284.5zM313 1608q4 123 62.5 187.5t154.5 64.5q36 0 66.5 -14t51.5 -34t40 -40t41 -34t45 -14q42 0 65 33.5t25 91.5h131q-4 -120 -61 -186t-152 -66q-44 0 -81.5 21t-59 46t-50 46t-56.5 21q-42 0 -64.5 -33t-24.5 -90h-133zM346 1223v151l303 199l303 -199v-151
l-303 198z" />
    <glyph glyph-name="uni1EAC" unicode="&#x1eac;" horiz-adv-x="1488" 
d="M8 0l737 1499l736 -1499h-187l-186 391h-729l-186 -391h-185zM436 1567v151l303 199l303 -199v-151l-303 198zM451 539h585l-293 612zM633 -322q0 45 31 77t75 32t76.5 -32.5t32.5 -76.5t-32 -75t-77 -31q-44 0 -75 31t-31 75z" />
    <glyph glyph-name="uni1EAD" unicode="&#x1ead;" 
d="M618 -20q-150 0 -276 75t-199 205t-73 285t73 285t199 205t276 75q135 0 243 -64t171 -174v218h160v-1090h-160v217q-63 -110 -171 -173.5t-243 -63.5zM240 545q0 -169 115.5 -285.5t281.5 -116.5q167 0 282 117t115 285q0 169 -115 285t-282 116q-166 0 -281.5 -116.5
t-115.5 -284.5zM346 1223v151l303 199l303 -199v-151l-303 198zM553 -322q0 45 31 77t75 32t76.5 -32.5t32.5 -76.5t-32 -75t-77 -31q-44 0 -75 31t-31 75z" />
    <glyph glyph-name="uni1EAE" unicode="&#x1eae;" horiz-adv-x="1488" 
d="M8 0l737 1499l736 -1499h-187l-186 391h-729l-186 -391h-185zM432 1870h135q3 -76 49 -124t125 -48q77 0 123 48t49 124h136q-7 -140 -92 -220.5t-216 -80.5q-132 0 -216 80.5t-93 220.5zM451 539h585l-293 612zM657 1905l166 340h191l-223 -340h-134z" />
    <glyph glyph-name="uni1EAF" unicode="&#x1eaf;" 
d="M618 -20q-150 0 -276 75t-199 205t-73 285t73 285t199 205t276 75q135 0 243 -64t171 -174v218h160v-1090h-160v217q-63 -110 -171 -173.5t-243 -63.5zM240 545q0 -169 115.5 -285.5t281.5 -116.5q167 0 282 117t115 285q0 169 -115 285t-282 116q-166 0 -281.5 -116.5
t-115.5 -284.5zM340 1526h135q3 -76 49 -124t125 -48q77 0 123 48t49 124h135q-7 -140 -91.5 -220.5t-215.5 -80.5q-132 0 -216 80.5t-93 220.5zM565 1561l166 340h191l-224 -340h-133z" />
    <glyph glyph-name="uni1EB0" unicode="&#x1eb0;" horiz-adv-x="1488" 
d="M8 0l737 1499l736 -1499h-187l-186 391h-729l-186 -391h-185zM432 1870h135q3 -76 49 -124t125 -48q77 0 123 48t49 124h136q-7 -140 -92 -220.5t-216 -80.5q-132 0 -216 80.5t-93 220.5zM451 539h585l-293 612zM483 2245h191l166 -340h-133z" />
    <glyph glyph-name="uni1EB1" unicode="&#x1eb1;" 
d="M618 -20q-150 0 -276 75t-199 205t-73 285t73 285t199 205t276 75q135 0 243 -64t171 -174v218h160v-1090h-160v217q-63 -110 -171 -173.5t-243 -63.5zM240 545q0 -169 115.5 -285.5t281.5 -116.5q167 0 282 117t115 285q0 169 -115 285t-282 116q-166 0 -281.5 -116.5
t-115.5 -284.5zM340 1526h135q3 -76 49 -124t125 -48q77 0 123 48t49 124h135q-7 -140 -91.5 -220.5t-215.5 -80.5q-132 0 -216 80.5t-93 220.5zM393 1901h191l166 -340h-134z" />
    <glyph glyph-name="uni1EB2" unicode="&#x1eb2;" horiz-adv-x="1488" 
d="M8 0l737 1499l736 -1499h-187l-186 391h-729l-186 -391h-185zM432 1870h135q3 -76 49 -124t125 -48q77 0 123 48t49 124h136q-7 -140 -92 -220.5t-216 -80.5q-132 0 -216 80.5t-93 220.5zM451 539h585l-293 612zM539 2068q0 84 57 140.5t158 56.5q95 0 144.5 -41.5
t49.5 -109.5q0 -44 -21.5 -77t-47 -49t-47 -37.5t-21.5 -45.5h-125q0 37 21 66t45.5 43.5t45.5 36t21 46.5q0 60 -74 60q-39 0 -61 -23.5t-22 -65.5h-123z" />
    <glyph glyph-name="uni1EB3" unicode="&#x1eb3;" 
d="M618 -20q-150 0 -276 75t-199 205t-73 285t73 285t199 205t276 75q135 0 243 -64t171 -174v218h160v-1090h-160v217q-63 -110 -171 -173.5t-243 -63.5zM240 545q0 -169 115.5 -285.5t281.5 -116.5q167 0 282 117t115 285q0 169 -115 285t-282 116q-166 0 -281.5 -116.5
t-115.5 -284.5zM340 1526h135q3 -76 49 -124t125 -48q77 0 123 48t49 124h135q-7 -140 -91.5 -220.5t-215.5 -80.5q-132 0 -216 80.5t-93 220.5zM446 1724q0 84 57 140.5t159 56.5q95 0 144.5 -42t49.5 -110q0 -36 -14 -64t-34 -45t-40.5 -31t-34.5 -31t-14 -37h-125
q0 37 21 66t45.5 43.5t45.5 36t21 46.5q0 59 -74 59q-39 0 -61.5 -23t-22.5 -65h-123z" />
    <glyph glyph-name="uni1EB4" unicode="&#x1eb4;" horiz-adv-x="1488" 
d="M8 0l737 1499l736 -1499h-187l-186 391h-729l-186 -391h-185zM399 1939q4 123 62.5 187.5t154.5 64.5q44 0 81 -21t58 -46.5t49 -46.5t56 -21q42 0 65 33.5t25 91.5h131q-4 -120 -61 -186t-152 -66q-44 0 -81.5 21t-59 45.5t-50 45.5t-56.5 21q-42 0 -64.5 -33t-24.5 -90
h-133zM432 1870h135q3 -76 49 -124t125 -48q77 0 123 48t49 124h136q-7 -140 -92 -220.5t-216 -80.5q-132 0 -216 80.5t-93 220.5zM451 539h585l-293 612z" />
    <glyph glyph-name="uni1EB5" unicode="&#x1eb5;" 
d="M618 -20q-150 0 -276 75t-199 205t-73 285t73 285t199 205t276 75q135 0 243 -64t171 -174v218h160v-1090h-160v217q-63 -110 -171 -173.5t-243 -63.5zM240 545q0 -169 115.5 -285.5t281.5 -116.5q167 0 282 117t115 285q0 169 -115 285t-282 116q-166 0 -281.5 -116.5
t-115.5 -284.5zM307 1595q4 123 62.5 187.5t154.5 64.5q44 0 81 -21t58 -46.5t49 -46.5t56 -21q42 0 65 33.5t25 91.5h131q-4 -120 -61 -186t-152 -66q-44 0 -81.5 21t-59.5 45.5t-50.5 45.5t-56.5 21q-42 0 -64 -33t-24 -90h-133zM340 1526h135q3 -76 49 -124t125 -48
q77 0 123 48t49 124h135q-7 -140 -91.5 -220.5t-215.5 -80.5q-132 0 -216 80.5t-93 220.5z" />
    <glyph glyph-name="uni1EB6" unicode="&#x1eb6;" horiz-adv-x="1488" 
d="M8 0l737 1499l736 -1499h-187l-186 391h-729l-186 -391h-185zM432 1870h135q3 -76 49 -124t125 -48q77 0 123 48t49 124h136q-7 -140 -92 -220.5t-216 -80.5q-132 0 -216 80.5t-93 220.5zM451 539h585l-293 612zM633 -322q0 45 31 77t75 32t76.5 -32.5t32.5 -76.5
t-32 -75t-77 -31q-44 0 -75 31t-31 75z" />
    <glyph glyph-name="uni1EB7" unicode="&#x1eb7;" 
d="M618 -20q-150 0 -276 75t-199 205t-73 285t73 285t199 205t276 75q135 0 243 -64t171 -174v218h160v-1090h-160v217q-63 -110 -171 -173.5t-243 -63.5zM240 545q0 -169 115.5 -285.5t281.5 -116.5q167 0 282 117t115 285q0 169 -115 285t-282 116q-166 0 -281.5 -116.5
t-115.5 -284.5zM340 1526h135q3 -76 49 -124t125 -48q77 0 123 48t49 124h135q-7 -140 -91.5 -220.5t-215.5 -80.5q-132 0 -216 80.5t-93 220.5zM553 -322q0 45 31 77t75 32t76.5 -32.5t32.5 -76.5t-32 -75t-77 -31q-44 0 -75 31t-31 75z" />
    <glyph glyph-name="uni1EB8" unicode="&#x1eb8;" horiz-adv-x="1265" 
d="M168 0v1434h1003v-160h-837v-461h776v-160h-776v-493h858v-160h-1024zM594 -322q0 45 31 77t75 32t76.5 -32.5t32.5 -76.5t-32 -75t-77 -31q-44 0 -75 31t-31 75z" />
    <glyph glyph-name="uni1EB9" unicode="&#x1eb9;" horiz-adv-x="1245" 
d="M631 -20q-157 0 -286 75.5t-202 205t-73 284.5t71 284.5t199 205t287 75.5q240 0 394.5 -152.5t154.5 -379.5q0 -34 -9 -72h-929q14 -156 124 -261.5t269 -105.5q212 0 330 174h182q-66 -151 -202 -242t-310 -91zM248 653h753q-25 135 -125 219t-249 84
q-145 0 -246.5 -83t-132.5 -220zM522 -322q0 44 31.5 76.5t75.5 32.5t76 -32.5t32 -76.5t-32 -75t-76 -31t-75.5 31t-31.5 75z" />
    <glyph glyph-name="uni1EBA" unicode="&#x1eba;" horiz-adv-x="1265" 
d="M168 0v1434h1003v-160h-837v-461h776v-160h-776v-493h858v-160h-1024zM492 1749q0 84 57 140.5t158 56.5q95 0 144.5 -42t49.5 -110q0 -44 -21.5 -77t-47 -49t-47 -37.5t-21.5 -45.5h-125q0 37 21 66t45.5 44t45.5 36.5t21 46.5q0 59 -74 59q-39 0 -61.5 -23t-22.5 -65
h-122z" />
    <glyph glyph-name="uni1EBB" unicode="&#x1ebb;" horiz-adv-x="1245" 
d="M631 -20q-157 0 -286 75.5t-202 205t-73 284.5t71 284.5t199 205t287 75.5q240 0 394.5 -152.5t154.5 -379.5q0 -34 -9 -72h-929q14 -156 124 -261.5t269 -105.5q212 0 330 174h182q-66 -151 -202 -242t-310 -91zM248 653h753q-25 135 -125 219t-249 84
q-145 0 -246.5 -83t-132.5 -220zM424 1405q0 84 57 140.5t158 56.5q95 0 145 -42t50 -110q0 -36 -14 -64t-34.5 -45t-41 -31.5t-34.5 -31.5t-14 -37h-125q0 37 21 66t46 44t46 36.5t21 46.5q0 59 -74 59q-39 0 -61.5 -23t-22.5 -65h-123z" />
    <glyph glyph-name="uni1EBC" unicode="&#x1ebc;" horiz-adv-x="1265" 
d="M168 0v1434h1003v-160h-837v-461h776v-160h-776v-493h858v-160h-1024zM352 1620q4 123 62.5 187.5t154.5 64.5q44 0 81 -21t58 -46.5t49 -46.5t56 -21q42 0 65 33.5t25 91.5h131q-4 -120 -61 -186t-152 -66q-44 0 -81.5 21t-59.5 45.5t-50.5 45.5t-56.5 21q-42 0 -64 -33
t-24 -90h-133z" />
    <glyph glyph-name="uni1EBD" unicode="&#x1ebd;" horiz-adv-x="1245" 
d="M631 -20q-157 0 -286 75.5t-202 205t-73 284.5t71 284.5t199 205t287 75.5q240 0 394.5 -152.5t154.5 -379.5q0 -34 -9 -72h-929q14 -156 124 -261.5t269 -105.5q212 0 330 174h182q-66 -151 -202 -242t-310 -91zM248 653h753q-25 135 -125 219t-249 84
q-145 0 -246.5 -83t-132.5 -220zM285 1276q4 123 62.5 187.5t154.5 64.5q36 0 66.5 -14t51.5 -34t39.5 -39.5t40.5 -33.5t45 -14q42 0 65.5 33.5t25.5 91.5h131q-4 -120 -61 -186t-152 -66q-44 0 -81.5 21t-59.5 45.5t-50.5 45.5t-56.5 21q-42 0 -64 -33t-24 -90h-133z" />
    <glyph glyph-name="uni1EBE" unicode="&#x1ebe;" horiz-adv-x="1265" 
d="M168 0v1434h1003v-160h-837v-461h776v-160h-776v-493h858v-160h-1024zM391 1567v151l303 199l303 -199v-151l-303 198zM831 1905l166 340h191l-223 -340h-134z" />
    <glyph glyph-name="uni1EBF" unicode="&#x1ebf;" horiz-adv-x="1245" 
d="M631 -20q-157 0 -286 75.5t-202 205t-73 284.5t71 284.5t199 205t287 75.5q240 0 394.5 -152.5t154.5 -379.5q0 -34 -9 -72h-929q14 -156 124 -261.5t269 -105.5q212 0 330 174h182q-66 -151 -202 -242t-310 -91zM248 653h753q-25 135 -125 219t-249 84
q-145 0 -246.5 -83t-132.5 -220zM322 1223v151l303 199l303 -199v-151l-303 198zM762 1561l166 340h190l-223 -340h-133z" />
    <glyph glyph-name="uni1EC0" unicode="&#x1ec0;" horiz-adv-x="1265" 
d="M168 0v1434h1003v-160h-837v-461h776v-160h-776v-493h858v-160h-1024zM391 1567v151l303 199l303 -199v-151l-303 198zM657 2245h191l166 -340h-133z" />
    <glyph glyph-name="uni1EC1" unicode="&#x1ec1;" horiz-adv-x="1245" 
d="M631 -20q-157 0 -286 75.5t-202 205t-73 284.5t71 284.5t199 205t287 75.5q240 0 394.5 -152.5t154.5 -379.5q0 -34 -9 -72h-929q14 -156 124 -261.5t269 -105.5q212 0 330 174h182q-66 -151 -202 -242t-310 -91zM248 653h753q-25 135 -125 219t-249 84
q-145 0 -246.5 -83t-132.5 -220zM322 1223v151l303 199l303 -199v-151l-303 198zM590 1901h190l166 -340h-133z" />
    <glyph glyph-name="uni1EC2" unicode="&#x1ec2;" horiz-adv-x="1265" 
d="M168 0v1434h1003v-160h-837v-461h776v-160h-776v-493h858v-160h-1024zM391 1567v151l303 199l303 -199v-151l-303 198zM713 2068q0 84 57 140.5t158 56.5q95 0 144.5 -41.5t49.5 -109.5q0 -44 -21.5 -77t-47 -49t-47 -37.5t-21.5 -45.5h-125q0 37 21 66t45.5 43.5
t45.5 36t21 46.5q0 60 -73 60q-39 0 -61.5 -23.5t-22.5 -65.5h-123z" />
    <glyph glyph-name="uni1EC3" unicode="&#x1ec3;" horiz-adv-x="1245" 
d="M631 -20q-157 0 -286 75.5t-202 205t-73 284.5t71 284.5t199 205t287 75.5q240 0 394.5 -152.5t154.5 -379.5q0 -34 -9 -72h-929q14 -156 124 -261.5t269 -105.5q212 0 330 174h182q-66 -151 -202 -242t-310 -91zM248 653h753q-25 135 -125 219t-249 84
q-145 0 -246.5 -83t-132.5 -220zM322 1223v151l303 199l303 -199v-151l-303 198zM643 1724q0 84 57 140.5t158 56.5q95 0 145 -42t50 -110q0 -36 -14 -64t-34.5 -45t-41 -31t-34.5 -31t-14 -37h-124q0 37 21 66t45.5 43.5t45.5 36t21 46.5q0 59 -74 59q-39 0 -61.5 -23
t-22.5 -65h-123z" />
    <glyph glyph-name="uni1EC4" unicode="&#x1ec4;" horiz-adv-x="1265" 
d="M168 0v1434h1003v-160h-837v-461h776v-160h-776v-493h858v-160h-1024zM358 1952q4 123 62.5 187.5t154.5 64.5q36 0 66.5 -14t51.5 -34t40 -40t41 -34t45 -14q42 0 65 33.5t25 91.5h131q-4 -120 -61 -185.5t-152 -65.5q-44 0 -81.5 21t-59 45.5t-50 45.5t-56.5 21
q-42 0 -64 -33t-24 -90h-134zM391 1567v151l303 199l303 -199v-151l-303 198z" />
    <glyph glyph-name="uni1EC5" unicode="&#x1ec5;" horiz-adv-x="1245" 
d="M631 -20q-157 0 -286 75.5t-202 205t-73 284.5t71 284.5t199 205t287 75.5q240 0 394.5 -152.5t154.5 -379.5q0 -34 -9 -72h-929q14 -156 124 -261.5t269 -105.5q212 0 330 174h182q-66 -151 -202 -242t-310 -91zM248 653h753q-25 135 -125 219t-249 84
q-145 0 -246.5 -83t-132.5 -220zM291 1608q4 123 62.5 187.5t154.5 64.5q36 0 66.5 -14t51.5 -34t40 -40t41 -34t45 -14q42 0 65 33.5t25 91.5h131q-4 -120 -61 -186t-152 -66q-44 0 -81.5 21t-59.5 46t-50.5 46t-56.5 21q-42 0 -64 -33t-24 -90h-133zM322 1223v151l303 199
l303 -199v-151l-303 198z" />
    <glyph glyph-name="uni1EC6" unicode="&#x1ec6;" horiz-adv-x="1265" 
d="M168 0v1434h1003v-160h-837v-461h776v-160h-776v-493h858v-160h-1024zM391 1567v151l303 199l303 -199v-151l-303 198zM594 -322q0 45 31 77t75 32t76.5 -32.5t32.5 -76.5t-32 -75t-77 -31q-44 0 -75 31t-31 75z" />
    <glyph glyph-name="uni1EC7" unicode="&#x1ec7;" horiz-adv-x="1245" 
d="M631 -20q-157 0 -286 75.5t-202 205t-73 284.5t71 284.5t199 205t287 75.5q240 0 394.5 -152.5t154.5 -379.5q0 -34 -9 -72h-929q14 -156 124 -261.5t269 -105.5q212 0 330 174h182q-66 -151 -202 -242t-310 -91zM248 653h753q-25 135 -125 219t-249 84
q-145 0 -246.5 -83t-132.5 -220zM322 1223v151l303 199l303 -199v-151l-303 198zM522 -322q0 44 31.5 76.5t75.5 32.5t76 -32.5t32 -76.5t-32 -75t-76 -31t-75.5 31t-31.5 75z" />
    <glyph glyph-name="uni1EC8" unicode="&#x1ec8;" horiz-adv-x="499" 
d="M168 0v1434h166v-1434h-166zM49 1749q0 84 57 140.5t158 56.5q95 0 145 -42t50 -110q0 -44 -21.5 -77t-47 -49t-47 -37.5t-21.5 -45.5h-125q0 37 21 66t45.5 44t45.5 36.5t21 46.5q0 59 -74 59q-39 0 -61.5 -23t-22.5 -65h-123z" />
    <glyph glyph-name="uni1EC9" unicode="&#x1ec9;" horiz-adv-x="458" 
d="M147 0v1090h166v-1090h-166zM29 1405q0 84 57 140.5t158 56.5q95 0 144.5 -42t49.5 -110q0 -44 -21.5 -77t-47 -49t-47 -37.5t-21.5 -45.5h-125q0 37 21 66t45.5 44t45.5 36.5t21 46.5q0 59 -73 59q-39 0 -61.5 -23t-22.5 -65h-123z" />
    <glyph glyph-name="uni1ECA" unicode="&#x1eca;" horiz-adv-x="499" 
d="M168 0v1434h166v-1434h-166zM143 -322q0 44 31.5 76.5t75.5 32.5t76 -32.5t32 -76.5t-32 -75t-76 -31t-75.5 31t-31.5 75z" />
    <glyph glyph-name="uni1ECB" unicode="&#x1ecb;" horiz-adv-x="458" 
d="M147 0v1090h166v-1090h-166zM121 1409q0 45 31 77t75 32t76.5 -32.5t32.5 -76.5t-32 -75t-77 -31q-44 0 -75 31t-31 75zM123 -322q0 45 31 77t75 32t76.5 -32.5t32.5 -76.5t-32 -75t-77 -31q-44 0 -75 31t-31 75z" />
    <glyph glyph-name="uni1ECC" unicode="&#x1ecc;" horiz-adv-x="1648" 
d="M825 -20q-155 0 -293 58t-236 156.5t-155 234.5t-57 288t57 288t155 234.5t236 156.5t293 58t293 -58t235.5 -156.5t154.5 -234.5t57 -288t-57 -288t-154.5 -234.5t-235.5 -156.5t-293 -58zM254 717q0 -158 74 -289.5t205.5 -208t291.5 -76.5q159 0 290 76.5t205.5 208
t74.5 289.5q0 117 -44 223t-119 183t-181.5 122t-225.5 45q-160 0 -291.5 -77t-205.5 -208t-74 -288zM717 -322q0 45 31 77t75 32t76.5 -32.5t32.5 -76.5t-32 -75t-77 -31q-44 0 -75 31t-31 75z" />
    <glyph glyph-name="uni1ECD" unicode="&#x1ecd;" horiz-adv-x="1273" 
d="M637 -20q-157 0 -287.5 75.5t-205 205.5t-74.5 284t74.5 284t205 205.5t287.5 75.5t287.5 -75.5t205 -205.5t74.5 -284t-74.5 -284t-205 -205.5t-287.5 -75.5zM240 545q0 -166 116 -284t281 -118t281 118t116 284t-116 283.5t-281 117.5t-281 -117.5t-116 -283.5z
M530 -322q0 44 31.5 76.5t75.5 32.5t76 -32.5t32 -76.5t-32 -75t-76 -31t-75.5 31t-31.5 75z" />
    <glyph glyph-name="uni1ECE" unicode="&#x1ece;" horiz-adv-x="1648" 
d="M825 -20q-155 0 -293 58t-236 156.5t-155 234.5t-57 288t57 288t155 234.5t236 156.5t293 58t293 -58t235.5 -156.5t154.5 -234.5t57 -288t-57 -288t-154.5 -234.5t-235.5 -156.5t-293 -58zM254 717q0 -158 74 -289.5t205.5 -208t291.5 -76.5q159 0 290 76.5t205.5 208
t74.5 289.5q0 117 -44 223t-119 183t-181.5 122t-225.5 45q-160 0 -291.5 -77t-205.5 -208t-74 -288zM623 1749q0 84 57 140.5t158 56.5q95 0 144.5 -42t49.5 -110q0 -44 -21.5 -77t-47 -49t-47 -37.5t-21.5 -45.5h-125q0 37 21 66t45.5 44t45.5 36.5t21 46.5q0 59 -74 59
q-39 0 -61.5 -23t-22.5 -65h-122z" />
    <glyph glyph-name="uni1ECF" unicode="&#x1ecf;" horiz-adv-x="1273" 
d="M637 -20q-157 0 -287.5 75.5t-205 205.5t-74.5 284t74.5 284t205 205.5t287.5 75.5t287.5 -75.5t205 -205.5t74.5 -284t-74.5 -284t-205 -205.5t-287.5 -75.5zM240 545q0 -166 116 -284t281 -118t281 118t116 284t-116 283.5t-281 117.5t-281 -117.5t-116 -283.5z
M436 1405q0 84 57 140.5t158 56.5q95 0 145 -42t50 -110q0 -44 -21.5 -77t-47 -49t-47 -37.5t-21.5 -45.5h-125q0 37 21 66t45.5 44t45.5 36.5t21 46.5q0 59 -74 59q-39 0 -61.5 -23t-22.5 -65h-123z" />
    <glyph glyph-name="uni1ED0" unicode="&#x1ed0;" horiz-adv-x="1648" 
d="M825 -20q-155 0 -293 58t-236 156.5t-155 234.5t-57 288t57 288t155 234.5t236 156.5t293 58t293 -58t235.5 -156.5t154.5 -234.5t57 -288t-57 -288t-154.5 -234.5t-235.5 -156.5t-293 -58zM254 717q0 -158 74 -289.5t205.5 -208t291.5 -76.5q159 0 290 76.5t205.5 208
t74.5 289.5q0 117 -44 223t-119 183t-181.5 122t-225.5 45q-160 0 -291.5 -77t-205.5 -208t-74 -288zM522 1567v151l303 199l303 -199v-151l-303 198zM963 1905l165 340h191l-223 -340h-133z" />
    <glyph glyph-name="uni1ED1" unicode="&#x1ed1;" horiz-adv-x="1273" 
d="M637 -20q-157 0 -287.5 75.5t-205 205.5t-74.5 284t74.5 284t205 205.5t287.5 75.5t287.5 -75.5t205 -205.5t74.5 -284t-74.5 -284t-205 -205.5t-287.5 -75.5zM240 545q0 -166 116 -284t281 -118t281 118t116 284t-116 283.5t-281 117.5t-281 -117.5t-116 -283.5z
M334 1223v151l303 199l303 -199v-151l-303 198zM774 1561l166 340h190l-223 -340h-133z" />
    <glyph glyph-name="uni1ED2" unicode="&#x1ed2;" horiz-adv-x="1648" 
d="M825 -20q-155 0 -293 58t-236 156.5t-155 234.5t-57 288t57 288t155 234.5t236 156.5t293 58t293 -58t235.5 -156.5t154.5 -234.5t57 -288t-57 -288t-154.5 -234.5t-235.5 -156.5t-293 -58zM254 717q0 -158 74 -289.5t205.5 -208t291.5 -76.5q159 0 290 76.5t205.5 208
t74.5 289.5q0 117 -44 223t-119 183t-181.5 122t-225.5 45q-160 0 -291.5 -77t-205.5 -208t-74 -288zM522 1567v151l303 199l303 -199v-151l-303 198zM788 2245h191l166 -340h-133z" />
    <glyph glyph-name="uni1ED3" unicode="&#x1ed3;" horiz-adv-x="1273" 
d="M637 -20q-157 0 -287.5 75.5t-205 205.5t-74.5 284t74.5 284t205 205.5t287.5 75.5t287.5 -75.5t205 -205.5t74.5 -284t-74.5 -284t-205 -205.5t-287.5 -75.5zM240 545q0 -166 116 -284t281 -118t281 118t116 284t-116 283.5t-281 117.5t-281 -117.5t-116 -283.5z
M334 1223v151l303 199l303 -199v-151l-303 198zM600 1901h191l165 -340h-133z" />
    <glyph glyph-name="uni1ED4" unicode="&#x1ed4;" horiz-adv-x="1648" 
d="M825 -20q-155 0 -293 58t-236 156.5t-155 234.5t-57 288t57 288t155 234.5t236 156.5t293 58t293 -58t235.5 -156.5t154.5 -234.5t57 -288t-57 -288t-154.5 -234.5t-235.5 -156.5t-293 -58zM254 717q0 -158 74 -289.5t205.5 -208t291.5 -76.5q159 0 290 76.5t205.5 208
t74.5 289.5q0 117 -44 223t-119 183t-181.5 122t-225.5 45q-160 0 -291.5 -77t-205.5 -208t-74 -288zM522 1567v151l303 199l303 -199v-151l-303 198zM842 2068q0 84 57 140.5t158 56.5q95 0 144.5 -41.5t49.5 -109.5q0 -44 -21.5 -77t-47 -49t-47 -37.5t-21.5 -45.5h-125
q0 37 21 66t45.5 43.5t45.5 36t21 46.5q0 60 -73 60q-39 0 -61.5 -23.5t-22.5 -65.5h-123z" />
    <glyph glyph-name="uni1ED5" unicode="&#x1ed5;" horiz-adv-x="1273" 
d="M637 -20q-157 0 -287.5 75.5t-205 205.5t-74.5 284t74.5 284t205 205.5t287.5 75.5t287.5 -75.5t205 -205.5t74.5 -284t-74.5 -284t-205 -205.5t-287.5 -75.5zM240 545q0 -166 116 -284t281 -118t281 118t116 284t-116 283.5t-281 117.5t-281 -117.5t-116 -283.5z
M334 1223v151l303 199l303 -199v-151l-303 198zM655 1724q0 84 57 140.5t158 56.5q95 0 145 -42t50 -110q0 -36 -14 -64t-34.5 -45t-40.5 -31t-34 -31t-14 -37h-125q0 37 21 66t45.5 43.5t45.5 36t21 46.5q0 59 -74 59q-39 0 -61.5 -23t-22.5 -65h-123z" />
    <glyph glyph-name="uni1ED6" unicode="&#x1ed6;" horiz-adv-x="1648" 
d="M825 -20q-155 0 -293 58t-236 156.5t-155 234.5t-57 288t57 288t155 234.5t236 156.5t293 58t293 -58t235.5 -156.5t154.5 -234.5t57 -288t-57 -288t-154.5 -234.5t-235.5 -156.5t-293 -58zM254 717q0 -158 74 -289.5t205.5 -208t291.5 -76.5q159 0 290 76.5t205.5 208
t74.5 289.5q0 117 -44 223t-119 183t-181.5 122t-225.5 45q-160 0 -291.5 -77t-205.5 -208t-74 -288zM489 1952q4 123 63 187.5t155 64.5q36 0 66.5 -14t51.5 -34t39.5 -40t40.5 -34t45 -14q42 0 65 33.5t25 91.5h131q-4 -120 -61 -185.5t-152 -65.5q-44 0 -81.5 21
t-59 45.5t-50 45.5t-56.5 21q-42 0 -64 -33t-24 -90h-134zM522 1567v151l303 199l303 -199v-151l-303 198z" />
    <glyph glyph-name="uni1ED7" unicode="&#x1ed7;" horiz-adv-x="1273" 
d="M637 -20q-157 0 -287.5 75.5t-205 205.5t-74.5 284t74.5 284t205 205.5t287.5 75.5t287.5 -75.5t205 -205.5t74.5 -284t-74.5 -284t-205 -205.5t-287.5 -75.5zM240 545q0 -166 116 -284t281 -118t281 118t116 284t-116 283.5t-281 117.5t-281 -117.5t-116 -283.5z
M303 1608q4 123 62.5 187.5t154.5 64.5q36 0 66.5 -14t51.5 -34t40 -40t41 -34t45 -14q42 0 65 33.5t25 91.5h131q-4 -120 -61 -186t-152 -66q-44 0 -81.5 21t-59.5 46t-50.5 46t-56.5 21q-42 0 -64 -33t-24 -90h-133zM334 1223v151l303 199l303 -199v-151l-303 198z" />
    <glyph glyph-name="uni1ED8" unicode="&#x1ed8;" horiz-adv-x="1648" 
d="M825 -20q-155 0 -293 58t-236 156.5t-155 234.5t-57 288t57 288t155 234.5t236 156.5t293 58t293 -58t235.5 -156.5t154.5 -234.5t57 -288t-57 -288t-154.5 -234.5t-235.5 -156.5t-293 -58zM254 717q0 -158 74 -289.5t205.5 -208t291.5 -76.5q159 0 290 76.5t205.5 208
t74.5 289.5q0 117 -44 223t-119 183t-181.5 122t-225.5 45q-160 0 -291.5 -77t-205.5 -208t-74 -288zM522 1567v151l303 199l303 -199v-151l-303 198zM717 -322q0 45 31 77t75 32t76.5 -32.5t32.5 -76.5t-32 -75t-77 -31q-44 0 -75 31t-31 75z" />
    <glyph glyph-name="uni1ED9" unicode="&#x1ed9;" horiz-adv-x="1273" 
d="M637 -20q-157 0 -287.5 75.5t-205 205.5t-74.5 284t74.5 284t205 205.5t287.5 75.5t287.5 -75.5t205 -205.5t74.5 -284t-74.5 -284t-205 -205.5t-287.5 -75.5zM240 545q0 -166 116 -284t281 -118t281 118t116 284t-116 283.5t-281 117.5t-281 -117.5t-116 -283.5z
M334 1223v151l303 199l303 -199v-151l-303 198zM530 -322q0 44 31.5 76.5t75.5 32.5t76 -32.5t32 -76.5t-32 -75t-76 -31t-75.5 31t-31.5 75z" />
    <glyph glyph-name="uni1EDA" unicode="&#x1eda;" horiz-adv-x="1648" 
d="M825 -20q-155 0 -293 58t-236 156.5t-155 234.5t-57 288t57 288t155 234.5t236 156.5t293 58q98 0 179 -20q109 2 159.5 39.5t50.5 125.5q0 40 -6 70h166q6 -30 6 -72q0 -184 -151 -258q156 -100 246 -264t90 -358q0 -152 -57 -288t-154.5 -234.5t-235.5 -156.5t-293 -58
zM254 717q0 -158 74 -289.5t205.5 -208t291.5 -76.5q159 0 290 76.5t205.5 208t74.5 289.5q0 117 -44 223t-119 183t-181.5 122t-225.5 45q-160 0 -291.5 -77t-205.5 -208t-74 -288zM741 1585l166 340h191l-224 -340h-133z" />
    <glyph glyph-name="uni1EDB" unicode="&#x1edb;" horiz-adv-x="1273" 
d="M637 -20q-157 0 -287.5 75.5t-205 205.5t-74.5 284t74.5 284t205 205.5t287.5 75.5q77 0 147 -18q94 5 139.5 43t45.5 120q0 40 -6 70h165q7 -35 7 -72q0 -199 -197 -256q127 -63 196.5 -185t69.5 -267q0 -154 -74.5 -284t-205 -205.5t-287.5 -75.5zM240 545
q0 -166 116 -284t281 -118t281 118t116 284t-116 283.5t-281 117.5t-281 -117.5t-116 -283.5zM555 1241l166 340h190l-223 -340h-133z" />
    <glyph glyph-name="uni1EDC" unicode="&#x1edc;" horiz-adv-x="1648" 
d="M825 -20q-155 0 -293 58t-236 156.5t-155 234.5t-57 288t57 288t155 234.5t236 156.5t293 58q98 0 179 -20q109 2 159.5 39.5t50.5 125.5q0 40 -6 70h166q6 -30 6 -72q0 -184 -151 -258q156 -100 246 -264t90 -358q0 -152 -57 -288t-154.5 -234.5t-235.5 -156.5t-293 -58
zM254 717q0 -158 74 -289.5t205.5 -208t291.5 -76.5q159 0 290 76.5t205.5 208t74.5 289.5q0 117 -44 223t-119 183t-181.5 122t-225.5 45q-160 0 -291.5 -77t-205.5 -208t-74 -288zM569 1925h191l166 -340h-133z" />
    <glyph glyph-name="uni1EDD" unicode="&#x1edd;" horiz-adv-x="1273" 
d="M637 -20q-157 0 -287.5 75.5t-205 205.5t-74.5 284t74.5 284t205 205.5t287.5 75.5q77 0 147 -18q94 5 139.5 43t45.5 120q0 40 -6 70h165q7 -35 7 -72q0 -199 -197 -256q127 -63 196.5 -185t69.5 -267q0 -154 -74.5 -284t-205 -205.5t-287.5 -75.5zM240 545
q0 -166 116 -284t281 -118t281 118t116 284t-116 283.5t-281 117.5t-281 -117.5t-116 -283.5zM381 1581h190l166 -340h-133z" />
    <glyph glyph-name="uni1EDE" unicode="&#x1ede;" horiz-adv-x="1648" 
d="M825 -20q-155 0 -293 58t-236 156.5t-155 234.5t-57 288t57 288t155 234.5t236 156.5t293 58q98 0 179 -20q109 2 159.5 39.5t50.5 125.5q0 40 -6 70h166q6 -30 6 -72q0 -184 -151 -258q156 -100 246 -264t90 -358q0 -152 -57 -288t-154.5 -234.5t-235.5 -156.5t-293 -58
zM254 717q0 -158 74 -289.5t205.5 -208t291.5 -76.5q159 0 290 76.5t205.5 208t74.5 289.5q0 117 -44 223t-119 183t-181.5 122t-225.5 45q-160 0 -291.5 -77t-205.5 -208t-74 -288zM623 1749q0 84 57 140.5t158 56.5q95 0 144.5 -42t49.5 -110q0 -44 -21.5 -77t-47 -49
t-47 -37.5t-21.5 -45.5h-125q0 37 21 66t45.5 44t45.5 36.5t21 46.5q0 59 -74 59q-39 0 -61.5 -23t-22.5 -65h-122z" />
    <glyph glyph-name="uni1EDF" unicode="&#x1edf;" horiz-adv-x="1273" 
d="M637 -20q-157 0 -287.5 75.5t-205 205.5t-74.5 284t74.5 284t205 205.5t287.5 75.5q77 0 147 -18q94 5 139.5 43t45.5 120q0 40 -6 70h165q7 -35 7 -72q0 -199 -197 -256q127 -63 196.5 -185t69.5 -267q0 -154 -74.5 -284t-205 -205.5t-287.5 -75.5zM240 545
q0 -166 116 -284t281 -118t281 118t116 284t-116 283.5t-281 117.5t-281 -117.5t-116 -283.5zM436 1405q0 84 57 140.5t158 56.5q95 0 145 -42t50 -110q0 -44 -21.5 -77t-47 -49t-47 -37.5t-21.5 -45.5h-125q0 37 21 66t45.5 44t45.5 36.5t21 46.5q0 59 -74 59
q-39 0 -61.5 -23t-22.5 -65h-123z" />
    <glyph glyph-name="uni1EE0" unicode="&#x1ee0;" horiz-adv-x="1648" 
d="M825 -20q-155 0 -293 58t-236 156.5t-155 234.5t-57 288t57 288t155 234.5t236 156.5t293 58q98 0 179 -20q109 2 159.5 39.5t50.5 125.5q0 40 -6 70h166q6 -30 6 -72q0 -184 -151 -258q156 -100 246 -264t90 -358q0 -152 -57 -288t-154.5 -234.5t-235.5 -156.5t-293 -58
zM254 717q0 -158 74 -289.5t205.5 -208t291.5 -76.5q159 0 290 76.5t205.5 208t74.5 289.5q0 117 -44 223t-119 183t-181.5 122t-225.5 45q-160 0 -291.5 -77t-205.5 -208t-74 -288zM483 1620q4 123 62.5 187.5t154.5 64.5q44 0 81 -21t58 -46.5t49 -46.5t56 -21
q42 0 65 33.5t25 91.5h131q-4 -120 -61 -186t-152 -66q-44 0 -81.5 21t-59 45.5t-50 45.5t-56.5 21q-42 0 -64.5 -33t-24.5 -90h-133z" />
    <glyph glyph-name="uni1EE1" unicode="&#x1ee1;" horiz-adv-x="1273" 
d="M637 -20q-157 0 -287.5 75.5t-205 205.5t-74.5 284t74.5 284t205 205.5t287.5 75.5q77 0 147 -18q94 5 139.5 43t45.5 120q0 40 -6 70h165q7 -35 7 -72q0 -199 -197 -256q127 -63 196.5 -185t69.5 -267q0 -154 -74.5 -284t-205 -205.5t-287.5 -75.5zM240 545
q0 -166 116 -284t281 -118t281 118t116 284t-116 283.5t-281 117.5t-281 -117.5t-116 -283.5zM297 1276q4 123 62.5 187.5t154.5 64.5q44 0 81 -21t58 -46.5t49 -46.5t56 -21q42 0 65 33.5t25 91.5h131q-4 -120 -61 -186t-152 -66q-44 0 -81.5 21t-59.5 45.5t-50.5 45.5
t-56.5 21q-42 0 -64 -33t-24 -90h-133z" />
    <glyph glyph-name="uni1EE2" unicode="&#x1ee2;" horiz-adv-x="1648" 
d="M825 -20q-155 0 -293 58t-236 156.5t-155 234.5t-57 288t57 288t155 234.5t236 156.5t293 58q98 0 179 -20q109 2 159.5 39.5t50.5 125.5q0 40 -6 70h166q6 -30 6 -72q0 -184 -151 -258q156 -100 246 -264t90 -358q0 -152 -57 -288t-154.5 -234.5t-235.5 -156.5t-293 -58
zM254 717q0 -158 74 -289.5t205.5 -208t291.5 -76.5q159 0 290 76.5t205.5 208t74.5 289.5q0 117 -44 223t-119 183t-181.5 122t-225.5 45q-160 0 -291.5 -77t-205.5 -208t-74 -288zM717 -322q0 45 31 77t75 32t76.5 -32.5t32.5 -76.5t-32 -75t-77 -31q-44 0 -75 31t-31 75z
" />
    <glyph glyph-name="uni1EE3" unicode="&#x1ee3;" horiz-adv-x="1273" 
d="M637 -20q-157 0 -287.5 75.5t-205 205.5t-74.5 284t74.5 284t205 205.5t287.5 75.5q77 0 147 -18q94 5 139.5 43t45.5 120q0 40 -6 70h165q7 -35 7 -72q0 -199 -197 -256q127 -63 196.5 -185t69.5 -267q0 -154 -74.5 -284t-205 -205.5t-287.5 -75.5zM240 545
q0 -166 116 -284t281 -118t281 118t116 284t-116 283.5t-281 117.5t-281 -117.5t-116 -283.5zM530 -322q0 44 31.5 76.5t75.5 32.5t76 -32.5t32 -76.5t-32 -75t-76 -31t-75.5 31t-31.5 75z" />
    <glyph glyph-name="uni1EE4" unicode="&#x1ee4;" horiz-adv-x="1482" 
d="M741 -20q-259 0 -424 164.5t-165 430.5v859h165v-859q0 -192 114 -312t310 -120q195 0 309.5 120t114.5 312v859h166v-859q0 -266 -165.5 -430.5t-424.5 -164.5zM633 -322q0 45 31 77t75 32t76.5 -32.5t32.5 -76.5t-32 -75t-77 -31q-44 0 -75 31t-31 75z" />
    <glyph glyph-name="uni1EE5" unicode="&#x1ee5;" horiz-adv-x="1228" 
d="M614 -20q-207 0 -344 140t-137 353v617h166v-621q0 -143 87 -234.5t228 -91.5q140 0 228 92t88 234v621h166v-617q0 -213 -137.5 -353t-344.5 -140zM516 -322q0 44 31.5 76.5t75.5 32.5t76 -32.5t32 -76.5t-32 -75t-76 -31t-75.5 31t-31.5 75z" />
    <glyph glyph-name="uni1EE6" unicode="&#x1ee6;" horiz-adv-x="1482" 
d="M741 -20q-259 0 -424 164.5t-165 430.5v859h165v-859q0 -192 114 -312t310 -120q195 0 309.5 120t114.5 312v859h166v-859q0 -266 -165.5 -430.5t-424.5 -164.5zM539 1749q0 84 57 140.5t158 56.5q95 0 144.5 -42t49.5 -110q0 -44 -21.5 -77t-47 -49t-47 -37.5
t-21.5 -45.5h-125q0 37 21 66t45.5 44t45.5 36.5t21 46.5q0 59 -74 59q-39 0 -61 -23t-22 -65h-123z" />
    <glyph glyph-name="uni1EE7" unicode="&#x1ee7;" horiz-adv-x="1228" 
d="M614 -20q-207 0 -344 140t-137 353v617h166v-621q0 -143 87 -234.5t228 -91.5q140 0 228 92t88 234v621h166v-617q0 -213 -137.5 -353t-344.5 -140zM412 1405q0 84 57 140.5t158 56.5q95 0 144.5 -42t49.5 -110q0 -44 -21.5 -77t-47 -49t-47 -37.5t-21.5 -45.5h-125
q0 37 21 66t45.5 44t45.5 36.5t21 46.5q0 59 -74 59q-39 0 -61 -23t-22 -65h-123z" />
    <glyph glyph-name="uni1EE8" unicode="&#x1ee8;" horiz-adv-x="1482" 
d="M741 -20q-259 0 -424 164.5t-165 430.5v859h165v-859q0 -192 114 -312t310 -120q195 0 309.5 120t114.5 312v859h25q114 0 167.5 37.5t53.5 127.5q0 40 -6 70h166q6 -30 6 -72q0 -115 -62 -189.5t-184 -100.5v-732q0 -266 -165.5 -430.5t-424.5 -164.5zM657 1585l166 340
h191l-223 -340h-134z" />
    <glyph glyph-name="uni1EE9" unicode="&#x1ee9;" horiz-adv-x="1228" 
d="M614 -20q-207 0 -344 140t-137 353v617h166v-621q0 -143 87 -234.5t228 -91.5q140 0 228 92t88 234v621h12q114 0 167.5 37.5t53.5 127.5q0 40 -6 70h166q6 -30 6 -72q0 -112 -58.5 -185.5t-174.5 -102.5v-492q0 -213 -137.5 -353t-344.5 -140zM530 1241l166 340h191
l-223 -340h-134z" />
    <glyph glyph-name="uni1EEA" unicode="&#x1eea;" horiz-adv-x="1482" 
d="M741 -20q-259 0 -424 164.5t-165 430.5v859h165v-859q0 -192 114 -312t310 -120q195 0 309.5 120t114.5 312v859h25q114 0 167.5 37.5t53.5 127.5q0 40 -6 70h166q6 -30 6 -72q0 -115 -62 -189.5t-184 -100.5v-732q0 -266 -165.5 -430.5t-424.5 -164.5zM485 1925h191
l166 -340h-133z" />
    <glyph glyph-name="uni1EEB" unicode="&#x1eeb;" horiz-adv-x="1228" 
d="M614 -20q-207 0 -344 140t-137 353v617h166v-621q0 -143 87 -234.5t228 -91.5q140 0 228 92t88 234v621h12q114 0 167.5 37.5t53.5 127.5q0 40 -6 70h166q6 -30 6 -72q0 -112 -58.5 -185.5t-174.5 -102.5v-492q0 -213 -137.5 -353t-344.5 -140zM358 1581h191l166 -340
h-133z" />
    <glyph glyph-name="uni1EEC" unicode="&#x1eec;" horiz-adv-x="1482" 
d="M741 -20q-259 0 -424 164.5t-165 430.5v859h165v-859q0 -192 114 -312t310 -120q195 0 309.5 120t114.5 312v859h25q114 0 167.5 37.5t53.5 127.5q0 40 -6 70h166q6 -30 6 -72q0 -115 -62 -189.5t-184 -100.5v-732q0 -266 -165.5 -430.5t-424.5 -164.5zM539 1749
q0 84 57 140.5t158 56.5q95 0 144.5 -42t49.5 -110q0 -44 -21.5 -77t-47 -49t-47 -37.5t-21.5 -45.5h-125q0 37 21 66t45.5 44t45.5 36.5t21 46.5q0 59 -74 59q-39 0 -61 -23t-22 -65h-123z" />
    <glyph glyph-name="uni1EED" unicode="&#x1eed;" horiz-adv-x="1228" 
d="M614 -20q-207 0 -344 140t-137 353v617h166v-621q0 -143 87 -234.5t228 -91.5q140 0 228 92t88 234v621h12q114 0 167.5 37.5t53.5 127.5q0 40 -6 70h166q6 -30 6 -72q0 -112 -58.5 -185.5t-174.5 -102.5v-492q0 -213 -137.5 -353t-344.5 -140zM412 1405q0 84 57 140.5
t158 56.5q95 0 144.5 -42t49.5 -110q0 -44 -21.5 -77t-47 -49t-47 -37.5t-21.5 -45.5h-125q0 37 21 66t45.5 44t45.5 36.5t21 46.5q0 59 -74 59q-39 0 -61 -23t-22 -65h-123z" />
    <glyph glyph-name="uni1EEE" unicode="&#x1eee;" horiz-adv-x="1482" 
d="M741 -20q-259 0 -424 164.5t-165 430.5v859h165v-859q0 -192 114 -312t310 -120q195 0 309.5 120t114.5 312v859h25q114 0 167.5 37.5t53.5 127.5q0 40 -6 70h166q6 -30 6 -72q0 -115 -62 -189.5t-184 -100.5v-732q0 -266 -165.5 -430.5t-424.5 -164.5zM399 1620
q4 123 62.5 187.5t154.5 64.5q44 0 81 -21t58 -46.5t49 -46.5t56 -21q42 0 65 33.5t25 91.5h131q-4 -120 -61 -186t-152 -66q-44 0 -81.5 21t-59 45.5t-50 45.5t-56.5 21q-42 0 -64.5 -33t-24.5 -90h-133z" />
    <glyph glyph-name="uni1EEF" unicode="&#x1eef;" horiz-adv-x="1228" 
d="M614 -20q-207 0 -344 140t-137 353v617h166v-621q0 -143 87 -234.5t228 -91.5q140 0 228 92t88 234v621h12q114 0 167.5 37.5t53.5 127.5q0 40 -6 70h166q6 -30 6 -72q0 -112 -58.5 -185.5t-174.5 -102.5v-492q0 -213 -137.5 -353t-344.5 -140zM272 1276
q4 123 62.5 187.5t154.5 64.5q44 0 81 -21t58 -46.5t49 -46.5t56 -21q42 0 65 33.5t25 91.5h131q-4 -120 -61 -186t-152 -66q-44 0 -81.5 21t-59 45.5t-50 45.5t-56.5 21q-42 0 -64 -33t-24 -90h-134z" />
    <glyph glyph-name="uni1EF0" unicode="&#x1ef0;" horiz-adv-x="1482" 
d="M741 -20q-259 0 -424 164.5t-165 430.5v859h165v-859q0 -192 114 -312t310 -120q195 0 309.5 120t114.5 312v859h25q114 0 167.5 37.5t53.5 127.5q0 40 -6 70h166q6 -30 6 -72q0 -115 -62 -189.5t-184 -100.5v-732q0 -266 -165.5 -430.5t-424.5 -164.5zM633 -322
q0 45 31 77t75 32t76.5 -32.5t32.5 -76.5t-32 -75t-77 -31q-44 0 -75 31t-31 75z" />
    <glyph glyph-name="uni1EF1" unicode="&#x1ef1;" horiz-adv-x="1228" 
d="M614 -20q-207 0 -344 140t-137 353v617h166v-621q0 -143 87 -234.5t228 -91.5q140 0 228 92t88 234v621h12q114 0 167.5 37.5t53.5 127.5q0 40 -6 70h166q6 -30 6 -72q0 -112 -58.5 -185.5t-174.5 -102.5v-492q0 -213 -137.5 -353t-344.5 -140zM516 -322q0 44 31.5 76.5
t75.5 32.5t76 -32.5t32 -76.5t-32 -75t-76 -31t-75.5 31t-31.5 75z" />
    <glyph glyph-name="Ygrave" unicode="&#x1ef2;" horiz-adv-x="1314" 
d="M586 0v518l-570 916h191l465 -746l444 746h182l-546 -912v-522h-166zM401 1925h191l166 -340h-133z" />
    <glyph glyph-name="ygrave" unicode="&#x1ef3;" horiz-adv-x="1120" 
d="M248 -410l229 504l-469 996h185l374 -807l355 807h178l-670 -1500h-182zM305 1581h191l166 -340h-134z" />
    <glyph glyph-name="uni1EF4" unicode="&#x1ef4;" horiz-adv-x="1314" 
d="M586 0v518l-570 916h191l465 -746l444 746h182l-546 -912v-522h-166zM551 -322q0 45 31 77t75 32t76.5 -32.5t32.5 -76.5t-32 -75t-77 -31q-44 0 -75 31t-31 75z" />
    <glyph glyph-name="uni1EF5" unicode="&#x1ef5;" horiz-adv-x="1120" 
d="M248 -410l229 504l-469 996h185l374 -807l355 807h178l-670 -1500h-182zM750 -322q0 45 31 77t75 32t76.5 -32.5t32.5 -76.5t-32 -75t-77 -31q-44 0 -75 31t-31 75z" />
    <glyph glyph-name="uni1EF6" unicode="&#x1ef6;" horiz-adv-x="1314" 
d="M586 0v518l-570 916h191l465 -746l444 746h182l-546 -912v-522h-166zM457 1749q0 84 57 140.5t158 56.5q95 0 144.5 -42t49.5 -110q0 -44 -21.5 -77t-47 -49t-47 -37.5t-21.5 -45.5h-125q0 37 21 66t45.5 44t45.5 36.5t21 46.5q0 59 -73 59q-39 0 -61.5 -23t-22.5 -65
h-123z" />
    <glyph glyph-name="uni1EF7" unicode="&#x1ef7;" horiz-adv-x="1120" 
d="M248 -410l229 504l-469 996h185l374 -807l355 807h178l-670 -1500h-182zM360 1405q0 84 57 140.5t158 56.5q95 0 145 -42t50 -110q0 -44 -21.5 -77t-47 -49t-47 -37.5t-21.5 -45.5h-125q0 37 21 66t45.5 44t45.5 36.5t21 46.5q0 59 -74 59q-39 0 -61.5 -23t-22.5 -65
h-123z" />
    <glyph glyph-name="uni1EF8" unicode="&#x1ef8;" horiz-adv-x="1314" 
d="M586 0v518l-570 916h191l465 -746l444 746h182l-546 -912v-522h-166zM317 1620q4 123 63 187.5t155 64.5q36 0 66.5 -14t51.5 -34t39.5 -39.5t40.5 -33.5t45 -14q42 0 65 33.5t25 91.5h131q-4 -120 -61 -186t-152 -66q-44 0 -81.5 21t-59 45.5t-50 45.5t-56.5 21
q-42 0 -64 -33t-24 -90h-134z" />
    <glyph glyph-name="uni1EF9" unicode="&#x1ef9;" horiz-adv-x="1120" 
d="M248 -410l229 504l-469 996h185l374 -807l355 807h178l-670 -1500h-182zM221 1276q4 123 62.5 187.5t154.5 64.5q44 0 81 -21t58 -46.5t49 -46.5t56 -21q42 0 65 33.5t25 91.5h131q-4 -120 -61 -186t-152 -66q-44 0 -81.5 21t-59.5 45.5t-50.5 45.5t-56.5 21
q-42 0 -64 -33t-24 -90h-133z" />
    <glyph glyph-name="uni2000" unicode="&#x2000;" horiz-adv-x="1103" 
 />
    <glyph glyph-name="uni2002" unicode="&#x2002;" horiz-adv-x="1103" 
 />
    <glyph glyph-name="uni2003" unicode="&#x2003;" horiz-adv-x="1728" 
 />
    <glyph glyph-name="uni2004" unicode="&#x2004;" horiz-adv-x="894" 
 />
    <glyph glyph-name="uni2005" unicode="&#x2005;" horiz-adv-x="792" 
 />
    <glyph glyph-name="uni2006" unicode="&#x2006;" horiz-adv-x="688" 
 />
    <glyph glyph-name="uni2007" unicode="&#x2007;" horiz-adv-x="1302" 
 />
    <glyph glyph-name="uni2008" unicode="&#x2008;" horiz-adv-x="366" 
 />
    <glyph glyph-name="uni2009" unicode="&#x2009;" horiz-adv-x="729" 
 />
    <glyph glyph-name="uni200A" unicode="&#x200a;" horiz-adv-x="657" 
 />
    <glyph glyph-name="uni200B" unicode="&#x200b;" horiz-adv-x="479" 
 />
    <glyph glyph-name="endash" unicode="&#x2013;" horiz-adv-x="1081" 
d="M0 623v112h1081v-112h-1081z" />
    <glyph glyph-name="emdash" unicode="&#x2014;" horiz-adv-x="1646" 
d="M0 623v112h1647v-112h-1647z" />
    <glyph glyph-name="quoteleft" unicode="&#x2018;" horiz-adv-x="366" 
d="M324 1434l-78 -435h-178l118 435h138z" />
    <glyph glyph-name="quoteright" unicode="&#x2019;" horiz-adv-x="366" 
d="M43 1001l78 435h178l-119 -435h-137z" />
    <glyph glyph-name="quotesinglbase" unicode="&#x201a;" horiz-adv-x="366" 
d="M43 -207l78 434h178l-119 -434h-137z" />
    <glyph glyph-name="quotedblleft" unicode="&#x201c;" horiz-adv-x="665" 
d="M324 1434l-78 -435h-178l118 435h138zM367 999l118 435h138l-78 -435h-178z" />
    <glyph glyph-name="quotedblright" unicode="&#x201d;" horiz-adv-x="665" 
d="M344 1001l78 435h178l-119 -435h-137zM43 1001l78 435h178l-119 -435h-137z" />
    <glyph glyph-name="quotedblbase" unicode="&#x201e;" horiz-adv-x="665" 
d="M344 -207l78 434h178l-119 -434h-137zM43 -207l78 434h178l-119 -434h-137z" />
    <glyph glyph-name="dagger" unicode="&#x2020;" horiz-adv-x="854" 
d="M344 0v930h-324v160h324v344h166v-344h324v-160h-324v-930h-166z" />
    <glyph glyph-name="daggerdbl" unicode="&#x2021;" horiz-adv-x="854" 
d="M344 0v344h-324v160h324v426h-324v160h324v344h166v-344h324v-160h-324v-426h324v-160h-324v-344h-166z" />
    <glyph glyph-name="bullet" unicode="&#x2022;" horiz-adv-x="487" 
d="M244 575q-74 0 -128.5 54t-54.5 127q0 76 54.5 130t128.5 54q75 0 129.5 -54t54.5 -130q0 -74 -54.5 -127.5t-129.5 -53.5z" />
    <glyph glyph-name="ellipsis" unicode="&#x2026;" horiz-adv-x="1128" 
d="M944 -20q-50 0 -85.5 35.5t-35.5 84.5q0 51 35.5 87t85.5 36q51 0 87 -36t36 -87q0 -50 -36 -85t-87 -35zM61 100q0 51 35.5 87t85.5 36q51 0 87 -36t36 -87q0 -50 -36 -85t-87 -35q-50 0 -85.5 35.5t-35.5 84.5zM442 100q0 51 35.5 87t85.5 36q51 0 87 -36t36 -87
q0 -50 -36 -85t-87 -35q-50 0 -85.5 35.5t-35.5 84.5z" />
    <glyph glyph-name="uni202F" unicode="&#x202f;" horiz-adv-x="679" 
 />
    <glyph glyph-name="perthousand" unicode="&#x2030;" horiz-adv-x="2390" 
d="M211 0l1036 1434h187l-1037 -1434h-186zM84 1130q0 134 95 229t229 95q135 0 229 -95t94 -229q0 -135 -94 -230t-229 -95q-134 0 -229 95t-95 230zM231 1130q0 -74 52 -126t125 -52q74 0 126 52t52 126q0 72 -52.5 124.5t-125.5 52.5t-125 -52.5t-52 -124.5zM911 303
q0 135 95 230.5t229 95.5t229 -95.5t95 -230.5q0 -133 -95 -228t-229 -95t-229 95t-95 228zM1059 303q0 -72 51.5 -124t124.5 -52t125.5 52t52.5 124q0 73 -52.5 125.5t-125.5 52.5t-124.5 -52t-51.5 -126zM1657 303q0 135 94.5 230.5t228.5 95.5q135 0 230.5 -95.5
t95.5 -230.5q0 -134 -95.5 -228.5t-230.5 -94.5q-134 0 -228.5 95t-94.5 228zM1804 303q0 -72 52 -124t124 -52q73 0 126 52t53 124q0 73 -52.5 125.5t-126.5 52.5q-72 0 -124 -52.5t-52 -125.5z" />
    <glyph glyph-name="guilsinglleft" unicode="&#x2039;" horiz-adv-x="692" 
d="M465 0l-434 545l434 545h197l-435 -545l435 -545h-197z" />
    <glyph glyph-name="guilsinglright" unicode="&#x203a;" horiz-adv-x="692" 
d="M31 0l434 545l-434 545h196l435 -545l-435 -545h-196z" />
    <glyph glyph-name="fraction" unicode="&#x2044;" horiz-adv-x="495" 
d="M-152 0l656 1434h143l-655 -1434h-144z" />
    <glyph glyph-name="uni205F" unicode="&#x205f;" horiz-adv-x="755" 
 />
    <glyph glyph-name="uni20AA" unicode="&#x20aa;" horiz-adv-x="1837" 
d="M598 0v760h166v-594h405q154 0 239 86t85 250v727h166v-715q0 -239 -134.5 -376.5t-369.5 -137.5h-557zM154 0v1229h571q234 0 361.5 -131t127.5 -371v-274h-165v274q0 164 -85 250t-239 86h-406v-1063h-165z" />
    <glyph glyph-name="Euro" unicode="&#x20ac;" horiz-adv-x="1683" 
d="M879 -20q-260 0 -456.5 152t-258.5 392h-164v109h143q-4 54 -4 84t4 84h-143v108h164q62 240 258.5 392.5t456.5 152.5q265 0 463 -156t257 -401h-174q-58 175 -205.5 284t-340.5 109q-188 0 -333.5 -105.5t-203.5 -275.5h711v-108h-738q-6 -41 -6 -84t6 -84h738v-109
h-713q60 -170 205 -275.5t334 -105.5q193 0 340 109.5t204 284.5h176q-59 -245 -257 -401t-463 -156z" />
    <glyph glyph-name="trademark" unicode="&#x2122;" horiz-adv-x="1579" 
d="M664 717v747l378 -417l369 417v-747h-141v430l-228 -285l-237 285v-430h-141zM20 1307v127h562v-127h-211v-590h-140v590h-211z" />
    <glyph glyph-name="oneeighth" unicode="&#x215b;" horiz-adv-x="1980" 
d="M293 430l-2 834l-189 -84v139l330 129v-1018h-139zM494 0l655 1434h143l-655 -1434h-143zM1196 272q0 95 52.5 159t142.5 95q-74 28 -120 85.5t-46 140.5q0 117 93.5 192.5t242.5 75.5q148 0 240.5 -75.5t92.5 -192.5q0 -83 -44.5 -140.5t-118.5 -85.5
q89 -31 140.5 -94.5t51.5 -159.5q0 -128 -102 -208t-260 -80t-261.5 80t-103.5 208zM1339 283q0 -78 63.5 -125t158.5 -47q94 0 156.5 47t62.5 125q0 85 -62 131.5t-157 46.5q-97 0 -159.5 -46.5t-62.5 -131.5zM1364 741q0 -72 56.5 -114.5t140.5 -42.5q82 0 139 43t57 114
q0 70 -55 113t-141 43t-141.5 -43.5t-55.5 -112.5z" />
    <glyph glyph-name="threeeighths" unicode="&#x215c;" horiz-adv-x="2152" 
d="M403 414q-156 0 -256.5 90.5t-101.5 232.5h141q1 -83 61.5 -135.5t153.5 -52.5t155 45.5t62 122.5q0 84 -66 130t-165 46h-74v119h74q87 0 143 42t56 113q0 67 -49.5 108.5t-137.5 41.5q-89 0 -144.5 -48.5t-55.5 -123.5h-144q3 127 97.5 217t248.5 90q152 0 240 -77
t88 -197q0 -79 -43 -135.5t-113 -86.5q88 -32 138.5 -97t50.5 -161q0 -126 -101.5 -205t-257.5 -79zM666 0l655 1434h143l-655 -1434h-143zM1368 272q0 95 52.5 159t142.5 95q-74 28 -120 85.5t-46 140.5q0 117 93.5 192.5t242.5 75.5q148 0 240.5 -75.5t92.5 -192.5
q0 -83 -44.5 -140.5t-118.5 -85.5q89 -31 140.5 -94.5t51.5 -159.5q0 -128 -102 -208t-260 -80t-261.5 80t-103.5 208zM1511 283q0 -78 63.5 -125t158.5 -47q94 0 156.5 47t62.5 125q0 85 -62 131.5t-157 46.5q-97 0 -159.5 -46.5t-62.5 -131.5zM1536 741q0 -72 56.5 -114.5
t140.5 -42.5q82 0 139 43t57 114q0 70 -55 113t-141 43t-141.5 -43.5t-55.5 -112.5z" />
    <glyph glyph-name="fiveeighths" unicode="&#x215d;" horiz-adv-x="2162" 
d="M426 414q-146 0 -246.5 89t-101.5 226h143q1 -78 59.5 -129t145.5 -51q86 0 144.5 59t58.5 144q0 89 -60.5 149t-148.5 60q-136 0 -211 -91h-119l60 564h573v-134h-457l-30 -284q82 65 206 65q145 0 237.5 -92t92.5 -235q0 -147 -96.5 -243.5t-249.5 -96.5zM676 0
l655 1434h144l-656 -1434h-143zM1378 272q0 95 52.5 159t142.5 95q-74 28 -120 85.5t-46 140.5q0 117 93.5 192.5t242.5 75.5q148 0 241 -75.5t93 -192.5q0 -83 -45 -140.5t-119 -85.5q89 -31 140.5 -94.5t51.5 -159.5q0 -128 -102 -208t-260 -80t-261.5 80t-103.5 208z
M1522 283q0 -78 63 -125t158 -47q94 0 156.5 47t62.5 125q0 85 -62 131.5t-157 46.5q-96 0 -158.5 -46.5t-62.5 -131.5zM1546 741q0 -72 56.5 -114.5t140.5 -42.5q82 0 139 43t57 114q0 70 -55 113t-141 43t-141.5 -43.5t-55.5 -112.5z" />
    <glyph glyph-name="seveneighths" unicode="&#x215e;" horiz-adv-x="2019" 
d="M160 430l329 870h-483v134h682l-379 -1004h-149zM532 0l656 1434h143l-655 -1434h-144zM1235 272q0 95 52.5 159t142.5 95q-74 28 -120 85.5t-46 140.5q0 118 93 193t242 75q148 0 241 -75.5t93 -192.5q0 -83 -45 -140.5t-119 -85.5q89 -31 141 -94.5t52 -159.5
q0 -128 -102.5 -208t-260.5 -80t-261 80t-103 208zM1378 283q0 -78 63 -125t158 -47t157.5 47t62.5 125q0 84 -62.5 131t-157.5 47q-96 0 -158.5 -46.5t-62.5 -131.5zM1403 741q0 -72 56 -114.5t140 -42.5q83 0 140 43t57 114q0 70 -55.5 113t-141.5 43t-141 -43.5
t-55 -112.5z" />
    <glyph glyph-name="arrowleft" unicode="&#x2190;" horiz-adv-x="1761" 
d="M594 145l-555 555l555 557l117 -118l-361 -357l1348 2v-166l-1346 -2l359 -354z" />
    <glyph glyph-name="arrowup" unicode="&#x2191;" horiz-adv-x="1173" 
d="M1024 889l-356 360l2 -1347h-166l-2 1343l-355 -356l-116 117l555 555l557 -557z" />
    <glyph glyph-name="arrowright" unicode="&#x2192;" horiz-adv-x="1761" 
d="M1167 145l-116 117l358 354l-1346 2v166l1348 -2l-360 357l116 118l555 -557z" />
    <glyph glyph-name="arrowdown" unicode="&#x2193;" horiz-adv-x="1173" 
d="M588 -147l-557 557l116 114l359 -360l-2 1347h166l2 -1343l352 356l119 -116z" />
    <glyph glyph-name="arrowboth" unicode="&#x2194;" horiz-adv-x="2273" 
d="M594 145l-555 555l555 557l117 -118l-361 -357h1573l-360 357l116 118l555 -557l-555 -555l-116 117l360 354h-1571l359 -354z" />
    <glyph glyph-name="arrowupdn" unicode="&#x2195;" horiz-adv-x="1173" 
d="M588 -250l-557 557l116 115l357 -359v1285l-354 -357l-119 117l555 555l557 -557l-117 -115l-356 357l2 -1285l352 359l119 -117z" />
    <glyph glyph-name="uni2196" unicode="&#x2196;" horiz-adv-x="1353" 
d="M1214 100l-950 953l2 -508h-166v788h785v-166l-504 2l950 -952z" />
    <glyph glyph-name="uni2197" unicode="&#x2197;" horiz-adv-x="1353" 
d="M139 98l-116 117l950 952l-504 -2v166h786v-788h-165l2 508z" />
    <glyph glyph-name="uni2198" unicode="&#x2198;" horiz-adv-x="1353" 
d="M469 94v166l504 -2l-950 952l116 117l953 -952l-2 508h165v-789h-786z" />
    <glyph glyph-name="uni2199" unicode="&#x2199;" horiz-adv-x="1353" 
d="M100 94v789h166l-2 -508l950 952l117 -117l-950 -952l504 2v-166h-785z" />
    <glyph glyph-name="partialdiff" unicode="&#x2202;" horiz-adv-x="1175" 
d="M588 -20q-223 0 -370.5 141.5t-147.5 349.5q0 136 65.5 249.5t179 179t248.5 65.5q220 0 342 -168q-31 248 -207 424t-489 260l119 96q388 -108 584 -378.5t196 -657.5q0 -136 -42.5 -245t-115 -177t-165 -103.5t-197.5 -35.5zM240 471q0 -147 102.5 -242.5t245.5 -95.5
t246.5 95.5t103.5 242.5q0 148 -103 244t-247 96q-143 0 -245.5 -95.5t-102.5 -244.5z" />
    <glyph glyph-name="uni2206" unicode="&#x2206;" horiz-adv-x="1460" 
d="M8 0l723 1499l721 -1499h-1444zM262 147h934l-467 998z" />
    <glyph glyph-name="product" unicode="&#x220f;" horiz-adv-x="1406" 
d="M256 -410v1684h-246v160h1366v-160h-246v-1684h-165v1684h-543v-1684h-166z" />
    <glyph glyph-name="summation" unicode="&#x2211;" horiz-adv-x="1155" 
d="M29 -410l581 942l-581 902h1032v-160h-729l485 -742l-485 -782h749v-160h-1052z" />
    <glyph glyph-name="minus" unicode="&#x2212;" horiz-adv-x="1181" 
d="M41 653v160h1100v-160h-1100z" />
    <glyph glyph-name="radical" unicode="&#x221a;" horiz-adv-x="1503" 
d="M475 0l-452 1090h186l354 -891l506 1439h412v-159h-289l-545 -1479h-172z" />
    <glyph glyph-name="infinity" unicode="&#x221e;" horiz-adv-x="1181" 
d="M864 463q-146 0 -274 158q-128 -158 -275 -158q-112 0 -193 76t-81 196q0 122 81.5 199.5t192.5 77.5q147 0 275 -158q128 158 274 158q113 0 195 -77.5t82 -199.5q0 -121 -82 -196.5t-195 -75.5zM195 735q0 -55 38 -88t82 -33q89 0 195 121q-40 49 -91.5 87t-103.5 38
q-44 0 -82 -33.5t-38 -91.5zM672 735q106 -121 192 -121q45 0 82 32.5t37 88.5q0 58 -37 91.5t-82 33.5q-51 0 -101.5 -37.5t-90.5 -87.5z" />
    <glyph glyph-name="integral" unicode="&#x222b;" horiz-adv-x="643" 
d="M-27 -410v160h58q49 0 79.5 35t36.5 100l121 1383q12 135 90.5 211.5t204.5 76.5h60v-159h-70q-50 0 -81.5 -35.5t-37.5 -99.5l-121 -1383q-10 -135 -88.5 -212t-204.5 -77h-47z" />
    </font>
</defs>
</svg>
